<?xml version="1.0" encoding="utf-8" standalone="no"?>
<!DOCTYPE svg PUBLIC "-//W3C//DTD SVG 1.1//EN"
  "http://www.w3.org/Graphics/SVG/1.1/DTD/svg11.dtd">
<svg xmlns:xlink="http://www.w3.org/1999/xlink" width="216pt" height="216pt" viewBox="0 0 216 216" xmlns="http://www.w3.org/2000/svg" version="1.1">
 <metadata>
  <rdf:RDF xmlns:dc="http://purl.org/dc/elements/1.1/" xmlns:cc="http://creativecommons.org/ns#" xmlns:rdf="http://www.w3.org/1999/02/22-rdf-syntax-ns#">
   <cc:Work>
    <dc:type rdf:resource="http://purl.org/dc/dcmitype/StillImage"/>
    <dc:date>2025-05-25T23:50:00.791149</dc:date>
    <dc:format>image/svg+xml</dc:format>
    <dc:creator>
     <cc:Agent>
      <dc:title>Matplotlib v3.8.4, https://matplotlib.org/</dc:title>
     </cc:Agent>
    </dc:creator>
   </cc:Work>
  </rdf:RDF>
 </metadata>
 <defs>
  <style type="text/css">*{stroke-linejoin: round; stroke-linecap: butt}</style>
 </defs>
 <g id="figure_1">
  <g id="patch_1">
   <path d="M 0 216 
L 216 216 
L 216 0 
L 0 0 
z
" style="fill: #ffffff"/>
  </g>
  <g id="axes_1">
   <g id="line2d_1">
    <path d="M 110.7 107.46 
" clip-path="url(#p58a1215859)" style="fill: none; stroke: #1f77b4; stroke-width: 1.5; stroke-linecap: square"/>
    <defs>
     <path id="m63f02cfac6" d="M -3 3 
L 3 -3 
M -3 -3 
L 3 3 
" style="stroke: #1f77b4"/>
    </defs>
    <g clip-path="url(#p58a1215859)">
     <use xlink:href="#m63f02cfac6" x="110.7" y="107.46" style="fill: #1f77b4; stroke: #1f77b4"/>
    </g>
   </g>
   <g id="line2d_2">
    <path d="M 152.55 107.46 
L 152.439632 106.59012 
L 152.093323 105.671295 
L 151.456522 104.637159 
L 150.4074 103.380598 
L 148.692082 101.701057 
L 145.547028 98.977924 
L 136.570417 91.297575 
L 132.121696 87.144271 
L 127.914301 82.911438 
L 123.559877 78.206957 
L 115.215123 69.072973 
L 113.692561 67.821481 
L 112.509842 67.122603 
L 111.499222 66.776256 
L 110.5732 66.692183 
L 109.667632 66.833392 
L 108.697096 67.21665 
L 107.590431 67.90527 
L 106.231596 69.03007 
L 104.38807 70.868829 
L 101.158944 74.458177 
L 94.658784 81.675312 
L 90.387144 86.058891 
L 86.052562 90.18614 
L 81.315546 94.381972 
L 70.986661 103.386984 
L 69.83801 104.785429 
L 69.20315 105.892118 
L 68.906486 106.83874 
L 68.859777 107.718087 
L 69.039277 108.601985 
L 69.468295 109.551759 
L 70.222327 110.649469 
L 71.446615 112.012325 
L 73.472714 113.904947 
L 77.729987 117.511396 
L 84.214205 123.071135 
L 88.73799 127.254429 
L 92.974264 131.477281 
L 97.280667 136.091825 
L 106.509256 146.139796 
L 107.945479 147.261464 
L 109.081898 147.882321 
L 110.065113 148.175458 
L 110.979023 148.219435 
L 111.897977 148.03752 
L 112.885586 147.606745 
L 114.02699 146.852898 
L 115.443898 145.63359 
L 117.425728 143.60792 
L 121.335001 139.218763 
L 126.81849 133.162517 
L 131.095895 128.779093 
L 135.4323 124.656034 
L 140.166019 120.468097 
L 150.371601 111.577769 
L 151.541309 110.164137 
L 152.184311 109.056098 
L 152.488408 108.108835 
L 152.55 107.46 
L 152.55 107.46 
" clip-path="url(#p58a1215859)" style="fill: none; stroke: #000000; stroke-width: 1.5; stroke-linecap: square"/>
   </g>
   <g id="line2d_3">
    <path d="M 158.528571 107.46 
L 158.410759 104.191619 
L 158.0579 100.939339 
L 157.471735 97.719183 
L 156.655151 94.547015 
L 155.61217 91.438463 
L 154.347931 88.40884 
L 152.868662 85.473071 
L 151.181651 82.645621 
L 149.295208 79.940418 
L 147.218627 77.370788 
L 144.962139 74.949393 
L 142.53686 72.688159 
L 139.954737 70.598228 
L 137.228492 68.689895 
L 134.371555 66.972562 
L 131.398002 65.454688 
L 128.32248 64.143752 
L 125.160142 63.046212 
L 121.926566 62.167475 
L 118.637683 61.51187 
L 115.309696 61.082627 
L 111.958999 60.88186 
L 108.602099 60.910559 
L 105.255535 61.168581 
L 101.935793 61.654657 
L 98.659227 62.366391 
L 95.44198 63.300277 
L 92.299901 64.451715 
L 89.248469 65.815031 
L 86.302717 67.38351 
L 83.477158 69.149424 
L 80.785711 71.104073 
L 78.241636 73.237829 
L 75.857466 75.540179 
L 73.644946 77.999781 
L 71.614976 80.604518 
L 69.777558 83.341557 
L 68.141742 86.197415 
L 66.715589 89.158022 
L 65.506122 92.208793 
L 64.519302 95.334699 
L 63.759989 98.52034 
L 63.231925 101.750021 
L 62.93771 105.007833 
L 62.878795 108.277725 
L 63.055469 111.543588 
L 63.466862 114.789334 
L 64.110947 117.998972 
L 64.984552 121.156691 
L 66.083372 124.246933 
L 67.401994 127.254475 
L 68.933922 130.1645 
L 70.67161 132.962672 
L 72.606496 135.635206 
L 74.729048 138.168936 
L 77.028809 140.55138 
L 79.494451 142.7708 
L 82.113826 144.816263 
L 84.874029 146.677691 
L 87.761463 148.345915 
L 90.761903 149.812716 
L 93.860567 151.070868 
L 97.04219 152.114173 
L 100.291098 152.93749 
L 103.591285 153.536764 
L 106.926493 153.909043 
L 110.280291 154.052492 
L 113.636156 153.966405 
L 116.977557 153.651205 
L 120.288031 153.108447 
L 123.55127 152.340803 
L 126.751198 151.352055 
L 129.872051 150.147075 
L 132.898453 148.731798 
L 135.815495 147.113198 
L 138.608806 145.299247 
L 141.264626 143.298883 
L 143.76987 141.12196 
L 146.112197 138.779202 
L 148.280067 136.282151 
L 150.2628 133.64311 
L 152.050628 130.875077 
L 153.634744 127.991692 
L 155.007344 125.007158 
L 156.161665 121.936178 
L 157.09202 118.793882 
L 157.793827 115.59575 
L 158.263629 112.357538 
L 158.499109 109.095198 
L 158.528571 107.46 
L 158.528571 107.46 
" clip-path="url(#p58a1215859)" style="fill: none; stroke-dasharray: 0.74,0.32; stroke-dashoffset: 0; stroke: #0000ff; stroke-width: 0.2"/>
   </g>
   <g id="line2d_4">
    <path d="M 146.571429 107.46 
L 146.483069 105.008714 
L 146.218425 102.569504 
L 145.778801 100.154388 
L 145.166363 97.775262 
L 144.384127 95.443847 
L 143.435948 93.17163 
L 142.326497 90.969804 
L 141.061238 88.849216 
L 139.646406 86.820313 
L 138.088971 84.893091 
L 136.396604 83.077045 
L 134.577645 81.38112 
L 132.641053 79.813671 
L 130.596369 78.382421 
L 128.453667 77.094421 
L 126.223501 75.956016 
L 123.91686 74.972814 
L 121.545106 74.149659 
L 119.119925 73.490606 
L 116.653263 72.998903 
L 114.157272 72.67697 
L 111.644249 72.526395 
L 109.126575 72.547919 
L 106.616651 72.741436 
L 104.126845 73.105993 
L 101.66942 73.639793 
L 99.256485 74.340208 
L 96.899926 75.203786 
L 94.611352 76.226273 
L 92.402038 77.402632 
L 90.282869 78.727068 
L 88.264283 80.193055 
L 86.356227 81.793372 
L 84.568099 83.520135 
L 82.908709 85.364836 
L 81.386232 87.318388 
L 80.008168 89.371168 
L 78.781307 91.513061 
L 77.711691 93.733517 
L 76.804592 96.021595 
L 76.064477 98.366024 
L 75.494992 100.755255 
L 75.098944 103.177516 
L 74.878283 105.620875 
L 74.834096 108.073294 
L 74.966601 110.522691 
L 75.275146 112.957001 
L 75.75821 115.364229 
L 76.413414 117.732518 
L 77.237529 120.0502 
L 78.226495 122.305856 
L 79.375442 124.488375 
L 80.678707 126.587004 
L 82.129872 128.591405 
L 83.721786 130.491702 
L 85.446607 132.278535 
L 87.295838 133.9431 
L 89.260369 135.477197 
L 91.330522 136.873268 
L 93.496097 138.124436 
L 95.746427 139.224537 
L 98.070425 140.168151 
L 100.456643 140.950629 
L 102.893324 141.568117 
L 105.368464 142.017573 
L 107.86987 142.296782 
L 110.385218 142.404369 
L 112.902117 142.339803 
L 115.408167 142.103404 
L 117.891023 141.696335 
L 120.338453 141.120602 
L 122.738399 140.379041 
L 125.079038 139.475306 
L 127.34884 138.413849 
L 129.536621 137.199898 
L 131.631605 135.839435 
L 133.62347 134.339162 
L 135.502403 132.70647 
L 137.259148 130.949401 
L 138.88505 129.076614 
L 140.3721 127.097332 
L 141.712971 125.021308 
L 142.901058 122.858769 
L 143.930508 120.620368 
L 144.796249 118.317134 
L 145.494015 115.960412 
L 146.020371 113.561813 
L 146.372721 111.133153 
L 146.549332 108.686398 
L 146.571429 107.46 
L 146.571429 107.46 
" clip-path="url(#p58a1215859)" style="fill: none; stroke-dasharray: 0.74,0.32; stroke-dashoffset: 0; stroke: #000000; stroke-width: 0.2"/>
   </g>
   <g id="line2d_5">
    <path d="M 158.528571 107.46 
L 158.410904 105.829835 
L 158.060216 104.231754 
L 157.483411 102.69721 
L 156.691841 101.256405 
L 155.701085 99.937697 
L 154.530643 98.76704 
L 153.203552 97.767474 
L 151.745929 96.958672 
L 150.186464 96.356553 
L 148.555849 95.972968 
L 146.886178 95.815465 
L 145.210312 95.887145 
L 143.561235 96.186598 
L 141.971404 96.707929 
L 140.472108 97.440877 
L 139.092856 98.371018 
L 137.860795 99.480045 
L 136.800173 100.746129 
L 135.931864 102.144354 
L 135.272959 103.647198 
L 134.836426 105.225085 
L 134.630856 106.846958 
L 134.660296 108.480897 
L 134.924165 110.094743 
L 135.417271 111.656733 
L 136.129909 113.136125 
L 137.048052 114.503802 
L 138.153631 115.732845 
L 139.424885 116.799066 
L 140.836794 117.681479 
L 142.36157 118.362717 
L 143.969203 118.829372 
L 145.628052 119.072261 
L 147.305468 119.086601 
L 148.968436 118.872112 
L 150.584228 118.433014 
L 152.121042 117.77795 
L 153.54863 116.919812 
L 154.838896 115.87549 
L 155.966445 114.665538 
L 156.909086 113.313769 
L 157.648265 111.846789 
L 158.169434 110.293471 
L 158.462336 108.684384 
L 158.528571 107.46 
L 158.528571 107.46 
" clip-path="url(#p58a1215859)" style="fill: none; stroke: #ff0000; stroke-linecap: square"/>
   </g>
   <g id="line2d_6">
    <path d="M 146.571429 107.46 
" clip-path="url(#p58a1215859)" style="fill: none; stroke: #ff0000; stroke-width: 1.5; stroke-linecap: square"/>
    <defs>
     <path id="mf8cff13784" d="M -3 3 
L 3 -3 
M -3 -3 
L 3 3 
" style="stroke: #ff0000"/>
    </defs>
    <g clip-path="url(#p58a1215859)">
     <use xlink:href="#mf8cff13784" x="146.571429" y="107.46" style="fill: #ff0000; stroke: #ff0000"/>
    </g>
   </g>
   <g id="line2d_7">
    <path d="M 152.55 107.46 
" clip-path="url(#p58a1215859)" style="fill: none; stroke: #000000; stroke-width: 1.5; stroke-linecap: square"/>
    <defs>
     <path id="ma5650672e7" d="M 0 1.5 
C 0.397805 1.5 0.77937 1.341951 1.06066 1.06066 
C 1.341951 0.77937 1.5 0.397805 1.5 0 
C 1.5 -0.397805 1.341951 -0.77937 1.06066 -1.06066 
C 0.77937 -1.341951 0.397805 -1.5 0 -1.5 
C -0.397805 -1.5 -0.77937 -1.341951 -1.06066 -1.06066 
C -1.341951 -0.77937 -1.5 -0.397805 -1.5 0 
C -1.5 0.397805 -1.341951 0.77937 -1.06066 1.06066 
C -0.77937 1.341951 -0.397805 1.5 0 1.5 
z
" style="stroke: #000000"/>
    </defs>
    <g clip-path="url(#p58a1215859)">
     <use xlink:href="#ma5650672e7" x="152.55" y="107.46" style="stroke: #000000"/>
    </g>
   </g>
  </g>
 </g>
 <defs>
  <clipPath id="p58a1215859">
   <rect x="27" y="25.92" width="167.4" height="163.08"/>
  </clipPath>
 </defs>
</svg>
