<?xml version="1.0" encoding="utf-8" standalone="no"?>
<!DOCTYPE svg PUBLIC "-//W3C//DTD SVG 1.1//EN"
  "http://www.w3.org/Graphics/SVG/1.1/DTD/svg11.dtd">
<svg xmlns:xlink="http://www.w3.org/1999/xlink" width="216pt" height="216pt" viewBox="0 0 216 216" xmlns="http://www.w3.org/2000/svg" version="1.1">
 <metadata>
  <rdf:RDF xmlns:dc="http://purl.org/dc/elements/1.1/" xmlns:cc="http://creativecommons.org/ns#" xmlns:rdf="http://www.w3.org/1999/02/22-rdf-syntax-ns#">
   <cc:Work>
    <dc:type rdf:resource="http://purl.org/dc/dcmitype/StillImage"/>
    <dc:date>2025-05-25T18:22:37.515047</dc:date>
    <dc:format>image/svg+xml</dc:format>
    <dc:creator>
     <cc:Agent>
      <dc:title>Matplotlib v3.8.4, https://matplotlib.org/</dc:title>
     </cc:Agent>
    </dc:creator>
   </cc:Work>
  </rdf:RDF>
 </metadata>
 <defs>
  <style type="text/css">*{stroke-linejoin: round; stroke-linecap: butt}</style>
 </defs>
 <g id="figure_1">
  <g id="patch_1">
   <path d="M 0 216 
L 216 216 
L 216 0 
L 0 0 
z
" style="fill: #ffffff"/>
  </g>
  <g id="axes_1">
   <g id="line2d_1">
    <path d="M 110.7 107.46 
" clip-path="url(#p9cb33e6e0e)" style="fill: none; stroke: #1f77b4; stroke-width: 1.5; stroke-linecap: square"/>
    <defs>
     <path id="m5df6aa7415" d="M -3 3 
L 3 -3 
M -3 -3 
L 3 3 
" style="stroke: #1f77b4"/>
    </defs>
    <g clip-path="url(#p9cb33e6e0e)">
     <use xlink:href="#m5df6aa7415" x="110.7" y="107.46" style="fill: #1f77b4; stroke: #1f77b4"/>
    </g>
   </g>
   <g id="line2d_2">
    <path d="M 166.5 107.46 
L 166.387241 108.55102 
L 166.049583 109.629687 
L 165.478366 110.699946 
L 164.652214 111.763172 
L 163.554763 112.801574 
L 162.171576 113.795209 
L 160.49063 114.722081 
L 158.502831 115.558306 
L 156.202549 116.27835 
L 153.622766 116.849136 
L 150.775014 117.250012 
L 147.674221 117.461127 
L 144.338773 117.463804 
L 140.790523 117.240937 
L 137.100496 116.784432 
L 133.300743 116.090399 
L 129.424031 115.157834 
L 125.455566 113.972957 
L 121.476647 112.550706 
L 117.521412 110.899154 
L 113.623358 109.029339 
L 109.815002 106.955164 
L 106.127557 104.693261 
L 102.590618 102.262832 
L 99.23187 99.685447 
L 96.076817 96.98483 
L 93.148531 94.186608 
L 90.467438 91.318045 
L 88.051121 88.407752 
L 85.938199 85.520549 
L 84.109016 82.650857 
L 82.571574 79.828359 
L 81.344085 77.115709 
L 80.417509 74.538059 
L 79.780011 72.118033 
L 79.420349 69.903323 
L 79.312853 67.878896 
L 79.436921 66.081542 
L 79.765489 64.514445 
L 80.263394 63.195032 
L 80.908598 62.09654 
L 81.689872 61.200473 
L 82.590156 60.506958 
L 83.592694 60.01444 
L 84.699219 59.716695 
L 85.91741 59.618601 
L 87.259179 59.737024 
L 88.717243 60.094904 
L 90.281445 60.714691 
L 91.93858 61.617886 
L 93.64905 62.806591 
L 95.416498 64.309254 
L 97.196082 66.115963 
L 98.986972 68.257031 
L 100.719361 70.67649 
L 102.391208 73.394618 
L 103.977098 76.402836 
L 105.434433 79.647405 
L 106.743931 83.104663 
L 107.901398 86.794988 
L 108.874172 90.6485 
L 109.649253 94.635142 
L 110.21631 98.723565 
L 110.567805 102.881428 
L 110.69907 107.075718 
L 110.608366 111.273066 
L 110.296894 115.440074 
L 109.768789 119.54364 
L 109.03107 123.551277 
L 108.093565 127.431431 
L 106.968795 131.153785 
L 105.671842 134.689555 
L 104.220177 138.011762 
L 102.633463 141.095495 
L 100.933338 143.918146 
L 99.165448 146.430393 
L 97.333632 148.651497 
L 95.486187 150.545659 
L 93.64905 152.113409 
L 91.869751 153.344526 
L 90.16954 154.257315 
L 88.566255 154.872371 
L 87.07437 155.211957 
L 85.705107 155.29945 
L 84.466601 155.158838 
L 83.364107 154.814277 
L 82.385824 154.2799 
L 81.525051 153.558064 
L 80.781778 152.640425 
L 80.172425 151.52712 
L 79.713539 150.220008 
L 79.418663 148.699553 
L 79.312527 146.964494 
L 79.420349 145.016677 
L 79.767423 142.861393 
L 80.369014 140.539073 
L 81.25167 138.03426 
L 82.420836 135.397278 
L 83.885692 132.651165 
L 85.629038 129.856332 
L 87.670731 127.005153 
L 89.980547 124.160634 
L 92.578644 121.316119 
L 95.421765 118.534641 
L 98.490777 115.842788 
L 101.763982 113.265649 
L 105.260437 110.79775 
L 108.914255 108.49339 
L 112.696274 106.372358 
L 116.575644 104.451923 
L 120.520132 102.746658 
L 124.496447 101.268302 
L 128.470575 100.02565 
L 132.408123 99.024475 
L 136.274671 98.267489 
L 140.036121 97.754335 
L 143.659047 97.481614 
L 147.111041 97.442945 
L 150.323203 97.625527 
L 153.309851 98.015937 
L 156.012774 98.591886 
L 158.389665 99.320699 
L 160.465835 100.18596 
L 162.213986 101.151607 
L 163.642559 102.191436 
L 164.749667 103.265616 
L 165.571074 104.366258 
L 166.123559 105.474296 
L 166.42555 106.572977 
L 166.5 107.46 
L 166.5 107.46 
" clip-path="url(#p9cb33e6e0e)" style="fill: none; stroke: #000000; stroke-width: 1.5; stroke-linecap: square"/>
   </g>
   <g id="line2d_3">
    <path d="M 152.55 107.46 
L 152.446914 104.600166 
L 152.138163 101.754422 
L 151.625268 98.936786 
L 150.910757 96.161139 
L 149.998149 93.441155 
L 148.89194 90.790235 
L 147.597579 88.221437 
L 146.121444 85.747418 
L 144.470807 83.380365 
L 142.653799 81.13194 
L 140.679372 79.013219 
L 138.557252 77.034639 
L 136.297895 75.20595 
L 133.912431 73.536158 
L 131.412611 72.033492 
L 128.810751 70.705352 
L 126.11967 69.558283 
L 123.352624 68.597936 
L 120.523245 67.829041 
L 117.645473 67.255386 
L 114.733484 66.879798 
L 111.801624 66.704127 
L 108.864337 66.729239 
L 105.936093 66.955009 
L 103.031319 67.380325 
L 100.164324 68.003092 
L 97.349232 68.820243 
L 94.599913 69.827751 
L 91.92991 71.020652 
L 89.352378 72.393071 
L 86.880013 73.938246 
L 84.524997 75.648564 
L 82.298931 77.515601 
L 80.212782 79.530157 
L 78.276828 81.682309 
L 76.500604 83.961453 
L 74.892863 86.356363 
L 73.461525 88.855238 
L 72.21364 91.445769 
L 71.155357 94.115194 
L 70.291889 96.850362 
L 69.627491 99.637797 
L 69.165434 102.463769 
L 68.907996 105.314354 
L 68.856445 108.175509 
L 69.011035 111.03314 
L 69.371004 113.873168 
L 69.934579 116.681601 
L 70.698983 119.444604 
L 71.66045 122.148566 
L 72.814245 124.780165 
L 74.154682 127.326437 
L 75.675159 129.774838 
L 77.368184 132.113305 
L 79.225417 134.330319 
L 81.237708 136.414957 
L 83.395145 138.35695 
L 85.687097 140.14673 
L 88.102275 141.77548 
L 90.62878 143.235176 
L 93.254165 144.518627 
L 95.965496 145.61951 
L 98.749417 146.532401 
L 101.592211 147.252804 
L 104.479874 147.777168 
L 107.398181 148.102912 
L 110.332754 148.22843 
L 113.269137 148.153104 
L 116.192862 147.877305 
L 119.089527 147.402391 
L 121.944862 146.730702 
L 124.744799 145.865548 
L 127.475544 144.811191 
L 130.123646 143.572824 
L 132.676058 142.156548 
L 135.120206 140.569341 
L 137.444048 138.819023 
L 139.636137 136.914215 
L 141.685673 134.864302 
L 143.582559 132.679382 
L 145.31745 130.370221 
L 146.8818 127.948193 
L 148.267901 125.42523 
L 149.468926 122.813763 
L 150.478957 120.126656 
L 151.293018 117.377147 
L 151.907099 114.578781 
L 152.318175 111.745346 
L 152.52422 108.890798 
L 152.55 107.46 
L 152.55 107.46 
" clip-path="url(#p9cb33e6e0e)" style="fill: none; stroke-dasharray: 0.74,0.32; stroke-dashoffset: 0; stroke: #0000ff; stroke-width: 0.2"/>
   </g>
   <g id="line2d_4">
    <path d="M 138.6 107.46 
L 138.44545 104.603103 
L 137.983512 101.777857 
L 137.219304 99.015563 
L 136.161293 96.346823 
L 134.8212 93.801205 
L 133.213871 91.40691 
L 131.357115 89.190466 
L 129.271501 87.176426 
L 126.980137 85.387106 
L 124.508407 83.842328 
L 121.883696 82.559206 
L 119.135083 81.551957 
L 116.293018 80.831739 
L 113.388989 80.406532 
L 110.45517 80.281047 
L 107.524062 80.456672 
L 104.628141 80.931464 
L 101.799488 81.700162 
L 99.069443 82.754249 
L 96.468252 84.082047 
L 94.024732 85.668847 
L 91.765954 87.497067 
L 89.716945 89.546454 
L 87.900403 91.794302 
L 86.336455 94.215708 
L 85.042427 96.783846 
L 84.032655 99.470264 
L 83.318327 102.245198 
L 82.907357 105.077907 
L 82.804297 107.937006 
L 83.01029 110.790821 
L 83.523052 113.607734 
L 84.336905 116.356537 
L 85.44283 119.006777 
L 86.828575 121.529092 
L 88.478789 123.895537 
L 90.375188 126.079895 
L 92.496763 128.057967 
L 94.820009 129.807836 
L 97.319187 131.310117 
L 99.966609 132.548166 
L 102.732944 133.508267 
L 105.587546 134.179783 
L 108.498787 134.555275 
L 111.434416 134.630582 
L 114.361908 134.40487 
L 117.24883 133.880639 
L 120.063199 133.063699 
L 122.773834 131.963099 
L 125.350705 130.591032 
L 127.765263 128.9627 
L 129.990758 127.096143 
L 132.002533 125.01204 
L 133.7783 122.733481 
L 135.298386 120.285708 
L 136.545951 117.695842 
L 137.507171 114.992574 
L 138.171399 112.205854 
L 138.531276 109.366556 
L 138.6 107.46 
L 138.6 107.46 
" clip-path="url(#p9cb33e6e0e)" style="fill: none; stroke-dasharray: 0.74,0.32; stroke-dashoffset: 0; stroke: #000000; stroke-width: 0.2"/>
   </g>
   <g id="line2d_5">
    <path d="M 152.55 107.46 
L 152.412721 105.558141 
L 152.003586 103.693713 
L 151.330647 101.903412 
L 150.407148 100.222473 
L 149.251266 98.68398 
L 147.885751 97.318213 
L 146.337477 96.152053 
L 144.636917 95.208451 
L 142.817541 94.505979 
L 140.915158 94.058462 
L 138.967208 93.874709 
L 137.012031 93.958336 
L 135.088108 94.307697 
L 133.233304 94.915917 
L 131.484126 95.771024 
L 129.874999 96.856188 
L 128.437594 98.150052 
L 127.200201 99.627151 
L 126.187175 101.258413 
L 125.418452 103.011731 
L 124.909164 104.852599 
L 124.669332 106.744785 
L 124.703678 108.651047 
L 125.011526 110.533867 
L 125.586817 112.356189 
L 126.418227 114.082146 
L 127.489395 115.677768 
L 128.779236 117.111652 
L 130.262366 118.355577 
L 131.909593 119.385059 
L 133.688499 120.179837 
L 135.56407 120.724268 
L 137.499394 121.007637 
L 139.456379 121.024368 
L 141.396509 120.77413 
L 143.2816 120.261849 
L 145.074549 119.497608 
L 146.740069 118.496447 
L 148.245379 117.278072 
L 149.560853 115.866461 
L 150.6606 114.289398 
L 151.522975 112.577921 
L 152.131006 110.765716 
L 152.472725 108.888449 
L 152.55 107.46 
L 152.55 107.46 
" clip-path="url(#p9cb33e6e0e)" style="fill: none; stroke: #ff0000; stroke-linecap: square"/>
   </g>
   <g id="line2d_6">
    <path d="M 138.6 107.46 
" clip-path="url(#p9cb33e6e0e)" style="fill: none; stroke: #ff0000; stroke-width: 1.5; stroke-linecap: square"/>
    <defs>
     <path id="m64e1ce697f" d="M -3 3 
L 3 -3 
M -3 -3 
L 3 3 
" style="stroke: #ff0000"/>
    </defs>
    <g clip-path="url(#p9cb33e6e0e)">
     <use xlink:href="#m64e1ce697f" x="138.6" y="107.46" style="fill: #ff0000; stroke: #ff0000"/>
    </g>
   </g>
   <g id="line2d_7">
    <path d="M 166.5 107.46 
" clip-path="url(#p9cb33e6e0e)" style="fill: none; stroke: #000000; stroke-width: 1.5; stroke-linecap: square"/>
    <defs>
     <path id="m35a9169f16" d="M 0 1.5 
C 0.397805 1.5 0.77937 1.341951 1.06066 1.06066 
C 1.341951 0.77937 1.5 0.397805 1.5 0 
C 1.5 -0.397805 1.341951 -0.77937 1.06066 -1.06066 
C 0.77937 -1.341951 0.397805 -1.5 0 -1.5 
C -0.397805 -1.5 -0.77937 -1.341951 -1.06066 -1.06066 
C -1.341951 -0.77937 -1.5 -0.397805 -1.5 0 
C -1.5 0.397805 -1.341951 0.77937 -1.06066 1.06066 
C -0.77937 1.341951 -0.397805 1.5 0 1.5 
z
" style="stroke: #000000"/>
    </defs>
    <g clip-path="url(#p9cb33e6e0e)">
     <use xlink:href="#m35a9169f16" x="166.5" y="107.46" style="stroke: #000000"/>
    </g>
   </g>
  </g>
 </g>
 <defs>
  <clipPath id="p9cb33e6e0e">
   <rect x="27" y="25.92" width="167.4" height="163.08"/>
  </clipPath>
 </defs>
</svg>
