<?xml version="1.0" encoding="utf-8" standalone="no"?>
<!DOCTYPE svg PUBLIC "-//W3C//DTD SVG 1.1//EN"
  "http://www.w3.org/Graphics/SVG/1.1/DTD/svg11.dtd">
<svg xmlns:xlink="http://www.w3.org/1999/xlink" width="216pt" height="216pt" viewBox="0 0 216 216" xmlns="http://www.w3.org/2000/svg" version="1.1">
 <metadata>
  <rdf:RDF xmlns:dc="http://purl.org/dc/elements/1.1/" xmlns:cc="http://creativecommons.org/ns#" xmlns:rdf="http://www.w3.org/1999/02/22-rdf-syntax-ns#">
   <cc:Work>
    <dc:type rdf:resource="http://purl.org/dc/dcmitype/StillImage"/>
    <dc:date>2025-05-25T18:22:37.569632</dc:date>
    <dc:format>image/svg+xml</dc:format>
    <dc:creator>
     <cc:Agent>
      <dc:title>Matplotlib v3.8.4, https://matplotlib.org/</dc:title>
     </cc:Agent>
    </dc:creator>
   </cc:Work>
  </rdf:RDF>
 </metadata>
 <defs>
  <style type="text/css">*{stroke-linejoin: round; stroke-linecap: butt}</style>
 </defs>
 <g id="figure_1">
  <g id="patch_1">
   <path d="M 0 216 
L 216 216 
L 216 0 
L 0 0 
z
" style="fill: #ffffff"/>
  </g>
  <g id="axes_1">
   <g id="line2d_1">
    <path d="M 110.7 107.46 
" clip-path="url(#p7bab62a2af)" style="fill: none; stroke: #1f77b4; stroke-width: 1.5; stroke-linecap: square"/>
    <defs>
     <path id="m0eb3c3ce8b" d="M -3 3 
L 3 -3 
M -3 -3 
L 3 3 
" style="stroke: #1f77b4"/>
    </defs>
    <g clip-path="url(#p7bab62a2af)">
     <use xlink:href="#m0eb3c3ce8b" x="110.7" y="107.46" style="fill: #1f77b4; stroke: #1f77b4"/>
    </g>
   </g>
   <g id="line2d_2">
    <path d="M 157.2 107.46 
L 157.088959 104.331268 
L 156.756368 101.21748 
L 156.203814 98.133505 
L 155.433936 95.094072 
L 154.450411 92.113699 
L 153.257937 89.206619 
L 151.862209 86.386716 
L 150.269893 83.667458 
L 148.488593 81.061831 
L 146.508183 78.560354 
L 144.353633 76.199421 
L 142.03542 73.990512 
L 139.56482 71.944369 
L 136.953845 70.070944 
L 134.215195 68.379347 
L 131.362187 66.877804 
L 128.408696 65.573619 
L 125.369085 64.473132 
L 122.258136 63.581697 
L 119.090979 62.903647 
L 115.883015 62.442282 
L 112.649845 62.199843 
L 109.407193 62.177511 
L 106.170829 62.375394 
L 102.95649 62.792529 
L 99.779808 63.426889 
L 96.656234 64.275387 
L 93.600956 65.333899 
L 90.628833 66.597275 
L 87.754318 68.059372 
L 84.991392 69.71308 
L 82.353491 71.550356 
L 79.853442 73.562266 
L 77.503404 75.739025 
L 75.314806 78.070048 
L 73.298291 80.543998 
L 71.463665 83.148844 
L 69.833784 85.846897 
L 68.399078 88.648173 
L 67.166399 91.539294 
L 66.141633 94.506451 
L 65.329676 97.535473 
L 64.734405 100.611895 
L 64.358662 103.721022 
L 64.204244 106.848007 
L 64.271886 109.977914 
L 64.561266 113.095796 
L 65.071003 116.186762 
L 65.79866 119.236049 
L 66.740764 122.229095 
L 67.892815 125.151604 
L 69.24931 127.989619 
L 70.803771 130.729586 
L 72.548775 133.358419 
L 74.494314 135.885731 
L 76.615927 138.274806 
L 78.903296 140.514024 
L 81.345296 142.592496 
L 83.930052 144.500113 
L 86.644994 146.2276 
L 89.476919 147.766554 
L 92.412054 149.109492 
L 95.436126 150.249883 
L 98.534429 151.182181 
L 101.691894 151.901852 
L 104.893167 152.405396 
L 108.12268 152.690364 
L 111.364726 152.755371 
L 114.60354 152.600101 
L 117.82337 152.225308 
L 121.008559 151.632815 
L 124.143615 150.825504 
L 127.213293 149.8073 
L 130.202665 148.583156 
L 133.097193 147.159024 
L 135.8828 145.54183 
L 138.54594 143.739439 
L 141.073661 141.760617 
L 143.453671 139.614985 
L 145.674395 137.31298 
L 147.725034 134.865795 
L 149.595615 132.285333 
L 151.262763 129.608977 
L 152.736185 126.826838 
L 154.008845 123.952205 
L 155.074665 120.998806 
L 155.928554 117.980747 
L 156.566433 114.912441 
L 156.985258 111.808542 
L 157.183026 108.683875 
L 157.2 107.46 
L 157.2 107.46 
" clip-path="url(#p7bab62a2af)" style="fill: none; stroke: #000000; stroke-width: 1.5; stroke-linecap: square"/>
   </g>
   <g id="line2d_3">
    <path d="M 166.5 107.46 
L 166.362552 103.646889 
L 165.950884 99.852562 
L 165.267024 96.095714 
L 164.314343 92.394851 
L 163.097532 88.768207 
L 161.622586 85.233646 
L 159.896772 81.808583 
L 157.928593 78.509891 
L 155.727743 75.35382 
L 153.305065 72.35592 
L 150.672496 69.530958 
L 147.843003 66.892853 
L 144.830527 64.4546 
L 141.649907 62.228211 
L 138.316815 60.224655 
L 134.847669 58.453803 
L 131.25956 56.924378 
L 127.570165 55.643914 
L 123.797661 54.618721 
L 119.960631 53.853848 
L 116.077979 53.353065 
L 112.168832 53.118837 
L 108.252449 53.152318 
L 104.348124 53.453345 
L 100.475092 54.020433 
L 96.652432 54.85079 
L 92.898977 55.940324 
L 89.233218 57.283667 
L 85.673214 58.874203 
L 82.236504 60.704095 
L 78.940018 62.764328 
L 75.799996 65.044752 
L 72.831909 67.534134 
L 70.050377 70.220209 
L 67.469104 73.089745 
L 65.100806 76.128604 
L 62.957151 79.321817 
L 61.048699 82.653651 
L 59.384853 86.107693 
L 57.973809 89.666926 
L 56.822519 93.313816 
L 55.936654 97.030396 
L 55.320579 100.798358 
L 54.977329 104.599138 
L 54.908594 108.414012 
L 55.114713 112.224186 
L 55.594672 116.01089 
L 56.346105 119.755468 
L 57.36531 123.439473 
L 58.647267 127.044755 
L 60.18566 130.553554 
L 61.972909 133.948583 
L 64.000211 137.213117 
L 66.257578 140.331074 
L 68.733889 143.287092 
L 71.416944 146.06661 
L 74.293526 148.655933 
L 77.349463 151.042307 
L 80.569701 153.213973 
L 83.938374 155.160234 
L 87.438887 156.871502 
L 91.053995 158.339346 
L 94.765889 159.556535 
L 98.556281 160.517071 
L 102.406499 161.216225 
L 106.297575 161.65055 
L 110.210339 161.817907 
L 114.125515 161.717472 
L 118.023816 161.34974 
L 121.886036 160.716521 
L 125.693149 159.820937 
L 129.426398 158.667398 
L 133.067393 157.261587 
L 136.598195 155.610431 
L 140.001411 153.722064 
L 143.260274 151.605788 
L 146.35873 149.27203 
L 149.281515 146.732286 
L 152.01423 143.999069 
L 154.543412 141.085843 
L 156.8566 138.006961 
L 158.9424 134.77759 
L 160.790535 131.413641 
L 162.391901 127.931684 
L 163.738609 124.348875 
L 164.824024 120.682863 
L 165.642799 116.951709 
L 166.1909 113.173794 
L 166.465627 109.367731 
L 166.5 107.46 
L 166.5 107.46 
" clip-path="url(#p7bab62a2af)" style="fill: none; stroke-dasharray: 0.74,0.32; stroke-dashoffset: 0; stroke: #0000ff; stroke-width: 0.2"/>
   </g>
   <g id="line2d_4">
    <path d="M 157.2 107.46 
L 157.08546 104.282407 
L 156.742403 101.120469 
L 156.17252 97.989762 
L 155.378619 94.905709 
L 154.36461 91.883506 
L 153.135488 88.938039 
L 151.69731 86.083819 
L 150.05716 83.334909 
L 148.223119 80.70485 
L 146.204221 78.2066 
L 144.010413 75.852465 
L 141.652502 73.654044 
L 139.142106 71.622166 
L 136.49159 69.766843 
L 133.714012 68.097213 
L 130.823057 66.621502 
L 127.832967 65.346981 
L 124.758471 64.279929 
L 121.614717 63.425601 
L 118.417192 62.788207 
L 115.181649 62.370887 
L 111.924027 62.175697 
L 108.660374 62.203599 
L 105.40677 62.454454 
L 102.179243 62.927028 
L 98.993693 63.618992 
L 95.865814 64.526936 
L 92.811015 65.646389 
L 89.844345 66.971836 
L 86.98042 68.496746 
L 84.233348 70.213606 
L 81.616664 72.11396 
L 79.143257 74.188445 
L 76.825314 76.426841 
L 74.674253 78.818121 
L 72.700672 81.350504 
L 70.914292 84.011514 
L 69.323916 86.788042 
L 67.937378 89.666411 
L 66.761508 92.632438 
L 65.802099 95.671513 
L 65.063879 98.768664 
L 64.550483 101.908632 
L 64.26444 105.075949 
L 64.207162 108.25501 
L 64.378928 111.430155 
L 64.778893 114.585742 
L 65.405087 117.706223 
L 66.254425 120.776227 
L 67.322722 123.780629 
L 68.604716 126.704628 
L 70.094091 129.533819 
L 71.78351 132.254264 
L 73.664649 134.852562 
L 75.728241 137.31591 
L 77.96412 139.632175 
L 80.361272 141.789944 
L 82.907886 143.778589 
L 85.591417 145.588311 
L 88.398645 147.210195 
L 91.315739 148.636252 
L 94.328329 149.859455 
L 97.421574 150.873779 
L 100.580234 151.674226 
L 103.788749 152.256854 
L 107.031312 152.618791 
L 110.291949 152.758256 
L 113.554596 152.67456 
L 116.80318 152.368116 
L 120.021697 151.840434 
L 123.194291 151.094114 
L 126.305332 150.132831 
L 129.339494 148.961323 
L 132.281829 147.58536 
L 135.117842 146.01172 
L 137.833562 144.248157 
L 140.415609 142.303358 
L 142.851263 140.186905 
L 145.128525 137.909224 
L 147.236176 135.481536 
L 149.163833 132.915801 
L 150.902 130.224659 
L 152.442112 127.421367 
L 153.776584 124.519737 
L 154.898841 121.534062 
L 155.803353 118.479052 
L 156.485666 115.369757 
L 156.942417 112.221495 
L 157.171356 109.049776 
L 157.2 107.46 
L 157.2 107.46 
" clip-path="url(#p7bab62a2af)" style="fill: none; stroke-dasharray: 0.74,0.32; stroke-dashoffset: 0; stroke: #000000; stroke-width: 0.2"/>
   </g>
   <g id="line2d_5">
    <path d="M 166.5 107.46 
L 166.408481 106.192094 
L 166.135724 104.949142 
L 165.687098 103.755608 
L 165.071432 102.634982 
L 164.300844 101.60932 
L 163.3905 100.698809 
L 162.358318 99.921369 
L 161.224611 99.2923 
L 160.011694 98.823986 
L 158.743438 98.525641 
L 157.444805 98.403139 
L 156.141354 98.458891 
L 154.858739 98.691798 
L 153.622203 99.097278 
L 152.456084 99.667349 
L 151.383333 100.390792 
L 150.425063 101.253368 
L 149.600134 102.238101 
L 148.924783 103.325608 
L 148.412302 104.494488 
L 148.072776 105.721733 
L 147.912888 106.98319 
L 147.935786 108.254031 
L 148.141017 109.509245 
L 148.524544 110.724126 
L 149.078818 111.874764 
L 149.79293 112.938512 
L 150.652824 113.894435 
L 151.641577 114.723718 
L 152.739729 115.410039 
L 153.925666 115.939891 
L 155.176047 116.302845 
L 156.466262 116.491758 
L 157.770919 116.502912 
L 159.064339 116.336087 
L 160.321066 115.994566 
L 161.516366 115.485072 
L 162.626712 114.817631 
L 163.630253 114.005381 
L 164.507235 113.064307 
L 165.2404 112.012932 
L 165.815317 110.871947 
L 166.220671 109.66381 
L 166.448483 108.412299 
L 166.5 107.46 
L 166.5 107.46 
" clip-path="url(#p7bab62a2af)" style="fill: none; stroke: #ff0000; stroke-linecap: square"/>
   </g>
   <g id="line2d_6">
    <path d="M 157.2 107.46 
" clip-path="url(#p7bab62a2af)" style="fill: none; stroke: #ff0000; stroke-width: 1.5; stroke-linecap: square"/>
    <defs>
     <path id="m9e30d4d9e9" d="M -3 3 
L 3 -3 
M -3 -3 
L 3 3 
" style="stroke: #ff0000"/>
    </defs>
    <g clip-path="url(#p7bab62a2af)">
     <use xlink:href="#m9e30d4d9e9" x="157.2" y="107.46" style="fill: #ff0000; stroke: #ff0000"/>
    </g>
   </g>
   <g id="line2d_7">
    <path d="M 157.2 107.46 
" clip-path="url(#p7bab62a2af)" style="fill: none; stroke: #000000; stroke-width: 1.5; stroke-linecap: square"/>
    <defs>
     <path id="m24de097ff9" d="M 0 1.5 
C 0.397805 1.5 0.77937 1.341951 1.06066 1.06066 
C 1.341951 0.77937 1.5 0.397805 1.5 0 
C 1.5 -0.397805 1.341951 -0.77937 1.06066 -1.06066 
C 0.77937 -1.341951 0.397805 -1.5 0 -1.5 
C -0.397805 -1.5 -0.77937 -1.341951 -1.06066 -1.06066 
C -1.341951 -0.77937 -1.5 -0.397805 -1.5 0 
C -1.5 0.397805 -1.341951 0.77937 -1.06066 1.06066 
C -0.77937 1.341951 -0.397805 1.5 0 1.5 
z
" style="stroke: #000000"/>
    </defs>
    <g clip-path="url(#p7bab62a2af)">
     <use xlink:href="#m24de097ff9" x="157.2" y="107.46" style="stroke: #000000"/>
    </g>
   </g>
  </g>
 </g>
 <defs>
  <clipPath id="p7bab62a2af">
   <rect x="27" y="25.92" width="167.4" height="163.08"/>
  </clipPath>
 </defs>
</svg>
