<?xml version="1.0" encoding="utf-8" standalone="no"?>
<!DOCTYPE svg PUBLIC "-//W3C//DTD SVG 1.1//EN"
  "http://www.w3.org/Graphics/SVG/1.1/DTD/svg11.dtd">
<svg xmlns:xlink="http://www.w3.org/1999/xlink" width="216pt" height="216pt" viewBox="0 0 216 216" xmlns="http://www.w3.org/2000/svg" version="1.1">
 <metadata>
  <rdf:RDF xmlns:dc="http://purl.org/dc/elements/1.1/" xmlns:cc="http://creativecommons.org/ns#" xmlns:rdf="http://www.w3.org/1999/02/22-rdf-syntax-ns#">
   <cc:Work>
    <dc:type rdf:resource="http://purl.org/dc/dcmitype/StillImage"/>
    <dc:date>2025-05-25T18:22:37.488754</dc:date>
    <dc:format>image/svg+xml</dc:format>
    <dc:creator>
     <cc:Agent>
      <dc:title>Matplotlib v3.8.4, https://matplotlib.org/</dc:title>
     </cc:Agent>
    </dc:creator>
   </cc:Work>
  </rdf:RDF>
 </metadata>
 <defs>
  <style type="text/css">*{stroke-linejoin: round; stroke-linecap: butt}</style>
 </defs>
 <g id="figure_1">
  <g id="patch_1">
   <path d="M 0 216 
L 216 216 
L 216 0 
L 0 0 
z
" style="fill: #ffffff"/>
  </g>
  <g id="axes_1">
   <g id="line2d_1">
    <path d="M 110.7 107.46 
" clip-path="url(#p33e7e9ca9d)" style="fill: none; stroke: #1f77b4; stroke-width: 1.5; stroke-linecap: square"/>
    <defs>
     <path id="m7eeb37fcb3" d="M -3 3 
L 3 -3 
M -3 -3 
L 3 3 
" style="stroke: #1f77b4"/>
    </defs>
    <g clip-path="url(#p33e7e9ca9d)">
     <use xlink:href="#m7eeb37fcb3" x="110.7" y="107.46" style="fill: #1f77b4; stroke: #1f77b4"/>
    </g>
   </g>
   <g id="line2d_2">
    <path d="M 160.92 107.46 
L 160.808636 108.545447 
L 160.470837 109.636237 
L 159.889123 110.747309 
L 159.038408 111.882151 
L 157.875153 113.052106 
L 156.365318 114.246238 
L 154.461417 115.460435 
L 152.12757 116.678047 
L 149.332542 117.879647 
L 146.051557 119.043011 
L 142.268283 120.143203 
L 138.003454 121.147216 
L 133.297427 122.023767 
L 128.179848 122.748264 
L 122.723736 123.293695 
L 117.049647 123.637123 
L 111.228575 123.767097 
L 105.368988 123.675856 
L 99.61292 123.365614 
L 94.036282 122.844065 
L 88.767292 122.130537 
L 83.888369 121.24936 
L 79.439476 120.223332 
L 75.494429 119.089803 
L 72.057378 117.875705 
L 69.139108 116.614544 
L 66.715921 115.330624 
L 64.769274 114.054656 
L 63.24464 112.796245 
L 62.10949 111.580514 
L 61.302991 110.400278 
L 60.785076 109.254818 
L 60.525169 108.151509 
L 60.494696 107.065504 
L 60.686886 105.98125 
L 61.110819 104.883313 
L 61.784407 103.767289 
L 62.742468 102.620269 
L 64.02477 101.441764 
L 65.664723 100.243422 
L 67.709641 99.030255 
L 70.193938 97.819763 
L 73.146837 96.632232 
L 76.5905 95.490713 
L 80.538001 94.420912 
L 84.964067 93.456177 
L 89.823506 92.627851 
L 95.052168 91.963844 
L 100.600012 91.48521 
L 106.342687 91.2135 
L 112.206636 91.159341 
L 118.050026 91.327606 
L 123.762655 91.713332 
L 129.240311 92.304043 
L 134.389632 93.080422 
L 139.132241 94.017321 
L 143.407871 95.085042 
L 147.176327 96.250771 
L 150.418209 97.480063 
L 153.151283 98.74693 
L 155.402209 100.02826 
L 157.192509 101.294425 
L 158.577244 102.537158 
L 159.597669 103.74234 
L 160.301585 104.908614 
L 160.728554 106.037388 
L 160.910472 107.142343 
L 160.92 107.46 
L 160.92 107.46 
" clip-path="url(#p33e7e9ca9d)" style="fill: none; stroke: #000000; stroke-width: 1.5; stroke-linecap: square"/>
   </g>
   <g id="line2d_3">
    <path d="M 144.18 107.46 
L 144.097531 105.172133 
L 143.85053 102.895537 
L 143.440215 100.641428 
L 142.868606 98.420911 
L 142.138519 96.244924 
L 141.253552 94.124188 
L 140.218063 92.06915 
L 139.037156 90.089935 
L 137.716646 88.196292 
L 136.263039 86.397552 
L 134.683497 84.702575 
L 132.985802 83.119712 
L 131.178316 81.65676 
L 129.269944 80.320927 
L 127.270089 79.118793 
L 125.188601 78.056282 
L 123.035736 77.138627 
L 120.822099 76.370349 
L 118.558596 75.755233 
L 116.256378 75.296309 
L 113.926787 74.995839 
L 111.581299 74.855302 
L 109.23147 74.875391 
L 106.888875 75.056007 
L 104.565055 75.39626 
L 102.271459 75.894474 
L 100.019386 76.548194 
L 97.819931 77.3542 
L 95.683928 78.308522 
L 93.621902 79.406457 
L 91.644011 80.642597 
L 89.759998 82.010851 
L 87.979145 83.50448 
L 86.310226 85.116126 
L 84.761462 86.837847 
L 83.340484 88.661163 
L 82.054291 90.57709 
L 80.90922 92.576191 
L 79.910912 94.648616 
L 79.064286 96.784155 
L 78.373511 98.972289 
L 77.841993 101.202238 
L 77.472347 103.463015 
L 77.266397 105.743483 
L 77.225156 108.032407 
L 77.348828 110.318512 
L 77.636803 112.590534 
L 78.087663 114.837281 
L 78.699186 117.047684 
L 79.46836 119.210853 
L 80.391396 121.316132 
L 81.463746 123.35315 
L 82.680127 125.31187 
L 84.034547 127.182644 
L 85.520333 128.956255 
L 87.130167 130.623966 
L 88.856116 132.17756 
L 90.689678 133.609384 
L 92.62182 134.912384 
L 94.643024 136.080141 
L 96.743332 137.106901 
L 98.912397 137.987608 
L 101.139533 138.717921 
L 103.413769 139.294243 
L 105.7239 139.713735 
L 108.058545 139.97433 
L 110.406203 140.074744 
L 112.755309 140.014483 
L 115.09429 139.793844 
L 117.411622 139.413913 
L 119.695889 138.876562 
L 121.935839 138.184439 
L 124.120436 137.340952 
L 126.238917 136.350259 
L 128.280846 135.217238 
L 130.236164 133.947473 
L 132.095238 132.547218 
L 133.848909 131.023372 
L 135.488538 129.383441 
L 137.006047 127.635506 
L 138.39396 125.788177 
L 139.64544 123.850554 
L 140.754321 121.832184 
L 141.715141 119.74301 
L 142.523165 117.593325 
L 143.174414 115.393718 
L 143.665679 113.155025 
L 143.99454 110.888276 
L 144.159376 108.604638 
L 144.18 107.46 
L 144.18 107.46 
" clip-path="url(#p33e7e9ca9d)" style="fill: none; stroke-dasharray: 0.74,0.32; stroke-dashoffset: 0; stroke: #0000ff; stroke-width: 0.2"/>
   </g>
   <g id="line2d_4">
    <path d="M 127.44 107.46 
L 127.34727 105.745862 
L 127.070107 104.050714 
L 126.611583 102.393338 
L 125.976776 100.792094 
L 125.17272 99.264723 
L 124.208323 97.828146 
L 123.094269 96.498279 
L 121.842901 95.289856 
L 120.468082 94.216263 
L 118.985044 93.289397 
L 117.410218 92.519524 
L 115.76105 91.915174 
L 114.055811 91.483044 
L 112.313394 91.227919 
L 110.553102 91.152628 
L 108.794437 91.258003 
L 107.056884 91.542879 
L 105.359693 92.004097 
L 103.721666 92.636549 
L 102.160951 93.433228 
L 100.694839 94.385308 
L 99.339573 95.48224 
L 98.110167 96.711872 
L 97.020242 98.060581 
L 96.081873 99.513425 
L 95.305456 101.054308 
L 94.699593 102.666158 
L 94.270996 104.331119 
L 94.024414 106.030744 
L 93.962578 107.746204 
L 94.086174 109.458493 
L 94.393831 111.14864 
L 94.882143 112.797922 
L 95.545698 114.388066 
L 96.377145 115.901455 
L 97.367273 117.321322 
L 98.505113 118.631937 
L 99.778058 119.81878 
L 101.172005 120.868702 
L 102.671512 121.77007 
L 104.259965 122.5129 
L 105.919767 123.08896 
L 107.632528 123.49187 
L 109.379272 123.717165 
L 111.14065 123.762349 
L 112.897145 123.626922 
L 114.629298 123.312384 
L 116.317919 122.822219 
L 117.944301 122.161859 
L 119.490423 121.338619 
L 120.939158 120.36162 
L 122.274455 119.241686 
L 123.48152 117.991224 
L 124.54698 116.624088 
L 125.459032 115.155425 
L 126.20757 113.601505 
L 126.784303 111.979545 
L 127.18284 110.307513 
L 127.398765 108.603933 
L 127.44 107.46 
L 127.44 107.46 
" clip-path="url(#p33e7e9ca9d)" style="fill: none; stroke-dasharray: 0.74,0.32; stroke-dashoffset: 0; stroke: #000000; stroke-width: 0.2"/>
   </g>
   <g id="line2d_5">
    <path d="M 144.18 107.46 
L 144.08727 105.745862 
L 143.810107 104.050714 
L 143.351583 102.393338 
L 142.716776 100.792094 
L 141.91272 99.264723 
L 140.948323 97.828146 
L 139.834269 96.498279 
L 138.582901 95.289856 
L 137.208082 94.216263 
L 135.725044 93.289397 
L 134.150218 92.519524 
L 132.50105 91.915174 
L 130.795811 91.483044 
L 129.053394 91.227919 
L 127.293102 91.152628 
L 125.534437 91.258003 
L 123.796884 91.542879 
L 122.099693 92.004097 
L 120.461666 92.636549 
L 118.900951 93.433228 
L 117.434839 94.385308 
L 116.079573 95.48224 
L 114.850167 96.711872 
L 113.760242 98.060581 
L 112.821873 99.513425 
L 112.045456 101.054308 
L 111.439593 102.666158 
L 111.010996 104.331119 
L 110.764414 106.030744 
L 110.702578 107.746204 
L 110.826174 109.458493 
L 111.133831 111.14864 
L 111.622143 112.797922 
L 112.285698 114.388066 
L 113.117145 115.901455 
L 114.107273 117.321322 
L 115.245113 118.631937 
L 116.518058 119.81878 
L 117.912005 120.868702 
L 119.411512 121.77007 
L 120.999965 122.5129 
L 122.659767 123.08896 
L 124.372528 123.49187 
L 126.119272 123.717165 
L 127.88065 123.762349 
L 129.637145 123.626922 
L 131.369298 123.312384 
L 133.057919 122.822219 
L 134.684301 122.161859 
L 136.230423 121.338619 
L 137.679158 120.36162 
L 139.014455 119.241686 
L 140.22152 117.991224 
L 141.28698 116.624088 
L 142.199032 115.155425 
L 142.94757 113.601505 
L 143.524303 111.979545 
L 143.92284 110.307513 
L 144.138765 108.603933 
L 144.18 107.46 
L 144.18 107.46 
" clip-path="url(#p33e7e9ca9d)" style="fill: none; stroke: #ff0000; stroke-linecap: square"/>
   </g>
   <g id="line2d_6">
    <path d="M 127.44 107.46 
" clip-path="url(#p33e7e9ca9d)" style="fill: none; stroke: #ff0000; stroke-width: 1.5; stroke-linecap: square"/>
    <defs>
     <path id="md567872eae" d="M -3 3 
L 3 -3 
M -3 -3 
L 3 3 
" style="stroke: #ff0000"/>
    </defs>
    <g clip-path="url(#p33e7e9ca9d)">
     <use xlink:href="#md567872eae" x="127.44" y="107.46" style="fill: #ff0000; stroke: #ff0000"/>
    </g>
   </g>
   <g id="line2d_7">
    <path d="M 160.92 107.46 
" clip-path="url(#p33e7e9ca9d)" style="fill: none; stroke: #000000; stroke-width: 1.5; stroke-linecap: square"/>
    <defs>
     <path id="m21f3e5ce5d" d="M 0 1.5 
C 0.397805 1.5 0.77937 1.341951 1.06066 1.06066 
C 1.341951 0.77937 1.5 0.397805 1.5 0 
C 1.5 -0.397805 1.341951 -0.77937 1.06066 -1.06066 
C 0.77937 -1.341951 0.397805 -1.5 0 -1.5 
C -0.397805 -1.5 -0.77937 -1.341951 -1.06066 -1.06066 
C -1.341951 -0.77937 -1.5 -0.397805 -1.5 0 
C -1.5 0.397805 -1.341951 0.77937 -1.06066 1.06066 
C -0.77937 1.341951 -0.397805 1.5 0 1.5 
z
" style="stroke: #000000"/>
    </defs>
    <g clip-path="url(#p33e7e9ca9d)">
     <use xlink:href="#m21f3e5ce5d" x="160.92" y="107.46" style="stroke: #000000"/>
    </g>
   </g>
  </g>
 </g>
 <defs>
  <clipPath id="p33e7e9ca9d">
   <rect x="27" y="25.92" width="167.4" height="163.08"/>
  </clipPath>
 </defs>
</svg>
