<?xml version="1.0" encoding="utf-8" standalone="no"?>
<!DOCTYPE svg PUBLIC "-//W3C//DTD SVG 1.1//EN"
  "http://www.w3.org/Graphics/SVG/1.1/DTD/svg11.dtd">
<svg xmlns:xlink="http://www.w3.org/1999/xlink" width="432pt" height="288pt" viewBox="0 0 432 288" xmlns="http://www.w3.org/2000/svg" version="1.1">
 <metadata>
  <rdf:RDF xmlns:dc="http://purl.org/dc/elements/1.1/" xmlns:cc="http://creativecommons.org/ns#" xmlns:rdf="http://www.w3.org/1999/02/22-rdf-syntax-ns#">
   <cc:Work>
    <dc:type rdf:resource="http://purl.org/dc/dcmitype/StillImage"/>
    <dc:date>2024-07-30T19:42:02.419385</dc:date>
    <dc:format>image/svg+xml</dc:format>
    <dc:creator>
     <cc:Agent>
      <dc:title>Matplotlib v3.9.1, https://matplotlib.org/</dc:title>
     </cc:Agent>
    </dc:creator>
   </cc:Work>
  </rdf:RDF>
 </metadata>
 <defs>
  <style type="text/css">*{stroke-linejoin: round; stroke-linecap: butt}</style>
 </defs>
 <g id="figure_1">
  <g id="patch_1">
   <path d="M 0 288 
L 432 288 
L 432 0 
L 0 0 
z
" style="fill: #ffffff"/>
  </g>
  <g id="axes_1">
   <g id="patch_2">
    <path d="M 222.442634 34.56 
C 201.148611 34.56 180.325626 40.876583 162.620294 52.706908 
C 144.914962 64.537233 131.110588 81.357911 122.961719 101.031022 
C 114.812849 120.704133 112.68 142.359315 116.834258 163.244178 
C 120.988515 184.129042 131.24609 203.319615 146.303238 218.376762 
C 161.360385 233.43391 180.550958 243.691485 201.435822 247.845742 
C 222.320685 252 243.975867 249.867151 263.648978 241.718281 
C 283.322089 233.569412 300.142767 219.765038 311.973092 202.059706 
C 323.803417 184.354374 330.12 163.531389 330.12 142.237366 
L 222.442634 142.237366 
C 222.442634 142.237366 222.442634 142.237366 222.442634 142.237366 
C 222.442634 142.237366 222.442634 142.237366 222.442634 142.237366 
C 222.442634 142.237366 222.442634 142.237366 222.442634 142.237366 
C 222.442634 142.237366 222.442634 142.237366 222.442634 142.237366 
C 222.442634 142.237366 222.442634 142.237366 222.442634 142.237366 
C 222.442634 142.237366 222.442634 142.237366 222.442634 142.237366 
C 222.442634 142.237366 222.442634 142.237366 222.442634 142.237366 
C 222.442634 142.237366 222.442634 142.237366 222.442634 142.237366 
z
" style="fill: #ffffff"/>
   </g>
   <g id="PathCollection_1">
    <path d="M 183.638405 240.049734 
C 187.041627 240.049734 190.30592 238.69762 192.712361 236.291179 
C 195.118802 233.884737 196.470917 230.620444 196.470917 227.217223 
C 196.470917 223.814001 195.118802 220.549708 192.712361 218.143266 
C 190.30592 215.736825 187.041627 214.384711 183.638405 214.384711 
C 180.235183 214.384711 176.97089 215.736825 174.564448 218.143266 
C 172.158007 220.549708 170.805893 223.814001 170.805893 227.217223 
C 170.805893 230.620444 172.158007 233.884737 174.564448 236.291179 
C 176.97089 238.69762 180.235183 240.049734 183.638405 240.049734 
z
" clip-path="url(#pa0a02173b7)" style="fill: #0e00ff; fill-opacity: 0.75; stroke: #0e00ff; stroke-opacity: 0.75"/>
    <path d="M 233.018154 147.239595 
C 233.423656 147.239595 233.812605 147.078487 234.099338 146.791754 
C 234.386072 146.50502 234.547179 146.116072 234.547179 145.71057 
C 234.547179 145.305067 234.386072 144.916119 234.099338 144.629385 
C 233.812605 144.342652 233.423656 144.181544 233.018154 144.181544 
C 232.612652 144.181544 232.223703 144.342652 231.93697 144.629385 
C 231.650237 144.916119 231.489129 145.305067 231.489129 145.71057 
C 231.489129 146.116072 231.650237 146.50502 231.93697 146.791754 
C 232.223703 147.078487 232.612652 147.239595 233.018154 147.239595 
z
" clip-path="url(#pa0a02173b7)" style="fill: #ff0053; fill-opacity: 0.75; stroke: #ff0053; stroke-opacity: 0.75"/>
    <path d="M 210.506961 149.352805 
C 210.98301 149.352805 211.439625 149.163669 211.776242 148.827052 
C 212.112859 148.490435 212.301995 148.03382 212.301995 147.557772 
C 212.301995 147.081723 212.112859 146.625109 211.776242 146.288491 
C 211.439625 145.951874 210.98301 145.762738 210.506961 145.762738 
C 210.030913 145.762738 209.574298 145.951874 209.237681 146.288491 
C 208.901064 146.625109 208.711928 147.081723 208.711928 147.557772 
C 208.711928 148.03382 208.901064 148.490435 209.237681 148.827052 
C 209.574298 149.163669 210.030913 149.352805 210.506961 149.352805 
z
" clip-path="url(#pa0a02173b7)" style="fill: #00a4ff; fill-opacity: 0.75; stroke: #00a4ff; stroke-opacity: 0.75"/>
    <path d="M 219.1495 126.393315 
C 219.830932 126.393315 220.484547 126.122579 220.966393 125.640733 
C 221.448238 125.158888 221.718974 124.505273 221.718974 123.82384 
C 221.718974 123.142408 221.448238 122.488793 220.966393 122.006948 
C 220.484547 121.525102 219.830932 121.254366 219.1495 121.254366 
C 218.468067 121.254366 217.814453 121.525102 217.332607 122.006948 
C 216.850762 122.488793 216.580026 123.142408 216.580026 123.82384 
C 216.580026 124.505273 216.850762 125.158888 217.332607 125.640733 
C 217.814453 126.122579 218.468067 126.393315 219.1495 126.393315 
z
" clip-path="url(#pa0a02173b7)" style="fill: #5bff00; fill-opacity: 0.75; stroke: #5bff00; stroke-opacity: 0.75"/>
    <path d="M 226.389594 185.854792 
C 227.79313 185.854792 229.13937 185.297161 230.131821 184.304711 
C 231.124271 183.312261 231.681902 181.966021 231.681902 180.562484 
C 231.681902 179.158948 231.124271 177.812708 230.131821 176.820258 
C 229.13937 175.827807 227.79313 175.270177 226.389594 175.270177 
C 224.986057 175.270177 223.639817 175.827807 222.647367 176.820258 
C 221.654917 177.812708 221.097286 179.158948 221.097286 180.562484 
C 221.097286 181.966021 221.654917 183.312261 222.647367 184.304711 
C 223.639817 185.297161 224.986057 185.854792 226.389594 185.854792 
z
" clip-path="url(#pa0a02173b7)" style="fill: #9000ff; fill-opacity: 0.75; stroke: #9000ff; stroke-opacity: 0.75"/>
    <path d="M 151.433682 204.175002 
C 154.597576 204.175002 157.632312 202.917974 159.869524 200.680762 
C 162.106735 198.443551 163.363764 195.408815 163.363764 192.24492 
C 163.363764 189.081025 162.106735 186.046289 159.869524 183.809078 
C 157.632312 181.571866 154.597576 180.314837 151.433682 180.314837 
C 148.269787 180.314837 145.235051 181.571866 142.997839 183.809078 
C 140.760628 186.046289 139.503599 189.081025 139.503599 192.24492 
C 139.503599 195.408815 140.760628 198.443551 142.997839 200.680762 
C 145.235051 202.917974 148.269787 204.175002 151.433682 204.175002 
z
" clip-path="url(#pa0a02173b7)" style="fill: #006eff; fill-opacity: 0.75; stroke: #006eff; stroke-opacity: 0.75"/>
    <path d="M 208.300509 149.551792 
C 208.849956 149.551792 209.376973 149.333494 209.76549 148.944977 
C 210.154007 148.55646 210.372305 148.029443 210.372305 147.479996 
C 210.372305 146.93055 210.154007 146.403533 209.76549 146.015016 
C 209.376973 145.626498 208.849956 145.408201 208.300509 145.408201 
C 207.751063 145.408201 207.224046 145.626498 206.835529 146.015016 
C 206.447011 146.403533 206.228714 146.93055 206.228714 147.479996 
C 206.228714 148.029443 206.447011 148.55646 206.835529 148.944977 
C 207.224046 149.333494 207.751063 149.551792 208.300509 149.551792 
z
" clip-path="url(#pa0a02173b7)" style="fill: #00afff; fill-opacity: 0.75; stroke: #00afff; stroke-opacity: 0.75"/>
    <path d="M 217.654432 148.556096 
C 217.915554 148.556096 218.166017 148.452351 218.350659 148.267709 
C 218.535301 148.083068 218.639046 147.832605 218.639046 147.571482 
C 218.639046 147.310359 218.535301 147.059896 218.350659 146.875254 
C 218.166017 146.690612 217.915554 146.586867 217.654432 146.586867 
C 217.393309 146.586867 217.142846 146.690612 216.958204 146.875254 
C 216.773562 147.059896 216.669817 147.310359 216.669817 147.571482 
C 216.669817 147.832605 216.773562 148.083068 216.958204 148.267709 
C 217.142846 148.452351 217.393309 148.556096 217.654432 148.556096 
z
" clip-path="url(#pa0a02173b7)" style="fill: #0039ff; fill-opacity: 0.75; stroke: #0039ff; stroke-opacity: 0.75"/>
    <path d="M 198.771684 174.124531 
C 200.078626 174.124531 201.332216 173.605278 202.256363 172.68113 
C 203.180511 171.756982 203.699765 170.503393 203.699765 169.196451 
C 203.699765 167.889509 203.180511 166.635919 202.256363 165.711772 
C 201.332216 164.787624 200.078626 164.26837 198.771684 164.26837 
C 197.464742 164.26837 196.211153 164.787624 195.287005 165.711772 
C 194.362857 166.635919 193.843604 167.889509 193.843604 169.196451 
C 193.843604 170.503393 194.362857 171.756982 195.287005 172.68113 
C 196.211153 173.605278 197.464742 174.124531 198.771684 174.124531 
z
" clip-path="url(#pa0a02173b7)" style="fill: #0039ff; fill-opacity: 0.75; stroke: #0039ff; stroke-opacity: 0.75"/>
    <path d="M 246.924483 147.074429 
C 247.817938 147.074429 248.67492 146.719455 249.306689 146.087687 
C 249.938457 145.455918 250.293431 144.598936 250.293431 143.705481 
C 250.293431 142.812025 249.938457 141.955043 249.306689 141.323275 
C 248.67492 140.691506 247.817938 140.336533 246.924483 140.336533 
C 246.031027 140.336533 245.174045 140.691506 244.542277 141.323275 
C 243.910508 141.955043 243.555534 142.812025 243.555534 143.705481 
C 243.555534 144.598936 243.910508 145.455918 244.542277 146.087687 
C 245.174045 146.719455 246.031027 147.074429 246.924483 147.074429 
z
" clip-path="url(#pa0a02173b7)" style="fill: #ff0018; fill-opacity: 0.75; stroke: #ff0018; stroke-opacity: 0.75"/>
    <path d="M 255.073361 174.690062 
C 256.608472 174.690062 258.080916 174.080156 259.166403 172.994669 
C 260.251891 171.909181 260.861797 170.436738 260.861797 168.901627 
C 260.861797 167.366516 260.251891 165.894072 259.166403 164.808585 
C 258.080916 163.723097 256.608472 163.113191 255.073361 163.113191 
C 253.53825 163.113191 252.065807 163.723097 250.980319 164.808585 
C 249.894832 165.894072 249.284926 167.366516 249.284926 168.901627 
C 249.284926 170.436738 249.894832 171.909181 250.980319 172.994669 
C 252.065807 174.080156 253.53825 174.690062 255.073361 174.690062 
z
" clip-path="url(#pa0a02173b7)" style="fill: #ff00ac; fill-opacity: 0.75; stroke: #ff00ac; stroke-opacity: 0.75"/>
    <path d="M 229.135105 175.175288 
C 230.214612 175.175288 231.250051 174.746395 232.013378 173.983068 
C 232.776705 173.219741 233.205598 172.184302 233.205598 171.104795 
C 233.205598 170.025288 232.776705 168.989849 232.013378 168.226522 
C 231.250051 167.463195 230.214612 167.034302 229.135105 167.034302 
C 228.055598 167.034302 227.020159 167.463195 226.256832 168.226522 
C 225.493505 168.989849 225.064612 170.025288 225.064612 171.104795 
C 225.064612 172.184302 225.493505 173.219741 226.256832 173.983068 
C 227.020159 174.746395 228.055598 175.175288 229.135105 175.175288 
z
" clip-path="url(#pa0a02173b7)" style="fill: #ad00ff; fill-opacity: 0.75; stroke: #ad00ff; stroke-opacity: 0.75"/>
    <path d="M 261.92326 222.58781 
C 264.831427 222.58781 267.620874 221.432383 269.677259 219.375998 
C 271.733644 217.319613 272.889071 214.530166 272.889071 211.621998 
C 272.889071 208.713831 271.733644 205.924383 269.677259 203.867999 
C 267.620874 201.811614 264.831427 200.656187 261.92326 200.656187 
C 259.015092 200.656187 256.225645 201.811614 254.16926 203.867999 
C 252.112875 205.924383 250.957448 208.713831 250.957448 211.621998 
C 250.957448 214.530166 252.112875 217.319613 254.16926 219.375998 
C 256.225645 221.432383 259.015092 222.58781 261.92326 222.58781 
z
" clip-path="url(#pa0a02173b7)" style="fill: #f400ff; fill-opacity: 0.75; stroke: #f400ff; stroke-opacity: 0.75"/>
    <path d="M 179.146906 171.430578 
C 180.924254 171.430578 182.629046 170.72443 183.885821 169.467655 
C 185.142596 168.21088 185.848744 166.506088 185.848744 164.72874 
C 185.848744 162.951391 185.142596 161.246599 183.885821 159.989824 
C 182.629046 158.733049 180.924254 158.026901 179.146906 158.026901 
C 177.369557 158.026901 175.664765 158.733049 174.40799 159.989824 
C 173.151215 161.246599 172.445067 162.951391 172.445067 164.72874 
C 172.445067 166.506088 173.151215 168.21088 174.40799 169.467655 
C 175.664765 170.72443 177.369557 171.430578 179.146906 171.430578 
z
" clip-path="url(#pa0a02173b7)" style="fill: #0092ff; fill-opacity: 0.75; stroke: #0092ff; stroke-opacity: 0.75"/>
    <path d="M 215.615281 157.245698 
C 216.149949 157.245698 216.662789 157.033272 217.040856 156.655205 
C 217.418924 156.277138 217.631349 155.764297 217.631349 155.22963 
C 217.631349 154.694962 217.418924 154.182121 217.040856 153.804054 
C 216.662789 153.425987 216.149949 153.213562 215.615281 153.213562 
C 215.080613 153.213562 214.567773 153.425987 214.189705 153.804054 
C 213.811638 154.182121 213.599213 154.694962 213.599213 155.22963 
C 213.599213 155.764297 213.811638 156.277138 214.189705 156.655205 
C 214.567773 157.033272 215.080613 157.245698 215.615281 157.245698 
z
" clip-path="url(#pa0a02173b7)" style="fill: #0604ff; fill-opacity: 0.75; stroke: #0604ff; stroke-opacity: 0.75"/>
    <path d="M 212.696027 59.763022 
C 216.199828 59.763022 219.560595 58.370947 222.038157 55.893385 
C 224.515719 53.415823 225.907795 50.055056 225.907795 46.551254 
C 225.907795 43.047452 224.515719 39.686685 222.038157 37.209123 
C 219.560595 34.731561 216.199828 33.339486 212.696027 33.339486 
C 209.192225 33.339486 205.831458 34.731561 203.353896 37.209123 
C 200.876334 39.686685 199.484259 43.047452 199.484259 46.551254 
C 199.484259 50.055056 200.876334 53.415823 203.353896 55.893385 
C 205.831458 58.370947 209.192225 59.763022 212.696027 59.763022 
z
" clip-path="url(#pa0a02173b7)" style="fill: #72ff00; fill-opacity: 0.75; stroke: #72ff00; stroke-opacity: 0.75"/>
    <path d="M 299.601977 183.493349 
C 302.616357 183.493349 305.507682 182.295723 307.639171 180.164234 
C 309.770659 178.032746 310.968285 175.141421 310.968285 172.127041 
C 310.968285 169.112661 309.770659 166.221336 307.639171 164.089847 
C 305.507682 161.958359 302.616357 160.760733 299.601977 160.760733 
C 296.587597 160.760733 293.696272 161.958359 291.564784 164.089847 
C 289.433295 166.221336 288.235669 169.112661 288.235669 172.127041 
C 288.235669 175.141421 289.433295 178.032746 291.564784 180.164234 
C 293.696272 182.295723 296.587597 183.493349 299.601977 183.493349 
z
" clip-path="url(#pa0a02173b7)" style="fill: #ff005f; fill-opacity: 0.75; stroke: #ff005f; stroke-opacity: 0.75"/>
    <path d="M 209.332943 70.851368 
C 212.39107 70.851368 215.324356 69.636361 217.486779 67.473938 
C 219.649201 65.311515 220.864208 62.378229 220.864208 59.320102 
C 220.864208 56.261975 219.649201 53.328689 217.486779 51.166266 
C 215.324356 49.003843 212.39107 47.788836 209.332943 47.788836 
C 206.274815 47.788836 203.341529 49.003843 201.179107 51.166266 
C 199.016684 53.328689 197.801677 56.261975 197.801677 59.320102 
C 197.801677 62.378229 199.016684 65.311515 201.179107 67.473938 
C 203.341529 69.636361 206.274815 70.851368 209.332943 70.851368 
z
" clip-path="url(#pa0a02173b7)" style="fill: #61ff00; fill-opacity: 0.75; stroke: #61ff00; stroke-opacity: 0.75"/>
    <path d="M 200.078835 148.320244 
C 200.900748 148.320244 201.689109 147.993695 202.270289 147.412514 
C 202.85147 146.831334 203.178019 146.042973 203.178019 145.22106 
C 203.178019 144.399147 202.85147 143.610786 202.270289 143.029606 
C 201.689109 142.448426 200.900748 142.121876 200.078835 142.121876 
C 199.256922 142.121876 198.468561 142.448426 197.887381 143.029606 
C 197.306201 143.610786 196.979651 144.399147 196.979651 145.22106 
C 196.979651 146.042973 197.306201 146.831334 197.887381 147.412514 
C 198.468561 147.993695 199.256922 148.320244 200.078835 148.320244 
z
" clip-path="url(#pa0a02173b7)" style="fill: #00e5ff; fill-opacity: 0.75; stroke: #00e5ff; stroke-opacity: 0.75"/>
    <path d="M 282.678886 143.902702 
C 284.886611 143.902702 287.004211 143.025563 288.565309 141.464466 
C 290.126406 139.903368 291.003545 137.785768 291.003545 135.578043 
C 291.003545 133.370317 290.126406 131.252717 288.565309 129.69162 
C 287.004211 128.130522 284.886611 127.253384 282.678886 127.253384 
C 280.47116 127.253384 278.35356 128.130522 276.792463 129.69162 
C 275.231365 131.252717 274.354226 133.370317 274.354226 135.578043 
C 274.354226 137.785768 275.231365 139.903368 276.792463 141.464466 
C 278.35356 143.025563 280.47116 143.902702 282.678886 143.902702 
z
" clip-path="url(#pa0a02173b7)" style="fill: #ff1200; fill-opacity: 0.75; stroke: #ff1200; stroke-opacity: 0.75"/>
    <path d="M 189.901681 114.927282 
C 191.609575 114.927282 193.247748 114.248729 194.455412 113.041066 
C 195.663075 111.833402 196.341629 110.195229 196.341629 108.487335 
C 196.341629 106.779441 195.663075 105.141268 194.455412 103.933605 
C 193.247748 102.725941 191.609575 102.047388 189.901681 102.047388 
C 188.193787 102.047388 186.555614 102.725941 185.347951 103.933605 
C 184.140287 105.141268 183.461734 106.779441 183.461734 108.487335 
C 183.461734 110.195229 184.140287 111.833402 185.347951 113.041066 
C 186.555614 114.248729 188.193787 114.927282 189.901681 114.927282 
z
" clip-path="url(#pa0a02173b7)" style="fill: #00ff33; fill-opacity: 0.75; stroke: #00ff33; stroke-opacity: 0.75"/>
    <path d="M 229.023897 154.425077 
C 229.474929 154.425077 229.907548 154.24588 230.226475 153.926953 
C 230.545402 153.608026 230.724599 153.175407 230.724599 152.724376 
C 230.724599 152.273344 230.545402 151.840725 230.226475 151.521798 
C 229.907548 151.202871 229.474929 151.023674 229.023897 151.023674 
C 228.572866 151.023674 228.140247 151.202871 227.82132 151.521798 
C 227.502393 151.840725 227.323196 152.273344 227.323196 152.724376 
C 227.323196 153.175407 227.502393 153.608026 227.82132 153.926953 
C 228.140247 154.24588 228.572866 154.425077 229.023897 154.425077 
z
" clip-path="url(#pa0a02173b7)" style="fill: #fa00f9; fill-opacity: 0.75; stroke: #fa00f9; stroke-opacity: 0.75"/>
    <path d="M 248.865863 179.546941 
C 250.367737 179.546941 251.808301 178.95024 252.870286 177.888254 
C 253.932272 176.826269 254.528972 175.385706 254.528972 173.883831 
C 254.528972 172.381957 253.932272 170.941394 252.870286 169.879408 
C 251.808301 168.817423 250.367737 168.220722 248.865863 168.220722 
C 247.363989 168.220722 245.923425 168.817423 244.86144 169.879408 
C 243.799455 170.941394 243.202754 172.381957 243.202754 173.883831 
C 243.202754 175.385706 243.799455 176.826269 244.86144 177.888254 
C 245.923425 178.95024 247.363989 179.546941 248.865863 179.546941 
z
" clip-path="url(#pa0a02173b7)" style="fill: #ff00db; fill-opacity: 0.75; stroke: #ff00db; stroke-opacity: 0.75"/>
    <path d="M 229.321702 161.726252 
C 229.988874 161.726252 230.628809 161.461182 231.100571 160.989421 
C 231.572333 160.517659 231.837403 159.877723 231.837403 159.210552 
C 231.837403 158.54338 231.572333 157.903444 231.100571 157.431682 
C 230.628809 156.959921 229.988874 156.694851 229.321702 156.694851 
C 228.65453 156.694851 228.014594 156.959921 227.542833 157.431682 
C 227.071071 157.903444 226.806001 158.54338 226.806001 159.210552 
C 226.806001 159.877723 227.071071 160.517659 227.542833 160.989421 
C 228.014594 161.461182 228.65453 161.726252 229.321702 161.726252 
z
" clip-path="url(#pa0a02173b7)" style="fill: #d600ff; fill-opacity: 0.75; stroke: #d600ff; stroke-opacity: 0.75"/>
    <path d="M 189.618475 161.036416 
C 190.917063 161.036416 192.162639 160.520482 193.08088 159.602241 
C 193.99912 158.684001 194.515055 157.438425 194.515055 156.139836 
C 194.515055 154.841248 193.99912 153.595672 193.08088 152.677432 
C 192.162639 151.759191 190.917063 151.243257 189.618475 151.243257 
C 188.319887 151.243257 187.074311 151.759191 186.15607 152.677432 
C 185.23783 153.595672 184.721895 154.841248 184.721895 156.139836 
C 184.721895 157.438425 185.23783 158.684001 186.15607 159.602241 
C 187.074311 160.520482 188.319887 161.036416 189.618475 161.036416 
z
" clip-path="url(#pa0a02173b7)" style="fill: #00a4ff; fill-opacity: 0.75; stroke: #00a4ff; stroke-opacity: 0.75"/>
    <path d="M 217.507368 116.069312 
C 218.629254 116.069312 219.705342 115.623582 220.498635 114.830289 
C 221.291928 114.036995 221.737658 112.960908 221.737658 111.839022 
C 221.737658 110.717136 221.291928 109.641049 220.498635 108.847756 
C 219.705342 108.054462 218.629254 107.608732 217.507368 107.608732 
C 216.385482 107.608732 215.309395 108.054462 214.516102 108.847756 
C 213.722809 109.641049 213.277079 110.717136 213.277079 111.839022 
C 213.277079 112.960908 213.722809 114.036995 214.516102 114.830289 
C 215.309395 115.623582 216.385482 116.069312 217.507368 116.069312 
z
" clip-path="url(#pa0a02173b7)" style="fill: #61ff00; fill-opacity: 0.75; stroke: #61ff00; stroke-opacity: 0.75"/>
    <path d="M 248.774462 110.865505 
C 250.449286 110.865505 252.055739 110.20009 253.240019 109.015811 
C 254.424298 107.831531 255.089713 106.225078 255.089713 104.550254 
C 255.089713 102.87543 254.424298 101.268977 253.240019 100.084697 
C 252.055739 98.900418 250.449286 98.235003 248.774462 98.235003 
C 247.099638 98.235003 245.493185 98.900418 244.308905 100.084697 
C 243.124626 101.268977 242.459211 102.87543 242.459211 104.550254 
C 242.459211 106.225078 243.124626 107.831531 244.308905 109.015811 
C 245.493185 110.20009 247.099638 110.865505 248.774462 110.865505 
z
" clip-path="url(#pa0a02173b7)" style="fill: #ffe000; fill-opacity: 0.75; stroke: #ffe000; stroke-opacity: 0.75"/>
    <path d="M 193.839134 94.318422 
C 196.150479 94.318422 198.367469 93.400114 200.001838 91.765746 
C 201.636206 90.131378 202.554513 87.914388 202.554513 85.603042 
C 202.554513 83.291696 201.636206 81.074706 200.001838 79.440338 
C 198.367469 77.80597 196.150479 76.887662 193.839134 76.887662 
C 191.527788 76.887662 189.310798 77.80597 187.67643 79.440338 
C 186.042061 81.074706 185.123754 83.291696 185.123754 85.603042 
C 185.123754 87.914388 186.042061 90.131378 187.67643 91.765746 
C 189.310798 93.400114 191.527788 94.318422 193.839134 94.318422 
z
" clip-path="url(#pa0a02173b7)" style="fill: #14ff00; fill-opacity: 0.75; stroke: #14ff00; stroke-opacity: 0.75"/>
    <path d="M 242.926239 130.640462 
C 243.853103 130.640462 244.742129 130.272215 245.397521 129.616824 
C 246.052913 128.961432 246.421159 128.072406 246.421159 127.145542 
C 246.421159 126.218678 246.052913 125.329652 245.397521 124.67426 
C 244.742129 124.018868 243.853103 123.650622 242.926239 123.650622 
C 241.999375 123.650622 241.110349 124.018868 240.454957 124.67426 
C 239.799566 125.329652 239.431319 126.218678 239.431319 127.145542 
C 239.431319 128.072406 239.799566 128.961432 240.454957 129.616824 
C 241.110349 130.272215 241.999375 130.640462 242.926239 130.640462 
z
" clip-path="url(#pa0a02173b7)" style="fill: #ff9400; fill-opacity: 0.75; stroke: #ff9400; stroke-opacity: 0.75"/>
    <path d="M 229.181998 103.764281 
C 230.82806 103.764281 232.406926 103.110293 233.570868 101.946351 
C 234.73481 100.782409 235.388798 99.203543 235.388798 97.55748 
C 235.388798 95.911417 234.73481 94.332551 233.570868 93.168609 
C 232.406926 92.004667 230.82806 91.350679 229.181998 91.350679 
C 227.535935 91.350679 225.957069 92.004667 224.793127 93.168609 
C 223.629185 94.332551 222.975197 95.911417 222.975197 97.55748 
C 222.975197 99.203543 223.629185 100.782409 224.793127 101.946351 
C 225.957069 103.110293 227.535935 103.764281 229.181998 103.764281 
z
" clip-path="url(#pa0a02173b7)" style="fill: #adff00; fill-opacity: 0.75; stroke: #adff00; stroke-opacity: 0.75"/>
    <path d="M 225.418415 144.526071 
C 225.545303 144.526071 225.667011 144.475658 225.756734 144.385934 
C 225.846457 144.296211 225.89687 144.174503 225.89687 144.047615 
C 225.89687 143.920727 225.846457 143.799019 225.756734 143.709296 
C 225.667011 143.619573 225.545303 143.569159 225.418415 143.569159 
C 225.291527 143.569159 225.169819 143.619573 225.080095 143.709296 
C 224.990372 143.799019 224.939959 143.920727 224.939959 144.047615 
C 224.939959 144.174503 224.990372 144.296211 225.080095 144.385934 
C 225.169819 144.475658 225.291527 144.526071 225.418415 144.526071 
z
" clip-path="url(#pa0a02173b7)" style="fill: #ff008e; fill-opacity: 0.75; stroke: #ff008e; stroke-opacity: 0.75"/>
    <path d="M 317.503972 152.65235 
C 320.968321 152.65235 324.291245 151.27595 326.740909 148.826285 
C 329.190574 146.376621 330.566974 143.053697 330.566974 139.589348 
C 330.566974 136.125 329.190574 132.802076 326.740909 130.352411 
C 324.291245 127.902747 320.968321 126.526347 317.503972 126.526347 
C 314.039624 126.526347 310.7167 127.902747 308.267035 130.352411 
C 305.817371 132.802076 304.440971 136.125 304.440971 139.589348 
C 304.440971 143.053697 305.817371 146.376621 308.267035 148.826285 
C 310.7167 151.27595 314.039624 152.65235 317.503972 152.65235 
z
" clip-path="url(#pa0a02173b7)" style="fill: #ff0000; fill-opacity: 0.75; stroke: #ff0000; stroke-opacity: 0.75"/>
    <path d="M 187.70863 137.825091 
C 189.019036 137.825091 190.275948 137.304461 191.202545 136.377864 
C 192.129141 135.451267 192.649771 134.194356 192.649771 132.88395 
C 192.649771 131.573544 192.129141 130.316633 191.202545 129.390036 
C 190.275948 128.463439 189.019036 127.942809 187.70863 127.942809 
C 186.398224 127.942809 185.141313 128.463439 184.214716 129.390036 
C 183.288119 130.316633 182.767489 131.573544 182.767489 132.88395 
C 182.767489 134.194356 183.288119 135.451267 184.214716 136.377864 
C 185.141313 137.304461 186.398224 137.825091 187.70863 137.825091 
z
" clip-path="url(#pa0a02173b7)" style="fill: #00ffb5; fill-opacity: 0.75; stroke: #00ffb5; stroke-opacity: 0.75"/>
    <path d="M 183.199735 103.231333 
C 185.443315 103.231333 187.595305 102.33995 189.181756 100.753499 
C 190.768207 99.167048 191.65959 97.015058 191.65959 94.771478 
C 191.65959 92.527898 190.768207 90.375907 189.181756 88.789457 
C 187.595305 87.203006 185.443315 86.311622 183.199735 86.311622 
C 180.956155 86.311622 178.804164 87.203006 177.217714 88.789457 
C 175.631263 90.375907 174.739879 92.527898 174.739879 94.771478 
C 174.739879 97.015058 175.631263 99.167048 177.217714 100.753499 
C 178.804164 102.33995 180.956155 103.231333 183.199735 103.231333 
z
" clip-path="url(#pa0a02173b7)" style="fill: #00ff21; fill-opacity: 0.75; stroke: #00ff21; stroke-opacity: 0.75"/>
    <path d="M 260.385315 127.112806 
C 261.966661 127.112806 263.483452 126.484531 264.601633 125.366351 
C 265.719813 124.24817 266.348088 122.731379 266.348088 121.150034 
C 266.348088 119.568688 265.719813 118.051897 264.601633 116.933717 
C 263.483452 115.815536 261.966661 115.187261 260.385315 115.187261 
C 258.80397 115.187261 257.287179 115.815536 256.168998 116.933717 
C 255.050818 118.051897 254.422543 119.568688 254.422543 121.150034 
C 254.422543 122.731379 255.050818 124.24817 256.168998 125.366351 
C 257.287179 126.484531 258.80397 127.112806 260.385315 127.112806 
z
" clip-path="url(#pa0a02173b7)" style="fill: #ff7000; fill-opacity: 0.75; stroke: #ff7000; stroke-opacity: 0.75"/>
    <path d="M 237.629919 108.874366 
C 239.158943 108.874366 240.625547 108.266879 241.70673 107.185696 
C 242.787913 106.104513 243.395401 104.637908 243.395401 103.108885 
C 243.395401 101.579861 242.787913 100.113257 241.70673 99.032074 
C 240.625547 97.950891 239.158943 97.343403 237.629919 97.343403 
C 236.100896 97.343403 234.634291 97.950891 233.553108 99.032074 
C 232.471925 100.113257 231.864438 101.579861 231.864438 103.108885 
C 231.864438 104.637908 232.471925 106.104513 233.553108 107.185696 
C 234.634291 108.266879 236.100896 108.874366 237.629919 108.874366 
z
" clip-path="url(#pa0a02173b7)" style="fill: #e2ff00; fill-opacity: 0.75; stroke: #e2ff00; stroke-opacity: 0.75"/>
    <path d="M 150.106762 221.416917 
C 153.667846 221.416917 157.083556 220.002084 159.601623 217.484017 
C 162.119689 214.965951 163.534523 211.55024 163.534523 207.989156 
C 163.534523 204.428072 162.119689 201.012362 159.601623 198.494295 
C 157.083556 195.976229 153.667846 194.561395 150.106762 194.561395 
C 146.545678 194.561395 143.129967 195.976229 140.611901 198.494295 
C 138.093834 201.012362 136.679 204.428072 136.679 207.989156 
C 136.679 211.55024 138.093834 214.965951 140.611901 217.484017 
C 143.129967 220.002084 146.545678 221.416917 150.106762 221.416917 
z
" clip-path="url(#pa0a02173b7)" style="fill: #0051ff; fill-opacity: 0.75; stroke: #0051ff; stroke-opacity: 0.75"/>
    <path d="M 172.535856 110.163293 
C 174.887401 110.163293 177.14295 109.229014 178.805744 107.56622 
C 180.468538 105.903426 181.402817 103.647877 181.402817 101.296331 
C 181.402817 98.944786 180.468538 96.689237 178.805744 95.026443 
C 177.14295 93.363649 174.887401 92.42937 172.535856 92.42937 
C 170.18431 92.42937 167.928761 93.363649 166.265967 95.026443 
C 164.603174 96.689237 163.668895 98.944786 163.668895 101.296331 
C 163.668895 103.647877 164.603174 105.903426 166.265967 107.56622 
C 167.928761 109.229014 170.18431 110.163293 172.535856 110.163293 
z
" clip-path="url(#pa0a02173b7)" style="fill: #00ff51; fill-opacity: 0.75; stroke: #00ff51; stroke-opacity: 0.75"/>
    <path d="M 275.596725 116.936112 
C 277.894667 116.936112 280.098801 116.02313 281.723691 114.398239 
C 283.348582 112.773349 284.261564 110.569215 284.261564 108.271273 
C 284.261564 105.973331 283.348582 103.769197 281.723691 102.144307 
C 280.098801 100.519417 277.894667 99.606435 275.596725 99.606435 
C 273.298783 99.606435 271.094649 100.519417 269.469759 102.144307 
C 267.844868 103.769197 266.931886 105.973331 266.931886 108.271273 
C 266.931886 110.569215 267.844868 112.773349 269.469759 114.398239 
C 271.094649 116.02313 273.298783 116.936112 275.596725 116.936112 
z
" clip-path="url(#pa0a02173b7)" style="fill: #ff8200; fill-opacity: 0.75; stroke: #ff8200; stroke-opacity: 0.75"/>
    <path d="M 188.890513 142.582111 
C 190.122794 142.582111 191.30477 142.092521 192.176124 141.221167 
C 193.047478 140.349812 193.537069 139.167837 193.537069 137.935556 
C 193.537069 136.703274 193.047478 135.521299 192.176124 134.649944 
C 191.30477 133.77859 190.122794 133.289 188.890513 133.289 
C 187.658232 133.289 186.476256 133.77859 185.604902 134.649944 
C 184.733548 135.521299 184.243957 136.703274 184.243957 137.935556 
C 184.243957 139.167837 184.733548 140.349812 185.604902 141.221167 
C 186.476256 142.092521 187.658232 142.582111 188.890513 142.582111 
z
" clip-path="url(#pa0a02173b7)" style="fill: #00ffd8; fill-opacity: 0.75; stroke: #00ffd8; stroke-opacity: 0.75"/>
    <path d="M 210.308956 253.057192 
C 213.882586 253.057192 217.31033 251.637374 219.837269 249.110436 
C 222.364207 246.583498 223.784025 243.155753 223.784025 239.582123 
C 223.784025 236.008493 222.364207 232.580748 219.837269 230.05381 
C 217.31033 227.526872 213.882586 226.107054 210.308956 226.107054 
C 206.735325 226.107054 203.307581 227.526872 200.780643 230.05381 
C 198.253705 232.580748 196.833886 236.008493 196.833886 239.582123 
C 196.833886 243.155753 198.253705 246.583498 200.780643 249.110436 
C 203.307581 251.637374 206.735325 253.057192 210.308956 253.057192 
z
" clip-path="url(#pa0a02173b7)" style="fill: #5a00ff; fill-opacity: 0.75; stroke: #5a00ff; stroke-opacity: 0.75"/>
    <path d="M 217.154227 108.152842 
C 218.608475 108.152842 220.003357 107.575063 221.031666 106.546754 
C 222.059975 105.518445 222.637754 104.123563 222.637754 102.669315 
C 222.637754 101.215066 222.059975 99.820184 221.031666 98.791875 
C 220.003357 97.763566 218.608475 97.185787 217.154227 97.185787 
C 215.699978 97.185787 214.305096 97.763566 213.276787 98.791875 
C 212.248478 99.820184 211.670699 101.215066 211.670699 102.669315 
C 211.670699 104.123563 212.248478 105.518445 213.276787 106.546754 
C 214.305096 107.575063 215.699978 108.152842 217.154227 108.152842 
z
" clip-path="url(#pa0a02173b7)" style="fill: #66ff00; fill-opacity: 0.75; stroke: #66ff00; stroke-opacity: 0.75"/>
    <path d="M 244.57085 157.591502 
C 245.486181 157.591502 246.364146 157.227837 247.011383 156.580601 
C 247.65862 155.933364 248.022284 155.055399 248.022284 154.140068 
C 248.022284 153.224737 247.65862 152.346772 247.011383 151.699535 
C 246.364146 151.052299 245.486181 150.688634 244.57085 150.688634 
C 243.655519 150.688634 242.777554 151.052299 242.130317 151.699535 
C 241.483081 152.346772 241.119416 153.224737 241.119416 154.140068 
C 241.119416 155.055399 241.483081 155.933364 242.130317 156.580601 
C 242.777554 157.227837 243.655519 157.591502 244.57085 157.591502 
z
" clip-path="url(#pa0a02173b7)" style="fill: #ff007c; fill-opacity: 0.75; stroke: #ff007c; stroke-opacity: 0.75"/>
    <path d="M 265.268901 208.837952 
C 267.861089 208.837952 270.347456 207.808065 272.18041 205.975112 
C 274.013364 204.142158 275.043251 201.65579 275.043251 199.063602 
C 275.043251 196.471414 274.013364 193.985047 272.18041 192.152093 
C 270.347456 190.319139 267.861089 189.289252 265.268901 189.289252 
C 262.676713 189.289252 260.190345 190.319139 258.357391 192.152093 
C 256.524438 193.985047 255.49455 196.471414 255.49455 199.063602 
C 255.49455 201.65579 256.524438 204.142158 258.357391 205.975112 
C 260.190345 207.808065 262.676713 208.837952 265.268901 208.837952 
z
" clip-path="url(#pa0a02173b7)" style="fill: #ff00e7; fill-opacity: 0.75; stroke: #ff00e7; stroke-opacity: 0.75"/>
    <path d="M 247.238931 78.436763 
C 250.102707 78.436763 252.849575 77.298973 254.874569 75.273978 
C 256.899564 73.248983 258.037354 70.502115 258.037354 67.63834 
C 258.037354 64.774565 256.899564 62.027697 254.874569 60.002702 
C 252.849575 57.977707 250.102707 56.839917 247.238931 56.839917 
C 244.375156 56.839917 241.628288 57.977707 239.603293 60.002702 
C 237.578298 62.027697 236.440508 64.774565 236.440508 67.63834 
C 236.440508 70.502115 237.578298 73.248983 239.603293 75.273978 
C 241.628288 77.298973 244.375156 78.436763 247.238931 78.436763 
z
" clip-path="url(#pa0a02173b7)" style="fill: #d7ff00; fill-opacity: 0.75; stroke: #d7ff00; stroke-opacity: 0.75"/>
    <path d="M 178.756458 138.520763 
C 180.38801 138.520763 181.952958 137.87254 183.106639 136.718859 
C 184.260321 135.565177 184.908543 134.00023 184.908543 132.368678 
C 184.908543 130.737126 184.260321 129.172178 183.106639 128.018497 
C 181.952958 126.864815 180.38801 126.216593 178.756458 126.216593 
C 177.124906 126.216593 175.559958 126.864815 174.406277 128.018497 
C 173.252595 129.172178 172.604373 130.737126 172.604373 132.368678 
C 172.604373 134.00023 173.252595 135.565177 174.406277 136.718859 
C 175.559958 137.87254 177.124906 138.520763 178.756458 138.520763 
z
" clip-path="url(#pa0a02173b7)" style="fill: #00ffc1; fill-opacity: 0.75; stroke: #00ffc1; stroke-opacity: 0.75"/>
    <path d="M 248.371305 82.986417 
C 251.071257 82.986417 253.660989 81.913715 255.570143 80.004561 
C 257.479297 78.095407 258.551999 75.505675 258.551999 72.805723 
C 258.551999 70.105772 257.479297 67.51604 255.570143 65.606886 
C 253.660989 63.697732 251.071257 62.62503 248.371305 62.62503 
C 245.671354 62.62503 243.081622 63.697732 241.172468 65.606886 
C 239.263314 67.51604 238.190612 70.105772 238.190612 72.805723 
C 238.190612 75.505675 239.263314 78.095407 241.172468 80.004561 
C 243.081622 81.913715 245.671354 82.986417 248.371305 82.986417 
z
" clip-path="url(#pa0a02173b7)" style="fill: #e2ff00; fill-opacity: 0.75; stroke: #e2ff00; stroke-opacity: 0.75"/>
    <path d="M 321.67585 175.918853 
C 325.361965 175.918853 328.897602 174.454344 331.504079 171.847867 
C 334.110556 169.24139 335.575065 165.705753 335.575065 162.019638 
C 335.575065 158.333523 334.110556 154.797885 331.504079 152.191409 
C 328.897602 149.584932 325.361965 148.120423 321.67585 148.120423 
C 317.989735 148.120423 314.454098 149.584932 311.847621 152.191409 
C 309.241144 154.797885 307.776635 158.333523 307.776635 162.019638 
C 307.776635 165.705753 309.241144 169.24139 311.847621 171.847867 
C 314.454098 174.454344 317.989735 175.918853 321.67585 175.918853 
z
" clip-path="url(#pa0a02173b7)" style="fill: #ff0035; fill-opacity: 0.75; stroke: #ff0035; stroke-opacity: 0.75"/>
    <path d="M 224.375711 144.669257 
C 224.478233 144.669257 224.576569 144.628525 224.649062 144.556031 
C 224.721556 144.483537 224.762288 144.385201 224.762288 144.28268 
C 224.762288 144.180159 224.721556 144.081822 224.649062 144.009329 
C 224.576569 143.936835 224.478233 143.896103 224.375711 143.896103 
C 224.27319 143.896103 224.174854 143.936835 224.10236 144.009329 
C 224.029866 144.081822 223.989134 144.180159 223.989134 144.28268 
C 223.989134 144.385201 224.029866 144.483537 224.10236 144.556031 
C 224.174854 144.628525 224.27319 144.669257 224.375711 144.669257 
z
" clip-path="url(#pa0a02173b7)" style="fill: #ff00cf; fill-opacity: 0.75; stroke: #ff00cf; stroke-opacity: 0.75"/>
    <path d="M 242.515227 124.947672 
C 243.58172 124.947672 244.604675 124.52395 245.3588 123.769825 
C 246.112924 123.015701 246.536647 121.992745 246.536647 120.926252 
C 246.536647 119.859759 246.112924 118.836803 245.3588 118.082679 
C 244.604675 117.328554 243.58172 116.904832 242.515227 116.904832 
C 241.448734 116.904832 240.425778 117.328554 239.671653 118.082679 
C 238.917529 118.836803 238.493807 119.859759 238.493807 120.926252 
C 238.493807 121.992745 238.917529 123.015701 239.671653 123.769825 
C 240.425778 124.52395 241.448734 124.947672 242.515227 124.947672 
z
" clip-path="url(#pa0a02173b7)" style="fill: #ffbd00; fill-opacity: 0.75; stroke: #ffbd00; stroke-opacity: 0.75"/>
    <path d="M 256.616183 205.971094 
C 258.970592 205.971094 261.228888 205.035677 262.893707 203.370859 
C 264.558525 201.70604 265.493942 199.447744 265.493942 197.093335 
C 265.493942 194.738926 264.558525 192.480631 262.893707 190.815812 
C 261.228888 189.150994 258.970592 188.215577 256.616183 188.215577 
C 254.261774 188.215577 252.003479 189.150994 250.33866 190.815812 
C 248.673842 192.480631 247.738425 194.738926 247.738425 197.093335 
C 247.738425 199.447744 248.673842 201.70604 250.33866 203.370859 
C 252.003479 205.035677 254.261774 205.971094 256.616183 205.971094 
z
" clip-path="url(#pa0a02173b7)" style="fill: #fa00f9; fill-opacity: 0.75; stroke: #fa00f9; stroke-opacity: 0.75"/>
    <path d="M 189.122243 209.198805 
C 191.552585 209.198805 193.883714 208.23322 195.602226 206.514708 
C 197.320737 204.796197 198.286322 202.465068 198.286322 200.034725 
C 198.286322 197.604383 197.320737 195.273254 195.602226 193.554743 
C 193.883714 191.836231 191.552585 190.870646 189.122243 190.870646 
C 186.691901 190.870646 184.360772 191.836231 182.64226 193.554743 
C 180.923749 195.273254 179.958163 197.604383 179.958163 200.034725 
C 179.958163 202.465068 180.923749 204.796197 182.64226 206.514708 
C 184.360772 208.23322 186.691901 209.198805 189.122243 209.198805 
z
" clip-path="url(#pa0a02173b7)" style="fill: #020cff; fill-opacity: 0.75; stroke: #020cff; stroke-opacity: 0.75"/>
    <path d="M 215.515533 100.353788 
C 217.305007 100.353788 219.02143 99.642822 220.286779 98.377473 
C 221.552129 97.112124 222.263094 95.395701 222.263094 93.606227 
C 222.263094 91.816753 221.552129 90.100331 220.286779 88.834981 
C 219.02143 87.569632 217.305007 86.858667 215.515533 86.858667 
C 213.726059 86.858667 212.009637 87.569632 210.744287 88.834981 
C 209.478938 90.100331 208.767973 91.816753 208.767973 93.606227 
C 208.767973 95.395701 209.478938 97.112124 210.744287 98.377473 
C 212.009637 99.642822 213.726059 100.353788 215.515533 100.353788 
z
" clip-path="url(#pa0a02173b7)" style="fill: #66ff00; fill-opacity: 0.75; stroke: #66ff00; stroke-opacity: 0.75"/>
    <path d="M 212.831943 122.508413 
C 213.745914 122.508413 214.622575 122.145288 215.26885 121.499013 
C 215.915126 120.852737 216.27825 119.976077 216.27825 119.062105 
C 216.27825 118.148134 215.915126 117.271473 215.26885 116.625198 
C 214.622575 115.978922 213.745914 115.615798 212.831943 115.615798 
C 211.917971 115.615798 211.041311 115.978922 210.395035 116.625198 
C 209.74876 117.271473 209.385635 118.148134 209.385635 119.062105 
C 209.385635 119.976077 209.74876 120.852737 210.395035 121.499013 
C 211.041311 122.145288 211.917971 122.508413 212.831943 122.508413 
z
" clip-path="url(#pa0a02173b7)" style="fill: #2bff00; fill-opacity: 0.75; stroke: #2bff00; stroke-opacity: 0.75"/>
    <path d="M 195.06796 110.334987 
C 196.785248 110.334987 198.432432 109.652701 199.646738 108.438395 
C 200.861044 107.224089 201.54333 105.576905 201.54333 103.859617 
C 201.54333 102.142329 200.861044 100.495145 199.646738 99.280839 
C 198.432432 98.066533 196.785248 97.384247 195.06796 97.384247 
C 193.350672 97.384247 191.703488 98.066533 190.489182 99.280839 
C 189.274876 100.495145 188.59259 102.142329 188.59259 103.859617 
C 188.59259 105.576905 189.274876 107.224089 190.489182 108.438395 
C 191.703488 109.652701 193.350672 110.334987 195.06796 110.334987 
z
" clip-path="url(#pa0a02173b7)" style="fill: #00ff10; fill-opacity: 0.75; stroke: #00ff10; stroke-opacity: 0.75"/>
    <path d="M 277.262404 169.263327 
C 279.376632 169.263327 281.404551 168.423335 282.899536 166.92835 
C 284.394521 165.433365 285.234512 163.405446 285.234512 161.291218 
C 285.234512 159.17699 284.394521 157.149071 282.899536 155.654086 
C 281.404551 154.159101 279.376632 153.31911 277.262404 153.31911 
C 275.148176 153.31911 273.120257 154.159101 271.625272 155.654086 
C 270.130287 157.149071 269.290295 159.17699 269.290295 161.291218 
C 269.290295 163.405446 270.130287 165.433365 271.625272 166.92835 
C 273.120257 168.423335 275.148176 169.263327 277.262404 169.263327 
z
" clip-path="url(#pa0a02173b7)" style="fill: #ff0059; fill-opacity: 0.75; stroke: #ff0059; stroke-opacity: 0.75"/>
    <path d="M 234.047994 137.865828 
C 234.526931 137.865828 234.986316 137.675545 235.324975 137.336885 
C 235.663635 136.998226 235.853918 136.538841 235.853918 136.059904 
C 235.853918 135.580967 235.663635 135.121582 235.324975 134.782922 
C 234.986316 134.444263 234.526931 134.253979 234.047994 134.253979 
C 233.569057 134.253979 233.109672 134.444263 232.771012 134.782922 
C 232.432353 135.121582 232.242069 135.580967 232.242069 136.059904 
C 232.242069 136.538841 232.432353 136.998226 232.771012 137.336885 
C 233.109672 137.675545 233.569057 137.865828 234.047994 137.865828 
z
" clip-path="url(#pa0a02173b7)" style="fill: #ff7000; fill-opacity: 0.75; stroke: #ff7000; stroke-opacity: 0.75"/>
    <path d="M 210.976403 96.361671 
C 212.965159 96.361671 214.872728 95.57153 216.278991 94.165267 
C 217.685254 92.759004 218.475396 90.851434 218.475396 88.862678 
C 218.475396 86.873922 217.685254 84.966352 216.278991 83.560089 
C 214.872728 82.153826 212.965159 81.363685 210.976403 81.363685 
C 208.987647 81.363685 207.080077 82.153826 205.673814 83.560089 
C 204.267551 84.966352 203.47741 86.873922 203.47741 88.862678 
C 203.47741 90.851434 204.267551 92.759004 205.673814 94.165267 
C 207.080077 95.57153 208.987647 96.361671 210.976403 96.361671 
z
" clip-path="url(#pa0a02173b7)" style="fill: #55ff00; fill-opacity: 0.75; stroke: #55ff00; stroke-opacity: 0.75"/>
    <path d="M 269.328226 100.248972 
C 271.867011 100.248972 274.302156 99.240302 276.097348 97.44511 
C 277.892539 95.649918 278.901209 93.214774 278.901209 90.675989 
C 278.901209 88.137204 277.892539 85.70206 276.097348 83.906868 
C 274.302156 82.111676 271.867011 81.103006 269.328226 81.103006 
C 266.789442 81.103006 264.354297 82.111676 262.559105 83.906868 
C 260.763914 85.70206 259.755244 88.137204 259.755244 90.675989 
C 259.755244 93.214774 260.763914 95.649918 262.559105 97.44511 
C 264.354297 99.240302 266.789442 100.248972 269.328226 100.248972 
z
" clip-path="url(#pa0a02173b7)" style="fill: #ffc300; fill-opacity: 0.75; stroke: #ffc300; stroke-opacity: 0.75"/>
    <path d="M 181.055091 190.670354 
C 183.164088 190.670354 185.186989 189.83244 186.678275 188.341155 
C 188.16956 186.849869 189.007474 184.826968 189.007474 182.717971 
C 189.007474 180.608975 188.16956 178.586074 186.678275 177.094788 
C 185.186989 175.603503 183.164088 174.765589 181.055091 174.765589 
C 178.946095 174.765589 176.923194 175.603503 175.431908 177.094788 
C 173.940623 178.586074 173.102709 180.608975 173.102709 182.717971 
C 173.102709 184.826968 173.940623 186.849869 175.431908 188.341155 
C 176.923194 189.83244 178.946095 190.670354 181.055091 190.670354 
z
" clip-path="url(#pa0a02173b7)" style="fill: #004bff; fill-opacity: 0.75; stroke: #004bff; stroke-opacity: 0.75"/>
    <path d="M 241.861483 72.765965 
C 244.892305 72.765965 247.7994 71.561807 249.942515 69.418692 
C 252.08563 67.275577 253.289788 64.368482 253.289788 61.33766 
C 253.289788 58.306838 252.08563 55.399742 249.942515 53.256627 
C 247.7994 51.113512 244.892305 49.909354 241.861483 49.909354 
C 238.830661 49.909354 235.923565 51.113512 233.78045 53.256627 
C 231.637335 55.399742 230.433177 58.306838 230.433177 61.33766 
C 230.433177 64.368482 231.637335 67.275577 233.78045 69.418692 
C 235.923565 71.561807 238.830661 72.765965 241.861483 72.765965 
z
" clip-path="url(#pa0a02173b7)" style="fill: #bfff00; fill-opacity: 0.75; stroke: #bfff00; stroke-opacity: 0.75"/>
    <path d="M 280.009769 201.164893 
C 282.753839 201.164893 285.38589 200.074662 287.326241 198.134311 
C 289.266592 196.19396 290.356823 193.56191 290.356823 190.817839 
C 290.356823 188.073768 289.266592 185.441718 287.326241 183.501367 
C 285.38589 181.561016 282.753839 180.470785 280.009769 180.470785 
C 277.265698 180.470785 274.633648 181.561016 272.693296 183.501367 
C 270.752945 185.441718 269.662714 188.073768 269.662714 190.817839 
C 269.662714 193.56191 270.752945 196.19396 272.693296 198.134311 
C 274.633648 200.074662 277.265698 201.164893 280.009769 201.164893 
z
" clip-path="url(#pa0a02173b7)" style="fill: #ff00b1; fill-opacity: 0.75; stroke: #ff00b1; stroke-opacity: 0.75"/>
    <path d="M 246.584604 140.828121 
C 247.48122 140.828121 248.341234 140.471891 248.975237 139.837888 
C 249.609241 139.203884 249.96547 138.343871 249.96547 137.447254 
C 249.96547 136.550638 249.609241 135.690624 248.975237 135.05662 
C 248.341234 134.422617 247.48122 134.066387 246.584604 134.066387 
C 245.687987 134.066387 244.827973 134.422617 244.19397 135.05662 
C 243.559966 135.690624 243.203737 136.550638 243.203737 137.447254 
C 243.203737 138.343871 243.559966 139.203884 244.19397 139.837888 
C 244.827973 140.471891 245.687987 140.828121 246.584604 140.828121 
z
" clip-path="url(#pa0a02173b7)" style="fill: #ff2300; fill-opacity: 0.75; stroke: #ff2300; stroke-opacity: 0.75"/>
    <path d="M 219.675759 141.110022 
C 219.791541 141.110022 219.902597 141.064022 219.984467 140.982151 
C 220.066337 140.900281 220.112338 140.789226 220.112338 140.673444 
C 220.112338 140.557662 220.066337 140.446606 219.984467 140.364736 
C 219.902597 140.282866 219.791541 140.236865 219.675759 140.236865 
C 219.559977 140.236865 219.448922 140.282866 219.367052 140.364736 
C 219.285181 140.446606 219.239181 140.557662 219.239181 140.673444 
C 219.239181 140.789226 219.285181 140.900281 219.367052 140.982151 
C 219.448922 141.064022 219.559977 141.110022 219.675759 141.110022 
z
" clip-path="url(#pa0a02173b7)" style="fill: #00ff7a; fill-opacity: 0.75; stroke: #00ff7a; stroke-opacity: 0.75"/>
    <path d="M 230.245405 154.088413 
C 230.710294 154.088413 231.156205 153.90371 231.484931 153.574984 
C 231.813657 153.246258 231.998359 152.800347 231.998359 152.335458 
C 231.998359 151.870569 231.813657 151.424658 231.484931 151.095932 
C 231.156205 150.767205 230.710294 150.582503 230.245405 150.582503 
C 229.780515 150.582503 229.334604 150.767205 229.005878 151.095932 
C 228.677152 151.424658 228.49245 151.870569 228.49245 152.335458 
C 228.49245 152.800347 228.677152 153.246258 229.005878 153.574984 
C 229.334604 153.90371 229.780515 154.088413 230.245405 154.088413 
z
" clip-path="url(#pa0a02173b7)" style="fill: #ff00e7; fill-opacity: 0.75; stroke: #ff00e7; stroke-opacity: 0.75"/>
    <path d="M 226.662744 164.597421 
C 227.393308 164.597421 228.094048 164.307165 228.610635 163.790578 
C 229.127222 163.273992 229.417478 162.573251 229.417478 161.842687 
C 229.417478 161.112123 229.127222 160.411382 228.610635 159.894796 
C 228.094048 159.378209 227.393308 159.087953 226.662744 159.087953 
C 225.93218 159.087953 225.231439 159.378209 224.714852 159.894796 
C 224.198265 160.411382 223.908009 161.112123 223.908009 161.842687 
C 223.908009 162.573251 224.198265 163.273992 224.714852 163.790578 
C 225.231439 164.307165 225.93218 164.597421 226.662744 164.597421 
z
" clip-path="url(#pa0a02173b7)" style="fill: #ad00ff; fill-opacity: 0.75; stroke: #ad00ff; stroke-opacity: 0.75"/>
    <path d="M 217.179478 127.506346 
C 217.834811 127.506346 218.463391 127.245979 218.926781 126.782589 
C 219.390171 126.319199 219.650537 125.690619 219.650537 125.035286 
C 219.650537 124.379954 219.390171 123.751374 218.926781 123.287983 
C 218.463391 122.824593 217.834811 122.564227 217.179478 122.564227 
C 216.524145 122.564227 215.895565 122.824593 215.432175 123.287983 
C 214.968785 123.751374 214.708419 124.379954 214.708419 125.035286 
C 214.708419 125.690619 214.968785 126.319199 215.432175 126.782589 
C 215.895565 127.245979 216.524145 127.506346 217.179478 127.506346 
z
" clip-path="url(#pa0a02173b7)" style="fill: #3dff00; fill-opacity: 0.75; stroke: #3dff00; stroke-opacity: 0.75"/>
    <path d="M 187.834288 112.490368 
C 189.67123 112.490368 191.433184 111.760543 192.732099 110.461628 
C 194.031014 109.162714 194.760839 107.40076 194.760839 105.563817 
C 194.760839 103.726874 194.031014 101.96492 192.732099 100.666006 
C 191.433184 99.367091 189.67123 98.637266 187.834288 98.637266 
C 185.997345 98.637266 184.235391 99.367091 182.936476 100.666006 
C 181.637561 101.96492 180.907736 103.726874 180.907736 105.563817 
C 180.907736 107.40076 181.637561 109.162714 182.936476 110.461628 
C 184.235391 111.760543 185.997345 112.490368 187.834288 112.490368 
z
" clip-path="url(#pa0a02173b7)" style="fill: #00ff33; fill-opacity: 0.75; stroke: #00ff33; stroke-opacity: 0.75"/>
    <path d="M 181.553542 95.158937 
C 184.099513 95.158937 186.541551 94.147412 188.341825 92.347138 
C 190.142099 90.546864 191.153624 88.104826 191.153624 85.558855 
C 191.153624 83.012883 190.142099 80.570845 188.341825 78.770571 
C 186.541551 76.970297 184.099513 75.958772 181.553542 75.958772 
C 179.00757 75.958772 176.565532 76.970297 174.765258 78.770571 
C 172.964984 80.570845 171.953459 83.012883 171.953459 85.558855 
C 171.953459 88.104826 172.964984 90.546864 174.765258 92.347138 
C 176.565532 94.147412 179.00757 95.158937 181.553542 95.158937 
z
" clip-path="url(#pa0a02173b7)" style="fill: #00ff10; fill-opacity: 0.75; stroke: #00ff10; stroke-opacity: 0.75"/>
    <path d="M 199.716288 116.676434 
C 201.111305 116.676434 202.449374 116.122188 203.4358 115.135762 
C 204.422226 114.149336 204.976473 112.811267 204.976473 111.41625 
C 204.976473 110.021232 204.422226 108.683163 203.4358 107.696737 
C 202.449374 106.710311 201.111305 106.156065 199.716288 106.156065 
C 198.32127 106.156065 196.983202 106.710311 195.996775 107.696737 
C 195.010349 108.683163 194.456103 110.021232 194.456103 111.41625 
C 194.456103 112.811267 195.010349 114.149336 195.996775 115.135762 
C 196.983202 116.122188 198.32127 116.676434 199.716288 116.676434 
z
" clip-path="url(#pa0a02173b7)" style="fill: #00ff16; fill-opacity: 0.75; stroke: #00ff16; stroke-opacity: 0.75"/>
    <path d="M 219.037628 149.135074 
C 219.287535 149.135074 219.52724 149.035785 219.70395 148.859074 
C 219.880661 148.682363 219.97995 148.442658 219.97995 148.192751 
C 219.97995 147.942844 219.880661 147.703139 219.70395 147.526428 
C 219.52724 147.349717 219.287535 147.250428 219.037628 147.250428 
C 218.787721 147.250428 218.548016 147.349717 218.371305 147.526428 
C 218.194594 147.703139 218.095305 147.942844 218.095305 148.192751 
C 218.095305 148.442658 218.194594 148.682363 218.371305 148.859074 
C 218.548016 149.035785 218.787721 149.135074 219.037628 149.135074 
z
" clip-path="url(#pa0a02173b7)" style="fill: #0408ff; fill-opacity: 0.75; stroke: #0408ff; stroke-opacity: 0.75"/>
    <path d="M 306.409106 180.581409 
C 309.614028 180.581409 312.688115 179.30808 314.954337 177.041858 
C 317.220559 174.775637 318.493887 171.701549 318.493887 168.496628 
C 318.493887 165.291706 317.220559 162.217619 314.954337 159.951397 
C 312.688115 157.685175 309.614028 156.411847 306.409106 156.411847 
C 303.204185 156.411847 300.130097 157.685175 297.863876 159.951397 
C 295.597654 162.217619 294.324325 165.291706 294.324325 168.496628 
C 294.324325 171.701549 295.597654 174.775637 297.863876 177.041858 
C 300.130097 179.30808 303.204185 180.581409 306.409106 180.581409 
z
" clip-path="url(#pa0a02173b7)" style="fill: #ff0053; fill-opacity: 0.75; stroke: #ff0053; stroke-opacity: 0.75"/>
    <path d="M 222.217072 178.075093 
C 223.364962 178.075093 224.465992 177.619032 225.277672 176.807351 
C 226.089353 175.99567 226.545415 174.89464 226.545415 173.74675 
C 226.545415 172.59886 226.089353 171.497831 225.277672 170.68615 
C 224.465992 169.874469 223.364962 169.418407 222.217072 169.418407 
C 221.069182 169.418407 219.968152 169.874469 219.156471 170.68615 
C 218.34479 171.497831 217.888729 172.59886 217.888729 173.74675 
C 217.888729 174.89464 218.34479 175.99567 219.156471 176.807351 
C 219.968152 177.619032 221.069182 178.075093 222.217072 178.075093 
z
" clip-path="url(#pa0a02173b7)" style="fill: #7800ff; fill-opacity: 0.75; stroke: #7800ff; stroke-opacity: 0.75"/>
    <path d="M 254.599013 119.164694 
C 256.177013 119.164694 257.690594 118.537748 258.806409 117.421934 
C 259.922223 116.306119 260.549169 114.792538 260.549169 113.214538 
C 260.549169 111.636538 259.922223 110.122956 258.806409 109.007142 
C 257.690594 107.891327 256.177013 107.264381 254.599013 107.264381 
C 253.021013 107.264381 251.507431 107.891327 250.391617 109.007142 
C 249.275802 110.122956 248.648856 111.636538 248.648856 113.214538 
C 248.648856 114.792538 249.275802 116.306119 250.391617 117.421934 
C 251.507431 118.537748 253.021013 119.164694 254.599013 119.164694 
z
" clip-path="url(#pa0a02173b7)" style="fill: #ffab00; fill-opacity: 0.75; stroke: #ffab00; stroke-opacity: 0.75"/>
    <path d="M 303.391773 188.023138 
C 306.58657 188.023138 309.650947 186.753831 311.91001 184.494768 
C 314.169073 182.235706 315.438379 179.171329 315.438379 175.976532 
C 315.438379 172.781735 314.169073 169.717358 311.91001 167.458295 
C 309.650947 165.199232 306.58657 163.929926 303.391773 163.929926 
C 300.196976 163.929926 297.132599 165.199232 294.873537 167.458295 
C 292.614474 169.717358 291.345167 172.781735 291.345167 175.976532 
C 291.345167 179.171329 292.614474 182.235706 294.873537 184.494768 
C 297.132599 186.753831 300.196976 188.023138 303.391773 188.023138 
z
" clip-path="url(#pa0a02173b7)" style="fill: #ff0065; fill-opacity: 0.75; stroke: #ff0065; stroke-opacity: 0.75"/>
    <path d="M 245.572617 221.940477 
C 248.245304 221.940477 250.808884 220.878607 252.698759 218.988733 
C 254.588633 217.098858 255.650503 214.535278 255.650503 211.862591 
C 255.650503 209.189905 254.588633 206.626325 252.698759 204.73645 
C 250.808884 202.846575 248.245304 201.784706 245.572617 201.784706 
C 242.899931 201.784706 240.336351 202.846575 238.446476 204.73645 
C 236.556601 206.626325 235.494732 209.189905 235.494732 211.862591 
C 235.494732 214.535278 236.556601 217.098858 238.446476 218.988733 
C 240.336351 220.878607 242.899931 221.940477 245.572617 221.940477 
z
" clip-path="url(#pa0a02173b7)" style="fill: #c500ff; fill-opacity: 0.75; stroke: #c500ff; stroke-opacity: 0.75"/>
    <path d="M 211.664202 165.132141 
C 212.485393 165.132141 213.273061 164.805879 213.85373 164.225209 
C 214.4344 163.644539 214.760663 162.856871 214.760663 162.03568 
C 214.760663 161.214489 214.4344 160.426821 213.85373 159.846151 
C 213.273061 159.265481 212.485393 158.939219 211.664202 158.939219 
C 210.84301 158.939219 210.055343 159.265481 209.474673 159.846151 
C 208.894003 160.426821 208.56774 161.214489 208.56774 162.03568 
C 208.56774 162.856871 208.894003 163.644539 209.474673 164.225209 
C 210.055343 164.805879 210.84301 165.132141 211.664202 165.132141 
z
" clip-path="url(#pa0a02173b7)" style="fill: #0408ff; fill-opacity: 0.75; stroke: #0408ff; stroke-opacity: 0.75"/>
    <path d="M 253.097159 202.55306 
C 255.29681 202.55306 257.406664 201.679129 258.962052 200.123742 
C 260.51744 198.568354 261.39137 196.4585 261.39137 194.258849 
C 261.39137 192.059199 260.51744 189.949344 258.962052 188.393957 
C 257.406664 186.838569 255.29681 185.964638 253.097159 185.964638 
C 250.897509 185.964638 248.787654 186.838569 247.232267 188.393957 
C 245.676879 189.949344 244.802949 192.059199 244.802949 194.258849 
C 244.802949 196.4585 245.676879 198.568354 247.232267 200.123742 
C 248.787654 201.679129 250.897509 202.55306 253.097159 202.55306 
z
" clip-path="url(#pa0a02173b7)" style="fill: #f800fd; fill-opacity: 0.75; stroke: #f800fd; stroke-opacity: 0.75"/>
    <path d="M 203.765288 148.633419 
C 204.459472 148.633419 205.125317 148.357617 205.616179 147.866755 
C 206.107042 147.375893 206.382844 146.710048 206.382844 146.015864 
C 206.382844 145.32168 206.107042 144.655835 205.616179 144.164973 
C 205.125317 143.674111 204.459472 143.398309 203.765288 143.398309 
C 203.071105 143.398309 202.405259 143.674111 201.914397 144.164973 
C 201.423535 144.655835 201.147733 145.32168 201.147733 146.015864 
C 201.147733 146.710048 201.423535 147.375893 201.914397 147.866755 
C 202.405259 148.357617 203.071105 148.633419 203.765288 148.633419 
z
" clip-path="url(#pa0a02173b7)" style="fill: #00d9ff; fill-opacity: 0.75; stroke: #00d9ff; stroke-opacity: 0.75"/>
    <path d="M 216.622004 144.407312 
C 216.839667 144.407312 217.048444 144.320834 217.202354 144.166923 
C 217.356265 144.013012 217.442743 143.804235 217.442743 143.586572 
C 217.442743 143.36891 217.356265 143.160133 217.202354 143.006222 
C 217.048444 142.852311 216.839667 142.765833 216.622004 142.765833 
C 216.404341 142.765833 216.195564 142.852311 216.041654 143.006222 
C 215.887743 143.160133 215.801265 143.36891 215.801265 143.586572 
C 215.801265 143.804235 215.887743 144.013012 216.041654 144.166923 
C 216.195564 144.320834 216.404341 144.407312 216.622004 144.407312 
z
" clip-path="url(#pa0a02173b7)" style="fill: #00cdff; fill-opacity: 0.75; stroke: #00cdff; stroke-opacity: 0.75"/>
    <path d="M 222.13501 143.368493 
C 222.172737 143.368493 222.208923 143.353504 222.2356 143.326827 
C 222.262277 143.300151 222.277266 143.263964 222.277266 143.226238 
C 222.277266 143.188511 222.262277 143.152325 222.2356 143.125648 
C 222.208923 143.098971 222.172737 143.083982 222.13501 143.083982 
C 222.097284 143.083982 222.061097 143.098971 222.034421 143.125648 
C 222.007744 143.152325 221.992755 143.188511 221.992755 143.226238 
C 221.992755 143.263964 222.007744 143.300151 222.034421 143.326827 
C 222.061097 143.353504 222.097284 143.368493 222.13501 143.368493 
z
" clip-path="url(#pa0a02173b7)" style="fill: #3100ff; fill-opacity: 0.75; stroke: #3100ff; stroke-opacity: 0.75"/>
    <path d="M 246.007558 120.020292 
C 247.317363 120.020292 248.573698 119.499901 249.49987 118.573728 
C 250.426043 117.647556 250.946434 116.391221 250.946434 115.081416 
C 250.946434 113.771611 250.426043 112.515275 249.49987 111.589103 
C 248.573698 110.662931 247.317363 110.14254 246.007558 110.14254 
C 244.697753 110.14254 243.441417 110.662931 242.515245 111.589103 
C 241.589073 112.515275 241.068682 113.771611 241.068682 115.081416 
C 241.068682 116.391221 241.589073 117.647556 242.515245 118.573728 
C 243.441417 119.499901 244.697753 120.020292 246.007558 120.020292 
z
" clip-path="url(#pa0a02173b7)" style="fill: #ffc900; fill-opacity: 0.75; stroke: #ffc900; stroke-opacity: 0.75"/>
    <path d="M 203.920513 257.244176 
C 207.658116 257.244176 211.243139 255.759211 213.886024 253.116327 
C 216.528908 250.473443 218.013873 246.888419 218.013873 243.150816 
C 218.013873 239.413214 216.528908 235.82819 213.886024 233.185306 
C 211.243139 230.542422 207.658116 229.057456 203.920513 229.057456 
C 200.18291 229.057456 196.597887 230.542422 193.955003 233.185306 
C 191.312118 235.82819 189.827153 239.413214 189.827153 243.150816 
C 189.827153 246.888419 191.312118 250.473443 193.955003 253.116327 
C 196.597887 255.759211 200.18291 257.244176 203.920513 257.244176 
z
" clip-path="url(#pa0a02173b7)" style="fill: #4f00ff; fill-opacity: 0.75; stroke: #4f00ff; stroke-opacity: 0.75"/>
    <path d="M 260.714182 234.378809 
C 263.943657 234.378809 267.041296 233.095725 269.32488 230.812141 
C 271.608463 228.528558 272.891547 225.430919 272.891547 222.201444 
C 272.891547 218.971969 271.608463 215.874331 269.32488 213.590747 
C 267.041296 211.307164 263.943657 210.02408 260.714182 210.02408 
C 257.484708 210.02408 254.387069 211.307164 252.103485 213.590747 
C 249.819902 215.874331 248.536818 218.971969 248.536818 222.201444 
C 248.536818 225.430919 249.819902 228.528558 252.103485 230.812141 
C 254.387069 233.095725 257.484708 234.378809 260.714182 234.378809 
z
" clip-path="url(#pa0a02173b7)" style="fill: #e800ff; fill-opacity: 0.75; stroke: #e800ff; stroke-opacity: 0.75"/>
    <path d="M 232.149133 207.886796 
C 234.277852 207.886796 236.319672 207.041047 237.824904 205.535815 
C 239.330136 204.030583 240.175885 201.988763 240.175885 199.860044 
C 240.175885 197.731324 239.330136 195.689505 237.824904 194.184273 
C 236.319672 192.679041 234.277852 191.833292 232.149133 191.833292 
C 230.020413 191.833292 227.978594 192.679041 226.473362 194.184273 
C 224.96813 195.689505 224.122381 197.731324 224.122381 199.860044 
C 224.122381 201.988763 224.96813 204.030583 226.473362 205.535815 
C 227.978594 207.041047 230.020413 207.886796 232.149133 207.886796 
z
" clip-path="url(#pa0a02173b7)" style="fill: #a100ff; fill-opacity: 0.75; stroke: #a100ff; stroke-opacity: 0.75"/>
    <path d="M 216.171211 205.535947 
C 218.209923 205.535947 220.165409 204.725958 221.606996 203.284371 
C 223.048583 201.842784 223.858571 199.887298 223.858571 197.848586 
C 223.858571 195.809874 223.048583 193.854389 221.606996 192.412802 
C 220.165409 190.971215 218.209923 190.161226 216.171211 190.161226 
C 214.132499 190.161226 212.177013 190.971215 210.735426 192.412802 
C 209.29384 193.854389 208.483851 195.809874 208.483851 197.848586 
C 208.483851 199.887298 209.29384 201.842784 210.735426 203.284371 
C 212.177013 204.725958 214.132499 205.535947 216.171211 205.535947 
z
" clip-path="url(#pa0a02173b7)" style="fill: #5a00ff; fill-opacity: 0.75; stroke: #5a00ff; stroke-opacity: 0.75"/>
    <path d="M 170.576483 170.017983 
C 172.603344 170.017983 174.547464 169.212702 175.980671 167.779495 
C 177.413878 166.346288 178.219159 164.402168 178.219159 162.375307 
C 178.219159 160.348446 177.413878 158.404326 175.980671 156.971119 
C 174.547464 155.537912 172.603344 154.732631 170.576483 154.732631 
C 168.549622 154.732631 166.605502 155.537912 165.172295 156.971119 
C 163.739088 158.404326 162.933807 160.348446 162.933807 162.375307 
C 162.933807 164.402168 163.739088 166.346288 165.172295 167.779495 
C 166.605502 169.212702 168.549622 170.017983 170.576483 170.017983 
z
" clip-path="url(#pa0a02173b7)" style="fill: #00afff; fill-opacity: 0.75; stroke: #00afff; stroke-opacity: 0.75"/>
    <path d="M 173.795669 76.618755 
C 177.153095 76.618755 180.373461 75.284835 182.74752 72.910777 
C 185.121578 70.536718 186.455497 67.316352 186.455497 63.958927 
C 186.455497 60.601501 185.121578 57.381135 182.74752 55.007076 
C 180.373461 52.633018 177.153095 51.299099 173.795669 51.299099 
C 170.438244 51.299099 167.217877 52.633018 164.843819 55.007076 
C 162.469761 57.381135 161.135841 60.601501 161.135841 63.958927 
C 161.135841 67.316352 162.469761 70.536718 164.843819 72.910777 
C 167.217877 75.284835 170.438244 76.618755 173.795669 76.618755 
z
" clip-path="url(#pa0a02173b7)" style="fill: #06ff04; fill-opacity: 0.75; stroke: #06ff04; stroke-opacity: 0.75"/>
    <path d="M 229.248866 138.390585 
C 229.556686 138.390585 229.85194 138.268286 230.069602 138.050625 
C 230.287264 137.832963 230.409562 137.537709 230.409562 137.229888 
C 230.409562 136.922068 230.287264 136.626814 230.069602 136.409152 
C 229.85194 136.19149 229.556686 136.069192 229.248866 136.069192 
C 228.941045 136.069192 228.645791 136.19149 228.42813 136.409152 
C 228.210468 136.626814 228.088169 136.922068 228.088169 137.229888 
C 228.088169 137.537709 228.210468 137.832963 228.42813 138.050625 
C 228.645791 138.268286 228.941045 138.390585 229.248866 138.390585 
z
" clip-path="url(#pa0a02173b7)" style="fill: #ff9400; fill-opacity: 0.75; stroke: #ff9400; stroke-opacity: 0.75"/>
    <path d="M 220.277385 151.979387 
C 220.598079 151.979387 220.905682 151.851974 221.132447 151.625209 
C 221.359211 151.398444 221.486624 151.090842 221.486624 150.770148 
C 221.486624 150.449454 221.359211 150.141852 221.132447 149.915087 
C 220.905682 149.688322 220.598079 149.560909 220.277385 149.560909 
C 219.956692 149.560909 219.649089 149.688322 219.422324 149.915087 
C 219.19556 150.141852 219.068147 150.449454 219.068147 150.770148 
C 219.068147 151.090842 219.19556 151.398444 219.422324 151.625209 
C 219.649089 151.851974 219.956692 151.979387 220.277385 151.979387 
z
" clip-path="url(#pa0a02173b7)" style="fill: #3d00ff; fill-opacity: 0.75; stroke: #3d00ff; stroke-opacity: 0.75"/>
    <path d="M 218.852697 235.197918 
C 221.832701 235.197918 224.691052 234.01395 226.798232 231.906769 
C 228.905413 229.799589 230.089381 226.941238 230.089381 223.961234 
C 230.089381 220.981231 228.905413 218.12288 226.798232 216.015699 
C 224.691052 213.908519 221.832701 212.724551 218.852697 212.724551 
C 215.872694 212.724551 213.014343 213.908519 210.907162 216.015699 
C 208.799982 218.12288 207.616014 220.981231 207.616014 223.961234 
C 207.616014 226.941238 208.799982 229.799589 210.907162 231.906769 
C 213.014343 234.01395 215.872694 235.197918 218.852697 235.197918 
z
" clip-path="url(#pa0a02173b7)" style="fill: #6c00ff; fill-opacity: 0.75; stroke: #6c00ff; stroke-opacity: 0.75"/>
    <path d="M 188.17393 76.796779 
C 191.244904 76.796779 194.190513 75.576668 196.36202 73.405162 
C 198.533526 71.233655 199.753637 68.288046 199.753637 65.217072 
C 199.753637 62.146098 198.533526 59.200489 196.36202 57.028982 
C 194.190513 54.857476 191.244904 53.637365 188.17393 53.637365 
C 185.102956 53.637365 182.157347 54.857476 179.985841 57.028982 
C 177.814334 59.200489 176.594223 62.146098 176.594223 65.217072 
C 176.594223 68.288046 177.814334 71.233655 179.985841 73.405162 
C 182.157347 75.576668 185.102956 76.796779 188.17393 76.796779 
z
" clip-path="url(#pa0a02173b7)" style="fill: #20ff00; fill-opacity: 0.75; stroke: #20ff00; stroke-opacity: 0.75"/>
    <path d="M 144.074732 212.212533 
C 147.598241 212.212533 150.97791 210.812628 153.469406 208.321131 
C 155.960903 205.829634 157.360808 202.449965 157.360808 198.926457 
C 157.360808 195.402949 155.960903 192.023279 153.469406 189.531783 
C 150.97791 187.040286 147.598241 185.640381 144.074732 185.640381 
C 140.551224 185.640381 137.171555 187.040286 134.680058 189.531783 
C 132.188561 192.023279 130.788657 195.402949 130.788657 198.926457 
C 130.788657 202.449965 132.188561 205.829634 134.680058 208.321131 
C 137.171555 210.812628 140.551224 212.212533 144.074732 212.212533 
z
" clip-path="url(#pa0a02173b7)" style="fill: #006eff; fill-opacity: 0.75; stroke: #006eff; stroke-opacity: 0.75"/>
    <path d="M 254.282261 159.477021 
C 255.528858 159.477021 256.724565 158.981743 257.606043 158.100266 
C 258.48752 157.218788 258.982798 156.023081 258.982798 154.776484 
C 258.982798 153.529887 258.48752 152.33418 257.606043 151.452703 
C 256.724565 150.571225 255.528858 150.075947 254.282261 150.075947 
C 253.035664 150.075947 251.839957 150.571225 250.95848 151.452703 
C 250.077002 152.33418 249.581724 153.529887 249.581724 154.776484 
C 249.581724 156.023081 250.077002 157.218788 250.95848 158.100266 
C 251.839957 158.981743 253.035664 159.477021 254.282261 159.477021 
z
" clip-path="url(#pa0a02173b7)" style="fill: #ff0065; fill-opacity: 0.75; stroke: #ff0065; stroke-opacity: 0.75"/>
    <path d="M 231.955078 160.769718 
C 232.632488 160.769718 233.282245 160.50058 233.761246 160.021578 
C 234.240248 159.542577 234.509386 158.89282 234.509386 158.215409 
C 234.509386 157.537999 234.240248 156.888242 233.761246 156.40924 
C 233.282245 155.930239 232.632488 155.661101 231.955078 155.661101 
C 231.277667 155.661101 230.62791 155.930239 230.148909 156.40924 
C 229.669907 156.888242 229.400769 157.537999 229.400769 158.215409 
C 229.400769 158.89282 229.669907 159.542577 230.148909 160.021578 
C 230.62791 160.50058 231.277667 160.769718 231.955078 160.769718 
z
" clip-path="url(#pa0a02173b7)" style="fill: #f800fd; fill-opacity: 0.75; stroke: #f800fd; stroke-opacity: 0.75"/>
    <path d="M 165.005464 175.892258 
C 167.288155 175.892258 169.477659 174.985336 171.091765 173.37123 
C 172.705871 171.757124 173.612793 169.56762 173.612793 167.28493 
C 173.612793 165.002239 172.705871 162.812735 171.091765 161.198629 
C 169.477659 159.584523 167.288155 158.677601 165.005464 158.677601 
C 162.722774 158.677601 160.53327 159.584523 158.919164 161.198629 
C 157.305058 162.812735 156.398136 165.002239 156.398136 167.28493 
C 156.398136 169.56762 157.305058 171.757124 158.919164 173.37123 
C 160.53327 174.985336 162.722774 175.892258 165.005464 175.892258 
z
" clip-path="url(#pa0a02173b7)" style="fill: #00a4ff; fill-opacity: 0.75; stroke: #00a4ff; stroke-opacity: 0.75"/>
    <path d="M 224.668808 149.88563 
C 224.925345 149.88563 225.17141 149.783707 225.352809 149.602308 
C 225.534208 149.420909 225.636131 149.174844 225.636131 148.918307 
C 225.636131 148.66177 225.534208 148.415706 225.352809 148.234307 
C 225.17141 148.052908 224.925345 147.950985 224.668808 147.950985 
C 224.412271 147.950985 224.166207 148.052908 223.984808 148.234307 
C 223.803409 148.415706 223.701486 148.66177 223.701486 148.918307 
C 223.701486 149.174844 223.803409 149.420909 223.984808 149.602308 
C 224.166207 149.783707 224.412271 149.88563 224.668808 149.88563 
z
" clip-path="url(#pa0a02173b7)" style="fill: #c500ff; fill-opacity: 0.75; stroke: #c500ff; stroke-opacity: 0.75"/>
    <path d="M 203.972109 168.152461 
C 205.017783 168.152461 206.020769 167.73701 206.760172 166.997607 
C 207.499575 166.258204 207.915026 165.255218 207.915026 164.209544 
C 207.915026 163.16387 207.499575 162.160884 206.760172 161.421481 
C 206.020769 160.682078 205.017783 160.266628 203.972109 160.266628 
C 202.926436 160.266628 201.923449 160.682078 201.184046 161.421481 
C 200.444643 162.160884 200.029193 163.16387 200.029193 164.209544 
C 200.029193 165.255218 200.444643 166.258204 201.184046 166.997607 
C 201.923449 167.73701 202.926436 168.152461 203.972109 168.152461 
z
" clip-path="url(#pa0a02173b7)" style="fill: #0033ff; fill-opacity: 0.75; stroke: #0033ff; stroke-opacity: 0.75"/>
    <path d="M 282.416245 130.998421 
C 284.718391 130.998421 286.926558 130.083769 288.554421 128.455906 
C 290.182284 126.828042 291.096937 124.619876 291.096937 122.31773 
C 291.096937 120.015583 290.182284 117.807417 288.554421 116.179554 
C 286.926558 114.551691 284.718391 113.637038 282.416245 113.637038 
C 280.114099 113.637038 277.905933 114.551691 276.278069 116.179554 
C 274.650206 117.807417 273.735554 120.015583 273.735554 122.31773 
C 273.735554 124.619876 274.650206 126.828042 276.278069 128.455906 
C 277.905933 130.083769 280.114099 130.998421 282.416245 130.998421 
z
" clip-path="url(#pa0a02173b7)" style="fill: #ff4700; fill-opacity: 0.75; stroke: #ff4700; stroke-opacity: 0.75"/>
    <path d="M 270.8856 176.963048 
C 272.907723 176.963048 274.847297 176.15965 276.277154 174.729793 
C 277.707012 173.299936 278.51041 171.360361 278.51041 169.338238 
C 278.51041 167.316115 277.707012 165.37654 276.277154 163.946683 
C 274.847297 162.516826 272.907723 161.713428 270.8856 161.713428 
C 268.863476 161.713428 266.923902 162.516826 265.494045 163.946683 
C 264.064188 165.37654 263.260789 167.316115 263.260789 169.338238 
C 263.260789 171.360361 264.064188 173.299936 265.494045 174.729793 
C 266.923902 176.15965 268.863476 176.963048 270.8856 176.963048 
z
" clip-path="url(#pa0a02173b7)" style="fill: #ff0082; fill-opacity: 0.75; stroke: #ff0082; stroke-opacity: 0.75"/>
   </g>
   <g id="matplotlib.axis_1">
    <g id="xtick_1">
     <g id="line2d_1">
      <path d="M 222.442634 142.237366 
L 222.442634 34.56 
" clip-path="url(#pa0a02173b7)" style="fill: none; stroke: #808080; stroke-width: 0.5; stroke-linecap: square"/>
     </g>
     <g id="text_1">
      <!-- 90 -->
      <g transform="translate(215.057477 23.294375) scale(0.1 -0.1)">
       <defs>
        <path id="Roboto-Thin-39" d="M 3103 2313 
Q 3103 1188 2601 567 
Q 2100 -53 1069 -63 
L 931 -63 
L 938 106 
L 1081 106 
Q 2038 119 2486 694 
Q 2934 1269 2934 2263 
Q 2763 1897 2417 1680 
Q 2072 1463 1634 1463 
Q 1034 1463 678 1920 
Q 322 2378 322 2994 
Q 322 3656 689 4134 
Q 1056 4613 1659 4613 
Q 2331 4613 2712 4177 
Q 3094 3741 3103 2866 
L 3103 2313 
z
M 491 2994 
Q 491 2469 792 2050 
Q 1094 1631 1634 1631 
Q 2203 1631 2523 1959 
Q 2844 2288 2934 2628 
L 2934 2819 
Q 2934 3631 2601 4037 
Q 2269 4444 1672 4444 
Q 1309 4444 1043 4234 
Q 778 4025 634 3694 
Q 491 3363 491 2994 
z
" transform="scale(0.015625)"/>
        <path id="Roboto-Thin-30" d="M 3113 1856 
Q 3113 966 2766 451 
Q 2419 -63 1756 -63 
Q 1103 -63 747 451 
Q 391 966 391 1856 
L 391 2694 
Q 391 3584 742 4100 
Q 1094 4616 1750 4616 
Q 2409 4616 2761 4100 
Q 3113 3584 3113 2694 
L 3113 1856 
z
M 2944 2694 
Q 2944 3475 2650 3961 
Q 2356 4447 1750 4447 
Q 1147 4447 853 3961 
Q 559 3475 559 2694 
L 559 1863 
Q 559 1094 856 600 
Q 1153 106 1756 106 
Q 2363 106 2653 600 
Q 2944 1094 2944 1863 
L 2944 2694 
z
" transform="scale(0.015625)"/>
        <path id="Roboto-Thin-b0" d="M 488 3863 
Q 488 4169 703 4391 
Q 919 4613 1225 4613 
Q 1522 4613 1736 4391 
Q 1950 4169 1950 3863 
Q 1950 3550 1736 3336 
Q 1522 3122 1225 3122 
Q 919 3122 703 3336 
Q 488 3550 488 3863 
z
M 659 3863 
Q 659 3616 821 3456 
Q 984 3297 1225 3297 
Q 1463 3297 1619 3456 
Q 1775 3616 1775 3863 
Q 1775 4113 1619 4277 
Q 1463 4441 1225 4441 
Q 984 4441 821 4277 
Q 659 4113 659 3863 
z
" transform="scale(0.015625)"/>
       </defs>
       <use xlink:href="#Roboto-Thin-39"/>
       <use xlink:href="#Roboto-Thin-30" x="54.736328"/>
       <use xlink:href="#Roboto-Thin-b0" x="109.472656"/>
      </g>
     </g>
    </g>
    <g id="xtick_2">
     <g id="line2d_2">
      <path d="M 222.442634 142.237366 
L 146.303238 66.09797 
" clip-path="url(#pa0a02173b7)" style="fill: none; stroke: #808080; stroke-width: 0.5; stroke-linecap: square"/>
     </g>
     <g id="text_2">
      <!-- 135 -->
      <g transform="translate(126.281868 58.93285) scale(0.1 -0.1)">
       <defs>
        <path id="Roboto-Thin-31" d="M 2059 4563 
L 2059 0 
L 1891 0 
L 1891 4338 
L 584 3847 
L 584 4031 
L 2025 4563 
L 2059 4563 
z
" transform="scale(0.015625)"/>
        <path id="Roboto-Thin-33" d="M 1303 2231 
L 1303 2406 
L 1663 2406 
Q 2253 2409 2565 2704 
Q 2878 3000 2878 3391 
Q 2878 3819 2611 4131 
Q 2344 4444 1763 4444 
Q 1269 4444 928 4153 
Q 588 3863 588 3356 
L 419 3356 
Q 419 3941 816 4277 
Q 1213 4613 1763 4613 
Q 2350 4613 2698 4283 
Q 3047 3953 3047 3378 
Q 3047 3019 2820 2734 
Q 2594 2450 2197 2328 
Q 2644 2225 2895 1939 
Q 3147 1653 3147 1206 
Q 3147 600 2762 268 
Q 2378 -63 1791 -63 
Q 1450 -63 1111 78 
Q 772 219 547 512 
Q 322 806 322 1266 
L 491 1266 
Q 491 759 862 432 
Q 1234 106 1791 106 
Q 2356 106 2667 395 
Q 2978 684 2978 1194 
Q 2978 1750 2604 1990 
Q 2231 2231 1650 2231 
L 1303 2231 
z
" transform="scale(0.015625)"/>
        <path id="Roboto-Thin-35" d="M 850 2331 
L 722 2381 
L 934 4550 
L 3153 4550 
L 3153 4384 
L 1088 4384 
L 903 2559 
Q 1016 2656 1277 2759 
Q 1538 2863 1856 2863 
Q 2444 2863 2822 2489 
Q 3200 2116 3200 1450 
Q 3200 797 2903 367 
Q 2606 -63 1919 -63 
Q 1384 -63 1001 246 
Q 619 556 569 1197 
L 741 1197 
Q 841 106 1919 106 
Q 3028 106 3028 1444 
Q 3028 1978 2726 2336 
Q 2425 2694 1859 2694 
Q 1500 2694 1264 2595 
Q 1028 2497 850 2331 
z
" transform="scale(0.015625)"/>
       </defs>
       <use xlink:href="#Roboto-Thin-31"/>
       <use xlink:href="#Roboto-Thin-33" x="54.736328"/>
       <use xlink:href="#Roboto-Thin-35" x="109.472656"/>
       <use xlink:href="#Roboto-Thin-b0" x="164.208984"/>
      </g>
     </g>
    </g>
    <g id="xtick_3">
     <g id="line2d_3">
      <path d="M 222.442634 142.237366 
L 114.765267 142.237366 
" clip-path="url(#pa0a02173b7)" style="fill: none; stroke: #808080; stroke-width: 0.5; stroke-linecap: square"/>
     </g>
     <g id="text_3">
      <!-- 180 -->
      <g transform="translate(90.643392 144.971741) scale(0.1 -0.1)">
       <defs>
        <path id="Roboto-Thin-38" d="M 3209 1184 
Q 3209 563 2787 250 
Q 2366 -63 1763 -63 
Q 1147 -63 728 250 
Q 309 563 309 1184 
Q 309 1609 578 1912 
Q 847 2216 1275 2328 
Q 900 2444 669 2725 
Q 438 3006 438 3394 
Q 438 3988 814 4300 
Q 1191 4613 1750 4613 
Q 2300 4613 2689 4300 
Q 3078 3988 3078 3394 
Q 3078 3006 2842 2725 
Q 2606 2444 2234 2328 
Q 2659 2216 2934 1912 
Q 3209 1609 3209 1184 
z
M 2909 3409 
Q 2909 3863 2570 4153 
Q 2231 4444 1750 4444 
Q 1259 4444 932 4169 
Q 606 3894 606 3409 
Q 606 2947 934 2680 
Q 1263 2413 1756 2413 
Q 2238 2413 2573 2680 
Q 2909 2947 2909 3409 
z
M 3038 1169 
Q 3038 1663 2663 1953 
Q 2288 2244 1756 2244 
Q 1216 2244 847 1953 
Q 478 1663 478 1169 
Q 478 653 847 379 
Q 1216 106 1763 106 
Q 2294 106 2666 379 
Q 3038 653 3038 1169 
z
" transform="scale(0.015625)"/>
       </defs>
       <use xlink:href="#Roboto-Thin-31"/>
       <use xlink:href="#Roboto-Thin-38" x="54.736328"/>
       <use xlink:href="#Roboto-Thin-30" x="109.472656"/>
       <use xlink:href="#Roboto-Thin-b0" x="164.208984"/>
      </g>
     </g>
    </g>
    <g id="xtick_4">
     <g id="line2d_4">
      <path d="M 222.442634 142.237366 
L 146.303238 218.376762 
" clip-path="url(#pa0a02173b7)" style="fill: none; stroke: #808080; stroke-width: 0.5; stroke-linecap: square"/>
     </g>
     <g id="text_4">
      <!-- 225 -->
      <g transform="translate(126.281868 231.010632) scale(0.1 -0.1)">
       <defs>
        <path id="Roboto-Thin-32" d="M 3200 169 
L 3200 0 
L 478 0 
L 478 169 
L 2047 1978 
Q 2784 2856 2784 3391 
Q 2784 3875 2503 4159 
Q 2222 4444 1675 4444 
Q 1184 4444 859 4108 
Q 534 3772 534 3266 
L 366 3266 
Q 366 3819 730 4216 
Q 1094 4613 1675 4613 
Q 2263 4613 2609 4300 
Q 2956 3988 2956 3391 
Q 2956 2969 2657 2536 
Q 2359 2103 1997 1681 
L 700 169 
L 3200 169 
z
" transform="scale(0.015625)"/>
       </defs>
       <use xlink:href="#Roboto-Thin-32"/>
       <use xlink:href="#Roboto-Thin-32" x="54.736328"/>
       <use xlink:href="#Roboto-Thin-35" x="109.472656"/>
       <use xlink:href="#Roboto-Thin-b0" x="164.208984"/>
      </g>
     </g>
    </g>
    <g id="xtick_5">
     <g id="line2d_5">
      <path d="M 222.442634 142.237366 
L 222.442634 249.914733 
" clip-path="url(#pa0a02173b7)" style="fill: none; stroke: #808080; stroke-width: 0.5; stroke-linecap: square"/>
     </g>
     <g id="text_5">
      <!-- 270 -->
      <g transform="translate(212.320759 266.649108) scale(0.1 -0.1)">
       <defs>
        <path id="Roboto-Thin-37" d="M 3147 4550 
L 3147 4444 
L 1144 0 
L 972 0 
L 2953 4381 
L 241 4381 
L 241 4550 
L 3147 4550 
z
" transform="scale(0.015625)"/>
       </defs>
       <use xlink:href="#Roboto-Thin-32"/>
       <use xlink:href="#Roboto-Thin-37" x="54.736328"/>
       <use xlink:href="#Roboto-Thin-30" x="109.472656"/>
       <use xlink:href="#Roboto-Thin-b0" x="164.208984"/>
      </g>
     </g>
    </g>
    <g id="xtick_6">
     <g id="line2d_6">
      <path d="M 222.442634 142.237366 
L 298.58203 218.376762 
" clip-path="url(#pa0a02173b7)" style="fill: none; stroke: #808080; stroke-width: 0.5; stroke-linecap: square"/>
     </g>
     <g id="text_6">
      <!-- 315 -->
      <g transform="translate(298.35965 231.010632) scale(0.1 -0.1)">
       <use xlink:href="#Roboto-Thin-33"/>
       <use xlink:href="#Roboto-Thin-31" x="54.736328"/>
       <use xlink:href="#Roboto-Thin-35" x="109.472656"/>
       <use xlink:href="#Roboto-Thin-b0" x="164.208984"/>
      </g>
     </g>
    </g>
    <g id="xtick_7">
     <g id="line2d_7">
      <path d="M 222.442634 142.237366 
L 330.12 142.237366 
" clip-path="url(#pa0a02173b7)" style="fill: none; stroke: #808080; stroke-width: 0.5; stroke-linecap: square"/>
     </g>
     <g id="text_7">
      <!-- 360 -->
      <g transform="translate(333.998125 144.971741) scale(0.1 -0.1)">
       <defs>
        <path id="Roboto-Thin-36" d="M 3166 1500 
Q 3166 838 2808 387 
Q 2450 -63 1881 -63 
Q 1250 -63 825 368 
Q 400 800 400 1538 
L 400 2063 
Q 400 2969 695 3531 
Q 991 4094 1483 4353 
Q 1975 4613 2566 4613 
L 2625 4613 
L 2625 4444 
Q 1431 4444 894 3547 
Q 603 3066 572 2291 
Q 744 2591 1078 2791 
Q 1413 2991 1850 2991 
Q 2478 2991 2822 2567 
Q 3166 2144 3166 1500 
z
M 569 1541 
Q 569 888 937 495 
Q 1306 103 1881 103 
Q 2394 103 2695 525 
Q 2997 947 2997 1500 
Q 2997 2053 2706 2437 
Q 2416 2822 1828 2822 
Q 1391 2822 1025 2570 
Q 659 2319 569 1944 
L 569 1541 
z
" transform="scale(0.015625)"/>
       </defs>
       <use xlink:href="#Roboto-Thin-33"/>
       <use xlink:href="#Roboto-Thin-36" x="54.736328"/>
       <use xlink:href="#Roboto-Thin-30" x="109.472656"/>
       <use xlink:href="#Roboto-Thin-b0" x="164.208984"/>
      </g>
     </g>
    </g>
   </g>
   <g id="matplotlib.axis_2">
    <g id="ytick_1">
     <g id="line2d_8">
      <path d="M 222.442634 142.237366 
C 222.442634 142.237366 222.442634 142.237366 222.442634 142.237366 
C 222.442634 142.237366 222.442634 142.237366 222.442634 142.237366 
C 222.442634 142.237366 222.442634 142.237366 222.442634 142.237366 
C 222.442634 142.237366 222.442634 142.237366 222.442634 142.237366 
C 222.442634 142.237366 222.442634 142.237366 222.442634 142.237366 
C 222.442634 142.237366 222.442634 142.237366 222.442634 142.237366 
C 222.442634 142.237366 222.442634 142.237366 222.442634 142.237366 
C 222.442634 142.237366 222.442634 142.237366 222.442634 142.237366 
" clip-path="url(#pa0a02173b7)" style="fill: none; stroke: #808080; stroke-width: 0.5; stroke-linecap: square"/>
     </g>
     <g id="text_8">
      <!-- 0.00 -->
      <g transform="translate(229.442634 144.971741) scale(0.1 -0.1)">
       <defs>
        <path id="Roboto-Thin-2e" d="M 459 153 
Q 459 328 631 328 
Q 806 328 806 153 
Q 806 -19 631 -19 
Q 459 -19 459 153 
z
" transform="scale(0.015625)"/>
       </defs>
       <use xlink:href="#Roboto-Thin-30"/>
       <use xlink:href="#Roboto-Thin-2e" x="54.736328"/>
       <use xlink:href="#Roboto-Thin-30" x="76.171875"/>
       <use xlink:href="#Roboto-Thin-30" x="130.908203"/>
      </g>
     </g>
    </g>
    <g id="ytick_2">
     <g id="line2d_9">
      <path d="M 222.442634 129.368082 
C 219.897634 129.368082 217.408932 130.123022 215.292843 131.536948 
C 213.176753 132.950874 211.526895 134.961232 210.552966 137.312505 
C 209.579036 139.663777 209.324125 142.251941 209.820629 144.748039 
C 210.317134 147.244137 211.543089 149.537738 213.342676 151.337324 
C 215.142262 153.136911 217.435863 154.362866 219.931961 154.859371 
C 222.428059 155.355875 225.016223 155.100964 227.367495 154.127034 
C 229.718768 153.153105 231.729126 151.503247 233.143052 149.387157 
C 234.556978 147.271068 235.311918 144.782366 235.311918 142.237366 
" clip-path="url(#pa0a02173b7)" style="fill: none; stroke: #808080; stroke-width: 0.5; stroke-linecap: square"/>
     </g>
     <g id="text_9">
      <!-- 0.25 -->
      <g transform="translate(229.442634 132.102457) scale(0.1 -0.1)">
       <use xlink:href="#Roboto-Thin-30"/>
       <use xlink:href="#Roboto-Thin-2e" x="54.736328"/>
       <use xlink:href="#Roboto-Thin-32" x="76.171875"/>
       <use xlink:href="#Roboto-Thin-35" x="130.908203"/>
      </g>
     </g>
    </g>
    <g id="ytick_3">
     <g id="line2d_10">
      <path d="M 222.442634 116.498798 
C 217.352635 116.498798 212.375231 118.008678 208.143051 120.836529 
C 203.910872 123.664381 200.611156 127.685097 198.663297 132.387643 
C 196.715439 137.090188 196.205616 142.266516 197.198625 147.258712 
C 198.191634 152.250908 200.643545 156.83811 204.242718 160.437282 
C 207.84189 164.036455 212.429092 166.488366 217.421288 167.481375 
C 222.413484 168.474384 227.589812 167.964561 232.292357 166.016703 
C 236.994903 164.068844 241.015619 160.769128 243.843471 156.536949 
C 246.671322 152.304769 248.181202 147.327365 248.181202 142.237366 
" clip-path="url(#pa0a02173b7)" style="fill: none; stroke: #808080; stroke-width: 0.5; stroke-linecap: square"/>
     </g>
     <g id="text_10">
      <!-- 0.50 -->
      <g transform="translate(229.442634 119.233173) scale(0.1 -0.1)">
       <use xlink:href="#Roboto-Thin-30"/>
       <use xlink:href="#Roboto-Thin-2e" x="54.736328"/>
       <use xlink:href="#Roboto-Thin-35" x="76.171875"/>
       <use xlink:href="#Roboto-Thin-30" x="130.908203"/>
      </g>
     </g>
    </g>
    <g id="ytick_4">
     <g id="line2d_11">
      <path d="M 222.442634 103.629514 
C 214.807636 103.629514 207.341529 105.894333 200.99326 110.136111 
C 194.644992 114.377888 189.695416 120.408963 186.773629 127.462781 
C 183.851842 134.516599 183.087106 142.281091 184.576621 149.769385 
C 186.066135 157.257678 189.744001 164.138482 195.14276 169.53724 
C 200.541518 174.935999 207.422322 178.613865 214.910615 180.103379 
C 222.398909 181.592894 230.163401 180.828158 237.217219 177.906371 
C 244.271037 174.984584 250.302112 170.035008 254.543889 163.68674 
C 258.785667 157.338471 261.050486 149.872364 261.050486 142.237366 
" clip-path="url(#pa0a02173b7)" style="fill: none; stroke: #808080; stroke-width: 0.5; stroke-linecap: square"/>
     </g>
     <g id="text_11">
      <!-- 0.75 -->
      <g transform="translate(229.442634 106.363889) scale(0.1 -0.1)">
       <use xlink:href="#Roboto-Thin-30"/>
       <use xlink:href="#Roboto-Thin-2e" x="54.736328"/>
       <use xlink:href="#Roboto-Thin-37" x="76.171875"/>
       <use xlink:href="#Roboto-Thin-35" x="130.908203"/>
      </g>
     </g>
    </g>
    <g id="ytick_5">
     <g id="line2d_12">
      <path d="M 222.442634 90.76023 
C 212.262637 90.76023 202.307827 93.779989 193.843469 99.435692 
C 185.379111 105.091395 178.779677 113.132828 174.883961 122.537919 
C 170.988245 131.94301 169.968597 142.295666 171.954616 152.280057 
C 173.940635 162.264449 178.844457 171.438853 186.042802 178.637198 
C 193.241147 185.835543 202.415551 190.739365 212.399943 192.725384 
C 222.384334 194.711403 232.73699 193.691755 242.142081 189.796039 
C 251.547172 185.900323 259.588605 179.300889 265.244308 170.836531 
C 270.900011 162.372173 273.91977 152.417363 273.91977 142.237366 
" clip-path="url(#pa0a02173b7)" style="fill: none; stroke: #808080; stroke-width: 0.5; stroke-linecap: square"/>
     </g>
     <g id="text_12">
      <!-- 1.00 -->
      <g transform="translate(229.442634 93.494605) scale(0.1 -0.1)">
       <use xlink:href="#Roboto-Thin-31"/>
       <use xlink:href="#Roboto-Thin-2e" x="54.736328"/>
       <use xlink:href="#Roboto-Thin-30" x="76.171875"/>
       <use xlink:href="#Roboto-Thin-30" x="130.908203"/>
      </g>
     </g>
    </g>
    <g id="ytick_6">
     <g id="line2d_13">
      <path d="M 222.442634 77.890946 
C 209.717637 77.890946 197.274126 81.665644 186.693678 88.735273 
C 176.11323 95.804903 167.863938 105.856694 162.994293 117.613057 
C 158.124648 129.369421 156.850088 142.310241 159.332612 154.79073 
C 161.815136 167.271219 167.944912 178.739225 176.942844 187.737156 
C 185.940775 196.735088 197.408781 202.864864 209.88927 205.347388 
C 222.369759 207.829912 235.310579 206.555352 247.066943 201.685707 
C 258.823306 196.816062 268.875097 188.56677 275.944727 177.986322 
C 283.014356 167.405874 286.789054 154.962363 286.789054 142.237366 
" clip-path="url(#pa0a02173b7)" style="fill: none; stroke: #808080; stroke-width: 0.5; stroke-linecap: square"/>
     </g>
     <g id="text_13">
      <!-- 1.25 -->
      <g transform="translate(229.442634 80.625321) scale(0.1 -0.1)">
       <use xlink:href="#Roboto-Thin-31"/>
       <use xlink:href="#Roboto-Thin-2e" x="54.736328"/>
       <use xlink:href="#Roboto-Thin-32" x="76.171875"/>
       <use xlink:href="#Roboto-Thin-35" x="130.908203"/>
      </g>
     </g>
    </g>
    <g id="ytick_7">
     <g id="line2d_14">
      <path d="M 222.442634 65.021662 
C 207.172638 65.021662 192.240424 69.5513 179.543887 78.034855 
C 166.84735 86.51841 156.948199 98.580559 151.104625 112.688196 
C 145.261051 126.795832 143.731579 142.324816 146.710608 157.301403 
C 149.689636 172.27799 157.045368 186.039597 167.842886 196.837114 
C 178.640403 207.634632 192.40201 214.990364 207.378597 217.969392 
C 222.355184 220.948421 237.884168 219.418949 251.991804 213.575375 
C 266.099441 207.731801 278.16159 197.83265 286.645145 185.136113 
C 295.1287 172.439576 299.658338 157.507362 299.658338 142.237366 
" clip-path="url(#pa0a02173b7)" style="fill: none; stroke: #808080; stroke-width: 0.5; stroke-linecap: square"/>
     </g>
     <g id="text_14">
      <!-- 1.50 -->
      <g transform="translate(229.442634 67.756037) scale(0.1 -0.1)">
       <use xlink:href="#Roboto-Thin-31"/>
       <use xlink:href="#Roboto-Thin-2e" x="54.736328"/>
       <use xlink:href="#Roboto-Thin-35" x="76.171875"/>
       <use xlink:href="#Roboto-Thin-30" x="130.908203"/>
      </g>
     </g>
    </g>
    <g id="ytick_8">
     <g id="line2d_15">
      <path d="M 222.442634 52.152378 
C 204.627639 52.152378 187.206723 57.436955 172.394096 67.334436 
C 157.581469 77.231917 146.03246 91.304425 139.214957 107.763334 
C 132.397454 124.222243 130.61307 142.339391 134.088603 159.812076 
C 137.564136 177.28476 146.145824 193.339969 158.742928 205.937072 
C 171.340031 218.534176 187.39524 227.115864 204.867924 230.591397 
C 222.340609 234.06693 240.457757 232.282546 256.916666 225.465043 
C 273.375575 218.64754 287.448083 207.098531 297.345564 192.285904 
C 307.243045 177.473277 312.527622 160.052361 312.527622 142.237366 
" clip-path="url(#pa0a02173b7)" style="fill: none; stroke: #808080; stroke-width: 0.5; stroke-linecap: square"/>
     </g>
     <g id="text_15">
      <!-- 1.75 -->
      <g transform="translate(229.442634 54.886753) scale(0.1 -0.1)">
       <use xlink:href="#Roboto-Thin-31"/>
       <use xlink:href="#Roboto-Thin-2e" x="54.736328"/>
       <use xlink:href="#Roboto-Thin-37" x="76.171875"/>
       <use xlink:href="#Roboto-Thin-35" x="130.908203"/>
      </g>
     </g>
    </g>
    <g id="ytick_9">
     <g id="line2d_16">
      <path d="M 222.442634 39.283094 
C 202.082639 39.283094 182.173021 45.322611 165.244305 56.634018 
C 148.315588 67.945424 135.116721 84.02829 127.325289 102.838472 
C 119.533856 121.648654 117.494561 142.353966 121.466599 162.322748 
C 125.438637 182.291531 135.24628 200.64034 149.64297 215.03703 
C 164.03966 229.43372 182.388469 239.241363 202.357252 243.213401 
C 222.326034 247.185439 243.031346 245.146144 261.841528 237.354711 
C 280.65171 229.563279 296.734576 216.364412 308.045982 199.435695 
C 319.357389 182.506979 325.396906 162.597361 325.396906 142.237366 
" clip-path="url(#pa0a02173b7)" style="fill: none; stroke: #808080; stroke-width: 0.5; stroke-linecap: square"/>
     </g>
     <g id="text_16">
      <!-- 2.00 -->
      <g transform="translate(229.442634 42.017469) scale(0.1 -0.1)">
       <use xlink:href="#Roboto-Thin-32"/>
       <use xlink:href="#Roboto-Thin-2e" x="54.736328"/>
       <use xlink:href="#Roboto-Thin-30" x="76.171875"/>
       <use xlink:href="#Roboto-Thin-30" x="130.908203"/>
      </g>
     </g>
    </g>
   </g>
   <g id="patch_3">
    <path d="M 222.442634 34.56 
C 201.148611 34.56 180.325626 40.876583 162.620294 52.706908 
C 144.914962 64.537233 131.110588 81.357911 122.961719 101.031022 
C 114.812849 120.704133 112.68 142.359315 116.834258 163.244178 
C 120.988515 184.129042 131.24609 203.319615 146.303238 218.376762 
C 161.360385 233.43391 180.550958 243.691485 201.435822 247.845742 
C 222.320685 252 243.975867 249.867151 263.648978 241.718281 
C 283.322089 233.569412 300.142767 219.765038 311.973092 202.059706 
C 323.803417 184.354374 330.12 163.531389 330.12 142.237366 
" style="fill: none; stroke: #000000; stroke-width: 0.8; stroke-linejoin: miter; stroke-linecap: square"/>
   </g>
   <g id="patch_4">
    <path d="M 222.442634 142.237366 
L 222.442634 34.56 
" style="fill: none; stroke: #000000; stroke-width: 0.8; stroke-linejoin: miter; stroke-linecap: square"/>
   </g>
   <g id="patch_5">
    <path d="M 222.442634 142.237366 
L 330.12 142.237366 
" style="fill: none; stroke: #000000; stroke-width: 0.8; stroke-linejoin: miter; stroke-linecap: square"/>
   </g>
  </g>
 </g>
 <defs>
  <clipPath id="pa0a02173b7">
   <path d="M 222.442634 34.56 
C 201.148611 34.56 180.325626 40.876583 162.620294 52.706908 
C 144.914962 64.537233 131.110588 81.357911 122.961719 101.031022 
C 114.812849 120.704133 112.68 142.359315 116.834258 163.244178 
C 120.988515 184.129042 131.24609 203.319615 146.303238 218.376762 
C 161.360385 233.43391 180.550958 243.691485 201.435822 247.845742 
C 222.320685 252 243.975867 249.867151 263.648978 241.718281 
C 283.322089 233.569412 300.142767 219.765038 311.973092 202.059706 
C 323.803417 184.354374 330.12 163.531389 330.12 142.237366 
L 222.442634 142.237366 
C 222.442634 142.237366 222.442634 142.237366 222.442634 142.237366 
C 222.442634 142.237366 222.442634 142.237366 222.442634 142.237366 
C 222.442634 142.237366 222.442634 142.237366 222.442634 142.237366 
C 222.442634 142.237366 222.442634 142.237366 222.442634 142.237366 
C 222.442634 142.237366 222.442634 142.237366 222.442634 142.237366 
C 222.442634 142.237366 222.442634 142.237366 222.442634 142.237366 
C 222.442634 142.237366 222.442634 142.237366 222.442634 142.237366 
C 222.442634 142.237366 222.442634 142.237366 222.442634 142.237366 
z
"/>
  </clipPath>
 </defs>
</svg>
