<?xml version="1.0" encoding="utf-8" standalone="no"?>
<!DOCTYPE svg PUBLIC "-//W3C//DTD SVG 1.1//EN"
  "http://www.w3.org/Graphics/SVG/1.1/DTD/svg11.dtd">
<svg xmlns:xlink="http://www.w3.org/1999/xlink" width="432pt" height="288pt" viewBox="0 0 432 288" xmlns="http://www.w3.org/2000/svg" version="1.1">
 <metadata>
  <rdf:RDF xmlns:dc="http://purl.org/dc/elements/1.1/" xmlns:cc="http://creativecommons.org/ns#" xmlns:rdf="http://www.w3.org/1999/02/22-rdf-syntax-ns#">
   <cc:Work>
    <dc:type rdf:resource="http://purl.org/dc/dcmitype/StillImage"/>
    <dc:date>2024-07-29T21:41:57.695699</dc:date>
    <dc:format>image/svg+xml</dc:format>
    <dc:creator>
     <cc:Agent>
      <dc:title>Matplotlib v3.9.1, https://matplotlib.org/</dc:title>
     </cc:Agent>
    </dc:creator>
   </cc:Work>
  </rdf:RDF>
 </metadata>
 <defs>
  <style type="text/css">*{stroke-linejoin: round; stroke-linecap: butt}</style>
 </defs>
 <g id="figure_1">
  <g id="patch_1">
   <path d="M 0 288 
L 432 288 
L 432 0 
L 0 0 
z
" style="fill: #ffffff"/>
  </g>
  <g id="axes_1">
   <g id="patch_2">
    <path d="M 66.4 153.613333 
C 69.140432 153.613333 71.768992 152.524548 73.70677 150.58677 
C 75.644548 148.648992 76.733333 146.020432 76.733333 143.28 
C 76.733333 140.539568 75.644548 137.911008 73.70677 135.97323 
C 71.768992 134.035452 69.140432 132.946667 66.4 132.946667 
C 63.659568 132.946667 61.031008 134.035452 59.09323 135.97323 
C 57.155452 137.911008 56.066667 140.539568 56.066667 143.28 
C 56.066667 146.020432 57.155452 148.648992 59.09323 150.58677 
C 61.031008 152.524548 63.659568 153.613333 66.4 153.613333 
z
" clip-path="url(#pba3d9252f1)" style="fill: #313695; stroke: #ffffff; stroke-linejoin: miter"/>
   </g>
   <g id="patch_3">
    <path d="M 87.066667 153.613333 
C 89.807099 153.613333 92.435659 152.524548 94.373437 150.58677 
C 96.311215 148.648992 97.4 146.020432 97.4 143.28 
C 97.4 140.539568 96.311215 137.911008 94.373437 135.97323 
C 92.435659 134.035452 89.807099 132.946667 87.066667 132.946667 
C 84.326235 132.946667 81.697675 134.035452 79.759897 135.97323 
C 77.822119 137.911008 76.733333 140.539568 76.733333 143.28 
C 76.733333 146.020432 77.822119 148.648992 79.759897 150.58677 
C 81.697675 152.524548 84.326235 153.613333 87.066667 153.613333 
z
" clip-path="url(#pba3d9252f1)" style="fill: #3f62ab; stroke: #ffffff; stroke-linejoin: miter"/>
   </g>
   <g id="patch_4">
    <path d="M 107.733333 153.613333 
C 110.473765 153.613333 113.102325 152.524548 115.040103 150.58677 
C 116.977881 148.648992 118.066667 146.020432 118.066667 143.28 
C 118.066667 140.539568 116.977881 137.911008 115.040103 135.97323 
C 113.102325 134.035452 110.473765 132.946667 107.733333 132.946667 
C 104.992901 132.946667 102.364341 134.035452 100.426563 135.97323 
C 98.488785 137.911008 97.4 140.539568 97.4 143.28 
C 97.4 146.020432 98.488785 148.648992 100.426563 150.58677 
C 102.364341 152.524548 104.992901 153.613333 107.733333 153.613333 
z
" clip-path="url(#pba3d9252f1)" style="fill: #588cc0; stroke: #ffffff; stroke-linejoin: miter"/>
   </g>
   <g id="patch_5">
    <path d="M 128.4 153.613333 
C 131.140432 153.613333 133.768992 152.524548 135.70677 150.58677 
C 137.644548 148.648992 138.733333 146.020432 138.733333 143.28 
C 138.733333 140.539568 137.644548 137.911008 135.70677 135.97323 
C 133.768992 134.035452 131.140432 132.946667 128.4 132.946667 
C 125.659568 132.946667 123.031008 134.035452 121.09323 135.97323 
C 119.155452 137.911008 118.066667 140.539568 118.066667 143.28 
C 118.066667 146.020432 119.155452 148.648992 121.09323 150.58677 
C 123.031008 152.524548 125.659568 153.613333 128.4 153.613333 
z
" clip-path="url(#pba3d9252f1)" style="fill: #7ab2d4; stroke: #ffffff; stroke-linejoin: miter"/>
   </g>
   <g id="patch_6">
    <path d="M 149.066667 153.613333 
C 151.807099 153.613333 154.435659 152.524548 156.373437 150.58677 
C 158.311215 148.648992 159.4 146.020432 159.4 143.28 
C 159.4 140.539568 158.311215 137.911008 156.373437 135.97323 
C 154.435659 134.035452 151.807099 132.946667 149.066667 132.946667 
C 146.326235 132.946667 143.697675 134.035452 141.759897 135.97323 
C 139.822119 137.911008 138.733333 140.539568 138.733333 143.28 
C 138.733333 146.020432 139.822119 148.648992 141.759897 150.58677 
C 143.697675 152.524548 146.326235 153.613333 149.066667 153.613333 
z
" clip-path="url(#pba3d9252f1)" style="fill: #a3d3e6; stroke: #ffffff; stroke-linejoin: miter"/>
   </g>
   <g id="patch_7">
    <path d="M 169.733333 153.613333 
C 172.473765 153.613333 175.102325 152.524548 177.040103 150.58677 
C 178.977881 148.648992 180.066667 146.020432 180.066667 143.28 
C 180.066667 140.539568 178.977881 137.911008 177.040103 135.97323 
C 175.102325 134.035452 172.473765 132.946667 169.733333 132.946667 
C 166.992901 132.946667 164.364341 134.035452 162.426563 135.97323 
C 160.488785 137.911008 159.4 140.539568 159.4 143.28 
C 159.4 146.020432 160.488785 148.648992 162.426563 150.58677 
C 164.364341 152.524548 166.992901 153.613333 169.733333 153.613333 
z
" clip-path="url(#pba3d9252f1)" style="fill: #c9e8f2; stroke: #ffffff; stroke-linejoin: miter"/>
   </g>
   <g id="patch_8">
    <path d="M 190.4 153.613333 
C 193.140432 153.613333 195.768992 152.524548 197.70677 150.58677 
C 199.644548 148.648992 200.733333 146.020432 200.733333 143.28 
C 200.733333 140.539568 199.644548 137.911008 197.70677 135.97323 
C 195.768992 134.035452 193.140432 132.946667 190.4 132.946667 
C 187.659568 132.946667 185.031008 134.035452 183.09323 135.97323 
C 181.155452 137.911008 180.066667 140.539568 180.066667 143.28 
C 180.066667 146.020432 181.155452 148.648992 183.09323 150.58677 
C 185.031008 152.524548 187.659568 153.613333 190.4 153.613333 
z
" clip-path="url(#pba3d9252f1)" style="fill: #e9f6e8; stroke: #ffffff; stroke-linejoin: miter"/>
   </g>
   <g id="patch_9">
    <path d="M 211.066667 153.613333 
C 213.807099 153.613333 216.435659 152.524548 218.373437 150.58677 
C 220.311215 148.648992 221.4 146.020432 221.4 143.28 
C 221.4 140.539568 220.311215 137.911008 218.373437 135.97323 
C 216.435659 134.035452 213.807099 132.946667 211.066667 132.946667 
C 208.326235 132.946667 205.697675 134.035452 203.759897 135.97323 
C 201.822119 137.911008 200.733333 140.539568 200.733333 143.28 
C 200.733333 146.020432 201.822119 148.648992 203.759897 150.58677 
C 205.697675 152.524548 208.326235 153.613333 211.066667 153.613333 
z
" clip-path="url(#pba3d9252f1)" style="fill: #fffebe; stroke: #ffffff; stroke-linejoin: miter"/>
   </g>
   <g id="patch_10">
    <path d="M 231.733333 153.613333 
C 234.473765 153.613333 237.102325 152.524548 239.040103 150.58677 
C 240.977881 148.648992 242.066667 146.020432 242.066667 143.28 
C 242.066667 140.539568 240.977881 137.911008 239.040103 135.97323 
C 237.102325 134.035452 234.473765 132.946667 231.733333 132.946667 
C 228.992901 132.946667 226.364341 134.035452 224.426563 135.97323 
C 222.488785 137.911008 221.4 140.539568 221.4 143.28 
C 221.4 146.020432 222.488785 148.648992 224.426563 150.58677 
C 226.364341 152.524548 228.992901 153.613333 231.733333 153.613333 
z
" clip-path="url(#pba3d9252f1)" style="fill: #fee99d; stroke: #ffffff; stroke-linejoin: miter"/>
   </g>
   <g id="patch_11">
    <path d="M 252.4 153.613333 
C 255.140432 153.613333 257.768992 152.524548 259.70677 150.58677 
C 261.644548 148.648992 262.733333 146.020432 262.733333 143.28 
C 262.733333 140.539568 261.644548 137.911008 259.70677 135.97323 
C 257.768992 134.035452 255.140432 132.946667 252.4 132.946667 
C 249.659568 132.946667 247.031008 134.035452 245.09323 135.97323 
C 243.155452 137.911008 242.066667 140.539568 242.066667 143.28 
C 242.066667 146.020432 243.155452 148.648992 245.09323 150.58677 
C 247.031008 152.524548 249.659568 153.613333 252.4 153.613333 
z
" clip-path="url(#pba3d9252f1)" style="fill: #feca7c; stroke: #ffffff; stroke-linejoin: miter"/>
   </g>
   <g id="patch_12">
    <path d="M 273.066667 153.613333 
C 275.807099 153.613333 278.435659 152.524548 280.373437 150.58677 
C 282.311215 148.648992 283.4 146.020432 283.4 143.28 
C 283.4 140.539568 282.311215 137.911008 280.373437 135.97323 
C 278.435659 134.035452 275.807099 132.946667 273.066667 132.946667 
C 270.326235 132.946667 267.697675 134.035452 265.759897 135.97323 
C 263.822119 137.911008 262.733333 140.539568 262.733333 143.28 
C 262.733333 146.020432 263.822119 148.648992 265.759897 150.58677 
C 267.697675 152.524548 270.326235 153.613333 273.066667 153.613333 
z
" clip-path="url(#pba3d9252f1)" style="fill: #fca55d; stroke: #ffffff; stroke-linejoin: miter"/>
   </g>
   <g id="patch_13">
    <path d="M 293.733333 153.613333 
C 296.473765 153.613333 299.102325 152.524548 301.040103 150.58677 
C 302.977881 148.648992 304.066667 146.020432 304.066667 143.28 
C 304.066667 140.539568 302.977881 137.911008 301.040103 135.97323 
C 299.102325 134.035452 296.473765 132.946667 293.733333 132.946667 
C 290.992901 132.946667 288.364341 134.035452 286.426563 135.97323 
C 284.488785 137.911008 283.4 140.539568 283.4 143.28 
C 283.4 146.020432 284.488785 148.648992 286.426563 150.58677 
C 288.364341 152.524548 290.992901 153.613333 293.733333 153.613333 
z
" clip-path="url(#pba3d9252f1)" style="fill: #f57547; stroke: #ffffff; stroke-linejoin: miter"/>
   </g>
   <g id="patch_14">
    <path d="M 314.4 153.613333 
C 317.140432 153.613333 319.768992 152.524548 321.70677 150.58677 
C 323.644548 148.648992 324.733333 146.020432 324.733333 143.28 
C 324.733333 140.539568 323.644548 137.911008 321.70677 135.97323 
C 319.768992 134.035452 317.140432 132.946667 314.4 132.946667 
C 311.659568 132.946667 309.031008 134.035452 307.09323 135.97323 
C 305.155452 137.911008 304.066667 140.539568 304.066667 143.28 
C 304.066667 146.020432 305.155452 148.648992 307.09323 150.58677 
C 309.031008 152.524548 311.659568 153.613333 314.4 153.613333 
z
" clip-path="url(#pba3d9252f1)" style="fill: #e34933; stroke: #ffffff; stroke-linejoin: miter"/>
   </g>
   <g id="patch_15">
    <path d="M 335.066667 153.613333 
C 337.807099 153.613333 340.435659 152.524548 342.373437 150.58677 
C 344.311215 148.648992 345.4 146.020432 345.4 143.28 
C 345.4 140.539568 344.311215 137.911008 342.373437 135.97323 
C 340.435659 134.035452 337.807099 132.946667 335.066667 132.946667 
C 332.326235 132.946667 329.697675 134.035452 327.759897 135.97323 
C 325.822119 137.911008 324.733333 140.539568 324.733333 143.28 
C 324.733333 146.020432 325.822119 148.648992 327.759897 150.58677 
C 329.697675 152.524548 332.326235 153.613333 335.066667 153.613333 
z
" clip-path="url(#pba3d9252f1)" style="fill: #c82227; stroke: #ffffff; stroke-linejoin: miter"/>
   </g>
   <g id="patch_16">
    <path d="M 355.733333 153.613333 
C 358.473765 153.613333 361.102325 152.524548 363.040103 150.58677 
C 364.977881 148.648992 366.066667 146.020432 366.066667 143.28 
C 366.066667 140.539568 364.977881 137.911008 363.040103 135.97323 
C 361.102325 134.035452 358.473765 132.946667 355.733333 132.946667 
C 352.992901 132.946667 350.364341 134.035452 348.426563 135.97323 
C 346.488785 137.911008 345.4 140.539568 345.4 143.28 
C 345.4 146.020432 346.488785 148.648992 348.426563 150.58677 
C 350.364341 152.524548 352.992901 153.613333 355.733333 153.613333 
z
" clip-path="url(#pba3d9252f1)" style="fill: #a50026; stroke: #ffffff; stroke-linejoin: miter"/>
   </g>
   <g id="text_1">
    <!-- -7 -->
    <g transform="translate(62.18125 146.014375) scale(0.1 -0.1)">
     <defs>
      <path id="Roboto-Thin-2d" d="M 1659 2166 
L 1659 1997 
L 191 1997 
L 191 2166 
L 1659 2166 
z
" transform="scale(0.015625)"/>
      <path id="Roboto-Thin-37" d="M 3147 4550 
L 3147 4444 
L 1144 0 
L 972 0 
L 2953 4381 
L 241 4381 
L 241 4550 
L 3147 4550 
z
" transform="scale(0.015625)"/>
     </defs>
     <use xlink:href="#Roboto-Thin-2d"/>
     <use xlink:href="#Roboto-Thin-37" x="29.638672"/>
    </g>
   </g>
   <g id="text_2">
    <!-- -6 -->
    <g transform="translate(82.847917 146.014375) scale(0.1 -0.1)">
     <defs>
      <path id="Roboto-Thin-36" d="M 3166 1500 
Q 3166 838 2808 387 
Q 2450 -63 1881 -63 
Q 1250 -63 825 368 
Q 400 800 400 1538 
L 400 2063 
Q 400 2969 695 3531 
Q 991 4094 1483 4353 
Q 1975 4613 2566 4613 
L 2625 4613 
L 2625 4444 
Q 1431 4444 894 3547 
Q 603 3066 572 2291 
Q 744 2591 1078 2791 
Q 1413 2991 1850 2991 
Q 2478 2991 2822 2567 
Q 3166 2144 3166 1500 
z
M 569 1541 
Q 569 888 937 495 
Q 1306 103 1881 103 
Q 2394 103 2695 525 
Q 2997 947 2997 1500 
Q 2997 2053 2706 2437 
Q 2416 2822 1828 2822 
Q 1391 2822 1025 2570 
Q 659 2319 569 1944 
L 569 1541 
z
" transform="scale(0.015625)"/>
     </defs>
     <use xlink:href="#Roboto-Thin-2d"/>
     <use xlink:href="#Roboto-Thin-36" x="29.638672"/>
    </g>
   </g>
   <g id="text_3">
    <!-- -5 -->
    <g transform="translate(103.514583 146.014375) scale(0.1 -0.1)">
     <defs>
      <path id="Roboto-Thin-35" d="M 850 2331 
L 722 2381 
L 934 4550 
L 3153 4550 
L 3153 4384 
L 1088 4384 
L 903 2559 
Q 1016 2656 1277 2759 
Q 1538 2863 1856 2863 
Q 2444 2863 2822 2489 
Q 3200 2116 3200 1450 
Q 3200 797 2903 367 
Q 2606 -63 1919 -63 
Q 1384 -63 1001 246 
Q 619 556 569 1197 
L 741 1197 
Q 841 106 1919 106 
Q 3028 106 3028 1444 
Q 3028 1978 2726 2336 
Q 2425 2694 1859 2694 
Q 1500 2694 1264 2595 
Q 1028 2497 850 2331 
z
" transform="scale(0.015625)"/>
     </defs>
     <use xlink:href="#Roboto-Thin-2d"/>
     <use xlink:href="#Roboto-Thin-35" x="29.638672"/>
    </g>
   </g>
   <g id="text_4">
    <!-- -4 -->
    <g transform="translate(124.18125 146.014375) scale(0.1 -0.1)">
     <defs>
      <path id="Roboto-Thin-34" d="M 256 1334 
L 2428 4550 
L 2631 4550 
L 2631 1409 
L 3419 1409 
L 3419 1241 
L 2631 1241 
L 2631 0 
L 2463 0 
L 2463 1241 
L 256 1241 
L 256 1334 
z
M 519 1409 
L 2463 1409 
L 2463 4350 
L 2200 3916 
L 519 1409 
z
" transform="scale(0.015625)"/>
     </defs>
     <use xlink:href="#Roboto-Thin-2d"/>
     <use xlink:href="#Roboto-Thin-34" x="29.638672"/>
    </g>
   </g>
   <g id="text_5">
    <!-- -3 -->
    <g transform="translate(144.847917 146.014375) scale(0.1 -0.1)">
     <defs>
      <path id="Roboto-Thin-33" d="M 1303 2231 
L 1303 2406 
L 1663 2406 
Q 2253 2409 2565 2704 
Q 2878 3000 2878 3391 
Q 2878 3819 2611 4131 
Q 2344 4444 1763 4444 
Q 1269 4444 928 4153 
Q 588 3863 588 3356 
L 419 3356 
Q 419 3941 816 4277 
Q 1213 4613 1763 4613 
Q 2350 4613 2698 4283 
Q 3047 3953 3047 3378 
Q 3047 3019 2820 2734 
Q 2594 2450 2197 2328 
Q 2644 2225 2895 1939 
Q 3147 1653 3147 1206 
Q 3147 600 2762 268 
Q 2378 -63 1791 -63 
Q 1450 -63 1111 78 
Q 772 219 547 512 
Q 322 806 322 1266 
L 491 1266 
Q 491 759 862 432 
Q 1234 106 1791 106 
Q 2356 106 2667 395 
Q 2978 684 2978 1194 
Q 2978 1750 2604 1990 
Q 2231 2231 1650 2231 
L 1303 2231 
z
" transform="scale(0.015625)"/>
     </defs>
     <use xlink:href="#Roboto-Thin-2d"/>
     <use xlink:href="#Roboto-Thin-33" x="29.638672"/>
    </g>
   </g>
   <g id="text_6">
    <!-- -2 -->
    <g transform="translate(165.514583 146.014375) scale(0.1 -0.1)">
     <defs>
      <path id="Roboto-Thin-32" d="M 3200 169 
L 3200 0 
L 478 0 
L 478 169 
L 2047 1978 
Q 2784 2856 2784 3391 
Q 2784 3875 2503 4159 
Q 2222 4444 1675 4444 
Q 1184 4444 859 4108 
Q 534 3772 534 3266 
L 366 3266 
Q 366 3819 730 4216 
Q 1094 4613 1675 4613 
Q 2263 4613 2609 4300 
Q 2956 3988 2956 3391 
Q 2956 2969 2657 2536 
Q 2359 2103 1997 1681 
L 700 169 
L 3200 169 
z
" transform="scale(0.015625)"/>
     </defs>
     <use xlink:href="#Roboto-Thin-2d"/>
     <use xlink:href="#Roboto-Thin-32" x="29.638672"/>
    </g>
   </g>
   <g id="text_7">
    <!-- -1 -->
    <g transform="translate(186.18125 146.014375) scale(0.1 -0.1)">
     <defs>
      <path id="Roboto-Thin-31" d="M 2059 4563 
L 2059 0 
L 1891 0 
L 1891 4338 
L 584 3847 
L 584 4031 
L 2025 4563 
L 2059 4563 
z
" transform="scale(0.015625)"/>
     </defs>
     <use xlink:href="#Roboto-Thin-2d"/>
     <use xlink:href="#Roboto-Thin-31" x="29.638672"/>
    </g>
   </g>
   <g id="text_8">
    <!-- 0 -->
    <g transform="translate(208.329948 146.014375) scale(0.1 -0.1)">
     <defs>
      <path id="Roboto-Thin-30" d="M 3113 1856 
Q 3113 966 2766 451 
Q 2419 -63 1756 -63 
Q 1103 -63 747 451 
Q 391 966 391 1856 
L 391 2694 
Q 391 3584 742 4100 
Q 1094 4616 1750 4616 
Q 2409 4616 2761 4100 
Q 3113 3584 3113 2694 
L 3113 1856 
z
M 2944 2694 
Q 2944 3475 2650 3961 
Q 2356 4447 1750 4447 
Q 1147 4447 853 3961 
Q 559 3475 559 2694 
L 559 1863 
Q 559 1094 856 600 
Q 1153 106 1756 106 
Q 2363 106 2653 600 
Q 2944 1094 2944 1863 
L 2944 2694 
z
" transform="scale(0.015625)"/>
     </defs>
     <use xlink:href="#Roboto-Thin-30"/>
    </g>
   </g>
   <g id="text_9">
    <!-- 1 -->
    <g transform="translate(228.996615 146.014375) scale(0.1 -0.1)">
     <use xlink:href="#Roboto-Thin-31"/>
    </g>
   </g>
   <g id="text_10">
    <!-- 2 -->
    <g transform="translate(249.663281 146.014375) scale(0.1 -0.1)">
     <use xlink:href="#Roboto-Thin-32"/>
    </g>
   </g>
   <g id="text_11">
    <!-- 3 -->
    <g transform="translate(270.329948 146.014375) scale(0.1 -0.1)">
     <use xlink:href="#Roboto-Thin-33"/>
    </g>
   </g>
   <g id="text_12">
    <!-- 4 -->
    <g transform="translate(290.996615 146.014375) scale(0.1 -0.1)">
     <use xlink:href="#Roboto-Thin-34"/>
    </g>
   </g>
   <g id="text_13">
    <!-- 5 -->
    <g transform="translate(311.663281 146.014375) scale(0.1 -0.1)">
     <use xlink:href="#Roboto-Thin-35"/>
    </g>
   </g>
   <g id="text_14">
    <!-- 6 -->
    <g transform="translate(332.329948 146.014375) scale(0.1 -0.1)">
     <use xlink:href="#Roboto-Thin-36"/>
    </g>
   </g>
   <g id="text_15">
    <!-- 7 -->
    <g transform="translate(352.996615 146.014375) scale(0.1 -0.1)">
     <use xlink:href="#Roboto-Thin-37"/>
    </g>
   </g>
  </g>
 </g>
 <defs>
  <clipPath id="pba3d9252f1">
   <rect x="54" y="130.88" width="334.8" height="24.8"/>
  </clipPath>
 </defs>
</svg>
