<?xml version="1.0" encoding="utf-8" standalone="no"?>
<!DOCTYPE svg PUBLIC "-//W3C//DTD SVG 1.1//EN"
  "http://www.w3.org/Graphics/SVG/1.1/DTD/svg11.dtd">
<svg xmlns:xlink="http://www.w3.org/1999/xlink" width="432pt" height="288pt" viewBox="0 0 432 288" xmlns="http://www.w3.org/2000/svg" version="1.1">
 <metadata>
  <rdf:RDF xmlns:dc="http://purl.org/dc/elements/1.1/" xmlns:cc="http://creativecommons.org/ns#" xmlns:rdf="http://www.w3.org/1999/02/22-rdf-syntax-ns#">
   <cc:Work>
    <dc:type rdf:resource="http://purl.org/dc/dcmitype/StillImage"/>
    <dc:date>2024-07-29T21:41:58.092543</dc:date>
    <dc:format>image/svg+xml</dc:format>
    <dc:creator>
     <cc:Agent>
      <dc:title>Matplotlib v3.9.1, https://matplotlib.org/</dc:title>
     </cc:Agent>
    </dc:creator>
   </cc:Work>
  </rdf:RDF>
 </metadata>
 <defs>
  <style type="text/css">*{stroke-linejoin: round; stroke-linecap: butt}</style>
 </defs>
 <g id="figure_1">
  <g id="patch_1">
   <path d="M 0 288 
L 432 288 
L 432 0 
L 0 0 
z
" style="fill: #ffffff"/>
  </g>
  <g id="axes_1">
   <g id="patch_2">
    <path d="M 61.123404 149.21617 
C 62.697695 149.21617 64.207719 148.590698 65.32091 147.477506 
C 66.434102 146.364315 67.059574 144.854291 67.059574 143.28 
C 67.059574 141.705709 66.434102 140.195685 65.32091 139.082494 
C 64.207719 137.969302 62.697695 137.34383 61.123404 137.34383 
C 59.549114 137.34383 58.03909 137.969302 56.925898 139.082494 
C 55.812706 140.195685 55.187234 141.705709 55.187234 143.28 
C 55.187234 144.854291 55.812706 146.364315 56.925898 147.477506 
C 58.03909 148.590698 59.549114 149.21617 61.123404 149.21617 
z
" clip-path="url(#pf6094be244)" style="fill: #313695; stroke: #ffffff; stroke-linejoin: miter"/>
   </g>
   <g id="patch_3">
    <path d="M 72.995745 149.21617 
C 74.570035 149.21617 76.080059 148.590698 77.193251 147.477506 
C 78.306443 146.364315 78.931915 144.854291 78.931915 143.28 
C 78.931915 141.705709 78.306443 140.195685 77.193251 139.082494 
C 76.080059 137.969302 74.570035 137.34383 72.995745 137.34383 
C 71.421454 137.34383 69.91143 137.969302 68.798238 139.082494 
C 67.685047 140.195685 67.059574 141.705709 67.059574 143.28 
C 67.059574 144.854291 67.685047 146.364315 68.798238 147.477506 
C 69.91143 148.590698 71.421454 149.21617 72.995745 149.21617 
z
" clip-path="url(#pf6094be244)" style="fill: #384ca0; stroke: #ffffff; stroke-linejoin: miter"/>
   </g>
   <g id="patch_4">
    <path d="M 84.868085 149.21617 
C 86.442376 149.21617 87.9524 148.590698 89.065591 147.477506 
C 90.178783 146.364315 90.804255 144.854291 90.804255 143.28 
C 90.804255 141.705709 90.178783 140.195685 89.065591 139.082494 
C 87.9524 137.969302 86.442376 137.34383 84.868085 137.34383 
C 83.293794 137.34383 81.783771 137.969302 80.670579 139.082494 
C 79.557387 140.195685 78.931915 141.705709 78.931915 143.28 
C 78.931915 144.854291 79.557387 146.364315 80.670579 147.477506 
C 81.783771 148.590698 83.293794 149.21617 84.868085 149.21617 
z
" clip-path="url(#pf6094be244)" style="fill: #4065ac; stroke: #ffffff; stroke-linejoin: miter"/>
   </g>
   <g id="patch_5">
    <path d="M 96.740426 149.21617 
C 98.314716 149.21617 99.82474 148.590698 100.937932 147.477506 
C 102.051123 146.364315 102.676596 144.854291 102.676596 143.28 
C 102.676596 141.705709 102.051123 140.195685 100.937932 139.082494 
C 99.82474 137.969302 98.314716 137.34383 96.740426 137.34383 
C 95.166135 137.34383 93.656111 137.969302 92.542919 139.082494 
C 91.429728 140.195685 90.804255 141.705709 90.804255 143.28 
C 90.804255 144.854291 91.429728 146.364315 92.542919 147.477506 
C 93.656111 148.590698 95.166135 149.21617 96.740426 149.21617 
z
" clip-path="url(#pf6094be244)" style="fill: #4b7db8; stroke: #ffffff; stroke-linejoin: miter"/>
   </g>
   <g id="patch_6">
    <path d="M 108.612766 149.21617 
C 110.187057 149.21617 111.697081 148.590698 112.810272 147.477506 
C 113.923464 146.364315 114.548936 144.854291 114.548936 143.28 
C 114.548936 141.705709 113.923464 140.195685 112.810272 139.082494 
C 111.697081 137.969302 110.187057 137.34383 108.612766 137.34383 
C 107.038475 137.34383 105.528451 137.969302 104.41526 139.082494 
C 103.302068 140.195685 102.676596 141.705709 102.676596 143.28 
C 102.676596 144.854291 103.302068 146.364315 104.41526 147.477506 
C 105.528451 148.590698 107.038475 149.21617 108.612766 149.21617 
z
" clip-path="url(#pf6094be244)" style="fill: #5e93c3; stroke: #ffffff; stroke-linejoin: miter"/>
   </g>
   <g id="patch_7">
    <path d="M 120.485106 149.21617 
C 122.059397 149.21617 123.569421 148.590698 124.682613 147.477506 
C 125.795804 146.364315 126.421277 144.854291 126.421277 143.28 
C 126.421277 141.705709 125.795804 140.195685 124.682613 139.082494 
C 123.569421 137.969302 122.059397 137.34383 120.485106 137.34383 
C 118.910816 137.34383 117.400792 137.969302 116.2876 139.082494 
C 115.174409 140.195685 114.548936 141.705709 114.548936 143.28 
C 114.548936 144.854291 115.174409 146.364315 116.2876 147.477506 
C 117.400792 148.590698 118.910816 149.21617 120.485106 149.21617 
z
" clip-path="url(#pf6094be244)" style="fill: #70a9cf; stroke: #ffffff; stroke-linejoin: miter"/>
   </g>
   <g id="patch_8">
    <path d="M 132.357447 149.21617 
C 133.931738 149.21617 135.441761 148.590698 136.554953 147.477506 
C 137.668145 146.364315 138.293617 144.854291 138.293617 143.28 
C 138.293617 141.705709 137.668145 140.195685 136.554953 139.082494 
C 135.441761 137.969302 133.931738 137.34383 132.357447 137.34383 
C 130.783156 137.34383 129.273132 137.969302 128.159941 139.082494 
C 127.046749 140.195685 126.421277 141.705709 126.421277 143.28 
C 126.421277 144.854291 127.046749 146.364315 128.159941 147.477506 
C 129.273132 148.590698 130.783156 149.21617 132.357447 149.21617 
z
" clip-path="url(#pf6094be244)" style="fill: #85bbd9; stroke: #ffffff; stroke-linejoin: miter"/>
   </g>
   <g id="patch_9">
    <path d="M 144.229787 149.21617 
C 145.804078 149.21617 147.314102 148.590698 148.427293 147.477506 
C 149.540485 146.364315 150.165957 144.854291 150.165957 143.28 
C 150.165957 141.705709 149.540485 140.195685 148.427293 139.082494 
C 147.314102 137.969302 145.804078 137.34383 144.229787 137.34383 
C 142.655496 137.34383 141.145473 137.969302 140.032281 139.082494 
C 138.919089 140.195685 138.293617 141.705709 138.293617 143.28 
C 138.293617 144.854291 138.919089 146.364315 140.032281 147.477506 
C 141.145473 148.590698 142.655496 149.21617 144.229787 149.21617 
z
" clip-path="url(#pf6094be244)" style="fill: #99cae1; stroke: #ffffff; stroke-linejoin: miter"/>
   </g>
   <g id="patch_10">
    <path d="M 156.102128 149.21617 
C 157.676418 149.21617 159.186442 148.590698 160.299634 147.477506 
C 161.412826 146.364315 162.038298 144.854291 162.038298 143.28 
C 162.038298 141.705709 161.412826 140.195685 160.299634 139.082494 
C 159.186442 137.969302 157.676418 137.34383 156.102128 137.34383 
C 154.527837 137.34383 153.017813 137.969302 151.904621 139.082494 
C 150.79143 140.195685 150.165957 141.705709 150.165957 143.28 
C 150.165957 144.854291 150.79143 146.364315 151.904621 147.477506 
C 153.017813 148.590698 154.527837 149.21617 156.102128 149.21617 
z
" clip-path="url(#pf6094be244)" style="fill: #aedbea; stroke: #ffffff; stroke-linejoin: miter"/>
   </g>
   <g id="patch_11">
    <path d="M 167.974468 149.21617 
C 169.548759 149.21617 171.058783 148.590698 172.171974 147.477506 
C 173.285166 146.364315 173.910638 144.854291 173.910638 143.28 
C 173.910638 141.705709 173.285166 140.195685 172.171974 139.082494 
C 171.058783 137.969302 169.548759 137.34383 167.974468 137.34383 
C 166.400177 137.34383 164.890154 137.969302 163.776962 139.082494 
C 162.66377 140.195685 162.038298 141.705709 162.038298 143.28 
C 162.038298 144.854291 162.66377 146.364315 163.776962 147.477506 
C 164.890154 148.590698 166.400177 149.21617 167.974468 149.21617 
z
" clip-path="url(#pf6094be244)" style="fill: #c3e5f0; stroke: #ffffff; stroke-linejoin: miter"/>
   </g>
   <g id="patch_12">
    <path d="M 179.846809 149.21617 
C 181.421099 149.21617 182.931123 148.590698 184.044315 147.477506 
C 185.157506 146.364315 185.782979 144.854291 185.782979 143.28 
C 185.782979 141.705709 185.157506 140.195685 184.044315 139.082494 
C 182.931123 137.969302 181.421099 137.34383 179.846809 137.34383 
C 178.272518 137.34383 176.762494 137.969302 175.649302 139.082494 
C 174.536111 140.195685 173.910638 141.705709 173.910638 143.28 
C 173.910638 144.854291 174.536111 146.364315 175.649302 147.477506 
C 176.762494 148.590698 178.272518 149.21617 179.846809 149.21617 
z
" clip-path="url(#pf6094be244)" style="fill: #d8eff6; stroke: #ffffff; stroke-linejoin: miter"/>
   </g>
   <g id="patch_13">
    <path d="M 191.719149 149.21617 
C 193.29344 149.21617 194.803463 148.590698 195.916655 147.477506 
C 197.029847 146.364315 197.655319 144.854291 197.655319 143.28 
C 197.655319 141.705709 197.029847 140.195685 195.916655 139.082494 
C 194.803463 137.969302 193.29344 137.34383 191.719149 137.34383 
C 190.144858 137.34383 188.634834 137.969302 187.521643 139.082494 
C 186.408451 140.195685 185.782979 141.705709 185.782979 143.28 
C 185.782979 144.854291 186.408451 146.364315 187.521643 147.477506 
C 188.634834 148.590698 190.144858 149.21617 191.719149 149.21617 
z
" clip-path="url(#pf6094be244)" style="fill: #e7f6eb; stroke: #ffffff; stroke-linejoin: miter"/>
   </g>
   <g id="patch_14">
    <path d="M 203.591489 149.21617 
C 205.16578 149.21617 206.675804 148.590698 207.788996 147.477506 
C 208.902187 146.364315 209.52766 144.854291 209.52766 143.28 
C 209.52766 141.705709 208.902187 140.195685 207.788996 139.082494 
C 206.675804 137.969302 205.16578 137.34383 203.591489 137.34383 
C 202.017199 137.34383 200.507175 137.969302 199.393983 139.082494 
C 198.280791 140.195685 197.655319 141.705709 197.655319 143.28 
C 197.655319 144.854291 198.280791 146.364315 199.393983 147.477506 
C 200.507175 148.590698 202.017199 149.21617 203.591489 149.21617 
z
" clip-path="url(#pf6094be244)" style="fill: #f3fbd4; stroke: #ffffff; stroke-linejoin: miter"/>
   </g>
   <g id="patch_15">
    <path d="M 215.46383 149.21617 
C 217.038121 149.21617 218.548144 148.590698 219.661336 147.477506 
C 220.774528 146.364315 221.4 144.854291 221.4 143.28 
C 221.4 141.705709 220.774528 140.195685 219.661336 139.082494 
C 218.548144 137.969302 217.038121 137.34383 215.46383 137.34383 
C 213.889539 137.34383 212.379515 137.969302 211.266324 139.082494 
C 210.153132 140.195685 209.52766 141.705709 209.52766 143.28 
C 209.52766 144.854291 210.153132 146.364315 211.266324 147.477506 
C 212.379515 148.590698 213.889539 149.21617 215.46383 149.21617 
z
" clip-path="url(#pf6094be244)" style="fill: #fffebe; stroke: #ffffff; stroke-linejoin: miter"/>
   </g>
   <g id="patch_16">
    <path d="M 227.33617 149.21617 
C 228.910461 149.21617 230.420485 148.590698 231.533676 147.477506 
C 232.646868 146.364315 233.27234 144.854291 233.27234 143.28 
C 233.27234 141.705709 232.646868 140.195685 231.533676 139.082494 
C 230.420485 137.969302 228.910461 137.34383 227.33617 137.34383 
C 225.761879 137.34383 224.251856 137.969302 223.138664 139.082494 
C 222.025472 140.195685 221.4 141.705709 221.4 143.28 
C 221.4 144.854291 222.025472 146.364315 223.138664 147.477506 
C 224.251856 148.590698 225.761879 149.21617 227.33617 149.21617 
z
" clip-path="url(#pf6094be244)" style="fill: #fff3ad; stroke: #ffffff; stroke-linejoin: miter"/>
   </g>
   <g id="patch_17">
    <path d="M 239.208511 149.21617 
C 240.782801 149.21617 242.292825 148.590698 243.406017 147.477506 
C 244.519209 146.364315 245.144681 144.854291 245.144681 143.28 
C 245.144681 141.705709 244.519209 140.195685 243.406017 139.082494 
C 242.292825 137.969302 240.782801 137.34383 239.208511 137.34383 
C 237.63422 137.34383 236.124196 137.969302 235.011004 139.082494 
C 233.897813 140.195685 233.27234 141.705709 233.27234 143.28 
C 233.27234 144.854291 233.897813 146.364315 235.011004 147.477506 
C 236.124196 148.590698 237.63422 149.21617 239.208511 149.21617 
z
" clip-path="url(#pf6094be244)" style="fill: #fee79b; stroke: #ffffff; stroke-linejoin: miter"/>
   </g>
   <g id="patch_18">
    <path d="M 251.080851 149.21617 
C 252.655142 149.21617 254.165166 148.590698 255.278357 147.477506 
C 256.391549 146.364315 257.017021 144.854291 257.017021 143.28 
C 257.017021 141.705709 256.391549 140.195685 255.278357 139.082494 
C 254.165166 137.969302 252.655142 137.34383 251.080851 137.34383 
C 249.50656 137.34383 247.996537 137.969302 246.883345 139.082494 
C 245.770153 140.195685 245.144681 141.705709 245.144681 143.28 
C 245.144681 144.854291 245.770153 146.364315 246.883345 147.477506 
C 247.996537 148.590698 249.50656 149.21617 251.080851 149.21617 
z
" clip-path="url(#pf6094be244)" style="fill: #fed889; stroke: #ffffff; stroke-linejoin: miter"/>
   </g>
   <g id="patch_19">
    <path d="M 262.953191 149.21617 
C 264.527482 149.21617 266.037506 148.590698 267.150698 147.477506 
C 268.263889 146.364315 268.889362 144.854291 268.889362 143.28 
C 268.889362 141.705709 268.263889 140.195685 267.150698 139.082494 
C 266.037506 137.969302 264.527482 137.34383 262.953191 137.34383 
C 261.378901 137.34383 259.868877 137.969302 258.755685 139.082494 
C 257.642494 140.195685 257.017021 141.705709 257.017021 143.28 
C 257.017021 144.854291 257.642494 146.364315 258.755685 147.477506 
C 259.868877 148.590698 261.378901 149.21617 262.953191 149.21617 
z
" clip-path="url(#pf6094be244)" style="fill: #fdc576; stroke: #ffffff; stroke-linejoin: miter"/>
   </g>
   <g id="patch_20">
    <path d="M 274.825532 149.21617 
C 276.399823 149.21617 277.909846 148.590698 279.023038 147.477506 
C 280.13623 146.364315 280.761702 144.854291 280.761702 143.28 
C 280.761702 141.705709 280.13623 140.195685 279.023038 139.082494 
C 277.909846 137.969302 276.399823 137.34383 274.825532 137.34383 
C 273.251241 137.34383 271.741217 137.969302 270.628026 139.082494 
C 269.514834 140.195685 268.889362 141.705709 268.889362 143.28 
C 268.889362 144.854291 269.514834 146.364315 270.628026 147.477506 
C 271.741217 148.590698 273.251241 149.21617 274.825532 149.21617 
z
" clip-path="url(#pf6094be244)" style="fill: #fdb164; stroke: #ffffff; stroke-linejoin: miter"/>
   </g>
   <g id="patch_21">
    <path d="M 286.697872 149.21617 
C 288.272163 149.21617 289.782187 148.590698 290.895379 147.477506 
C 292.00857 146.364315 292.634043 144.854291 292.634043 143.28 
C 292.634043 141.705709 292.00857 140.195685 290.895379 139.082494 
C 289.782187 137.969302 288.272163 137.34383 286.697872 137.34383 
C 285.123582 137.34383 283.613558 137.969302 282.500366 139.082494 
C 281.387174 140.195685 280.761702 141.705709 280.761702 143.28 
C 280.761702 144.854291 281.387174 146.364315 282.500366 147.477506 
C 283.613558 148.590698 285.123582 149.21617 286.697872 149.21617 
z
" clip-path="url(#pf6094be244)" style="fill: #fa9857; stroke: #ffffff; stroke-linejoin: miter"/>
   </g>
   <g id="patch_22">
    <path d="M 298.570213 149.21617 
C 300.144504 149.21617 301.654527 148.590698 302.767719 147.477506 
C 303.880911 146.364315 304.506383 144.854291 304.506383 143.28 
C 304.506383 141.705709 303.880911 140.195685 302.767719 139.082494 
C 301.654527 137.969302 300.144504 137.34383 298.570213 137.34383 
C 296.995922 137.34383 295.485898 137.969302 294.372707 139.082494 
C 293.259515 140.195685 292.634043 141.705709 292.634043 143.28 
C 292.634043 144.854291 293.259515 146.364315 294.372707 147.477506 
C 295.485898 148.590698 296.995922 149.21617 298.570213 149.21617 
z
" clip-path="url(#pf6094be244)" style="fill: #f7814c; stroke: #ffffff; stroke-linejoin: miter"/>
   </g>
   <g id="patch_23">
    <path d="M 310.442553 149.21617 
C 312.016844 149.21617 313.526868 148.590698 314.640059 147.477506 
C 315.753251 146.364315 316.378723 144.854291 316.378723 143.28 
C 316.378723 141.705709 315.753251 140.195685 314.640059 139.082494 
C 313.526868 137.969302 312.016844 137.34383 310.442553 137.34383 
C 308.868262 137.34383 307.358239 137.969302 306.245047 139.082494 
C 305.131855 140.195685 304.506383 141.705709 304.506383 143.28 
C 304.506383 144.854291 305.131855 146.364315 306.245047 147.477506 
C 307.358239 148.590698 308.868262 149.21617 310.442553 149.21617 
z
" clip-path="url(#pf6094be244)" style="fill: #f26841; stroke: #ffffff; stroke-linejoin: miter"/>
   </g>
   <g id="patch_24">
    <path d="M 322.314894 149.21617 
C 323.889184 149.21617 325.399208 148.590698 326.5124 147.477506 
C 327.625591 146.364315 328.251064 144.854291 328.251064 143.28 
C 328.251064 141.705709 327.625591 140.195685 326.5124 139.082494 
C 325.399208 137.969302 323.889184 137.34383 322.314894 137.34383 
C 320.740603 137.34383 319.230579 137.969302 318.117387 139.082494 
C 317.004196 140.195685 316.378723 141.705709 316.378723 143.28 
C 316.378723 144.854291 317.004196 146.364315 318.117387 147.477506 
C 319.230579 148.590698 320.740603 149.21617 322.314894 149.21617 
z
" clip-path="url(#pf6094be244)" style="fill: #e65036; stroke: #ffffff; stroke-linejoin: miter"/>
   </g>
   <g id="patch_25">
    <path d="M 334.187234 149.21617 
C 335.761525 149.21617 337.271549 148.590698 338.38474 147.477506 
C 339.497932 146.364315 340.123404 144.854291 340.123404 143.28 
C 340.123404 141.705709 339.497932 140.195685 338.38474 139.082494 
C 337.271549 137.969302 335.761525 137.34383 334.187234 137.34383 
C 332.612943 137.34383 331.102919 137.969302 329.989728 139.082494 
C 328.876536 140.195685 328.251064 141.705709 328.251064 143.28 
C 328.251064 144.854291 328.876536 146.364315 329.989728 147.477506 
C 331.102919 148.590698 332.612943 149.21617 334.187234 149.21617 
z
" clip-path="url(#pf6094be244)" style="fill: #db382b; stroke: #ffffff; stroke-linejoin: miter"/>
   </g>
   <g id="patch_26">
    <path d="M 346.059574 149.21617 
C 347.633865 149.21617 349.143889 148.590698 350.257081 147.477506 
C 351.370272 146.364315 351.995745 144.854291 351.995745 143.28 
C 351.995745 141.705709 351.370272 140.195685 350.257081 139.082494 
C 349.143889 137.969302 347.633865 137.34383 346.059574 137.34383 
C 344.485284 137.34383 342.97526 137.969302 341.862068 139.082494 
C 340.748877 140.195685 340.123404 141.705709 340.123404 143.28 
C 340.123404 144.854291 340.748877 146.364315 341.862068 147.477506 
C 342.97526 148.590698 344.485284 149.21617 346.059574 149.21617 
z
" clip-path="url(#pf6094be244)" style="fill: #ca2427; stroke: #ffffff; stroke-linejoin: miter"/>
   </g>
   <g id="patch_27">
    <path d="M 357.931915 149.21617 
C 359.506206 149.21617 361.016229 148.590698 362.129421 147.477506 
C 363.242613 146.364315 363.868085 144.854291 363.868085 143.28 
C 363.868085 141.705709 363.242613 140.195685 362.129421 139.082494 
C 361.016229 137.969302 359.506206 137.34383 357.931915 137.34383 
C 356.357624 137.34383 354.8476 137.969302 353.734409 139.082494 
C 352.621217 140.195685 351.995745 141.705709 351.995745 143.28 
C 351.995745 144.854291 352.621217 146.364315 353.734409 147.477506 
C 354.8476 148.590698 356.357624 149.21617 357.931915 149.21617 
z
" clip-path="url(#pf6094be244)" style="fill: #b71126; stroke: #ffffff; stroke-linejoin: miter"/>
   </g>
   <g id="patch_28">
    <path d="M 369.804255 149.21617 
C 371.378546 149.21617 372.88857 148.590698 374.001762 147.477506 
C 375.114953 146.364315 375.740426 144.854291 375.740426 143.28 
C 375.740426 141.705709 375.114953 140.195685 374.001762 139.082494 
C 372.88857 137.969302 371.378546 137.34383 369.804255 137.34383 
C 368.229965 137.34383 366.719941 137.969302 365.606749 139.082494 
C 364.493557 140.195685 363.868085 141.705709 363.868085 143.28 
C 363.868085 144.854291 364.493557 146.364315 365.606749 147.477506 
C 366.719941 148.590698 368.229965 149.21617 369.804255 149.21617 
z
" clip-path="url(#pf6094be244)" style="fill: #a50026; stroke: #ffffff; stroke-linejoin: miter"/>
   </g>
   <g id="text_1">
    <!-- -13 -->
    <g transform="translate(54.167936 146.014375) scale(0.1 -0.1)">
     <defs>
      <path id="Roboto-Thin-2d" d="M 1659 2166 
L 1659 1997 
L 191 1997 
L 191 2166 
L 1659 2166 
z
" transform="scale(0.015625)"/>
      <path id="Roboto-Thin-31" d="M 2059 4563 
L 2059 0 
L 1891 0 
L 1891 4338 
L 584 3847 
L 584 4031 
L 2025 4563 
L 2059 4563 
z
" transform="scale(0.015625)"/>
      <path id="Roboto-Thin-33" d="M 1303 2231 
L 1303 2406 
L 1663 2406 
Q 2253 2409 2565 2704 
Q 2878 3000 2878 3391 
Q 2878 3819 2611 4131 
Q 2344 4444 1763 4444 
Q 1269 4444 928 4153 
Q 588 3863 588 3356 
L 419 3356 
Q 419 3941 816 4277 
Q 1213 4613 1763 4613 
Q 2350 4613 2698 4283 
Q 3047 3953 3047 3378 
Q 3047 3019 2820 2734 
Q 2594 2450 2197 2328 
Q 2644 2225 2895 1939 
Q 3147 1653 3147 1206 
Q 3147 600 2762 268 
Q 2378 -63 1791 -63 
Q 1450 -63 1111 78 
Q 772 219 547 512 
Q 322 806 322 1266 
L 491 1266 
Q 491 759 862 432 
Q 1234 106 1791 106 
Q 2356 106 2667 395 
Q 2978 684 2978 1194 
Q 2978 1750 2604 1990 
Q 2231 2231 1650 2231 
L 1303 2231 
z
" transform="scale(0.015625)"/>
     </defs>
     <use xlink:href="#Roboto-Thin-2d"/>
     <use xlink:href="#Roboto-Thin-31" x="29.638672"/>
     <use xlink:href="#Roboto-Thin-33" x="84.375"/>
    </g>
   </g>
   <g id="text_2">
    <!-- -12 -->
    <g transform="translate(66.040276 146.014375) scale(0.1 -0.1)">
     <defs>
      <path id="Roboto-Thin-32" d="M 3200 169 
L 3200 0 
L 478 0 
L 478 169 
L 2047 1978 
Q 2784 2856 2784 3391 
Q 2784 3875 2503 4159 
Q 2222 4444 1675 4444 
Q 1184 4444 859 4108 
Q 534 3772 534 3266 
L 366 3266 
Q 366 3819 730 4216 
Q 1094 4613 1675 4613 
Q 2263 4613 2609 4300 
Q 2956 3988 2956 3391 
Q 2956 2969 2657 2536 
Q 2359 2103 1997 1681 
L 700 169 
L 3200 169 
z
" transform="scale(0.015625)"/>
     </defs>
     <use xlink:href="#Roboto-Thin-2d"/>
     <use xlink:href="#Roboto-Thin-31" x="29.638672"/>
     <use xlink:href="#Roboto-Thin-32" x="84.375"/>
    </g>
   </g>
   <g id="text_3">
    <!-- -11 -->
    <g transform="translate(77.912616 146.014375) scale(0.1 -0.1)">
     <use xlink:href="#Roboto-Thin-2d"/>
     <use xlink:href="#Roboto-Thin-31" x="29.638672"/>
     <use xlink:href="#Roboto-Thin-31" x="84.375"/>
    </g>
   </g>
   <g id="text_4">
    <!-- -10 -->
    <g transform="translate(89.784957 146.014375) scale(0.1 -0.1)">
     <defs>
      <path id="Roboto-Thin-30" d="M 3113 1856 
Q 3113 966 2766 451 
Q 2419 -63 1756 -63 
Q 1103 -63 747 451 
Q 391 966 391 1856 
L 391 2694 
Q 391 3584 742 4100 
Q 1094 4616 1750 4616 
Q 2409 4616 2761 4100 
Q 3113 3584 3113 2694 
L 3113 1856 
z
M 2944 2694 
Q 2944 3475 2650 3961 
Q 2356 4447 1750 4447 
Q 1147 4447 853 3961 
Q 559 3475 559 2694 
L 559 1863 
Q 559 1094 856 600 
Q 1153 106 1756 106 
Q 2363 106 2653 600 
Q 2944 1094 2944 1863 
L 2944 2694 
z
" transform="scale(0.015625)"/>
     </defs>
     <use xlink:href="#Roboto-Thin-2d"/>
     <use xlink:href="#Roboto-Thin-31" x="29.638672"/>
     <use xlink:href="#Roboto-Thin-30" x="84.375"/>
    </g>
   </g>
   <g id="text_5">
    <!-- -9 -->
    <g transform="translate(104.394016 146.014375) scale(0.1 -0.1)">
     <defs>
      <path id="Roboto-Thin-39" d="M 3103 2313 
Q 3103 1188 2601 567 
Q 2100 -53 1069 -63 
L 931 -63 
L 938 106 
L 1081 106 
Q 2038 119 2486 694 
Q 2934 1269 2934 2263 
Q 2763 1897 2417 1680 
Q 2072 1463 1634 1463 
Q 1034 1463 678 1920 
Q 322 2378 322 2994 
Q 322 3656 689 4134 
Q 1056 4613 1659 4613 
Q 2331 4613 2712 4177 
Q 3094 3741 3103 2866 
L 3103 2313 
z
M 491 2994 
Q 491 2469 792 2050 
Q 1094 1631 1634 1631 
Q 2203 1631 2523 1959 
Q 2844 2288 2934 2628 
L 2934 2819 
Q 2934 3631 2601 4037 
Q 2269 4444 1672 4444 
Q 1309 4444 1043 4234 
Q 778 4025 634 3694 
Q 491 3363 491 2994 
z
" transform="scale(0.015625)"/>
     </defs>
     <use xlink:href="#Roboto-Thin-2d"/>
     <use xlink:href="#Roboto-Thin-39" x="29.638672"/>
    </g>
   </g>
   <g id="text_6">
    <!-- -8 -->
    <g transform="translate(116.266356 146.014375) scale(0.1 -0.1)">
     <defs>
      <path id="Roboto-Thin-38" d="M 3209 1184 
Q 3209 563 2787 250 
Q 2366 -63 1763 -63 
Q 1147 -63 728 250 
Q 309 563 309 1184 
Q 309 1609 578 1912 
Q 847 2216 1275 2328 
Q 900 2444 669 2725 
Q 438 3006 438 3394 
Q 438 3988 814 4300 
Q 1191 4613 1750 4613 
Q 2300 4613 2689 4300 
Q 3078 3988 3078 3394 
Q 3078 3006 2842 2725 
Q 2606 2444 2234 2328 
Q 2659 2216 2934 1912 
Q 3209 1609 3209 1184 
z
M 2909 3409 
Q 2909 3863 2570 4153 
Q 2231 4444 1750 4444 
Q 1259 4444 932 4169 
Q 606 3894 606 3409 
Q 606 2947 934 2680 
Q 1263 2413 1756 2413 
Q 2238 2413 2573 2680 
Q 2909 2947 2909 3409 
z
M 3038 1169 
Q 3038 1663 2663 1953 
Q 2288 2244 1756 2244 
Q 1216 2244 847 1953 
Q 478 1663 478 1169 
Q 478 653 847 379 
Q 1216 106 1763 106 
Q 2294 106 2666 379 
Q 3038 653 3038 1169 
z
" transform="scale(0.015625)"/>
     </defs>
     <use xlink:href="#Roboto-Thin-2d"/>
     <use xlink:href="#Roboto-Thin-38" x="29.638672"/>
    </g>
   </g>
   <g id="text_7">
    <!-- -7 -->
    <g transform="translate(128.138697 146.014375) scale(0.1 -0.1)">
     <defs>
      <path id="Roboto-Thin-37" d="M 3147 4550 
L 3147 4444 
L 1144 0 
L 972 0 
L 2953 4381 
L 241 4381 
L 241 4550 
L 3147 4550 
z
" transform="scale(0.015625)"/>
     </defs>
     <use xlink:href="#Roboto-Thin-2d"/>
     <use xlink:href="#Roboto-Thin-37" x="29.638672"/>
    </g>
   </g>
   <g id="text_8">
    <!-- -6 -->
    <g transform="translate(140.011037 146.014375) scale(0.1 -0.1)">
     <defs>
      <path id="Roboto-Thin-36" d="M 3166 1500 
Q 3166 838 2808 387 
Q 2450 -63 1881 -63 
Q 1250 -63 825 368 
Q 400 800 400 1538 
L 400 2063 
Q 400 2969 695 3531 
Q 991 4094 1483 4353 
Q 1975 4613 2566 4613 
L 2625 4613 
L 2625 4444 
Q 1431 4444 894 3547 
Q 603 3066 572 2291 
Q 744 2591 1078 2791 
Q 1413 2991 1850 2991 
Q 2478 2991 2822 2567 
Q 3166 2144 3166 1500 
z
M 569 1541 
Q 569 888 937 495 
Q 1306 103 1881 103 
Q 2394 103 2695 525 
Q 2997 947 2997 1500 
Q 2997 2053 2706 2437 
Q 2416 2822 1828 2822 
Q 1391 2822 1025 2570 
Q 659 2319 569 1944 
L 569 1541 
z
" transform="scale(0.015625)"/>
     </defs>
     <use xlink:href="#Roboto-Thin-2d"/>
     <use xlink:href="#Roboto-Thin-36" x="29.638672"/>
    </g>
   </g>
   <g id="text_9">
    <!-- -5 -->
    <g transform="translate(151.883378 146.014375) scale(0.1 -0.1)">
     <defs>
      <path id="Roboto-Thin-35" d="M 850 2331 
L 722 2381 
L 934 4550 
L 3153 4550 
L 3153 4384 
L 1088 4384 
L 903 2559 
Q 1016 2656 1277 2759 
Q 1538 2863 1856 2863 
Q 2444 2863 2822 2489 
Q 3200 2116 3200 1450 
Q 3200 797 2903 367 
Q 2606 -63 1919 -63 
Q 1384 -63 1001 246 
Q 619 556 569 1197 
L 741 1197 
Q 841 106 1919 106 
Q 3028 106 3028 1444 
Q 3028 1978 2726 2336 
Q 2425 2694 1859 2694 
Q 1500 2694 1264 2595 
Q 1028 2497 850 2331 
z
" transform="scale(0.015625)"/>
     </defs>
     <use xlink:href="#Roboto-Thin-2d"/>
     <use xlink:href="#Roboto-Thin-35" x="29.638672"/>
    </g>
   </g>
   <g id="text_10">
    <!-- -4 -->
    <g transform="translate(163.755718 146.014375) scale(0.1 -0.1)">
     <defs>
      <path id="Roboto-Thin-34" d="M 256 1334 
L 2428 4550 
L 2631 4550 
L 2631 1409 
L 3419 1409 
L 3419 1241 
L 2631 1241 
L 2631 0 
L 2463 0 
L 2463 1241 
L 256 1241 
L 256 1334 
z
M 519 1409 
L 2463 1409 
L 2463 4350 
L 2200 3916 
L 519 1409 
z
" transform="scale(0.015625)"/>
     </defs>
     <use xlink:href="#Roboto-Thin-2d"/>
     <use xlink:href="#Roboto-Thin-34" x="29.638672"/>
    </g>
   </g>
   <g id="text_11">
    <!-- -3 -->
    <g transform="translate(175.628059 146.014375) scale(0.1 -0.1)">
     <use xlink:href="#Roboto-Thin-2d"/>
     <use xlink:href="#Roboto-Thin-33" x="29.638672"/>
    </g>
   </g>
   <g id="text_12">
    <!-- -2 -->
    <g transform="translate(187.500399 146.014375) scale(0.1 -0.1)">
     <use xlink:href="#Roboto-Thin-2d"/>
     <use xlink:href="#Roboto-Thin-32" x="29.638672"/>
    </g>
   </g>
   <g id="text_13">
    <!-- -1 -->
    <g transform="translate(199.372739 146.014375) scale(0.1 -0.1)">
     <use xlink:href="#Roboto-Thin-2d"/>
     <use xlink:href="#Roboto-Thin-31" x="29.638672"/>
    </g>
   </g>
   <g id="text_14">
    <!-- 0 -->
    <g transform="translate(212.727111 146.014375) scale(0.1 -0.1)">
     <use xlink:href="#Roboto-Thin-30"/>
    </g>
   </g>
   <g id="text_15">
    <!-- 1 -->
    <g transform="translate(224.599451 146.014375) scale(0.1 -0.1)">
     <use xlink:href="#Roboto-Thin-31"/>
    </g>
   </g>
   <g id="text_16">
    <!-- 2 -->
    <g transform="translate(236.471792 146.014375) scale(0.1 -0.1)">
     <use xlink:href="#Roboto-Thin-32"/>
    </g>
   </g>
   <g id="text_17">
    <!-- 3 -->
    <g transform="translate(248.344132 146.014375) scale(0.1 -0.1)">
     <use xlink:href="#Roboto-Thin-33"/>
    </g>
   </g>
   <g id="text_18">
    <!-- 4 -->
    <g transform="translate(260.216473 146.014375) scale(0.1 -0.1)">
     <use xlink:href="#Roboto-Thin-34"/>
    </g>
   </g>
   <g id="text_19">
    <!-- 5 -->
    <g transform="translate(272.088813 146.014375) scale(0.1 -0.1)">
     <use xlink:href="#Roboto-Thin-35"/>
    </g>
   </g>
   <g id="text_20">
    <!-- 6 -->
    <g transform="translate(283.961154 146.014375) scale(0.1 -0.1)">
     <use xlink:href="#Roboto-Thin-36"/>
    </g>
   </g>
   <g id="text_21">
    <!-- 7 -->
    <g transform="translate(295.833494 146.014375) scale(0.1 -0.1)">
     <use xlink:href="#Roboto-Thin-37"/>
    </g>
   </g>
   <g id="text_22">
    <!-- 8 -->
    <g transform="translate(307.705834 146.014375) scale(0.1 -0.1)">
     <use xlink:href="#Roboto-Thin-38"/>
    </g>
   </g>
   <g id="text_23">
    <!-- 9 -->
    <g transform="translate(319.578175 146.014375) scale(0.1 -0.1)">
     <use xlink:href="#Roboto-Thin-39"/>
    </g>
   </g>
   <g id="text_24">
    <!-- 10 -->
    <g transform="translate(328.713797 146.014375) scale(0.1 -0.1)">
     <use xlink:href="#Roboto-Thin-31"/>
     <use xlink:href="#Roboto-Thin-30" x="54.736328"/>
    </g>
   </g>
   <g id="text_25">
    <!-- 11 -->
    <g transform="translate(340.586137 146.014375) scale(0.1 -0.1)">
     <use xlink:href="#Roboto-Thin-31"/>
     <use xlink:href="#Roboto-Thin-31" x="54.736328"/>
    </g>
   </g>
   <g id="text_26">
    <!-- 12 -->
    <g transform="translate(352.458477 146.014375) scale(0.1 -0.1)">
     <use xlink:href="#Roboto-Thin-31"/>
     <use xlink:href="#Roboto-Thin-32" x="54.736328"/>
    </g>
   </g>
   <g id="text_27">
    <!-- 13 -->
    <g transform="translate(364.330818 146.014375) scale(0.1 -0.1)">
     <use xlink:href="#Roboto-Thin-31"/>
     <use xlink:href="#Roboto-Thin-33" x="54.736328"/>
    </g>
   </g>
  </g>
 </g>
 <defs>
  <clipPath id="pf6094be244">
   <rect x="54" y="136.156596" width="334.8" height="14.246809"/>
  </clipPath>
 </defs>
</svg>
