<?xml version="1.0" encoding="utf-8" standalone="no"?>
<!DOCTYPE svg PUBLIC "-//W3C//DTD SVG 1.1//EN"
  "http://www.w3.org/Graphics/SVG/1.1/DTD/svg11.dtd">
<svg xmlns:xlink="http://www.w3.org/1999/xlink" width="432pt" height="288pt" viewBox="0 0 432 288" xmlns="http://www.w3.org/2000/svg" version="1.1">
 <metadata>
  <rdf:RDF xmlns:dc="http://purl.org/dc/elements/1.1/" xmlns:cc="http://creativecommons.org/ns#" xmlns:rdf="http://www.w3.org/1999/02/22-rdf-syntax-ns#">
   <cc:Work>
    <dc:type rdf:resource="http://purl.org/dc/dcmitype/StillImage"/>
    <dc:date>2024-07-29T21:41:58.385736</dc:date>
    <dc:format>image/svg+xml</dc:format>
    <dc:creator>
     <cc:Agent>
      <dc:title>Matplotlib v3.9.1, https://matplotlib.org/</dc:title>
     </cc:Agent>
    </dc:creator>
   </cc:Work>
  </rdf:RDF>
 </metadata>
 <defs>
  <style type="text/css">*{stroke-linejoin: round; stroke-linecap: butt}</style>
 </defs>
 <g id="figure_1">
  <g id="patch_1">
   <path d="M 0 288 
L 432 288 
L 432 0 
L 0 0 
z
" style="fill: #ffffff"/>
  </g>
  <g id="axes_1">
   <g id="patch_2">
    <path d="M 71.935714 158.226429 
C 75.899553 158.226429 79.701578 156.651579 82.504435 153.848721 
C 85.307293 151.045863 86.882143 147.243839 86.882143 143.28 
C 86.882143 139.316161 85.307293 135.514137 82.504435 132.711279 
C 79.701578 129.908421 75.899553 128.333571 71.935714 128.333571 
C 67.971875 128.333571 64.169851 129.908421 61.366993 132.711279 
C 58.564136 135.514137 56.989286 139.316161 56.989286 143.28 
C 56.989286 147.243839 58.564136 151.045863 61.366993 153.848721 
C 64.169851 156.651579 67.971875 158.226429 71.935714 158.226429 
z
" clip-path="url(#pc103c4e584)" style="fill: #fee090; stroke: #ffffff; stroke-linejoin: miter"/>
   </g>
   <g id="patch_3">
    <path d="M 101.828571 158.226429 
C 105.792411 158.226429 109.594435 156.651579 112.397292 153.848721 
C 115.20015 151.045863 116.775 147.243839 116.775 143.28 
C 116.775 139.316161 115.20015 135.514137 112.397292 132.711279 
C 109.594435 129.908421 105.792411 128.333571 101.828571 128.333571 
C 97.864732 128.333571 94.062708 129.908421 91.25985 132.711279 
C 88.456993 135.514137 86.882143 139.316161 86.882143 143.28 
C 86.882143 147.243839 88.456993 151.045863 91.25985 153.848721 
C 94.062708 156.651579 97.864732 158.226429 101.828571 158.226429 
z
" clip-path="url(#pc103c4e584)" style="fill: #fdad60; stroke: #ffffff; stroke-linejoin: miter"/>
   </g>
   <g id="patch_4">
    <path d="M 131.721429 158.226429 
C 135.685268 158.226429 139.487292 156.651579 142.29015 153.848721 
C 145.093007 151.045863 146.667857 147.243839 146.667857 143.28 
C 146.667857 139.316161 145.093007 135.514137 142.29015 132.711279 
C 139.487292 129.908421 135.685268 128.333571 131.721429 128.333571 
C 127.757589 128.333571 123.955565 129.908421 121.152708 132.711279 
C 118.34985 135.514137 116.775 139.316161 116.775 143.28 
C 116.775 147.243839 118.34985 151.045863 121.152708 153.848721 
C 123.955565 156.651579 127.757589 158.226429 131.721429 158.226429 
z
" clip-path="url(#pc103c4e584)" style="fill: #f46d43; stroke: #ffffff; stroke-linejoin: miter"/>
   </g>
   <g id="patch_5">
    <path d="M 161.614286 158.226429 
C 165.578125 158.226429 169.380149 156.651579 172.183007 153.848721 
C 174.985864 151.045863 176.560714 147.243839 176.560714 143.28 
C 176.560714 139.316161 174.985864 135.514137 172.183007 132.711279 
C 169.380149 129.908421 165.578125 128.333571 161.614286 128.333571 
C 157.650447 128.333571 153.848422 129.908421 151.045565 132.711279 
C 148.242707 135.514137 146.667857 139.316161 146.667857 143.28 
C 146.667857 147.243839 148.242707 151.045863 151.045565 153.848721 
C 153.848422 156.651579 157.650447 158.226429 161.614286 158.226429 
z
" clip-path="url(#pc103c4e584)" style="fill: #d62f27; stroke: #ffffff; stroke-linejoin: miter"/>
   </g>
   <g id="patch_6">
    <path d="M 191.507143 158.226429 
C 195.470982 158.226429 199.273006 156.651579 202.075864 153.848721 
C 204.878721 151.045863 206.453571 147.243839 206.453571 143.28 
C 206.453571 139.316161 204.878721 135.514137 202.075864 132.711279 
C 199.273006 129.908421 195.470982 128.333571 191.507143 128.333571 
C 187.543304 128.333571 183.741279 129.908421 180.938422 132.711279 
C 178.135564 135.514137 176.560714 139.316161 176.560714 143.28 
C 176.560714 147.243839 178.135564 151.045863 180.938422 153.848721 
C 183.741279 156.651579 187.543304 158.226429 191.507143 158.226429 
z
" clip-path="url(#pc103c4e584)" style="fill: #a50026; stroke: #ffffff; stroke-linejoin: miter"/>
   </g>
   <g id="patch_7">
    <path d="M 221.4 158.226429 
C 225.363839 158.226429 229.165863 156.651579 231.968721 153.848721 
C 234.771579 151.045863 236.346429 147.243839 236.346429 143.28 
C 236.346429 139.316161 234.771579 135.514137 231.968721 132.711279 
C 229.165863 129.908421 225.363839 128.333571 221.4 128.333571 
C 217.436161 128.333571 213.634137 129.908421 210.831279 132.711279 
C 208.028421 135.514137 206.453571 139.316161 206.453571 143.28 
C 206.453571 147.243839 208.028421 151.045863 210.831279 153.848721 
C 213.634137 156.651579 217.436161 158.226429 221.4 158.226429 
z
" clip-path="url(#pc103c4e584)" style="fill: #313695; stroke: #ffffff; stroke-linejoin: miter"/>
   </g>
   <g id="patch_8">
    <path d="M 251.292857 158.226429 
C 255.256696 158.226429 259.058721 156.651579 261.861578 153.848721 
C 264.664436 151.045863 266.239286 147.243839 266.239286 143.28 
C 266.239286 139.316161 264.664436 135.514137 261.861578 132.711279 
C 259.058721 129.908421 255.256696 128.333571 251.292857 128.333571 
C 247.329018 128.333571 243.526994 129.908421 240.724136 132.711279 
C 237.921279 135.514137 236.346429 139.316161 236.346429 143.28 
C 236.346429 147.243839 237.921279 151.045863 240.724136 153.848721 
C 243.526994 156.651579 247.329018 158.226429 251.292857 158.226429 
z
" clip-path="url(#pc103c4e584)" style="fill: #4574b3; stroke: #ffffff; stroke-linejoin: miter"/>
   </g>
   <g id="patch_9">
    <path d="M 281.185714 158.226429 
C 285.149553 158.226429 288.951578 156.651579 291.754435 153.848721 
C 294.557293 151.045863 296.132143 147.243839 296.132143 143.28 
C 296.132143 139.316161 294.557293 135.514137 291.754435 132.711279 
C 288.951578 129.908421 285.149553 128.333571 281.185714 128.333571 
C 277.221875 128.333571 273.419851 129.908421 270.616993 132.711279 
C 267.814136 135.514137 266.239286 139.316161 266.239286 143.28 
C 266.239286 147.243839 267.814136 151.045863 270.616993 153.848721 
C 273.419851 156.651579 277.221875 158.226429 281.185714 158.226429 
z
" clip-path="url(#pc103c4e584)" style="fill: #74add1; stroke: #ffffff; stroke-linejoin: miter"/>
   </g>
   <g id="patch_10">
    <path d="M 311.078571 158.226429 
C 315.042411 158.226429 318.844435 156.651579 321.647292 153.848721 
C 324.45015 151.045863 326.025 147.243839 326.025 143.28 
C 326.025 139.316161 324.45015 135.514137 321.647292 132.711279 
C 318.844435 129.908421 315.042411 128.333571 311.078571 128.333571 
C 307.114732 128.333571 303.312708 129.908421 300.50985 132.711279 
C 297.706993 135.514137 296.132143 139.316161 296.132143 143.28 
C 296.132143 147.243839 297.706993 151.045863 300.50985 153.848721 
C 303.312708 156.651579 307.114732 158.226429 311.078571 158.226429 
z
" clip-path="url(#pc103c4e584)" style="fill: #aad8e9; stroke: #ffffff; stroke-linejoin: miter"/>
   </g>
   <g id="patch_11">
    <path d="M 340.971429 158.226429 
C 344.935268 158.226429 348.737292 156.651579 351.54015 153.848721 
C 354.343007 151.045863 355.917857 147.243839 355.917857 143.28 
C 355.917857 139.316161 354.343007 135.514137 351.54015 132.711279 
C 348.737292 129.908421 344.935268 128.333571 340.971429 128.333571 
C 337.007589 128.333571 333.205565 129.908421 330.402708 132.711279 
C 327.59985 135.514137 326.025 139.316161 326.025 143.28 
C 326.025 147.243839 327.59985 151.045863 330.402708 153.848721 
C 333.205565 156.651579 337.007589 158.226429 340.971429 158.226429 
z
" clip-path="url(#pc103c4e584)" style="fill: #e0f3f8; stroke: #ffffff; stroke-linejoin: miter"/>
   </g>
   <g id="text_1">
    <!-- 1.0 -->
    <g transform="translate(65.390402 146.014375) scale(0.1 -0.1)">
     <defs>
      <path id="Roboto-Thin-31" d="M 2059 4563 
L 2059 0 
L 1891 0 
L 1891 4338 
L 584 3847 
L 584 4031 
L 2025 4563 
L 2059 4563 
z
" transform="scale(0.015625)"/>
      <path id="Roboto-Thin-2e" d="M 459 153 
Q 459 328 631 328 
Q 806 328 806 153 
Q 806 -19 631 -19 
Q 459 -19 459 153 
z
" transform="scale(0.015625)"/>
      <path id="Roboto-Thin-30" d="M 3113 1856 
Q 3113 966 2766 451 
Q 2419 -63 1756 -63 
Q 1103 -63 747 451 
Q 391 966 391 1856 
L 391 2694 
Q 391 3584 742 4100 
Q 1094 4616 1750 4616 
Q 2409 4616 2761 4100 
Q 3113 3584 3113 2694 
L 3113 1856 
z
M 2944 2694 
Q 2944 3475 2650 3961 
Q 2356 4447 1750 4447 
Q 1147 4447 853 3961 
Q 559 3475 559 2694 
L 559 1863 
Q 559 1094 856 600 
Q 1153 106 1756 106 
Q 2363 106 2653 600 
Q 2944 1094 2944 1863 
L 2944 2694 
z
" transform="scale(0.015625)"/>
     </defs>
     <use xlink:href="#Roboto-Thin-31"/>
     <use xlink:href="#Roboto-Thin-2e" x="54.736328"/>
     <use xlink:href="#Roboto-Thin-30" x="76.171875"/>
    </g>
   </g>
   <g id="text_2">
    <!-- 2.0 -->
    <g transform="translate(95.283259 146.014375) scale(0.1 -0.1)">
     <defs>
      <path id="Roboto-Thin-32" d="M 3200 169 
L 3200 0 
L 478 0 
L 478 169 
L 2047 1978 
Q 2784 2856 2784 3391 
Q 2784 3875 2503 4159 
Q 2222 4444 1675 4444 
Q 1184 4444 859 4108 
Q 534 3772 534 3266 
L 366 3266 
Q 366 3819 730 4216 
Q 1094 4613 1675 4613 
Q 2263 4613 2609 4300 
Q 2956 3988 2956 3391 
Q 2956 2969 2657 2536 
Q 2359 2103 1997 1681 
L 700 169 
L 3200 169 
z
" transform="scale(0.015625)"/>
     </defs>
     <use xlink:href="#Roboto-Thin-32"/>
     <use xlink:href="#Roboto-Thin-2e" x="54.736328"/>
     <use xlink:href="#Roboto-Thin-30" x="76.171875"/>
    </g>
   </g>
   <g id="text_3">
    <!-- 3.0 -->
    <g transform="translate(125.176116 146.014375) scale(0.1 -0.1)">
     <defs>
      <path id="Roboto-Thin-33" d="M 1303 2231 
L 1303 2406 
L 1663 2406 
Q 2253 2409 2565 2704 
Q 2878 3000 2878 3391 
Q 2878 3819 2611 4131 
Q 2344 4444 1763 4444 
Q 1269 4444 928 4153 
Q 588 3863 588 3356 
L 419 3356 
Q 419 3941 816 4277 
Q 1213 4613 1763 4613 
Q 2350 4613 2698 4283 
Q 3047 3953 3047 3378 
Q 3047 3019 2820 2734 
Q 2594 2450 2197 2328 
Q 2644 2225 2895 1939 
Q 3147 1653 3147 1206 
Q 3147 600 2762 268 
Q 2378 -63 1791 -63 
Q 1450 -63 1111 78 
Q 772 219 547 512 
Q 322 806 322 1266 
L 491 1266 
Q 491 759 862 432 
Q 1234 106 1791 106 
Q 2356 106 2667 395 
Q 2978 684 2978 1194 
Q 2978 1750 2604 1990 
Q 2231 2231 1650 2231 
L 1303 2231 
z
" transform="scale(0.015625)"/>
     </defs>
     <use xlink:href="#Roboto-Thin-33"/>
     <use xlink:href="#Roboto-Thin-2e" x="54.736328"/>
     <use xlink:href="#Roboto-Thin-30" x="76.171875"/>
    </g>
   </g>
   <g id="text_4">
    <!-- 4.0 -->
    <g transform="translate(155.068973 146.014375) scale(0.1 -0.1)">
     <defs>
      <path id="Roboto-Thin-34" d="M 256 1334 
L 2428 4550 
L 2631 4550 
L 2631 1409 
L 3419 1409 
L 3419 1241 
L 2631 1241 
L 2631 0 
L 2463 0 
L 2463 1241 
L 256 1241 
L 256 1334 
z
M 519 1409 
L 2463 1409 
L 2463 4350 
L 2200 3916 
L 519 1409 
z
" transform="scale(0.015625)"/>
     </defs>
     <use xlink:href="#Roboto-Thin-34"/>
     <use xlink:href="#Roboto-Thin-2e" x="54.736328"/>
     <use xlink:href="#Roboto-Thin-30" x="76.171875"/>
    </g>
   </g>
   <g id="text_5">
    <!-- 5.0 -->
    <g transform="translate(184.96183 146.014375) scale(0.1 -0.1)">
     <defs>
      <path id="Roboto-Thin-35" d="M 850 2331 
L 722 2381 
L 934 4550 
L 3153 4550 
L 3153 4384 
L 1088 4384 
L 903 2559 
Q 1016 2656 1277 2759 
Q 1538 2863 1856 2863 
Q 2444 2863 2822 2489 
Q 3200 2116 3200 1450 
Q 3200 797 2903 367 
Q 2606 -63 1919 -63 
Q 1384 -63 1001 246 
Q 619 556 569 1197 
L 741 1197 
Q 841 106 1919 106 
Q 3028 106 3028 1444 
Q 3028 1978 2726 2336 
Q 2425 2694 1859 2694 
Q 1500 2694 1264 2595 
Q 1028 2497 850 2331 
z
" transform="scale(0.015625)"/>
     </defs>
     <use xlink:href="#Roboto-Thin-35"/>
     <use xlink:href="#Roboto-Thin-2e" x="54.736328"/>
     <use xlink:href="#Roboto-Thin-30" x="76.171875"/>
    </g>
   </g>
   <g id="text_6">
    <!-- -5.0 -->
    <g transform="translate(213.372656 146.014375) scale(0.1 -0.1)">
     <defs>
      <path id="Roboto-Thin-2d" d="M 1659 2166 
L 1659 1997 
L 191 1997 
L 191 2166 
L 1659 2166 
z
" transform="scale(0.015625)"/>
     </defs>
     <use xlink:href="#Roboto-Thin-2d"/>
     <use xlink:href="#Roboto-Thin-35" x="29.638672"/>
     <use xlink:href="#Roboto-Thin-2e" x="84.375"/>
     <use xlink:href="#Roboto-Thin-30" x="105.810547"/>
    </g>
   </g>
   <g id="text_7">
    <!-- -4.0 -->
    <g transform="translate(243.265513 146.014375) scale(0.1 -0.1)">
     <use xlink:href="#Roboto-Thin-2d"/>
     <use xlink:href="#Roboto-Thin-34" x="29.638672"/>
     <use xlink:href="#Roboto-Thin-2e" x="84.375"/>
     <use xlink:href="#Roboto-Thin-30" x="105.810547"/>
    </g>
   </g>
   <g id="text_8">
    <!-- -3.0 -->
    <g transform="translate(273.158371 146.014375) scale(0.1 -0.1)">
     <use xlink:href="#Roboto-Thin-2d"/>
     <use xlink:href="#Roboto-Thin-33" x="29.638672"/>
     <use xlink:href="#Roboto-Thin-2e" x="84.375"/>
     <use xlink:href="#Roboto-Thin-30" x="105.810547"/>
    </g>
   </g>
   <g id="text_9">
    <!-- -2.0 -->
    <g transform="translate(303.051228 146.014375) scale(0.1 -0.1)">
     <use xlink:href="#Roboto-Thin-2d"/>
     <use xlink:href="#Roboto-Thin-32" x="29.638672"/>
     <use xlink:href="#Roboto-Thin-2e" x="84.375"/>
     <use xlink:href="#Roboto-Thin-30" x="105.810547"/>
    </g>
   </g>
   <g id="text_10">
    <!-- -1.0 -->
    <g transform="translate(332.944085 146.014375) scale(0.1 -0.1)">
     <use xlink:href="#Roboto-Thin-2d"/>
     <use xlink:href="#Roboto-Thin-31" x="29.638672"/>
     <use xlink:href="#Roboto-Thin-2e" x="84.375"/>
     <use xlink:href="#Roboto-Thin-30" x="105.810547"/>
    </g>
   </g>
  </g>
 </g>
 <defs>
  <clipPath id="pc103c4e584">
   <rect x="54" y="125.344286" width="334.8" height="35.871429"/>
  </clipPath>
 </defs>
</svg>
