<?xml version="1.0" encoding="utf-8" standalone="no"?>
<!DOCTYPE svg PUBLIC "-//W3C//DTD SVG 1.1//EN"
  "http://www.w3.org/Graphics/SVG/1.1/DTD/svg11.dtd">
<svg xmlns:xlink="http://www.w3.org/1999/xlink" width="432pt" height="288pt" viewBox="0 0 432 288" xmlns="http://www.w3.org/2000/svg" version="1.1">
 <metadata>
  <rdf:RDF xmlns:dc="http://purl.org/dc/elements/1.1/" xmlns:cc="http://creativecommons.org/ns#" xmlns:rdf="http://www.w3.org/1999/02/22-rdf-syntax-ns#">
   <cc:Work>
    <dc:type rdf:resource="http://purl.org/dc/dcmitype/StillImage"/>
    <dc:date>2024-07-29T21:41:58.264043</dc:date>
    <dc:format>image/svg+xml</dc:format>
    <dc:creator>
     <cc:Agent>
      <dc:title>Matplotlib v3.9.1, https://matplotlib.org/</dc:title>
     </cc:Agent>
    </dc:creator>
   </cc:Work>
  </rdf:RDF>
 </metadata>
 <defs>
  <style type="text/css">*{stroke-linejoin: round; stroke-linecap: butt}</style>
 </defs>
 <g id="figure_1">
  <g id="patch_1">
   <path d="M 0 288 
L 432 288 
L 432 0 
L 0 0 
z
" style="fill: #ffffff"/>
  </g>
  <g id="axes_1">
   <g id="patch_2">
    <path d="M 86.4 170.28 
C 93.560484 170.28 100.428657 167.43511 105.491883 162.371883 
C 110.55511 157.308657 113.4 150.440484 113.4 143.28 
C 113.4 136.119516 110.55511 129.251343 105.491883 124.188117 
C 100.428657 119.12489 93.560484 116.28 86.4 116.28 
C 79.239516 116.28 72.371343 119.12489 67.308117 124.188117 
C 62.24489 129.251343 59.4 136.119516 59.4 143.28 
C 59.4 150.440484 62.24489 157.308657 67.308117 162.371883 
C 72.371343 167.43511 79.239516 170.28 86.4 170.28 
z
" clip-path="url(#pd0638c756b)" style="fill: #fee090; stroke: #ffffff; stroke-linejoin: miter"/>
   </g>
   <g id="patch_3">
    <path d="M 140.4 170.28 
C 147.560484 170.28 154.428657 167.43511 159.491883 162.371883 
C 164.55511 157.308657 167.4 150.440484 167.4 143.28 
C 167.4 136.119516 164.55511 129.251343 159.491883 124.188117 
C 154.428657 119.12489 147.560484 116.28 140.4 116.28 
C 133.239516 116.28 126.371343 119.12489 121.308117 124.188117 
C 116.24489 129.251343 113.4 136.119516 113.4 143.28 
C 113.4 150.440484 116.24489 157.308657 121.308117 162.371883 
C 126.371343 167.43511 133.239516 170.28 140.4 170.28 
z
" clip-path="url(#pd0638c756b)" style="fill: #fdad60; stroke: #ffffff; stroke-linejoin: miter"/>
   </g>
   <g id="patch_4">
    <path d="M 194.4 170.28 
C 201.560484 170.28 208.428657 167.43511 213.491883 162.371883 
C 218.55511 157.308657 221.4 150.440484 221.4 143.28 
C 221.4 136.119516 218.55511 129.251343 213.491883 124.188117 
C 208.428657 119.12489 201.560484 116.28 194.4 116.28 
C 187.239516 116.28 180.371343 119.12489 175.308117 124.188117 
C 170.24489 129.251343 167.4 136.119516 167.4 143.28 
C 167.4 150.440484 170.24489 157.308657 175.308117 162.371883 
C 180.371343 167.43511 187.239516 170.28 194.4 170.28 
z
" clip-path="url(#pd0638c756b)" style="fill: #f46d43; stroke: #ffffff; stroke-linejoin: miter"/>
   </g>
   <g id="patch_5">
    <path d="M 248.4 170.28 
C 255.560484 170.28 262.428657 167.43511 267.491883 162.371883 
C 272.55511 157.308657 275.4 150.440484 275.4 143.28 
C 275.4 136.119516 272.55511 129.251343 267.491883 124.188117 
C 262.428657 119.12489 255.560484 116.28 248.4 116.28 
C 241.239516 116.28 234.371343 119.12489 229.308117 124.188117 
C 224.24489 129.251343 221.4 136.119516 221.4 143.28 
C 221.4 150.440484 224.24489 157.308657 229.308117 162.371883 
C 234.371343 167.43511 241.239516 170.28 248.4 170.28 
z
" clip-path="url(#pd0638c756b)" style="fill: #d62f27; stroke: #ffffff; stroke-linejoin: miter"/>
   </g>
   <g id="patch_6">
    <path d="M 302.4 170.28 
C 309.560484 170.28 316.428657 167.43511 321.491883 162.371883 
C 326.55511 157.308657 329.4 150.440484 329.4 143.28 
C 329.4 136.119516 326.55511 129.251343 321.491883 124.188117 
C 316.428657 119.12489 309.560484 116.28 302.4 116.28 
C 295.239516 116.28 288.371343 119.12489 283.308117 124.188117 
C 278.24489 129.251343 275.4 136.119516 275.4 143.28 
C 275.4 150.440484 278.24489 157.308657 283.308117 162.371883 
C 288.371343 167.43511 295.239516 170.28 302.4 170.28 
z
" clip-path="url(#pd0638c756b)" style="fill: #a50026; stroke: #ffffff; stroke-linejoin: miter"/>
   </g>
   <g id="text_1">
    <!-- 1.0 -->
    <g transform="translate(79.854688 146.014375) scale(0.1 -0.1)">
     <defs>
      <path id="Roboto-Thin-31" d="M 2059 4563 
L 2059 0 
L 1891 0 
L 1891 4338 
L 584 3847 
L 584 4031 
L 2025 4563 
L 2059 4563 
z
" transform="scale(0.015625)"/>
      <path id="Roboto-Thin-2e" d="M 459 153 
Q 459 328 631 328 
Q 806 328 806 153 
Q 806 -19 631 -19 
Q 459 -19 459 153 
z
" transform="scale(0.015625)"/>
      <path id="Roboto-Thin-30" d="M 3113 1856 
Q 3113 966 2766 451 
Q 2419 -63 1756 -63 
Q 1103 -63 747 451 
Q 391 966 391 1856 
L 391 2694 
Q 391 3584 742 4100 
Q 1094 4616 1750 4616 
Q 2409 4616 2761 4100 
Q 3113 3584 3113 2694 
L 3113 1856 
z
M 2944 2694 
Q 2944 3475 2650 3961 
Q 2356 4447 1750 4447 
Q 1147 4447 853 3961 
Q 559 3475 559 2694 
L 559 1863 
Q 559 1094 856 600 
Q 1153 106 1756 106 
Q 2363 106 2653 600 
Q 2944 1094 2944 1863 
L 2944 2694 
z
" transform="scale(0.015625)"/>
     </defs>
     <use xlink:href="#Roboto-Thin-31"/>
     <use xlink:href="#Roboto-Thin-2e" x="54.736328"/>
     <use xlink:href="#Roboto-Thin-30" x="76.171875"/>
    </g>
   </g>
   <g id="text_2">
    <!-- 2.0 -->
    <g transform="translate(133.854688 146.014375) scale(0.1 -0.1)">
     <defs>
      <path id="Roboto-Thin-32" d="M 3200 169 
L 3200 0 
L 478 0 
L 478 169 
L 2047 1978 
Q 2784 2856 2784 3391 
Q 2784 3875 2503 4159 
Q 2222 4444 1675 4444 
Q 1184 4444 859 4108 
Q 534 3772 534 3266 
L 366 3266 
Q 366 3819 730 4216 
Q 1094 4613 1675 4613 
Q 2263 4613 2609 4300 
Q 2956 3988 2956 3391 
Q 2956 2969 2657 2536 
Q 2359 2103 1997 1681 
L 700 169 
L 3200 169 
z
" transform="scale(0.015625)"/>
     </defs>
     <use xlink:href="#Roboto-Thin-32"/>
     <use xlink:href="#Roboto-Thin-2e" x="54.736328"/>
     <use xlink:href="#Roboto-Thin-30" x="76.171875"/>
    </g>
   </g>
   <g id="text_3">
    <!-- 3.0 -->
    <g transform="translate(187.854688 146.014375) scale(0.1 -0.1)">
     <defs>
      <path id="Roboto-Thin-33" d="M 1303 2231 
L 1303 2406 
L 1663 2406 
Q 2253 2409 2565 2704 
Q 2878 3000 2878 3391 
Q 2878 3819 2611 4131 
Q 2344 4444 1763 4444 
Q 1269 4444 928 4153 
Q 588 3863 588 3356 
L 419 3356 
Q 419 3941 816 4277 
Q 1213 4613 1763 4613 
Q 2350 4613 2698 4283 
Q 3047 3953 3047 3378 
Q 3047 3019 2820 2734 
Q 2594 2450 2197 2328 
Q 2644 2225 2895 1939 
Q 3147 1653 3147 1206 
Q 3147 600 2762 268 
Q 2378 -63 1791 -63 
Q 1450 -63 1111 78 
Q 772 219 547 512 
Q 322 806 322 1266 
L 491 1266 
Q 491 759 862 432 
Q 1234 106 1791 106 
Q 2356 106 2667 395 
Q 2978 684 2978 1194 
Q 2978 1750 2604 1990 
Q 2231 2231 1650 2231 
L 1303 2231 
z
" transform="scale(0.015625)"/>
     </defs>
     <use xlink:href="#Roboto-Thin-33"/>
     <use xlink:href="#Roboto-Thin-2e" x="54.736328"/>
     <use xlink:href="#Roboto-Thin-30" x="76.171875"/>
    </g>
   </g>
   <g id="text_4">
    <!-- 4.0 -->
    <g transform="translate(241.854688 146.014375) scale(0.1 -0.1)">
     <defs>
      <path id="Roboto-Thin-34" d="M 256 1334 
L 2428 4550 
L 2631 4550 
L 2631 1409 
L 3419 1409 
L 3419 1241 
L 2631 1241 
L 2631 0 
L 2463 0 
L 2463 1241 
L 256 1241 
L 256 1334 
z
M 519 1409 
L 2463 1409 
L 2463 4350 
L 2200 3916 
L 519 1409 
z
" transform="scale(0.015625)"/>
     </defs>
     <use xlink:href="#Roboto-Thin-34"/>
     <use xlink:href="#Roboto-Thin-2e" x="54.736328"/>
     <use xlink:href="#Roboto-Thin-30" x="76.171875"/>
    </g>
   </g>
   <g id="text_5">
    <!-- 5.0 -->
    <g transform="translate(295.854688 146.014375) scale(0.1 -0.1)">
     <defs>
      <path id="Roboto-Thin-35" d="M 850 2331 
L 722 2381 
L 934 4550 
L 3153 4550 
L 3153 4384 
L 1088 4384 
L 903 2559 
Q 1016 2656 1277 2759 
Q 1538 2863 1856 2863 
Q 2444 2863 2822 2489 
Q 3200 2116 3200 1450 
Q 3200 797 2903 367 
Q 2606 -63 1919 -63 
Q 1384 -63 1001 246 
Q 619 556 569 1197 
L 741 1197 
Q 841 106 1919 106 
Q 3028 106 3028 1444 
Q 3028 1978 2726 2336 
Q 2425 2694 1859 2694 
Q 1500 2694 1264 2595 
Q 1028 2497 850 2331 
z
" transform="scale(0.015625)"/>
     </defs>
     <use xlink:href="#Roboto-Thin-35"/>
     <use xlink:href="#Roboto-Thin-2e" x="54.736328"/>
     <use xlink:href="#Roboto-Thin-30" x="76.171875"/>
    </g>
   </g>
  </g>
 </g>
 <defs>
  <clipPath id="pd0638c756b">
   <rect x="54" y="110.88" width="334.8" height="64.8"/>
  </clipPath>
 </defs>
</svg>
