<?xml version="1.0" encoding="utf-8" standalone="no"?>
<!DOCTYPE svg PUBLIC "-//W3C//DTD SVG 1.1//EN"
  "http://www.w3.org/Graphics/SVG/1.1/DTD/svg11.dtd">
<svg xmlns:xlink="http://www.w3.org/1999/xlink" width="432pt" height="288pt" viewBox="0 0 432 288" xmlns="http://www.w3.org/2000/svg" version="1.1">
 <metadata>
  <rdf:RDF xmlns:dc="http://purl.org/dc/elements/1.1/" xmlns:cc="http://creativecommons.org/ns#" xmlns:rdf="http://www.w3.org/1999/02/22-rdf-syntax-ns#">
   <cc:Work>
    <dc:type rdf:resource="http://purl.org/dc/dcmitype/StillImage"/>
    <dc:date>2024-07-29T21:41:59.390188</dc:date>
    <dc:format>image/svg+xml</dc:format>
    <dc:creator>
     <cc:Agent>
      <dc:title>Matplotlib v3.9.1, https://matplotlib.org/</dc:title>
     </cc:Agent>
    </dc:creator>
   </cc:Work>
  </rdf:RDF>
 </metadata>
 <defs>
  <style type="text/css">*{stroke-linejoin: round; stroke-linecap: butt}</style>
 </defs>
 <g id="figure_1">
  <g id="patch_1">
   <path d="M 0 288 
L 432 288 
L 432 0 
L 0 0 
z
" style="fill: #ffffff"/>
  </g>
  <g id="axes_1">
   <g id="patch_2">
    <path d="M 64.4625 151.99875 
C 66.77474 151.99875 68.992587 151.080087 70.627587 149.445087 
C 72.262587 147.810087 73.18125 145.59224 73.18125 143.28 
C 73.18125 140.96776 72.262587 138.749913 70.627587 137.114913 
C 68.992587 135.479913 66.77474 134.56125 64.4625 134.56125 
C 62.15026 134.56125 59.932413 135.479913 58.297413 137.114913 
C 56.662413 138.749913 55.74375 140.96776 55.74375 143.28 
C 55.74375 145.59224 56.662413 147.810087 58.297413 149.445087 
C 59.932413 151.080087 62.15026 151.99875 64.4625 151.99875 
z
" clip-path="url(#p3b5e11e3f7)" style="fill: #3a54a4; stroke: #ffffff; stroke-linejoin: miter"/>
   </g>
   <g id="patch_3">
    <path d="M 81.9 151.99875 
C 84.21224 151.99875 86.430087 151.080087 88.065087 149.445087 
C 89.700087 147.810087 90.61875 145.59224 90.61875 143.28 
C 90.61875 140.96776 89.700087 138.749913 88.065087 137.114913 
C 86.430087 135.479913 84.21224 134.56125 81.9 134.56125 
C 79.58776 134.56125 77.369913 135.479913 75.734913 137.114913 
C 74.099913 138.749913 73.18125 140.96776 73.18125 143.28 
C 73.18125 145.59224 74.099913 147.810087 75.734913 149.445087 
C 77.369913 151.080087 79.58776 151.99875 81.9 151.99875 
z
" clip-path="url(#p3b5e11e3f7)" style="fill: #4574b3; stroke: #ffffff; stroke-linejoin: miter"/>
   </g>
   <g id="patch_4">
    <path d="M 99.3375 151.99875 
C 101.64974 151.99875 103.867587 151.080087 105.502587 149.445087 
C 107.137587 147.810087 108.05625 145.59224 108.05625 143.28 
C 108.05625 140.96776 107.137587 138.749913 105.502587 137.114913 
C 103.867587 135.479913 101.64974 134.56125 99.3375 134.56125 
C 97.02526 134.56125 94.807413 135.479913 93.172413 137.114913 
C 91.537413 138.749913 90.61875 140.96776 90.61875 143.28 
C 90.61875 145.59224 91.537413 147.810087 93.172413 149.445087 
C 94.807413 151.080087 97.02526 151.99875 99.3375 151.99875 
z
" clip-path="url(#p3b5e11e3f7)" style="fill: #5c90c2; stroke: #ffffff; stroke-linejoin: miter"/>
   </g>
   <g id="patch_5">
    <path d="M 116.775 151.99875 
C 119.08724 151.99875 121.305087 151.080087 122.940087 149.445087 
C 124.575087 147.810087 125.49375 145.59224 125.49375 143.28 
C 125.49375 140.96776 124.575087 138.749913 122.940087 137.114913 
C 121.305087 135.479913 119.08724 134.56125 116.775 134.56125 
C 114.46276 134.56125 112.244913 135.479913 110.609913 137.114913 
C 108.974913 138.749913 108.05625 140.96776 108.05625 143.28 
C 108.05625 145.59224 108.974913 147.810087 110.609913 149.445087 
C 112.244913 151.080087 114.46276 151.99875 116.775 151.99875 
z
" clip-path="url(#p3b5e11e3f7)" style="fill: #74add1; stroke: #ffffff; stroke-linejoin: miter"/>
   </g>
   <g id="patch_6">
    <path d="M 134.2125 151.99875 
C 136.52474 151.99875 138.742587 151.080087 140.377587 149.445087 
C 142.012587 147.810087 142.93125 145.59224 142.93125 143.28 
C 142.93125 140.96776 142.012587 138.749913 140.377587 137.114913 
C 138.742587 135.479913 136.52474 134.56125 134.2125 134.56125 
C 131.90026 134.56125 129.682413 135.479913 128.047413 137.114913 
C 126.412413 138.749913 125.49375 140.96776 125.49375 143.28 
C 125.49375 145.59224 126.412413 147.810087 128.047413 149.445087 
C 129.682413 151.080087 131.90026 151.99875 134.2125 151.99875 
z
" clip-path="url(#p3b5e11e3f7)" style="fill: #90c3dd; stroke: #ffffff; stroke-linejoin: miter"/>
   </g>
   <g id="patch_7">
    <path d="M 151.65 151.99875 
C 153.96224 151.99875 156.180087 151.080087 157.815087 149.445087 
C 159.450087 147.810087 160.36875 145.59224 160.36875 143.28 
C 160.36875 140.96776 159.450087 138.749913 157.815087 137.114913 
C 156.180087 135.479913 153.96224 134.56125 151.65 134.56125 
C 149.33776 134.56125 147.119913 135.479913 145.484913 137.114913 
C 143.849913 138.749913 142.93125 140.96776 142.93125 143.28 
C 142.93125 145.59224 143.849913 147.810087 145.484913 149.445087 
C 147.119913 151.080087 149.33776 151.99875 151.65 151.99875 
z
" clip-path="url(#p3b5e11e3f7)" style="fill: #aad8e9; stroke: #ffffff; stroke-linejoin: miter"/>
   </g>
   <g id="patch_8">
    <path d="M 169.0875 151.99875 
C 171.39974 151.99875 173.617587 151.080087 175.252587 149.445087 
C 176.887587 147.810087 177.80625 145.59224 177.80625 143.28 
C 177.80625 140.96776 176.887587 138.749913 175.252587 137.114913 
C 173.617587 135.479913 171.39974 134.56125 169.0875 134.56125 
C 166.77526 134.56125 164.557413 135.479913 162.922413 137.114913 
C 161.287413 138.749913 160.36875 140.96776 160.36875 143.28 
C 160.36875 145.59224 161.287413 147.810087 162.922413 149.445087 
C 164.557413 151.080087 166.77526 151.99875 169.0875 151.99875 
z
" clip-path="url(#p3b5e11e3f7)" style="fill: #c5e6f0; stroke: #ffffff; stroke-linejoin: miter"/>
   </g>
   <g id="patch_9">
    <path d="M 186.525 151.99875 
C 188.83724 151.99875 191.055087 151.080087 192.690087 149.445087 
C 194.325087 147.810087 195.24375 145.59224 195.24375 143.28 
C 195.24375 140.96776 194.325087 138.749913 192.690087 137.114913 
C 191.055087 135.479913 188.83724 134.56125 186.525 134.56125 
C 184.21276 134.56125 181.994913 135.479913 180.359913 137.114913 
C 178.724913 138.749913 177.80625 140.96776 177.80625 143.28 
C 177.80625 145.59224 178.724913 147.810087 180.359913 149.445087 
C 181.994913 151.080087 184.21276 151.99875 186.525 151.99875 
z
" clip-path="url(#p3b5e11e3f7)" style="fill: #e0f3f8; stroke: #ffffff; stroke-linejoin: miter"/>
   </g>
   <g id="patch_10">
    <path d="M 203.9625 151.99875 
C 206.27474 151.99875 208.492587 151.080087 210.127587 149.445087 
C 211.762587 147.810087 212.68125 145.59224 212.68125 143.28 
C 212.68125 140.96776 211.762587 138.749913 210.127587 137.114913 
C 208.492587 135.479913 206.27474 134.56125 203.9625 134.56125 
C 201.65026 134.56125 199.432413 135.479913 197.797413 137.114913 
C 196.162413 138.749913 195.24375 140.96776 195.24375 143.28 
C 195.24375 145.59224 196.162413 147.810087 197.797413 149.445087 
C 199.432413 151.080087 201.65026 151.99875 203.9625 151.99875 
z
" clip-path="url(#p3b5e11e3f7)" style="fill: #f0f9db; stroke: #ffffff; stroke-linejoin: miter"/>
   </g>
   <g id="patch_11">
    <path d="M 221.4 151.99875 
C 223.71224 151.99875 225.930087 151.080087 227.565087 149.445087 
C 229.200087 147.810087 230.11875 145.59224 230.11875 143.28 
C 230.11875 140.96776 229.200087 138.749913 227.565087 137.114913 
C 225.930087 135.479913 223.71224 134.56125 221.4 134.56125 
C 219.08776 134.56125 216.869913 135.479913 215.234913 137.114913 
C 213.599913 138.749913 212.68125 140.96776 212.68125 143.28 
C 212.68125 145.59224 213.599913 147.810087 215.234913 149.445087 
C 216.869913 151.080087 219.08776 151.99875 221.4 151.99875 
z
" clip-path="url(#p3b5e11e3f7)" style="fill: #fffebe; stroke: #ffffff; stroke-linejoin: miter"/>
   </g>
   <g id="patch_12">
    <path d="M 238.8375 151.99875 
C 241.14974 151.99875 243.367587 151.080087 245.002587 149.445087 
C 246.637587 147.810087 247.55625 145.59224 247.55625 143.28 
C 247.55625 140.96776 246.637587 138.749913 245.002587 137.114913 
C 243.367587 135.479913 241.14974 134.56125 238.8375 134.56125 
C 236.52526 134.56125 234.307413 135.479913 232.672413 137.114913 
C 231.037413 138.749913 230.11875 140.96776 230.11875 143.28 
C 230.11875 145.59224 231.037413 147.810087 232.672413 149.445087 
C 234.307413 151.080087 236.52526 151.99875 238.8375 151.99875 
z
" clip-path="url(#p3b5e11e3f7)" style="fill: #fff0a8; stroke: #ffffff; stroke-linejoin: miter"/>
   </g>
   <g id="patch_13">
    <path d="M 256.275 151.99875 
C 258.58724 151.99875 260.805087 151.080087 262.440087 149.445087 
C 264.075087 147.810087 264.99375 145.59224 264.99375 143.28 
C 264.99375 140.96776 264.075087 138.749913 262.440087 137.114913 
C 260.805087 135.479913 258.58724 134.56125 256.275 134.56125 
C 253.96276 134.56125 251.744913 135.479913 250.109913 137.114913 
C 248.474913 138.749913 247.55625 140.96776 247.55625 143.28 
C 247.55625 145.59224 248.474913 147.810087 250.109913 149.445087 
C 251.744913 151.080087 253.96276 151.99875 256.275 151.99875 
z
" clip-path="url(#p3b5e11e3f7)" style="fill: #fee090; stroke: #ffffff; stroke-linejoin: miter"/>
   </g>
   <g id="patch_14">
    <path d="M 273.7125 151.99875 
C 276.02474 151.99875 278.242587 151.080087 279.877587 149.445087 
C 281.512587 147.810087 282.43125 145.59224 282.43125 143.28 
C 282.43125 140.96776 281.512587 138.749913 279.877587 137.114913 
C 278.242587 135.479913 276.02474 134.56125 273.7125 134.56125 
C 271.40026 134.56125 269.182413 135.479913 267.547413 137.114913 
C 265.912413 138.749913 264.99375 140.96776 264.99375 143.28 
C 264.99375 145.59224 265.912413 147.810087 267.547413 149.445087 
C 269.182413 151.080087 271.40026 151.99875 273.7125 151.99875 
z
" clip-path="url(#p3b5e11e3f7)" style="fill: #fdc778; stroke: #ffffff; stroke-linejoin: miter"/>
   </g>
   <g id="patch_15">
    <path d="M 291.15 151.99875 
C 293.46224 151.99875 295.680087 151.080087 297.315087 149.445087 
C 298.950087 147.810087 299.86875 145.59224 299.86875 143.28 
C 299.86875 140.96776 298.950087 138.749913 297.315087 137.114913 
C 295.680087 135.479913 293.46224 134.56125 291.15 134.56125 
C 288.83776 134.56125 286.619913 135.479913 284.984913 137.114913 
C 283.349913 138.749913 282.43125 140.96776 282.43125 143.28 
C 282.43125 145.59224 283.349913 147.810087 284.984913 149.445087 
C 286.619913 151.080087 288.83776 151.99875 291.15 151.99875 
z
" clip-path="url(#p3b5e11e3f7)" style="fill: #fdad60; stroke: #ffffff; stroke-linejoin: miter"/>
   </g>
   <g id="patch_16">
    <path d="M 308.5875 151.99875 
C 310.89974 151.99875 313.117587 151.080087 314.752587 149.445087 
C 316.387587 147.810087 317.30625 145.59224 317.30625 143.28 
C 317.30625 140.96776 316.387587 138.749913 314.752587 137.114913 
C 313.117587 135.479913 310.89974 134.56125 308.5875 134.56125 
C 306.27526 134.56125 304.057413 135.479913 302.422413 137.114913 
C 300.787413 138.749913 299.86875 140.96776 299.86875 143.28 
C 299.86875 145.59224 300.787413 147.810087 302.422413 149.445087 
C 304.057413 151.080087 306.27526 151.99875 308.5875 151.99875 
z
" clip-path="url(#p3b5e11e3f7)" style="fill: #f88c51; stroke: #ffffff; stroke-linejoin: miter"/>
   </g>
   <g id="patch_17">
    <path d="M 326.025 151.99875 
C 328.33724 151.99875 330.555087 151.080087 332.190087 149.445087 
C 333.825087 147.810087 334.74375 145.59224 334.74375 143.28 
C 334.74375 140.96776 333.825087 138.749913 332.190087 137.114913 
C 330.555087 135.479913 328.33724 134.56125 326.025 134.56125 
C 323.71276 134.56125 321.494913 135.479913 319.859913 137.114913 
C 318.224913 138.749913 317.30625 140.96776 317.30625 143.28 
C 317.30625 145.59224 318.224913 147.810087 319.859913 149.445087 
C 321.494913 151.080087 323.71276 151.99875 326.025 151.99875 
z
" clip-path="url(#p3b5e11e3f7)" style="fill: #f46d43; stroke: #ffffff; stroke-linejoin: miter"/>
   </g>
   <g id="patch_18">
    <path d="M 343.4625 151.99875 
C 345.77474 151.99875 347.992587 151.080087 349.627587 149.445087 
C 351.262587 147.810087 352.18125 145.59224 352.18125 143.28 
C 352.18125 140.96776 351.262587 138.749913 349.627587 137.114913 
C 347.992587 135.479913 345.77474 134.56125 343.4625 134.56125 
C 341.15026 134.56125 338.932413 135.479913 337.297413 137.114913 
C 335.662413 138.749913 334.74375 140.96776 334.74375 143.28 
C 334.74375 145.59224 335.662413 147.810087 337.297413 149.445087 
C 338.932413 151.080087 341.15026 151.99875 343.4625 151.99875 
z
" clip-path="url(#p3b5e11e3f7)" style="fill: #e54e35; stroke: #ffffff; stroke-linejoin: miter"/>
   </g>
   <g id="patch_19">
    <path d="M 360.9 151.99875 
C 363.21224 151.99875 365.430087 151.080087 367.065087 149.445087 
C 368.700087 147.810087 369.61875 145.59224 369.61875 143.28 
C 369.61875 140.96776 368.700087 138.749913 367.065087 137.114913 
C 365.430087 135.479913 363.21224 134.56125 360.9 134.56125 
C 358.58776 134.56125 356.369913 135.479913 354.734913 137.114913 
C 353.099913 138.749913 352.18125 140.96776 352.18125 143.28 
C 352.18125 145.59224 353.099913 147.810087 354.734913 149.445087 
C 356.369913 151.080087 358.58776 151.99875 360.9 151.99875 
z
" clip-path="url(#p3b5e11e3f7)" style="fill: #d62f27; stroke: #ffffff; stroke-linejoin: miter"/>
   </g>
   <g id="text_1">
    <!-- -9.0 -->
    <g transform="translate(56.435156 146.014375) scale(0.1 -0.1)">
     <defs>
      <path id="Roboto-Thin-2d" d="M 1659 2166 
L 1659 1997 
L 191 1997 
L 191 2166 
L 1659 2166 
z
" transform="scale(0.015625)"/>
      <path id="Roboto-Thin-39" d="M 3103 2313 
Q 3103 1188 2601 567 
Q 2100 -53 1069 -63 
L 931 -63 
L 938 106 
L 1081 106 
Q 2038 119 2486 694 
Q 2934 1269 2934 2263 
Q 2763 1897 2417 1680 
Q 2072 1463 1634 1463 
Q 1034 1463 678 1920 
Q 322 2378 322 2994 
Q 322 3656 689 4134 
Q 1056 4613 1659 4613 
Q 2331 4613 2712 4177 
Q 3094 3741 3103 2866 
L 3103 2313 
z
M 491 2994 
Q 491 2469 792 2050 
Q 1094 1631 1634 1631 
Q 2203 1631 2523 1959 
Q 2844 2288 2934 2628 
L 2934 2819 
Q 2934 3631 2601 4037 
Q 2269 4444 1672 4444 
Q 1309 4444 1043 4234 
Q 778 4025 634 3694 
Q 491 3363 491 2994 
z
" transform="scale(0.015625)"/>
      <path id="Roboto-Thin-2e" d="M 459 153 
Q 459 328 631 328 
Q 806 328 806 153 
Q 806 -19 631 -19 
Q 459 -19 459 153 
z
" transform="scale(0.015625)"/>
      <path id="Roboto-Thin-30" d="M 3113 1856 
Q 3113 966 2766 451 
Q 2419 -63 1756 -63 
Q 1103 -63 747 451 
Q 391 966 391 1856 
L 391 2694 
Q 391 3584 742 4100 
Q 1094 4616 1750 4616 
Q 2409 4616 2761 4100 
Q 3113 3584 3113 2694 
L 3113 1856 
z
M 2944 2694 
Q 2944 3475 2650 3961 
Q 2356 4447 1750 4447 
Q 1147 4447 853 3961 
Q 559 3475 559 2694 
L 559 1863 
Q 559 1094 856 600 
Q 1153 106 1756 106 
Q 2363 106 2653 600 
Q 2944 1094 2944 1863 
L 2944 2694 
z
" transform="scale(0.015625)"/>
     </defs>
     <use xlink:href="#Roboto-Thin-2d"/>
     <use xlink:href="#Roboto-Thin-39" x="29.638672"/>
     <use xlink:href="#Roboto-Thin-2e" x="84.375"/>
     <use xlink:href="#Roboto-Thin-30" x="105.810547"/>
    </g>
   </g>
   <g id="text_2">
    <!-- -8.0 -->
    <g transform="translate(73.872656 146.014375) scale(0.1 -0.1)">
     <defs>
      <path id="Roboto-Thin-38" d="M 3209 1184 
Q 3209 563 2787 250 
Q 2366 -63 1763 -63 
Q 1147 -63 728 250 
Q 309 563 309 1184 
Q 309 1609 578 1912 
Q 847 2216 1275 2328 
Q 900 2444 669 2725 
Q 438 3006 438 3394 
Q 438 3988 814 4300 
Q 1191 4613 1750 4613 
Q 2300 4613 2689 4300 
Q 3078 3988 3078 3394 
Q 3078 3006 2842 2725 
Q 2606 2444 2234 2328 
Q 2659 2216 2934 1912 
Q 3209 1609 3209 1184 
z
M 2909 3409 
Q 2909 3863 2570 4153 
Q 2231 4444 1750 4444 
Q 1259 4444 932 4169 
Q 606 3894 606 3409 
Q 606 2947 934 2680 
Q 1263 2413 1756 2413 
Q 2238 2413 2573 2680 
Q 2909 2947 2909 3409 
z
M 3038 1169 
Q 3038 1663 2663 1953 
Q 2288 2244 1756 2244 
Q 1216 2244 847 1953 
Q 478 1663 478 1169 
Q 478 653 847 379 
Q 1216 106 1763 106 
Q 2294 106 2666 379 
Q 3038 653 3038 1169 
z
" transform="scale(0.015625)"/>
     </defs>
     <use xlink:href="#Roboto-Thin-2d"/>
     <use xlink:href="#Roboto-Thin-38" x="29.638672"/>
     <use xlink:href="#Roboto-Thin-2e" x="84.375"/>
     <use xlink:href="#Roboto-Thin-30" x="105.810547"/>
    </g>
   </g>
   <g id="text_3">
    <!-- -7.0 -->
    <g transform="translate(91.310156 146.014375) scale(0.1 -0.1)">
     <defs>
      <path id="Roboto-Thin-37" d="M 3147 4550 
L 3147 4444 
L 1144 0 
L 972 0 
L 2953 4381 
L 241 4381 
L 241 4550 
L 3147 4550 
z
" transform="scale(0.015625)"/>
     </defs>
     <use xlink:href="#Roboto-Thin-2d"/>
     <use xlink:href="#Roboto-Thin-37" x="29.638672"/>
     <use xlink:href="#Roboto-Thin-2e" x="84.375"/>
     <use xlink:href="#Roboto-Thin-30" x="105.810547"/>
    </g>
   </g>
   <g id="text_4">
    <!-- -6.0 -->
    <g transform="translate(108.747656 146.014375) scale(0.1 -0.1)">
     <defs>
      <path id="Roboto-Thin-36" d="M 3166 1500 
Q 3166 838 2808 387 
Q 2450 -63 1881 -63 
Q 1250 -63 825 368 
Q 400 800 400 1538 
L 400 2063 
Q 400 2969 695 3531 
Q 991 4094 1483 4353 
Q 1975 4613 2566 4613 
L 2625 4613 
L 2625 4444 
Q 1431 4444 894 3547 
Q 603 3066 572 2291 
Q 744 2591 1078 2791 
Q 1413 2991 1850 2991 
Q 2478 2991 2822 2567 
Q 3166 2144 3166 1500 
z
M 569 1541 
Q 569 888 937 495 
Q 1306 103 1881 103 
Q 2394 103 2695 525 
Q 2997 947 2997 1500 
Q 2997 2053 2706 2437 
Q 2416 2822 1828 2822 
Q 1391 2822 1025 2570 
Q 659 2319 569 1944 
L 569 1541 
z
" transform="scale(0.015625)"/>
     </defs>
     <use xlink:href="#Roboto-Thin-2d"/>
     <use xlink:href="#Roboto-Thin-36" x="29.638672"/>
     <use xlink:href="#Roboto-Thin-2e" x="84.375"/>
     <use xlink:href="#Roboto-Thin-30" x="105.810547"/>
    </g>
   </g>
   <g id="text_5">
    <!-- -5.0 -->
    <g transform="translate(126.185156 146.014375) scale(0.1 -0.1)">
     <defs>
      <path id="Roboto-Thin-35" d="M 850 2331 
L 722 2381 
L 934 4550 
L 3153 4550 
L 3153 4384 
L 1088 4384 
L 903 2559 
Q 1016 2656 1277 2759 
Q 1538 2863 1856 2863 
Q 2444 2863 2822 2489 
Q 3200 2116 3200 1450 
Q 3200 797 2903 367 
Q 2606 -63 1919 -63 
Q 1384 -63 1001 246 
Q 619 556 569 1197 
L 741 1197 
Q 841 106 1919 106 
Q 3028 106 3028 1444 
Q 3028 1978 2726 2336 
Q 2425 2694 1859 2694 
Q 1500 2694 1264 2595 
Q 1028 2497 850 2331 
z
" transform="scale(0.015625)"/>
     </defs>
     <use xlink:href="#Roboto-Thin-2d"/>
     <use xlink:href="#Roboto-Thin-35" x="29.638672"/>
     <use xlink:href="#Roboto-Thin-2e" x="84.375"/>
     <use xlink:href="#Roboto-Thin-30" x="105.810547"/>
    </g>
   </g>
   <g id="text_6">
    <!-- -4.0 -->
    <g transform="translate(143.622656 146.014375) scale(0.1 -0.1)">
     <defs>
      <path id="Roboto-Thin-34" d="M 256 1334 
L 2428 4550 
L 2631 4550 
L 2631 1409 
L 3419 1409 
L 3419 1241 
L 2631 1241 
L 2631 0 
L 2463 0 
L 2463 1241 
L 256 1241 
L 256 1334 
z
M 519 1409 
L 2463 1409 
L 2463 4350 
L 2200 3916 
L 519 1409 
z
" transform="scale(0.015625)"/>
     </defs>
     <use xlink:href="#Roboto-Thin-2d"/>
     <use xlink:href="#Roboto-Thin-34" x="29.638672"/>
     <use xlink:href="#Roboto-Thin-2e" x="84.375"/>
     <use xlink:href="#Roboto-Thin-30" x="105.810547"/>
    </g>
   </g>
   <g id="text_7">
    <!-- -3.0 -->
    <g transform="translate(161.060156 146.014375) scale(0.1 -0.1)">
     <defs>
      <path id="Roboto-Thin-33" d="M 1303 2231 
L 1303 2406 
L 1663 2406 
Q 2253 2409 2565 2704 
Q 2878 3000 2878 3391 
Q 2878 3819 2611 4131 
Q 2344 4444 1763 4444 
Q 1269 4444 928 4153 
Q 588 3863 588 3356 
L 419 3356 
Q 419 3941 816 4277 
Q 1213 4613 1763 4613 
Q 2350 4613 2698 4283 
Q 3047 3953 3047 3378 
Q 3047 3019 2820 2734 
Q 2594 2450 2197 2328 
Q 2644 2225 2895 1939 
Q 3147 1653 3147 1206 
Q 3147 600 2762 268 
Q 2378 -63 1791 -63 
Q 1450 -63 1111 78 
Q 772 219 547 512 
Q 322 806 322 1266 
L 491 1266 
Q 491 759 862 432 
Q 1234 106 1791 106 
Q 2356 106 2667 395 
Q 2978 684 2978 1194 
Q 2978 1750 2604 1990 
Q 2231 2231 1650 2231 
L 1303 2231 
z
" transform="scale(0.015625)"/>
     </defs>
     <use xlink:href="#Roboto-Thin-2d"/>
     <use xlink:href="#Roboto-Thin-33" x="29.638672"/>
     <use xlink:href="#Roboto-Thin-2e" x="84.375"/>
     <use xlink:href="#Roboto-Thin-30" x="105.810547"/>
    </g>
   </g>
   <g id="text_8">
    <!-- -2.0 -->
    <g transform="translate(178.497656 146.014375) scale(0.1 -0.1)">
     <defs>
      <path id="Roboto-Thin-32" d="M 3200 169 
L 3200 0 
L 478 0 
L 478 169 
L 2047 1978 
Q 2784 2856 2784 3391 
Q 2784 3875 2503 4159 
Q 2222 4444 1675 4444 
Q 1184 4444 859 4108 
Q 534 3772 534 3266 
L 366 3266 
Q 366 3819 730 4216 
Q 1094 4613 1675 4613 
Q 2263 4613 2609 4300 
Q 2956 3988 2956 3391 
Q 2956 2969 2657 2536 
Q 2359 2103 1997 1681 
L 700 169 
L 3200 169 
z
" transform="scale(0.015625)"/>
     </defs>
     <use xlink:href="#Roboto-Thin-2d"/>
     <use xlink:href="#Roboto-Thin-32" x="29.638672"/>
     <use xlink:href="#Roboto-Thin-2e" x="84.375"/>
     <use xlink:href="#Roboto-Thin-30" x="105.810547"/>
    </g>
   </g>
   <g id="text_9">
    <!-- -1.0 -->
    <g transform="translate(195.935156 146.014375) scale(0.1 -0.1)">
     <defs>
      <path id="Roboto-Thin-31" d="M 2059 4563 
L 2059 0 
L 1891 0 
L 1891 4338 
L 584 3847 
L 584 4031 
L 2025 4563 
L 2059 4563 
z
" transform="scale(0.015625)"/>
     </defs>
     <use xlink:href="#Roboto-Thin-2d"/>
     <use xlink:href="#Roboto-Thin-31" x="29.638672"/>
     <use xlink:href="#Roboto-Thin-2e" x="84.375"/>
     <use xlink:href="#Roboto-Thin-30" x="105.810547"/>
    </g>
   </g>
   <g id="text_10">
    <!-- 0.0 -->
    <g transform="translate(214.854688 146.014375) scale(0.1 -0.1)">
     <use xlink:href="#Roboto-Thin-30"/>
     <use xlink:href="#Roboto-Thin-2e" x="54.736328"/>
     <use xlink:href="#Roboto-Thin-30" x="76.171875"/>
    </g>
   </g>
   <g id="text_11">
    <!-- 1.0 -->
    <g transform="translate(232.292188 146.014375) scale(0.1 -0.1)">
     <use xlink:href="#Roboto-Thin-31"/>
     <use xlink:href="#Roboto-Thin-2e" x="54.736328"/>
     <use xlink:href="#Roboto-Thin-30" x="76.171875"/>
    </g>
   </g>
   <g id="text_12">
    <!-- 2.0 -->
    <g transform="translate(249.729687 146.014375) scale(0.1 -0.1)">
     <use xlink:href="#Roboto-Thin-32"/>
     <use xlink:href="#Roboto-Thin-2e" x="54.736328"/>
     <use xlink:href="#Roboto-Thin-30" x="76.171875"/>
    </g>
   </g>
   <g id="text_13">
    <!-- 3.0 -->
    <g transform="translate(267.167187 146.014375) scale(0.1 -0.1)">
     <use xlink:href="#Roboto-Thin-33"/>
     <use xlink:href="#Roboto-Thin-2e" x="54.736328"/>
     <use xlink:href="#Roboto-Thin-30" x="76.171875"/>
    </g>
   </g>
   <g id="text_14">
    <!-- 4.0 -->
    <g transform="translate(284.604687 146.014375) scale(0.1 -0.1)">
     <use xlink:href="#Roboto-Thin-34"/>
     <use xlink:href="#Roboto-Thin-2e" x="54.736328"/>
     <use xlink:href="#Roboto-Thin-30" x="76.171875"/>
    </g>
   </g>
   <g id="text_15">
    <!-- 5.0 -->
    <g transform="translate(302.042187 146.014375) scale(0.1 -0.1)">
     <use xlink:href="#Roboto-Thin-35"/>
     <use xlink:href="#Roboto-Thin-2e" x="54.736328"/>
     <use xlink:href="#Roboto-Thin-30" x="76.171875"/>
    </g>
   </g>
   <g id="text_16">
    <!-- 6.0 -->
    <g transform="translate(319.479687 146.014375) scale(0.1 -0.1)">
     <use xlink:href="#Roboto-Thin-36"/>
     <use xlink:href="#Roboto-Thin-2e" x="54.736328"/>
     <use xlink:href="#Roboto-Thin-30" x="76.171875"/>
    </g>
   </g>
   <g id="text_17">
    <!-- 7.0 -->
    <g transform="translate(336.917187 146.014375) scale(0.1 -0.1)">
     <use xlink:href="#Roboto-Thin-37"/>
     <use xlink:href="#Roboto-Thin-2e" x="54.736328"/>
     <use xlink:href="#Roboto-Thin-30" x="76.171875"/>
    </g>
   </g>
   <g id="text_18">
    <!-- 8.0 -->
    <g transform="translate(354.354687 146.014375) scale(0.1 -0.1)">
     <use xlink:href="#Roboto-Thin-38"/>
     <use xlink:href="#Roboto-Thin-2e" x="54.736328"/>
     <use xlink:href="#Roboto-Thin-30" x="76.171875"/>
    </g>
   </g>
  </g>
 </g>
 <defs>
  <clipPath id="p3b5e11e3f7">
   <rect x="54" y="132.8175" width="334.8" height="20.925"/>
  </clipPath>
 </defs>
</svg>
