<?xml version="1.0" encoding="utf-8" standalone="no"?>
<!DOCTYPE svg PUBLIC "-//W3C//DTD SVG 1.1//EN"
  "http://www.w3.org/Graphics/SVG/1.1/DTD/svg11.dtd">
<svg xmlns:xlink="http://www.w3.org/1999/xlink" width="216pt" height="72pt" viewBox="0 0 216 72" xmlns="http://www.w3.org/2000/svg" version="1.1">
 <metadata>
  <rdf:RDF xmlns:dc="http://purl.org/dc/elements/1.1/" xmlns:cc="http://creativecommons.org/ns#" xmlns:rdf="http://www.w3.org/1999/02/22-rdf-syntax-ns#">
   <cc:Work>
    <dc:type rdf:resource="http://purl.org/dc/dcmitype/StillImage"/>
    <dc:date>2024-07-29T21:41:59.028067</dc:date>
    <dc:format>image/svg+xml</dc:format>
    <dc:creator>
     <cc:Agent>
      <dc:title>Matplotlib v3.9.1, https://matplotlib.org/</dc:title>
     </cc:Agent>
    </dc:creator>
   </cc:Work>
  </rdf:RDF>
 </metadata>
 <defs>
  <style type="text/css">*{stroke-linejoin: round; stroke-linecap: butt}</style>
 </defs>
 <g id="figure_1">
  <g id="patch_1">
   <path d="M 0 72 
L 216 72 
L 216 0 
L 0 0 
z
" style="fill: #ffffff"/>
  </g>
  <g id="axes_1">
   <g id="patch_2">
    <path d="M 42.75 63 
L 178.65 63 
L 178.65 8.64 
L 42.75 8.64 
z
" style="fill: #ffffff"/>
   </g>
   <g id="QuadMesh_1">
    <path d="M 42.75 8.64 
L 69.93 8.64 
L 69.93 35.82 
L 42.75 35.82 
L 42.75 8.64 
" clip-path="url(#p83b7c9da23)" style="fill: #6399c7; stroke: #ffffff; stroke-width: 0.5"/>
    <path d="M 69.93 8.64 
L 97.11 8.64 
L 97.11 35.82 
L 69.93 35.82 
L 69.93 8.64 
" clip-path="url(#p83b7c9da23)" style="fill: #bde2ee; stroke: #ffffff; stroke-width: 0.5"/>
    <path d="M 97.11 8.64 
L 124.29 8.64 
L 124.29 35.82 
L 97.11 35.82 
L 97.11 8.64 
" clip-path="url(#p83b7c9da23)" style="fill: #fffebe; stroke: #ffffff; stroke-width: 0.5"/>
    <path d="M 124.29 8.64 
L 151.47 8.64 
L 151.47 35.82 
L 124.29 35.82 
L 124.29 8.64 
" clip-path="url(#p83b7c9da23)" style="fill: #fdbf71; stroke: #ffffff; stroke-width: 0.5"/>
    <path d="M 151.47 8.64 
L 178.65 8.64 
L 178.65 35.82 
L 151.47 35.82 
L 151.47 8.64 
" clip-path="url(#p83b7c9da23)" style="fill: #ea5739; stroke: #ffffff; stroke-width: 0.5"/>
    <path d="M 42.75 35.82 
L 69.93 35.82 
L 69.93 63 
L 42.75 63 
L 42.75 35.82 
" clip-path="url(#p83b7c9da23)" style="fill: #6399c7; stroke: #ffffff; stroke-width: 0.5"/>
    <path d="M 69.93 35.82 
L 97.11 35.82 
L 97.11 63 
L 69.93 63 
L 69.93 35.82 
" clip-path="url(#p83b7c9da23)" style="fill: #bde2ee; stroke: #ffffff; stroke-width: 0.5"/>
    <path d="M 97.11 35.82 
L 124.29 35.82 
L 124.29 63 
L 97.11 63 
L 97.11 35.82 
" clip-path="url(#p83b7c9da23)" style="fill: #fffebe; stroke: #ffffff; stroke-width: 0.5"/>
    <path d="M 124.29 35.82 
L 151.47 35.82 
L 151.47 63 
L 124.29 63 
L 124.29 35.82 
" clip-path="url(#p83b7c9da23)" style="fill: #fdbf71; stroke: #ffffff; stroke-width: 0.5"/>
    <path d="M 151.47 35.82 
L 178.65 35.82 
L 178.65 63 
L 151.47 63 
L 151.47 35.82 
" clip-path="url(#p83b7c9da23)" style="fill: #ea5739; stroke: #ffffff; stroke-width: 0.5"/>
   </g>
   <g id="matplotlib.axis_1"/>
   <g id="matplotlib.axis_2"/>
   <g id="text_1">
    <!-- -2 -->
    <g style="fill: #ffffff" transform="translate(52.12125 24.964375) scale(0.1 -0.1)">
     <defs>
      <path id="Roboto-Thin-2d" d="M 1659 2166 
L 1659 1997 
L 191 1997 
L 191 2166 
L 1659 2166 
z
" transform="scale(0.015625)"/>
      <path id="Roboto-Thin-32" d="M 3200 169 
L 3200 0 
L 478 0 
L 478 169 
L 2047 1978 
Q 2784 2856 2784 3391 
Q 2784 3875 2503 4159 
Q 2222 4444 1675 4444 
Q 1184 4444 859 4108 
Q 534 3772 534 3266 
L 366 3266 
Q 366 3819 730 4216 
Q 1094 4613 1675 4613 
Q 2263 4613 2609 4300 
Q 2956 3988 2956 3391 
Q 2956 2969 2657 2536 
Q 2359 2103 1997 1681 
L 700 169 
L 3200 169 
z
" transform="scale(0.015625)"/>
     </defs>
     <use xlink:href="#Roboto-Thin-2d"/>
     <use xlink:href="#Roboto-Thin-32" x="29.638672"/>
    </g>
   </g>
   <g id="text_2">
    <!-- -1 -->
    <g style="fill: #262626" transform="translate(79.30125 24.964375) scale(0.1 -0.1)">
     <defs>
      <path id="Roboto-Thin-31" d="M 2059 4563 
L 2059 0 
L 1891 0 
L 1891 4338 
L 584 3847 
L 584 4031 
L 2025 4563 
L 2059 4563 
z
" transform="scale(0.015625)"/>
     </defs>
     <use xlink:href="#Roboto-Thin-2d"/>
     <use xlink:href="#Roboto-Thin-31" x="29.638672"/>
    </g>
   </g>
   <g id="text_3">
    <!-- 0 -->
    <g style="fill: #262626" transform="translate(107.963281 24.964375) scale(0.1 -0.1)">
     <defs>
      <path id="Roboto-Thin-30" d="M 3113 1856 
Q 3113 966 2766 451 
Q 2419 -63 1756 -63 
Q 1103 -63 747 451 
Q 391 966 391 1856 
L 391 2694 
Q 391 3584 742 4100 
Q 1094 4616 1750 4616 
Q 2409 4616 2761 4100 
Q 3113 3584 3113 2694 
L 3113 1856 
z
M 2944 2694 
Q 2944 3475 2650 3961 
Q 2356 4447 1750 4447 
Q 1147 4447 853 3961 
Q 559 3475 559 2694 
L 559 1863 
Q 559 1094 856 600 
Q 1153 106 1756 106 
Q 2363 106 2653 600 
Q 2944 1094 2944 1863 
L 2944 2694 
z
" transform="scale(0.015625)"/>
     </defs>
     <use xlink:href="#Roboto-Thin-30"/>
    </g>
   </g>
   <g id="text_4">
    <!-- 1 -->
    <g style="fill: #262626" transform="translate(135.143281 24.964375) scale(0.1 -0.1)">
     <use xlink:href="#Roboto-Thin-31"/>
    </g>
   </g>
   <g id="text_5">
    <!-- 2 -->
    <g style="fill: #ffffff" transform="translate(162.323281 24.964375) scale(0.1 -0.1)">
     <use xlink:href="#Roboto-Thin-32"/>
    </g>
   </g>
   <g id="text_6">
    <!-- -2 -->
    <g style="fill: #ffffff" transform="translate(52.12125 52.144375) scale(0.1 -0.1)">
     <use xlink:href="#Roboto-Thin-2d"/>
     <use xlink:href="#Roboto-Thin-32" x="29.638672"/>
    </g>
   </g>
   <g id="text_7">
    <!-- -1 -->
    <g style="fill: #262626" transform="translate(79.30125 52.144375) scale(0.1 -0.1)">
     <use xlink:href="#Roboto-Thin-2d"/>
     <use xlink:href="#Roboto-Thin-31" x="29.638672"/>
    </g>
   </g>
   <g id="text_8">
    <!-- 0 -->
    <g style="fill: #262626" transform="translate(107.963281 52.144375) scale(0.1 -0.1)">
     <use xlink:href="#Roboto-Thin-30"/>
    </g>
   </g>
   <g id="text_9">
    <!-- 1 -->
    <g style="fill: #262626" transform="translate(135.143281 52.144375) scale(0.1 -0.1)">
     <use xlink:href="#Roboto-Thin-31"/>
    </g>
   </g>
   <g id="text_10">
    <!-- 2 -->
    <g style="fill: #ffffff" transform="translate(162.323281 52.144375) scale(0.1 -0.1)">
     <use xlink:href="#Roboto-Thin-32"/>
    </g>
   </g>
  </g>
 </g>
 <defs>
  <clipPath id="p83b7c9da23">
   <rect x="42.75" y="8.64" width="135.9" height="54.36"/>
  </clipPath>
 </defs>
</svg>
