<?xml version="1.0" encoding="utf-8" standalone="no"?>
<!DOCTYPE svg PUBLIC "-//W3C//DTD SVG 1.1//EN"
  "http://www.w3.org/Graphics/SVG/1.1/DTD/svg11.dtd">
<svg xmlns:xlink="http://www.w3.org/1999/xlink" width="576pt" height="72pt" viewBox="0 0 576 72" xmlns="http://www.w3.org/2000/svg" version="1.1">
 <metadata>
  <rdf:RDF xmlns:dc="http://purl.org/dc/elements/1.1/" xmlns:cc="http://creativecommons.org/ns#" xmlns:rdf="http://www.w3.org/1999/02/22-rdf-syntax-ns#">
   <cc:Work>
    <dc:type rdf:resource="http://purl.org/dc/dcmitype/StillImage"/>
    <dc:date>2024-07-29T21:41:57.723359</dc:date>
    <dc:format>image/svg+xml</dc:format>
    <dc:creator>
     <cc:Agent>
      <dc:title>Matplotlib v3.9.1, https://matplotlib.org/</dc:title>
     </cc:Agent>
    </dc:creator>
   </cc:Work>
  </rdf:RDF>
 </metadata>
 <defs>
  <style type="text/css">*{stroke-linejoin: round; stroke-linecap: butt}</style>
 </defs>
 <g id="figure_1">
  <g id="patch_1">
   <path d="M 0 72 
L 576 72 
L 576 0 
L 0 0 
z
" style="fill: #ffffff"/>
  </g>
  <g id="axes_1">
   <g id="patch_2">
    <path d="M 72 50.7 
L 518.4 50.7 
L 518.4 20.94 
L 72 20.94 
z
" style="fill: #ffffff"/>
   </g>
   <g id="QuadMesh_1">
    <path d="M 72 20.94 
L 101.76 20.94 
L 101.76 50.7 
L 72 50.7 
L 72 20.94 
" clip-path="url(#peee74cee56)" style="fill: #313695; stroke: #ffffff; stroke-width: 0.5"/>
    <path d="M 101.76 20.94 
L 131.52 20.94 
L 131.52 50.7 
L 101.76 50.7 
L 101.76 20.94 
" clip-path="url(#peee74cee56)" style="fill: #3f62ab; stroke: #ffffff; stroke-width: 0.5"/>
    <path d="M 131.52 20.94 
L 161.28 20.94 
L 161.28 50.7 
L 131.52 50.7 
L 131.52 20.94 
" clip-path="url(#peee74cee56)" style="fill: #588cc0; stroke: #ffffff; stroke-width: 0.5"/>
    <path d="M 161.28 20.94 
L 191.04 20.94 
L 191.04 50.7 
L 161.28 50.7 
L 161.28 20.94 
" clip-path="url(#peee74cee56)" style="fill: #7ab2d4; stroke: #ffffff; stroke-width: 0.5"/>
    <path d="M 191.04 20.94 
L 220.8 20.94 
L 220.8 50.7 
L 191.04 50.7 
L 191.04 20.94 
" clip-path="url(#peee74cee56)" style="fill: #a3d3e6; stroke: #ffffff; stroke-width: 0.5"/>
    <path d="M 220.8 20.94 
L 250.56 20.94 
L 250.56 50.7 
L 220.8 50.7 
L 220.8 20.94 
" clip-path="url(#peee74cee56)" style="fill: #c9e8f2; stroke: #ffffff; stroke-width: 0.5"/>
    <path d="M 250.56 20.94 
L 280.32 20.94 
L 280.32 50.7 
L 250.56 50.7 
L 250.56 20.94 
" clip-path="url(#peee74cee56)" style="fill: #e9f6e8; stroke: #ffffff; stroke-width: 0.5"/>
    <path d="M 280.32 20.94 
L 310.08 20.94 
L 310.08 50.7 
L 280.32 50.7 
L 280.32 20.94 
" clip-path="url(#peee74cee56)" style="fill: #fffebe; stroke: #ffffff; stroke-width: 0.5"/>
    <path d="M 310.08 20.94 
L 339.84 20.94 
L 339.84 50.7 
L 310.08 50.7 
L 310.08 20.94 
" clip-path="url(#peee74cee56)" style="fill: #fee99d; stroke: #ffffff; stroke-width: 0.5"/>
    <path d="M 339.84 20.94 
L 369.6 20.94 
L 369.6 50.7 
L 339.84 50.7 
L 339.84 20.94 
" clip-path="url(#peee74cee56)" style="fill: #feca7c; stroke: #ffffff; stroke-width: 0.5"/>
    <path d="M 369.6 20.94 
L 399.36 20.94 
L 399.36 50.7 
L 369.6 50.7 
L 369.6 20.94 
" clip-path="url(#peee74cee56)" style="fill: #fca55d; stroke: #ffffff; stroke-width: 0.5"/>
    <path d="M 399.36 20.94 
L 429.12 20.94 
L 429.12 50.7 
L 399.36 50.7 
L 399.36 20.94 
" clip-path="url(#peee74cee56)" style="fill: #f57547; stroke: #ffffff; stroke-width: 0.5"/>
    <path d="M 429.12 20.94 
L 458.88 20.94 
L 458.88 50.7 
L 429.12 50.7 
L 429.12 20.94 
" clip-path="url(#peee74cee56)" style="fill: #e34933; stroke: #ffffff; stroke-width: 0.5"/>
    <path d="M 458.88 20.94 
L 488.64 20.94 
L 488.64 50.7 
L 458.88 50.7 
L 458.88 20.94 
" clip-path="url(#peee74cee56)" style="fill: #c82227; stroke: #ffffff; stroke-width: 0.5"/>
    <path d="M 488.64 20.94 
L 518.4 20.94 
L 518.4 50.7 
L 488.64 50.7 
L 488.64 20.94 
" clip-path="url(#peee74cee56)" style="fill: #a50026; stroke: #ffffff; stroke-width: 0.5"/>
   </g>
   <g id="matplotlib.axis_1"/>
   <g id="matplotlib.axis_2"/>
   <g id="text_1">
    <!-- -7 -->
    <g style="fill: #ffffff" transform="translate(82.66125 38.554375) scale(0.1 -0.1)">
     <defs>
      <path id="Roboto-Thin-2d" d="M 1659 2166 
L 1659 1997 
L 191 1997 
L 191 2166 
L 1659 2166 
z
" transform="scale(0.015625)"/>
      <path id="Roboto-Thin-37" d="M 3147 4550 
L 3147 4444 
L 1144 0 
L 972 0 
L 2953 4381 
L 241 4381 
L 241 4550 
L 3147 4550 
z
" transform="scale(0.015625)"/>
     </defs>
     <use xlink:href="#Roboto-Thin-2d"/>
     <use xlink:href="#Roboto-Thin-37" x="29.638672"/>
    </g>
   </g>
   <g id="text_2">
    <!-- -6 -->
    <g style="fill: #ffffff" transform="translate(112.42125 38.554375) scale(0.1 -0.1)">
     <defs>
      <path id="Roboto-Thin-36" d="M 3166 1500 
Q 3166 838 2808 387 
Q 2450 -63 1881 -63 
Q 1250 -63 825 368 
Q 400 800 400 1538 
L 400 2063 
Q 400 2969 695 3531 
Q 991 4094 1483 4353 
Q 1975 4613 2566 4613 
L 2625 4613 
L 2625 4444 
Q 1431 4444 894 3547 
Q 603 3066 572 2291 
Q 744 2591 1078 2791 
Q 1413 2991 1850 2991 
Q 2478 2991 2822 2567 
Q 3166 2144 3166 1500 
z
M 569 1541 
Q 569 888 937 495 
Q 1306 103 1881 103 
Q 2394 103 2695 525 
Q 2997 947 2997 1500 
Q 2997 2053 2706 2437 
Q 2416 2822 1828 2822 
Q 1391 2822 1025 2570 
Q 659 2319 569 1944 
L 569 1541 
z
" transform="scale(0.015625)"/>
     </defs>
     <use xlink:href="#Roboto-Thin-2d"/>
     <use xlink:href="#Roboto-Thin-36" x="29.638672"/>
    </g>
   </g>
   <g id="text_3">
    <!-- -5 -->
    <g style="fill: #ffffff" transform="translate(142.18125 38.554375) scale(0.1 -0.1)">
     <defs>
      <path id="Roboto-Thin-35" d="M 850 2331 
L 722 2381 
L 934 4550 
L 3153 4550 
L 3153 4384 
L 1088 4384 
L 903 2559 
Q 1016 2656 1277 2759 
Q 1538 2863 1856 2863 
Q 2444 2863 2822 2489 
Q 3200 2116 3200 1450 
Q 3200 797 2903 367 
Q 2606 -63 1919 -63 
Q 1384 -63 1001 246 
Q 619 556 569 1197 
L 741 1197 
Q 841 106 1919 106 
Q 3028 106 3028 1444 
Q 3028 1978 2726 2336 
Q 2425 2694 1859 2694 
Q 1500 2694 1264 2595 
Q 1028 2497 850 2331 
z
" transform="scale(0.015625)"/>
     </defs>
     <use xlink:href="#Roboto-Thin-2d"/>
     <use xlink:href="#Roboto-Thin-35" x="29.638672"/>
    </g>
   </g>
   <g id="text_4">
    <!-- -4 -->
    <g style="fill: #262626" transform="translate(171.94125 38.554375) scale(0.1 -0.1)">
     <defs>
      <path id="Roboto-Thin-34" d="M 256 1334 
L 2428 4550 
L 2631 4550 
L 2631 1409 
L 3419 1409 
L 3419 1241 
L 2631 1241 
L 2631 0 
L 2463 0 
L 2463 1241 
L 256 1241 
L 256 1334 
z
M 519 1409 
L 2463 1409 
L 2463 4350 
L 2200 3916 
L 519 1409 
z
" transform="scale(0.015625)"/>
     </defs>
     <use xlink:href="#Roboto-Thin-2d"/>
     <use xlink:href="#Roboto-Thin-34" x="29.638672"/>
    </g>
   </g>
   <g id="text_5">
    <!-- -3 -->
    <g style="fill: #262626" transform="translate(201.70125 38.554375) scale(0.1 -0.1)">
     <defs>
      <path id="Roboto-Thin-33" d="M 1303 2231 
L 1303 2406 
L 1663 2406 
Q 2253 2409 2565 2704 
Q 2878 3000 2878 3391 
Q 2878 3819 2611 4131 
Q 2344 4444 1763 4444 
Q 1269 4444 928 4153 
Q 588 3863 588 3356 
L 419 3356 
Q 419 3941 816 4277 
Q 1213 4613 1763 4613 
Q 2350 4613 2698 4283 
Q 3047 3953 3047 3378 
Q 3047 3019 2820 2734 
Q 2594 2450 2197 2328 
Q 2644 2225 2895 1939 
Q 3147 1653 3147 1206 
Q 3147 600 2762 268 
Q 2378 -63 1791 -63 
Q 1450 -63 1111 78 
Q 772 219 547 512 
Q 322 806 322 1266 
L 491 1266 
Q 491 759 862 432 
Q 1234 106 1791 106 
Q 2356 106 2667 395 
Q 2978 684 2978 1194 
Q 2978 1750 2604 1990 
Q 2231 2231 1650 2231 
L 1303 2231 
z
" transform="scale(0.015625)"/>
     </defs>
     <use xlink:href="#Roboto-Thin-2d"/>
     <use xlink:href="#Roboto-Thin-33" x="29.638672"/>
    </g>
   </g>
   <g id="text_6">
    <!-- -2 -->
    <g style="fill: #262626" transform="translate(231.46125 38.554375) scale(0.1 -0.1)">
     <defs>
      <path id="Roboto-Thin-32" d="M 3200 169 
L 3200 0 
L 478 0 
L 478 169 
L 2047 1978 
Q 2784 2856 2784 3391 
Q 2784 3875 2503 4159 
Q 2222 4444 1675 4444 
Q 1184 4444 859 4108 
Q 534 3772 534 3266 
L 366 3266 
Q 366 3819 730 4216 
Q 1094 4613 1675 4613 
Q 2263 4613 2609 4300 
Q 2956 3988 2956 3391 
Q 2956 2969 2657 2536 
Q 2359 2103 1997 1681 
L 700 169 
L 3200 169 
z
" transform="scale(0.015625)"/>
     </defs>
     <use xlink:href="#Roboto-Thin-2d"/>
     <use xlink:href="#Roboto-Thin-32" x="29.638672"/>
    </g>
   </g>
   <g id="text_7">
    <!-- -1 -->
    <g style="fill: #262626" transform="translate(261.22125 38.554375) scale(0.1 -0.1)">
     <defs>
      <path id="Roboto-Thin-31" d="M 2059 4563 
L 2059 0 
L 1891 0 
L 1891 4338 
L 584 3847 
L 584 4031 
L 2025 4563 
L 2059 4563 
z
" transform="scale(0.015625)"/>
     </defs>
     <use xlink:href="#Roboto-Thin-2d"/>
     <use xlink:href="#Roboto-Thin-31" x="29.638672"/>
    </g>
   </g>
   <g id="text_8">
    <!-- 0 -->
    <g style="fill: #262626" transform="translate(292.463281 38.554375) scale(0.1 -0.1)">
     <defs>
      <path id="Roboto-Thin-30" d="M 3113 1856 
Q 3113 966 2766 451 
Q 2419 -63 1756 -63 
Q 1103 -63 747 451 
Q 391 966 391 1856 
L 391 2694 
Q 391 3584 742 4100 
Q 1094 4616 1750 4616 
Q 2409 4616 2761 4100 
Q 3113 3584 3113 2694 
L 3113 1856 
z
M 2944 2694 
Q 2944 3475 2650 3961 
Q 2356 4447 1750 4447 
Q 1147 4447 853 3961 
Q 559 3475 559 2694 
L 559 1863 
Q 559 1094 856 600 
Q 1153 106 1756 106 
Q 2363 106 2653 600 
Q 2944 1094 2944 1863 
L 2944 2694 
z
" transform="scale(0.015625)"/>
     </defs>
     <use xlink:href="#Roboto-Thin-30"/>
    </g>
   </g>
   <g id="text_9">
    <!-- 1 -->
    <g style="fill: #262626" transform="translate(322.223281 38.554375) scale(0.1 -0.1)">
     <use xlink:href="#Roboto-Thin-31"/>
    </g>
   </g>
   <g id="text_10">
    <!-- 2 -->
    <g style="fill: #262626" transform="translate(351.983281 38.554375) scale(0.1 -0.1)">
     <use xlink:href="#Roboto-Thin-32"/>
    </g>
   </g>
   <g id="text_11">
    <!-- 3 -->
    <g style="fill: #262626" transform="translate(381.743281 38.554375) scale(0.1 -0.1)">
     <use xlink:href="#Roboto-Thin-33"/>
    </g>
   </g>
   <g id="text_12">
    <!-- 4 -->
    <g style="fill: #ffffff" transform="translate(411.503281 38.554375) scale(0.1 -0.1)">
     <use xlink:href="#Roboto-Thin-34"/>
    </g>
   </g>
   <g id="text_13">
    <!-- 5 -->
    <g style="fill: #ffffff" transform="translate(441.263281 38.554375) scale(0.1 -0.1)">
     <use xlink:href="#Roboto-Thin-35"/>
    </g>
   </g>
   <g id="text_14">
    <!-- 6 -->
    <g style="fill: #ffffff" transform="translate(471.023281 38.554375) scale(0.1 -0.1)">
     <use xlink:href="#Roboto-Thin-36"/>
    </g>
   </g>
   <g id="text_15">
    <!-- 7 -->
    <g style="fill: #ffffff" transform="translate(500.783281 38.554375) scale(0.1 -0.1)">
     <use xlink:href="#Roboto-Thin-37"/>
    </g>
   </g>
  </g>
 </g>
 <defs>
  <clipPath id="peee74cee56">
   <rect x="72" y="20.94" width="446.4" height="29.76"/>
  </clipPath>
 </defs>
</svg>
