<?xml version="1.0" encoding="utf-8" standalone="no"?>
<!DOCTYPE svg PUBLIC "-//W3C//DTD SVG 1.1//EN"
  "http://www.w3.org/Graphics/SVG/1.1/DTD/svg11.dtd">
<svg xmlns:xlink="http://www.w3.org/1999/xlink" width="432pt" height="288pt" viewBox="0 0 432 288" xmlns="http://www.w3.org/2000/svg" version="1.1">
 <metadata>
  <rdf:RDF xmlns:dc="http://purl.org/dc/elements/1.1/" xmlns:cc="http://creativecommons.org/ns#" xmlns:rdf="http://www.w3.org/1999/02/22-rdf-syntax-ns#">
   <cc:Work>
    <dc:type rdf:resource="http://purl.org/dc/dcmitype/StillImage"/>
    <dc:date>2024-07-09T20:40:17.418806</dc:date>
    <dc:format>image/svg+xml</dc:format>
    <dc:creator>
     <cc:Agent>
      <dc:title>Matplotlib v3.5.2, https://matplotlib.org/</dc:title>
     </cc:Agent>
    </dc:creator>
   </cc:Work>
  </rdf:RDF>
 </metadata>
 <defs>
  <style type="text/css">*{stroke-linejoin: round; stroke-linecap: butt}</style>
 </defs>
 <g id="figure_1">
  <g id="patch_1">
   <path d="M 0 288 
L 432 288 
L 432 0 
L 0 0 
z
" style="fill: #ffffff"/>
  </g>
  <g id="axes_1">
   <g id="patch_2">
    <path d="M 61.123404 149.21617 
C 62.697695 149.21617 64.207719 148.590698 65.32091 147.477506 
C 66.434102 146.364315 67.059574 144.854291 67.059574 143.28 
C 67.059574 141.705709 66.434102 140.195685 65.32091 139.082494 
C 64.207719 137.969302 62.697695 137.34383 61.123404 137.34383 
C 59.549114 137.34383 58.03909 137.969302 56.925898 139.082494 
C 55.812706 140.195685 55.187234 141.705709 55.187234 143.28 
C 55.187234 144.854291 55.812706 146.364315 56.925898 147.477506 
C 58.03909 148.590698 59.549114 149.21617 61.123404 149.21617 
z
" clip-path="url(#pb993938097)" style="fill: #313695; stroke: #ffffff; stroke-linejoin: miter"/>
   </g>
   <g id="patch_3">
    <path d="M 72.995745 149.21617 
C 74.570035 149.21617 76.080059 148.590698 77.193251 147.477506 
C 78.306443 146.364315 78.931915 144.854291 78.931915 143.28 
C 78.931915 141.705709 78.306443 140.195685 77.193251 139.082494 
C 76.080059 137.969302 74.570035 137.34383 72.995745 137.34383 
C 71.421454 137.34383 69.91143 137.969302 68.798238 139.082494 
C 67.685047 140.195685 67.059574 141.705709 67.059574 143.28 
C 67.059574 144.854291 67.685047 146.364315 68.798238 147.477506 
C 69.91143 148.590698 71.421454 149.21617 72.995745 149.21617 
z
" clip-path="url(#pb993938097)" style="fill: #384ca0; stroke: #ffffff; stroke-linejoin: miter"/>
   </g>
   <g id="patch_4">
    <path d="M 84.868085 149.21617 
C 86.442376 149.21617 87.9524 148.590698 89.065591 147.477506 
C 90.178783 146.364315 90.804255 144.854291 90.804255 143.28 
C 90.804255 141.705709 90.178783 140.195685 89.065591 139.082494 
C 87.9524 137.969302 86.442376 137.34383 84.868085 137.34383 
C 83.293794 137.34383 81.783771 137.969302 80.670579 139.082494 
C 79.557387 140.195685 78.931915 141.705709 78.931915 143.28 
C 78.931915 144.854291 79.557387 146.364315 80.670579 147.477506 
C 81.783771 148.590698 83.293794 149.21617 84.868085 149.21617 
z
" clip-path="url(#pb993938097)" style="fill: #4065ac; stroke: #ffffff; stroke-linejoin: miter"/>
   </g>
   <g id="patch_5">
    <path d="M 96.740426 149.21617 
C 98.314716 149.21617 99.82474 148.590698 100.937932 147.477506 
C 102.051123 146.364315 102.676596 144.854291 102.676596 143.28 
C 102.676596 141.705709 102.051123 140.195685 100.937932 139.082494 
C 99.82474 137.969302 98.314716 137.34383 96.740426 137.34383 
C 95.166135 137.34383 93.656111 137.969302 92.542919 139.082494 
C 91.429728 140.195685 90.804255 141.705709 90.804255 143.28 
C 90.804255 144.854291 91.429728 146.364315 92.542919 147.477506 
C 93.656111 148.590698 95.166135 149.21617 96.740426 149.21617 
z
" clip-path="url(#pb993938097)" style="fill: #4b7db8; stroke: #ffffff; stroke-linejoin: miter"/>
   </g>
   <g id="patch_6">
    <path d="M 108.612766 149.21617 
C 110.187057 149.21617 111.697081 148.590698 112.810272 147.477506 
C 113.923464 146.364315 114.548936 144.854291 114.548936 143.28 
C 114.548936 141.705709 113.923464 140.195685 112.810272 139.082494 
C 111.697081 137.969302 110.187057 137.34383 108.612766 137.34383 
C 107.038475 137.34383 105.528451 137.969302 104.41526 139.082494 
C 103.302068 140.195685 102.676596 141.705709 102.676596 143.28 
C 102.676596 144.854291 103.302068 146.364315 104.41526 147.477506 
C 105.528451 148.590698 107.038475 149.21617 108.612766 149.21617 
z
" clip-path="url(#pb993938097)" style="fill: #5e93c3; stroke: #ffffff; stroke-linejoin: miter"/>
   </g>
   <g id="patch_7">
    <path d="M 120.485106 149.21617 
C 122.059397 149.21617 123.569421 148.590698 124.682613 147.477506 
C 125.795804 146.364315 126.421277 144.854291 126.421277 143.28 
C 126.421277 141.705709 125.795804 140.195685 124.682613 139.082494 
C 123.569421 137.969302 122.059397 137.34383 120.485106 137.34383 
C 118.910816 137.34383 117.400792 137.969302 116.2876 139.082494 
C 115.174409 140.195685 114.548936 141.705709 114.548936 143.28 
C 114.548936 144.854291 115.174409 146.364315 116.2876 147.477506 
C 117.400792 148.590698 118.910816 149.21617 120.485106 149.21617 
z
" clip-path="url(#pb993938097)" style="fill: #70a9cf; stroke: #ffffff; stroke-linejoin: miter"/>
   </g>
   <g id="patch_8">
    <path d="M 132.357447 149.21617 
C 133.931738 149.21617 135.441761 148.590698 136.554953 147.477506 
C 137.668145 146.364315 138.293617 144.854291 138.293617 143.28 
C 138.293617 141.705709 137.668145 140.195685 136.554953 139.082494 
C 135.441761 137.969302 133.931738 137.34383 132.357447 137.34383 
C 130.783156 137.34383 129.273132 137.969302 128.159941 139.082494 
C 127.046749 140.195685 126.421277 141.705709 126.421277 143.28 
C 126.421277 144.854291 127.046749 146.364315 128.159941 147.477506 
C 129.273132 148.590698 130.783156 149.21617 132.357447 149.21617 
z
" clip-path="url(#pb993938097)" style="fill: #85bbd9; stroke: #ffffff; stroke-linejoin: miter"/>
   </g>
   <g id="patch_9">
    <path d="M 144.229787 149.21617 
C 145.804078 149.21617 147.314102 148.590698 148.427293 147.477506 
C 149.540485 146.364315 150.165957 144.854291 150.165957 143.28 
C 150.165957 141.705709 149.540485 140.195685 148.427293 139.082494 
C 147.314102 137.969302 145.804078 137.34383 144.229787 137.34383 
C 142.655496 137.34383 141.145473 137.969302 140.032281 139.082494 
C 138.919089 140.195685 138.293617 141.705709 138.293617 143.28 
C 138.293617 144.854291 138.919089 146.364315 140.032281 147.477506 
C 141.145473 148.590698 142.655496 149.21617 144.229787 149.21617 
z
" clip-path="url(#pb993938097)" style="fill: #99cae1; stroke: #ffffff; stroke-linejoin: miter"/>
   </g>
   <g id="patch_10">
    <path d="M 156.102128 149.21617 
C 157.676418 149.21617 159.186442 148.590698 160.299634 147.477506 
C 161.412826 146.364315 162.038298 144.854291 162.038298 143.28 
C 162.038298 141.705709 161.412826 140.195685 160.299634 139.082494 
C 159.186442 137.969302 157.676418 137.34383 156.102128 137.34383 
C 154.527837 137.34383 153.017813 137.969302 151.904621 139.082494 
C 150.79143 140.195685 150.165957 141.705709 150.165957 143.28 
C 150.165957 144.854291 150.79143 146.364315 151.904621 147.477506 
C 153.017813 148.590698 154.527837 149.21617 156.102128 149.21617 
z
" clip-path="url(#pb993938097)" style="fill: #aedbea; stroke: #ffffff; stroke-linejoin: miter"/>
   </g>
   <g id="patch_11">
    <path d="M 167.974468 149.21617 
C 169.548759 149.21617 171.058783 148.590698 172.171974 147.477506 
C 173.285166 146.364315 173.910638 144.854291 173.910638 143.28 
C 173.910638 141.705709 173.285166 140.195685 172.171974 139.082494 
C 171.058783 137.969302 169.548759 137.34383 167.974468 137.34383 
C 166.400177 137.34383 164.890154 137.969302 163.776962 139.082494 
C 162.66377 140.195685 162.038298 141.705709 162.038298 143.28 
C 162.038298 144.854291 162.66377 146.364315 163.776962 147.477506 
C 164.890154 148.590698 166.400177 149.21617 167.974468 149.21617 
z
" clip-path="url(#pb993938097)" style="fill: #c3e5f0; stroke: #ffffff; stroke-linejoin: miter"/>
   </g>
   <g id="patch_12">
    <path d="M 179.846809 149.21617 
C 181.421099 149.21617 182.931123 148.590698 184.044315 147.477506 
C 185.157506 146.364315 185.782979 144.854291 185.782979 143.28 
C 185.782979 141.705709 185.157506 140.195685 184.044315 139.082494 
C 182.931123 137.969302 181.421099 137.34383 179.846809 137.34383 
C 178.272518 137.34383 176.762494 137.969302 175.649302 139.082494 
C 174.536111 140.195685 173.910638 141.705709 173.910638 143.28 
C 173.910638 144.854291 174.536111 146.364315 175.649302 147.477506 
C 176.762494 148.590698 178.272518 149.21617 179.846809 149.21617 
z
" clip-path="url(#pb993938097)" style="fill: #d8eff6; stroke: #ffffff; stroke-linejoin: miter"/>
   </g>
   <g id="patch_13">
    <path d="M 191.719149 149.21617 
C 193.29344 149.21617 194.803463 148.590698 195.916655 147.477506 
C 197.029847 146.364315 197.655319 144.854291 197.655319 143.28 
C 197.655319 141.705709 197.029847 140.195685 195.916655 139.082494 
C 194.803463 137.969302 193.29344 137.34383 191.719149 137.34383 
C 190.144858 137.34383 188.634834 137.969302 187.521643 139.082494 
C 186.408451 140.195685 185.782979 141.705709 185.782979 143.28 
C 185.782979 144.854291 186.408451 146.364315 187.521643 147.477506 
C 188.634834 148.590698 190.144858 149.21617 191.719149 149.21617 
z
" clip-path="url(#pb993938097)" style="fill: #e7f6eb; stroke: #ffffff; stroke-linejoin: miter"/>
   </g>
   <g id="patch_14">
    <path d="M 203.591489 149.21617 
C 205.16578 149.21617 206.675804 148.590698 207.788996 147.477506 
C 208.902187 146.364315 209.52766 144.854291 209.52766 143.28 
C 209.52766 141.705709 208.902187 140.195685 207.788996 139.082494 
C 206.675804 137.969302 205.16578 137.34383 203.591489 137.34383 
C 202.017199 137.34383 200.507175 137.969302 199.393983 139.082494 
C 198.280791 140.195685 197.655319 141.705709 197.655319 143.28 
C 197.655319 144.854291 198.280791 146.364315 199.393983 147.477506 
C 200.507175 148.590698 202.017199 149.21617 203.591489 149.21617 
z
" clip-path="url(#pb993938097)" style="fill: #f3fbd4; stroke: #ffffff; stroke-linejoin: miter"/>
   </g>
   <g id="patch_15">
    <path d="M 215.46383 149.21617 
C 217.038121 149.21617 218.548144 148.590698 219.661336 147.477506 
C 220.774528 146.364315 221.4 144.854291 221.4 143.28 
C 221.4 141.705709 220.774528 140.195685 219.661336 139.082494 
C 218.548144 137.969302 217.038121 137.34383 215.46383 137.34383 
C 213.889539 137.34383 212.379515 137.969302 211.266324 139.082494 
C 210.153132 140.195685 209.52766 141.705709 209.52766 143.28 
C 209.52766 144.854291 210.153132 146.364315 211.266324 147.477506 
C 212.379515 148.590698 213.889539 149.21617 215.46383 149.21617 
z
" clip-path="url(#pb993938097)" style="fill: #fffebe; stroke: #ffffff; stroke-linejoin: miter"/>
   </g>
   <g id="patch_16">
    <path d="M 227.33617 149.21617 
C 228.910461 149.21617 230.420485 148.590698 231.533676 147.477506 
C 232.646868 146.364315 233.27234 144.854291 233.27234 143.28 
C 233.27234 141.705709 232.646868 140.195685 231.533676 139.082494 
C 230.420485 137.969302 228.910461 137.34383 227.33617 137.34383 
C 225.761879 137.34383 224.251856 137.969302 223.138664 139.082494 
C 222.025472 140.195685 221.4 141.705709 221.4 143.28 
C 221.4 144.854291 222.025472 146.364315 223.138664 147.477506 
C 224.251856 148.590698 225.761879 149.21617 227.33617 149.21617 
z
" clip-path="url(#pb993938097)" style="fill: #fff3ad; stroke: #ffffff; stroke-linejoin: miter"/>
   </g>
   <g id="patch_17">
    <path d="M 239.208511 149.21617 
C 240.782801 149.21617 242.292825 148.590698 243.406017 147.477506 
C 244.519209 146.364315 245.144681 144.854291 245.144681 143.28 
C 245.144681 141.705709 244.519209 140.195685 243.406017 139.082494 
C 242.292825 137.969302 240.782801 137.34383 239.208511 137.34383 
C 237.63422 137.34383 236.124196 137.969302 235.011004 139.082494 
C 233.897813 140.195685 233.27234 141.705709 233.27234 143.28 
C 233.27234 144.854291 233.897813 146.364315 235.011004 147.477506 
C 236.124196 148.590698 237.63422 149.21617 239.208511 149.21617 
z
" clip-path="url(#pb993938097)" style="fill: #fee79b; stroke: #ffffff; stroke-linejoin: miter"/>
   </g>
   <g id="patch_18">
    <path d="M 251.080851 149.21617 
C 252.655142 149.21617 254.165166 148.590698 255.278357 147.477506 
C 256.391549 146.364315 257.017021 144.854291 257.017021 143.28 
C 257.017021 141.705709 256.391549 140.195685 255.278357 139.082494 
C 254.165166 137.969302 252.655142 137.34383 251.080851 137.34383 
C 249.50656 137.34383 247.996537 137.969302 246.883345 139.082494 
C 245.770153 140.195685 245.144681 141.705709 245.144681 143.28 
C 245.144681 144.854291 245.770153 146.364315 246.883345 147.477506 
C 247.996537 148.590698 249.50656 149.21617 251.080851 149.21617 
z
" clip-path="url(#pb993938097)" style="fill: #fed889; stroke: #ffffff; stroke-linejoin: miter"/>
   </g>
   <g id="patch_19">
    <path d="M 262.953191 149.21617 
C 264.527482 149.21617 266.037506 148.590698 267.150698 147.477506 
C 268.263889 146.364315 268.889362 144.854291 268.889362 143.28 
C 268.889362 141.705709 268.263889 140.195685 267.150698 139.082494 
C 266.037506 137.969302 264.527482 137.34383 262.953191 137.34383 
C 261.378901 137.34383 259.868877 137.969302 258.755685 139.082494 
C 257.642494 140.195685 257.017021 141.705709 257.017021 143.28 
C 257.017021 144.854291 257.642494 146.364315 258.755685 147.477506 
C 259.868877 148.590698 261.378901 149.21617 262.953191 149.21617 
z
" clip-path="url(#pb993938097)" style="fill: #fdc576; stroke: #ffffff; stroke-linejoin: miter"/>
   </g>
   <g id="patch_20">
    <path d="M 274.825532 149.21617 
C 276.399823 149.21617 277.909846 148.590698 279.023038 147.477506 
C 280.13623 146.364315 280.761702 144.854291 280.761702 143.28 
C 280.761702 141.705709 280.13623 140.195685 279.023038 139.082494 
C 277.909846 137.969302 276.399823 137.34383 274.825532 137.34383 
C 273.251241 137.34383 271.741217 137.969302 270.628026 139.082494 
C 269.514834 140.195685 268.889362 141.705709 268.889362 143.28 
C 268.889362 144.854291 269.514834 146.364315 270.628026 147.477506 
C 271.741217 148.590698 273.251241 149.21617 274.825532 149.21617 
z
" clip-path="url(#pb993938097)" style="fill: #fdb164; stroke: #ffffff; stroke-linejoin: miter"/>
   </g>
   <g id="patch_21">
    <path d="M 286.697872 149.21617 
C 288.272163 149.21617 289.782187 148.590698 290.895379 147.477506 
C 292.00857 146.364315 292.634043 144.854291 292.634043 143.28 
C 292.634043 141.705709 292.00857 140.195685 290.895379 139.082494 
C 289.782187 137.969302 288.272163 137.34383 286.697872 137.34383 
C 285.123582 137.34383 283.613558 137.969302 282.500366 139.082494 
C 281.387174 140.195685 280.761702 141.705709 280.761702 143.28 
C 280.761702 144.854291 281.387174 146.364315 282.500366 147.477506 
C 283.613558 148.590698 285.123582 149.21617 286.697872 149.21617 
z
" clip-path="url(#pb993938097)" style="fill: #fa9857; stroke: #ffffff; stroke-linejoin: miter"/>
   </g>
   <g id="patch_22">
    <path d="M 298.570213 149.21617 
C 300.144504 149.21617 301.654527 148.590698 302.767719 147.477506 
C 303.880911 146.364315 304.506383 144.854291 304.506383 143.28 
C 304.506383 141.705709 303.880911 140.195685 302.767719 139.082494 
C 301.654527 137.969302 300.144504 137.34383 298.570213 137.34383 
C 296.995922 137.34383 295.485898 137.969302 294.372707 139.082494 
C 293.259515 140.195685 292.634043 141.705709 292.634043 143.28 
C 292.634043 144.854291 293.259515 146.364315 294.372707 147.477506 
C 295.485898 148.590698 296.995922 149.21617 298.570213 149.21617 
z
" clip-path="url(#pb993938097)" style="fill: #f7814c; stroke: #ffffff; stroke-linejoin: miter"/>
   </g>
   <g id="patch_23">
    <path d="M 310.442553 149.21617 
C 312.016844 149.21617 313.526868 148.590698 314.640059 147.477506 
C 315.753251 146.364315 316.378723 144.854291 316.378723 143.28 
C 316.378723 141.705709 315.753251 140.195685 314.640059 139.082494 
C 313.526868 137.969302 312.016844 137.34383 310.442553 137.34383 
C 308.868262 137.34383 307.358239 137.969302 306.245047 139.082494 
C 305.131855 140.195685 304.506383 141.705709 304.506383 143.28 
C 304.506383 144.854291 305.131855 146.364315 306.245047 147.477506 
C 307.358239 148.590698 308.868262 149.21617 310.442553 149.21617 
z
" clip-path="url(#pb993938097)" style="fill: #f26841; stroke: #ffffff; stroke-linejoin: miter"/>
   </g>
   <g id="patch_24">
    <path d="M 322.314894 149.21617 
C 323.889184 149.21617 325.399208 148.590698 326.5124 147.477506 
C 327.625591 146.364315 328.251064 144.854291 328.251064 143.28 
C 328.251064 141.705709 327.625591 140.195685 326.5124 139.082494 
C 325.399208 137.969302 323.889184 137.34383 322.314894 137.34383 
C 320.740603 137.34383 319.230579 137.969302 318.117387 139.082494 
C 317.004196 140.195685 316.378723 141.705709 316.378723 143.28 
C 316.378723 144.854291 317.004196 146.364315 318.117387 147.477506 
C 319.230579 148.590698 320.740603 149.21617 322.314894 149.21617 
z
" clip-path="url(#pb993938097)" style="fill: #e65036; stroke: #ffffff; stroke-linejoin: miter"/>
   </g>
   <g id="patch_25">
    <path d="M 334.187234 149.21617 
C 335.761525 149.21617 337.271549 148.590698 338.38474 147.477506 
C 339.497932 146.364315 340.123404 144.854291 340.123404 143.28 
C 340.123404 141.705709 339.497932 140.195685 338.38474 139.082494 
C 337.271549 137.969302 335.761525 137.34383 334.187234 137.34383 
C 332.612943 137.34383 331.102919 137.969302 329.989728 139.082494 
C 328.876536 140.195685 328.251064 141.705709 328.251064 143.28 
C 328.251064 144.854291 328.876536 146.364315 329.989728 147.477506 
C 331.102919 148.590698 332.612943 149.21617 334.187234 149.21617 
z
" clip-path="url(#pb993938097)" style="fill: #db382b; stroke: #ffffff; stroke-linejoin: miter"/>
   </g>
   <g id="patch_26">
    <path d="M 346.059574 149.21617 
C 347.633865 149.21617 349.143889 148.590698 350.257081 147.477506 
C 351.370272 146.364315 351.995745 144.854291 351.995745 143.28 
C 351.995745 141.705709 351.370272 140.195685 350.257081 139.082494 
C 349.143889 137.969302 347.633865 137.34383 346.059574 137.34383 
C 344.485284 137.34383 342.97526 137.969302 341.862068 139.082494 
C 340.748877 140.195685 340.123404 141.705709 340.123404 143.28 
C 340.123404 144.854291 340.748877 146.364315 341.862068 147.477506 
C 342.97526 148.590698 344.485284 149.21617 346.059574 149.21617 
z
" clip-path="url(#pb993938097)" style="fill: #ca2427; stroke: #ffffff; stroke-linejoin: miter"/>
   </g>
   <g id="patch_27">
    <path d="M 357.931915 149.21617 
C 359.506206 149.21617 361.016229 148.590698 362.129421 147.477506 
C 363.242613 146.364315 363.868085 144.854291 363.868085 143.28 
C 363.868085 141.705709 363.242613 140.195685 362.129421 139.082494 
C 361.016229 137.969302 359.506206 137.34383 357.931915 137.34383 
C 356.357624 137.34383 354.8476 137.969302 353.734409 139.082494 
C 352.621217 140.195685 351.995745 141.705709 351.995745 143.28 
C 351.995745 144.854291 352.621217 146.364315 353.734409 147.477506 
C 354.8476 148.590698 356.357624 149.21617 357.931915 149.21617 
z
" clip-path="url(#pb993938097)" style="fill: #b71126; stroke: #ffffff; stroke-linejoin: miter"/>
   </g>
   <g id="patch_28">
    <path d="M 369.804255 149.21617 
C 371.378546 149.21617 372.88857 148.590698 374.001762 147.477506 
C 375.114953 146.364315 375.740426 144.854291 375.740426 143.28 
C 375.740426 141.705709 375.114953 140.195685 374.001762 139.082494 
C 372.88857 137.969302 371.378546 137.34383 369.804255 137.34383 
C 368.229965 137.34383 366.719941 137.969302 365.606749 139.082494 
C 364.493557 140.195685 363.868085 141.705709 363.868085 143.28 
C 363.868085 144.854291 364.493557 146.364315 365.606749 147.477506 
C 366.719941 148.590698 368.229965 149.21617 369.804255 149.21617 
z
" clip-path="url(#pb993938097)" style="fill: #a50026; stroke: #ffffff; stroke-linejoin: miter"/>
   </g>
   <g id="text_1">
    <!-- -13 -->
    <g transform="translate(52.956998 146.039375)scale(0.1 -0.1)">
     <defs>
      <path id="DejaVuSans-2d" d="M 313 2009 
L 1997 2009 
L 1997 1497 
L 313 1497 
L 313 2009 
z
" transform="scale(0.015625)"/>
      <path id="DejaVuSans-31" d="M 794 531 
L 1825 531 
L 1825 4091 
L 703 3866 
L 703 4441 
L 1819 4666 
L 2450 4666 
L 2450 531 
L 3481 531 
L 3481 0 
L 794 0 
L 794 531 
z
" transform="scale(0.015625)"/>
      <path id="DejaVuSans-33" d="M 2597 2516 
Q 3050 2419 3304 2112 
Q 3559 1806 3559 1356 
Q 3559 666 3084 287 
Q 2609 -91 1734 -91 
Q 1441 -91 1130 -33 
Q 819 25 488 141 
L 488 750 
Q 750 597 1062 519 
Q 1375 441 1716 441 
Q 2309 441 2620 675 
Q 2931 909 2931 1356 
Q 2931 1769 2642 2001 
Q 2353 2234 1838 2234 
L 1294 2234 
L 1294 2753 
L 1863 2753 
Q 2328 2753 2575 2939 
Q 2822 3125 2822 3475 
Q 2822 3834 2567 4026 
Q 2313 4219 1838 4219 
Q 1578 4219 1281 4162 
Q 984 4106 628 3988 
L 628 4550 
Q 988 4650 1302 4700 
Q 1616 4750 1894 4750 
Q 2613 4750 3031 4423 
Q 3450 4097 3450 3541 
Q 3450 3153 3228 2886 
Q 3006 2619 2597 2516 
z
" transform="scale(0.015625)"/>
     </defs>
     <use xlink:href="#DejaVuSans-2d"/>
     <use xlink:href="#DejaVuSans-31" x="36.083984"/>
     <use xlink:href="#DejaVuSans-33" x="99.707031"/>
    </g>
   </g>
   <g id="text_2">
    <!-- -12 -->
    <g transform="translate(64.829338 146.039375)scale(0.1 -0.1)">
     <defs>
      <path id="DejaVuSans-32" d="M 1228 531 
L 3431 531 
L 3431 0 
L 469 0 
L 469 531 
Q 828 903 1448 1529 
Q 2069 2156 2228 2338 
Q 2531 2678 2651 2914 
Q 2772 3150 2772 3378 
Q 2772 3750 2511 3984 
Q 2250 4219 1831 4219 
Q 1534 4219 1204 4116 
Q 875 4013 500 3803 
L 500 4441 
Q 881 4594 1212 4672 
Q 1544 4750 1819 4750 
Q 2544 4750 2975 4387 
Q 3406 4025 3406 3419 
Q 3406 3131 3298 2873 
Q 3191 2616 2906 2266 
Q 2828 2175 2409 1742 
Q 1991 1309 1228 531 
z
" transform="scale(0.015625)"/>
     </defs>
     <use xlink:href="#DejaVuSans-2d"/>
     <use xlink:href="#DejaVuSans-31" x="36.083984"/>
     <use xlink:href="#DejaVuSans-32" x="99.707031"/>
    </g>
   </g>
   <g id="text_3">
    <!-- -11 -->
    <g transform="translate(76.701679 146.039375)scale(0.1 -0.1)">
     <use xlink:href="#DejaVuSans-2d"/>
     <use xlink:href="#DejaVuSans-31" x="36.083984"/>
     <use xlink:href="#DejaVuSans-31" x="99.707031"/>
    </g>
   </g>
   <g id="text_4">
    <!-- -10 -->
    <g transform="translate(88.574019 146.039375)scale(0.1 -0.1)">
     <defs>
      <path id="DejaVuSans-30" d="M 2034 4250 
Q 1547 4250 1301 3770 
Q 1056 3291 1056 2328 
Q 1056 1369 1301 889 
Q 1547 409 2034 409 
Q 2525 409 2770 889 
Q 3016 1369 3016 2328 
Q 3016 3291 2770 3770 
Q 2525 4250 2034 4250 
z
M 2034 4750 
Q 2819 4750 3233 4129 
Q 3647 3509 3647 2328 
Q 3647 1150 3233 529 
Q 2819 -91 2034 -91 
Q 1250 -91 836 529 
Q 422 1150 422 2328 
Q 422 3509 836 4129 
Q 1250 4750 2034 4750 
z
" transform="scale(0.015625)"/>
     </defs>
     <use xlink:href="#DejaVuSans-2d"/>
     <use xlink:href="#DejaVuSans-31" x="36.083984"/>
     <use xlink:href="#DejaVuSans-30" x="99.707031"/>
    </g>
   </g>
   <g id="text_5">
    <!-- -9 -->
    <g transform="translate(103.62761 146.039375)scale(0.1 -0.1)">
     <defs>
      <path id="DejaVuSans-39" d="M 703 97 
L 703 672 
Q 941 559 1184 500 
Q 1428 441 1663 441 
Q 2288 441 2617 861 
Q 2947 1281 2994 2138 
Q 2813 1869 2534 1725 
Q 2256 1581 1919 1581 
Q 1219 1581 811 2004 
Q 403 2428 403 3163 
Q 403 3881 828 4315 
Q 1253 4750 1959 4750 
Q 2769 4750 3195 4129 
Q 3622 3509 3622 2328 
Q 3622 1225 3098 567 
Q 2575 -91 1691 -91 
Q 1453 -91 1209 -44 
Q 966 3 703 97 
z
M 1959 2075 
Q 2384 2075 2632 2365 
Q 2881 2656 2881 3163 
Q 2881 3666 2632 3958 
Q 2384 4250 1959 4250 
Q 1534 4250 1286 3958 
Q 1038 3666 1038 3163 
Q 1038 2656 1286 2365 
Q 1534 2075 1959 2075 
z
" transform="scale(0.015625)"/>
     </defs>
     <use xlink:href="#DejaVuSans-2d"/>
     <use xlink:href="#DejaVuSans-39" x="36.083984"/>
    </g>
   </g>
   <g id="text_6">
    <!-- -8 -->
    <g transform="translate(115.49995 146.039375)scale(0.1 -0.1)">
     <defs>
      <path id="DejaVuSans-38" d="M 2034 2216 
Q 1584 2216 1326 1975 
Q 1069 1734 1069 1313 
Q 1069 891 1326 650 
Q 1584 409 2034 409 
Q 2484 409 2743 651 
Q 3003 894 3003 1313 
Q 3003 1734 2745 1975 
Q 2488 2216 2034 2216 
z
M 1403 2484 
Q 997 2584 770 2862 
Q 544 3141 544 3541 
Q 544 4100 942 4425 
Q 1341 4750 2034 4750 
Q 2731 4750 3128 4425 
Q 3525 4100 3525 3541 
Q 3525 3141 3298 2862 
Q 3072 2584 2669 2484 
Q 3125 2378 3379 2068 
Q 3634 1759 3634 1313 
Q 3634 634 3220 271 
Q 2806 -91 2034 -91 
Q 1263 -91 848 271 
Q 434 634 434 1313 
Q 434 1759 690 2068 
Q 947 2378 1403 2484 
z
M 1172 3481 
Q 1172 3119 1398 2916 
Q 1625 2713 2034 2713 
Q 2441 2713 2670 2916 
Q 2900 3119 2900 3481 
Q 2900 3844 2670 4047 
Q 2441 4250 2034 4250 
Q 1625 4250 1398 4047 
Q 1172 3844 1172 3481 
z
" transform="scale(0.015625)"/>
     </defs>
     <use xlink:href="#DejaVuSans-2d"/>
     <use xlink:href="#DejaVuSans-38" x="36.083984"/>
    </g>
   </g>
   <g id="text_7">
    <!-- -7 -->
    <g transform="translate(127.372291 146.039375)scale(0.1 -0.1)">
     <defs>
      <path id="DejaVuSans-37" d="M 525 4666 
L 3525 4666 
L 3525 4397 
L 1831 0 
L 1172 0 
L 2766 4134 
L 525 4134 
L 525 4666 
z
" transform="scale(0.015625)"/>
     </defs>
     <use xlink:href="#DejaVuSans-2d"/>
     <use xlink:href="#DejaVuSans-37" x="36.083984"/>
    </g>
   </g>
   <g id="text_8">
    <!-- -6 -->
    <g transform="translate(139.244631 146.039375)scale(0.1 -0.1)">
     <defs>
      <path id="DejaVuSans-36" d="M 2113 2584 
Q 1688 2584 1439 2293 
Q 1191 2003 1191 1497 
Q 1191 994 1439 701 
Q 1688 409 2113 409 
Q 2538 409 2786 701 
Q 3034 994 3034 1497 
Q 3034 2003 2786 2293 
Q 2538 2584 2113 2584 
z
M 3366 4563 
L 3366 3988 
Q 3128 4100 2886 4159 
Q 2644 4219 2406 4219 
Q 1781 4219 1451 3797 
Q 1122 3375 1075 2522 
Q 1259 2794 1537 2939 
Q 1816 3084 2150 3084 
Q 2853 3084 3261 2657 
Q 3669 2231 3669 1497 
Q 3669 778 3244 343 
Q 2819 -91 2113 -91 
Q 1303 -91 875 529 
Q 447 1150 447 2328 
Q 447 3434 972 4092 
Q 1497 4750 2381 4750 
Q 2619 4750 2861 4703 
Q 3103 4656 3366 4563 
z
" transform="scale(0.015625)"/>
     </defs>
     <use xlink:href="#DejaVuSans-2d"/>
     <use xlink:href="#DejaVuSans-36" x="36.083984"/>
    </g>
   </g>
   <g id="text_9">
    <!-- -5 -->
    <g transform="translate(151.116971 146.039375)scale(0.1 -0.1)">
     <defs>
      <path id="DejaVuSans-35" d="M 691 4666 
L 3169 4666 
L 3169 4134 
L 1269 4134 
L 1269 2991 
Q 1406 3038 1543 3061 
Q 1681 3084 1819 3084 
Q 2600 3084 3056 2656 
Q 3513 2228 3513 1497 
Q 3513 744 3044 326 
Q 2575 -91 1722 -91 
Q 1428 -91 1123 -41 
Q 819 9 494 109 
L 494 744 
Q 775 591 1075 516 
Q 1375 441 1709 441 
Q 2250 441 2565 725 
Q 2881 1009 2881 1497 
Q 2881 1984 2565 2268 
Q 2250 2553 1709 2553 
Q 1456 2553 1204 2497 
Q 953 2441 691 2322 
L 691 4666 
z
" transform="scale(0.015625)"/>
     </defs>
     <use xlink:href="#DejaVuSans-2d"/>
     <use xlink:href="#DejaVuSans-35" x="36.083984"/>
    </g>
   </g>
   <g id="text_10">
    <!-- -4 -->
    <g transform="translate(162.989312 146.039375)scale(0.1 -0.1)">
     <defs>
      <path id="DejaVuSans-34" d="M 2419 4116 
L 825 1625 
L 2419 1625 
L 2419 4116 
z
M 2253 4666 
L 3047 4666 
L 3047 1625 
L 3713 1625 
L 3713 1100 
L 3047 1100 
L 3047 0 
L 2419 0 
L 2419 1100 
L 313 1100 
L 313 1709 
L 2253 4666 
z
" transform="scale(0.015625)"/>
     </defs>
     <use xlink:href="#DejaVuSans-2d"/>
     <use xlink:href="#DejaVuSans-34" x="36.083984"/>
    </g>
   </g>
   <g id="text_11">
    <!-- -3 -->
    <g transform="translate(174.861652 146.039375)scale(0.1 -0.1)">
     <use xlink:href="#DejaVuSans-2d"/>
     <use xlink:href="#DejaVuSans-33" x="36.083984"/>
    </g>
   </g>
   <g id="text_12">
    <!-- -2 -->
    <g transform="translate(186.733993 146.039375)scale(0.1 -0.1)">
     <use xlink:href="#DejaVuSans-2d"/>
     <use xlink:href="#DejaVuSans-32" x="36.083984"/>
    </g>
   </g>
   <g id="text_13">
    <!-- -1 -->
    <g transform="translate(198.606333 146.039375)scale(0.1 -0.1)">
     <use xlink:href="#DejaVuSans-2d"/>
     <use xlink:href="#DejaVuSans-31" x="36.083984"/>
    </g>
   </g>
   <g id="text_14">
    <!-- 0 -->
    <g transform="translate(212.28258 146.039375)scale(0.1 -0.1)">
     <use xlink:href="#DejaVuSans-30"/>
    </g>
   </g>
   <g id="text_15">
    <!-- 1 -->
    <g transform="translate(224.15492 146.039375)scale(0.1 -0.1)">
     <use xlink:href="#DejaVuSans-31"/>
    </g>
   </g>
   <g id="text_16">
    <!-- 2 -->
    <g transform="translate(236.027261 146.039375)scale(0.1 -0.1)">
     <use xlink:href="#DejaVuSans-32"/>
    </g>
   </g>
   <g id="text_17">
    <!-- 3 -->
    <g transform="translate(247.899601 146.039375)scale(0.1 -0.1)">
     <use xlink:href="#DejaVuSans-33"/>
    </g>
   </g>
   <g id="text_18">
    <!-- 4 -->
    <g transform="translate(259.771941 146.039375)scale(0.1 -0.1)">
     <use xlink:href="#DejaVuSans-34"/>
    </g>
   </g>
   <g id="text_19">
    <!-- 5 -->
    <g transform="translate(271.644282 146.039375)scale(0.1 -0.1)">
     <use xlink:href="#DejaVuSans-35"/>
    </g>
   </g>
   <g id="text_20">
    <!-- 6 -->
    <g transform="translate(283.516622 146.039375)scale(0.1 -0.1)">
     <use xlink:href="#DejaVuSans-36"/>
    </g>
   </g>
   <g id="text_21">
    <!-- 7 -->
    <g transform="translate(295.388963 146.039375)scale(0.1 -0.1)">
     <use xlink:href="#DejaVuSans-37"/>
    </g>
   </g>
   <g id="text_22">
    <!-- 8 -->
    <g transform="translate(307.261303 146.039375)scale(0.1 -0.1)">
     <use xlink:href="#DejaVuSans-38"/>
    </g>
   </g>
   <g id="text_23">
    <!-- 9 -->
    <g transform="translate(319.133644 146.039375)scale(0.1 -0.1)">
     <use xlink:href="#DejaVuSans-39"/>
    </g>
   </g>
   <g id="text_24">
    <!-- 10 -->
    <g transform="translate(327.824734 146.039375)scale(0.1 -0.1)">
     <use xlink:href="#DejaVuSans-31"/>
     <use xlink:href="#DejaVuSans-30" x="63.623047"/>
    </g>
   </g>
   <g id="text_25">
    <!-- 11 -->
    <g transform="translate(339.697074 146.039375)scale(0.1 -0.1)">
     <use xlink:href="#DejaVuSans-31"/>
     <use xlink:href="#DejaVuSans-31" x="63.623047"/>
    </g>
   </g>
   <g id="text_26">
    <!-- 12 -->
    <g transform="translate(351.569415 146.039375)scale(0.1 -0.1)">
     <use xlink:href="#DejaVuSans-31"/>
     <use xlink:href="#DejaVuSans-32" x="63.623047"/>
    </g>
   </g>
   <g id="text_27">
    <!-- 13 -->
    <g transform="translate(363.441755 146.039375)scale(0.1 -0.1)">
     <use xlink:href="#DejaVuSans-31"/>
     <use xlink:href="#DejaVuSans-33" x="63.623047"/>
    </g>
   </g>
  </g>
 </g>
 <defs>
  <clipPath id="pb993938097">
   <rect x="54" y="136.156596" width="334.8" height="14.246809"/>
  </clipPath>
 </defs>
</svg>
