<?xml version="1.0" encoding="utf-8" standalone="no"?>
<!DOCTYPE svg PUBLIC "-//W3C//DTD SVG 1.1//EN"
  "http://www.w3.org/Graphics/SVG/1.1/DTD/svg11.dtd">
<svg xmlns:xlink="http://www.w3.org/1999/xlink" width="432pt" height="288pt" viewBox="0 0 432 288" xmlns="http://www.w3.org/2000/svg" version="1.1">
 <metadata>
  <rdf:RDF xmlns:dc="http://purl.org/dc/elements/1.1/" xmlns:cc="http://creativecommons.org/ns#" xmlns:rdf="http://www.w3.org/1999/02/22-rdf-syntax-ns#">
   <cc:Work>
    <dc:type rdf:resource="http://purl.org/dc/dcmitype/StillImage"/>
    <dc:date>2024-07-09T20:40:17.109607</dc:date>
    <dc:format>image/svg+xml</dc:format>
    <dc:creator>
     <cc:Agent>
      <dc:title>Matplotlib v3.5.2, https://matplotlib.org/</dc:title>
     </cc:Agent>
    </dc:creator>
   </cc:Work>
  </rdf:RDF>
 </metadata>
 <defs>
  <style type="text/css">*{stroke-linejoin: round; stroke-linecap: butt}</style>
 </defs>
 <g id="figure_1">
  <g id="patch_1">
   <path d="M 0 288 
L 432 288 
L 432 0 
L 0 0 
z
" style="fill: #ffffff"/>
  </g>
  <g id="axes_1">
   <g id="patch_2">
    <path d="M 66.4 153.613333 
C 69.140432 153.613333 71.768992 152.524548 73.70677 150.58677 
C 75.644548 148.648992 76.733333 146.020432 76.733333 143.28 
C 76.733333 140.539568 75.644548 137.911008 73.70677 135.97323 
C 71.768992 134.035452 69.140432 132.946667 66.4 132.946667 
C 63.659568 132.946667 61.031008 134.035452 59.09323 135.97323 
C 57.155452 137.911008 56.066667 140.539568 56.066667 143.28 
C 56.066667 146.020432 57.155452 148.648992 59.09323 150.58677 
C 61.031008 152.524548 63.659568 153.613333 66.4 153.613333 
z
" clip-path="url(#p3d53231080)" style="fill: #313695; stroke: #ffffff; stroke-linejoin: miter"/>
   </g>
   <g id="patch_3">
    <path d="M 87.066667 153.613333 
C 89.807099 153.613333 92.435659 152.524548 94.373437 150.58677 
C 96.311215 148.648992 97.4 146.020432 97.4 143.28 
C 97.4 140.539568 96.311215 137.911008 94.373437 135.97323 
C 92.435659 134.035452 89.807099 132.946667 87.066667 132.946667 
C 84.326235 132.946667 81.697675 134.035452 79.759897 135.97323 
C 77.822119 137.911008 76.733333 140.539568 76.733333 143.28 
C 76.733333 146.020432 77.822119 148.648992 79.759897 150.58677 
C 81.697675 152.524548 84.326235 153.613333 87.066667 153.613333 
z
" clip-path="url(#p3d53231080)" style="fill: #3f62ab; stroke: #ffffff; stroke-linejoin: miter"/>
   </g>
   <g id="patch_4">
    <path d="M 107.733333 153.613333 
C 110.473765 153.613333 113.102325 152.524548 115.040103 150.58677 
C 116.977881 148.648992 118.066667 146.020432 118.066667 143.28 
C 118.066667 140.539568 116.977881 137.911008 115.040103 135.97323 
C 113.102325 134.035452 110.473765 132.946667 107.733333 132.946667 
C 104.992901 132.946667 102.364341 134.035452 100.426563 135.97323 
C 98.488785 137.911008 97.4 140.539568 97.4 143.28 
C 97.4 146.020432 98.488785 148.648992 100.426563 150.58677 
C 102.364341 152.524548 104.992901 153.613333 107.733333 153.613333 
z
" clip-path="url(#p3d53231080)" style="fill: #588cc0; stroke: #ffffff; stroke-linejoin: miter"/>
   </g>
   <g id="patch_5">
    <path d="M 128.4 153.613333 
C 131.140432 153.613333 133.768992 152.524548 135.70677 150.58677 
C 137.644548 148.648992 138.733333 146.020432 138.733333 143.28 
C 138.733333 140.539568 137.644548 137.911008 135.70677 135.97323 
C 133.768992 134.035452 131.140432 132.946667 128.4 132.946667 
C 125.659568 132.946667 123.031008 134.035452 121.09323 135.97323 
C 119.155452 137.911008 118.066667 140.539568 118.066667 143.28 
C 118.066667 146.020432 119.155452 148.648992 121.09323 150.58677 
C 123.031008 152.524548 125.659568 153.613333 128.4 153.613333 
z
" clip-path="url(#p3d53231080)" style="fill: #7ab2d4; stroke: #ffffff; stroke-linejoin: miter"/>
   </g>
   <g id="patch_6">
    <path d="M 149.066667 153.613333 
C 151.807099 153.613333 154.435659 152.524548 156.373437 150.58677 
C 158.311215 148.648992 159.4 146.020432 159.4 143.28 
C 159.4 140.539568 158.311215 137.911008 156.373437 135.97323 
C 154.435659 134.035452 151.807099 132.946667 149.066667 132.946667 
C 146.326235 132.946667 143.697675 134.035452 141.759897 135.97323 
C 139.822119 137.911008 138.733333 140.539568 138.733333 143.28 
C 138.733333 146.020432 139.822119 148.648992 141.759897 150.58677 
C 143.697675 152.524548 146.326235 153.613333 149.066667 153.613333 
z
" clip-path="url(#p3d53231080)" style="fill: #a3d3e6; stroke: #ffffff; stroke-linejoin: miter"/>
   </g>
   <g id="patch_7">
    <path d="M 169.733333 153.613333 
C 172.473765 153.613333 175.102325 152.524548 177.040103 150.58677 
C 178.977881 148.648992 180.066667 146.020432 180.066667 143.28 
C 180.066667 140.539568 178.977881 137.911008 177.040103 135.97323 
C 175.102325 134.035452 172.473765 132.946667 169.733333 132.946667 
C 166.992901 132.946667 164.364341 134.035452 162.426563 135.97323 
C 160.488785 137.911008 159.4 140.539568 159.4 143.28 
C 159.4 146.020432 160.488785 148.648992 162.426563 150.58677 
C 164.364341 152.524548 166.992901 153.613333 169.733333 153.613333 
z
" clip-path="url(#p3d53231080)" style="fill: #c9e8f2; stroke: #ffffff; stroke-linejoin: miter"/>
   </g>
   <g id="patch_8">
    <path d="M 190.4 153.613333 
C 193.140432 153.613333 195.768992 152.524548 197.70677 150.58677 
C 199.644548 148.648992 200.733333 146.020432 200.733333 143.28 
C 200.733333 140.539568 199.644548 137.911008 197.70677 135.97323 
C 195.768992 134.035452 193.140432 132.946667 190.4 132.946667 
C 187.659568 132.946667 185.031008 134.035452 183.09323 135.97323 
C 181.155452 137.911008 180.066667 140.539568 180.066667 143.28 
C 180.066667 146.020432 181.155452 148.648992 183.09323 150.58677 
C 185.031008 152.524548 187.659568 153.613333 190.4 153.613333 
z
" clip-path="url(#p3d53231080)" style="fill: #e9f6e8; stroke: #ffffff; stroke-linejoin: miter"/>
   </g>
   <g id="patch_9">
    <path d="M 211.066667 153.613333 
C 213.807099 153.613333 216.435659 152.524548 218.373437 150.58677 
C 220.311215 148.648992 221.4 146.020432 221.4 143.28 
C 221.4 140.539568 220.311215 137.911008 218.373437 135.97323 
C 216.435659 134.035452 213.807099 132.946667 211.066667 132.946667 
C 208.326235 132.946667 205.697675 134.035452 203.759897 135.97323 
C 201.822119 137.911008 200.733333 140.539568 200.733333 143.28 
C 200.733333 146.020432 201.822119 148.648992 203.759897 150.58677 
C 205.697675 152.524548 208.326235 153.613333 211.066667 153.613333 
z
" clip-path="url(#p3d53231080)" style="fill: #fffebe; stroke: #ffffff; stroke-linejoin: miter"/>
   </g>
   <g id="patch_10">
    <path d="M 231.733333 153.613333 
C 234.473765 153.613333 237.102325 152.524548 239.040103 150.58677 
C 240.977881 148.648992 242.066667 146.020432 242.066667 143.28 
C 242.066667 140.539568 240.977881 137.911008 239.040103 135.97323 
C 237.102325 134.035452 234.473765 132.946667 231.733333 132.946667 
C 228.992901 132.946667 226.364341 134.035452 224.426563 135.97323 
C 222.488785 137.911008 221.4 140.539568 221.4 143.28 
C 221.4 146.020432 222.488785 148.648992 224.426563 150.58677 
C 226.364341 152.524548 228.992901 153.613333 231.733333 153.613333 
z
" clip-path="url(#p3d53231080)" style="fill: #fee99d; stroke: #ffffff; stroke-linejoin: miter"/>
   </g>
   <g id="patch_11">
    <path d="M 252.4 153.613333 
C 255.140432 153.613333 257.768992 152.524548 259.70677 150.58677 
C 261.644548 148.648992 262.733333 146.020432 262.733333 143.28 
C 262.733333 140.539568 261.644548 137.911008 259.70677 135.97323 
C 257.768992 134.035452 255.140432 132.946667 252.4 132.946667 
C 249.659568 132.946667 247.031008 134.035452 245.09323 135.97323 
C 243.155452 137.911008 242.066667 140.539568 242.066667 143.28 
C 242.066667 146.020432 243.155452 148.648992 245.09323 150.58677 
C 247.031008 152.524548 249.659568 153.613333 252.4 153.613333 
z
" clip-path="url(#p3d53231080)" style="fill: #feca7c; stroke: #ffffff; stroke-linejoin: miter"/>
   </g>
   <g id="patch_12">
    <path d="M 273.066667 153.613333 
C 275.807099 153.613333 278.435659 152.524548 280.373437 150.58677 
C 282.311215 148.648992 283.4 146.020432 283.4 143.28 
C 283.4 140.539568 282.311215 137.911008 280.373437 135.97323 
C 278.435659 134.035452 275.807099 132.946667 273.066667 132.946667 
C 270.326235 132.946667 267.697675 134.035452 265.759897 135.97323 
C 263.822119 137.911008 262.733333 140.539568 262.733333 143.28 
C 262.733333 146.020432 263.822119 148.648992 265.759897 150.58677 
C 267.697675 152.524548 270.326235 153.613333 273.066667 153.613333 
z
" clip-path="url(#p3d53231080)" style="fill: #fca55d; stroke: #ffffff; stroke-linejoin: miter"/>
   </g>
   <g id="patch_13">
    <path d="M 293.733333 153.613333 
C 296.473765 153.613333 299.102325 152.524548 301.040103 150.58677 
C 302.977881 148.648992 304.066667 146.020432 304.066667 143.28 
C 304.066667 140.539568 302.977881 137.911008 301.040103 135.97323 
C 299.102325 134.035452 296.473765 132.946667 293.733333 132.946667 
C 290.992901 132.946667 288.364341 134.035452 286.426563 135.97323 
C 284.488785 137.911008 283.4 140.539568 283.4 143.28 
C 283.4 146.020432 284.488785 148.648992 286.426563 150.58677 
C 288.364341 152.524548 290.992901 153.613333 293.733333 153.613333 
z
" clip-path="url(#p3d53231080)" style="fill: #f57547; stroke: #ffffff; stroke-linejoin: miter"/>
   </g>
   <g id="patch_14">
    <path d="M 314.4 153.613333 
C 317.140432 153.613333 319.768992 152.524548 321.70677 150.58677 
C 323.644548 148.648992 324.733333 146.020432 324.733333 143.28 
C 324.733333 140.539568 323.644548 137.911008 321.70677 135.97323 
C 319.768992 134.035452 317.140432 132.946667 314.4 132.946667 
C 311.659568 132.946667 309.031008 134.035452 307.09323 135.97323 
C 305.155452 137.911008 304.066667 140.539568 304.066667 143.28 
C 304.066667 146.020432 305.155452 148.648992 307.09323 150.58677 
C 309.031008 152.524548 311.659568 153.613333 314.4 153.613333 
z
" clip-path="url(#p3d53231080)" style="fill: #e34933; stroke: #ffffff; stroke-linejoin: miter"/>
   </g>
   <g id="patch_15">
    <path d="M 335.066667 153.613333 
C 337.807099 153.613333 340.435659 152.524548 342.373437 150.58677 
C 344.311215 148.648992 345.4 146.020432 345.4 143.28 
C 345.4 140.539568 344.311215 137.911008 342.373437 135.97323 
C 340.435659 134.035452 337.807099 132.946667 335.066667 132.946667 
C 332.326235 132.946667 329.697675 134.035452 327.759897 135.97323 
C 325.822119 137.911008 324.733333 140.539568 324.733333 143.28 
C 324.733333 146.020432 325.822119 148.648992 327.759897 150.58677 
C 329.697675 152.524548 332.326235 153.613333 335.066667 153.613333 
z
" clip-path="url(#p3d53231080)" style="fill: #c82227; stroke: #ffffff; stroke-linejoin: miter"/>
   </g>
   <g id="patch_16">
    <path d="M 355.733333 153.613333 
C 358.473765 153.613333 361.102325 152.524548 363.040103 150.58677 
C 364.977881 148.648992 366.066667 146.020432 366.066667 143.28 
C 366.066667 140.539568 364.977881 137.911008 363.040103 135.97323 
C 361.102325 134.035452 358.473765 132.946667 355.733333 132.946667 
C 352.992901 132.946667 350.364341 134.035452 348.426563 135.97323 
C 346.488785 137.911008 345.4 140.539568 345.4 143.28 
C 345.4 146.020432 346.488785 148.648992 348.426563 150.58677 
C 350.364341 152.524548 352.992901 153.613333 355.733333 153.613333 
z
" clip-path="url(#p3d53231080)" style="fill: #a50026; stroke: #ffffff; stroke-linejoin: miter"/>
   </g>
   <g id="text_1">
    <!-- -7 -->
    <g transform="translate(61.414844 146.039375)scale(0.1 -0.1)">
     <defs>
      <path id="DejaVuSans-2d" d="M 313 2009 
L 1997 2009 
L 1997 1497 
L 313 1497 
L 313 2009 
z
" transform="scale(0.015625)"/>
      <path id="DejaVuSans-37" d="M 525 4666 
L 3525 4666 
L 3525 4397 
L 1831 0 
L 1172 0 
L 2766 4134 
L 525 4134 
L 525 4666 
z
" transform="scale(0.015625)"/>
     </defs>
     <use xlink:href="#DejaVuSans-2d"/>
     <use xlink:href="#DejaVuSans-37" x="36.083984"/>
    </g>
   </g>
   <g id="text_2">
    <!-- -6 -->
    <g transform="translate(82.08151 146.039375)scale(0.1 -0.1)">
     <defs>
      <path id="DejaVuSans-36" d="M 2113 2584 
Q 1688 2584 1439 2293 
Q 1191 2003 1191 1497 
Q 1191 994 1439 701 
Q 1688 409 2113 409 
Q 2538 409 2786 701 
Q 3034 994 3034 1497 
Q 3034 2003 2786 2293 
Q 2538 2584 2113 2584 
z
M 3366 4563 
L 3366 3988 
Q 3128 4100 2886 4159 
Q 2644 4219 2406 4219 
Q 1781 4219 1451 3797 
Q 1122 3375 1075 2522 
Q 1259 2794 1537 2939 
Q 1816 3084 2150 3084 
Q 2853 3084 3261 2657 
Q 3669 2231 3669 1497 
Q 3669 778 3244 343 
Q 2819 -91 2113 -91 
Q 1303 -91 875 529 
Q 447 1150 447 2328 
Q 447 3434 972 4092 
Q 1497 4750 2381 4750 
Q 2619 4750 2861 4703 
Q 3103 4656 3366 4563 
z
" transform="scale(0.015625)"/>
     </defs>
     <use xlink:href="#DejaVuSans-2d"/>
     <use xlink:href="#DejaVuSans-36" x="36.083984"/>
    </g>
   </g>
   <g id="text_3">
    <!-- -5 -->
    <g transform="translate(102.748177 146.039375)scale(0.1 -0.1)">
     <defs>
      <path id="DejaVuSans-35" d="M 691 4666 
L 3169 4666 
L 3169 4134 
L 1269 4134 
L 1269 2991 
Q 1406 3038 1543 3061 
Q 1681 3084 1819 3084 
Q 2600 3084 3056 2656 
Q 3513 2228 3513 1497 
Q 3513 744 3044 326 
Q 2575 -91 1722 -91 
Q 1428 -91 1123 -41 
Q 819 9 494 109 
L 494 744 
Q 775 591 1075 516 
Q 1375 441 1709 441 
Q 2250 441 2565 725 
Q 2881 1009 2881 1497 
Q 2881 1984 2565 2268 
Q 2250 2553 1709 2553 
Q 1456 2553 1204 2497 
Q 953 2441 691 2322 
L 691 4666 
z
" transform="scale(0.015625)"/>
     </defs>
     <use xlink:href="#DejaVuSans-2d"/>
     <use xlink:href="#DejaVuSans-35" x="36.083984"/>
    </g>
   </g>
   <g id="text_4">
    <!-- -4 -->
    <g transform="translate(123.414844 146.039375)scale(0.1 -0.1)">
     <defs>
      <path id="DejaVuSans-34" d="M 2419 4116 
L 825 1625 
L 2419 1625 
L 2419 4116 
z
M 2253 4666 
L 3047 4666 
L 3047 1625 
L 3713 1625 
L 3713 1100 
L 3047 1100 
L 3047 0 
L 2419 0 
L 2419 1100 
L 313 1100 
L 313 1709 
L 2253 4666 
z
" transform="scale(0.015625)"/>
     </defs>
     <use xlink:href="#DejaVuSans-2d"/>
     <use xlink:href="#DejaVuSans-34" x="36.083984"/>
    </g>
   </g>
   <g id="text_5">
    <!-- -3 -->
    <g transform="translate(144.08151 146.039375)scale(0.1 -0.1)">
     <defs>
      <path id="DejaVuSans-33" d="M 2597 2516 
Q 3050 2419 3304 2112 
Q 3559 1806 3559 1356 
Q 3559 666 3084 287 
Q 2609 -91 1734 -91 
Q 1441 -91 1130 -33 
Q 819 25 488 141 
L 488 750 
Q 750 597 1062 519 
Q 1375 441 1716 441 
Q 2309 441 2620 675 
Q 2931 909 2931 1356 
Q 2931 1769 2642 2001 
Q 2353 2234 1838 2234 
L 1294 2234 
L 1294 2753 
L 1863 2753 
Q 2328 2753 2575 2939 
Q 2822 3125 2822 3475 
Q 2822 3834 2567 4026 
Q 2313 4219 1838 4219 
Q 1578 4219 1281 4162 
Q 984 4106 628 3988 
L 628 4550 
Q 988 4650 1302 4700 
Q 1616 4750 1894 4750 
Q 2613 4750 3031 4423 
Q 3450 4097 3450 3541 
Q 3450 3153 3228 2886 
Q 3006 2619 2597 2516 
z
" transform="scale(0.015625)"/>
     </defs>
     <use xlink:href="#DejaVuSans-2d"/>
     <use xlink:href="#DejaVuSans-33" x="36.083984"/>
    </g>
   </g>
   <g id="text_6">
    <!-- -2 -->
    <g transform="translate(164.748177 146.039375)scale(0.1 -0.1)">
     <defs>
      <path id="DejaVuSans-32" d="M 1228 531 
L 3431 531 
L 3431 0 
L 469 0 
L 469 531 
Q 828 903 1448 1529 
Q 2069 2156 2228 2338 
Q 2531 2678 2651 2914 
Q 2772 3150 2772 3378 
Q 2772 3750 2511 3984 
Q 2250 4219 1831 4219 
Q 1534 4219 1204 4116 
Q 875 4013 500 3803 
L 500 4441 
Q 881 4594 1212 4672 
Q 1544 4750 1819 4750 
Q 2544 4750 2975 4387 
Q 3406 4025 3406 3419 
Q 3406 3131 3298 2873 
Q 3191 2616 2906 2266 
Q 2828 2175 2409 1742 
Q 1991 1309 1228 531 
z
" transform="scale(0.015625)"/>
     </defs>
     <use xlink:href="#DejaVuSans-2d"/>
     <use xlink:href="#DejaVuSans-32" x="36.083984"/>
    </g>
   </g>
   <g id="text_7">
    <!-- -1 -->
    <g transform="translate(185.414844 146.039375)scale(0.1 -0.1)">
     <defs>
      <path id="DejaVuSans-31" d="M 794 531 
L 1825 531 
L 1825 4091 
L 703 3866 
L 703 4441 
L 1819 4666 
L 2450 4666 
L 2450 531 
L 3481 531 
L 3481 0 
L 794 0 
L 794 531 
z
" transform="scale(0.015625)"/>
     </defs>
     <use xlink:href="#DejaVuSans-2d"/>
     <use xlink:href="#DejaVuSans-31" x="36.083984"/>
    </g>
   </g>
   <g id="text_8">
    <!-- 0 -->
    <g transform="translate(207.885417 146.039375)scale(0.1 -0.1)">
     <defs>
      <path id="DejaVuSans-30" d="M 2034 4250 
Q 1547 4250 1301 3770 
Q 1056 3291 1056 2328 
Q 1056 1369 1301 889 
Q 1547 409 2034 409 
Q 2525 409 2770 889 
Q 3016 1369 3016 2328 
Q 3016 3291 2770 3770 
Q 2525 4250 2034 4250 
z
M 2034 4750 
Q 2819 4750 3233 4129 
Q 3647 3509 3647 2328 
Q 3647 1150 3233 529 
Q 2819 -91 2034 -91 
Q 1250 -91 836 529 
Q 422 1150 422 2328 
Q 422 3509 836 4129 
Q 1250 4750 2034 4750 
z
" transform="scale(0.015625)"/>
     </defs>
     <use xlink:href="#DejaVuSans-30"/>
    </g>
   </g>
   <g id="text_9">
    <!-- 1 -->
    <g transform="translate(228.552083 146.039375)scale(0.1 -0.1)">
     <use xlink:href="#DejaVuSans-31"/>
    </g>
   </g>
   <g id="text_10">
    <!-- 2 -->
    <g transform="translate(249.21875 146.039375)scale(0.1 -0.1)">
     <use xlink:href="#DejaVuSans-32"/>
    </g>
   </g>
   <g id="text_11">
    <!-- 3 -->
    <g transform="translate(269.885417 146.039375)scale(0.1 -0.1)">
     <use xlink:href="#DejaVuSans-33"/>
    </g>
   </g>
   <g id="text_12">
    <!-- 4 -->
    <g transform="translate(290.552083 146.039375)scale(0.1 -0.1)">
     <use xlink:href="#DejaVuSans-34"/>
    </g>
   </g>
   <g id="text_13">
    <!-- 5 -->
    <g transform="translate(311.21875 146.039375)scale(0.1 -0.1)">
     <use xlink:href="#DejaVuSans-35"/>
    </g>
   </g>
   <g id="text_14">
    <!-- 6 -->
    <g transform="translate(331.885417 146.039375)scale(0.1 -0.1)">
     <use xlink:href="#DejaVuSans-36"/>
    </g>
   </g>
   <g id="text_15">
    <!-- 7 -->
    <g transform="translate(352.552083 146.039375)scale(0.1 -0.1)">
     <use xlink:href="#DejaVuSans-37"/>
    </g>
   </g>
  </g>
 </g>
 <defs>
  <clipPath id="p3d53231080">
   <rect x="54" y="130.88" width="334.8" height="24.8"/>
  </clipPath>
 </defs>
</svg>
