<?xml version="1.0" encoding="utf-8" standalone="no"?>
<!DOCTYPE svg PUBLIC "-//W3C//DTD SVG 1.1//EN"
  "http://www.w3.org/Graphics/SVG/1.1/DTD/svg11.dtd">
<svg xmlns:xlink="http://www.w3.org/1999/xlink" width="432pt" height="288pt" viewBox="0 0 432 288" xmlns="http://www.w3.org/2000/svg" version="1.1">
 <metadata>
  <rdf:RDF xmlns:dc="http://purl.org/dc/elements/1.1/" xmlns:cc="http://creativecommons.org/ns#" xmlns:rdf="http://www.w3.org/1999/02/22-rdf-syntax-ns#">
   <cc:Work>
    <dc:type rdf:resource="http://purl.org/dc/dcmitype/StillImage"/>
    <dc:date>2024-07-09T20:44:52.363280</dc:date>
    <dc:format>image/svg+xml</dc:format>
    <dc:creator>
     <cc:Agent>
      <dc:title>Matplotlib v3.5.2, https://matplotlib.org/</dc:title>
     </cc:Agent>
    </dc:creator>
   </cc:Work>
  </rdf:RDF>
 </metadata>
 <defs>
  <style type="text/css">*{stroke-linejoin: round; stroke-linecap: butt}</style>
 </defs>
 <g id="figure_1">
  <g id="patch_1">
   <path d="M 0 288 
L 432 288 
L 432 0 
L 0 0 
z
" style="fill: #ffffff"/>
  </g>
  <g id="axes_1">
   <g id="patch_2">
    <path d="M 71.935714 158.226429 
C 75.899553 158.226429 79.701578 156.651579 82.504435 153.848721 
C 85.307293 151.045863 86.882143 147.243839 86.882143 143.28 
C 86.882143 139.316161 85.307293 135.514137 82.504435 132.711279 
C 79.701578 129.908421 75.899553 128.333571 71.935714 128.333571 
C 67.971875 128.333571 64.169851 129.908421 61.366993 132.711279 
C 58.564136 135.514137 56.989286 139.316161 56.989286 143.28 
C 56.989286 147.243839 58.564136 151.045863 61.366993 153.848721 
C 64.169851 156.651579 67.971875 158.226429 71.935714 158.226429 
z
" clip-path="url(#pcc7f283f89)" style="fill: #313695; stroke: #ffffff; stroke-linejoin: miter"/>
   </g>
   <g id="patch_3">
    <path d="M 101.828571 158.226429 
C 105.792411 158.226429 109.594435 156.651579 112.397292 153.848721 
C 115.20015 151.045863 116.775 147.243839 116.775 143.28 
C 116.775 139.316161 115.20015 135.514137 112.397292 132.711279 
C 109.594435 129.908421 105.792411 128.333571 101.828571 128.333571 
C 97.864732 128.333571 94.062708 129.908421 91.25985 132.711279 
C 88.456993 135.514137 86.882143 139.316161 86.882143 143.28 
C 86.882143 147.243839 88.456993 151.045863 91.25985 153.848721 
C 94.062708 156.651579 97.864732 158.226429 101.828571 158.226429 
z
" clip-path="url(#pcc7f283f89)" style="fill: #4574b3; stroke: #ffffff; stroke-linejoin: miter"/>
   </g>
   <g id="patch_4">
    <path d="M 131.721429 158.226429 
C 135.685268 158.226429 139.487292 156.651579 142.29015 153.848721 
C 145.093007 151.045863 146.667857 147.243839 146.667857 143.28 
C 146.667857 139.316161 145.093007 135.514137 142.29015 132.711279 
C 139.487292 129.908421 135.685268 128.333571 131.721429 128.333571 
C 127.757589 128.333571 123.955565 129.908421 121.152708 132.711279 
C 118.34985 135.514137 116.775 139.316161 116.775 143.28 
C 116.775 147.243839 118.34985 151.045863 121.152708 153.848721 
C 123.955565 156.651579 127.757589 158.226429 131.721429 158.226429 
z
" clip-path="url(#pcc7f283f89)" style="fill: #74add1; stroke: #ffffff; stroke-linejoin: miter"/>
   </g>
   <g id="patch_5">
    <path d="M 161.614286 158.226429 
C 165.578125 158.226429 169.380149 156.651579 172.183007 153.848721 
C 174.985864 151.045863 176.560714 147.243839 176.560714 143.28 
C 176.560714 139.316161 174.985864 135.514137 172.183007 132.711279 
C 169.380149 129.908421 165.578125 128.333571 161.614286 128.333571 
C 157.650447 128.333571 153.848422 129.908421 151.045565 132.711279 
C 148.242707 135.514137 146.667857 139.316161 146.667857 143.28 
C 146.667857 147.243839 148.242707 151.045863 151.045565 153.848721 
C 153.848422 156.651579 157.650447 158.226429 161.614286 158.226429 
z
" clip-path="url(#pcc7f283f89)" style="fill: #aad8e9; stroke: #ffffff; stroke-linejoin: miter"/>
   </g>
   <g id="patch_6">
    <path d="M 191.507143 158.226429 
C 195.470982 158.226429 199.273006 156.651579 202.075864 153.848721 
C 204.878721 151.045863 206.453571 147.243839 206.453571 143.28 
C 206.453571 139.316161 204.878721 135.514137 202.075864 132.711279 
C 199.273006 129.908421 195.470982 128.333571 191.507143 128.333571 
C 187.543304 128.333571 183.741279 129.908421 180.938422 132.711279 
C 178.135564 135.514137 176.560714 139.316161 176.560714 143.28 
C 176.560714 147.243839 178.135564 151.045863 180.938422 153.848721 
C 183.741279 156.651579 187.543304 158.226429 191.507143 158.226429 
z
" clip-path="url(#pcc7f283f89)" style="fill: #e0f3f8; stroke: #ffffff; stroke-linejoin: miter"/>
   </g>
   <g id="patch_7">
    <path d="M 221.4 158.226429 
C 225.363839 158.226429 229.165863 156.651579 231.968721 153.848721 
C 234.771579 151.045863 236.346429 147.243839 236.346429 143.28 
C 236.346429 139.316161 234.771579 135.514137 231.968721 132.711279 
C 229.165863 129.908421 225.363839 128.333571 221.4 128.333571 
C 217.436161 128.333571 213.634137 129.908421 210.831279 132.711279 
C 208.028421 135.514137 206.453571 139.316161 206.453571 143.28 
C 206.453571 147.243839 208.028421 151.045863 210.831279 153.848721 
C 213.634137 156.651579 217.436161 158.226429 221.4 158.226429 
z
" clip-path="url(#pcc7f283f89)" style="fill: #fee090; stroke: #ffffff; stroke-linejoin: miter"/>
   </g>
   <g id="patch_8">
    <path d="M 251.292857 158.226429 
C 255.256696 158.226429 259.058721 156.651579 261.861578 153.848721 
C 264.664436 151.045863 266.239286 147.243839 266.239286 143.28 
C 266.239286 139.316161 264.664436 135.514137 261.861578 132.711279 
C 259.058721 129.908421 255.256696 128.333571 251.292857 128.333571 
C 247.329018 128.333571 243.526994 129.908421 240.724136 132.711279 
C 237.921279 135.514137 236.346429 139.316161 236.346429 143.28 
C 236.346429 147.243839 237.921279 151.045863 240.724136 153.848721 
C 243.526994 156.651579 247.329018 158.226429 251.292857 158.226429 
z
" clip-path="url(#pcc7f283f89)" style="fill: #fdad60; stroke: #ffffff; stroke-linejoin: miter"/>
   </g>
   <g id="patch_9">
    <path d="M 281.185714 158.226429 
C 285.149553 158.226429 288.951578 156.651579 291.754435 153.848721 
C 294.557293 151.045863 296.132143 147.243839 296.132143 143.28 
C 296.132143 139.316161 294.557293 135.514137 291.754435 132.711279 
C 288.951578 129.908421 285.149553 128.333571 281.185714 128.333571 
C 277.221875 128.333571 273.419851 129.908421 270.616993 132.711279 
C 267.814136 135.514137 266.239286 139.316161 266.239286 143.28 
C 266.239286 147.243839 267.814136 151.045863 270.616993 153.848721 
C 273.419851 156.651579 277.221875 158.226429 281.185714 158.226429 
z
" clip-path="url(#pcc7f283f89)" style="fill: #f46d43; stroke: #ffffff; stroke-linejoin: miter"/>
   </g>
   <g id="patch_10">
    <path d="M 311.078571 158.226429 
C 315.042411 158.226429 318.844435 156.651579 321.647292 153.848721 
C 324.45015 151.045863 326.025 147.243839 326.025 143.28 
C 326.025 139.316161 324.45015 135.514137 321.647292 132.711279 
C 318.844435 129.908421 315.042411 128.333571 311.078571 128.333571 
C 307.114732 128.333571 303.312708 129.908421 300.50985 132.711279 
C 297.706993 135.514137 296.132143 139.316161 296.132143 143.28 
C 296.132143 147.243839 297.706993 151.045863 300.50985 153.848721 
C 303.312708 156.651579 307.114732 158.226429 311.078571 158.226429 
z
" clip-path="url(#pcc7f283f89)" style="fill: #d62f27; stroke: #ffffff; stroke-linejoin: miter"/>
   </g>
   <g id="patch_11">
    <path d="M 340.971429 158.226429 
C 344.935268 158.226429 348.737292 156.651579 351.54015 153.848721 
C 354.343007 151.045863 355.917857 147.243839 355.917857 143.28 
C 355.917857 139.316161 354.343007 135.514137 351.54015 132.711279 
C 348.737292 129.908421 344.935268 128.333571 340.971429 128.333571 
C 337.007589 128.333571 333.205565 129.908421 330.402708 132.711279 
C 327.59985 135.514137 326.025 139.316161 326.025 143.28 
C 326.025 147.243839 327.59985 151.045863 330.402708 153.848721 
C 333.205565 156.651579 337.007589 158.226429 340.971429 158.226429 
z
" clip-path="url(#pcc7f283f89)" style="fill: #a50026; stroke: #ffffff; stroke-linejoin: miter"/>
   </g>
   <g id="text_1">
    <!-- -5.0 -->
    <g transform="translate(62.180246 146.039375)scale(0.1 -0.1)">
     <defs>
      <path id="DejaVuSans-2d" d="M 313 2009 
L 1997 2009 
L 1997 1497 
L 313 1497 
L 313 2009 
z
" transform="scale(0.015625)"/>
      <path id="DejaVuSans-35" d="M 691 4666 
L 3169 4666 
L 3169 4134 
L 1269 4134 
L 1269 2991 
Q 1406 3038 1543 3061 
Q 1681 3084 1819 3084 
Q 2600 3084 3056 2656 
Q 3513 2228 3513 1497 
Q 3513 744 3044 326 
Q 2575 -91 1722 -91 
Q 1428 -91 1123 -41 
Q 819 9 494 109 
L 494 744 
Q 775 591 1075 516 
Q 1375 441 1709 441 
Q 2250 441 2565 725 
Q 2881 1009 2881 1497 
Q 2881 1984 2565 2268 
Q 2250 2553 1709 2553 
Q 1456 2553 1204 2497 
Q 953 2441 691 2322 
L 691 4666 
z
" transform="scale(0.015625)"/>
      <path id="DejaVuSans-2e" d="M 684 794 
L 1344 794 
L 1344 0 
L 684 0 
L 684 794 
z
" transform="scale(0.015625)"/>
      <path id="DejaVuSans-30" d="M 2034 4250 
Q 1547 4250 1301 3770 
Q 1056 3291 1056 2328 
Q 1056 1369 1301 889 
Q 1547 409 2034 409 
Q 2525 409 2770 889 
Q 3016 1369 3016 2328 
Q 3016 3291 2770 3770 
Q 2525 4250 2034 4250 
z
M 2034 4750 
Q 2819 4750 3233 4129 
Q 3647 3509 3647 2328 
Q 3647 1150 3233 529 
Q 2819 -91 2034 -91 
Q 1250 -91 836 529 
Q 422 1150 422 2328 
Q 422 3509 836 4129 
Q 1250 4750 2034 4750 
z
" transform="scale(0.015625)"/>
     </defs>
     <use xlink:href="#DejaVuSans-2d"/>
     <use xlink:href="#DejaVuSans-35" x="36.083984"/>
     <use xlink:href="#DejaVuSans-2e" x="99.707031"/>
     <use xlink:href="#DejaVuSans-30" x="131.494141"/>
    </g>
   </g>
   <g id="text_2">
    <!-- -4.0 -->
    <g transform="translate(92.073103 146.039375)scale(0.1 -0.1)">
     <defs>
      <path id="DejaVuSans-34" d="M 2419 4116 
L 825 1625 
L 2419 1625 
L 2419 4116 
z
M 2253 4666 
L 3047 4666 
L 3047 1625 
L 3713 1625 
L 3713 1100 
L 3047 1100 
L 3047 0 
L 2419 0 
L 2419 1100 
L 313 1100 
L 313 1709 
L 2253 4666 
z
" transform="scale(0.015625)"/>
     </defs>
     <use xlink:href="#DejaVuSans-2d"/>
     <use xlink:href="#DejaVuSans-34" x="36.083984"/>
     <use xlink:href="#DejaVuSans-2e" x="99.707031"/>
     <use xlink:href="#DejaVuSans-30" x="131.494141"/>
    </g>
   </g>
   <g id="text_3">
    <!-- -3.0 -->
    <g transform="translate(121.96596 146.039375)scale(0.1 -0.1)">
     <defs>
      <path id="DejaVuSans-33" d="M 2597 2516 
Q 3050 2419 3304 2112 
Q 3559 1806 3559 1356 
Q 3559 666 3084 287 
Q 2609 -91 1734 -91 
Q 1441 -91 1130 -33 
Q 819 25 488 141 
L 488 750 
Q 750 597 1062 519 
Q 1375 441 1716 441 
Q 2309 441 2620 675 
Q 2931 909 2931 1356 
Q 2931 1769 2642 2001 
Q 2353 2234 1838 2234 
L 1294 2234 
L 1294 2753 
L 1863 2753 
Q 2328 2753 2575 2939 
Q 2822 3125 2822 3475 
Q 2822 3834 2567 4026 
Q 2313 4219 1838 4219 
Q 1578 4219 1281 4162 
Q 984 4106 628 3988 
L 628 4550 
Q 988 4650 1302 4700 
Q 1616 4750 1894 4750 
Q 2613 4750 3031 4423 
Q 3450 4097 3450 3541 
Q 3450 3153 3228 2886 
Q 3006 2619 2597 2516 
z
" transform="scale(0.015625)"/>
     </defs>
     <use xlink:href="#DejaVuSans-2d"/>
     <use xlink:href="#DejaVuSans-33" x="36.083984"/>
     <use xlink:href="#DejaVuSans-2e" x="99.707031"/>
     <use xlink:href="#DejaVuSans-30" x="131.494141"/>
    </g>
   </g>
   <g id="text_4">
    <!-- -2.0 -->
    <g transform="translate(151.858817 146.039375)scale(0.1 -0.1)">
     <defs>
      <path id="DejaVuSans-32" d="M 1228 531 
L 3431 531 
L 3431 0 
L 469 0 
L 469 531 
Q 828 903 1448 1529 
Q 2069 2156 2228 2338 
Q 2531 2678 2651 2914 
Q 2772 3150 2772 3378 
Q 2772 3750 2511 3984 
Q 2250 4219 1831 4219 
Q 1534 4219 1204 4116 
Q 875 4013 500 3803 
L 500 4441 
Q 881 4594 1212 4672 
Q 1544 4750 1819 4750 
Q 2544 4750 2975 4387 
Q 3406 4025 3406 3419 
Q 3406 3131 3298 2873 
Q 3191 2616 2906 2266 
Q 2828 2175 2409 1742 
Q 1991 1309 1228 531 
z
" transform="scale(0.015625)"/>
     </defs>
     <use xlink:href="#DejaVuSans-2d"/>
     <use xlink:href="#DejaVuSans-32" x="36.083984"/>
     <use xlink:href="#DejaVuSans-2e" x="99.707031"/>
     <use xlink:href="#DejaVuSans-30" x="131.494141"/>
    </g>
   </g>
   <g id="text_5">
    <!-- -1.0 -->
    <g transform="translate(181.751674 146.039375)scale(0.1 -0.1)">
     <defs>
      <path id="DejaVuSans-31" d="M 794 531 
L 1825 531 
L 1825 4091 
L 703 3866 
L 703 4441 
L 1819 4666 
L 2450 4666 
L 2450 531 
L 3481 531 
L 3481 0 
L 794 0 
L 794 531 
z
" transform="scale(0.015625)"/>
     </defs>
     <use xlink:href="#DejaVuSans-2d"/>
     <use xlink:href="#DejaVuSans-31" x="36.083984"/>
     <use xlink:href="#DejaVuSans-2e" x="99.707031"/>
     <use xlink:href="#DejaVuSans-30" x="131.494141"/>
    </g>
   </g>
   <g id="text_6">
    <!-- 1.0 -->
    <g transform="translate(213.448438 146.039375)scale(0.1 -0.1)">
     <use xlink:href="#DejaVuSans-31"/>
     <use xlink:href="#DejaVuSans-2e" x="63.623047"/>
     <use xlink:href="#DejaVuSans-30" x="95.410156"/>
    </g>
   </g>
   <g id="text_7">
    <!-- 2.0 -->
    <g transform="translate(243.341295 146.039375)scale(0.1 -0.1)">
     <use xlink:href="#DejaVuSans-32"/>
     <use xlink:href="#DejaVuSans-2e" x="63.623047"/>
     <use xlink:href="#DejaVuSans-30" x="95.410156"/>
    </g>
   </g>
   <g id="text_8">
    <!-- 3.0 -->
    <g transform="translate(273.234152 146.039375)scale(0.1 -0.1)">
     <use xlink:href="#DejaVuSans-33"/>
     <use xlink:href="#DejaVuSans-2e" x="63.623047"/>
     <use xlink:href="#DejaVuSans-30" x="95.410156"/>
    </g>
   </g>
   <g id="text_9">
    <!-- 4.0 -->
    <g transform="translate(303.127009 146.039375)scale(0.1 -0.1)">
     <use xlink:href="#DejaVuSans-34"/>
     <use xlink:href="#DejaVuSans-2e" x="63.623047"/>
     <use xlink:href="#DejaVuSans-30" x="95.410156"/>
    </g>
   </g>
   <g id="text_10">
    <!-- 5.0 -->
    <g transform="translate(333.019866 146.039375)scale(0.1 -0.1)">
     <use xlink:href="#DejaVuSans-35"/>
     <use xlink:href="#DejaVuSans-2e" x="63.623047"/>
     <use xlink:href="#DejaVuSans-30" x="95.410156"/>
    </g>
   </g>
  </g>
 </g>
 <defs>
  <clipPath id="pcc7f283f89">
   <rect x="54" y="125.344286" width="334.8" height="35.871429"/>
  </clipPath>
 </defs>
</svg>
