<?xml version="1.0" encoding="utf-8" standalone="no"?>
<!DOCTYPE svg PUBLIC "-//W3C//DTD SVG 1.1//EN"
  "http://www.w3.org/Graphics/SVG/1.1/DTD/svg11.dtd">
<svg xmlns:xlink="http://www.w3.org/1999/xlink" width="432pt" height="288pt" viewBox="0 0 432 288" xmlns="http://www.w3.org/2000/svg" version="1.1">
 <metadata>
  <rdf:RDF xmlns:dc="http://purl.org/dc/elements/1.1/" xmlns:cc="http://creativecommons.org/ns#" xmlns:rdf="http://www.w3.org/1999/02/22-rdf-syntax-ns#">
   <cc:Work>
    <dc:type rdf:resource="http://purl.org/dc/dcmitype/StillImage"/>
    <dc:date>2024-07-09T20:42:43.827445</dc:date>
    <dc:format>image/svg+xml</dc:format>
    <dc:creator>
     <cc:Agent>
      <dc:title>Matplotlib v3.5.2, https://matplotlib.org/</dc:title>
     </cc:Agent>
    </dc:creator>
   </cc:Work>
  </rdf:RDF>
 </metadata>
 <defs>
  <style type="text/css">*{stroke-linejoin: round; stroke-linecap: butt}</style>
 </defs>
 <g id="figure_1">
  <g id="patch_1">
   <path d="M 0 288 
L 432 288 
L 432 0 
L 0 0 
z
" style="fill: #ffffff"/>
  </g>
  <g id="axes_1">
   <g id="patch_2">
    <path d="M 86.4 170.28 
C 93.560484 170.28 100.428657 167.43511 105.491883 162.371883 
C 110.55511 157.308657 113.4 150.440484 113.4 143.28 
C 113.4 136.119516 110.55511 129.251343 105.491883 124.188117 
C 100.428657 119.12489 93.560484 116.28 86.4 116.28 
C 79.239516 116.28 72.371343 119.12489 67.308117 124.188117 
C 62.24489 129.251343 59.4 136.119516 59.4 143.28 
C 59.4 150.440484 62.24489 157.308657 67.308117 162.371883 
C 72.371343 167.43511 79.239516 170.28 86.4 170.28 
z
" clip-path="url(#pcdf45d4437)" style="fill: #313695; stroke: #ffffff; stroke-linejoin: miter"/>
   </g>
   <g id="patch_3">
    <path d="M 140.4 170.28 
C 147.560484 170.28 154.428657 167.43511 159.491883 162.371883 
C 164.55511 157.308657 167.4 150.440484 167.4 143.28 
C 167.4 136.119516 164.55511 129.251343 159.491883 124.188117 
C 154.428657 119.12489 147.560484 116.28 140.4 116.28 
C 133.239516 116.28 126.371343 119.12489 121.308117 124.188117 
C 116.24489 129.251343 113.4 136.119516 113.4 143.28 
C 113.4 150.440484 116.24489 157.308657 121.308117 162.371883 
C 126.371343 167.43511 133.239516 170.28 140.4 170.28 
z
" clip-path="url(#pcdf45d4437)" style="fill: #4574b3; stroke: #ffffff; stroke-linejoin: miter"/>
   </g>
   <g id="patch_4">
    <path d="M 194.4 170.28 
C 201.560484 170.28 208.428657 167.43511 213.491883 162.371883 
C 218.55511 157.308657 221.4 150.440484 221.4 143.28 
C 221.4 136.119516 218.55511 129.251343 213.491883 124.188117 
C 208.428657 119.12489 201.560484 116.28 194.4 116.28 
C 187.239516 116.28 180.371343 119.12489 175.308117 124.188117 
C 170.24489 129.251343 167.4 136.119516 167.4 143.28 
C 167.4 150.440484 170.24489 157.308657 175.308117 162.371883 
C 180.371343 167.43511 187.239516 170.28 194.4 170.28 
z
" clip-path="url(#pcdf45d4437)" style="fill: #74add1; stroke: #ffffff; stroke-linejoin: miter"/>
   </g>
   <g id="patch_5">
    <path d="M 248.4 170.28 
C 255.560484 170.28 262.428657 167.43511 267.491883 162.371883 
C 272.55511 157.308657 275.4 150.440484 275.4 143.28 
C 275.4 136.119516 272.55511 129.251343 267.491883 124.188117 
C 262.428657 119.12489 255.560484 116.28 248.4 116.28 
C 241.239516 116.28 234.371343 119.12489 229.308117 124.188117 
C 224.24489 129.251343 221.4 136.119516 221.4 143.28 
C 221.4 150.440484 224.24489 157.308657 229.308117 162.371883 
C 234.371343 167.43511 241.239516 170.28 248.4 170.28 
z
" clip-path="url(#pcdf45d4437)" style="fill: #aad8e9; stroke: #ffffff; stroke-linejoin: miter"/>
   </g>
   <g id="patch_6">
    <path d="M 302.4 170.28 
C 309.560484 170.28 316.428657 167.43511 321.491883 162.371883 
C 326.55511 157.308657 329.4 150.440484 329.4 143.28 
C 329.4 136.119516 326.55511 129.251343 321.491883 124.188117 
C 316.428657 119.12489 309.560484 116.28 302.4 116.28 
C 295.239516 116.28 288.371343 119.12489 283.308117 124.188117 
C 278.24489 129.251343 275.4 136.119516 275.4 143.28 
C 275.4 150.440484 278.24489 157.308657 283.308117 162.371883 
C 288.371343 167.43511 295.239516 170.28 302.4 170.28 
z
" clip-path="url(#pcdf45d4437)" style="fill: #e0f3f8; stroke: #ffffff; stroke-linejoin: miter"/>
   </g>
   <g id="text_1">
    <!-- -5.0 -->
    <g transform="translate(76.644531 146.039375)scale(0.1 -0.1)">
     <defs>
      <path id="DejaVuSans-2d" d="M 313 2009 
L 1997 2009 
L 1997 1497 
L 313 1497 
L 313 2009 
z
" transform="scale(0.015625)"/>
      <path id="DejaVuSans-35" d="M 691 4666 
L 3169 4666 
L 3169 4134 
L 1269 4134 
L 1269 2991 
Q 1406 3038 1543 3061 
Q 1681 3084 1819 3084 
Q 2600 3084 3056 2656 
Q 3513 2228 3513 1497 
Q 3513 744 3044 326 
Q 2575 -91 1722 -91 
Q 1428 -91 1123 -41 
Q 819 9 494 109 
L 494 744 
Q 775 591 1075 516 
Q 1375 441 1709 441 
Q 2250 441 2565 725 
Q 2881 1009 2881 1497 
Q 2881 1984 2565 2268 
Q 2250 2553 1709 2553 
Q 1456 2553 1204 2497 
Q 953 2441 691 2322 
L 691 4666 
z
" transform="scale(0.015625)"/>
      <path id="DejaVuSans-2e" d="M 684 794 
L 1344 794 
L 1344 0 
L 684 0 
L 684 794 
z
" transform="scale(0.015625)"/>
      <path id="DejaVuSans-30" d="M 2034 4250 
Q 1547 4250 1301 3770 
Q 1056 3291 1056 2328 
Q 1056 1369 1301 889 
Q 1547 409 2034 409 
Q 2525 409 2770 889 
Q 3016 1369 3016 2328 
Q 3016 3291 2770 3770 
Q 2525 4250 2034 4250 
z
M 2034 4750 
Q 2819 4750 3233 4129 
Q 3647 3509 3647 2328 
Q 3647 1150 3233 529 
Q 2819 -91 2034 -91 
Q 1250 -91 836 529 
Q 422 1150 422 2328 
Q 422 3509 836 4129 
Q 1250 4750 2034 4750 
z
" transform="scale(0.015625)"/>
     </defs>
     <use xlink:href="#DejaVuSans-2d"/>
     <use xlink:href="#DejaVuSans-35" x="36.083984"/>
     <use xlink:href="#DejaVuSans-2e" x="99.707031"/>
     <use xlink:href="#DejaVuSans-30" x="131.494141"/>
    </g>
   </g>
   <g id="text_2">
    <!-- -4.0 -->
    <g transform="translate(130.644531 146.039375)scale(0.1 -0.1)">
     <defs>
      <path id="DejaVuSans-34" d="M 2419 4116 
L 825 1625 
L 2419 1625 
L 2419 4116 
z
M 2253 4666 
L 3047 4666 
L 3047 1625 
L 3713 1625 
L 3713 1100 
L 3047 1100 
L 3047 0 
L 2419 0 
L 2419 1100 
L 313 1100 
L 313 1709 
L 2253 4666 
z
" transform="scale(0.015625)"/>
     </defs>
     <use xlink:href="#DejaVuSans-2d"/>
     <use xlink:href="#DejaVuSans-34" x="36.083984"/>
     <use xlink:href="#DejaVuSans-2e" x="99.707031"/>
     <use xlink:href="#DejaVuSans-30" x="131.494141"/>
    </g>
   </g>
   <g id="text_3">
    <!-- -3.0 -->
    <g transform="translate(184.644531 146.039375)scale(0.1 -0.1)">
     <defs>
      <path id="DejaVuSans-33" d="M 2597 2516 
Q 3050 2419 3304 2112 
Q 3559 1806 3559 1356 
Q 3559 666 3084 287 
Q 2609 -91 1734 -91 
Q 1441 -91 1130 -33 
Q 819 25 488 141 
L 488 750 
Q 750 597 1062 519 
Q 1375 441 1716 441 
Q 2309 441 2620 675 
Q 2931 909 2931 1356 
Q 2931 1769 2642 2001 
Q 2353 2234 1838 2234 
L 1294 2234 
L 1294 2753 
L 1863 2753 
Q 2328 2753 2575 2939 
Q 2822 3125 2822 3475 
Q 2822 3834 2567 4026 
Q 2313 4219 1838 4219 
Q 1578 4219 1281 4162 
Q 984 4106 628 3988 
L 628 4550 
Q 988 4650 1302 4700 
Q 1616 4750 1894 4750 
Q 2613 4750 3031 4423 
Q 3450 4097 3450 3541 
Q 3450 3153 3228 2886 
Q 3006 2619 2597 2516 
z
" transform="scale(0.015625)"/>
     </defs>
     <use xlink:href="#DejaVuSans-2d"/>
     <use xlink:href="#DejaVuSans-33" x="36.083984"/>
     <use xlink:href="#DejaVuSans-2e" x="99.707031"/>
     <use xlink:href="#DejaVuSans-30" x="131.494141"/>
    </g>
   </g>
   <g id="text_4">
    <!-- -2.0 -->
    <g transform="translate(238.644531 146.039375)scale(0.1 -0.1)">
     <defs>
      <path id="DejaVuSans-32" d="M 1228 531 
L 3431 531 
L 3431 0 
L 469 0 
L 469 531 
Q 828 903 1448 1529 
Q 2069 2156 2228 2338 
Q 2531 2678 2651 2914 
Q 2772 3150 2772 3378 
Q 2772 3750 2511 3984 
Q 2250 4219 1831 4219 
Q 1534 4219 1204 4116 
Q 875 4013 500 3803 
L 500 4441 
Q 881 4594 1212 4672 
Q 1544 4750 1819 4750 
Q 2544 4750 2975 4387 
Q 3406 4025 3406 3419 
Q 3406 3131 3298 2873 
Q 3191 2616 2906 2266 
Q 2828 2175 2409 1742 
Q 1991 1309 1228 531 
z
" transform="scale(0.015625)"/>
     </defs>
     <use xlink:href="#DejaVuSans-2d"/>
     <use xlink:href="#DejaVuSans-32" x="36.083984"/>
     <use xlink:href="#DejaVuSans-2e" x="99.707031"/>
     <use xlink:href="#DejaVuSans-30" x="131.494141"/>
    </g>
   </g>
   <g id="text_5">
    <!-- -1.0 -->
    <g transform="translate(292.644531 146.039375)scale(0.1 -0.1)">
     <defs>
      <path id="DejaVuSans-31" d="M 794 531 
L 1825 531 
L 1825 4091 
L 703 3866 
L 703 4441 
L 1819 4666 
L 2450 4666 
L 2450 531 
L 3481 531 
L 3481 0 
L 794 0 
L 794 531 
z
" transform="scale(0.015625)"/>
     </defs>
     <use xlink:href="#DejaVuSans-2d"/>
     <use xlink:href="#DejaVuSans-31" x="36.083984"/>
     <use xlink:href="#DejaVuSans-2e" x="99.707031"/>
     <use xlink:href="#DejaVuSans-30" x="131.494141"/>
    </g>
   </g>
  </g>
 </g>
 <defs>
  <clipPath id="pcdf45d4437">
   <rect x="54" y="110.88" width="334.8" height="64.8"/>
  </clipPath>
 </defs>
</svg>
