<?xml version="1.0" encoding="utf-8" standalone="no"?>
<!DOCTYPE svg PUBLIC "-//W3C//DTD SVG 1.1//EN"
  "http://www.w3.org/Graphics/SVG/1.1/DTD/svg11.dtd">
<svg xmlns:xlink="http://www.w3.org/1999/xlink" width="432pt" height="288pt" viewBox="0 0 432 288" xmlns="http://www.w3.org/2000/svg" version="1.1">
 <metadata>
  <rdf:RDF xmlns:dc="http://purl.org/dc/elements/1.1/" xmlns:cc="http://creativecommons.org/ns#" xmlns:rdf="http://www.w3.org/1999/02/22-rdf-syntax-ns#">
   <cc:Work>
    <dc:type rdf:resource="http://purl.org/dc/dcmitype/StillImage"/>
    <dc:date>2024-07-09T20:52:44.111706</dc:date>
    <dc:format>image/svg+xml</dc:format>
    <dc:creator>
     <cc:Agent>
      <dc:title>Matplotlib v3.5.2, https://matplotlib.org/</dc:title>
     </cc:Agent>
    </dc:creator>
   </cc:Work>
  </rdf:RDF>
 </metadata>
 <defs>
  <style type="text/css">*{stroke-linejoin: round; stroke-linecap: butt}</style>
 </defs>
 <g id="figure_1">
  <g id="patch_1">
   <path d="M 0 288 
L 432 288 
L 432 0 
L 0 0 
z
" style="fill: #ffffff"/>
  </g>
  <g id="axes_1">
   <g id="patch_2">
    <path d="M 66.4 153.613333 
C 69.140432 153.613333 71.768992 152.524548 73.70677 150.58677 
C 75.644548 148.648992 76.733333 146.020432 76.733333 143.28 
C 76.733333 140.539568 75.644548 137.911008 73.70677 135.97323 
C 71.768992 134.035452 69.140432 132.946667 66.4 132.946667 
C 63.659568 132.946667 61.031008 134.035452 59.09323 135.97323 
C 57.155452 137.911008 56.066667 140.539568 56.066667 143.28 
C 56.066667 146.020432 57.155452 148.648992 59.09323 150.58677 
C 61.031008 152.524548 63.659568 153.613333 66.4 153.613333 
z
" clip-path="url(#p530421a073)" style="fill: #6399c7; stroke: #ffffff; stroke-linejoin: miter"/>
   </g>
   <g id="patch_3">
    <path d="M 87.066667 153.613333 
C 89.807099 153.613333 92.435659 152.524548 94.373437 150.58677 
C 96.311215 148.648992 97.4 146.020432 97.4 143.28 
C 97.4 140.539568 96.311215 137.911008 94.373437 135.97323 
C 92.435659 134.035452 89.807099 132.946667 87.066667 132.946667 
C 84.326235 132.946667 81.697675 134.035452 79.759897 135.97323 
C 77.822119 137.911008 76.733333 140.539568 76.733333 143.28 
C 76.733333 146.020432 77.822119 148.648992 79.759897 150.58677 
C 81.697675 152.524548 84.326235 153.613333 87.066667 153.613333 
z
" clip-path="url(#p530421a073)" style="fill: #6399c7; stroke: #ffffff; stroke-linejoin: miter"/>
   </g>
   <g id="patch_4">
    <path d="M 107.733333 153.613333 
C 110.473765 153.613333 113.102325 152.524548 115.040103 150.58677 
C 116.977881 148.648992 118.066667 146.020432 118.066667 143.28 
C 118.066667 140.539568 116.977881 137.911008 115.040103 135.97323 
C 113.102325 134.035452 110.473765 132.946667 107.733333 132.946667 
C 104.992901 132.946667 102.364341 134.035452 100.426563 135.97323 
C 98.488785 137.911008 97.4 140.539568 97.4 143.28 
C 97.4 146.020432 98.488785 148.648992 100.426563 150.58677 
C 102.364341 152.524548 104.992901 153.613333 107.733333 153.613333 
z
" clip-path="url(#p530421a073)" style="fill: #6399c7; stroke: #ffffff; stroke-linejoin: miter"/>
   </g>
   <g id="patch_5">
    <path d="M 128.4 153.613333 
C 131.140432 153.613333 133.768992 152.524548 135.70677 150.58677 
C 137.644548 148.648992 138.733333 146.020432 138.733333 143.28 
C 138.733333 140.539568 137.644548 137.911008 135.70677 135.97323 
C 133.768992 134.035452 131.140432 132.946667 128.4 132.946667 
C 125.659568 132.946667 123.031008 134.035452 121.09323 135.97323 
C 119.155452 137.911008 118.066667 140.539568 118.066667 143.28 
C 118.066667 146.020432 119.155452 148.648992 121.09323 150.58677 
C 123.031008 152.524548 125.659568 153.613333 128.4 153.613333 
z
" clip-path="url(#p530421a073)" style="fill: #bde2ee; stroke: #ffffff; stroke-linejoin: miter"/>
   </g>
   <g id="patch_6">
    <path d="M 149.066667 153.613333 
C 151.807099 153.613333 154.435659 152.524548 156.373437 150.58677 
C 158.311215 148.648992 159.4 146.020432 159.4 143.28 
C 159.4 140.539568 158.311215 137.911008 156.373437 135.97323 
C 154.435659 134.035452 151.807099 132.946667 149.066667 132.946667 
C 146.326235 132.946667 143.697675 134.035452 141.759897 135.97323 
C 139.822119 137.911008 138.733333 140.539568 138.733333 143.28 
C 138.733333 146.020432 139.822119 148.648992 141.759897 150.58677 
C 143.697675 152.524548 146.326235 153.613333 149.066667 153.613333 
z
" clip-path="url(#p530421a073)" style="fill: #bde2ee; stroke: #ffffff; stroke-linejoin: miter"/>
   </g>
   <g id="patch_7">
    <path d="M 169.733333 153.613333 
C 172.473765 153.613333 175.102325 152.524548 177.040103 150.58677 
C 178.977881 148.648992 180.066667 146.020432 180.066667 143.28 
C 180.066667 140.539568 178.977881 137.911008 177.040103 135.97323 
C 175.102325 134.035452 172.473765 132.946667 169.733333 132.946667 
C 166.992901 132.946667 164.364341 134.035452 162.426563 135.97323 
C 160.488785 137.911008 159.4 140.539568 159.4 143.28 
C 159.4 146.020432 160.488785 148.648992 162.426563 150.58677 
C 164.364341 152.524548 166.992901 153.613333 169.733333 153.613333 
z
" clip-path="url(#p530421a073)" style="fill: #bde2ee; stroke: #ffffff; stroke-linejoin: miter"/>
   </g>
   <g id="patch_8">
    <path d="M 190.4 153.613333 
C 193.140432 153.613333 195.768992 152.524548 197.70677 150.58677 
C 199.644548 148.648992 200.733333 146.020432 200.733333 143.28 
C 200.733333 140.539568 199.644548 137.911008 197.70677 135.97323 
C 195.768992 134.035452 193.140432 132.946667 190.4 132.946667 
C 187.659568 132.946667 185.031008 134.035452 183.09323 135.97323 
C 181.155452 137.911008 180.066667 140.539568 180.066667 143.28 
C 180.066667 146.020432 181.155452 148.648992 183.09323 150.58677 
C 185.031008 152.524548 187.659568 153.613333 190.4 153.613333 
z
" clip-path="url(#p530421a073)" style="fill: #fffebe; stroke: #ffffff; stroke-linejoin: miter"/>
   </g>
   <g id="patch_9">
    <path d="M 211.066667 153.613333 
C 213.807099 153.613333 216.435659 152.524548 218.373437 150.58677 
C 220.311215 148.648992 221.4 146.020432 221.4 143.28 
C 221.4 140.539568 220.311215 137.911008 218.373437 135.97323 
C 216.435659 134.035452 213.807099 132.946667 211.066667 132.946667 
C 208.326235 132.946667 205.697675 134.035452 203.759897 135.97323 
C 201.822119 137.911008 200.733333 140.539568 200.733333 143.28 
C 200.733333 146.020432 201.822119 148.648992 203.759897 150.58677 
C 205.697675 152.524548 208.326235 153.613333 211.066667 153.613333 
z
" clip-path="url(#p530421a073)" style="fill: #fffebe; stroke: #ffffff; stroke-linejoin: miter"/>
   </g>
   <g id="patch_10">
    <path d="M 231.733333 153.613333 
C 234.473765 153.613333 237.102325 152.524548 239.040103 150.58677 
C 240.977881 148.648992 242.066667 146.020432 242.066667 143.28 
C 242.066667 140.539568 240.977881 137.911008 239.040103 135.97323 
C 237.102325 134.035452 234.473765 132.946667 231.733333 132.946667 
C 228.992901 132.946667 226.364341 134.035452 224.426563 135.97323 
C 222.488785 137.911008 221.4 140.539568 221.4 143.28 
C 221.4 146.020432 222.488785 148.648992 224.426563 150.58677 
C 226.364341 152.524548 228.992901 153.613333 231.733333 153.613333 
z
" clip-path="url(#p530421a073)" style="fill: #fffebe; stroke: #ffffff; stroke-linejoin: miter"/>
   </g>
   <g id="patch_11">
    <path d="M 252.4 153.613333 
C 255.140432 153.613333 257.768992 152.524548 259.70677 150.58677 
C 261.644548 148.648992 262.733333 146.020432 262.733333 143.28 
C 262.733333 140.539568 261.644548 137.911008 259.70677 135.97323 
C 257.768992 134.035452 255.140432 132.946667 252.4 132.946667 
C 249.659568 132.946667 247.031008 134.035452 245.09323 135.97323 
C 243.155452 137.911008 242.066667 140.539568 242.066667 143.28 
C 242.066667 146.020432 243.155452 148.648992 245.09323 150.58677 
C 247.031008 152.524548 249.659568 153.613333 252.4 153.613333 
z
" clip-path="url(#p530421a073)" style="fill: #fdbf71; stroke: #ffffff; stroke-linejoin: miter"/>
   </g>
   <g id="patch_12">
    <path d="M 273.066667 153.613333 
C 275.807099 153.613333 278.435659 152.524548 280.373437 150.58677 
C 282.311215 148.648992 283.4 146.020432 283.4 143.28 
C 283.4 140.539568 282.311215 137.911008 280.373437 135.97323 
C 278.435659 134.035452 275.807099 132.946667 273.066667 132.946667 
C 270.326235 132.946667 267.697675 134.035452 265.759897 135.97323 
C 263.822119 137.911008 262.733333 140.539568 262.733333 143.28 
C 262.733333 146.020432 263.822119 148.648992 265.759897 150.58677 
C 267.697675 152.524548 270.326235 153.613333 273.066667 153.613333 
z
" clip-path="url(#p530421a073)" style="fill: #fdbf71; stroke: #ffffff; stroke-linejoin: miter"/>
   </g>
   <g id="patch_13">
    <path d="M 293.733333 153.613333 
C 296.473765 153.613333 299.102325 152.524548 301.040103 150.58677 
C 302.977881 148.648992 304.066667 146.020432 304.066667 143.28 
C 304.066667 140.539568 302.977881 137.911008 301.040103 135.97323 
C 299.102325 134.035452 296.473765 132.946667 293.733333 132.946667 
C 290.992901 132.946667 288.364341 134.035452 286.426563 135.97323 
C 284.488785 137.911008 283.4 140.539568 283.4 143.28 
C 283.4 146.020432 284.488785 148.648992 286.426563 150.58677 
C 288.364341 152.524548 290.992901 153.613333 293.733333 153.613333 
z
" clip-path="url(#p530421a073)" style="fill: #fdbf71; stroke: #ffffff; stroke-linejoin: miter"/>
   </g>
   <g id="patch_14">
    <path d="M 314.4 153.613333 
C 317.140432 153.613333 319.768992 152.524548 321.70677 150.58677 
C 323.644548 148.648992 324.733333 146.020432 324.733333 143.28 
C 324.733333 140.539568 323.644548 137.911008 321.70677 135.97323 
C 319.768992 134.035452 317.140432 132.946667 314.4 132.946667 
C 311.659568 132.946667 309.031008 134.035452 307.09323 135.97323 
C 305.155452 137.911008 304.066667 140.539568 304.066667 143.28 
C 304.066667 146.020432 305.155452 148.648992 307.09323 150.58677 
C 309.031008 152.524548 311.659568 153.613333 314.4 153.613333 
z
" clip-path="url(#p530421a073)" style="fill: #ea5739; stroke: #ffffff; stroke-linejoin: miter"/>
   </g>
   <g id="patch_15">
    <path d="M 335.066667 153.613333 
C 337.807099 153.613333 340.435659 152.524548 342.373437 150.58677 
C 344.311215 148.648992 345.4 146.020432 345.4 143.28 
C 345.4 140.539568 344.311215 137.911008 342.373437 135.97323 
C 340.435659 134.035452 337.807099 132.946667 335.066667 132.946667 
C 332.326235 132.946667 329.697675 134.035452 327.759897 135.97323 
C 325.822119 137.911008 324.733333 140.539568 324.733333 143.28 
C 324.733333 146.020432 325.822119 148.648992 327.759897 150.58677 
C 329.697675 152.524548 332.326235 153.613333 335.066667 153.613333 
z
" clip-path="url(#p530421a073)" style="fill: #ea5739; stroke: #ffffff; stroke-linejoin: miter"/>
   </g>
   <g id="patch_16">
    <path d="M 355.733333 153.613333 
C 358.473765 153.613333 361.102325 152.524548 363.040103 150.58677 
C 364.977881 148.648992 366.066667 146.020432 366.066667 143.28 
C 366.066667 140.539568 364.977881 137.911008 363.040103 135.97323 
C 361.102325 134.035452 358.473765 132.946667 355.733333 132.946667 
C 352.992901 132.946667 350.364341 134.035452 348.426563 135.97323 
C 346.488785 137.911008 345.4 140.539568 345.4 143.28 
C 345.4 146.020432 346.488785 148.648992 348.426563 150.58677 
C 350.364341 152.524548 352.992901 153.613333 355.733333 153.613333 
z
" clip-path="url(#p530421a073)" style="fill: #ea5739; stroke: #ffffff; stroke-linejoin: miter"/>
   </g>
   <g id="text_1">
    <!-- -2.0 -->
    <g transform="translate(56.644531 146.039375)scale(0.1 -0.1)">
     <defs>
      <path id="DejaVuSans-2d" d="M 313 2009 
L 1997 2009 
L 1997 1497 
L 313 1497 
L 313 2009 
z
" transform="scale(0.015625)"/>
      <path id="DejaVuSans-32" d="M 1228 531 
L 3431 531 
L 3431 0 
L 469 0 
L 469 531 
Q 828 903 1448 1529 
Q 2069 2156 2228 2338 
Q 2531 2678 2651 2914 
Q 2772 3150 2772 3378 
Q 2772 3750 2511 3984 
Q 2250 4219 1831 4219 
Q 1534 4219 1204 4116 
Q 875 4013 500 3803 
L 500 4441 
Q 881 4594 1212 4672 
Q 1544 4750 1819 4750 
Q 2544 4750 2975 4387 
Q 3406 4025 3406 3419 
Q 3406 3131 3298 2873 
Q 3191 2616 2906 2266 
Q 2828 2175 2409 1742 
Q 1991 1309 1228 531 
z
" transform="scale(0.015625)"/>
      <path id="DejaVuSans-2e" d="M 684 794 
L 1344 794 
L 1344 0 
L 684 0 
L 684 794 
z
" transform="scale(0.015625)"/>
      <path id="DejaVuSans-30" d="M 2034 4250 
Q 1547 4250 1301 3770 
Q 1056 3291 1056 2328 
Q 1056 1369 1301 889 
Q 1547 409 2034 409 
Q 2525 409 2770 889 
Q 3016 1369 3016 2328 
Q 3016 3291 2770 3770 
Q 2525 4250 2034 4250 
z
M 2034 4750 
Q 2819 4750 3233 4129 
Q 3647 3509 3647 2328 
Q 3647 1150 3233 529 
Q 2819 -91 2034 -91 
Q 1250 -91 836 529 
Q 422 1150 422 2328 
Q 422 3509 836 4129 
Q 1250 4750 2034 4750 
z
" transform="scale(0.015625)"/>
     </defs>
     <use xlink:href="#DejaVuSans-2d"/>
     <use xlink:href="#DejaVuSans-32" x="36.083984"/>
     <use xlink:href="#DejaVuSans-2e" x="99.707031"/>
     <use xlink:href="#DejaVuSans-30" x="131.494141"/>
    </g>
   </g>
   <g id="text_2">
    <!-- -2.0 -->
    <g transform="translate(77.311198 146.039375)scale(0.1 -0.1)">
     <use xlink:href="#DejaVuSans-2d"/>
     <use xlink:href="#DejaVuSans-32" x="36.083984"/>
     <use xlink:href="#DejaVuSans-2e" x="99.707031"/>
     <use xlink:href="#DejaVuSans-30" x="131.494141"/>
    </g>
   </g>
   <g id="text_3">
    <!-- -2.0 -->
    <g transform="translate(97.977865 146.039375)scale(0.1 -0.1)">
     <use xlink:href="#DejaVuSans-2d"/>
     <use xlink:href="#DejaVuSans-32" x="36.083984"/>
     <use xlink:href="#DejaVuSans-2e" x="99.707031"/>
     <use xlink:href="#DejaVuSans-30" x="131.494141"/>
    </g>
   </g>
   <g id="text_4">
    <!-- -1.0 -->
    <g transform="translate(118.644531 146.039375)scale(0.1 -0.1)">
     <defs>
      <path id="DejaVuSans-31" d="M 794 531 
L 1825 531 
L 1825 4091 
L 703 3866 
L 703 4441 
L 1819 4666 
L 2450 4666 
L 2450 531 
L 3481 531 
L 3481 0 
L 794 0 
L 794 531 
z
" transform="scale(0.015625)"/>
     </defs>
     <use xlink:href="#DejaVuSans-2d"/>
     <use xlink:href="#DejaVuSans-31" x="36.083984"/>
     <use xlink:href="#DejaVuSans-2e" x="99.707031"/>
     <use xlink:href="#DejaVuSans-30" x="131.494141"/>
    </g>
   </g>
   <g id="text_5">
    <!-- -1.0 -->
    <g transform="translate(139.311198 146.039375)scale(0.1 -0.1)">
     <use xlink:href="#DejaVuSans-2d"/>
     <use xlink:href="#DejaVuSans-31" x="36.083984"/>
     <use xlink:href="#DejaVuSans-2e" x="99.707031"/>
     <use xlink:href="#DejaVuSans-30" x="131.494141"/>
    </g>
   </g>
   <g id="text_6">
    <!-- -1.0 -->
    <g transform="translate(159.977865 146.039375)scale(0.1 -0.1)">
     <use xlink:href="#DejaVuSans-2d"/>
     <use xlink:href="#DejaVuSans-31" x="36.083984"/>
     <use xlink:href="#DejaVuSans-2e" x="99.707031"/>
     <use xlink:href="#DejaVuSans-30" x="131.494141"/>
    </g>
   </g>
   <g id="text_7">
    <!-- 0.0 -->
    <g transform="translate(182.448438 146.039375)scale(0.1 -0.1)">
     <use xlink:href="#DejaVuSans-30"/>
     <use xlink:href="#DejaVuSans-2e" x="63.623047"/>
     <use xlink:href="#DejaVuSans-30" x="95.410156"/>
    </g>
   </g>
   <g id="text_8">
    <!-- 0.0 -->
    <g transform="translate(203.115104 146.039375)scale(0.1 -0.1)">
     <use xlink:href="#DejaVuSans-30"/>
     <use xlink:href="#DejaVuSans-2e" x="63.623047"/>
     <use xlink:href="#DejaVuSans-30" x="95.410156"/>
    </g>
   </g>
   <g id="text_9">
    <!-- 0.0 -->
    <g transform="translate(223.781771 146.039375)scale(0.1 -0.1)">
     <use xlink:href="#DejaVuSans-30"/>
     <use xlink:href="#DejaVuSans-2e" x="63.623047"/>
     <use xlink:href="#DejaVuSans-30" x="95.410156"/>
    </g>
   </g>
   <g id="text_10">
    <!-- 1.0 -->
    <g transform="translate(244.448438 146.039375)scale(0.1 -0.1)">
     <use xlink:href="#DejaVuSans-31"/>
     <use xlink:href="#DejaVuSans-2e" x="63.623047"/>
     <use xlink:href="#DejaVuSans-30" x="95.410156"/>
    </g>
   </g>
   <g id="text_11">
    <!-- 1.0 -->
    <g transform="translate(265.115104 146.039375)scale(0.1 -0.1)">
     <use xlink:href="#DejaVuSans-31"/>
     <use xlink:href="#DejaVuSans-2e" x="63.623047"/>
     <use xlink:href="#DejaVuSans-30" x="95.410156"/>
    </g>
   </g>
   <g id="text_12">
    <!-- 1.0 -->
    <g transform="translate(285.781771 146.039375)scale(0.1 -0.1)">
     <use xlink:href="#DejaVuSans-31"/>
     <use xlink:href="#DejaVuSans-2e" x="63.623047"/>
     <use xlink:href="#DejaVuSans-30" x="95.410156"/>
    </g>
   </g>
   <g id="text_13">
    <!-- 2.0 -->
    <g transform="translate(306.448437 146.039375)scale(0.1 -0.1)">
     <use xlink:href="#DejaVuSans-32"/>
     <use xlink:href="#DejaVuSans-2e" x="63.623047"/>
     <use xlink:href="#DejaVuSans-30" x="95.410156"/>
    </g>
   </g>
   <g id="text_14">
    <!-- 2.0 -->
    <g transform="translate(327.115104 146.039375)scale(0.1 -0.1)">
     <use xlink:href="#DejaVuSans-32"/>
     <use xlink:href="#DejaVuSans-2e" x="63.623047"/>
     <use xlink:href="#DejaVuSans-30" x="95.410156"/>
    </g>
   </g>
   <g id="text_15">
    <!-- 2.0 -->
    <g transform="translate(347.781771 146.039375)scale(0.1 -0.1)">
     <use xlink:href="#DejaVuSans-32"/>
     <use xlink:href="#DejaVuSans-2e" x="63.623047"/>
     <use xlink:href="#DejaVuSans-30" x="95.410156"/>
    </g>
   </g>
  </g>
 </g>
 <defs>
  <clipPath id="p530421a073">
   <rect x="54" y="130.88" width="334.8" height="24.8"/>
  </clipPath>
 </defs>
</svg>
