<?xml version="1.0" encoding="utf-8" standalone="no"?>
<!DOCTYPE svg PUBLIC "-//W3C//DTD SVG 1.1//EN"
  "http://www.w3.org/Graphics/SVG/1.1/DTD/svg11.dtd">
<svg xmlns:xlink="http://www.w3.org/1999/xlink" width="216pt" height="144pt" viewBox="0 0 216 144" xmlns="http://www.w3.org/2000/svg" version="1.1">
 <metadata>
  <rdf:RDF xmlns:dc="http://purl.org/dc/elements/1.1/" xmlns:cc="http://creativecommons.org/ns#" xmlns:rdf="http://www.w3.org/1999/02/22-rdf-syntax-ns#">
   <cc:Work>
    <dc:type rdf:resource="http://purl.org/dc/dcmitype/StillImage"/>
    <dc:date>2024-07-09T20:55:16.400504</dc:date>
    <dc:format>image/svg+xml</dc:format>
    <dc:creator>
     <cc:Agent>
      <dc:title>Matplotlib v3.5.2, https://matplotlib.org/</dc:title>
     </cc:Agent>
    </dc:creator>
   </cc:Work>
  </rdf:RDF>
 </metadata>
 <defs>
  <style type="text/css">*{stroke-linejoin: round; stroke-linecap: butt}</style>
 </defs>
 <g id="figure_1">
  <g id="patch_1">
   <path d="M 0 144 
L 216 144 
L 216 0 
L 0 0 
z
" style="fill: #ffffff"/>
  </g>
  <g id="axes_1">
   <g id="patch_2">
    <path d="M 29.16 126 
L 192.24 126 
L 192.24 17.28 
L 29.16 17.28 
z
" style="fill: #ffffff"/>
   </g>
   <g id="QuadMesh_1">
    <path d="M 29.16 17.28 
L 56.34 17.28 
L 56.34 44.46 
L 29.16 44.46 
L 29.16 17.28 
" clip-path="url(#p794404600a)" style="fill: #313695; stroke: #ffffff; stroke-width: 0.5"/>
    <path d="M 56.34 17.28 
L 83.52 17.28 
L 83.52 44.46 
L 56.34 44.46 
L 56.34 17.28 
" clip-path="url(#p794404600a)" style="fill: #6399c7; stroke: #ffffff; stroke-width: 0.5"/>
    <path d="M 83.52 17.28 
L 110.7 17.28 
L 110.7 44.46 
L 83.52 44.46 
L 83.52 17.28 
" clip-path="url(#p794404600a)" style="fill: #bde2ee; stroke: #ffffff; stroke-width: 0.5"/>
    <path d="M 110.7 17.28 
L 137.88 17.28 
L 137.88 44.46 
L 110.7 44.46 
L 110.7 17.28 
" clip-path="url(#p794404600a)" style="fill: #313695; stroke: #ffffff; stroke-width: 0.5"/>
    <path d="M 137.88 17.28 
L 165.06 17.28 
L 165.06 44.46 
L 137.88 44.46 
L 137.88 17.28 
" clip-path="url(#p794404600a)" style="fill: #6399c7; stroke: #ffffff; stroke-width: 0.5"/>
    <path d="M 165.06 17.28 
L 192.24 17.28 
L 192.24 44.46 
L 165.06 44.46 
L 165.06 17.28 
" clip-path="url(#p794404600a)" style="fill: #bde2ee; stroke: #ffffff; stroke-width: 0.5"/>
    <path d="M 29.16 44.46 
L 56.34 44.46 
L 56.34 71.64 
L 29.16 71.64 
L 29.16 44.46 
" clip-path="url(#p794404600a)" style="fill: #fffebe; stroke: #ffffff; stroke-width: 0.5"/>
    <path d="M 56.34 44.46 
L 83.52 44.46 
L 83.52 71.64 
L 56.34 71.64 
L 56.34 44.46 
" clip-path="url(#p794404600a)" style="fill: #fdbf71; stroke: #ffffff; stroke-width: 0.5"/>
    <path d="M 83.52 44.46 
L 110.7 44.46 
L 110.7 71.64 
L 83.52 71.64 
L 83.52 44.46 
" clip-path="url(#p794404600a)" style="fill: #ea5739; stroke: #ffffff; stroke-width: 0.5"/>
    <path d="M 110.7 44.46 
L 137.88 44.46 
L 137.88 71.64 
L 110.7 71.64 
L 110.7 44.46 
" clip-path="url(#p794404600a)" style="fill: #fffebe; stroke: #ffffff; stroke-width: 0.5"/>
    <path d="M 137.88 44.46 
L 165.06 44.46 
L 165.06 71.64 
L 137.88 71.64 
L 137.88 44.46 
" clip-path="url(#p794404600a)" style="fill: #fdbf71; stroke: #ffffff; stroke-width: 0.5"/>
    <path d="M 165.06 44.46 
L 192.24 44.46 
L 192.24 71.64 
L 165.06 71.64 
L 165.06 44.46 
" clip-path="url(#p794404600a)" style="fill: #ea5739; stroke: #ffffff; stroke-width: 0.5"/>
    <path d="M 29.16 71.64 
L 56.34 71.64 
L 56.34 98.82 
L 29.16 98.82 
L 29.16 71.64 
" clip-path="url(#p794404600a)" style="fill: #313695; stroke: #ffffff; stroke-width: 0.5"/>
    <path d="M 56.34 71.64 
L 83.52 71.64 
L 83.52 98.82 
L 56.34 98.82 
L 56.34 71.64 
" clip-path="url(#p794404600a)" style="fill: #6399c7; stroke: #ffffff; stroke-width: 0.5"/>
    <path d="M 83.52 71.64 
L 110.7 71.64 
L 110.7 98.82 
L 83.52 98.82 
L 83.52 71.64 
" clip-path="url(#p794404600a)" style="fill: #bde2ee; stroke: #ffffff; stroke-width: 0.5"/>
    <path d="M 110.7 71.64 
L 137.88 71.64 
L 137.88 98.82 
L 110.7 98.82 
L 110.7 71.64 
" clip-path="url(#p794404600a)" style="fill: #313695; stroke: #ffffff; stroke-width: 0.5"/>
    <path d="M 137.88 71.64 
L 165.06 71.64 
L 165.06 98.82 
L 137.88 98.82 
L 137.88 71.64 
" clip-path="url(#p794404600a)" style="fill: #6399c7; stroke: #ffffff; stroke-width: 0.5"/>
    <path d="M 165.06 71.64 
L 192.24 71.64 
L 192.24 98.82 
L 165.06 98.82 
L 165.06 71.64 
" clip-path="url(#p794404600a)" style="fill: #bde2ee; stroke: #ffffff; stroke-width: 0.5"/>
    <path d="M 29.16 98.82 
L 56.34 98.82 
L 56.34 126 
L 29.16 126 
L 29.16 98.82 
" clip-path="url(#p794404600a)" style="fill: #fffebe; stroke: #ffffff; stroke-width: 0.5"/>
    <path d="M 56.34 98.82 
L 83.52 98.82 
L 83.52 126 
L 56.34 126 
L 56.34 98.82 
" clip-path="url(#p794404600a)" style="fill: #fdbf71; stroke: #ffffff; stroke-width: 0.5"/>
    <path d="M 83.52 98.82 
L 110.7 98.82 
L 110.7 126 
L 83.52 126 
L 83.52 98.82 
" clip-path="url(#p794404600a)" style="fill: #ea5739; stroke: #ffffff; stroke-width: 0.5"/>
    <path d="M 110.7 98.82 
L 137.88 98.82 
L 137.88 126 
L 110.7 126 
L 110.7 98.82 
" clip-path="url(#p794404600a)" style="fill: #fffebe; stroke: #ffffff; stroke-width: 0.5"/>
    <path d="M 137.88 98.82 
L 165.06 98.82 
L 165.06 126 
L 137.88 126 
L 137.88 98.82 
" clip-path="url(#p794404600a)" style="fill: #fdbf71; stroke: #ffffff; stroke-width: 0.5"/>
    <path d="M 165.06 98.82 
L 192.24 98.82 
L 192.24 126 
L 165.06 126 
L 165.06 98.82 
" clip-path="url(#p794404600a)" style="fill: #ea5739; stroke: #ffffff; stroke-width: 0.5"/>
   </g>
   <g id="matplotlib.axis_1"/>
   <g id="matplotlib.axis_2"/>
   <g id="text_1">
    <!-- -3 -->
    <g style="fill: #ffffff" transform="translate(37.764844 33.629375)scale(0.1 -0.1)">
     <defs>
      <path id="DejaVuSans-2d" d="M 313 2009 
L 1997 2009 
L 1997 1497 
L 313 1497 
L 313 2009 
z
" transform="scale(0.015625)"/>
      <path id="DejaVuSans-33" d="M 2597 2516 
Q 3050 2419 3304 2112 
Q 3559 1806 3559 1356 
Q 3559 666 3084 287 
Q 2609 -91 1734 -91 
Q 1441 -91 1130 -33 
Q 819 25 488 141 
L 488 750 
Q 750 597 1062 519 
Q 1375 441 1716 441 
Q 2309 441 2620 675 
Q 2931 909 2931 1356 
Q 2931 1769 2642 2001 
Q 2353 2234 1838 2234 
L 1294 2234 
L 1294 2753 
L 1863 2753 
Q 2328 2753 2575 2939 
Q 2822 3125 2822 3475 
Q 2822 3834 2567 4026 
Q 2313 4219 1838 4219 
Q 1578 4219 1281 4162 
Q 984 4106 628 3988 
L 628 4550 
Q 988 4650 1302 4700 
Q 1616 4750 1894 4750 
Q 2613 4750 3031 4423 
Q 3450 4097 3450 3541 
Q 3450 3153 3228 2886 
Q 3006 2619 2597 2516 
z
" transform="scale(0.015625)"/>
     </defs>
     <use xlink:href="#DejaVuSans-2d"/>
     <use xlink:href="#DejaVuSans-33" x="36.083984"/>
    </g>
   </g>
   <g id="text_2">
    <!-- -2 -->
    <g style="fill: #ffffff" transform="translate(64.944844 33.629375)scale(0.1 -0.1)">
     <defs>
      <path id="DejaVuSans-32" d="M 1228 531 
L 3431 531 
L 3431 0 
L 469 0 
L 469 531 
Q 828 903 1448 1529 
Q 2069 2156 2228 2338 
Q 2531 2678 2651 2914 
Q 2772 3150 2772 3378 
Q 2772 3750 2511 3984 
Q 2250 4219 1831 4219 
Q 1534 4219 1204 4116 
Q 875 4013 500 3803 
L 500 4441 
Q 881 4594 1212 4672 
Q 1544 4750 1819 4750 
Q 2544 4750 2975 4387 
Q 3406 4025 3406 3419 
Q 3406 3131 3298 2873 
Q 3191 2616 2906 2266 
Q 2828 2175 2409 1742 
Q 1991 1309 1228 531 
z
" transform="scale(0.015625)"/>
     </defs>
     <use xlink:href="#DejaVuSans-2d"/>
     <use xlink:href="#DejaVuSans-32" x="36.083984"/>
    </g>
   </g>
   <g id="text_3">
    <!-- -1 -->
    <g style="fill: #262626" transform="translate(92.124844 33.629375)scale(0.1 -0.1)">
     <defs>
      <path id="DejaVuSans-31" d="M 794 531 
L 1825 531 
L 1825 4091 
L 703 3866 
L 703 4441 
L 1819 4666 
L 2450 4666 
L 2450 531 
L 3481 531 
L 3481 0 
L 794 0 
L 794 531 
z
" transform="scale(0.015625)"/>
     </defs>
     <use xlink:href="#DejaVuSans-2d"/>
     <use xlink:href="#DejaVuSans-31" x="36.083984"/>
    </g>
   </g>
   <g id="text_4">
    <!-- -3 -->
    <g style="fill: #ffffff" transform="translate(119.304844 33.629375)scale(0.1 -0.1)">
     <use xlink:href="#DejaVuSans-2d"/>
     <use xlink:href="#DejaVuSans-33" x="36.083984"/>
    </g>
   </g>
   <g id="text_5">
    <!-- -2 -->
    <g style="fill: #ffffff" transform="translate(146.484844 33.629375)scale(0.1 -0.1)">
     <use xlink:href="#DejaVuSans-2d"/>
     <use xlink:href="#DejaVuSans-32" x="36.083984"/>
    </g>
   </g>
   <g id="text_6">
    <!-- -1 -->
    <g style="fill: #262626" transform="translate(173.664844 33.629375)scale(0.1 -0.1)">
     <use xlink:href="#DejaVuSans-2d"/>
     <use xlink:href="#DejaVuSans-31" x="36.083984"/>
    </g>
   </g>
   <g id="text_7">
    <!-- 0 -->
    <g style="fill: #262626" transform="translate(39.56875 60.809375)scale(0.1 -0.1)">
     <defs>
      <path id="DejaVuSans-30" d="M 2034 4250 
Q 1547 4250 1301 3770 
Q 1056 3291 1056 2328 
Q 1056 1369 1301 889 
Q 1547 409 2034 409 
Q 2525 409 2770 889 
Q 3016 1369 3016 2328 
Q 3016 3291 2770 3770 
Q 2525 4250 2034 4250 
z
M 2034 4750 
Q 2819 4750 3233 4129 
Q 3647 3509 3647 2328 
Q 3647 1150 3233 529 
Q 2819 -91 2034 -91 
Q 1250 -91 836 529 
Q 422 1150 422 2328 
Q 422 3509 836 4129 
Q 1250 4750 2034 4750 
z
" transform="scale(0.015625)"/>
     </defs>
     <use xlink:href="#DejaVuSans-30"/>
    </g>
   </g>
   <g id="text_8">
    <!-- 1 -->
    <g style="fill: #262626" transform="translate(66.74875 60.809375)scale(0.1 -0.1)">
     <use xlink:href="#DejaVuSans-31"/>
    </g>
   </g>
   <g id="text_9">
    <!-- 2 -->
    <g style="fill: #ffffff" transform="translate(93.92875 60.809375)scale(0.1 -0.1)">
     <use xlink:href="#DejaVuSans-32"/>
    </g>
   </g>
   <g id="text_10">
    <!-- 0 -->
    <g style="fill: #262626" transform="translate(121.10875 60.809375)scale(0.1 -0.1)">
     <use xlink:href="#DejaVuSans-30"/>
    </g>
   </g>
   <g id="text_11">
    <!-- 1 -->
    <g style="fill: #262626" transform="translate(148.28875 60.809375)scale(0.1 -0.1)">
     <use xlink:href="#DejaVuSans-31"/>
    </g>
   </g>
   <g id="text_12">
    <!-- 2 -->
    <g style="fill: #ffffff" transform="translate(175.46875 60.809375)scale(0.1 -0.1)">
     <use xlink:href="#DejaVuSans-32"/>
    </g>
   </g>
   <g id="text_13">
    <!-- -3 -->
    <g style="fill: #ffffff" transform="translate(37.764844 87.989375)scale(0.1 -0.1)">
     <use xlink:href="#DejaVuSans-2d"/>
     <use xlink:href="#DejaVuSans-33" x="36.083984"/>
    </g>
   </g>
   <g id="text_14">
    <!-- -2 -->
    <g style="fill: #ffffff" transform="translate(64.944844 87.989375)scale(0.1 -0.1)">
     <use xlink:href="#DejaVuSans-2d"/>
     <use xlink:href="#DejaVuSans-32" x="36.083984"/>
    </g>
   </g>
   <g id="text_15">
    <!-- -1 -->
    <g style="fill: #262626" transform="translate(92.124844 87.989375)scale(0.1 -0.1)">
     <use xlink:href="#DejaVuSans-2d"/>
     <use xlink:href="#DejaVuSans-31" x="36.083984"/>
    </g>
   </g>
   <g id="text_16">
    <!-- -3 -->
    <g style="fill: #ffffff" transform="translate(119.304844 87.989375)scale(0.1 -0.1)">
     <use xlink:href="#DejaVuSans-2d"/>
     <use xlink:href="#DejaVuSans-33" x="36.083984"/>
    </g>
   </g>
   <g id="text_17">
    <!-- -2 -->
    <g style="fill: #ffffff" transform="translate(146.484844 87.989375)scale(0.1 -0.1)">
     <use xlink:href="#DejaVuSans-2d"/>
     <use xlink:href="#DejaVuSans-32" x="36.083984"/>
    </g>
   </g>
   <g id="text_18">
    <!-- -1 -->
    <g style="fill: #262626" transform="translate(173.664844 87.989375)scale(0.1 -0.1)">
     <use xlink:href="#DejaVuSans-2d"/>
     <use xlink:href="#DejaVuSans-31" x="36.083984"/>
    </g>
   </g>
   <g id="text_19">
    <!-- 0 -->
    <g style="fill: #262626" transform="translate(39.56875 115.169375)scale(0.1 -0.1)">
     <use xlink:href="#DejaVuSans-30"/>
    </g>
   </g>
   <g id="text_20">
    <!-- 1 -->
    <g style="fill: #262626" transform="translate(66.74875 115.169375)scale(0.1 -0.1)">
     <use xlink:href="#DejaVuSans-31"/>
    </g>
   </g>
   <g id="text_21">
    <!-- 2 -->
    <g style="fill: #ffffff" transform="translate(93.92875 115.169375)scale(0.1 -0.1)">
     <use xlink:href="#DejaVuSans-32"/>
    </g>
   </g>
   <g id="text_22">
    <!-- 0 -->
    <g style="fill: #262626" transform="translate(121.10875 115.169375)scale(0.1 -0.1)">
     <use xlink:href="#DejaVuSans-30"/>
    </g>
   </g>
   <g id="text_23">
    <!-- 1 -->
    <g style="fill: #262626" transform="translate(148.28875 115.169375)scale(0.1 -0.1)">
     <use xlink:href="#DejaVuSans-31"/>
    </g>
   </g>
   <g id="text_24">
    <!-- 2 -->
    <g style="fill: #ffffff" transform="translate(175.46875 115.169375)scale(0.1 -0.1)">
     <use xlink:href="#DejaVuSans-32"/>
    </g>
   </g>
  </g>
 </g>
 <defs>
  <clipPath id="p794404600a">
   <rect x="29.16" y="17.28" width="163.08" height="108.72"/>
  </clipPath>
 </defs>
</svg>
