<?xml version="1.0" encoding="utf-8" standalone="no"?>
<!DOCTYPE svg PUBLIC "-//W3C//DTD SVG 1.1//EN"
  "http://www.w3.org/Graphics/SVG/1.1/DTD/svg11.dtd">
<svg xmlns:xlink="http://www.w3.org/1999/xlink" width="720pt" height="612pt" viewBox="0 0 720 612" xmlns="http://www.w3.org/2000/svg" version="1.1">
 <metadata>
  <rdf:RDF xmlns:dc="http://purl.org/dc/elements/1.1/" xmlns:cc="http://creativecommons.org/ns#" xmlns:rdf="http://www.w3.org/1999/02/22-rdf-syntax-ns#">
   <cc:Work>
    <dc:type rdf:resource="http://purl.org/dc/dcmitype/StillImage"/>
    <dc:date>2023-12-03T13:49:51.955532</dc:date>
    <dc:format>image/svg+xml</dc:format>
    <dc:creator>
     <cc:Agent>
      <dc:title>Matplotlib v3.5.2, https://matplotlib.org/</dc:title>
     </cc:Agent>
    </dc:creator>
   </cc:Work>
  </rdf:RDF>
 </metadata>
 <defs>
  <style type="text/css">*{stroke-linejoin: round; stroke-linecap: butt}</style>
 </defs>
 <g id="figure_1">
  <g id="patch_1">
   <path d="M 0 612 
L 720 612 
L 720 0 
L 0 0 
z
" style="fill: #ffffff"/>
  </g>
  <g id="axes_1">
   <g id="patch_2">
    <path d="M 99.908834 539.53476 
L 716.99976 539.53476 
L 716.99976 46.257615 
L 99.908834 46.257615 
z
" style="fill: #ffffff"/>
   </g>
   <g id="matplotlib.axis_1">
    <g id="xtick_1">
     <g id="line2d_1">
      <path d="M 198.08239 539.53476 
L 198.08239 46.257615 
" clip-path="url(#p93b18088eb)" style="fill: none; stroke-dasharray: 2.5,5; stroke-dashoffset: 0; stroke: #b0b0b0; stroke-width: 0.5"/>
     </g>
     <g id="line2d_2">
      <defs>
       <path id="mba6142c4b3" d="M 0 0 
L 0 -3.5 
" style="stroke: #000000; stroke-width: 2"/>
      </defs>
      <g>
       <use xlink:href="#mba6142c4b3" x="198.08239" y="539.53476" style="stroke: #000000; stroke-width: 2"/>
      </g>
     </g>
     <g id="line2d_3">
      <defs>
       <path id="m2e7fb83ed2" d="M 0 0 
L 0 3.5 
" style="stroke: #000000; stroke-width: 2"/>
      </defs>
      <g>
       <use xlink:href="#m2e7fb83ed2" x="198.08239" y="46.257615" style="stroke: #000000; stroke-width: 2"/>
      </g>
     </g>
     <g id="text_1">
      <!-- 0 -->
      <g transform="translate(190.08239 565.25476)scale(0.32 -0.32)">
       <defs>
        <path id="TimesNewRomanPSMT-30" d="M 231 2094 
Q 231 2819 450 3342 
Q 669 3866 1031 4122 
Q 1313 4325 1613 4325 
Q 2100 4325 2488 3828 
Q 2972 3213 2972 2159 
Q 2972 1422 2759 906 
Q 2547 391 2217 158 
Q 1888 -75 1581 -75 
Q 975 -75 572 641 
Q 231 1244 231 2094 
z
M 844 2016 
Q 844 1141 1059 588 
Q 1238 122 1591 122 
Q 1759 122 1940 273 
Q 2122 425 2216 781 
Q 2359 1319 2359 2297 
Q 2359 3022 2209 3506 
Q 2097 3866 1919 4016 
Q 1791 4119 1609 4119 
Q 1397 4119 1231 3928 
Q 1006 3669 925 3112 
Q 844 2556 844 2016 
z
" transform="scale(0.015625)"/>
       </defs>
       <use xlink:href="#TimesNewRomanPSMT-30"/>
      </g>
     </g>
    </g>
    <g id="xtick_2">
     <g id="line2d_4">
      <path d="M 338.330328 539.53476 
L 338.330328 46.257615 
" clip-path="url(#p93b18088eb)" style="fill: none; stroke-dasharray: 2.5,5; stroke-dashoffset: 0; stroke: #b0b0b0; stroke-width: 0.5"/>
     </g>
     <g id="line2d_5">
      <g>
       <use xlink:href="#mba6142c4b3" x="338.330328" y="539.53476" style="stroke: #000000; stroke-width: 2"/>
      </g>
     </g>
     <g id="line2d_6">
      <g>
       <use xlink:href="#m2e7fb83ed2" x="338.330328" y="46.257615" style="stroke: #000000; stroke-width: 2"/>
      </g>
     </g>
     <g id="text_2">
      <!-- 10 -->
      <g transform="translate(322.330328 565.25476)scale(0.32 -0.32)">
       <defs>
        <path id="TimesNewRomanPSMT-31" d="M 750 3822 
L 1781 4325 
L 1884 4325 
L 1884 747 
Q 1884 391 1914 303 
Q 1944 216 2037 169 
Q 2131 122 2419 116 
L 2419 0 
L 825 0 
L 825 116 
Q 1125 122 1212 167 
Q 1300 213 1334 289 
Q 1369 366 1369 747 
L 1369 3034 
Q 1369 3497 1338 3628 
Q 1316 3728 1258 3775 
Q 1200 3822 1119 3822 
Q 1003 3822 797 3725 
L 750 3822 
z
" transform="scale(0.015625)"/>
       </defs>
       <use xlink:href="#TimesNewRomanPSMT-31"/>
       <use xlink:href="#TimesNewRomanPSMT-30" x="50"/>
      </g>
     </g>
    </g>
    <g id="xtick_3">
     <g id="line2d_7">
      <path d="M 478.578266 539.53476 
L 478.578266 46.257615 
" clip-path="url(#p93b18088eb)" style="fill: none; stroke-dasharray: 2.5,5; stroke-dashoffset: 0; stroke: #b0b0b0; stroke-width: 0.5"/>
     </g>
     <g id="line2d_8">
      <g>
       <use xlink:href="#mba6142c4b3" x="478.578266" y="539.53476" style="stroke: #000000; stroke-width: 2"/>
      </g>
     </g>
     <g id="line2d_9">
      <g>
       <use xlink:href="#m2e7fb83ed2" x="478.578266" y="46.257615" style="stroke: #000000; stroke-width: 2"/>
      </g>
     </g>
     <g id="text_3">
      <!-- 20 -->
      <g transform="translate(462.578266 565.25476)scale(0.32 -0.32)">
       <defs>
        <path id="TimesNewRomanPSMT-32" d="M 2934 816 
L 2638 0 
L 138 0 
L 138 116 
Q 1241 1122 1691 1759 
Q 2141 2397 2141 2925 
Q 2141 3328 1894 3587 
Q 1647 3847 1303 3847 
Q 991 3847 742 3664 
Q 494 3481 375 3128 
L 259 3128 
Q 338 3706 661 4015 
Q 984 4325 1469 4325 
Q 1984 4325 2329 3994 
Q 2675 3663 2675 3213 
Q 2675 2891 2525 2569 
Q 2294 2063 1775 1497 
Q 997 647 803 472 
L 1909 472 
Q 2247 472 2383 497 
Q 2519 522 2628 598 
Q 2738 675 2819 816 
L 2934 816 
z
" transform="scale(0.015625)"/>
       </defs>
       <use xlink:href="#TimesNewRomanPSMT-32"/>
       <use xlink:href="#TimesNewRomanPSMT-30" x="50"/>
      </g>
     </g>
    </g>
    <g id="xtick_4">
     <g id="line2d_10">
      <path d="M 618.826204 539.53476 
L 618.826204 46.257615 
" clip-path="url(#p93b18088eb)" style="fill: none; stroke-dasharray: 2.5,5; stroke-dashoffset: 0; stroke: #b0b0b0; stroke-width: 0.5"/>
     </g>
     <g id="line2d_11">
      <g>
       <use xlink:href="#mba6142c4b3" x="618.826204" y="539.53476" style="stroke: #000000; stroke-width: 2"/>
      </g>
     </g>
     <g id="line2d_12">
      <g>
       <use xlink:href="#m2e7fb83ed2" x="618.826204" y="46.257615" style="stroke: #000000; stroke-width: 2"/>
      </g>
     </g>
     <g id="text_4">
      <!-- 30 -->
      <g transform="translate(602.826204 565.25476)scale(0.32 -0.32)">
       <defs>
        <path id="TimesNewRomanPSMT-33" d="M 325 3431 
Q 506 3859 782 4092 
Q 1059 4325 1472 4325 
Q 1981 4325 2253 3994 
Q 2459 3747 2459 3466 
Q 2459 3003 1878 2509 
Q 2269 2356 2469 2072 
Q 2669 1788 2669 1403 
Q 2669 853 2319 450 
Q 1863 -75 997 -75 
Q 569 -75 414 31 
Q 259 138 259 259 
Q 259 350 332 419 
Q 406 488 509 488 
Q 588 488 669 463 
Q 722 447 909 348 
Q 1097 250 1169 231 
Q 1284 197 1416 197 
Q 1734 197 1970 444 
Q 2206 691 2206 1028 
Q 2206 1275 2097 1509 
Q 2016 1684 1919 1775 
Q 1784 1900 1550 2001 
Q 1316 2103 1072 2103 
L 972 2103 
L 972 2197 
Q 1219 2228 1467 2375 
Q 1716 2522 1828 2728 
Q 1941 2934 1941 3181 
Q 1941 3503 1739 3701 
Q 1538 3900 1238 3900 
Q 753 3900 428 3381 
L 325 3431 
z
" transform="scale(0.015625)"/>
       </defs>
       <use xlink:href="#TimesNewRomanPSMT-33"/>
       <use xlink:href="#TimesNewRomanPSMT-30" x="50"/>
      </g>
     </g>
    </g>
    <g id="text_5">
     <!-- $\mathrm{{SNR}}_\mathrm{{test}}\mathrm{{(dB)}}$ -->
     <g transform="translate(311.679297 602.69976)scale(0.35 -0.35)">
      <defs>
       <path id="DejaVuSans-53" d="M 3425 4513 
L 3425 3897 
Q 3066 4069 2747 4153 
Q 2428 4238 2131 4238 
Q 1616 4238 1336 4038 
Q 1056 3838 1056 3469 
Q 1056 3159 1242 3001 
Q 1428 2844 1947 2747 
L 2328 2669 
Q 3034 2534 3370 2195 
Q 3706 1856 3706 1288 
Q 3706 609 3251 259 
Q 2797 -91 1919 -91 
Q 1588 -91 1214 -16 
Q 841 59 441 206 
L 441 856 
Q 825 641 1194 531 
Q 1563 422 1919 422 
Q 2459 422 2753 634 
Q 3047 847 3047 1241 
Q 3047 1584 2836 1778 
Q 2625 1972 2144 2069 
L 1759 2144 
Q 1053 2284 737 2584 
Q 422 2884 422 3419 
Q 422 4038 858 4394 
Q 1294 4750 2059 4750 
Q 2388 4750 2728 4690 
Q 3069 4631 3425 4513 
z
" transform="scale(0.015625)"/>
       <path id="DejaVuSans-4e" d="M 628 4666 
L 1478 4666 
L 3547 763 
L 3547 4666 
L 4159 4666 
L 4159 0 
L 3309 0 
L 1241 3903 
L 1241 0 
L 628 0 
L 628 4666 
z
" transform="scale(0.015625)"/>
       <path id="DejaVuSans-52" d="M 2841 2188 
Q 3044 2119 3236 1894 
Q 3428 1669 3622 1275 
L 4263 0 
L 3584 0 
L 2988 1197 
Q 2756 1666 2539 1819 
Q 2322 1972 1947 1972 
L 1259 1972 
L 1259 0 
L 628 0 
L 628 4666 
L 2053 4666 
Q 2853 4666 3247 4331 
Q 3641 3997 3641 3322 
Q 3641 2881 3436 2590 
Q 3231 2300 2841 2188 
z
M 1259 4147 
L 1259 2491 
L 2053 2491 
Q 2509 2491 2742 2702 
Q 2975 2913 2975 3322 
Q 2975 3731 2742 3939 
Q 2509 4147 2053 4147 
L 1259 4147 
z
" transform="scale(0.015625)"/>
       <path id="DejaVuSans-74" d="M 1172 4494 
L 1172 3500 
L 2356 3500 
L 2356 3053 
L 1172 3053 
L 1172 1153 
Q 1172 725 1289 603 
Q 1406 481 1766 481 
L 2356 481 
L 2356 0 
L 1766 0 
Q 1100 0 847 248 
Q 594 497 594 1153 
L 594 3053 
L 172 3053 
L 172 3500 
L 594 3500 
L 594 4494 
L 1172 4494 
z
" transform="scale(0.015625)"/>
       <path id="DejaVuSans-65" d="M 3597 1894 
L 3597 1613 
L 953 1613 
Q 991 1019 1311 708 
Q 1631 397 2203 397 
Q 2534 397 2845 478 
Q 3156 559 3463 722 
L 3463 178 
Q 3153 47 2828 -22 
Q 2503 -91 2169 -91 
Q 1331 -91 842 396 
Q 353 884 353 1716 
Q 353 2575 817 3079 
Q 1281 3584 2069 3584 
Q 2775 3584 3186 3129 
Q 3597 2675 3597 1894 
z
M 3022 2063 
Q 3016 2534 2758 2815 
Q 2500 3097 2075 3097 
Q 1594 3097 1305 2825 
Q 1016 2553 972 2059 
L 3022 2063 
z
" transform="scale(0.015625)"/>
       <path id="DejaVuSans-73" d="M 2834 3397 
L 2834 2853 
Q 2591 2978 2328 3040 
Q 2066 3103 1784 3103 
Q 1356 3103 1142 2972 
Q 928 2841 928 2578 
Q 928 2378 1081 2264 
Q 1234 2150 1697 2047 
L 1894 2003 
Q 2506 1872 2764 1633 
Q 3022 1394 3022 966 
Q 3022 478 2636 193 
Q 2250 -91 1575 -91 
Q 1294 -91 989 -36 
Q 684 19 347 128 
L 347 722 
Q 666 556 975 473 
Q 1284 391 1588 391 
Q 1994 391 2212 530 
Q 2431 669 2431 922 
Q 2431 1156 2273 1281 
Q 2116 1406 1581 1522 
L 1381 1569 
Q 847 1681 609 1914 
Q 372 2147 372 2553 
Q 372 3047 722 3315 
Q 1072 3584 1716 3584 
Q 2034 3584 2315 3537 
Q 2597 3491 2834 3397 
z
" transform="scale(0.015625)"/>
       <path id="DejaVuSans-28" d="M 1984 4856 
Q 1566 4138 1362 3434 
Q 1159 2731 1159 2009 
Q 1159 1288 1364 580 
Q 1569 -128 1984 -844 
L 1484 -844 
Q 1016 -109 783 600 
Q 550 1309 550 2009 
Q 550 2706 781 3412 
Q 1013 4119 1484 4856 
L 1984 4856 
z
" transform="scale(0.015625)"/>
       <path id="DejaVuSans-64" d="M 2906 2969 
L 2906 4863 
L 3481 4863 
L 3481 0 
L 2906 0 
L 2906 525 
Q 2725 213 2448 61 
Q 2172 -91 1784 -91 
Q 1150 -91 751 415 
Q 353 922 353 1747 
Q 353 2572 751 3078 
Q 1150 3584 1784 3584 
Q 2172 3584 2448 3432 
Q 2725 3281 2906 2969 
z
M 947 1747 
Q 947 1113 1208 752 
Q 1469 391 1925 391 
Q 2381 391 2643 752 
Q 2906 1113 2906 1747 
Q 2906 2381 2643 2742 
Q 2381 3103 1925 3103 
Q 1469 3103 1208 2742 
Q 947 2381 947 1747 
z
" transform="scale(0.015625)"/>
       <path id="DejaVuSans-42" d="M 1259 2228 
L 1259 519 
L 2272 519 
Q 2781 519 3026 730 
Q 3272 941 3272 1375 
Q 3272 1813 3026 2020 
Q 2781 2228 2272 2228 
L 1259 2228 
z
M 1259 4147 
L 1259 2741 
L 2194 2741 
Q 2656 2741 2882 2914 
Q 3109 3088 3109 3444 
Q 3109 3797 2882 3972 
Q 2656 4147 2194 4147 
L 1259 4147 
z
M 628 4666 
L 2241 4666 
Q 2963 4666 3353 4366 
Q 3744 4066 3744 3513 
Q 3744 3084 3544 2831 
Q 3344 2578 2956 2516 
Q 3422 2416 3680 2098 
Q 3938 1781 3938 1306 
Q 3938 681 3513 340 
Q 3088 0 2303 0 
L 628 0 
L 628 4666 
z
" transform="scale(0.015625)"/>
       <path id="DejaVuSans-29" d="M 513 4856 
L 1013 4856 
Q 1481 4119 1714 3412 
Q 1947 2706 1947 2009 
Q 1947 1309 1714 600 
Q 1481 -109 1013 -844 
L 513 -844 
Q 928 -128 1133 580 
Q 1338 1288 1338 2009 
Q 1338 2731 1133 3434 
Q 928 4138 513 4856 
z
" transform="scale(0.015625)"/>
      </defs>
      <use xlink:href="#DejaVuSans-53" transform="translate(0 0.015625)"/>
      <use xlink:href="#DejaVuSans-4e" transform="translate(63.476562 0.015625)"/>
      <use xlink:href="#DejaVuSans-52" transform="translate(134.65625 0.015625)"/>
      <use xlink:href="#DejaVuSans-74" transform="translate(205.095703 -16.390625)scale(0.7)"/>
      <use xlink:href="#DejaVuSans-65" transform="translate(232.541992 -16.390625)scale(0.7)"/>
      <use xlink:href="#DejaVuSans-73" transform="translate(275.608398 -16.390625)scale(0.7)"/>
      <use xlink:href="#DejaVuSans-74" transform="translate(312.078125 -16.390625)scale(0.7)"/>
      <use xlink:href="#DejaVuSans-28" transform="translate(342.258789 0.015625)"/>
      <use xlink:href="#DejaVuSans-64" transform="translate(381.272461 0.015625)"/>
      <use xlink:href="#DejaVuSans-42" transform="translate(444.749023 0.015625)"/>
      <use xlink:href="#DejaVuSans-29" transform="translate(513.352539 0.015625)"/>
     </g>
    </g>
   </g>
   <g id="matplotlib.axis_2">
    <g id="ytick_1">
     <g id="line2d_13">
      <path d="M 99.908834 481.207018 
L 716.99976 481.207018 
" clip-path="url(#p93b18088eb)" style="fill: none; stroke-dasharray: 2.5,5; stroke-dashoffset: 0; stroke: #b0b0b0; stroke-width: 0.5"/>
     </g>
     <g id="line2d_14">
      <defs>
       <path id="mb78121f6b2" d="M 0 0 
L 3.5 0 
" style="stroke: #000000; stroke-width: 2"/>
      </defs>
      <g>
       <use xlink:href="#mb78121f6b2" x="99.908834" y="481.207018" style="stroke: #000000; stroke-width: 2"/>
      </g>
     </g>
     <g id="line2d_15">
      <defs>
       <path id="m9c574591b1" d="M 0 0 
L -3.5 0 
" style="stroke: #000000; stroke-width: 2"/>
      </defs>
      <g>
       <use xlink:href="#m9c574591b1" x="716.99976" y="481.207018" style="stroke: #000000; stroke-width: 2"/>
      </g>
     </g>
     <g id="text_6">
      <!-- 0.80 -->
      <g transform="translate(40.408834 492.317018)scale(0.32 -0.32)">
       <defs>
        <path id="TimesNewRomanPSMT-2e" d="M 800 606 
Q 947 606 1047 504 
Q 1147 403 1147 259 
Q 1147 116 1045 14 
Q 944 -88 800 -88 
Q 656 -88 554 14 
Q 453 116 453 259 
Q 453 406 554 506 
Q 656 606 800 606 
z
" transform="scale(0.015625)"/>
        <path id="TimesNewRomanPSMT-38" d="M 1228 2134 
Q 725 2547 579 2797 
Q 434 3047 434 3316 
Q 434 3728 753 4026 
Q 1072 4325 1600 4325 
Q 2113 4325 2425 4047 
Q 2738 3769 2738 3413 
Q 2738 3175 2569 2928 
Q 2400 2681 1866 2347 
Q 2416 1922 2594 1678 
Q 2831 1359 2831 1006 
Q 2831 559 2490 242 
Q 2150 -75 1597 -75 
Q 994 -75 656 303 
Q 388 606 388 966 
Q 388 1247 577 1523 
Q 766 1800 1228 2134 
z
M 1719 2469 
Q 2094 2806 2194 3001 
Q 2294 3197 2294 3444 
Q 2294 3772 2109 3958 
Q 1925 4144 1606 4144 
Q 1288 4144 1088 3959 
Q 888 3775 888 3528 
Q 888 3366 970 3203 
Q 1053 3041 1206 2894 
L 1719 2469 
z
M 1375 2016 
Q 1116 1797 991 1539 
Q 866 1281 866 981 
Q 866 578 1086 336 
Q 1306 94 1647 94 
Q 1984 94 2187 284 
Q 2391 475 2391 747 
Q 2391 972 2272 1150 
Q 2050 1481 1375 2016 
z
" transform="scale(0.015625)"/>
       </defs>
       <use xlink:href="#TimesNewRomanPSMT-30"/>
       <use xlink:href="#TimesNewRomanPSMT-2e" x="50"/>
       <use xlink:href="#TimesNewRomanPSMT-38" x="75"/>
       <use xlink:href="#TimesNewRomanPSMT-30" x="125"/>
      </g>
     </g>
    </g>
    <g id="ytick_2">
     <g id="line2d_16">
      <path d="M 99.908834 372.745092 
L 716.99976 372.745092 
" clip-path="url(#p93b18088eb)" style="fill: none; stroke-dasharray: 2.5,5; stroke-dashoffset: 0; stroke: #b0b0b0; stroke-width: 0.5"/>
     </g>
     <g id="line2d_17">
      <g>
       <use xlink:href="#mb78121f6b2" x="99.908834" y="372.745092" style="stroke: #000000; stroke-width: 2"/>
      </g>
     </g>
     <g id="line2d_18">
      <g>
       <use xlink:href="#m9c574591b1" x="716.99976" y="372.745092" style="stroke: #000000; stroke-width: 2"/>
      </g>
     </g>
     <g id="text_7">
      <!-- 0.85 -->
      <g transform="translate(40.408834 383.855092)scale(0.32 -0.32)">
       <defs>
        <path id="TimesNewRomanPSMT-35" d="M 2778 4238 
L 2534 3706 
L 1259 3706 
L 981 3138 
Q 1809 3016 2294 2522 
Q 2709 2097 2709 1522 
Q 2709 1188 2573 903 
Q 2438 619 2231 419 
Q 2025 219 1772 97 
Q 1413 -75 1034 -75 
Q 653 -75 479 54 
Q 306 184 306 341 
Q 306 428 378 495 
Q 450 563 559 563 
Q 641 563 702 538 
Q 763 513 909 409 
Q 1144 247 1384 247 
Q 1750 247 2026 523 
Q 2303 800 2303 1197 
Q 2303 1581 2056 1914 
Q 1809 2247 1375 2428 
Q 1034 2569 447 2591 
L 1259 4238 
L 2778 4238 
z
" transform="scale(0.015625)"/>
       </defs>
       <use xlink:href="#TimesNewRomanPSMT-30"/>
       <use xlink:href="#TimesNewRomanPSMT-2e" x="50"/>
       <use xlink:href="#TimesNewRomanPSMT-38" x="75"/>
       <use xlink:href="#TimesNewRomanPSMT-35" x="125"/>
      </g>
     </g>
    </g>
    <g id="ytick_3">
     <g id="line2d_19">
      <path d="M 99.908834 264.283166 
L 716.99976 264.283166 
" clip-path="url(#p93b18088eb)" style="fill: none; stroke-dasharray: 2.5,5; stroke-dashoffset: 0; stroke: #b0b0b0; stroke-width: 0.5"/>
     </g>
     <g id="line2d_20">
      <g>
       <use xlink:href="#mb78121f6b2" x="99.908834" y="264.283166" style="stroke: #000000; stroke-width: 2"/>
      </g>
     </g>
     <g id="line2d_21">
      <g>
       <use xlink:href="#m9c574591b1" x="716.99976" y="264.283166" style="stroke: #000000; stroke-width: 2"/>
      </g>
     </g>
     <g id="text_8">
      <!-- 0.90 -->
      <g transform="translate(40.408834 275.393166)scale(0.32 -0.32)">
       <defs>
        <path id="TimesNewRomanPSMT-39" d="M 338 -88 
L 338 28 
Q 744 34 1094 217 
Q 1444 400 1770 856 
Q 2097 1313 2225 1859 
Q 1734 1544 1338 1544 
Q 891 1544 572 1889 
Q 253 2234 253 2806 
Q 253 3363 572 3797 
Q 956 4325 1575 4325 
Q 2097 4325 2469 3894 
Q 2925 3359 2925 2575 
Q 2925 1869 2578 1258 
Q 2231 647 1613 244 
Q 1109 -88 516 -88 
L 338 -88 
z
M 2275 2091 
Q 2331 2497 2331 2741 
Q 2331 3044 2228 3395 
Q 2125 3747 1936 3934 
Q 1747 4122 1506 4122 
Q 1228 4122 1018 3872 
Q 809 3622 809 3128 
Q 809 2469 1088 2097 
Q 1291 1828 1588 1828 
Q 1731 1828 1928 1897 
Q 2125 1966 2275 2091 
z
" transform="scale(0.015625)"/>
       </defs>
       <use xlink:href="#TimesNewRomanPSMT-30"/>
       <use xlink:href="#TimesNewRomanPSMT-2e" x="50"/>
       <use xlink:href="#TimesNewRomanPSMT-39" x="75"/>
       <use xlink:href="#TimesNewRomanPSMT-30" x="125"/>
      </g>
     </g>
    </g>
    <g id="ytick_4">
     <g id="line2d_22">
      <path d="M 99.908834 155.821239 
L 716.99976 155.821239 
" clip-path="url(#p93b18088eb)" style="fill: none; stroke-dasharray: 2.5,5; stroke-dashoffset: 0; stroke: #b0b0b0; stroke-width: 0.5"/>
     </g>
     <g id="line2d_23">
      <g>
       <use xlink:href="#mb78121f6b2" x="99.908834" y="155.821239" style="stroke: #000000; stroke-width: 2"/>
      </g>
     </g>
     <g id="line2d_24">
      <g>
       <use xlink:href="#m9c574591b1" x="716.99976" y="155.821239" style="stroke: #000000; stroke-width: 2"/>
      </g>
     </g>
     <g id="text_9">
      <!-- 0.95 -->
      <g transform="translate(40.408834 166.931239)scale(0.32 -0.32)">
       <use xlink:href="#TimesNewRomanPSMT-30"/>
       <use xlink:href="#TimesNewRomanPSMT-2e" x="50"/>
       <use xlink:href="#TimesNewRomanPSMT-39" x="75"/>
       <use xlink:href="#TimesNewRomanPSMT-35" x="125"/>
      </g>
     </g>
    </g>
    <g id="ytick_5">
     <g id="line2d_25">
      <path d="M 99.908834 47.359313 
L 716.99976 47.359313 
" clip-path="url(#p93b18088eb)" style="fill: none; stroke-dasharray: 2.5,5; stroke-dashoffset: 0; stroke: #b0b0b0; stroke-width: 0.5"/>
     </g>
     <g id="line2d_26">
      <g>
       <use xlink:href="#mb78121f6b2" x="99.908834" y="47.359313" style="stroke: #000000; stroke-width: 2"/>
      </g>
     </g>
     <g id="line2d_27">
      <g>
       <use xlink:href="#m9c574591b1" x="716.99976" y="47.359313" style="stroke: #000000; stroke-width: 2"/>
      </g>
     </g>
     <g id="text_10">
      <!-- 1.00 -->
      <g transform="translate(40.408834 58.469313)scale(0.32 -0.32)">
       <use xlink:href="#TimesNewRomanPSMT-31"/>
       <use xlink:href="#TimesNewRomanPSMT-2e" x="50"/>
       <use xlink:href="#TimesNewRomanPSMT-30" x="75"/>
       <use xlink:href="#TimesNewRomanPSMT-30" x="125"/>
      </g>
     </g>
    </g>
    <g id="text_11">
     <!-- 分类准确率(%) -->
     <g transform="translate(30.240084 405.024703)rotate(-90)scale(0.35 -0.35)">
      <defs>
       <path id="UNAVAILABLE-5206" d="M 2191 4775 
L 2772 4400 
Q 2791 4384 2789 4362 
Q 2788 4341 2756 4334 
L 2541 4278 
Q 2194 3653 1967 3300 
Q 1741 2947 1461 2620 
Q 1181 2294 1043 2161 
Q 906 2028 667 1833 
Q 428 1638 231 1503 
L 184 1575 
Q 528 1897 750 2130 
Q 972 2363 1295 2869 
Q 1619 3375 1792 3753 
Q 1966 4131 2019 4275 
Q 2072 4419 2191 4775 
z
M 2428 2147 
L 2050 2150 
Q 1763 2150 1522 2044 
L 1338 2309 
L 1697 2297 
L 4119 2297 
L 4344 2553 
L 4747 2247 
Q 4838 2175 4836 2161 
Q 4834 2147 4781 2116 
L 4581 1997 
Q 4525 1272 4490 812 
Q 4456 353 4429 67 
Q 4403 -219 4339 -366 
Q 4275 -513 4131 -648 
Q 3988 -784 3869 -828 
L 3613 -934 
Q 3588 -816 3539 -689 
Q 3491 -563 3384 -498 
Q 3278 -434 3000 -316 
L 2825 -244 
L 2850 -147 
Q 3672 -372 3808 -286 
Q 3944 -200 3983 -100 
Q 4022 0 4069 358 
Q 4116 716 4128 900 
L 4222 2150 
L 2850 2150 
Q 2819 1928 2776 1656 
Q 2734 1384 2651 1078 
Q 2569 772 2444 456 
Q 2319 141 2042 -140 
Q 1766 -422 1491 -580 
Q 1216 -738 1000 -838 
L 731 -959 
L 584 -1028 
L 534 -934 
Q 1178 -594 1511 -273 
Q 1844 47 1967 283 
Q 2091 519 2227 895 
Q 2363 1272 2403 1828 
L 2428 2147 
L 2428 2147 
z
M 3506 4847 
L 4050 4641 
L 4159 4600 
Q 4159 4588 4081 4531 
L 3909 4403 
Q 3969 4194 4017 4066 
Q 4066 3938 4242 3597 
Q 4419 3256 4801 2928 
Q 5184 2600 5511 2472 
Q 5838 2344 6256 2275 
L 6241 2194 
Q 6009 2178 5865 2100 
Q 5722 2022 5556 1828 
Q 4984 2216 4643 2580 
Q 4303 2944 4162 3209 
Q 4022 3475 3947 3653 
Q 3872 3831 3822 3975 
L 3634 4516 
L 3506 4847 
L 3506 4847 
z
" transform="scale(0.015625)"/>
       <path id="UNAVAILABLE-7c7b" d="M 250 1147 
L 881 1131 
L 2863 1131 
Q 2869 1216 2880 1334 
Q 2891 1453 2888 1522 
L 2875 1784 
L 3441 1572 
Q 3528 1538 3529 1508 
Q 3531 1478 3463 1450 
L 3328 1391 
Q 3303 1250 3281 1131 
L 5288 1131 
L 5634 1528 
L 6091 1103 
Q 6166 1031 6156 1009 
Q 6147 988 6078 988 
L 3497 988 
Q 3575 825 3673 662 
Q 3772 500 4181 162 
Q 4591 -175 5142 -279 
Q 5694 -384 6159 -416 
L 6159 -503 
Q 5844 -531 5745 -573 
Q 5647 -616 5616 -691 
L 5513 -888 
Q 5059 -713 4778 -584 
Q 4497 -456 4130 -196 
Q 3763 63 3484 681 
L 3400 878 
L 3353 988 
L 3247 988 
Q 3197 819 3130 628 
Q 3063 438 2913 227 
Q 2763 16 2473 -212 
Q 2184 -441 1834 -605 
Q 1484 -769 1154 -842 
Q 825 -916 338 -997 
L 316 -909 
Q 1097 -703 1614 -439 
Q 2131 -175 2423 183 
Q 2716 541 2781 825 
L 2822 988 
L 838 988 
Q 569 988 456 909 
L 250 1147 
z
M 378 3391 
L 1041 3375 
L 3000 3375 
L 3000 4306 
L 2972 4913 
L 3497 4725 
Q 3591 4688 3594 4659 
Q 3597 4631 3497 4566 
L 3384 4491 
L 3384 3375 
L 3738 3375 
Q 4078 3825 4281 4117 
Q 4484 4409 4553 4600 
L 4619 4775 
L 5075 4425 
Q 5153 4363 5139 4339 
Q 5125 4316 5066 4306 
L 4906 4281 
Q 4347 3759 3919 3375 
L 5213 3375 
L 5525 3781 
L 6016 3350 
Q 6091 3281 6083 3253 
Q 6075 3225 6016 3225 
L 3384 3225 
L 3384 2997 
Q 4322 2791 4839 2630 
Q 5356 2469 5457 2400 
Q 5559 2331 5575 2206 
Q 5591 2081 5591 1953 
Q 5588 1772 5466 1778 
Q 5425 1778 5283 1928 
Q 5141 2078 4566 2406 
Q 3991 2734 3384 2878 
L 3384 2494 
L 3413 1988 
Q 3244 1863 2972 1806 
L 3000 2538 
L 3000 3159 
Q 2850 2972 2554 2625 
Q 2259 2278 1698 1943 
Q 1138 1609 544 1363 
L 503 1438 
Q 1091 1806 1434 2054 
Q 1778 2303 2090 2643 
Q 2403 2984 2569 3225 
L 1041 3225 
Q 781 3225 603 3141 
L 378 3391 
z
M 1347 4672 
Q 1375 4653 1833 4429 
Q 2291 4206 2333 4051 
Q 2375 3897 2331 3769 
Q 2294 3669 2209 3600 
Q 2125 3531 2072 3566 
Q 2047 3578 1953 3772 
Q 1859 3966 1817 4042 
Q 1775 4119 1664 4250 
Q 1553 4381 1316 4594 
L 1347 4672 
z
" transform="scale(0.015625)"/>
       <path id="UNAVAILABLE-51c6" d="M 309 1319 
L 325 1400 
Q 684 1331 795 1393 
Q 906 1456 997 1691 
L 1753 3391 
Q 2031 4059 2059 4113 
L 2097 4188 
L 2184 4144 
Q 2025 3725 1789 3053 
Q 1553 2381 1453 2089 
Q 1353 1797 1284 1536 
Q 1216 1275 1194 1095 
Q 1172 916 1170 755 
Q 1169 594 1184 359 
Q 1194 200 1211 14 
Q 1228 -172 1233 -283 
Q 1238 -394 1178 -528 
Q 1119 -663 947 -581 
Q 859 -544 779 -433 
Q 700 -322 709 -166 
Q 709 -119 748 23 
Q 788 166 813 356 
Q 838 547 842 755 
Q 847 963 791 1053 
Q 706 1175 309 1319 
z
M 519 4338 
L 550 4403 
Q 797 4263 934 4175 
Q 1072 4088 1272 3922 
Q 1472 3756 1473 3543 
Q 1475 3331 1354 3217 
Q 1234 3103 1182 3142 
Q 1131 3181 1107 3231 
Q 1084 3281 1034 3487 
Q 984 3694 873 3894 
Q 763 4094 519 4338 
z
M 1563 1628 
Q 1956 2303 2190 2790 
Q 2425 3278 2584 3689 
Q 2744 4100 2781 4209 
L 2875 4519 
Q 2941 4728 2947 4772 
L 2959 4869 
L 3459 4634 
Q 3578 4578 3576 4562 
Q 3575 4547 3497 4503 
L 3306 4394 
L 2972 3694 
L 5250 3694 
L 5538 4106 
L 5988 3641 
Q 6041 3584 6031 3562 
Q 6022 3541 5941 3541 
L 4303 3541 
L 4303 2400 
L 5088 2400 
L 5347 2788 
L 5731 2359 
Q 5791 2291 5780 2270 
Q 5769 2250 5688 2250 
L 4303 2250 
L 4303 1100 
L 5069 1100 
L 5347 1509 
L 5731 1078 
Q 5806 991 5792 969 
Q 5778 947 5719 947 
L 4303 947 
L 4303 -334 
L 5347 -334 
L 5653 66 
L 6009 -378 
Q 6053 -438 6045 -461 
Q 6038 -484 5988 -484 
L 2944 -484 
L 2944 -806 
Q 2763 -956 2534 -1025 
L 2578 -22 
L 2578 2928 
Q 1900 1938 1825 1844 
L 1622 1584 
L 1563 1628 
z
M 2944 -334 
L 3947 -334 
L 3947 947 
L 2944 947 
L 2944 -334 
z
M 2944 1100 
L 3947 1100 
L 3947 2250 
L 2944 2250 
L 2944 1100 
z
M 2944 2400 
L 3947 2400 
L 3947 3541 
L 2944 3541 
L 2944 2400 
z
M 3788 4778 
L 3828 4831 
Q 3984 4731 4146 4634 
Q 4309 4538 4434 4436 
Q 4559 4334 4567 4198 
Q 4575 4063 4472 3959 
Q 4369 3856 4311 3861 
Q 4253 3866 4236 3881 
Q 4219 3897 4206 3948 
Q 4194 4000 4150 4144 
Q 4106 4288 4054 4409 
Q 4003 4531 3788 4778 
z
" transform="scale(0.015625)"/>
       <path id="UNAVAILABLE-786e" d="M 219 1088 
Q 766 2100 945 2734 
Q 1125 3369 1228 3878 
L 1050 3878 
Q 684 3878 472 3784 
L 231 4038 
L 550 4025 
L 2031 4025 
L 2322 4369 
L 2731 3975 
Q 2778 3928 2768 3903 
Q 2759 3878 2669 3878 
L 1666 3878 
Q 1450 3181 1369 2975 
L 1216 2578 
L 1281 2525 
L 1894 2525 
L 2081 2794 
L 2434 2566 
Q 2525 2503 2526 2497 
Q 2528 2491 2434 2406 
L 2322 2306 
L 2322 797 
L 2350 153 
Q 2144 31 1966 -31 
L 1966 328 
L 1234 328 
L 1234 -200 
Q 1191 -234 1056 -295 
Q 922 -356 884 -366 
L 922 472 
L 922 2003 
Q 634 1503 547 1384 
L 294 1034 
L 219 1088 
z
M 1234 472 
L 1966 472 
L 1966 2378 
L 1234 2378 
L 1234 472 
z
M 1622 -984 
Q 1853 -853 2181 -601 
Q 2509 -350 2650 -72 
Q 2791 206 2842 518 
Q 2894 831 2906 1323 
Q 2919 1816 2925 2344 
Q 2928 2763 2925 2913 
L 2919 3169 
Q 2781 3044 2447 2719 
L 2388 2784 
Q 2766 3272 2927 3494 
Q 3088 3716 3330 4192 
Q 3572 4669 3591 4734 
L 3666 4981 
L 4172 4734 
Q 4256 4691 4254 4678 
Q 4253 4666 4163 4622 
L 3988 4538 
L 3650 4059 
L 4644 4059 
L 4916 4334 
L 5356 3975 
Q 5416 3925 5409 3901 
Q 5403 3878 5319 3859 
L 5166 3825 
Q 5041 3797 4881 3678 
Q 4722 3559 4300 3059 
L 5266 3059 
L 5475 3344 
L 5869 3081 
Q 5931 3038 5932 3017 
Q 5934 2997 5853 2944 
L 5713 2850 
L 5713 -441 
Q 5713 -556 5672 -657 
Q 5631 -759 5512 -843 
Q 5394 -928 5153 -978 
Q 5138 -875 5117 -808 
Q 5097 -741 5008 -642 
Q 4919 -544 4547 -459 
L 4575 -372 
Q 5103 -453 5213 -434 
Q 5291 -425 5316 -392 
Q 5341 -359 5341 -250 
L 5341 913 
L 4419 913 
L 4419 181 
L 4456 -488 
Q 4394 -519 4326 -553 
Q 4259 -588 4247 -591 
L 4119 -641 
L 4025 -684 
L 4063 241 
L 4063 913 
L 3228 913 
Q 3209 734 3187 557 
Q 3166 381 3070 126 
Q 2975 -128 2689 -409 
Q 2403 -691 1675 -1063 
L 1622 -984 
z
M 3006 3256 
L 3331 3059 
L 4156 3059 
Q 4284 3259 4344 3366 
L 4522 3706 
L 4634 3916 
L 3547 3916 
Q 3281 3566 3006 3256 
z
M 3228 1059 
L 4063 1059 
L 4063 1906 
L 3266 1906 
L 3228 1059 
z
M 3266 2053 
L 4063 2053 
L 4063 2916 
L 3288 2916 
Q 3278 2563 3278 2497 
L 3266 2053 
L 3266 2053 
z
M 4419 1059 
L 5341 1059 
L 5341 1906 
L 4419 1906 
L 4419 1059 
z
M 4419 2053 
L 5341 2053 
L 5341 2916 
L 4419 2916 
L 4419 2053 
z
" transform="scale(0.015625)"/>
       <path id="UNAVAILABLE-7387" d="M 138 556 
L 453 541 
L 3025 541 
L 3025 944 
L 2991 1459 
Q 2591 1350 2284 1213 
L 2078 1681 
Q 2284 1722 2432 1822 
Q 2581 1922 2803 2159 
L 3203 2591 
L 3325 2719 
Q 2541 2603 2369 2516 
L 2203 2438 
L 1975 2859 
Q 2088 2859 2156 2889 
Q 2225 2919 2414 3158 
Q 2603 3397 2698 3537 
Q 2794 3678 2897 3881 
L 1219 3881 
Q 1134 3881 1062 3870 
Q 991 3859 797 3775 
L 553 4047 
L 919 4034 
L 3203 4034 
Q 3119 4278 3081 4364 
Q 3044 4450 2976 4556 
Q 2909 4663 2713 4822 
L 2734 4916 
Q 3016 4822 3211 4742 
Q 3406 4663 3489 4563 
Q 3572 4463 3562 4350 
Q 3553 4238 3391 4034 
L 5113 4034 
L 5447 4428 
L 5875 4034 
Q 5969 3944 5950 3912 
Q 5931 3881 5850 3881 
L 3131 3881 
L 3378 3747 
Q 3444 3709 3434 3684 
Q 3425 3659 3391 3653 
L 3228 3613 
Q 3138 3550 3094 3519 
L 2503 2988 
L 2284 2797 
L 3450 2859 
Q 3775 3231 3844 3353 
L 3934 3509 
L 4303 3125 
Q 4353 3069 4345 3055 
Q 4338 3041 4284 3034 
L 4100 3006 
Q 3909 2866 3864 2828 
Q 3819 2791 3553 2563 
L 3103 2184 
L 2647 1778 
L 2509 1666 
Q 3413 1728 4084 1809 
Q 3934 2059 3684 2325 
L 3734 2369 
Q 4309 2009 4432 1895 
Q 4556 1781 4592 1678 
Q 4628 1575 4591 1453 
Q 4556 1344 4475 1276 
Q 4394 1209 4353 1219 
Q 4306 1225 4281 1272 
Q 4256 1319 4240 1387 
Q 4225 1456 4141 1697 
Q 3638 1606 3066 1459 
L 3525 1244 
Q 3594 1209 3595 1192 
Q 3597 1175 3525 1128 
L 3391 1038 
L 3391 541 
L 5394 541 
L 5747 925 
L 6181 528 
Q 6241 469 6228 430 
Q 6216 391 6163 391 
L 3391 391 
L 3391 -316 
L 3422 -869 
Q 3278 -969 2975 -1047 
L 3025 -266 
L 3025 391 
L 859 391 
Q 547 391 388 303 
L 138 556 
z
M 456 1581 
Q 844 1709 1053 1800 
Q 1263 1891 2000 2269 
L 2050 2203 
Q 1834 2038 1607 1867 
Q 1381 1697 1190 1548 
Q 1000 1400 784 1144 
L 456 1581 
z
M 941 3506 
Q 1625 3106 1692 2964 
Q 1759 2822 1678 2628 
Q 1634 2525 1556 2469 
Q 1478 2413 1441 2431 
Q 1409 2444 1367 2575 
Q 1325 2706 1284 2823 
Q 1244 2941 1200 3019 
Q 1156 3097 894 3453 
L 941 3506 
z
M 5344 3256 
Q 4713 2697 4484 2469 
L 4422 2531 
Q 4666 2847 4814 3095 
Q 4963 3344 5131 3694 
L 5503 3375 
Q 5581 3306 5570 3281 
Q 5559 3256 5488 3256 
L 5344 3256 
z
M 4553 2197 
L 4588 2269 
Q 4863 2194 5013 2142 
Q 5163 2091 5398 1980 
Q 5634 1869 5679 1778 
Q 5725 1688 5722 1538 
Q 5719 1456 5706 1395 
Q 5694 1334 5650 1279 
Q 5606 1225 5556 1231 
Q 5519 1231 5472 1284 
L 5275 1619 
Q 5216 1709 5028 1884 
Q 4841 2059 4553 2197 
z
" transform="scale(0.015625)"/>
       <path id="UNAVAILABLE-28" d="M 1488 -909 
L 1369 -763 
Q 1216 -578 969 -207 
Q 722 163 594 503 
Q 466 844 417 1164 
Q 369 1484 366 1696 
Q 363 1909 363 2028 
Q 369 2338 417 2658 
Q 466 2978 595 3323 
Q 725 3669 983 4050 
Q 1241 4431 1488 4738 
L 1591 4866 
Q 1616 4900 1658 4931 
Q 1700 4963 1725 4961 
Q 1750 4959 1773 4931 
Q 1797 4903 1756 4834 
L 1653 4659 
Q 1547 4481 1369 4167 
Q 1191 3853 1117 3668 
Q 1044 3484 975 3225 
Q 906 2966 862 2720 
Q 819 2475 809 2192 
Q 800 1909 809 1703 
Q 819 1353 864 1092 
Q 909 831 964 636 
Q 1019 441 1123 159 
Q 1228 -122 1556 -669 
L 1653 -831 
Q 1766 -1028 1767 -1062 
Q 1769 -1097 1739 -1112 
Q 1709 -1128 1661 -1098 
Q 1613 -1069 1488 -909 
z
" transform="scale(0.015625)"/>
       <path id="UNAVAILABLE-25" d="M 931 4356 
Q 1034 4353 1175 4297 
Q 1316 4241 1409 4123 
Q 1503 4006 1553 3865 
Q 1603 3725 1633 3565 
Q 1663 3406 1666 3179 
Q 1669 2953 1616 2681 
Q 1581 2509 1534 2407 
Q 1488 2306 1411 2207 
Q 1334 2109 1207 2025 
Q 1081 1941 916 1941 
Q 759 1938 643 2009 
Q 528 2081 453 2178 
Q 378 2275 318 2412 
Q 259 2550 220 2717 
Q 181 2884 181 3176 
Q 181 3469 231 3669 
Q 266 3809 356 3989 
Q 447 4169 589 4262 
Q 731 4356 931 4356 
z
M 931 2106 
Q 988 2106 1048 2142 
Q 1109 2178 1161 2289 
Q 1213 2400 1234 2556 
Q 1256 2713 1257 3041 
Q 1259 3369 1238 3656 
Q 1216 3900 1162 4006 
Q 1109 4113 1051 4150 
Q 994 4188 938 4191 
Q 869 4191 803 4145 
Q 738 4100 686 3992 
Q 634 3884 615 3709 
Q 597 3534 595 3265 
Q 594 2997 606 2822 
Q 616 2653 639 2511 
Q 663 2369 709 2270 
Q 756 2172 815 2137 
Q 875 2103 931 2106 
z
M 950 -425 
L 3463 4359 
L 3684 4359 
L 1184 -425 
L 950 -425 
z
M 2969 722 
Q 2963 922 3003 1133 
Q 3044 1344 3137 1511 
Q 3231 1678 3375 1778 
Q 3519 1878 3706 1878 
Q 3888 1875 4041 1772 
Q 4194 1669 4283 1483 
Q 4372 1297 4411 1120 
Q 4450 944 4450 731 
Q 4447 516 4409 336 
Q 4372 156 4284 -25 
Q 4197 -206 4031 -317 
Q 3866 -428 3688 -428 
Q 3541 -431 3428 -365 
Q 3316 -300 3219 -170 
Q 3122 -41 3048 175 
Q 2975 391 2969 722 
z
M 3700 -269 
Q 3756 -269 3836 -225 
Q 3916 -181 3962 -39 
Q 4009 103 4018 297 
Q 4028 491 4031 795 
Q 4034 1100 4000 1328 
Q 3978 1463 3939 1538 
Q 3900 1613 3831 1663 
Q 3763 1713 3697 1713 
Q 3644 1709 3581 1670 
Q 3519 1631 3470 1525 
Q 3422 1419 3395 1231 
Q 3369 1044 3367 884 
Q 3366 725 3381 494 
Q 3394 231 3416 100 
Q 3438 -31 3484 -120 
Q 3531 -209 3593 -240 
Q 3656 -272 3700 -269 
z
" transform="scale(0.015625)"/>
       <path id="UNAVAILABLE-29" d="M 509 -822 
L 603 -663 
Q 925 -113 1033 170 
Q 1141 453 1195 643 
Q 1250 834 1294 1093 
Q 1338 1353 1347 1634 
Q 1356 1916 1350 2128 
Q 1338 2491 1295 2730 
Q 1253 2969 1184 3230 
Q 1116 3491 1044 3670 
Q 972 3850 781 4189 
Q 591 4528 509 4666 
L 403 4841 
Q 366 4906 386 4936 
Q 406 4966 431 4967 
Q 456 4969 501 4936 
Q 547 4903 572 4875 
L 675 4744 
Q 956 4381 1192 4036 
Q 1428 3691 1561 3336 
Q 1694 2981 1742 2662 
Q 1791 2344 1795 2130 
Q 1800 1916 1800 1803 
Q 1791 1491 1742 1170 
Q 1694 850 1566 509 
Q 1438 169 1191 -201 
Q 944 -572 794 -756 
L 675 -903 
Q 547 -1063 498 -1092 
Q 450 -1122 422 -1106 
Q 394 -1091 394 -1055 
Q 394 -1019 509 -822 
z
" transform="scale(0.015625)"/>
      </defs>
      <use xlink:href="#UNAVAILABLE-5206"/>
      <use xlink:href="#UNAVAILABLE-7c7b" x="100"/>
      <use xlink:href="#UNAVAILABLE-51c6" x="200"/>
      <use xlink:href="#UNAVAILABLE-786e" x="300"/>
      <use xlink:href="#UNAVAILABLE-7387" x="400"/>
      <use xlink:href="#UNAVAILABLE-28" x="500"/>
      <use xlink:href="#UNAVAILABLE-25" x="533.544922"/>
      <use xlink:href="#UNAVAILABLE-29" x="607.177734"/>
     </g>
    </g>
   </g>
   <g id="line2d_28">
    <path d="M 127.958421 197.360801 
L 141.983215 153.438974 
L 156.008009 124.040009 
L 170.032803 104.910305 
L 184.057596 92.79792 
L 198.08239 85.287075 
L 212.107184 80.647651 
L 226.131978 77.698652 
L 240.156772 75.685632 
L 254.181565 74.171439 
L 268.206359 72.942991 
L 282.231153 71.929563 
L 296.255947 71.137492 
L 310.28074 70.623149 
L 324.305534 70.590049 
L 338.330328 71.01647 
L 352.355122 70.91911 
L 366.379916 70.627416 
L 380.404709 70.201642 
L 394.429503 69.846594 
L 408.454297 69.848016 
L 422.479091 69.797202 
L 436.503884 69.883184 
L 450.528678 69.919775 
L 464.553472 70.01261 
L 478.578266 69.984941 
L 492.60306 70.15794 
L 506.627853 70.219227 
L 520.652647 70.330551 
L 534.677441 70.361324 
L 548.702235 70.337662 
L 562.727028 70.262541 
L 576.751822 70.147726 
L 590.776616 70.01261 
L 604.80141 69.881504 
L 618.826204 69.780523 
L 632.850997 69.733071 
L 646.875791 69.754793 
L 660.900585 69.846076 
L 674.925379 69.986105 
L 688.950172 70.123288 
" clip-path="url(#p93b18088eb)" style="fill: none; stroke: #0000ff; stroke-width: 3; stroke-linecap: square"/>
    <defs>
     <path id="me5f3f5657a" d="M 0 -10 
L -2.24514 -3.09017 
L -9.510565 -3.09017 
L -3.632713 1.18034 
L -5.877853 8.09017 
L -0 3.81966 
L 5.877853 8.09017 
L 3.632713 1.18034 
L 9.510565 -3.09017 
L 2.24514 -3.09017 
z
" style="stroke: #0000ff; stroke-linejoin: bevel"/>
    </defs>
    <g clip-path="url(#p93b18088eb)">
     <use xlink:href="#me5f3f5657a" x="127.958421" y="197.360801" style="fill: #ffffff; stroke: #0000ff; stroke-linejoin: bevel"/>
     <use xlink:href="#me5f3f5657a" x="184.057596" y="92.79792" style="fill: #ffffff; stroke: #0000ff; stroke-linejoin: bevel"/>
     <use xlink:href="#me5f3f5657a" x="240.156772" y="75.685632" style="fill: #ffffff; stroke: #0000ff; stroke-linejoin: bevel"/>
     <use xlink:href="#me5f3f5657a" x="296.255947" y="71.137492" style="fill: #ffffff; stroke: #0000ff; stroke-linejoin: bevel"/>
     <use xlink:href="#me5f3f5657a" x="352.355122" y="70.91911" style="fill: #ffffff; stroke: #0000ff; stroke-linejoin: bevel"/>
     <use xlink:href="#me5f3f5657a" x="408.454297" y="69.848016" style="fill: #ffffff; stroke: #0000ff; stroke-linejoin: bevel"/>
     <use xlink:href="#me5f3f5657a" x="464.553472" y="70.01261" style="fill: #ffffff; stroke: #0000ff; stroke-linejoin: bevel"/>
     <use xlink:href="#me5f3f5657a" x="520.652647" y="70.330551" style="fill: #ffffff; stroke: #0000ff; stroke-linejoin: bevel"/>
     <use xlink:href="#me5f3f5657a" x="576.751822" y="70.147726" style="fill: #ffffff; stroke: #0000ff; stroke-linejoin: bevel"/>
     <use xlink:href="#me5f3f5657a" x="632.850997" y="69.733071" style="fill: #ffffff; stroke: #0000ff; stroke-linejoin: bevel"/>
     <use xlink:href="#me5f3f5657a" x="688.950172" y="70.123288" style="fill: #ffffff; stroke: #0000ff; stroke-linejoin: bevel"/>
    </g>
   </g>
   <g id="line2d_29">
    <path d="M 127.958421 158.738716 
L 141.983215 141.184621 
L 156.008009 126.048762 
L 170.032803 113.163571 
L 184.057596 102.36122 
L 198.08239 93.474142 
L 212.107184 86.334508 
L 226.131978 80.774621 
L 240.156772 76.626783 
L 254.181565 73.723167 
L 268.206359 71.896205 
L 282.231153 70.978198 
L 296.255947 70.80132 
L 310.28074 72.003133 
L 324.305534 72.161134 
L 338.330328 71.827548 
L 352.355122 71.927236 
L 366.379916 71.895041 
L 380.404709 71.937709 
L 394.429503 71.88237 
L 408.454297 71.966283 
L 422.479091 71.999383 
L 436.503884 72.154022 
L 450.528678 72.0736 
L 464.553472 72.026536 
L 478.578266 72.069721 
L 492.60306 72.154798 
L 506.627853 72.127646 
L 520.652647 72.146523 
L 534.677441 72.234703 
L 548.702235 72.329866 
L 562.727028 72.427485 
L 576.751822 72.523423 
L 590.776616 72.613284 
L 604.80141 72.692931 
L 618.826204 72.757967 
L 632.850997 72.803997 
L 646.875791 72.827012 
L 660.900585 72.822486 
L 674.925379 72.786154 
L 688.950172 72.713877 
" clip-path="url(#p93b18088eb)" style="fill: none; stroke-dasharray: 3,4.95; stroke-dashoffset: 0; stroke: #0000ff; stroke-width: 3"/>
    <defs>
     <path id="m362aef5a82" d="M 0 10 
C 2.652031 10 5.195799 8.946337 7.071068 7.071068 
C 8.946337 5.195799 10 2.652031 10 0 
C 10 -2.652031 8.946337 -5.195799 7.071068 -7.071068 
C 5.195799 -8.946337 2.652031 -10 0 -10 
C -2.652031 -10 -5.195799 -8.946337 -7.071068 -7.071068 
C -8.946337 -5.195799 -10 -2.652031 -10 0 
C -10 2.652031 -8.946337 5.195799 -7.071068 7.071068 
C -5.195799 8.946337 -2.652031 10 0 10 
z
" style="stroke: #0000ff"/>
    </defs>
    <g clip-path="url(#p93b18088eb)">
     <use xlink:href="#m362aef5a82" x="127.958421" y="158.738716" style="fill: #ffffff; stroke: #0000ff"/>
     <use xlink:href="#m362aef5a82" x="184.057596" y="102.36122" style="fill: #ffffff; stroke: #0000ff"/>
     <use xlink:href="#m362aef5a82" x="240.156772" y="76.626783" style="fill: #ffffff; stroke: #0000ff"/>
     <use xlink:href="#m362aef5a82" x="296.255947" y="70.80132" style="fill: #ffffff; stroke: #0000ff"/>
     <use xlink:href="#m362aef5a82" x="352.355122" y="71.927236" style="fill: #ffffff; stroke: #0000ff"/>
     <use xlink:href="#m362aef5a82" x="408.454297" y="71.966283" style="fill: #ffffff; stroke: #0000ff"/>
     <use xlink:href="#m362aef5a82" x="464.553472" y="72.026536" style="fill: #ffffff; stroke: #0000ff"/>
     <use xlink:href="#m362aef5a82" x="520.652647" y="72.146523" style="fill: #ffffff; stroke: #0000ff"/>
     <use xlink:href="#m362aef5a82" x="576.751822" y="72.523423" style="fill: #ffffff; stroke: #0000ff"/>
     <use xlink:href="#m362aef5a82" x="632.850997" y="72.803997" style="fill: #ffffff; stroke: #0000ff"/>
     <use xlink:href="#m362aef5a82" x="688.950172" y="72.713877" style="fill: #ffffff; stroke: #0000ff"/>
    </g>
   </g>
   <g id="line2d_30">
    <path d="M 127.958421 241.802143 
L 141.983215 179.264695 
L 156.008009 138.418448 
L 170.032803 112.702887 
L 184.057596 97.130394 
L 198.08239 88.024674 
L 212.107184 82.782081 
L 226.131978 79.655687 
L 240.156772 77.560305 
L 254.181565 75.901687 
L 268.206359 74.4268 
L 282.231153 73.096466 
L 296.255947 71.980894 
L 310.28074 71.48336 
L 324.305534 71.531459 
L 338.330328 71.552146 
L 352.355122 71.351736 
L 366.379916 71.112667 
L 380.404709 70.748697 
L 394.429503 70.158069 
L 408.454297 69.59718 
L 422.479091 69.664802 
L 436.503884 69.322037 
L 450.528678 69.290359 
L 464.553472 69.131324 
L 478.578266 69.180974 
L 492.60306 69.316994 
L 506.627853 69.231012 
L 520.652647 69.191447 
L 534.677441 69.151624 
L 548.702235 69.097448 
L 562.727028 69.030473 
L 576.751822 68.954834 
L 590.776616 68.87648 
L 604.80141 68.802393 
L 618.826204 68.740331 
L 632.850997 68.697275 
L 646.875791 68.679303 
L 660.900585 68.689905 
L 674.925379 68.729212 
L 688.950172 68.792308 
" clip-path="url(#p93b18088eb)" style="fill: none; stroke: #ff0000; stroke-width: 3; stroke-linecap: square"/>
    <defs>
     <path id="md63e584708" d="M 0 -10 
L -2.24514 -3.09017 
L -9.510565 -3.09017 
L -3.632713 1.18034 
L -5.877853 8.09017 
L -0 3.81966 
L 5.877853 8.09017 
L 3.632713 1.18034 
L 9.510565 -3.09017 
L 2.24514 -3.09017 
z
" style="stroke: #ff0000; stroke-linejoin: bevel"/>
    </defs>
    <g clip-path="url(#p93b18088eb)">
     <use xlink:href="#md63e584708" x="127.958421" y="241.802143" style="fill: #ffffff; stroke: #ff0000; stroke-linejoin: bevel"/>
     <use xlink:href="#md63e584708" x="184.057596" y="97.130394" style="fill: #ffffff; stroke: #ff0000; stroke-linejoin: bevel"/>
     <use xlink:href="#md63e584708" x="240.156772" y="77.560305" style="fill: #ffffff; stroke: #ff0000; stroke-linejoin: bevel"/>
     <use xlink:href="#md63e584708" x="296.255947" y="71.980894" style="fill: #ffffff; stroke: #ff0000; stroke-linejoin: bevel"/>
     <use xlink:href="#md63e584708" x="352.355122" y="71.351736" style="fill: #ffffff; stroke: #ff0000; stroke-linejoin: bevel"/>
     <use xlink:href="#md63e584708" x="408.454297" y="69.59718" style="fill: #ffffff; stroke: #ff0000; stroke-linejoin: bevel"/>
     <use xlink:href="#md63e584708" x="464.553472" y="69.131324" style="fill: #ffffff; stroke: #ff0000; stroke-linejoin: bevel"/>
     <use xlink:href="#md63e584708" x="520.652647" y="69.191447" style="fill: #ffffff; stroke: #ff0000; stroke-linejoin: bevel"/>
     <use xlink:href="#md63e584708" x="576.751822" y="68.954834" style="fill: #ffffff; stroke: #ff0000; stroke-linejoin: bevel"/>
     <use xlink:href="#md63e584708" x="632.850997" y="68.697275" style="fill: #ffffff; stroke: #ff0000; stroke-linejoin: bevel"/>
     <use xlink:href="#md63e584708" x="688.950172" y="68.792308" style="fill: #ffffff; stroke: #ff0000; stroke-linejoin: bevel"/>
    </g>
   </g>
   <g id="line2d_31">
    <path d="M 127.958421 220.671314 
L 141.983215 168.32529 
L 156.008009 134.5923 
L 170.032803 113.596844 
L 184.057596 100.935207 
L 198.08239 93.421906 
L 212.107184 88.857345 
L 226.131978 85.819131 
L 240.156772 83.474723 
L 254.181565 81.417225 
L 268.206359 79.524451 
L 282.231153 77.839069 
L 296.255947 76.472273 
L 310.28074 75.889533 
L 324.305534 75.695459 
L 338.330328 75.284037 
L 352.355122 75.59409 
L 366.379916 75.769158 
L 380.404709 75.291407 
L 394.429503 75.114529 
L 408.454297 74.793356 
L 422.479091 74.141571 
L 436.503884 74.144803 
L 450.528678 74.344438 
L 464.553472 74.223028 
L 478.578266 73.934826 
L 492.60306 73.688645 
L 506.627853 73.592319 
L 520.652647 73.435094 
L 534.677441 73.348853 
L 548.702235 73.306573 
L 562.727028 73.303728 
L 576.751822 73.330364 
L 590.776616 73.372256 
L 604.80141 73.413113 
L 618.826204 73.437809 
L 632.850997 73.435999 
L 646.875791 73.406778 
L 660.900585 73.364756 
L 674.925379 73.34575 
L 688.950172 73.414536 
" clip-path="url(#p93b18088eb)" style="fill: none; stroke-dasharray: 3,4.95; stroke-dashoffset: 0; stroke: #ff0000; stroke-width: 3"/>
    <defs>
     <path id="mfb95ca626a" d="M 0 10 
C 2.652031 10 5.195799 8.946337 7.071068 7.071068 
C 8.946337 5.195799 10 2.652031 10 0 
C 10 -2.652031 8.946337 -5.195799 7.071068 -7.071068 
C 5.195799 -8.946337 2.652031 -10 0 -10 
C -2.652031 -10 -5.195799 -8.946337 -7.071068 -7.071068 
C -8.946337 -5.195799 -10 -2.652031 -10 0 
C -10 2.652031 -8.946337 5.195799 -7.071068 7.071068 
C -5.195799 8.946337 -2.652031 10 0 10 
z
" style="stroke: #ff0000"/>
    </defs>
    <g clip-path="url(#p93b18088eb)">
     <use xlink:href="#mfb95ca626a" x="127.958421" y="220.671314" style="fill: #ffffff; stroke: #ff0000"/>
     <use xlink:href="#mfb95ca626a" x="184.057596" y="100.935207" style="fill: #ffffff; stroke: #ff0000"/>
     <use xlink:href="#mfb95ca626a" x="240.156772" y="83.474723" style="fill: #ffffff; stroke: #ff0000"/>
     <use xlink:href="#mfb95ca626a" x="296.255947" y="76.472273" style="fill: #ffffff; stroke: #ff0000"/>
     <use xlink:href="#mfb95ca626a" x="352.355122" y="75.59409" style="fill: #ffffff; stroke: #ff0000"/>
     <use xlink:href="#mfb95ca626a" x="408.454297" y="74.793356" style="fill: #ffffff; stroke: #ff0000"/>
     <use xlink:href="#mfb95ca626a" x="464.553472" y="74.223028" style="fill: #ffffff; stroke: #ff0000"/>
     <use xlink:href="#mfb95ca626a" x="520.652647" y="73.435094" style="fill: #ffffff; stroke: #ff0000"/>
     <use xlink:href="#mfb95ca626a" x="576.751822" y="73.330364" style="fill: #ffffff; stroke: #ff0000"/>
     <use xlink:href="#mfb95ca626a" x="632.850997" y="73.435999" style="fill: #ffffff; stroke: #ff0000"/>
     <use xlink:href="#mfb95ca626a" x="688.950172" y="73.414536" style="fill: #ffffff; stroke: #ff0000"/>
    </g>
   </g>
   <g id="line2d_32">
    <path d="M 127.958421 448.781839 
L 141.983215 337.910443 
L 156.008009 256.990755 
L 170.032803 199.313698 
L 184.057596 159.311759 
L 198.08239 132.430718 
L 212.107184 115.007601 
L 226.131978 104.156246 
L 240.156772 97.659734 
L 254.181565 93.869531 
L 268.206359 91.612269 
L 282.231153 90.10286 
L 296.255947 88.864973 
L 310.28074 86.678178 
L 324.305534 85.72927 
L 338.330328 84.883023 
L 352.355122 83.85951 
L 366.379916 83.594452 
L 380.404709 83.139457 
L 394.429503 82.849574 
L 408.454297 82.905689 
L 422.479091 82.972664 
L 436.503884 82.818801 
L 450.528678 82.74743 
L 464.553472 82.594084 
L 478.578266 82.267351 
L 492.60306 82.070044 
L 506.627853 82.192488 
L 520.652647 81.989104 
L 534.677441 81.903251 
L 548.702235 81.864204 
L 562.727028 81.868083 
L 576.751822 81.903251 
L 590.776616 81.951996 
L 604.80141 81.994147 
L 618.826204 82.011085 
L 632.850997 81.991432 
L 646.875791 81.937774 
L 660.900585 81.875323 
L 674.925379 81.860454 
L 688.950172 81.991949 
" clip-path="url(#p93b18088eb)" style="fill: none; stroke: #000000; stroke-width: 3; stroke-linecap: square"/>
    <defs>
     <path id="m8ef9f55903" d="M 0 -10 
L -2.24514 -3.09017 
L -9.510565 -3.09017 
L -3.632713 1.18034 
L -5.877853 8.09017 
L -0 3.81966 
L 5.877853 8.09017 
L 3.632713 1.18034 
L 9.510565 -3.09017 
L 2.24514 -3.09017 
z
" style="stroke: #000000; stroke-linejoin: bevel"/>
    </defs>
    <g clip-path="url(#p93b18088eb)">
     <use xlink:href="#m8ef9f55903" x="127.958421" y="448.781839" style="fill: #ffffff; stroke: #000000; stroke-linejoin: bevel"/>
     <use xlink:href="#m8ef9f55903" x="184.057596" y="159.311759" style="fill: #ffffff; stroke: #000000; stroke-linejoin: bevel"/>
     <use xlink:href="#m8ef9f55903" x="240.156772" y="97.659734" style="fill: #ffffff; stroke: #000000; stroke-linejoin: bevel"/>
     <use xlink:href="#m8ef9f55903" x="296.255947" y="88.864973" style="fill: #ffffff; stroke: #000000; stroke-linejoin: bevel"/>
     <use xlink:href="#m8ef9f55903" x="352.355122" y="83.85951" style="fill: #ffffff; stroke: #000000; stroke-linejoin: bevel"/>
     <use xlink:href="#m8ef9f55903" x="408.454297" y="82.905689" style="fill: #ffffff; stroke: #000000; stroke-linejoin: bevel"/>
     <use xlink:href="#m8ef9f55903" x="464.553472" y="82.594084" style="fill: #ffffff; stroke: #000000; stroke-linejoin: bevel"/>
     <use xlink:href="#m8ef9f55903" x="520.652647" y="81.989104" style="fill: #ffffff; stroke: #000000; stroke-linejoin: bevel"/>
     <use xlink:href="#m8ef9f55903" x="576.751822" y="81.903251" style="fill: #ffffff; stroke: #000000; stroke-linejoin: bevel"/>
     <use xlink:href="#m8ef9f55903" x="632.850997" y="81.991432" style="fill: #ffffff; stroke: #000000; stroke-linejoin: bevel"/>
     <use xlink:href="#m8ef9f55903" x="688.950172" y="81.991949" style="fill: #ffffff; stroke: #000000; stroke-linejoin: bevel"/>
    </g>
   </g>
   <g id="line2d_33">
    <path d="M 127.958421 517.113072 
L 141.983215 393.203526 
L 156.008009 301.727022 
L 170.032803 235.656671 
L 184.057596 189.117103 
L 198.08239 157.260467 
L 212.107184 136.150196 
L 226.131978 122.649035 
L 240.156772 114.314958 
L 254.181565 109.302384 
L 268.206359 106.26973 
L 282.231153 104.29343 
L 296.255947 102.787512 
L 310.28074 100.494306 
L 324.305534 99.399033 
L 338.330328 98.927876 
L 352.355122 97.382134 
L 366.379916 97.14022 
L 380.404709 96.594847 
L 394.429503 96.267209 
L 408.454297 96.484686 
L 422.479091 96.316729 
L 436.503884 97.124963 
L 450.528678 97.187672 
L 464.553472 97.522292 
L 478.578266 97.530308 
L 492.60306 97.450661 
L 506.627853 97.600258 
L 520.652647 97.909794 
L 534.677441 97.850835 
L 548.702235 97.659993 
L 562.727028 97.382651 
L 576.751822 97.088889 
L 590.776616 96.862103 
L 604.80141 96.783491 
L 618.826204 96.911106 
L 632.850997 97.255036 
L 646.875791 97.747656 
L 660.900585 98.208599 
L 674.925379 98.305571 
L 688.950172 97.510784 
" clip-path="url(#p93b18088eb)" style="fill: none; stroke-dasharray: 3,4.95; stroke-dashoffset: 0; stroke: #000000; stroke-width: 3"/>
    <defs>
     <path id="m47dd861bdc" d="M 0 10 
C 2.652031 10 5.195799 8.946337 7.071068 7.071068 
C 8.946337 5.195799 10 2.652031 10 0 
C 10 -2.652031 8.946337 -5.195799 7.071068 -7.071068 
C 5.195799 -8.946337 2.652031 -10 0 -10 
C -2.652031 -10 -5.195799 -8.946337 -7.071068 -7.071068 
C -8.946337 -5.195799 -10 -2.652031 -10 0 
C -10 2.652031 -8.946337 5.195799 -7.071068 7.071068 
C -5.195799 8.946337 -2.652031 10 0 10 
z
" style="stroke: #000000"/>
    </defs>
    <g clip-path="url(#p93b18088eb)">
     <use xlink:href="#m47dd861bdc" x="127.958421" y="517.113072" style="fill: #ffffff; stroke: #000000"/>
     <use xlink:href="#m47dd861bdc" x="184.057596" y="189.117103" style="fill: #ffffff; stroke: #000000"/>
     <use xlink:href="#m47dd861bdc" x="240.156772" y="114.314958" style="fill: #ffffff; stroke: #000000"/>
     <use xlink:href="#m47dd861bdc" x="296.255947" y="102.787512" style="fill: #ffffff; stroke: #000000"/>
     <use xlink:href="#m47dd861bdc" x="352.355122" y="97.382134" style="fill: #ffffff; stroke: #000000"/>
     <use xlink:href="#m47dd861bdc" x="408.454297" y="96.484686" style="fill: #ffffff; stroke: #000000"/>
     <use xlink:href="#m47dd861bdc" x="464.553472" y="97.522292" style="fill: #ffffff; stroke: #000000"/>
     <use xlink:href="#m47dd861bdc" x="520.652647" y="97.909794" style="fill: #ffffff; stroke: #000000"/>
     <use xlink:href="#m47dd861bdc" x="576.751822" y="97.088889" style="fill: #ffffff; stroke: #000000"/>
     <use xlink:href="#m47dd861bdc" x="632.850997" y="97.255036" style="fill: #ffffff; stroke: #000000"/>
     <use xlink:href="#m47dd861bdc" x="688.950172" y="97.510784" style="fill: #ffffff; stroke: #000000"/>
    </g>
   </g>
   <g id="patch_3">
    <path d="M 99.908834 539.53476 
L 99.908834 46.257615 
" style="fill: none; stroke: #000000; stroke-width: 2.5; stroke-linejoin: miter; stroke-linecap: square"/>
   </g>
   <g id="patch_4">
    <path d="M 716.99976 539.53476 
L 716.99976 46.257615 
" style="fill: none; stroke: #000000; stroke-width: 2.5; stroke-linejoin: miter; stroke-linecap: square"/>
   </g>
   <g id="patch_5">
    <path d="M 99.908834 539.53476 
L 716.99976 539.53476 
" style="fill: none; stroke: #000000; stroke-width: 2.5; stroke-linejoin: miter; stroke-linecap: square"/>
   </g>
   <g id="patch_6">
    <path d="M 99.908834 46.257615 
L 716.99976 46.257615 
" style="fill: none; stroke: #000000; stroke-width: 2.5; stroke-linejoin: miter; stroke-linecap: square"/>
   </g>
   <g id="legend_1">
    <g id="patch_7">
     <path d="M 229.24976 539.53476 
L 711.99976 539.53476 
Q 716.99976 539.53476 716.99976 534.53476 
L 716.99976 355.53476 
Q 716.99976 350.53476 711.99976 350.53476 
L 229.24976 350.53476 
Q 224.24976 350.53476 224.24976 355.53476 
L 224.24976 534.53476 
Q 224.24976 539.53476 229.24976 539.53476 
L 229.24976 539.53476 
z
" style="fill: none; stroke: #000000; stroke-linejoin: miter"/>
    </g>
    <g id="line2d_34">
     <path d="M 234.24976 371.28476 
L 259.24976 371.28476 
L 284.24976 371.28476 
" style="fill: none; stroke: #0000ff; stroke-width: 3; stroke-linecap: square"/>
     <g>
      <use xlink:href="#me5f3f5657a" x="259.24976" y="371.28476" style="fill: #ffffff; stroke: #0000ff; stroke-linejoin: bevel"/>
     </g>
    </g>
    <g id="text_12">
     <!-- 中心式, $\mathrm{R}=0.9,\mathrm{SNR}_\mathrm{train}=20\mathrm{(dB)}$ -->
     <g transform="translate(304.24976 380.03476)scale(0.25 -0.25)">
      <defs>
       <path id="UNAVAILABLE-4e2d" d="M 1406 3484 
L 2975 3484 
L 2975 3863 
L 2925 4875 
L 3547 4622 
L 3622 4603 
L 3547 4547 
L 3369 4406 
L 3369 3484 
L 5013 3484 
L 5306 3828 
L 5741 3478 
Q 5794 3434 5792 3417 
Q 5791 3400 5738 3359 
L 5528 3203 
L 5528 1991 
L 5559 1328 
Q 5441 1250 5352 1212 
Q 5263 1175 5103 1138 
L 5103 1588 
L 3369 1588 
L 3369 19 
L 3403 -800 
Q 3284 -897 3206 -934 
L 3072 -988 
L 2938 -1041 
L 2975 81 
L 2975 1588 
L 1341 1588 
L 1341 1197 
Q 1163 1084 919 1053 
L 947 1719 
L 947 3175 
L 919 3759 
L 1406 3484 
z
M 1341 1734 
L 2975 1734 
L 2975 3338 
L 1341 3338 
L 1341 1734 
z
M 3369 1734 
L 5103 1734 
L 5103 3338 
L 3369 3338 
L 3369 1734 
z
" transform="scale(0.015625)"/>
       <path id="UNAVAILABLE-5fc3" d="M 1116 2438 
L 1178 2422 
Q 1178 2344 1179 2292 
Q 1181 2241 1178 2134 
Q 1169 1950 1151 1669 
Q 1134 1388 1093 1095 
Q 1053 803 881 645 
Q 709 488 550 497 
Q 441 500 386 558 
Q 331 616 326 680 
Q 322 744 409 856 
L 634 1103 
Q 847 1347 933 1601 
Q 1019 1856 1044 2003 
L 1103 2391 
L 1116 2438 
L 1116 2438 
z
M 4616 1072 
Q 4619 881 4636 568 
Q 4653 256 4728 161 
Q 4803 66 4997 -28 
Q 4913 -275 4817 -397 
Q 4722 -519 4480 -564 
Q 4238 -609 3569 -619 
Q 2894 -631 2506 -590 
Q 2119 -550 2070 -408 
Q 2022 -266 2022 -166 
L 2022 2756 
L 1984 3575 
L 2559 3288 
Q 2638 3247 2644 3223 
Q 2650 3200 2541 3125 
L 2391 3022 
L 2391 3 
Q 2391 -244 2897 -238 
L 3438 -244 
Q 3928 -247 4120 -214 
Q 4313 -181 4366 -120 
Q 4419 -59 4445 128 
Q 4472 316 4488 513 
L 4503 794 
L 4519 1072 
L 4616 1072 
z
M 2650 4650 
L 2700 4738 
Q 3006 4544 3278 4334 
Q 3550 4125 3636 4015 
Q 3722 3906 3742 3818 
Q 3763 3731 3744 3619 
Q 3713 3453 3617 3364 
Q 3522 3275 3453 3303 
Q 3413 3316 3389 3358 
Q 3366 3400 3344 3520 
Q 3322 3641 3247 3814 
Q 3172 3988 3076 4148 
Q 2981 4309 2650 4650 
z
M 4650 2691 
L 4697 2775 
Q 4734 2741 4756 2728 
L 5222 2422 
Q 5478 2244 5675 2044 
Q 5872 1844 5944 1720 
Q 6016 1597 6020 1490 
Q 6025 1384 5981 1266 
Q 5938 1147 5864 1064 
Q 5791 981 5734 988 
Q 5706 988 5662 1016 
Q 5619 1044 5578 1217 
Q 5538 1391 5480 1552 
Q 5422 1713 5298 1933 
Q 5175 2153 5050 2295 
Q 4925 2438 4650 2691 
z
" transform="scale(0.015625)"/>
       <path id="UNAVAILABLE-5f0f" d="M 431 -91 
Q 1141 0 1381 63 
L 1850 181 
L 1850 1997 
L 1356 1994 
Q 1288 1991 1122 1977 
Q 956 1963 913 1941 
L 794 1884 
L 534 2166 
L 1097 2144 
L 2641 2144 
L 2941 2513 
L 3369 2094 
Q 3403 2059 3387 2026 
Q 3372 1994 3313 1994 
L 2209 1994 
L 2209 266 
Q 3169 494 3775 675 
L 3803 578 
Q 3547 472 3330 386 
Q 3113 300 2134 -33 
Q 1156 -366 984 -478 
L 734 -631 
L 431 -91 
z
M 463 3484 
L 1028 3459 
L 3553 3459 
Q 3541 3719 3533 3925 
Q 3525 4131 3516 4281 
L 3469 4944 
L 4044 4694 
Q 4134 4653 4136 4626 
Q 4138 4600 4056 4553 
L 3922 4475 
Q 3894 3938 3900 3778 
L 3909 3459 
L 5209 3459 
L 5569 3863 
L 6028 3422 
Q 6081 3369 6072 3339 
Q 6063 3309 6000 3309 
L 3909 3309 
Q 3919 3031 3931 2872 
Q 3944 2713 3975 2441 
Q 4006 2169 4050 1947 
Q 4094 1725 4201 1353 
Q 4309 981 4534 625 
Q 4759 269 5084 -14 
Q 5409 -297 5471 -283 
Q 5534 -269 5562 -153 
Q 5591 -38 5653 188 
L 5734 494 
L 5806 719 
L 5872 697 
Q 5841 463 5817 289 
Q 5794 116 5789 -15 
Q 5784 -147 5809 -350 
Q 5834 -584 5898 -700 
Q 5963 -816 5972 -886 
Q 5981 -956 5853 -956 
Q 5656 -959 5431 -804 
Q 5206 -650 4901 -378 
Q 4597 -106 4380 214 
Q 4163 534 4045 767 
Q 3928 1000 3842 1317 
Q 3756 1634 3692 1998 
Q 3628 2363 3619 2528 
L 3553 3309 
L 1403 3309 
Q 1388 3309 1167 3296 
Q 947 3284 906 3263 
L 763 3191 
L 463 3484 
z
M 4378 4578 
L 4416 4634 
Q 4563 4581 4641 4550 
Q 4719 4519 4884 4441 
Q 5050 4363 5134 4277 
Q 5219 4191 5223 4030 
Q 5228 3869 5140 3783 
Q 5053 3697 5001 3705 
Q 4950 3713 4900 3806 
L 4809 4038 
Q 4766 4138 4683 4253 
Q 4600 4369 4378 4578 
z
" transform="scale(0.015625)"/>
       <path id="UNAVAILABLE-2c" d="M 553 -1059 
L 553 -928 
Q 622 -884 690 -842 
Q 759 -800 820 -754 
Q 881 -709 945 -631 
Q 1009 -553 1048 -473 
Q 1088 -394 1097 -297 
Q 1106 -200 1069 -141 
L 1006 -38 
Q 906 -72 836 -86 
Q 766 -100 688 -94 
Q 575 -88 519 -44 
Q 463 0 430 79 
Q 397 159 397 247 
Q 397 334 442 415 
Q 488 497 573 544 
Q 659 591 763 600 
Q 894 606 1001 554 
Q 1109 503 1184 411 
Q 1259 319 1307 183 
Q 1356 47 1350 -100 
Q 1344 -184 1320 -282 
Q 1297 -381 1248 -486 
Q 1200 -591 1119 -678 
Q 1038 -766 919 -853 
Q 800 -941 725 -975 
L 553 -1059 
L 553 -1059 
z
" transform="scale(0.015625)"/>
       <path id="UNAVAILABLE-20" transform="scale(0.015625)"/>
       <path id="DejaVuSans-3d" d="M 678 2906 
L 4684 2906 
L 4684 2381 
L 678 2381 
L 678 2906 
z
M 678 1631 
L 4684 1631 
L 4684 1100 
L 678 1100 
L 678 1631 
z
" transform="scale(0.015625)"/>
       <path id="DejaVuSans-30" d="M 2034 4250 
Q 1547 4250 1301 3770 
Q 1056 3291 1056 2328 
Q 1056 1369 1301 889 
Q 1547 409 2034 409 
Q 2525 409 2770 889 
Q 3016 1369 3016 2328 
Q 3016 3291 2770 3770 
Q 2525 4250 2034 4250 
z
M 2034 4750 
Q 2819 4750 3233 4129 
Q 3647 3509 3647 2328 
Q 3647 1150 3233 529 
Q 2819 -91 2034 -91 
Q 1250 -91 836 529 
Q 422 1150 422 2328 
Q 422 3509 836 4129 
Q 1250 4750 2034 4750 
z
" transform="scale(0.015625)"/>
       <path id="DejaVuSans-2e" d="M 684 794 
L 1344 794 
L 1344 0 
L 684 0 
L 684 794 
z
" transform="scale(0.015625)"/>
       <path id="DejaVuSans-39" d="M 703 97 
L 703 672 
Q 941 559 1184 500 
Q 1428 441 1663 441 
Q 2288 441 2617 861 
Q 2947 1281 2994 2138 
Q 2813 1869 2534 1725 
Q 2256 1581 1919 1581 
Q 1219 1581 811 2004 
Q 403 2428 403 3163 
Q 403 3881 828 4315 
Q 1253 4750 1959 4750 
Q 2769 4750 3195 4129 
Q 3622 3509 3622 2328 
Q 3622 1225 3098 567 
Q 2575 -91 1691 -91 
Q 1453 -91 1209 -44 
Q 966 3 703 97 
z
M 1959 2075 
Q 2384 2075 2632 2365 
Q 2881 2656 2881 3163 
Q 2881 3666 2632 3958 
Q 2384 4250 1959 4250 
Q 1534 4250 1286 3958 
Q 1038 3666 1038 3163 
Q 1038 2656 1286 2365 
Q 1534 2075 1959 2075 
z
" transform="scale(0.015625)"/>
       <path id="DejaVuSans-2c" d="M 750 794 
L 1409 794 
L 1409 256 
L 897 -744 
L 494 -744 
L 750 256 
L 750 794 
z
" transform="scale(0.015625)"/>
       <path id="DejaVuSans-72" d="M 2631 2963 
Q 2534 3019 2420 3045 
Q 2306 3072 2169 3072 
Q 1681 3072 1420 2755 
Q 1159 2438 1159 1844 
L 1159 0 
L 581 0 
L 581 3500 
L 1159 3500 
L 1159 2956 
Q 1341 3275 1631 3429 
Q 1922 3584 2338 3584 
Q 2397 3584 2469 3576 
Q 2541 3569 2628 3553 
L 2631 2963 
z
" transform="scale(0.015625)"/>
       <path id="DejaVuSans-61" d="M 2194 1759 
Q 1497 1759 1228 1600 
Q 959 1441 959 1056 
Q 959 750 1161 570 
Q 1363 391 1709 391 
Q 2188 391 2477 730 
Q 2766 1069 2766 1631 
L 2766 1759 
L 2194 1759 
z
M 3341 1997 
L 3341 0 
L 2766 0 
L 2766 531 
Q 2569 213 2275 61 
Q 1981 -91 1556 -91 
Q 1019 -91 701 211 
Q 384 513 384 1019 
Q 384 1609 779 1909 
Q 1175 2209 1959 2209 
L 2766 2209 
L 2766 2266 
Q 2766 2663 2505 2880 
Q 2244 3097 1772 3097 
Q 1472 3097 1187 3025 
Q 903 2953 641 2809 
L 641 3341 
Q 956 3463 1253 3523 
Q 1550 3584 1831 3584 
Q 2591 3584 2966 3190 
Q 3341 2797 3341 1997 
z
" transform="scale(0.015625)"/>
       <path id="DejaVuSans-69" d="M 603 3500 
L 1178 3500 
L 1178 0 
L 603 0 
L 603 3500 
z
M 603 4863 
L 1178 4863 
L 1178 4134 
L 603 4134 
L 603 4863 
z
" transform="scale(0.015625)"/>
       <path id="DejaVuSans-6e" d="M 3513 2113 
L 3513 0 
L 2938 0 
L 2938 2094 
Q 2938 2591 2744 2837 
Q 2550 3084 2163 3084 
Q 1697 3084 1428 2787 
Q 1159 2491 1159 1978 
L 1159 0 
L 581 0 
L 581 3500 
L 1159 3500 
L 1159 2956 
Q 1366 3272 1645 3428 
Q 1925 3584 2291 3584 
Q 2894 3584 3203 3211 
Q 3513 2838 3513 2113 
z
" transform="scale(0.015625)"/>
       <path id="DejaVuSans-32" d="M 1228 531 
L 3431 531 
L 3431 0 
L 469 0 
L 469 531 
Q 828 903 1448 1529 
Q 2069 2156 2228 2338 
Q 2531 2678 2651 2914 
Q 2772 3150 2772 3378 
Q 2772 3750 2511 3984 
Q 2250 4219 1831 4219 
Q 1534 4219 1204 4116 
Q 875 4013 500 3803 
L 500 4441 
Q 881 4594 1212 4672 
Q 1544 4750 1819 4750 
Q 2544 4750 2975 4387 
Q 3406 4025 3406 3419 
Q 3406 3131 3298 2873 
Q 3191 2616 2906 2266 
Q 2828 2175 2409 1742 
Q 1991 1309 1228 531 
z
" transform="scale(0.015625)"/>
      </defs>
      <use xlink:href="#UNAVAILABLE-4e2d" transform="translate(0 0.75)"/>
      <use xlink:href="#UNAVAILABLE-5fc3" transform="translate(100 0.75)"/>
      <use xlink:href="#UNAVAILABLE-5f0f" transform="translate(200 0.75)"/>
      <use xlink:href="#UNAVAILABLE-2c" transform="translate(300 0.75)"/>
      <use xlink:href="#UNAVAILABLE-20" transform="translate(327.294922 0.75)"/>
      <use xlink:href="#DejaVuSans-52" transform="translate(377.294922 0.75)"/>
      <use xlink:href="#DejaVuSans-3d" transform="translate(466.259766 0.75)"/>
      <use xlink:href="#DejaVuSans-30" transform="translate(569.53125 0.75)"/>
      <use xlink:href="#DejaVuSans-2e" transform="translate(633.154297 0.75)"/>
      <use xlink:href="#DejaVuSans-39" transform="translate(664.941406 0.75)"/>
      <use xlink:href="#DejaVuSans-2c" transform="translate(728.564453 0.75)"/>
      <use xlink:href="#DejaVuSans-53" transform="translate(779.833984 0.75)"/>
      <use xlink:href="#DejaVuSans-4e" transform="translate(843.310547 0.75)"/>
      <use xlink:href="#DejaVuSans-52" transform="translate(914.490234 0.75)"/>
      <use xlink:href="#DejaVuSans-74" transform="translate(984.929688 -15.65625)scale(0.7)"/>
      <use xlink:href="#DejaVuSans-72" transform="translate(1012.375977 -15.65625)scale(0.7)"/>
      <use xlink:href="#DejaVuSans-61" transform="translate(1041.155273 -15.65625)scale(0.7)"/>
      <use xlink:href="#DejaVuSans-69" transform="translate(1084.050781 -15.65625)scale(0.7)"/>
      <use xlink:href="#DejaVuSans-6e" transform="translate(1103.499023 -15.65625)scale(0.7)"/>
      <use xlink:href="#DejaVuSans-3d" transform="translate(1170.081055 0.75)"/>
      <use xlink:href="#DejaVuSans-32" transform="translate(1273.352539 0.75)"/>
      <use xlink:href="#DejaVuSans-30" transform="translate(1336.975586 0.75)"/>
      <use xlink:href="#DejaVuSans-28" transform="translate(1400.598633 0.75)"/>
      <use xlink:href="#DejaVuSans-64" transform="translate(1439.612305 0.75)"/>
      <use xlink:href="#DejaVuSans-42" transform="translate(1503.088867 0.75)"/>
      <use xlink:href="#DejaVuSans-29" transform="translate(1571.692383 0.75)"/>
     </g>
    </g>
    <g id="line2d_35">
     <path d="M 234.24976 400.28476 
L 259.24976 400.28476 
L 284.24976 400.28476 
" style="fill: none; stroke-dasharray: 3,4.95; stroke-dashoffset: 0; stroke: #0000ff; stroke-width: 3"/>
     <g>
      <use xlink:href="#m362aef5a82" x="259.24976" y="400.28476" style="fill: #ffffff; stroke: #0000ff"/>
     </g>
    </g>
    <g id="text_13">
     <!-- 联邦式, $\mathrm{R}=0.9,\mathrm{SNR}_\mathrm{train}=20\mathrm{(dB)}$ -->
     <g transform="translate(304.24976 409.03476)scale(0.25 -0.25)">
      <defs>
       <path id="UNAVAILABLE-8054" d="M 800 581 
L 800 4188 
L 700 4188 
Q 522 4188 375 4128 
L 197 4353 
L 684 4338 
L 2278 4338 
L 2578 4753 
L 2972 4353 
Q 3097 4222 3076 4205 
Q 3056 4188 2991 4188 
L 2363 4188 
L 2363 913 
L 3153 1131 
L 3206 1038 
L 2363 716 
L 2363 0 
L 2397 -744 
Q 2194 -931 2097 -972 
L 1975 -1028 
L 2013 -84 
L 2013 603 
Q 769 172 641 113 
L 397 0 
L 184 503 
Q 525 528 800 581 
z
M 1150 653 
Q 1591 728 2013 831 
L 2013 1772 
L 1150 1772 
L 1150 653 
z
M 2013 1922 
L 2013 2947 
L 1150 2947 
L 1150 1922 
L 2013 1922 
z
M 1150 3097 
L 2013 3097 
L 2013 4188 
L 1150 4188 
L 1150 3097 
z
M 2331 -1063 
Q 2888 -663 3167 -331 
Q 3447 0 3569 292 
Q 3691 584 3758 948 
Q 3825 1313 3841 1525 
L 3853 1684 
L 3266 1684 
Q 3000 1684 2928 1650 
L 2806 1600 
L 2569 1850 
L 3006 1834 
L 3863 1834 
Q 3884 2241 3888 2300 
L 3916 3119 
L 3353 3119 
Q 3119 3119 3050 3091 
L 2906 3041 
L 2694 3284 
L 3044 3266 
L 4241 3266 
Q 4384 3503 4503 3712 
Q 4622 3922 4737 4195 
Q 4853 4469 5009 4925 
L 5519 4578 
Q 5597 4522 5587 4498 
Q 5578 4475 5519 4459 
L 5325 4409 
L 4434 3266 
L 5159 3266 
L 5491 3669 
L 5891 3266 
Q 5981 3169 5961 3144 
Q 5941 3119 5903 3119 
L 4319 3119 
L 4234 1834 
L 5281 1834 
L 5581 2250 
L 6041 1800 
Q 6094 1744 6083 1714 
Q 6072 1684 5925 1684 
L 4478 1684 
Q 4500 1534 4536 1379 
Q 4572 1225 4701 947 
Q 4831 669 5047 364 
Q 5263 59 5603 -156 
Q 5944 -372 6241 -456 
L 6234 -544 
Q 6050 -513 5914 -561 
Q 5778 -609 5613 -784 
Q 5331 -559 5122 -309 
Q 4913 -59 4766 186 
Q 4619 431 4506 787 
Q 4394 1144 4369 1428 
L 4341 1684 
L 4219 1684 
Q 4172 1300 4125 1022 
Q 4078 744 3954 398 
Q 3831 53 3515 -309 
Q 3200 -672 2722 -944 
L 2391 -1138 
L 2331 -1063 
z
M 3078 4775 
L 3138 4831 
Q 3244 4763 3367 4684 
Q 3491 4606 3620 4493 
Q 3750 4381 3872 4220 
Q 3994 4059 3995 3898 
Q 3997 3738 3834 3558 
Q 3672 3378 3636 3489 
Q 3600 3600 3595 3661 
Q 3591 3722 3553 3903 
Q 3516 4084 3484 4190 
Q 3453 4297 3362 4434 
Q 3272 4572 3078 4775 
z
" transform="scale(0.015625)"/>
       <path id="UNAVAILABLE-90a6" d="M 241 1294 
L 756 1272 
L 1731 1272 
Q 1750 1525 1759 1692 
Q 1769 1859 1775 2078 
L 1784 2541 
L 1250 2541 
Q 1156 2541 1098 2533 
Q 1041 2525 844 2463 
L 609 2709 
L 1019 2691 
L 1784 2691 
L 1784 3700 
L 1075 3700 
Q 1003 3700 839 3679 
Q 675 3659 556 3616 
L 350 3872 
L 800 3850 
L 1784 3850 
Q 1775 4122 1767 4356 
Q 1759 4591 1750 4722 
L 1731 4969 
L 2306 4750 
Q 2413 4706 2414 4690 
Q 2416 4675 2322 4616 
L 2163 4516 
L 2147 3850 
L 3013 3850 
L 3334 4241 
L 3719 3816 
Q 3800 3725 3795 3711 
Q 3791 3697 3638 3700 
L 2141 3703 
L 2138 2691 
L 2794 2691 
L 3131 3034 
L 3516 2625 
Q 3544 2591 3539 2566 
Q 3534 2541 3397 2541 
L 2138 2541 
Q 2100 1688 2100 1669 
L 2078 1272 
L 3097 1272 
L 3419 1647 
L 3788 1216 
Q 3834 1159 3825 1139 
Q 3816 1119 3706 1119 
L 2056 1119 
Q 2028 947 1931 515 
Q 1834 84 1401 -294 
Q 969 -672 722 -822 
L 431 -988 
L 350 -1034 
L 306 -941 
Q 728 -641 990 -366 
Q 1253 -91 1443 256 
Q 1634 603 1688 947 
L 1716 1119 
L 1019 1119 
Q 700 1119 444 1019 
L 241 1294 
z
M 5709 4081 
Q 5569 3838 5486 3686 
Q 5403 3534 4963 2613 
Q 5403 2206 5589 1997 
Q 5775 1788 5878 1561 
Q 5981 1334 5995 1071 
Q 6009 809 5917 561 
Q 5825 313 5570 188 
Q 5316 63 5031 3 
Q 5047 91 5044 183 
Q 5041 275 4937 400 
Q 4834 525 4406 700 
L 4438 788 
Q 4475 778 4497 773 
Q 4519 769 4762 694 
Q 5006 619 5231 622 
Q 5406 622 5482 683 
Q 5559 744 5592 887 
Q 5625 1031 5626 1167 
Q 5628 1303 5559 1509 
Q 5484 1716 5343 1930 
Q 5203 2144 4784 2613 
Q 4881 2916 4934 3069 
L 5216 3897 
L 5313 4216 
L 4278 4216 
L 4278 -166 
L 4325 -856 
Q 4247 -934 4126 -978 
Q 4006 -1022 3897 -1025 
L 3931 -41 
L 3934 3841 
L 3897 4678 
L 4391 4363 
L 5244 4363 
L 5497 4663 
L 5903 4325 
Q 6006 4238 5998 4217 
Q 5991 4197 5928 4172 
L 5709 4081 
z
" transform="scale(0.015625)"/>
      </defs>
      <use xlink:href="#UNAVAILABLE-8054" transform="translate(0 0.359375)"/>
      <use xlink:href="#UNAVAILABLE-90a6" transform="translate(100 0.359375)"/>
      <use xlink:href="#UNAVAILABLE-5f0f" transform="translate(200 0.359375)"/>
      <use xlink:href="#UNAVAILABLE-2c" transform="translate(300 0.359375)"/>
      <use xlink:href="#UNAVAILABLE-20" transform="translate(327.294922 0.359375)"/>
      <use xlink:href="#DejaVuSans-52" transform="translate(377.294922 0.359375)"/>
      <use xlink:href="#DejaVuSans-3d" transform="translate(466.259766 0.359375)"/>
      <use xlink:href="#DejaVuSans-30" transform="translate(569.53125 0.359375)"/>
      <use xlink:href="#DejaVuSans-2e" transform="translate(633.154297 0.359375)"/>
      <use xlink:href="#DejaVuSans-39" transform="translate(664.941406 0.359375)"/>
      <use xlink:href="#DejaVuSans-2c" transform="translate(728.564453 0.359375)"/>
      <use xlink:href="#DejaVuSans-53" transform="translate(779.833984 0.359375)"/>
      <use xlink:href="#DejaVuSans-4e" transform="translate(843.310547 0.359375)"/>
      <use xlink:href="#DejaVuSans-52" transform="translate(914.490234 0.359375)"/>
      <use xlink:href="#DejaVuSans-74" transform="translate(984.929688 -16.046875)scale(0.7)"/>
      <use xlink:href="#DejaVuSans-72" transform="translate(1012.375977 -16.046875)scale(0.7)"/>
      <use xlink:href="#DejaVuSans-61" transform="translate(1041.155273 -16.046875)scale(0.7)"/>
      <use xlink:href="#DejaVuSans-69" transform="translate(1084.050781 -16.046875)scale(0.7)"/>
      <use xlink:href="#DejaVuSans-6e" transform="translate(1103.499023 -16.046875)scale(0.7)"/>
      <use xlink:href="#DejaVuSans-3d" transform="translate(1170.081055 0.359375)"/>
      <use xlink:href="#DejaVuSans-32" transform="translate(1273.352539 0.359375)"/>
      <use xlink:href="#DejaVuSans-30" transform="translate(1336.975586 0.359375)"/>
      <use xlink:href="#DejaVuSans-28" transform="translate(1400.598633 0.359375)"/>
      <use xlink:href="#DejaVuSans-64" transform="translate(1439.612305 0.359375)"/>
      <use xlink:href="#DejaVuSans-42" transform="translate(1503.088867 0.359375)"/>
      <use xlink:href="#DejaVuSans-29" transform="translate(1571.692383 0.359375)"/>
     </g>
    </g>
    <g id="line2d_36">
     <path d="M 234.24976 429.28476 
L 259.24976 429.28476 
L 284.24976 429.28476 
" style="fill: none; stroke: #ff0000; stroke-width: 3; stroke-linecap: square"/>
     <g>
      <use xlink:href="#md63e584708" x="259.24976" y="429.28476" style="fill: #ffffff; stroke: #ff0000; stroke-linejoin: bevel"/>
     </g>
    </g>
    <g id="text_14">
     <!-- 中心式, $\mathrm{R}=0.5,\mathrm{SNR}_\mathrm{train}=10\mathrm{(dB)}$ -->
     <g transform="translate(304.24976 438.03476)scale(0.25 -0.25)">
      <defs>
       <path id="DejaVuSans-35" d="M 691 4666 
L 3169 4666 
L 3169 4134 
L 1269 4134 
L 1269 2991 
Q 1406 3038 1543 3061 
Q 1681 3084 1819 3084 
Q 2600 3084 3056 2656 
Q 3513 2228 3513 1497 
Q 3513 744 3044 326 
Q 2575 -91 1722 -91 
Q 1428 -91 1123 -41 
Q 819 9 494 109 
L 494 744 
Q 775 591 1075 516 
Q 1375 441 1709 441 
Q 2250 441 2565 725 
Q 2881 1009 2881 1497 
Q 2881 1984 2565 2268 
Q 2250 2553 1709 2553 
Q 1456 2553 1204 2497 
Q 953 2441 691 2322 
L 691 4666 
z
" transform="scale(0.015625)"/>
       <path id="DejaVuSans-31" d="M 794 531 
L 1825 531 
L 1825 4091 
L 703 3866 
L 703 4441 
L 1819 4666 
L 2450 4666 
L 2450 531 
L 3481 531 
L 3481 0 
L 794 0 
L 794 531 
z
" transform="scale(0.015625)"/>
      </defs>
      <use xlink:href="#UNAVAILABLE-4e2d" transform="translate(0 0.75)"/>
      <use xlink:href="#UNAVAILABLE-5fc3" transform="translate(100 0.75)"/>
      <use xlink:href="#UNAVAILABLE-5f0f" transform="translate(200 0.75)"/>
      <use xlink:href="#UNAVAILABLE-2c" transform="translate(300 0.75)"/>
      <use xlink:href="#UNAVAILABLE-20" transform="translate(327.294922 0.75)"/>
      <use xlink:href="#DejaVuSans-52" transform="translate(377.294922 0.75)"/>
      <use xlink:href="#DejaVuSans-3d" transform="translate(466.259766 0.75)"/>
      <use xlink:href="#DejaVuSans-30" transform="translate(569.53125 0.75)"/>
      <use xlink:href="#DejaVuSans-2e" transform="translate(633.154297 0.75)"/>
      <use xlink:href="#DejaVuSans-35" transform="translate(664.941406 0.75)"/>
      <use xlink:href="#DejaVuSans-2c" transform="translate(728.564453 0.75)"/>
      <use xlink:href="#DejaVuSans-53" transform="translate(779.833984 0.75)"/>
      <use xlink:href="#DejaVuSans-4e" transform="translate(843.310547 0.75)"/>
      <use xlink:href="#DejaVuSans-52" transform="translate(914.490234 0.75)"/>
      <use xlink:href="#DejaVuSans-74" transform="translate(984.929688 -15.65625)scale(0.7)"/>
      <use xlink:href="#DejaVuSans-72" transform="translate(1012.375977 -15.65625)scale(0.7)"/>
      <use xlink:href="#DejaVuSans-61" transform="translate(1041.155273 -15.65625)scale(0.7)"/>
      <use xlink:href="#DejaVuSans-69" transform="translate(1084.050781 -15.65625)scale(0.7)"/>
      <use xlink:href="#DejaVuSans-6e" transform="translate(1103.499023 -15.65625)scale(0.7)"/>
      <use xlink:href="#DejaVuSans-3d" transform="translate(1170.081055 0.75)"/>
      <use xlink:href="#DejaVuSans-31" transform="translate(1273.352539 0.75)"/>
      <use xlink:href="#DejaVuSans-30" transform="translate(1336.975586 0.75)"/>
      <use xlink:href="#DejaVuSans-28" transform="translate(1400.598633 0.75)"/>
      <use xlink:href="#DejaVuSans-64" transform="translate(1439.612305 0.75)"/>
      <use xlink:href="#DejaVuSans-42" transform="translate(1503.088867 0.75)"/>
      <use xlink:href="#DejaVuSans-29" transform="translate(1571.692383 0.75)"/>
     </g>
    </g>
    <g id="line2d_37">
     <path d="M 234.24976 458.28476 
L 259.24976 458.28476 
L 284.24976 458.28476 
" style="fill: none; stroke-dasharray: 3,4.95; stroke-dashoffset: 0; stroke: #ff0000; stroke-width: 3"/>
     <g>
      <use xlink:href="#mfb95ca626a" x="259.24976" y="458.28476" style="fill: #ffffff; stroke: #ff0000"/>
     </g>
    </g>
    <g id="text_15">
     <!-- 联邦式, $\mathrm{R}=0.5,\mathrm{SNR}_\mathrm{train}=10\mathrm{(dB)}$ -->
     <g transform="translate(304.24976 467.03476)scale(0.25 -0.25)">
      <use xlink:href="#UNAVAILABLE-8054" transform="translate(0 0.359375)"/>
      <use xlink:href="#UNAVAILABLE-90a6" transform="translate(100 0.359375)"/>
      <use xlink:href="#UNAVAILABLE-5f0f" transform="translate(200 0.359375)"/>
      <use xlink:href="#UNAVAILABLE-2c" transform="translate(300 0.359375)"/>
      <use xlink:href="#UNAVAILABLE-20" transform="translate(327.294922 0.359375)"/>
      <use xlink:href="#DejaVuSans-52" transform="translate(377.294922 0.359375)"/>
      <use xlink:href="#DejaVuSans-3d" transform="translate(466.259766 0.359375)"/>
      <use xlink:href="#DejaVuSans-30" transform="translate(569.53125 0.359375)"/>
      <use xlink:href="#DejaVuSans-2e" transform="translate(633.154297 0.359375)"/>
      <use xlink:href="#DejaVuSans-35" transform="translate(664.941406 0.359375)"/>
      <use xlink:href="#DejaVuSans-2c" transform="translate(728.564453 0.359375)"/>
      <use xlink:href="#DejaVuSans-53" transform="translate(779.833984 0.359375)"/>
      <use xlink:href="#DejaVuSans-4e" transform="translate(843.310547 0.359375)"/>
      <use xlink:href="#DejaVuSans-52" transform="translate(914.490234 0.359375)"/>
      <use xlink:href="#DejaVuSans-74" transform="translate(984.929688 -16.046875)scale(0.7)"/>
      <use xlink:href="#DejaVuSans-72" transform="translate(1012.375977 -16.046875)scale(0.7)"/>
      <use xlink:href="#DejaVuSans-61" transform="translate(1041.155273 -16.046875)scale(0.7)"/>
      <use xlink:href="#DejaVuSans-69" transform="translate(1084.050781 -16.046875)scale(0.7)"/>
      <use xlink:href="#DejaVuSans-6e" transform="translate(1103.499023 -16.046875)scale(0.7)"/>
      <use xlink:href="#DejaVuSans-3d" transform="translate(1170.081055 0.359375)"/>
      <use xlink:href="#DejaVuSans-31" transform="translate(1273.352539 0.359375)"/>
      <use xlink:href="#DejaVuSans-30" transform="translate(1336.975586 0.359375)"/>
      <use xlink:href="#DejaVuSans-28" transform="translate(1400.598633 0.359375)"/>
      <use xlink:href="#DejaVuSans-64" transform="translate(1439.612305 0.359375)"/>
      <use xlink:href="#DejaVuSans-42" transform="translate(1503.088867 0.359375)"/>
      <use xlink:href="#DejaVuSans-29" transform="translate(1571.692383 0.359375)"/>
     </g>
    </g>
    <g id="line2d_38">
     <path d="M 234.24976 487.28476 
L 259.24976 487.28476 
L 284.24976 487.28476 
" style="fill: none; stroke: #000000; stroke-width: 3; stroke-linecap: square"/>
     <g>
      <use xlink:href="#m8ef9f55903" x="259.24976" y="487.28476" style="fill: #ffffff; stroke: #000000; stroke-linejoin: bevel"/>
     </g>
    </g>
    <g id="text_16">
     <!-- 中心式, $\mathrm{R}=0.2,\mathrm{SNR}_\mathrm{train}=2\mathrm{(dB)}$ -->
     <g transform="translate(304.24976 496.03476)scale(0.25 -0.25)">
      <use xlink:href="#UNAVAILABLE-4e2d" transform="translate(0 0.75)"/>
      <use xlink:href="#UNAVAILABLE-5fc3" transform="translate(100 0.75)"/>
      <use xlink:href="#UNAVAILABLE-5f0f" transform="translate(200 0.75)"/>
      <use xlink:href="#UNAVAILABLE-2c" transform="translate(300 0.75)"/>
      <use xlink:href="#UNAVAILABLE-20" transform="translate(327.294922 0.75)"/>
      <use xlink:href="#DejaVuSans-52" transform="translate(377.294922 0.75)"/>
      <use xlink:href="#DejaVuSans-3d" transform="translate(466.259766 0.75)"/>
      <use xlink:href="#DejaVuSans-30" transform="translate(569.53125 0.75)"/>
      <use xlink:href="#DejaVuSans-2e" transform="translate(633.154297 0.75)"/>
      <use xlink:href="#DejaVuSans-32" transform="translate(659.441406 0.75)"/>
      <use xlink:href="#DejaVuSans-2c" transform="translate(723.064453 0.75)"/>
      <use xlink:href="#DejaVuSans-53" transform="translate(774.333984 0.75)"/>
      <use xlink:href="#DejaVuSans-4e" transform="translate(837.810547 0.75)"/>
      <use xlink:href="#DejaVuSans-52" transform="translate(908.990234 0.75)"/>
      <use xlink:href="#DejaVuSans-74" transform="translate(979.429688 -15.65625)scale(0.7)"/>
      <use xlink:href="#DejaVuSans-72" transform="translate(1006.875977 -15.65625)scale(0.7)"/>
      <use xlink:href="#DejaVuSans-61" transform="translate(1035.655273 -15.65625)scale(0.7)"/>
      <use xlink:href="#DejaVuSans-69" transform="translate(1078.550781 -15.65625)scale(0.7)"/>
      <use xlink:href="#DejaVuSans-6e" transform="translate(1097.999023 -15.65625)scale(0.7)"/>
      <use xlink:href="#DejaVuSans-3d" transform="translate(1164.581055 0.75)"/>
      <use xlink:href="#DejaVuSans-32" transform="translate(1267.852539 0.75)"/>
      <use xlink:href="#DejaVuSans-28" transform="translate(1331.475586 0.75)"/>
      <use xlink:href="#DejaVuSans-64" transform="translate(1370.489258 0.75)"/>
      <use xlink:href="#DejaVuSans-42" transform="translate(1433.96582 0.75)"/>
      <use xlink:href="#DejaVuSans-29" transform="translate(1502.569336 0.75)"/>
     </g>
    </g>
    <g id="line2d_39">
     <path d="M 234.24976 516.28476 
L 259.24976 516.28476 
L 284.24976 516.28476 
" style="fill: none; stroke-dasharray: 3,4.95; stroke-dashoffset: 0; stroke: #000000; stroke-width: 3"/>
     <g>
      <use xlink:href="#m47dd861bdc" x="259.24976" y="516.28476" style="fill: #ffffff; stroke: #000000"/>
     </g>
    </g>
    <g id="text_17">
     <!-- 联邦式, $\mathrm{R}=0.2,\mathrm{SNR}_\mathrm{train}=2\mathrm{(dB)}$ -->
     <g transform="translate(304.24976 525.03476)scale(0.25 -0.25)">
      <use xlink:href="#UNAVAILABLE-8054" transform="translate(0 0.359375)"/>
      <use xlink:href="#UNAVAILABLE-90a6" transform="translate(100 0.359375)"/>
      <use xlink:href="#UNAVAILABLE-5f0f" transform="translate(200 0.359375)"/>
      <use xlink:href="#UNAVAILABLE-2c" transform="translate(300 0.359375)"/>
      <use xlink:href="#UNAVAILABLE-20" transform="translate(327.294922 0.359375)"/>
      <use xlink:href="#DejaVuSans-52" transform="translate(377.294922 0.359375)"/>
      <use xlink:href="#DejaVuSans-3d" transform="translate(466.259766 0.359375)"/>
      <use xlink:href="#DejaVuSans-30" transform="translate(569.53125 0.359375)"/>
      <use xlink:href="#DejaVuSans-2e" transform="translate(633.154297 0.359375)"/>
      <use xlink:href="#DejaVuSans-32" transform="translate(659.441406 0.359375)"/>
      <use xlink:href="#DejaVuSans-2c" transform="translate(723.064453 0.359375)"/>
      <use xlink:href="#DejaVuSans-53" transform="translate(774.333984 0.359375)"/>
      <use xlink:href="#DejaVuSans-4e" transform="translate(837.810547 0.359375)"/>
      <use xlink:href="#DejaVuSans-52" transform="translate(908.990234 0.359375)"/>
      <use xlink:href="#DejaVuSans-74" transform="translate(979.429688 -16.046875)scale(0.7)"/>
      <use xlink:href="#DejaVuSans-72" transform="translate(1006.875977 -16.046875)scale(0.7)"/>
      <use xlink:href="#DejaVuSans-61" transform="translate(1035.655273 -16.046875)scale(0.7)"/>
      <use xlink:href="#DejaVuSans-69" transform="translate(1078.550781 -16.046875)scale(0.7)"/>
      <use xlink:href="#DejaVuSans-6e" transform="translate(1097.999023 -16.046875)scale(0.7)"/>
      <use xlink:href="#DejaVuSans-3d" transform="translate(1164.581055 0.359375)"/>
      <use xlink:href="#DejaVuSans-32" transform="translate(1267.852539 0.359375)"/>
      <use xlink:href="#DejaVuSans-28" transform="translate(1331.475586 0.359375)"/>
      <use xlink:href="#DejaVuSans-64" transform="translate(1370.489258 0.359375)"/>
      <use xlink:href="#DejaVuSans-42" transform="translate(1433.96582 0.359375)"/>
      <use xlink:href="#DejaVuSans-29" transform="translate(1502.569336 0.359375)"/>
     </g>
    </g>
   </g>
  </g>
  <g id="text_18">
   <!-- non-IID MNIST,  AutoEncoder+LeNet -->
   <g transform="translate(126.035156 23.83149)scale(0.3 -0.3)">
    <defs>
     <path id="TimesNewRomanPSMT-6e" d="M 1034 2341 
Q 1538 2947 1994 2947 
Q 2228 2947 2397 2830 
Q 2566 2713 2666 2444 
Q 2734 2256 2734 1869 
L 2734 647 
Q 2734 375 2778 278 
Q 2813 200 2889 156 
Q 2966 113 3172 113 
L 3172 0 
L 1756 0 
L 1756 113 
L 1816 113 
Q 2016 113 2095 173 
Q 2175 234 2206 353 
Q 2219 400 2219 647 
L 2219 1819 
Q 2219 2209 2117 2386 
Q 2016 2563 1775 2563 
Q 1403 2563 1034 2156 
L 1034 647 
Q 1034 356 1069 288 
Q 1113 197 1189 155 
Q 1266 113 1500 113 
L 1500 0 
L 84 0 
L 84 113 
L 147 113 
Q 366 113 442 223 
Q 519 334 519 647 
L 519 1709 
Q 519 2225 495 2337 
Q 472 2450 423 2490 
Q 375 2531 294 2531 
Q 206 2531 84 2484 
L 38 2597 
L 900 2947 
L 1034 2947 
L 1034 2341 
z
" transform="scale(0.015625)"/>
     <path id="TimesNewRomanPSMT-6f" d="M 1600 2947 
Q 2250 2947 2644 2453 
Q 2978 2031 2978 1484 
Q 2978 1100 2793 706 
Q 2609 313 2286 112 
Q 1963 -88 1566 -88 
Q 919 -88 538 428 
Q 216 863 216 1403 
Q 216 1797 411 2186 
Q 606 2575 925 2761 
Q 1244 2947 1600 2947 
z
M 1503 2744 
Q 1338 2744 1170 2645 
Q 1003 2547 900 2300 
Q 797 2053 797 1666 
Q 797 1041 1045 587 
Q 1294 134 1700 134 
Q 2003 134 2200 384 
Q 2397 634 2397 1244 
Q 2397 2006 2069 2444 
Q 1847 2744 1503 2744 
z
" transform="scale(0.015625)"/>
     <path id="TimesNewRomanPSMT-2d" d="M 259 1672 
L 1875 1672 
L 1875 1200 
L 259 1200 
L 259 1672 
z
" transform="scale(0.015625)"/>
     <path id="TimesNewRomanPSMT-49" d="M 1975 116 
L 1975 0 
L 159 0 
L 159 116 
L 309 116 
Q 572 116 691 269 
Q 766 369 766 750 
L 766 3488 
Q 766 3809 725 3913 
Q 694 3991 597 4047 
Q 459 4122 309 4122 
L 159 4122 
L 159 4238 
L 1975 4238 
L 1975 4122 
L 1822 4122 
Q 1563 4122 1444 3969 
Q 1366 3869 1366 3488 
L 1366 750 
Q 1366 428 1406 325 
Q 1438 247 1538 191 
Q 1672 116 1822 116 
L 1975 116 
z
" transform="scale(0.015625)"/>
     <path id="TimesNewRomanPSMT-44" d="M 109 0 
L 109 116 
L 269 116 
Q 538 116 650 288 
Q 719 391 719 750 
L 719 3488 
Q 719 3884 631 3984 
Q 509 4122 269 4122 
L 109 4122 
L 109 4238 
L 1834 4238 
Q 2784 4238 3279 4022 
Q 3775 3806 4076 3303 
Q 4378 2800 4378 2141 
Q 4378 1256 3841 663 
Q 3238 0 2003 0 
L 109 0 
z
M 1319 306 
Q 1716 219 1984 219 
Q 2709 219 3187 728 
Q 3666 1238 3666 2109 
Q 3666 2988 3187 3494 
Q 2709 4000 1959 4000 
Q 1678 4000 1319 3909 
L 1319 306 
z
" transform="scale(0.015625)"/>
     <path id="TimesNewRomanPSMT-20" transform="scale(0.015625)"/>
     <path id="TimesNewRomanPSMT-4d" d="M 2619 0 
L 981 3566 
L 981 734 
Q 981 344 1066 247 
Q 1181 116 1431 116 
L 1581 116 
L 1581 0 
L 106 0 
L 106 116 
L 256 116 
Q 525 116 638 278 
Q 706 378 706 734 
L 706 3503 
Q 706 3784 644 3909 
Q 600 4000 483 4061 
Q 366 4122 106 4122 
L 106 4238 
L 1306 4238 
L 2844 922 
L 4356 4238 
L 5556 4238 
L 5556 4122 
L 5409 4122 
Q 5138 4122 5025 3959 
Q 4956 3859 4956 3503 
L 4956 734 
Q 4956 344 5044 247 
Q 5159 116 5409 116 
L 5556 116 
L 5556 0 
L 3756 0 
L 3756 116 
L 3906 116 
Q 4178 116 4288 278 
Q 4356 378 4356 734 
L 4356 3566 
L 2722 0 
L 2619 0 
z
" transform="scale(0.015625)"/>
     <path id="TimesNewRomanPSMT-4e" d="M -84 4238 
L 1066 4238 
L 3656 1059 
L 3656 3503 
Q 3656 3894 3569 3991 
Q 3453 4122 3203 4122 
L 3056 4122 
L 3056 4238 
L 4531 4238 
L 4531 4122 
L 4381 4122 
Q 4113 4122 4000 3959 
Q 3931 3859 3931 3503 
L 3931 -69 
L 3819 -69 
L 1025 3344 
L 1025 734 
Q 1025 344 1109 247 
Q 1228 116 1475 116 
L 1625 116 
L 1625 0 
L 150 0 
L 150 116 
L 297 116 
Q 569 116 681 278 
Q 750 378 750 734 
L 750 3681 
Q 566 3897 470 3965 
Q 375 4034 191 4094 
Q 100 4122 -84 4122 
L -84 4238 
z
" transform="scale(0.015625)"/>
     <path id="TimesNewRomanPSMT-53" d="M 2934 4334 
L 2934 2869 
L 2819 2869 
Q 2763 3291 2617 3541 
Q 2472 3791 2203 3937 
Q 1934 4084 1647 4084 
Q 1322 4084 1109 3886 
Q 897 3688 897 3434 
Q 897 3241 1031 3081 
Q 1225 2847 1953 2456 
Q 2547 2138 2764 1967 
Q 2981 1797 3098 1565 
Q 3216 1334 3216 1081 
Q 3216 600 2842 251 
Q 2469 -97 1881 -97 
Q 1697 -97 1534 -69 
Q 1438 -53 1133 45 
Q 828 144 747 144 
Q 669 144 623 97 
Q 578 50 556 -97 
L 441 -97 
L 441 1356 
L 556 1356 
Q 638 900 775 673 
Q 913 447 1195 297 
Q 1478 147 1816 147 
Q 2206 147 2432 353 
Q 2659 559 2659 841 
Q 2659 997 2573 1156 
Q 2488 1316 2306 1453 
Q 2184 1547 1640 1851 
Q 1097 2156 867 2337 
Q 638 2519 519 2737 
Q 400 2956 400 3219 
Q 400 3675 750 4004 
Q 1100 4334 1641 4334 
Q 1978 4334 2356 4169 
Q 2531 4091 2603 4091 
Q 2684 4091 2736 4139 
Q 2788 4188 2819 4334 
L 2934 4334 
z
" transform="scale(0.015625)"/>
     <path id="TimesNewRomanPSMT-54" d="M 3703 4238 
L 3750 3244 
L 3631 3244 
Q 3597 3506 3538 3619 
Q 3441 3800 3280 3886 
Q 3119 3972 2856 3972 
L 2259 3972 
L 2259 734 
Q 2259 344 2344 247 
Q 2463 116 2709 116 
L 2856 116 
L 2856 0 
L 1059 0 
L 1059 116 
L 1209 116 
Q 1478 116 1591 278 
Q 1659 378 1659 734 
L 1659 3972 
L 1150 3972 
Q 853 3972 728 3928 
Q 566 3869 450 3700 
Q 334 3531 313 3244 
L 194 3244 
L 244 4238 
L 3703 4238 
z
" transform="scale(0.015625)"/>
     <path id="TimesNewRomanPSMT-2c" d="M 344 -1066 
L 344 -928 
Q 666 -822 842 -598 
Q 1019 -375 1019 -125 
Q 1019 -66 991 -25 
Q 969 3 947 3 
Q 913 3 797 -59 
Q 741 -88 678 -88 
Q 525 -88 434 3 
Q 344 94 344 253 
Q 344 406 461 515 
Q 578 625 747 625 
Q 953 625 1114 445 
Q 1275 266 1275 -31 
Q 1275 -353 1051 -629 
Q 828 -906 344 -1066 
z
" transform="scale(0.015625)"/>
     <path id="TimesNewRomanPSMT-41" d="M 2928 1419 
L 1288 1419 
L 1000 750 
Q 894 503 894 381 
Q 894 284 986 211 
Q 1078 138 1384 116 
L 1384 0 
L 50 0 
L 50 116 
Q 316 163 394 238 
Q 553 388 747 847 
L 2238 4334 
L 2347 4334 
L 3822 809 
Q 4000 384 4145 257 
Q 4291 131 4550 116 
L 4550 0 
L 2878 0 
L 2878 116 
Q 3131 128 3220 200 
Q 3309 272 3309 375 
Q 3309 513 3184 809 
L 2928 1419 
z
M 2841 1650 
L 2122 3363 
L 1384 1650 
L 2841 1650 
z
" transform="scale(0.015625)"/>
     <path id="TimesNewRomanPSMT-75" d="M 2709 2863 
L 2709 1128 
Q 2709 631 2732 520 
Q 2756 409 2807 365 
Q 2859 322 2928 322 
Q 3025 322 3147 375 
L 3191 266 
L 2334 -88 
L 2194 -88 
L 2194 519 
Q 1825 119 1631 15 
Q 1438 -88 1222 -88 
Q 981 -88 804 51 
Q 628 191 559 409 
Q 491 628 491 1028 
L 491 2306 
Q 491 2509 447 2587 
Q 403 2666 317 2708 
Q 231 2750 6 2747 
L 6 2863 
L 1009 2863 
L 1009 947 
Q 1009 547 1148 422 
Q 1288 297 1484 297 
Q 1619 297 1789 381 
Q 1959 466 2194 703 
L 2194 2325 
Q 2194 2569 2105 2655 
Q 2016 2741 1734 2747 
L 1734 2863 
L 2709 2863 
z
" transform="scale(0.015625)"/>
     <path id="TimesNewRomanPSMT-74" d="M 1031 3803 
L 1031 2863 
L 1700 2863 
L 1700 2644 
L 1031 2644 
L 1031 788 
Q 1031 509 1111 412 
Q 1191 316 1316 316 
Q 1419 316 1516 380 
Q 1613 444 1666 569 
L 1788 569 
Q 1678 263 1478 108 
Q 1278 -47 1066 -47 
Q 922 -47 784 33 
Q 647 113 581 261 
Q 516 409 516 719 
L 516 2644 
L 63 2644 
L 63 2747 
Q 234 2816 414 2980 
Q 594 3144 734 3369 
Q 806 3488 934 3803 
L 1031 3803 
z
" transform="scale(0.015625)"/>
     <path id="TimesNewRomanPSMT-45" d="M 1338 4006 
L 1338 2331 
L 2269 2331 
Q 2631 2331 2753 2441 
Q 2916 2584 2934 2947 
L 3050 2947 
L 3050 1472 
L 2934 1472 
Q 2891 1781 2847 1869 
Q 2791 1978 2662 2040 
Q 2534 2103 2269 2103 
L 1338 2103 
L 1338 706 
Q 1338 425 1363 364 
Q 1388 303 1450 267 
Q 1513 231 1688 231 
L 2406 231 
Q 2766 231 2928 281 
Q 3091 331 3241 478 
Q 3434 672 3638 1063 
L 3763 1063 
L 3397 0 
L 131 0 
L 131 116 
L 281 116 
Q 431 116 566 188 
Q 666 238 702 338 
Q 738 438 738 747 
L 738 3500 
Q 738 3903 656 3997 
Q 544 4122 281 4122 
L 131 4122 
L 131 4238 
L 3397 4238 
L 3444 3309 
L 3322 3309 
Q 3256 3644 3176 3769 
Q 3097 3894 2941 3959 
Q 2816 4006 2500 4006 
L 1338 4006 
z
" transform="scale(0.015625)"/>
     <path id="TimesNewRomanPSMT-63" d="M 2631 1088 
Q 2516 522 2178 217 
Q 1841 -88 1431 -88 
Q 944 -88 581 321 
Q 219 731 219 1428 
Q 219 2103 620 2525 
Q 1022 2947 1584 2947 
Q 2006 2947 2278 2723 
Q 2550 2500 2550 2259 
Q 2550 2141 2473 2067 
Q 2397 1994 2259 1994 
Q 2075 1994 1981 2113 
Q 1928 2178 1911 2362 
Q 1894 2547 1784 2644 
Q 1675 2738 1481 2738 
Q 1169 2738 978 2506 
Q 725 2200 725 1697 
Q 725 1184 976 792 
Q 1228 400 1656 400 
Q 1963 400 2206 609 
Q 2378 753 2541 1131 
L 2631 1088 
z
" transform="scale(0.015625)"/>
     <path id="TimesNewRomanPSMT-64" d="M 2222 322 
Q 2013 103 1813 7 
Q 1613 -88 1381 -88 
Q 913 -88 563 304 
Q 213 697 213 1313 
Q 213 1928 600 2439 
Q 988 2950 1597 2950 
Q 1975 2950 2222 2709 
L 2222 3238 
Q 2222 3728 2198 3840 
Q 2175 3953 2125 3993 
Q 2075 4034 2000 4034 
Q 1919 4034 1784 3984 
L 1744 4094 
L 2597 4444 
L 2738 4444 
L 2738 1134 
Q 2738 631 2761 520 
Q 2784 409 2836 365 
Q 2888 322 2956 322 
Q 3041 322 3181 375 
L 3216 266 
L 2366 -88 
L 2222 -88 
L 2222 322 
z
M 2222 541 
L 2222 2016 
Q 2203 2228 2109 2403 
Q 2016 2578 1861 2667 
Q 1706 2756 1559 2756 
Q 1284 2756 1069 2509 
Q 784 2184 784 1559 
Q 784 928 1059 592 
Q 1334 256 1672 256 
Q 1956 256 2222 541 
z
" transform="scale(0.015625)"/>
     <path id="TimesNewRomanPSMT-65" d="M 681 1784 
Q 678 1147 991 784 
Q 1303 422 1725 422 
Q 2006 422 2214 576 
Q 2422 731 2563 1106 
L 2659 1044 
Q 2594 616 2278 264 
Q 1963 -88 1488 -88 
Q 972 -88 605 314 
Q 238 716 238 1394 
Q 238 2128 614 2539 
Q 991 2950 1559 2950 
Q 2041 2950 2350 2633 
Q 2659 2316 2659 1784 
L 681 1784 
z
M 681 1966 
L 2006 1966 
Q 1991 2241 1941 2353 
Q 1863 2528 1708 2628 
Q 1553 2728 1384 2728 
Q 1125 2728 920 2526 
Q 716 2325 681 1966 
z
" transform="scale(0.015625)"/>
     <path id="TimesNewRomanPSMT-72" d="M 1038 2947 
L 1038 2303 
Q 1397 2947 1775 2947 
Q 1947 2947 2059 2842 
Q 2172 2738 2172 2600 
Q 2172 2478 2090 2393 
Q 2009 2309 1897 2309 
Q 1788 2309 1652 2417 
Q 1516 2525 1450 2525 
Q 1394 2525 1328 2463 
Q 1188 2334 1038 2041 
L 1038 669 
Q 1038 431 1097 309 
Q 1138 225 1241 169 
Q 1344 113 1538 113 
L 1538 0 
L 72 0 
L 72 113 
Q 291 113 397 181 
Q 475 231 506 341 
Q 522 394 522 644 
L 522 1753 
Q 522 2253 501 2348 
Q 481 2444 426 2487 
Q 372 2531 291 2531 
Q 194 2531 72 2484 
L 41 2597 
L 906 2947 
L 1038 2947 
z
" transform="scale(0.015625)"/>
     <path id="TimesNewRomanPSMT-2b" d="M 1672 441 
L 1672 2000 
L 116 2000 
L 116 2256 
L 1672 2256 
L 1672 3809 
L 1922 3809 
L 1922 2256 
L 3484 2256 
L 3484 2000 
L 1922 2000 
L 1922 441 
L 1672 441 
z
" transform="scale(0.015625)"/>
     <path id="TimesNewRomanPSMT-4c" d="M 3669 1172 
L 3772 1150 
L 3409 0 
L 128 0 
L 128 116 
L 288 116 
Q 556 116 672 291 
Q 738 391 738 753 
L 738 3488 
Q 738 3884 650 3984 
Q 528 4122 288 4122 
L 128 4122 
L 128 4238 
L 2047 4238 
L 2047 4122 
Q 1709 4125 1573 4059 
Q 1438 3994 1388 3894 
Q 1338 3794 1338 3416 
L 1338 753 
Q 1338 494 1388 397 
Q 1425 331 1503 300 
Q 1581 269 1991 269 
L 2300 269 
Q 2788 269 2984 341 
Q 3181 413 3343 595 
Q 3506 778 3669 1172 
z
" transform="scale(0.015625)"/>
    </defs>
    <use xlink:href="#TimesNewRomanPSMT-6e"/>
    <use xlink:href="#TimesNewRomanPSMT-6f" x="50"/>
    <use xlink:href="#TimesNewRomanPSMT-6e" x="100"/>
    <use xlink:href="#TimesNewRomanPSMT-2d" x="150"/>
    <use xlink:href="#TimesNewRomanPSMT-49" x="183.300781"/>
    <use xlink:href="#TimesNewRomanPSMT-49" x="216.601562"/>
    <use xlink:href="#TimesNewRomanPSMT-44" x="249.902344"/>
    <use xlink:href="#TimesNewRomanPSMT-20" x="322.119141"/>
    <use xlink:href="#TimesNewRomanPSMT-4d" x="347.119141"/>
    <use xlink:href="#TimesNewRomanPSMT-4e" x="436.035156"/>
    <use xlink:href="#TimesNewRomanPSMT-49" x="508.251953"/>
    <use xlink:href="#TimesNewRomanPSMT-53" x="541.552734"/>
    <use xlink:href="#TimesNewRomanPSMT-54" x="597.167969"/>
    <use xlink:href="#TimesNewRomanPSMT-2c" x="650.876953"/>
    <use xlink:href="#TimesNewRomanPSMT-20" x="675.876953"/>
    <use xlink:href="#TimesNewRomanPSMT-20" x="700.876953"/>
    <use xlink:href="#TimesNewRomanPSMT-41" x="720.376953"/>
    <use xlink:href="#TimesNewRomanPSMT-75" x="792.59375"/>
    <use xlink:href="#TimesNewRomanPSMT-74" x="842.59375"/>
    <use xlink:href="#TimesNewRomanPSMT-6f" x="870.376953"/>
    <use xlink:href="#TimesNewRomanPSMT-45" x="920.376953"/>
    <use xlink:href="#TimesNewRomanPSMT-6e" x="981.460938"/>
    <use xlink:href="#TimesNewRomanPSMT-63" x="1031.460938"/>
    <use xlink:href="#TimesNewRomanPSMT-6f" x="1075.845703"/>
    <use xlink:href="#TimesNewRomanPSMT-64" x="1125.845703"/>
    <use xlink:href="#TimesNewRomanPSMT-65" x="1175.845703"/>
    <use xlink:href="#TimesNewRomanPSMT-72" x="1220.230469"/>
    <use xlink:href="#TimesNewRomanPSMT-2b" x="1253.53125"/>
    <use xlink:href="#TimesNewRomanPSMT-4c" x="1309.927734"/>
    <use xlink:href="#TimesNewRomanPSMT-65" x="1371.011719"/>
    <use xlink:href="#TimesNewRomanPSMT-4e" x="1415.396484"/>
    <use xlink:href="#TimesNewRomanPSMT-65" x="1487.613281"/>
    <use xlink:href="#TimesNewRomanPSMT-74" x="1531.998047"/>
   </g>
  </g>
 </g>
 <defs>
  <clipPath id="p93b18088eb">
   <rect x="99.908834" y="46.257615" width="617.090926" height="493.277145"/>
  </clipPath>
 </defs>
</svg>
