<?xml version="1.0" encoding="utf-8" standalone="no"?>
<!DOCTYPE svg PUBLIC "-//W3C//DTD SVG 1.1//EN"
  "http://www.w3.org/Graphics/SVG/1.1/DTD/svg11.dtd">
<svg xmlns:xlink="http://www.w3.org/1999/xlink" width="720pt" height="612pt" viewBox="0 0 720 612" xmlns="http://www.w3.org/2000/svg" version="1.1">
 <metadata>
  <rdf:RDF xmlns:dc="http://purl.org/dc/elements/1.1/" xmlns:cc="http://creativecommons.org/ns#" xmlns:rdf="http://www.w3.org/1999/02/22-rdf-syntax-ns#">
   <cc:Work>
    <dc:type rdf:resource="http://purl.org/dc/dcmitype/StillImage"/>
    <dc:date>2023-12-03T13:49:53.327654</dc:date>
    <dc:format>image/svg+xml</dc:format>
    <dc:creator>
     <cc:Agent>
      <dc:title>Matplotlib v3.5.2, https://matplotlib.org/</dc:title>
     </cc:Agent>
    </dc:creator>
   </cc:Work>
  </rdf:RDF>
 </metadata>
 <defs>
  <style type="text/css">*{stroke-linejoin: round; stroke-linecap: butt}</style>
 </defs>
 <g id="figure_1">
  <g id="patch_1">
   <path d="M 0 612 
L 720 612 
L 720 0 
L 0 0 
z
" style="fill: #ffffff"/>
  </g>
  <g id="axes_1">
   <g id="patch_2">
    <path d="M 99.908834 539.53476 
L 716.99976 539.53476 
L 716.99976 36.249158 
L 99.908834 36.249158 
z
" style="fill: #ffffff"/>
   </g>
   <g id="matplotlib.axis_1">
    <g id="xtick_1">
     <g id="line2d_1">
      <path d="M 198.08239 539.53476 
L 198.08239 36.249158 
" clip-path="url(#p9e8424bafa)" style="fill: none; stroke-dasharray: 2.5,5; stroke-dashoffset: 0; stroke: #b0b0b0; stroke-width: 0.5"/>
     </g>
     <g id="line2d_2">
      <defs>
       <path id="m24e553989c" d="M 0 0 
L 0 -3.5 
" style="stroke: #000000; stroke-width: 2"/>
      </defs>
      <g>
       <use xlink:href="#m24e553989c" x="198.08239" y="539.53476" style="stroke: #000000; stroke-width: 2"/>
      </g>
     </g>
     <g id="line2d_3">
      <defs>
       <path id="m21c0309b3c" d="M 0 0 
L 0 3.5 
" style="stroke: #000000; stroke-width: 2"/>
      </defs>
      <g>
       <use xlink:href="#m21c0309b3c" x="198.08239" y="36.249158" style="stroke: #000000; stroke-width: 2"/>
      </g>
     </g>
     <g id="text_1">
      <!-- 0 -->
      <g transform="translate(190.08239 565.25476)scale(0.32 -0.32)">
       <defs>
        <path id="TimesNewRomanPSMT-30" d="M 231 2094 
Q 231 2819 450 3342 
Q 669 3866 1031 4122 
Q 1313 4325 1613 4325 
Q 2100 4325 2488 3828 
Q 2972 3213 2972 2159 
Q 2972 1422 2759 906 
Q 2547 391 2217 158 
Q 1888 -75 1581 -75 
Q 975 -75 572 641 
Q 231 1244 231 2094 
z
M 844 2016 
Q 844 1141 1059 588 
Q 1238 122 1591 122 
Q 1759 122 1940 273 
Q 2122 425 2216 781 
Q 2359 1319 2359 2297 
Q 2359 3022 2209 3506 
Q 2097 3866 1919 4016 
Q 1791 4119 1609 4119 
Q 1397 4119 1231 3928 
Q 1006 3669 925 3112 
Q 844 2556 844 2016 
z
" transform="scale(0.015625)"/>
       </defs>
       <use xlink:href="#TimesNewRomanPSMT-30"/>
      </g>
     </g>
    </g>
    <g id="xtick_2">
     <g id="line2d_4">
      <path d="M 338.330328 539.53476 
L 338.330328 36.249158 
" clip-path="url(#p9e8424bafa)" style="fill: none; stroke-dasharray: 2.5,5; stroke-dashoffset: 0; stroke: #b0b0b0; stroke-width: 0.5"/>
     </g>
     <g id="line2d_5">
      <g>
       <use xlink:href="#m24e553989c" x="338.330328" y="539.53476" style="stroke: #000000; stroke-width: 2"/>
      </g>
     </g>
     <g id="line2d_6">
      <g>
       <use xlink:href="#m21c0309b3c" x="338.330328" y="36.249158" style="stroke: #000000; stroke-width: 2"/>
      </g>
     </g>
     <g id="text_2">
      <!-- 10 -->
      <g transform="translate(322.330328 565.25476)scale(0.32 -0.32)">
       <defs>
        <path id="TimesNewRomanPSMT-31" d="M 750 3822 
L 1781 4325 
L 1884 4325 
L 1884 747 
Q 1884 391 1914 303 
Q 1944 216 2037 169 
Q 2131 122 2419 116 
L 2419 0 
L 825 0 
L 825 116 
Q 1125 122 1212 167 
Q 1300 213 1334 289 
Q 1369 366 1369 747 
L 1369 3034 
Q 1369 3497 1338 3628 
Q 1316 3728 1258 3775 
Q 1200 3822 1119 3822 
Q 1003 3822 797 3725 
L 750 3822 
z
" transform="scale(0.015625)"/>
       </defs>
       <use xlink:href="#TimesNewRomanPSMT-31"/>
       <use xlink:href="#TimesNewRomanPSMT-30" x="50"/>
      </g>
     </g>
    </g>
    <g id="xtick_3">
     <g id="line2d_7">
      <path d="M 478.578266 539.53476 
L 478.578266 36.249158 
" clip-path="url(#p9e8424bafa)" style="fill: none; stroke-dasharray: 2.5,5; stroke-dashoffset: 0; stroke: #b0b0b0; stroke-width: 0.5"/>
     </g>
     <g id="line2d_8">
      <g>
       <use xlink:href="#m24e553989c" x="478.578266" y="539.53476" style="stroke: #000000; stroke-width: 2"/>
      </g>
     </g>
     <g id="line2d_9">
      <g>
       <use xlink:href="#m21c0309b3c" x="478.578266" y="36.249158" style="stroke: #000000; stroke-width: 2"/>
      </g>
     </g>
     <g id="text_3">
      <!-- 20 -->
      <g transform="translate(462.578266 565.25476)scale(0.32 -0.32)">
       <defs>
        <path id="TimesNewRomanPSMT-32" d="M 2934 816 
L 2638 0 
L 138 0 
L 138 116 
Q 1241 1122 1691 1759 
Q 2141 2397 2141 2925 
Q 2141 3328 1894 3587 
Q 1647 3847 1303 3847 
Q 991 3847 742 3664 
Q 494 3481 375 3128 
L 259 3128 
Q 338 3706 661 4015 
Q 984 4325 1469 4325 
Q 1984 4325 2329 3994 
Q 2675 3663 2675 3213 
Q 2675 2891 2525 2569 
Q 2294 2063 1775 1497 
Q 997 647 803 472 
L 1909 472 
Q 2247 472 2383 497 
Q 2519 522 2628 598 
Q 2738 675 2819 816 
L 2934 816 
z
" transform="scale(0.015625)"/>
       </defs>
       <use xlink:href="#TimesNewRomanPSMT-32"/>
       <use xlink:href="#TimesNewRomanPSMT-30" x="50"/>
      </g>
     </g>
    </g>
    <g id="xtick_4">
     <g id="line2d_10">
      <path d="M 618.826204 539.53476 
L 618.826204 36.249158 
" clip-path="url(#p9e8424bafa)" style="fill: none; stroke-dasharray: 2.5,5; stroke-dashoffset: 0; stroke: #b0b0b0; stroke-width: 0.5"/>
     </g>
     <g id="line2d_11">
      <g>
       <use xlink:href="#m24e553989c" x="618.826204" y="539.53476" style="stroke: #000000; stroke-width: 2"/>
      </g>
     </g>
     <g id="line2d_12">
      <g>
       <use xlink:href="#m21c0309b3c" x="618.826204" y="36.249158" style="stroke: #000000; stroke-width: 2"/>
      </g>
     </g>
     <g id="text_4">
      <!-- 30 -->
      <g transform="translate(602.826204 565.25476)scale(0.32 -0.32)">
       <defs>
        <path id="TimesNewRomanPSMT-33" d="M 325 3431 
Q 506 3859 782 4092 
Q 1059 4325 1472 4325 
Q 1981 4325 2253 3994 
Q 2459 3747 2459 3466 
Q 2459 3003 1878 2509 
Q 2269 2356 2469 2072 
Q 2669 1788 2669 1403 
Q 2669 853 2319 450 
Q 1863 -75 997 -75 
Q 569 -75 414 31 
Q 259 138 259 259 
Q 259 350 332 419 
Q 406 488 509 488 
Q 588 488 669 463 
Q 722 447 909 348 
Q 1097 250 1169 231 
Q 1284 197 1416 197 
Q 1734 197 1970 444 
Q 2206 691 2206 1028 
Q 2206 1275 2097 1509 
Q 2016 1684 1919 1775 
Q 1784 1900 1550 2001 
Q 1316 2103 1072 2103 
L 972 2103 
L 972 2197 
Q 1219 2228 1467 2375 
Q 1716 2522 1828 2728 
Q 1941 2934 1941 3181 
Q 1941 3503 1739 3701 
Q 1538 3900 1238 3900 
Q 753 3900 428 3381 
L 325 3431 
z
" transform="scale(0.015625)"/>
       </defs>
       <use xlink:href="#TimesNewRomanPSMT-33"/>
       <use xlink:href="#TimesNewRomanPSMT-30" x="50"/>
      </g>
     </g>
    </g>
    <g id="text_5">
     <!-- $\mathrm{{SNR}}_\mathrm{{test}}\mathrm{{(dB)}}$ -->
     <g transform="translate(311.679297 602.69976)scale(0.35 -0.35)">
      <defs>
       <path id="DejaVuSans-53" d="M 3425 4513 
L 3425 3897 
Q 3066 4069 2747 4153 
Q 2428 4238 2131 4238 
Q 1616 4238 1336 4038 
Q 1056 3838 1056 3469 
Q 1056 3159 1242 3001 
Q 1428 2844 1947 2747 
L 2328 2669 
Q 3034 2534 3370 2195 
Q 3706 1856 3706 1288 
Q 3706 609 3251 259 
Q 2797 -91 1919 -91 
Q 1588 -91 1214 -16 
Q 841 59 441 206 
L 441 856 
Q 825 641 1194 531 
Q 1563 422 1919 422 
Q 2459 422 2753 634 
Q 3047 847 3047 1241 
Q 3047 1584 2836 1778 
Q 2625 1972 2144 2069 
L 1759 2144 
Q 1053 2284 737 2584 
Q 422 2884 422 3419 
Q 422 4038 858 4394 
Q 1294 4750 2059 4750 
Q 2388 4750 2728 4690 
Q 3069 4631 3425 4513 
z
" transform="scale(0.015625)"/>
       <path id="DejaVuSans-4e" d="M 628 4666 
L 1478 4666 
L 3547 763 
L 3547 4666 
L 4159 4666 
L 4159 0 
L 3309 0 
L 1241 3903 
L 1241 0 
L 628 0 
L 628 4666 
z
" transform="scale(0.015625)"/>
       <path id="DejaVuSans-52" d="M 2841 2188 
Q 3044 2119 3236 1894 
Q 3428 1669 3622 1275 
L 4263 0 
L 3584 0 
L 2988 1197 
Q 2756 1666 2539 1819 
Q 2322 1972 1947 1972 
L 1259 1972 
L 1259 0 
L 628 0 
L 628 4666 
L 2053 4666 
Q 2853 4666 3247 4331 
Q 3641 3997 3641 3322 
Q 3641 2881 3436 2590 
Q 3231 2300 2841 2188 
z
M 1259 4147 
L 1259 2491 
L 2053 2491 
Q 2509 2491 2742 2702 
Q 2975 2913 2975 3322 
Q 2975 3731 2742 3939 
Q 2509 4147 2053 4147 
L 1259 4147 
z
" transform="scale(0.015625)"/>
       <path id="DejaVuSans-74" d="M 1172 4494 
L 1172 3500 
L 2356 3500 
L 2356 3053 
L 1172 3053 
L 1172 1153 
Q 1172 725 1289 603 
Q 1406 481 1766 481 
L 2356 481 
L 2356 0 
L 1766 0 
Q 1100 0 847 248 
Q 594 497 594 1153 
L 594 3053 
L 172 3053 
L 172 3500 
L 594 3500 
L 594 4494 
L 1172 4494 
z
" transform="scale(0.015625)"/>
       <path id="DejaVuSans-65" d="M 3597 1894 
L 3597 1613 
L 953 1613 
Q 991 1019 1311 708 
Q 1631 397 2203 397 
Q 2534 397 2845 478 
Q 3156 559 3463 722 
L 3463 178 
Q 3153 47 2828 -22 
Q 2503 -91 2169 -91 
Q 1331 -91 842 396 
Q 353 884 353 1716 
Q 353 2575 817 3079 
Q 1281 3584 2069 3584 
Q 2775 3584 3186 3129 
Q 3597 2675 3597 1894 
z
M 3022 2063 
Q 3016 2534 2758 2815 
Q 2500 3097 2075 3097 
Q 1594 3097 1305 2825 
Q 1016 2553 972 2059 
L 3022 2063 
z
" transform="scale(0.015625)"/>
       <path id="DejaVuSans-73" d="M 2834 3397 
L 2834 2853 
Q 2591 2978 2328 3040 
Q 2066 3103 1784 3103 
Q 1356 3103 1142 2972 
Q 928 2841 928 2578 
Q 928 2378 1081 2264 
Q 1234 2150 1697 2047 
L 1894 2003 
Q 2506 1872 2764 1633 
Q 3022 1394 3022 966 
Q 3022 478 2636 193 
Q 2250 -91 1575 -91 
Q 1294 -91 989 -36 
Q 684 19 347 128 
L 347 722 
Q 666 556 975 473 
Q 1284 391 1588 391 
Q 1994 391 2212 530 
Q 2431 669 2431 922 
Q 2431 1156 2273 1281 
Q 2116 1406 1581 1522 
L 1381 1569 
Q 847 1681 609 1914 
Q 372 2147 372 2553 
Q 372 3047 722 3315 
Q 1072 3584 1716 3584 
Q 2034 3584 2315 3537 
Q 2597 3491 2834 3397 
z
" transform="scale(0.015625)"/>
       <path id="DejaVuSans-28" d="M 1984 4856 
Q 1566 4138 1362 3434 
Q 1159 2731 1159 2009 
Q 1159 1288 1364 580 
Q 1569 -128 1984 -844 
L 1484 -844 
Q 1016 -109 783 600 
Q 550 1309 550 2009 
Q 550 2706 781 3412 
Q 1013 4119 1484 4856 
L 1984 4856 
z
" transform="scale(0.015625)"/>
       <path id="DejaVuSans-64" d="M 2906 2969 
L 2906 4863 
L 3481 4863 
L 3481 0 
L 2906 0 
L 2906 525 
Q 2725 213 2448 61 
Q 2172 -91 1784 -91 
Q 1150 -91 751 415 
Q 353 922 353 1747 
Q 353 2572 751 3078 
Q 1150 3584 1784 3584 
Q 2172 3584 2448 3432 
Q 2725 3281 2906 2969 
z
M 947 1747 
Q 947 1113 1208 752 
Q 1469 391 1925 391 
Q 2381 391 2643 752 
Q 2906 1113 2906 1747 
Q 2906 2381 2643 2742 
Q 2381 3103 1925 3103 
Q 1469 3103 1208 2742 
Q 947 2381 947 1747 
z
" transform="scale(0.015625)"/>
       <path id="DejaVuSans-42" d="M 1259 2228 
L 1259 519 
L 2272 519 
Q 2781 519 3026 730 
Q 3272 941 3272 1375 
Q 3272 1813 3026 2020 
Q 2781 2228 2272 2228 
L 1259 2228 
z
M 1259 4147 
L 1259 2741 
L 2194 2741 
Q 2656 2741 2882 2914 
Q 3109 3088 3109 3444 
Q 3109 3797 2882 3972 
Q 2656 4147 2194 4147 
L 1259 4147 
z
M 628 4666 
L 2241 4666 
Q 2963 4666 3353 4366 
Q 3744 4066 3744 3513 
Q 3744 3084 3544 2831 
Q 3344 2578 2956 2516 
Q 3422 2416 3680 2098 
Q 3938 1781 3938 1306 
Q 3938 681 3513 340 
Q 3088 0 2303 0 
L 628 0 
L 628 4666 
z
" transform="scale(0.015625)"/>
       <path id="DejaVuSans-29" d="M 513 4856 
L 1013 4856 
Q 1481 4119 1714 3412 
Q 1947 2706 1947 2009 
Q 1947 1309 1714 600 
Q 1481 -109 1013 -844 
L 513 -844 
Q 928 -128 1133 580 
Q 1338 1288 1338 2009 
Q 1338 2731 1133 3434 
Q 928 4138 513 4856 
z
" transform="scale(0.015625)"/>
      </defs>
      <use xlink:href="#DejaVuSans-53" transform="translate(0 0.015625)"/>
      <use xlink:href="#DejaVuSans-4e" transform="translate(63.476562 0.015625)"/>
      <use xlink:href="#DejaVuSans-52" transform="translate(134.65625 0.015625)"/>
      <use xlink:href="#DejaVuSans-74" transform="translate(205.095703 -16.390625)scale(0.7)"/>
      <use xlink:href="#DejaVuSans-65" transform="translate(232.541992 -16.390625)scale(0.7)"/>
      <use xlink:href="#DejaVuSans-73" transform="translate(275.608398 -16.390625)scale(0.7)"/>
      <use xlink:href="#DejaVuSans-74" transform="translate(312.078125 -16.390625)scale(0.7)"/>
      <use xlink:href="#DejaVuSans-28" transform="translate(342.258789 0.015625)"/>
      <use xlink:href="#DejaVuSans-64" transform="translate(381.272461 0.015625)"/>
      <use xlink:href="#DejaVuSans-42" transform="translate(444.749023 0.015625)"/>
      <use xlink:href="#DejaVuSans-29" transform="translate(513.352539 0.015625)"/>
     </g>
    </g>
   </g>
   <g id="matplotlib.axis_2">
    <g id="ytick_1">
     <g id="line2d_13">
      <path d="M 99.908834 472.896018 
L 716.99976 472.896018 
" clip-path="url(#p9e8424bafa)" style="fill: none; stroke-dasharray: 2.5,5; stroke-dashoffset: 0; stroke: #b0b0b0; stroke-width: 0.5"/>
     </g>
     <g id="line2d_14">
      <defs>
       <path id="m82ca78c908" d="M 0 0 
L 3.5 0 
" style="stroke: #000000; stroke-width: 2"/>
      </defs>
      <g>
       <use xlink:href="#m82ca78c908" x="99.908834" y="472.896018" style="stroke: #000000; stroke-width: 2"/>
      </g>
     </g>
     <g id="line2d_15">
      <defs>
       <path id="m64d3ecc57b" d="M 0 0 
L -3.5 0 
" style="stroke: #000000; stroke-width: 2"/>
      </defs>
      <g>
       <use xlink:href="#m64d3ecc57b" x="716.99976" y="472.896018" style="stroke: #000000; stroke-width: 2"/>
      </g>
     </g>
     <g id="text_6">
      <!-- 0.80 -->
      <g transform="translate(40.408834 484.006018)scale(0.32 -0.32)">
       <defs>
        <path id="TimesNewRomanPSMT-2e" d="M 800 606 
Q 947 606 1047 504 
Q 1147 403 1147 259 
Q 1147 116 1045 14 
Q 944 -88 800 -88 
Q 656 -88 554 14 
Q 453 116 453 259 
Q 453 406 554 506 
Q 656 606 800 606 
z
" transform="scale(0.015625)"/>
        <path id="TimesNewRomanPSMT-38" d="M 1228 2134 
Q 725 2547 579 2797 
Q 434 3047 434 3316 
Q 434 3728 753 4026 
Q 1072 4325 1600 4325 
Q 2113 4325 2425 4047 
Q 2738 3769 2738 3413 
Q 2738 3175 2569 2928 
Q 2400 2681 1866 2347 
Q 2416 1922 2594 1678 
Q 2831 1359 2831 1006 
Q 2831 559 2490 242 
Q 2150 -75 1597 -75 
Q 994 -75 656 303 
Q 388 606 388 966 
Q 388 1247 577 1523 
Q 766 1800 1228 2134 
z
M 1719 2469 
Q 2094 2806 2194 3001 
Q 2294 3197 2294 3444 
Q 2294 3772 2109 3958 
Q 1925 4144 1606 4144 
Q 1288 4144 1088 3959 
Q 888 3775 888 3528 
Q 888 3366 970 3203 
Q 1053 3041 1206 2894 
L 1719 2469 
z
M 1375 2016 
Q 1116 1797 991 1539 
Q 866 1281 866 981 
Q 866 578 1086 336 
Q 1306 94 1647 94 
Q 1984 94 2187 284 
Q 2391 475 2391 747 
Q 2391 972 2272 1150 
Q 2050 1481 1375 2016 
z
" transform="scale(0.015625)"/>
       </defs>
       <use xlink:href="#TimesNewRomanPSMT-30"/>
       <use xlink:href="#TimesNewRomanPSMT-2e" x="50"/>
       <use xlink:href="#TimesNewRomanPSMT-38" x="75"/>
       <use xlink:href="#TimesNewRomanPSMT-30" x="125"/>
      </g>
     </g>
    </g>
    <g id="ytick_2">
     <g id="line2d_16">
      <path d="M 99.908834 363.490865 
L 716.99976 363.490865 
" clip-path="url(#p9e8424bafa)" style="fill: none; stroke-dasharray: 2.5,5; stroke-dashoffset: 0; stroke: #b0b0b0; stroke-width: 0.5"/>
     </g>
     <g id="line2d_17">
      <g>
       <use xlink:href="#m82ca78c908" x="99.908834" y="363.490865" style="stroke: #000000; stroke-width: 2"/>
      </g>
     </g>
     <g id="line2d_18">
      <g>
       <use xlink:href="#m64d3ecc57b" x="716.99976" y="363.490865" style="stroke: #000000; stroke-width: 2"/>
      </g>
     </g>
     <g id="text_7">
      <!-- 0.85 -->
      <g transform="translate(40.408834 374.600865)scale(0.32 -0.32)">
       <defs>
        <path id="TimesNewRomanPSMT-35" d="M 2778 4238 
L 2534 3706 
L 1259 3706 
L 981 3138 
Q 1809 3016 2294 2522 
Q 2709 2097 2709 1522 
Q 2709 1188 2573 903 
Q 2438 619 2231 419 
Q 2025 219 1772 97 
Q 1413 -75 1034 -75 
Q 653 -75 479 54 
Q 306 184 306 341 
Q 306 428 378 495 
Q 450 563 559 563 
Q 641 563 702 538 
Q 763 513 909 409 
Q 1144 247 1384 247 
Q 1750 247 2026 523 
Q 2303 800 2303 1197 
Q 2303 1581 2056 1914 
Q 1809 2247 1375 2428 
Q 1034 2569 447 2591 
L 1259 4238 
L 2778 4238 
z
" transform="scale(0.015625)"/>
       </defs>
       <use xlink:href="#TimesNewRomanPSMT-30"/>
       <use xlink:href="#TimesNewRomanPSMT-2e" x="50"/>
       <use xlink:href="#TimesNewRomanPSMT-38" x="75"/>
       <use xlink:href="#TimesNewRomanPSMT-35" x="125"/>
      </g>
     </g>
    </g>
    <g id="ytick_3">
     <g id="line2d_19">
      <path d="M 99.908834 254.085713 
L 716.99976 254.085713 
" clip-path="url(#p9e8424bafa)" style="fill: none; stroke-dasharray: 2.5,5; stroke-dashoffset: 0; stroke: #b0b0b0; stroke-width: 0.5"/>
     </g>
     <g id="line2d_20">
      <g>
       <use xlink:href="#m82ca78c908" x="99.908834" y="254.085713" style="stroke: #000000; stroke-width: 2"/>
      </g>
     </g>
     <g id="line2d_21">
      <g>
       <use xlink:href="#m64d3ecc57b" x="716.99976" y="254.085713" style="stroke: #000000; stroke-width: 2"/>
      </g>
     </g>
     <g id="text_8">
      <!-- 0.90 -->
      <g transform="translate(40.408834 265.195713)scale(0.32 -0.32)">
       <defs>
        <path id="TimesNewRomanPSMT-39" d="M 338 -88 
L 338 28 
Q 744 34 1094 217 
Q 1444 400 1770 856 
Q 2097 1313 2225 1859 
Q 1734 1544 1338 1544 
Q 891 1544 572 1889 
Q 253 2234 253 2806 
Q 253 3363 572 3797 
Q 956 4325 1575 4325 
Q 2097 4325 2469 3894 
Q 2925 3359 2925 2575 
Q 2925 1869 2578 1258 
Q 2231 647 1613 244 
Q 1109 -88 516 -88 
L 338 -88 
z
M 2275 2091 
Q 2331 2497 2331 2741 
Q 2331 3044 2228 3395 
Q 2125 3747 1936 3934 
Q 1747 4122 1506 4122 
Q 1228 4122 1018 3872 
Q 809 3622 809 3128 
Q 809 2469 1088 2097 
Q 1291 1828 1588 1828 
Q 1731 1828 1928 1897 
Q 2125 1966 2275 2091 
z
" transform="scale(0.015625)"/>
       </defs>
       <use xlink:href="#TimesNewRomanPSMT-30"/>
       <use xlink:href="#TimesNewRomanPSMT-2e" x="50"/>
       <use xlink:href="#TimesNewRomanPSMT-39" x="75"/>
       <use xlink:href="#TimesNewRomanPSMT-30" x="125"/>
      </g>
     </g>
    </g>
    <g id="ytick_4">
     <g id="line2d_22">
      <path d="M 99.908834 144.68056 
L 716.99976 144.68056 
" clip-path="url(#p9e8424bafa)" style="fill: none; stroke-dasharray: 2.5,5; stroke-dashoffset: 0; stroke: #b0b0b0; stroke-width: 0.5"/>
     </g>
     <g id="line2d_23">
      <g>
       <use xlink:href="#m82ca78c908" x="99.908834" y="144.68056" style="stroke: #000000; stroke-width: 2"/>
      </g>
     </g>
     <g id="line2d_24">
      <g>
       <use xlink:href="#m64d3ecc57b" x="716.99976" y="144.68056" style="stroke: #000000; stroke-width: 2"/>
      </g>
     </g>
     <g id="text_9">
      <!-- 0.95 -->
      <g transform="translate(40.408834 155.79056)scale(0.32 -0.32)">
       <use xlink:href="#TimesNewRomanPSMT-30"/>
       <use xlink:href="#TimesNewRomanPSMT-2e" x="50"/>
       <use xlink:href="#TimesNewRomanPSMT-39" x="75"/>
       <use xlink:href="#TimesNewRomanPSMT-35" x="125"/>
      </g>
     </g>
    </g>
    <g id="text_10">
     <!-- 分类准确率(%) -->
     <g transform="translate(30.240084 400.020474)rotate(-90)scale(0.35 -0.35)">
      <defs>
       <path id="UNAVAILABLE-5206" d="M 2191 4775 
L 2772 4400 
Q 2791 4384 2789 4362 
Q 2788 4341 2756 4334 
L 2541 4278 
Q 2194 3653 1967 3300 
Q 1741 2947 1461 2620 
Q 1181 2294 1043 2161 
Q 906 2028 667 1833 
Q 428 1638 231 1503 
L 184 1575 
Q 528 1897 750 2130 
Q 972 2363 1295 2869 
Q 1619 3375 1792 3753 
Q 1966 4131 2019 4275 
Q 2072 4419 2191 4775 
z
M 2428 2147 
L 2050 2150 
Q 1763 2150 1522 2044 
L 1338 2309 
L 1697 2297 
L 4119 2297 
L 4344 2553 
L 4747 2247 
Q 4838 2175 4836 2161 
Q 4834 2147 4781 2116 
L 4581 1997 
Q 4525 1272 4490 812 
Q 4456 353 4429 67 
Q 4403 -219 4339 -366 
Q 4275 -513 4131 -648 
Q 3988 -784 3869 -828 
L 3613 -934 
Q 3588 -816 3539 -689 
Q 3491 -563 3384 -498 
Q 3278 -434 3000 -316 
L 2825 -244 
L 2850 -147 
Q 3672 -372 3808 -286 
Q 3944 -200 3983 -100 
Q 4022 0 4069 358 
Q 4116 716 4128 900 
L 4222 2150 
L 2850 2150 
Q 2819 1928 2776 1656 
Q 2734 1384 2651 1078 
Q 2569 772 2444 456 
Q 2319 141 2042 -140 
Q 1766 -422 1491 -580 
Q 1216 -738 1000 -838 
L 731 -959 
L 584 -1028 
L 534 -934 
Q 1178 -594 1511 -273 
Q 1844 47 1967 283 
Q 2091 519 2227 895 
Q 2363 1272 2403 1828 
L 2428 2147 
L 2428 2147 
z
M 3506 4847 
L 4050 4641 
L 4159 4600 
Q 4159 4588 4081 4531 
L 3909 4403 
Q 3969 4194 4017 4066 
Q 4066 3938 4242 3597 
Q 4419 3256 4801 2928 
Q 5184 2600 5511 2472 
Q 5838 2344 6256 2275 
L 6241 2194 
Q 6009 2178 5865 2100 
Q 5722 2022 5556 1828 
Q 4984 2216 4643 2580 
Q 4303 2944 4162 3209 
Q 4022 3475 3947 3653 
Q 3872 3831 3822 3975 
L 3634 4516 
L 3506 4847 
L 3506 4847 
z
" transform="scale(0.015625)"/>
       <path id="UNAVAILABLE-7c7b" d="M 250 1147 
L 881 1131 
L 2863 1131 
Q 2869 1216 2880 1334 
Q 2891 1453 2888 1522 
L 2875 1784 
L 3441 1572 
Q 3528 1538 3529 1508 
Q 3531 1478 3463 1450 
L 3328 1391 
Q 3303 1250 3281 1131 
L 5288 1131 
L 5634 1528 
L 6091 1103 
Q 6166 1031 6156 1009 
Q 6147 988 6078 988 
L 3497 988 
Q 3575 825 3673 662 
Q 3772 500 4181 162 
Q 4591 -175 5142 -279 
Q 5694 -384 6159 -416 
L 6159 -503 
Q 5844 -531 5745 -573 
Q 5647 -616 5616 -691 
L 5513 -888 
Q 5059 -713 4778 -584 
Q 4497 -456 4130 -196 
Q 3763 63 3484 681 
L 3400 878 
L 3353 988 
L 3247 988 
Q 3197 819 3130 628 
Q 3063 438 2913 227 
Q 2763 16 2473 -212 
Q 2184 -441 1834 -605 
Q 1484 -769 1154 -842 
Q 825 -916 338 -997 
L 316 -909 
Q 1097 -703 1614 -439 
Q 2131 -175 2423 183 
Q 2716 541 2781 825 
L 2822 988 
L 838 988 
Q 569 988 456 909 
L 250 1147 
z
M 378 3391 
L 1041 3375 
L 3000 3375 
L 3000 4306 
L 2972 4913 
L 3497 4725 
Q 3591 4688 3594 4659 
Q 3597 4631 3497 4566 
L 3384 4491 
L 3384 3375 
L 3738 3375 
Q 4078 3825 4281 4117 
Q 4484 4409 4553 4600 
L 4619 4775 
L 5075 4425 
Q 5153 4363 5139 4339 
Q 5125 4316 5066 4306 
L 4906 4281 
Q 4347 3759 3919 3375 
L 5213 3375 
L 5525 3781 
L 6016 3350 
Q 6091 3281 6083 3253 
Q 6075 3225 6016 3225 
L 3384 3225 
L 3384 2997 
Q 4322 2791 4839 2630 
Q 5356 2469 5457 2400 
Q 5559 2331 5575 2206 
Q 5591 2081 5591 1953 
Q 5588 1772 5466 1778 
Q 5425 1778 5283 1928 
Q 5141 2078 4566 2406 
Q 3991 2734 3384 2878 
L 3384 2494 
L 3413 1988 
Q 3244 1863 2972 1806 
L 3000 2538 
L 3000 3159 
Q 2850 2972 2554 2625 
Q 2259 2278 1698 1943 
Q 1138 1609 544 1363 
L 503 1438 
Q 1091 1806 1434 2054 
Q 1778 2303 2090 2643 
Q 2403 2984 2569 3225 
L 1041 3225 
Q 781 3225 603 3141 
L 378 3391 
z
M 1347 4672 
Q 1375 4653 1833 4429 
Q 2291 4206 2333 4051 
Q 2375 3897 2331 3769 
Q 2294 3669 2209 3600 
Q 2125 3531 2072 3566 
Q 2047 3578 1953 3772 
Q 1859 3966 1817 4042 
Q 1775 4119 1664 4250 
Q 1553 4381 1316 4594 
L 1347 4672 
z
" transform="scale(0.015625)"/>
       <path id="UNAVAILABLE-51c6" d="M 309 1319 
L 325 1400 
Q 684 1331 795 1393 
Q 906 1456 997 1691 
L 1753 3391 
Q 2031 4059 2059 4113 
L 2097 4188 
L 2184 4144 
Q 2025 3725 1789 3053 
Q 1553 2381 1453 2089 
Q 1353 1797 1284 1536 
Q 1216 1275 1194 1095 
Q 1172 916 1170 755 
Q 1169 594 1184 359 
Q 1194 200 1211 14 
Q 1228 -172 1233 -283 
Q 1238 -394 1178 -528 
Q 1119 -663 947 -581 
Q 859 -544 779 -433 
Q 700 -322 709 -166 
Q 709 -119 748 23 
Q 788 166 813 356 
Q 838 547 842 755 
Q 847 963 791 1053 
Q 706 1175 309 1319 
z
M 519 4338 
L 550 4403 
Q 797 4263 934 4175 
Q 1072 4088 1272 3922 
Q 1472 3756 1473 3543 
Q 1475 3331 1354 3217 
Q 1234 3103 1182 3142 
Q 1131 3181 1107 3231 
Q 1084 3281 1034 3487 
Q 984 3694 873 3894 
Q 763 4094 519 4338 
z
M 1563 1628 
Q 1956 2303 2190 2790 
Q 2425 3278 2584 3689 
Q 2744 4100 2781 4209 
L 2875 4519 
Q 2941 4728 2947 4772 
L 2959 4869 
L 3459 4634 
Q 3578 4578 3576 4562 
Q 3575 4547 3497 4503 
L 3306 4394 
L 2972 3694 
L 5250 3694 
L 5538 4106 
L 5988 3641 
Q 6041 3584 6031 3562 
Q 6022 3541 5941 3541 
L 4303 3541 
L 4303 2400 
L 5088 2400 
L 5347 2788 
L 5731 2359 
Q 5791 2291 5780 2270 
Q 5769 2250 5688 2250 
L 4303 2250 
L 4303 1100 
L 5069 1100 
L 5347 1509 
L 5731 1078 
Q 5806 991 5792 969 
Q 5778 947 5719 947 
L 4303 947 
L 4303 -334 
L 5347 -334 
L 5653 66 
L 6009 -378 
Q 6053 -438 6045 -461 
Q 6038 -484 5988 -484 
L 2944 -484 
L 2944 -806 
Q 2763 -956 2534 -1025 
L 2578 -22 
L 2578 2928 
Q 1900 1938 1825 1844 
L 1622 1584 
L 1563 1628 
z
M 2944 -334 
L 3947 -334 
L 3947 947 
L 2944 947 
L 2944 -334 
z
M 2944 1100 
L 3947 1100 
L 3947 2250 
L 2944 2250 
L 2944 1100 
z
M 2944 2400 
L 3947 2400 
L 3947 3541 
L 2944 3541 
L 2944 2400 
z
M 3788 4778 
L 3828 4831 
Q 3984 4731 4146 4634 
Q 4309 4538 4434 4436 
Q 4559 4334 4567 4198 
Q 4575 4063 4472 3959 
Q 4369 3856 4311 3861 
Q 4253 3866 4236 3881 
Q 4219 3897 4206 3948 
Q 4194 4000 4150 4144 
Q 4106 4288 4054 4409 
Q 4003 4531 3788 4778 
z
" transform="scale(0.015625)"/>
       <path id="UNAVAILABLE-786e" d="M 219 1088 
Q 766 2100 945 2734 
Q 1125 3369 1228 3878 
L 1050 3878 
Q 684 3878 472 3784 
L 231 4038 
L 550 4025 
L 2031 4025 
L 2322 4369 
L 2731 3975 
Q 2778 3928 2768 3903 
Q 2759 3878 2669 3878 
L 1666 3878 
Q 1450 3181 1369 2975 
L 1216 2578 
L 1281 2525 
L 1894 2525 
L 2081 2794 
L 2434 2566 
Q 2525 2503 2526 2497 
Q 2528 2491 2434 2406 
L 2322 2306 
L 2322 797 
L 2350 153 
Q 2144 31 1966 -31 
L 1966 328 
L 1234 328 
L 1234 -200 
Q 1191 -234 1056 -295 
Q 922 -356 884 -366 
L 922 472 
L 922 2003 
Q 634 1503 547 1384 
L 294 1034 
L 219 1088 
z
M 1234 472 
L 1966 472 
L 1966 2378 
L 1234 2378 
L 1234 472 
z
M 1622 -984 
Q 1853 -853 2181 -601 
Q 2509 -350 2650 -72 
Q 2791 206 2842 518 
Q 2894 831 2906 1323 
Q 2919 1816 2925 2344 
Q 2928 2763 2925 2913 
L 2919 3169 
Q 2781 3044 2447 2719 
L 2388 2784 
Q 2766 3272 2927 3494 
Q 3088 3716 3330 4192 
Q 3572 4669 3591 4734 
L 3666 4981 
L 4172 4734 
Q 4256 4691 4254 4678 
Q 4253 4666 4163 4622 
L 3988 4538 
L 3650 4059 
L 4644 4059 
L 4916 4334 
L 5356 3975 
Q 5416 3925 5409 3901 
Q 5403 3878 5319 3859 
L 5166 3825 
Q 5041 3797 4881 3678 
Q 4722 3559 4300 3059 
L 5266 3059 
L 5475 3344 
L 5869 3081 
Q 5931 3038 5932 3017 
Q 5934 2997 5853 2944 
L 5713 2850 
L 5713 -441 
Q 5713 -556 5672 -657 
Q 5631 -759 5512 -843 
Q 5394 -928 5153 -978 
Q 5138 -875 5117 -808 
Q 5097 -741 5008 -642 
Q 4919 -544 4547 -459 
L 4575 -372 
Q 5103 -453 5213 -434 
Q 5291 -425 5316 -392 
Q 5341 -359 5341 -250 
L 5341 913 
L 4419 913 
L 4419 181 
L 4456 -488 
Q 4394 -519 4326 -553 
Q 4259 -588 4247 -591 
L 4119 -641 
L 4025 -684 
L 4063 241 
L 4063 913 
L 3228 913 
Q 3209 734 3187 557 
Q 3166 381 3070 126 
Q 2975 -128 2689 -409 
Q 2403 -691 1675 -1063 
L 1622 -984 
z
M 3006 3256 
L 3331 3059 
L 4156 3059 
Q 4284 3259 4344 3366 
L 4522 3706 
L 4634 3916 
L 3547 3916 
Q 3281 3566 3006 3256 
z
M 3228 1059 
L 4063 1059 
L 4063 1906 
L 3266 1906 
L 3228 1059 
z
M 3266 2053 
L 4063 2053 
L 4063 2916 
L 3288 2916 
Q 3278 2563 3278 2497 
L 3266 2053 
L 3266 2053 
z
M 4419 1059 
L 5341 1059 
L 5341 1906 
L 4419 1906 
L 4419 1059 
z
M 4419 2053 
L 5341 2053 
L 5341 2916 
L 4419 2916 
L 4419 2053 
z
" transform="scale(0.015625)"/>
       <path id="UNAVAILABLE-7387" d="M 138 556 
L 453 541 
L 3025 541 
L 3025 944 
L 2991 1459 
Q 2591 1350 2284 1213 
L 2078 1681 
Q 2284 1722 2432 1822 
Q 2581 1922 2803 2159 
L 3203 2591 
L 3325 2719 
Q 2541 2603 2369 2516 
L 2203 2438 
L 1975 2859 
Q 2088 2859 2156 2889 
Q 2225 2919 2414 3158 
Q 2603 3397 2698 3537 
Q 2794 3678 2897 3881 
L 1219 3881 
Q 1134 3881 1062 3870 
Q 991 3859 797 3775 
L 553 4047 
L 919 4034 
L 3203 4034 
Q 3119 4278 3081 4364 
Q 3044 4450 2976 4556 
Q 2909 4663 2713 4822 
L 2734 4916 
Q 3016 4822 3211 4742 
Q 3406 4663 3489 4563 
Q 3572 4463 3562 4350 
Q 3553 4238 3391 4034 
L 5113 4034 
L 5447 4428 
L 5875 4034 
Q 5969 3944 5950 3912 
Q 5931 3881 5850 3881 
L 3131 3881 
L 3378 3747 
Q 3444 3709 3434 3684 
Q 3425 3659 3391 3653 
L 3228 3613 
Q 3138 3550 3094 3519 
L 2503 2988 
L 2284 2797 
L 3450 2859 
Q 3775 3231 3844 3353 
L 3934 3509 
L 4303 3125 
Q 4353 3069 4345 3055 
Q 4338 3041 4284 3034 
L 4100 3006 
Q 3909 2866 3864 2828 
Q 3819 2791 3553 2563 
L 3103 2184 
L 2647 1778 
L 2509 1666 
Q 3413 1728 4084 1809 
Q 3934 2059 3684 2325 
L 3734 2369 
Q 4309 2009 4432 1895 
Q 4556 1781 4592 1678 
Q 4628 1575 4591 1453 
Q 4556 1344 4475 1276 
Q 4394 1209 4353 1219 
Q 4306 1225 4281 1272 
Q 4256 1319 4240 1387 
Q 4225 1456 4141 1697 
Q 3638 1606 3066 1459 
L 3525 1244 
Q 3594 1209 3595 1192 
Q 3597 1175 3525 1128 
L 3391 1038 
L 3391 541 
L 5394 541 
L 5747 925 
L 6181 528 
Q 6241 469 6228 430 
Q 6216 391 6163 391 
L 3391 391 
L 3391 -316 
L 3422 -869 
Q 3278 -969 2975 -1047 
L 3025 -266 
L 3025 391 
L 859 391 
Q 547 391 388 303 
L 138 556 
z
M 456 1581 
Q 844 1709 1053 1800 
Q 1263 1891 2000 2269 
L 2050 2203 
Q 1834 2038 1607 1867 
Q 1381 1697 1190 1548 
Q 1000 1400 784 1144 
L 456 1581 
z
M 941 3506 
Q 1625 3106 1692 2964 
Q 1759 2822 1678 2628 
Q 1634 2525 1556 2469 
Q 1478 2413 1441 2431 
Q 1409 2444 1367 2575 
Q 1325 2706 1284 2823 
Q 1244 2941 1200 3019 
Q 1156 3097 894 3453 
L 941 3506 
z
M 5344 3256 
Q 4713 2697 4484 2469 
L 4422 2531 
Q 4666 2847 4814 3095 
Q 4963 3344 5131 3694 
L 5503 3375 
Q 5581 3306 5570 3281 
Q 5559 3256 5488 3256 
L 5344 3256 
z
M 4553 2197 
L 4588 2269 
Q 4863 2194 5013 2142 
Q 5163 2091 5398 1980 
Q 5634 1869 5679 1778 
Q 5725 1688 5722 1538 
Q 5719 1456 5706 1395 
Q 5694 1334 5650 1279 
Q 5606 1225 5556 1231 
Q 5519 1231 5472 1284 
L 5275 1619 
Q 5216 1709 5028 1884 
Q 4841 2059 4553 2197 
z
" transform="scale(0.015625)"/>
       <path id="UNAVAILABLE-28" d="M 1488 -909 
L 1369 -763 
Q 1216 -578 969 -207 
Q 722 163 594 503 
Q 466 844 417 1164 
Q 369 1484 366 1696 
Q 363 1909 363 2028 
Q 369 2338 417 2658 
Q 466 2978 595 3323 
Q 725 3669 983 4050 
Q 1241 4431 1488 4738 
L 1591 4866 
Q 1616 4900 1658 4931 
Q 1700 4963 1725 4961 
Q 1750 4959 1773 4931 
Q 1797 4903 1756 4834 
L 1653 4659 
Q 1547 4481 1369 4167 
Q 1191 3853 1117 3668 
Q 1044 3484 975 3225 
Q 906 2966 862 2720 
Q 819 2475 809 2192 
Q 800 1909 809 1703 
Q 819 1353 864 1092 
Q 909 831 964 636 
Q 1019 441 1123 159 
Q 1228 -122 1556 -669 
L 1653 -831 
Q 1766 -1028 1767 -1062 
Q 1769 -1097 1739 -1112 
Q 1709 -1128 1661 -1098 
Q 1613 -1069 1488 -909 
z
" transform="scale(0.015625)"/>
       <path id="UNAVAILABLE-25" d="M 931 4356 
Q 1034 4353 1175 4297 
Q 1316 4241 1409 4123 
Q 1503 4006 1553 3865 
Q 1603 3725 1633 3565 
Q 1663 3406 1666 3179 
Q 1669 2953 1616 2681 
Q 1581 2509 1534 2407 
Q 1488 2306 1411 2207 
Q 1334 2109 1207 2025 
Q 1081 1941 916 1941 
Q 759 1938 643 2009 
Q 528 2081 453 2178 
Q 378 2275 318 2412 
Q 259 2550 220 2717 
Q 181 2884 181 3176 
Q 181 3469 231 3669 
Q 266 3809 356 3989 
Q 447 4169 589 4262 
Q 731 4356 931 4356 
z
M 931 2106 
Q 988 2106 1048 2142 
Q 1109 2178 1161 2289 
Q 1213 2400 1234 2556 
Q 1256 2713 1257 3041 
Q 1259 3369 1238 3656 
Q 1216 3900 1162 4006 
Q 1109 4113 1051 4150 
Q 994 4188 938 4191 
Q 869 4191 803 4145 
Q 738 4100 686 3992 
Q 634 3884 615 3709 
Q 597 3534 595 3265 
Q 594 2997 606 2822 
Q 616 2653 639 2511 
Q 663 2369 709 2270 
Q 756 2172 815 2137 
Q 875 2103 931 2106 
z
M 950 -425 
L 3463 4359 
L 3684 4359 
L 1184 -425 
L 950 -425 
z
M 2969 722 
Q 2963 922 3003 1133 
Q 3044 1344 3137 1511 
Q 3231 1678 3375 1778 
Q 3519 1878 3706 1878 
Q 3888 1875 4041 1772 
Q 4194 1669 4283 1483 
Q 4372 1297 4411 1120 
Q 4450 944 4450 731 
Q 4447 516 4409 336 
Q 4372 156 4284 -25 
Q 4197 -206 4031 -317 
Q 3866 -428 3688 -428 
Q 3541 -431 3428 -365 
Q 3316 -300 3219 -170 
Q 3122 -41 3048 175 
Q 2975 391 2969 722 
z
M 3700 -269 
Q 3756 -269 3836 -225 
Q 3916 -181 3962 -39 
Q 4009 103 4018 297 
Q 4028 491 4031 795 
Q 4034 1100 4000 1328 
Q 3978 1463 3939 1538 
Q 3900 1613 3831 1663 
Q 3763 1713 3697 1713 
Q 3644 1709 3581 1670 
Q 3519 1631 3470 1525 
Q 3422 1419 3395 1231 
Q 3369 1044 3367 884 
Q 3366 725 3381 494 
Q 3394 231 3416 100 
Q 3438 -31 3484 -120 
Q 3531 -209 3593 -240 
Q 3656 -272 3700 -269 
z
" transform="scale(0.015625)"/>
       <path id="UNAVAILABLE-29" d="M 509 -822 
L 603 -663 
Q 925 -113 1033 170 
Q 1141 453 1195 643 
Q 1250 834 1294 1093 
Q 1338 1353 1347 1634 
Q 1356 1916 1350 2128 
Q 1338 2491 1295 2730 
Q 1253 2969 1184 3230 
Q 1116 3491 1044 3670 
Q 972 3850 781 4189 
Q 591 4528 509 4666 
L 403 4841 
Q 366 4906 386 4936 
Q 406 4966 431 4967 
Q 456 4969 501 4936 
Q 547 4903 572 4875 
L 675 4744 
Q 956 4381 1192 4036 
Q 1428 3691 1561 3336 
Q 1694 2981 1742 2662 
Q 1791 2344 1795 2130 
Q 1800 1916 1800 1803 
Q 1791 1491 1742 1170 
Q 1694 850 1566 509 
Q 1438 169 1191 -201 
Q 944 -572 794 -756 
L 675 -903 
Q 547 -1063 498 -1092 
Q 450 -1122 422 -1106 
Q 394 -1091 394 -1055 
Q 394 -1019 509 -822 
z
" transform="scale(0.015625)"/>
      </defs>
      <use xlink:href="#UNAVAILABLE-5206"/>
      <use xlink:href="#UNAVAILABLE-7c7b" x="100"/>
      <use xlink:href="#UNAVAILABLE-51c6" x="200"/>
      <use xlink:href="#UNAVAILABLE-786e" x="300"/>
      <use xlink:href="#UNAVAILABLE-7387" x="400"/>
      <use xlink:href="#UNAVAILABLE-28" x="500"/>
      <use xlink:href="#UNAVAILABLE-25" x="533.544922"/>
      <use xlink:href="#UNAVAILABLE-29" x="607.177734"/>
     </g>
    </g>
   </g>
   <g id="line2d_25">
    <path d="M 127.958421 166.561596 
L 141.983215 124.987651 
L 156.008009 100.918436 
L 170.032803 96.542287 
L 184.057596 83.413707 
L 198.08239 79.037427 
L 212.107184 74.661277 
L 226.131978 72.473202 
L 240.156772 68.096922 
L 254.181565 65.908847 
L 268.206359 61.532697 
L 282.231153 63.720772 
L 296.255947 63.720772 
L 310.28074 61.532697 
L 324.305534 61.532697 
L 338.330328 61.532697 
L 352.355122 61.532697 
L 366.379916 61.532697 
L 380.404709 61.532697 
L 394.429503 59.344492 
L 408.454297 59.344492 
L 422.479091 59.344492 
L 436.503884 61.532697 
L 450.528678 59.344492 
L 464.553472 59.344492 
L 478.578266 59.344492 
L 492.60306 61.532697 
L 506.627853 61.532697 
L 520.652647 61.532697 
L 534.677441 59.344492 
L 548.702235 59.344492 
L 562.727028 61.532697 
L 576.751822 61.532697 
L 590.776616 61.532697 
L 604.80141 59.344492 
L 618.826204 59.344492 
L 632.850997 61.532697 
L 646.875791 61.532697 
L 660.900585 59.344492 
L 674.925379 61.532697 
L 688.950172 61.532697 
" clip-path="url(#p9e8424bafa)" style="fill: none; stroke: #0000ff; stroke-width: 3; stroke-linecap: square"/>
    <defs>
     <path id="mfb41c33975" d="M 0 10 
C 2.652031 10 5.195799 8.946337 7.071068 7.071068 
C 8.946337 5.195799 10 2.652031 10 0 
C 10 -2.652031 8.946337 -5.195799 7.071068 -7.071068 
C 5.195799 -8.946337 2.652031 -10 0 -10 
C -2.652031 -10 -5.195799 -8.946337 -7.071068 -7.071068 
C -8.946337 -5.195799 -10 -2.652031 -10 0 
C -10 2.652031 -8.946337 5.195799 -7.071068 7.071068 
C -5.195799 8.946337 -2.652031 10 0 10 
z
" style="stroke: #0000ff"/>
    </defs>
    <g clip-path="url(#p9e8424bafa)">
     <use xlink:href="#mfb41c33975" x="127.958421" y="166.561596" style="fill: #ffffff; stroke: #0000ff"/>
     <use xlink:href="#mfb41c33975" x="184.057596" y="83.413707" style="fill: #ffffff; stroke: #0000ff"/>
     <use xlink:href="#mfb41c33975" x="240.156772" y="68.096922" style="fill: #ffffff; stroke: #0000ff"/>
     <use xlink:href="#mfb41c33975" x="296.255947" y="63.720772" style="fill: #ffffff; stroke: #0000ff"/>
     <use xlink:href="#mfb41c33975" x="352.355122" y="61.532697" style="fill: #ffffff; stroke: #0000ff"/>
     <use xlink:href="#mfb41c33975" x="408.454297" y="59.344492" style="fill: #ffffff; stroke: #0000ff"/>
     <use xlink:href="#mfb41c33975" x="464.553472" y="59.344492" style="fill: #ffffff; stroke: #0000ff"/>
     <use xlink:href="#mfb41c33975" x="520.652647" y="61.532697" style="fill: #ffffff; stroke: #0000ff"/>
     <use xlink:href="#mfb41c33975" x="576.751822" y="61.532697" style="fill: #ffffff; stroke: #0000ff"/>
     <use xlink:href="#mfb41c33975" x="632.850997" y="61.532697" style="fill: #ffffff; stroke: #0000ff"/>
     <use xlink:href="#mfb41c33975" x="688.950172" y="61.532697" style="fill: #ffffff; stroke: #0000ff"/>
    </g>
   </g>
   <g id="line2d_26">
    <path d="M 127.958421 156.93391 
L 141.983215 125.644061 
L 156.008009 101.793692 
L 170.032803 92.822546 
L 184.057596 80.131529 
L 198.08239 71.160253 
L 212.107184 71.816793 
L 226.131978 64.158335 
L 240.156772 65.908847 
L 254.181565 64.377182 
L 268.206359 64.814744 
L 282.231153 62.407823 
L 296.255947 60.219748 
L 310.28074 60.219748 
L 324.305534 61.751413 
L 338.330328 61.313851 
L 352.355122 62.407823 
L 366.379916 60.657441 
L 380.404709 60.219748 
L 394.429503 59.563339 
L 408.454297 60.657441 
L 422.479091 59.344492 
L 436.503884 60.438595 
L 450.528678 59.563339 
L 464.553472 60.219748 
L 478.578266 59.782185 
L 492.60306 59.782185 
L 506.627853 59.125776 
L 520.652647 59.563339 
L 534.677441 59.782185 
L 548.702235 60.438595 
L 562.727028 60.001032 
L 576.751822 60.657441 
L 590.776616 60.876157 
L 604.80141 60.001032 
L 618.826204 60.438595 
L 632.850997 60.001032 
L 646.875791 60.219748 
L 660.900585 60.438595 
L 674.925379 60.657441 
L 688.950172 60.001032 
" clip-path="url(#p9e8424bafa)" style="fill: none; stroke-dasharray: 3,4.95; stroke-dashoffset: 0; stroke: #0000ff; stroke-width: 3"/>
    <defs>
     <path id="m284ba57614" d="M 0 -10 
L -2.24514 -3.09017 
L -9.510565 -3.09017 
L -3.632713 1.18034 
L -5.877853 8.09017 
L -0 3.81966 
L 5.877853 8.09017 
L 3.632713 1.18034 
L 9.510565 -3.09017 
L 2.24514 -3.09017 
z
" style="stroke: #0000ff; stroke-linejoin: bevel"/>
    </defs>
    <g clip-path="url(#p9e8424bafa)">
     <use xlink:href="#m284ba57614" x="127.958421" y="156.93391" style="fill: #ffffff; stroke: #0000ff; stroke-linejoin: bevel"/>
     <use xlink:href="#m284ba57614" x="184.057596" y="80.131529" style="fill: #ffffff; stroke: #0000ff; stroke-linejoin: bevel"/>
     <use xlink:href="#m284ba57614" x="240.156772" y="65.908847" style="fill: #ffffff; stroke: #0000ff; stroke-linejoin: bevel"/>
     <use xlink:href="#m284ba57614" x="296.255947" y="60.219748" style="fill: #ffffff; stroke: #0000ff; stroke-linejoin: bevel"/>
     <use xlink:href="#m284ba57614" x="352.355122" y="62.407823" style="fill: #ffffff; stroke: #0000ff; stroke-linejoin: bevel"/>
     <use xlink:href="#m284ba57614" x="408.454297" y="60.657441" style="fill: #ffffff; stroke: #0000ff; stroke-linejoin: bevel"/>
     <use xlink:href="#m284ba57614" x="464.553472" y="60.219748" style="fill: #ffffff; stroke: #0000ff; stroke-linejoin: bevel"/>
     <use xlink:href="#m284ba57614" x="520.652647" y="59.563339" style="fill: #ffffff; stroke: #0000ff; stroke-linejoin: bevel"/>
     <use xlink:href="#m284ba57614" x="576.751822" y="60.657441" style="fill: #ffffff; stroke: #0000ff; stroke-linejoin: bevel"/>
     <use xlink:href="#m284ba57614" x="632.850997" y="60.001032" style="fill: #ffffff; stroke: #0000ff; stroke-linejoin: bevel"/>
     <use xlink:href="#m284ba57614" x="688.950172" y="60.001032" style="fill: #ffffff; stroke: #0000ff; stroke-linejoin: bevel"/>
    </g>
   </g>
   <g id="line2d_27">
    <path d="M 127.958421 210.323615 
L 141.983215 157.809166 
L 156.008009 120.611371 
L 170.032803 105.294717 
L 184.057596 87.789857 
L 198.08239 79.037427 
L 212.107184 81.225632 
L 226.131978 74.661277 
L 240.156772 70.284997 
L 254.181565 72.473202 
L 268.206359 65.908847 
L 282.231153 61.532697 
L 296.255947 63.720772 
L 310.28074 65.908847 
L 324.305534 65.908847 
L 338.330328 63.720772 
L 352.355122 63.720772 
L 366.379916 63.720772 
L 380.404709 63.720772 
L 394.429503 61.532697 
L 408.454297 63.720772 
L 422.479091 61.532697 
L 436.503884 63.720772 
L 450.528678 61.532697 
L 464.553472 63.720772 
L 478.578266 61.532697 
L 492.60306 61.532697 
L 506.627853 61.532697 
L 520.652647 61.532697 
L 534.677441 61.532697 
L 548.702235 61.532697 
L 562.727028 61.532697 
L 576.751822 61.532697 
L 590.776616 61.532697 
L 604.80141 61.532697 
L 618.826204 61.532697 
L 632.850997 61.532697 
L 646.875791 61.532697 
L 660.900585 61.532697 
L 674.925379 61.532697 
L 688.950172 61.532697 
" clip-path="url(#p9e8424bafa)" style="fill: none; stroke: #ff0000; stroke-width: 3; stroke-linecap: square"/>
    <defs>
     <path id="m066703bfb7" d="M 0 10 
C 2.652031 10 5.195799 8.946337 7.071068 7.071068 
C 8.946337 5.195799 10 2.652031 10 0 
C 10 -2.652031 8.946337 -5.195799 7.071068 -7.071068 
C 5.195799 -8.946337 2.652031 -10 0 -10 
C -2.652031 -10 -5.195799 -8.946337 -7.071068 -7.071068 
C -8.946337 -5.195799 -10 -2.652031 -10 0 
C -10 2.652031 -8.946337 5.195799 -7.071068 7.071068 
C -5.195799 8.946337 -2.652031 10 0 10 
z
" style="stroke: #ff0000"/>
    </defs>
    <g clip-path="url(#p9e8424bafa)">
     <use xlink:href="#m066703bfb7" x="127.958421" y="210.323615" style="fill: #ffffff; stroke: #ff0000"/>
     <use xlink:href="#m066703bfb7" x="212.107184" y="81.225632" style="fill: #ffffff; stroke: #ff0000"/>
     <use xlink:href="#m066703bfb7" x="296.255947" y="63.720772" style="fill: #ffffff; stroke: #ff0000"/>
     <use xlink:href="#m066703bfb7" x="380.404709" y="63.720772" style="fill: #ffffff; stroke: #ff0000"/>
     <use xlink:href="#m066703bfb7" x="464.553472" y="63.720772" style="fill: #ffffff; stroke: #ff0000"/>
     <use xlink:href="#m066703bfb7" x="548.702235" y="61.532697" style="fill: #ffffff; stroke: #ff0000"/>
     <use xlink:href="#m066703bfb7" x="632.850997" y="61.532697" style="fill: #ffffff; stroke: #ff0000"/>
    </g>
   </g>
   <g id="line2d_28">
    <path d="M 127.958421 205.728619 
L 141.983215 160.65365 
L 156.008009 133.958798 
L 170.032803 112.515481 
L 184.057596 93.697802 
L 198.08239 88.446266 
L 212.107184 81.663195 
L 226.131978 76.411789 
L 240.156772 71.597946 
L 254.181565 71.816793 
L 268.206359 69.191025 
L 282.231153 66.34641 
L 296.255947 69.628587 
L 310.28074 65.033591 
L 324.305534 65.69 
L 338.330328 64.596028 
L 352.355122 64.158335 
L 366.379916 65.033591 
L 380.404709 63.501926 
L 394.429503 62.62667 
L 408.454297 63.720772 
L 422.479091 63.283079 
L 436.503884 63.501926 
L 450.528678 61.532697 
L 464.553472 63.283079 
L 478.578266 62.189107 
L 492.60306 62.845516 
L 506.627853 62.62667 
L 520.652647 63.064363 
L 534.677441 62.407823 
L 548.702235 63.064363 
L 562.727028 62.845516 
L 576.751822 63.064363 
L 590.776616 63.283079 
L 604.80141 63.283079 
L 618.826204 63.064363 
L 632.850997 62.62667 
L 646.875791 63.064363 
L 660.900585 63.064363 
L 674.925379 62.62667 
L 688.950172 62.407823 
" clip-path="url(#p9e8424bafa)" style="fill: none; stroke-dasharray: 3,4.95; stroke-dashoffset: 0; stroke: #ff0000; stroke-width: 3"/>
    <defs>
     <path id="ma67e1f4d38" d="M 0 -10 
L -2.24514 -3.09017 
L -9.510565 -3.09017 
L -3.632713 1.18034 
L -5.877853 8.09017 
L -0 3.81966 
L 5.877853 8.09017 
L 3.632713 1.18034 
L 9.510565 -3.09017 
L 2.24514 -3.09017 
z
" style="stroke: #ff0000; stroke-linejoin: bevel"/>
    </defs>
    <g clip-path="url(#p9e8424bafa)">
     <use xlink:href="#ma67e1f4d38" x="127.958421" y="205.728619" style="fill: #ffffff; stroke: #ff0000; stroke-linejoin: bevel"/>
     <use xlink:href="#ma67e1f4d38" x="212.107184" y="81.663195" style="fill: #ffffff; stroke: #ff0000; stroke-linejoin: bevel"/>
     <use xlink:href="#ma67e1f4d38" x="296.255947" y="69.628587" style="fill: #ffffff; stroke: #ff0000; stroke-linejoin: bevel"/>
     <use xlink:href="#ma67e1f4d38" x="380.404709" y="63.501926" style="fill: #ffffff; stroke: #ff0000; stroke-linejoin: bevel"/>
     <use xlink:href="#ma67e1f4d38" x="464.553472" y="63.283079" style="fill: #ffffff; stroke: #ff0000; stroke-linejoin: bevel"/>
     <use xlink:href="#ma67e1f4d38" x="548.702235" y="63.064363" style="fill: #ffffff; stroke: #ff0000; stroke-linejoin: bevel"/>
     <use xlink:href="#ma67e1f4d38" x="632.850997" y="62.62667" style="fill: #ffffff; stroke: #ff0000; stroke-linejoin: bevel"/>
    </g>
   </g>
   <g id="line2d_29">
    <path d="M 127.958421 505.717506 
L 141.983215 391.936178 
L 156.008009 291.283429 
L 170.032803 216.88797 
L 184.057596 184.066456 
L 198.08239 142.492511 
L 212.107184 124.987651 
L 226.131978 114.047147 
L 240.156772 100.918436 
L 254.181565 103.106642 
L 268.206359 89.977932 
L 282.231153 94.354212 
L 296.255947 89.977932 
L 310.28074 89.977932 
L 324.305534 89.977932 
L 338.330328 85.601782 
L 352.355122 83.413707 
L 366.379916 85.601782 
L 380.404709 85.601782 
L 394.429503 87.789857 
L 408.454297 83.413707 
L 422.479091 83.413707 
L 436.503884 85.601782 
L 450.528678 85.601782 
L 464.553472 85.601782 
L 478.578266 85.601782 
L 492.60306 87.789857 
L 506.627853 85.601782 
L 520.652647 85.601782 
L 534.677441 85.601782 
L 548.702235 85.601782 
L 562.727028 85.601782 
L 576.751822 85.601782 
L 590.776616 85.601782 
L 604.80141 85.601782 
L 618.826204 85.601782 
L 632.850997 85.601782 
L 646.875791 85.601782 
L 660.900585 85.601782 
L 674.925379 87.789857 
L 688.950172 85.601782 
" clip-path="url(#p9e8424bafa)" style="fill: none; stroke: #000000; stroke-width: 3; stroke-linecap: square"/>
    <defs>
     <path id="mc8c1c8e279" d="M 0 10 
C 2.652031 10 5.195799 8.946337 7.071068 7.071068 
C 8.946337 5.195799 10 2.652031 10 0 
C 10 -2.652031 8.946337 -5.195799 7.071068 -7.071068 
C 5.195799 -8.946337 2.652031 -10 0 -10 
C -2.652031 -10 -5.195799 -8.946337 -7.071068 -7.071068 
C -8.946337 -5.195799 -10 -2.652031 -10 0 
C -10 2.652031 -8.946337 5.195799 -7.071068 7.071068 
C -5.195799 8.946337 -2.652031 10 0 10 
z
" style="stroke: #000000"/>
    </defs>
    <g clip-path="url(#p9e8424bafa)">
     <use xlink:href="#mc8c1c8e279" x="127.958421" y="505.717506" style="fill: #ffffff; stroke: #000000"/>
     <use xlink:href="#mc8c1c8e279" x="184.057596" y="184.066456" style="fill: #ffffff; stroke: #000000"/>
     <use xlink:href="#mc8c1c8e279" x="240.156772" y="100.918436" style="fill: #ffffff; stroke: #000000"/>
     <use xlink:href="#mc8c1c8e279" x="296.255947" y="89.977932" style="fill: #ffffff; stroke: #000000"/>
     <use xlink:href="#mc8c1c8e279" x="352.355122" y="83.413707" style="fill: #ffffff; stroke: #000000"/>
     <use xlink:href="#mc8c1c8e279" x="408.454297" y="83.413707" style="fill: #ffffff; stroke: #000000"/>
     <use xlink:href="#mc8c1c8e279" x="464.553472" y="85.601782" style="fill: #ffffff; stroke: #000000"/>
     <use xlink:href="#mc8c1c8e279" x="520.652647" y="85.601782" style="fill: #ffffff; stroke: #000000"/>
     <use xlink:href="#mc8c1c8e279" x="576.751822" y="85.601782" style="fill: #ffffff; stroke: #000000"/>
     <use xlink:href="#mc8c1c8e279" x="632.850997" y="85.601782" style="fill: #ffffff; stroke: #000000"/>
     <use xlink:href="#mc8c1c8e279" x="688.950172" y="85.601782" style="fill: #ffffff; stroke: #000000"/>
    </g>
   </g>
   <g id="line2d_30">
    <path d="M 127.958421 516.658142 
L 141.983215 389.748103 
L 156.008009 308.569442 
L 170.032803 247.740256 
L 184.057596 189.317862 
L 198.08239 160.434934 
L 212.107184 145.118149 
L 226.131978 126.081624 
L 240.156772 113.171891 
L 254.181565 107.045229 
L 268.206359 99.824464 
L 282.231153 100.043311 
L 296.255947 93.041393 
L 310.28074 91.94729 
L 324.305534 90.853188 
L 338.330328 87.352294 
L 352.355122 90.196778 
L 366.379916 88.665113 
L 380.404709 87.789857 
L 394.429503 89.321522 
L 408.454297 88.22755 
L 422.479091 88.008703 
L 436.503884 85.601782 
L 450.528678 86.477038 
L 464.553472 87.789857 
L 478.578266 87.352294 
L 492.60306 88.665113 
L 506.627853 86.695884 
L 520.652647 87.352294 
L 534.677441 86.914601 
L 548.702235 88.446266 
L 562.727028 88.22755 
L 576.751822 86.695884 
L 590.776616 87.352294 
L 604.80141 86.914601 
L 618.826204 87.57101 
L 632.850997 88.665113 
L 646.875791 86.695884 
L 660.900585 86.914601 
L 674.925379 87.133447 
L 688.950172 87.352294 
" clip-path="url(#p9e8424bafa)" style="fill: none; stroke-dasharray: 3,4.95; stroke-dashoffset: 0; stroke: #000000; stroke-width: 3"/>
    <defs>
     <path id="m1e9efb9296" d="M 0 -10 
L -2.24514 -3.09017 
L -9.510565 -3.09017 
L -3.632713 1.18034 
L -5.877853 8.09017 
L -0 3.81966 
L 5.877853 8.09017 
L 3.632713 1.18034 
L 9.510565 -3.09017 
L 2.24514 -3.09017 
z
" style="stroke: #000000; stroke-linejoin: bevel"/>
    </defs>
    <g clip-path="url(#p9e8424bafa)">
     <use xlink:href="#m1e9efb9296" x="127.958421" y="516.658142" style="fill: #ffffff; stroke: #000000; stroke-linejoin: bevel"/>
     <use xlink:href="#m1e9efb9296" x="184.057596" y="189.317862" style="fill: #ffffff; stroke: #000000; stroke-linejoin: bevel"/>
     <use xlink:href="#m1e9efb9296" x="240.156772" y="113.171891" style="fill: #ffffff; stroke: #000000; stroke-linejoin: bevel"/>
     <use xlink:href="#m1e9efb9296" x="296.255947" y="93.041393" style="fill: #ffffff; stroke: #000000; stroke-linejoin: bevel"/>
     <use xlink:href="#m1e9efb9296" x="352.355122" y="90.196778" style="fill: #ffffff; stroke: #000000; stroke-linejoin: bevel"/>
     <use xlink:href="#m1e9efb9296" x="408.454297" y="88.22755" style="fill: #ffffff; stroke: #000000; stroke-linejoin: bevel"/>
     <use xlink:href="#m1e9efb9296" x="464.553472" y="87.789857" style="fill: #ffffff; stroke: #000000; stroke-linejoin: bevel"/>
     <use xlink:href="#m1e9efb9296" x="520.652647" y="87.352294" style="fill: #ffffff; stroke: #000000; stroke-linejoin: bevel"/>
     <use xlink:href="#m1e9efb9296" x="576.751822" y="86.695884" style="fill: #ffffff; stroke: #000000; stroke-linejoin: bevel"/>
     <use xlink:href="#m1e9efb9296" x="632.850997" y="88.665113" style="fill: #ffffff; stroke: #000000; stroke-linejoin: bevel"/>
     <use xlink:href="#m1e9efb9296" x="688.950172" y="87.352294" style="fill: #ffffff; stroke: #000000; stroke-linejoin: bevel"/>
    </g>
   </g>
   <g id="patch_3">
    <path d="M 99.908834 539.53476 
L 99.908834 36.249158 
" style="fill: none; stroke: #000000; stroke-width: 2.5; stroke-linejoin: miter; stroke-linecap: square"/>
   </g>
   <g id="patch_4">
    <path d="M 716.99976 539.53476 
L 716.99976 36.249158 
" style="fill: none; stroke: #000000; stroke-width: 2.5; stroke-linejoin: miter; stroke-linecap: square"/>
   </g>
   <g id="patch_5">
    <path d="M 99.908834 539.53476 
L 716.99976 539.53476 
" style="fill: none; stroke: #000000; stroke-width: 2.5; stroke-linejoin: miter; stroke-linecap: square"/>
   </g>
   <g id="patch_6">
    <path d="M 99.908834 36.249158 
L 716.99976 36.249158 
" style="fill: none; stroke: #000000; stroke-width: 2.5; stroke-linejoin: miter; stroke-linecap: square"/>
   </g>
   <g id="legend_1">
    <g id="patch_7">
     <path d="M 206.99976 539.53476 
L 711.99976 539.53476 
Q 716.99976 539.53476 716.99976 534.53476 
L 716.99976 356.28476 
Q 716.99976 351.28476 711.99976 351.28476 
L 206.99976 351.28476 
Q 201.99976 351.28476 201.99976 356.28476 
L 201.99976 534.53476 
Q 201.99976 539.53476 206.99976 539.53476 
L 206.99976 539.53476 
z
" style="fill: none; stroke: #000000; stroke-linejoin: miter"/>
    </g>
    <g id="line2d_31">
     <path d="M 211.99976 372.03476 
L 236.99976 372.03476 
L 261.99976 372.03476 
" style="fill: none; stroke: #0000ff; stroke-width: 3; stroke-linecap: square"/>
     <g>
      <use xlink:href="#mfb41c33975" x="236.99976" y="372.03476" style="fill: #ffffff; stroke: #0000ff"/>
     </g>
    </g>
    <g id="text_11">
     <!-- FL+精确, $\mathrm{R}=0.9,\mathrm{SNR}_\mathrm{train}=20\mathrm{(dB)}$ -->
     <g transform="translate(281.99976 380.78476)scale(0.25 -0.25)">
      <defs>
       <path id="UNAVAILABLE-46" d="M 284 4131 
Q 200 4184 200 4251 
Q 200 4319 284 4319 
L 3678 4319 
L 3819 3197 
Q 3828 3103 3765 3083 
Q 3703 3063 3663 3138 
L 3575 3288 
Q 3453 3494 3334 3641 
Q 3216 3788 3070 3892 
Q 2925 3997 2729 4064 
Q 2534 4131 2341 4131 
L 1841 4131 
Q 1419 4131 1348 4039 
Q 1278 3947 1278 3813 
L 1278 2225 
L 2116 2228 
Q 2203 2228 2273 2254 
Q 2344 2281 2392 2347 
Q 2441 2413 2473 2541 
Q 2506 2669 2506 2769 
L 2506 2972 
Q 2506 3066 2600 3073 
Q 2694 3081 2694 2972 
L 2694 1344 
Q 2694 1222 2600 1228 
Q 2506 1234 2506 1325 
L 2506 1556 
Q 2506 1650 2484 1750 
Q 2463 1850 2409 1915 
Q 2356 1981 2279 2017 
Q 2203 2053 2106 2053 
L 1278 2053 
L 1278 406 
Q 1278 209 1334 139 
Q 1391 69 1497 41 
Q 1603 13 1797 13 
L 1978 13 
Q 2084 13 2079 -84 
Q 2075 -181 1978 -181 
L 328 -181 
Q 238 -181 233 -84 
Q 228 13 328 13 
L 456 13 
Q 578 13 651 47 
Q 725 81 764 142 
Q 803 203 803 391 
L 803 3709 
Q 803 3841 770 3936 
Q 738 4031 655 4081 
Q 572 4131 441 4131 
L 284 4131 
z
" transform="scale(0.015625)"/>
       <path id="UNAVAILABLE-4c" d="M 3653 -172 
L 309 -172 
Q 228 -172 229 -79 
Q 231 13 328 13 
L 466 13 
Q 572 13 653 48 
Q 734 84 781 142 
Q 828 200 828 381 
L 828 3813 
Q 828 3922 793 3981 
Q 759 4041 681 4081 
Q 603 4122 466 4122 
L 284 4122 
Q 181 4122 181 4214 
Q 181 4306 284 4306 
L 1834 4306 
Q 1925 4306 1939 4214 
Q 1953 4122 1834 4122 
L 1653 4122 
Q 1528 4122 1461 4083 
Q 1394 4044 1353 3978 
Q 1313 3913 1313 3838 
L 1313 381 
Q 1313 247 1378 165 
Q 1444 84 1558 48 
Q 1672 13 1947 13 
L 2391 13 
Q 2609 13 2820 61 
Q 3031 109 3176 221 
Q 3322 334 3415 498 
Q 3509 663 3569 825 
L 3647 1044 
Q 3669 1113 3731 1116 
Q 3794 1119 3788 1044 
L 3653 -172 
z
" transform="scale(0.015625)"/>
       <path id="UNAVAILABLE-2b" d="M 441 1756 
L 441 2081 
L 1834 2078 
L 1834 3550 
L 2200 3550 
L 2200 2081 
L 3625 2081 
L 3625 1756 
L 2200 1756 
L 2200 291 
L 1834 291 
L 1834 1759 
L 441 1756 
z
" transform="scale(0.015625)"/>
       <path id="UNAVAILABLE-7cbe" d="M 4403 4106 
L 5303 4106 
L 5575 4438 
L 5944 4091 
Q 6025 4013 6019 3992 
Q 6013 3972 5906 3972 
L 4403 3972 
L 4403 3375 
L 4991 3375 
L 5266 3663 
L 5609 3334 
Q 5666 3278 5662 3251 
Q 5659 3225 5591 3225 
L 4403 3225 
L 4403 2581 
L 5447 2581 
L 5769 2919 
L 6153 2559 
Q 6238 2478 6231 2454 
Q 6225 2431 6106 2431 
L 3463 2431 
Q 3150 2431 2863 2334 
L 2716 2459 
L 1778 2459 
L 1778 2119 
Q 2294 1834 2450 1662 
Q 2606 1491 2618 1427 
Q 2631 1363 2616 1291 
Q 2594 1191 2509 1087 
Q 2425 984 2366 1013 
Q 2331 1025 2300 1113 
L 2234 1303 
Q 2197 1403 2083 1611 
Q 1969 1819 1878 1900 
L 1778 1991 
L 1778 -228 
L 1816 -931 
Q 1678 -994 1406 -1059 
L 1441 -50 
L 1441 1800 
Q 1147 1247 881 864 
Q 616 481 244 47 
L 166 109 
Q 531 691 678 953 
Q 825 1216 990 1580 
Q 1156 1944 1331 2459 
L 822 2459 
Q 563 2459 347 2369 
L 141 2628 
L 788 2609 
L 1441 2609 
L 1441 4163 
L 1413 4878 
L 1931 4659 
Q 2000 4628 2004 4600 
Q 2009 4572 1938 4538 
L 1781 4459 
L 1778 2822 
Q 2084 3278 2272 3709 
L 2466 4150 
L 2856 3906 
Q 2928 3859 2923 3836 
Q 2919 3813 2834 3794 
L 2716 3766 
Q 2253 3169 1778 2672 
L 1778 2609 
L 2091 2609 
L 2388 2944 
L 2775 2581 
L 4034 2581 
L 4034 3225 
L 3606 3225 
Q 3328 3225 3094 3134 
L 2872 3391 
L 3469 3375 
L 4034 3375 
L 4034 3972 
L 3641 3972 
Q 3309 3972 3084 3884 
L 2894 4122 
L 3353 4106 
L 4034 4106 
L 4034 4459 
L 4003 4894 
L 4528 4709 
Q 4619 4675 4617 4654 
Q 4616 4634 4563 4597 
L 4406 4491 
L 4403 4106 
z
M 438 4128 
L 500 4178 
Q 581 4100 784 3903 
Q 988 3706 1106 3529 
Q 1225 3353 1229 3228 
Q 1234 3103 1159 2968 
Q 1084 2834 993 2840 
Q 903 2847 873 2898 
Q 844 2950 842 3062 
Q 841 3175 806 3354 
Q 772 3534 697 3696 
Q 622 3859 438 4128 
z
M 3047 2153 
L 3434 1928 
L 5059 1928 
L 5272 2209 
L 5638 1978 
Q 5747 1906 5745 1890 
Q 5744 1875 5697 1841 
L 5534 1722 
L 5534 -419 
Q 5534 -556 5503 -651 
Q 5472 -747 5417 -800 
Q 5363 -853 5247 -922 
Q 5131 -991 4966 -1028 
Q 4941 -941 4906 -862 
Q 4872 -784 4761 -709 
Q 4650 -634 4581 -611 
Q 4513 -588 4200 -522 
L 4216 -419 
Q 4619 -484 4947 -478 
Q 5056 -478 5098 -447 
Q 5141 -416 5155 -380 
Q 5169 -344 5169 -131 
L 5169 344 
L 3434 344 
L 3434 -922 
Q 3222 -1016 3038 -1041 
L 3075 -366 
L 3075 1509 
L 3047 2153 
z
M 3434 494 
L 5169 494 
L 5169 1103 
L 3434 1103 
L 3434 494 
z
M 3434 1250 
L 5169 1250 
L 5169 1778 
L 3434 1778 
L 3434 1250 
z
" transform="scale(0.015625)"/>
       <path id="UNAVAILABLE-2c" d="M 553 -1059 
L 553 -928 
Q 622 -884 690 -842 
Q 759 -800 820 -754 
Q 881 -709 945 -631 
Q 1009 -553 1048 -473 
Q 1088 -394 1097 -297 
Q 1106 -200 1069 -141 
L 1006 -38 
Q 906 -72 836 -86 
Q 766 -100 688 -94 
Q 575 -88 519 -44 
Q 463 0 430 79 
Q 397 159 397 247 
Q 397 334 442 415 
Q 488 497 573 544 
Q 659 591 763 600 
Q 894 606 1001 554 
Q 1109 503 1184 411 
Q 1259 319 1307 183 
Q 1356 47 1350 -100 
Q 1344 -184 1320 -282 
Q 1297 -381 1248 -486 
Q 1200 -591 1119 -678 
Q 1038 -766 919 -853 
Q 800 -941 725 -975 
L 553 -1059 
L 553 -1059 
z
" transform="scale(0.015625)"/>
       <path id="UNAVAILABLE-20" transform="scale(0.015625)"/>
       <path id="DejaVuSans-3d" d="M 678 2906 
L 4684 2906 
L 4684 2381 
L 678 2381 
L 678 2906 
z
M 678 1631 
L 4684 1631 
L 4684 1100 
L 678 1100 
L 678 1631 
z
" transform="scale(0.015625)"/>
       <path id="DejaVuSans-30" d="M 2034 4250 
Q 1547 4250 1301 3770 
Q 1056 3291 1056 2328 
Q 1056 1369 1301 889 
Q 1547 409 2034 409 
Q 2525 409 2770 889 
Q 3016 1369 3016 2328 
Q 3016 3291 2770 3770 
Q 2525 4250 2034 4250 
z
M 2034 4750 
Q 2819 4750 3233 4129 
Q 3647 3509 3647 2328 
Q 3647 1150 3233 529 
Q 2819 -91 2034 -91 
Q 1250 -91 836 529 
Q 422 1150 422 2328 
Q 422 3509 836 4129 
Q 1250 4750 2034 4750 
z
" transform="scale(0.015625)"/>
       <path id="DejaVuSans-2e" d="M 684 794 
L 1344 794 
L 1344 0 
L 684 0 
L 684 794 
z
" transform="scale(0.015625)"/>
       <path id="DejaVuSans-39" d="M 703 97 
L 703 672 
Q 941 559 1184 500 
Q 1428 441 1663 441 
Q 2288 441 2617 861 
Q 2947 1281 2994 2138 
Q 2813 1869 2534 1725 
Q 2256 1581 1919 1581 
Q 1219 1581 811 2004 
Q 403 2428 403 3163 
Q 403 3881 828 4315 
Q 1253 4750 1959 4750 
Q 2769 4750 3195 4129 
Q 3622 3509 3622 2328 
Q 3622 1225 3098 567 
Q 2575 -91 1691 -91 
Q 1453 -91 1209 -44 
Q 966 3 703 97 
z
M 1959 2075 
Q 2384 2075 2632 2365 
Q 2881 2656 2881 3163 
Q 2881 3666 2632 3958 
Q 2384 4250 1959 4250 
Q 1534 4250 1286 3958 
Q 1038 3666 1038 3163 
Q 1038 2656 1286 2365 
Q 1534 2075 1959 2075 
z
" transform="scale(0.015625)"/>
       <path id="DejaVuSans-2c" d="M 750 794 
L 1409 794 
L 1409 256 
L 897 -744 
L 494 -744 
L 750 256 
L 750 794 
z
" transform="scale(0.015625)"/>
       <path id="DejaVuSans-72" d="M 2631 2963 
Q 2534 3019 2420 3045 
Q 2306 3072 2169 3072 
Q 1681 3072 1420 2755 
Q 1159 2438 1159 1844 
L 1159 0 
L 581 0 
L 581 3500 
L 1159 3500 
L 1159 2956 
Q 1341 3275 1631 3429 
Q 1922 3584 2338 3584 
Q 2397 3584 2469 3576 
Q 2541 3569 2628 3553 
L 2631 2963 
z
" transform="scale(0.015625)"/>
       <path id="DejaVuSans-61" d="M 2194 1759 
Q 1497 1759 1228 1600 
Q 959 1441 959 1056 
Q 959 750 1161 570 
Q 1363 391 1709 391 
Q 2188 391 2477 730 
Q 2766 1069 2766 1631 
L 2766 1759 
L 2194 1759 
z
M 3341 1997 
L 3341 0 
L 2766 0 
L 2766 531 
Q 2569 213 2275 61 
Q 1981 -91 1556 -91 
Q 1019 -91 701 211 
Q 384 513 384 1019 
Q 384 1609 779 1909 
Q 1175 2209 1959 2209 
L 2766 2209 
L 2766 2266 
Q 2766 2663 2505 2880 
Q 2244 3097 1772 3097 
Q 1472 3097 1187 3025 
Q 903 2953 641 2809 
L 641 3341 
Q 956 3463 1253 3523 
Q 1550 3584 1831 3584 
Q 2591 3584 2966 3190 
Q 3341 2797 3341 1997 
z
" transform="scale(0.015625)"/>
       <path id="DejaVuSans-69" d="M 603 3500 
L 1178 3500 
L 1178 0 
L 603 0 
L 603 3500 
z
M 603 4863 
L 1178 4863 
L 1178 4134 
L 603 4134 
L 603 4863 
z
" transform="scale(0.015625)"/>
       <path id="DejaVuSans-6e" d="M 3513 2113 
L 3513 0 
L 2938 0 
L 2938 2094 
Q 2938 2591 2744 2837 
Q 2550 3084 2163 3084 
Q 1697 3084 1428 2787 
Q 1159 2491 1159 1978 
L 1159 0 
L 581 0 
L 581 3500 
L 1159 3500 
L 1159 2956 
Q 1366 3272 1645 3428 
Q 1925 3584 2291 3584 
Q 2894 3584 3203 3211 
Q 3513 2838 3513 2113 
z
" transform="scale(0.015625)"/>
       <path id="DejaVuSans-32" d="M 1228 531 
L 3431 531 
L 3431 0 
L 469 0 
L 469 531 
Q 828 903 1448 1529 
Q 2069 2156 2228 2338 
Q 2531 2678 2651 2914 
Q 2772 3150 2772 3378 
Q 2772 3750 2511 3984 
Q 2250 4219 1831 4219 
Q 1534 4219 1204 4116 
Q 875 4013 500 3803 
L 500 4441 
Q 881 4594 1212 4672 
Q 1544 4750 1819 4750 
Q 2544 4750 2975 4387 
Q 3406 4025 3406 3419 
Q 3406 3131 3298 2873 
Q 3191 2616 2906 2266 
Q 2828 2175 2409 1742 
Q 1991 1309 1228 531 
z
" transform="scale(0.015625)"/>
      </defs>
      <use xlink:href="#UNAVAILABLE-46" transform="translate(0 0.171875)"/>
      <use xlink:href="#UNAVAILABLE-4c" transform="translate(63.623047 0.171875)"/>
      <use xlink:href="#UNAVAILABLE-2b" transform="translate(125.976562 0.171875)"/>
      <use xlink:href="#UNAVAILABLE-7cbe" transform="translate(189.013672 0.171875)"/>
      <use xlink:href="#UNAVAILABLE-786e" transform="translate(289.013672 0.171875)"/>
      <use xlink:href="#UNAVAILABLE-2c" transform="translate(389.013672 0.171875)"/>
      <use xlink:href="#UNAVAILABLE-20" transform="translate(416.308594 0.171875)"/>
      <use xlink:href="#DejaVuSans-52" transform="translate(466.308594 0.171875)"/>
      <use xlink:href="#DejaVuSans-3d" transform="translate(555.273438 0.171875)"/>
      <use xlink:href="#DejaVuSans-30" transform="translate(658.544922 0.171875)"/>
      <use xlink:href="#DejaVuSans-2e" transform="translate(722.167969 0.171875)"/>
      <use xlink:href="#DejaVuSans-39" transform="translate(753.955078 0.171875)"/>
      <use xlink:href="#DejaVuSans-2c" transform="translate(817.578125 0.171875)"/>
      <use xlink:href="#DejaVuSans-53" transform="translate(868.847656 0.171875)"/>
      <use xlink:href="#DejaVuSans-4e" transform="translate(932.324219 0.171875)"/>
      <use xlink:href="#DejaVuSans-52" transform="translate(1003.503906 0.171875)"/>
      <use xlink:href="#DejaVuSans-74" transform="translate(1073.943359 -16.234375)scale(0.7)"/>
      <use xlink:href="#DejaVuSans-72" transform="translate(1101.389648 -16.234375)scale(0.7)"/>
      <use xlink:href="#DejaVuSans-61" transform="translate(1130.168945 -16.234375)scale(0.7)"/>
      <use xlink:href="#DejaVuSans-69" transform="translate(1173.064453 -16.234375)scale(0.7)"/>
      <use xlink:href="#DejaVuSans-6e" transform="translate(1192.512695 -16.234375)scale(0.7)"/>
      <use xlink:href="#DejaVuSans-3d" transform="translate(1259.094727 0.171875)"/>
      <use xlink:href="#DejaVuSans-32" transform="translate(1362.366211 0.171875)"/>
      <use xlink:href="#DejaVuSans-30" transform="translate(1425.989258 0.171875)"/>
      <use xlink:href="#DejaVuSans-28" transform="translate(1489.612305 0.171875)"/>
      <use xlink:href="#DejaVuSans-64" transform="translate(1528.625977 0.171875)"/>
      <use xlink:href="#DejaVuSans-42" transform="translate(1592.102539 0.171875)"/>
      <use xlink:href="#DejaVuSans-29" transform="translate(1660.706055 0.171875)"/>
     </g>
    </g>
    <g id="line2d_32">
     <path d="M 211.99976 400.78476 
L 236.99976 400.78476 
L 261.99976 400.78476 
" style="fill: none; stroke-dasharray: 3,4.95; stroke-dashoffset: 0; stroke: #0000ff; stroke-width: 3"/>
     <g>
      <use xlink:href="#m284ba57614" x="236.99976" y="400.78476" style="fill: #ffffff; stroke: #0000ff; stroke-linejoin: bevel"/>
     </g>
    </g>
    <g id="text_12">
     <!-- FL+量化, $\mathrm{R}=0.9,\mathrm{SNR}_\mathrm{train}=20\mathrm{(dB)}$ -->
     <g transform="translate(281.99976 409.53476)scale(0.25 -0.25)">
      <defs>
       <path id="UNAVAILABLE-91cf" d="M 103 2738 
L 572 2722 
L 5309 2722 
L 5666 3072 
L 6072 2722 
Q 6159 2644 6142 2614 
Q 6125 2584 6084 2584 
L 816 2584 
Q 578 2584 341 2503 
L 103 2738 
z
M 291 -538 
L 678 -550 
L 2997 -550 
L 2997 3 
L 1406 3 
Q 1231 3 1047 -81 
L 738 166 
L 1169 147 
L 2997 147 
L 2997 734 
L 1709 734 
L 1709 534 
Q 1659 503 1634 494 
L 1525 466 
L 1431 428 
L 1294 394 
L 1338 1041 
L 1338 1816 
L 1309 2394 
L 1797 2147 
L 4550 2147 
L 4750 2403 
L 5134 2147 
Q 5197 2103 5200 2089 
Q 5203 2075 5134 2019 
L 4994 1903 
L 4994 1016 
L 5025 666 
Q 4850 538 4600 481 
L 4600 734 
L 3375 734 
L 3375 147 
L 4716 147 
L 4994 450 
L 5309 166 
Q 5422 59 5409 31 
Q 5397 3 5328 3 
L 3375 3 
L 3375 -550 
L 5163 -550 
L 5497 -213 
L 5853 -550 
Q 5966 -659 5953 -675 
Q 5941 -691 5878 -691 
L 844 -691 
Q 819 -691 698 -719 
Q 578 -747 522 -766 
L 291 -538 
z
M 1709 875 
L 2997 875 
L 2997 1381 
L 1709 1381 
L 1709 875 
z
M 1709 1519 
L 2997 1519 
L 2997 2006 
L 1709 2006 
L 1709 1519 
z
M 3375 875 
L 4600 875 
L 4600 1381 
L 3375 1381 
L 3375 875 
z
M 3375 1519 
L 4600 1519 
L 4600 2006 
L 3375 2006 
L 3375 1519 
z
M 1447 4725 
L 1894 4469 
L 4497 4469 
L 4691 4725 
L 5078 4491 
Q 5150 4444 5151 4417 
Q 5153 4391 5078 4334 
L 4928 4219 
L 4928 3547 
L 4966 3047 
Q 4766 2956 4725 2953 
L 4550 2922 
L 4550 3134 
L 1859 3134 
L 1859 2997 
Q 1769 2953 1720 2936 
Q 1672 2919 1447 2875 
L 1478 3459 
L 1478 4266 
L 1447 4725 
z
M 1859 3275 
L 4550 3275 
L 4550 3747 
L 1859 3747 
L 1859 3275 
z
M 1859 3891 
L 4550 3891 
L 4550 4325 
L 1859 4325 
L 1859 3891 
z
" transform="scale(0.015625)"/>
       <path id="UNAVAILABLE-5316" d="M 225 1538 
Q 469 1850 586 2014 
Q 703 2178 1034 2711 
Q 1366 3244 1558 3705 
Q 1750 4166 1836 4400 
Q 1922 4634 1941 4713 
L 1981 4875 
L 2547 4544 
Q 2569 4528 2566 4490 
Q 2563 4453 2525 4444 
L 2313 4381 
L 1694 3244 
L 2006 3069 
Q 2041 3047 2037 3023 
Q 2034 3000 1981 2959 
L 1841 2847 
L 1841 -194 
L 1866 -781 
Q 1772 -838 1441 -978 
L 1481 -63 
L 1481 2903 
Q 1097 2353 878 2093 
Q 659 1834 297 1469 
L 225 1538 
z
M 2013 647 
Q 2203 772 2300 838 
L 2728 1116 
Q 3066 1338 3384 1591 
L 3384 3925 
L 3334 4859 
L 3928 4559 
Q 3994 4525 3997 4494 
Q 4000 4463 3928 4419 
L 3738 4297 
L 3741 1900 
Q 4284 2434 4479 2631 
Q 4675 2828 4881 3072 
Q 5088 3316 5303 3628 
L 5738 3156 
Q 5778 3106 5768 3082 
Q 5759 3059 5722 3063 
L 5494 3075 
Q 4809 2431 4481 2142 
Q 4153 1853 3738 1519 
L 3741 144 
Q 3741 -166 3780 -250 
Q 3819 -334 3900 -366 
Q 3928 -378 4251 -389 
Q 4575 -400 4778 -397 
Q 5438 -394 5513 -317 
Q 5588 -241 5614 -148 
Q 5641 -56 5652 53 
Q 5663 163 5759 991 
L 5850 991 
Q 5853 694 5856 476 
Q 5859 259 5906 136 
Q 5953 13 6012 -43 
Q 6072 -100 6234 -181 
Q 6159 -328 6045 -490 
Q 5931 -653 5682 -709 
Q 5434 -766 4648 -767 
Q 3863 -769 3678 -705 
Q 3494 -641 3439 -525 
Q 3384 -409 3384 -194 
L 3384 1284 
Q 2622 834 2066 559 
L 2013 647 
z
" transform="scale(0.015625)"/>
      </defs>
      <use xlink:href="#UNAVAILABLE-46" transform="translate(0 0.828125)"/>
      <use xlink:href="#UNAVAILABLE-4c" transform="translate(63.623047 0.828125)"/>
      <use xlink:href="#UNAVAILABLE-2b" transform="translate(125.976562 0.828125)"/>
      <use xlink:href="#UNAVAILABLE-91cf" transform="translate(189.013672 0.828125)"/>
      <use xlink:href="#UNAVAILABLE-5316" transform="translate(289.013672 0.828125)"/>
      <use xlink:href="#UNAVAILABLE-2c" transform="translate(389.013672 0.828125)"/>
      <use xlink:href="#UNAVAILABLE-20" transform="translate(416.308594 0.828125)"/>
      <use xlink:href="#DejaVuSans-52" transform="translate(466.308594 0.828125)"/>
      <use xlink:href="#DejaVuSans-3d" transform="translate(555.273438 0.828125)"/>
      <use xlink:href="#DejaVuSans-30" transform="translate(658.544922 0.828125)"/>
      <use xlink:href="#DejaVuSans-2e" transform="translate(722.167969 0.828125)"/>
      <use xlink:href="#DejaVuSans-39" transform="translate(753.955078 0.828125)"/>
      <use xlink:href="#DejaVuSans-2c" transform="translate(817.578125 0.828125)"/>
      <use xlink:href="#DejaVuSans-53" transform="translate(868.847656 0.828125)"/>
      <use xlink:href="#DejaVuSans-4e" transform="translate(932.324219 0.828125)"/>
      <use xlink:href="#DejaVuSans-52" transform="translate(1003.503906 0.828125)"/>
      <use xlink:href="#DejaVuSans-74" transform="translate(1073.943359 -15.578125)scale(0.7)"/>
      <use xlink:href="#DejaVuSans-72" transform="translate(1101.389648 -15.578125)scale(0.7)"/>
      <use xlink:href="#DejaVuSans-61" transform="translate(1130.168945 -15.578125)scale(0.7)"/>
      <use xlink:href="#DejaVuSans-69" transform="translate(1173.064453 -15.578125)scale(0.7)"/>
      <use xlink:href="#DejaVuSans-6e" transform="translate(1192.512695 -15.578125)scale(0.7)"/>
      <use xlink:href="#DejaVuSans-3d" transform="translate(1259.094727 0.828125)"/>
      <use xlink:href="#DejaVuSans-32" transform="translate(1362.366211 0.828125)"/>
      <use xlink:href="#DejaVuSans-30" transform="translate(1425.989258 0.828125)"/>
      <use xlink:href="#DejaVuSans-28" transform="translate(1489.612305 0.828125)"/>
      <use xlink:href="#DejaVuSans-64" transform="translate(1528.625977 0.828125)"/>
      <use xlink:href="#DejaVuSans-42" transform="translate(1592.102539 0.828125)"/>
      <use xlink:href="#DejaVuSans-29" transform="translate(1660.706055 0.828125)"/>
     </g>
    </g>
    <g id="line2d_33">
     <path d="M 211.99976 429.78476 
L 236.99976 429.78476 
L 261.99976 429.78476 
" style="fill: none; stroke: #ff0000; stroke-width: 3; stroke-linecap: square"/>
     <g>
      <use xlink:href="#m066703bfb7" x="236.99976" y="429.78476" style="fill: #ffffff; stroke: #ff0000"/>
     </g>
    </g>
    <g id="text_13">
     <!-- FL+精确, $\mathrm{R}=0.5,\mathrm{SNR}_\mathrm{train}=10\mathrm{(dB)}$ -->
     <g transform="translate(281.99976 438.53476)scale(0.25 -0.25)">
      <defs>
       <path id="DejaVuSans-35" d="M 691 4666 
L 3169 4666 
L 3169 4134 
L 1269 4134 
L 1269 2991 
Q 1406 3038 1543 3061 
Q 1681 3084 1819 3084 
Q 2600 3084 3056 2656 
Q 3513 2228 3513 1497 
Q 3513 744 3044 326 
Q 2575 -91 1722 -91 
Q 1428 -91 1123 -41 
Q 819 9 494 109 
L 494 744 
Q 775 591 1075 516 
Q 1375 441 1709 441 
Q 2250 441 2565 725 
Q 2881 1009 2881 1497 
Q 2881 1984 2565 2268 
Q 2250 2553 1709 2553 
Q 1456 2553 1204 2497 
Q 953 2441 691 2322 
L 691 4666 
z
" transform="scale(0.015625)"/>
       <path id="DejaVuSans-31" d="M 794 531 
L 1825 531 
L 1825 4091 
L 703 3866 
L 703 4441 
L 1819 4666 
L 2450 4666 
L 2450 531 
L 3481 531 
L 3481 0 
L 794 0 
L 794 531 
z
" transform="scale(0.015625)"/>
      </defs>
      <use xlink:href="#UNAVAILABLE-46" transform="translate(0 0.171875)"/>
      <use xlink:href="#UNAVAILABLE-4c" transform="translate(63.623047 0.171875)"/>
      <use xlink:href="#UNAVAILABLE-2b" transform="translate(125.976562 0.171875)"/>
      <use xlink:href="#UNAVAILABLE-7cbe" transform="translate(189.013672 0.171875)"/>
      <use xlink:href="#UNAVAILABLE-786e" transform="translate(289.013672 0.171875)"/>
      <use xlink:href="#UNAVAILABLE-2c" transform="translate(389.013672 0.171875)"/>
      <use xlink:href="#UNAVAILABLE-20" transform="translate(416.308594 0.171875)"/>
      <use xlink:href="#DejaVuSans-52" transform="translate(466.308594 0.171875)"/>
      <use xlink:href="#DejaVuSans-3d" transform="translate(555.273438 0.171875)"/>
      <use xlink:href="#DejaVuSans-30" transform="translate(658.544922 0.171875)"/>
      <use xlink:href="#DejaVuSans-2e" transform="translate(722.167969 0.171875)"/>
      <use xlink:href="#DejaVuSans-35" transform="translate(753.955078 0.171875)"/>
      <use xlink:href="#DejaVuSans-2c" transform="translate(817.578125 0.171875)"/>
      <use xlink:href="#DejaVuSans-53" transform="translate(868.847656 0.171875)"/>
      <use xlink:href="#DejaVuSans-4e" transform="translate(932.324219 0.171875)"/>
      <use xlink:href="#DejaVuSans-52" transform="translate(1003.503906 0.171875)"/>
      <use xlink:href="#DejaVuSans-74" transform="translate(1073.943359 -16.234375)scale(0.7)"/>
      <use xlink:href="#DejaVuSans-72" transform="translate(1101.389648 -16.234375)scale(0.7)"/>
      <use xlink:href="#DejaVuSans-61" transform="translate(1130.168945 -16.234375)scale(0.7)"/>
      <use xlink:href="#DejaVuSans-69" transform="translate(1173.064453 -16.234375)scale(0.7)"/>
      <use xlink:href="#DejaVuSans-6e" transform="translate(1192.512695 -16.234375)scale(0.7)"/>
      <use xlink:href="#DejaVuSans-3d" transform="translate(1259.094727 0.171875)"/>
      <use xlink:href="#DejaVuSans-31" transform="translate(1362.366211 0.171875)"/>
      <use xlink:href="#DejaVuSans-30" transform="translate(1425.989258 0.171875)"/>
      <use xlink:href="#DejaVuSans-28" transform="translate(1489.612305 0.171875)"/>
      <use xlink:href="#DejaVuSans-64" transform="translate(1528.625977 0.171875)"/>
      <use xlink:href="#DejaVuSans-42" transform="translate(1592.102539 0.171875)"/>
      <use xlink:href="#DejaVuSans-29" transform="translate(1660.706055 0.171875)"/>
     </g>
    </g>
    <g id="line2d_34">
     <path d="M 211.99976 458.53476 
L 236.99976 458.53476 
L 261.99976 458.53476 
" style="fill: none; stroke-dasharray: 3,4.95; stroke-dashoffset: 0; stroke: #ff0000; stroke-width: 3"/>
     <g>
      <use xlink:href="#ma67e1f4d38" x="236.99976" y="458.53476" style="fill: #ffffff; stroke: #ff0000; stroke-linejoin: bevel"/>
     </g>
    </g>
    <g id="text_14">
     <!-- FL+量化, $\mathrm{R}=0.5,\mathrm{SNR}_\mathrm{train}=10\mathrm{(dB)}$ -->
     <g transform="translate(281.99976 467.28476)scale(0.25 -0.25)">
      <use xlink:href="#UNAVAILABLE-46" transform="translate(0 0.828125)"/>
      <use xlink:href="#UNAVAILABLE-4c" transform="translate(63.623047 0.828125)"/>
      <use xlink:href="#UNAVAILABLE-2b" transform="translate(125.976562 0.828125)"/>
      <use xlink:href="#UNAVAILABLE-91cf" transform="translate(189.013672 0.828125)"/>
      <use xlink:href="#UNAVAILABLE-5316" transform="translate(289.013672 0.828125)"/>
      <use xlink:href="#UNAVAILABLE-2c" transform="translate(389.013672 0.828125)"/>
      <use xlink:href="#UNAVAILABLE-20" transform="translate(416.308594 0.828125)"/>
      <use xlink:href="#DejaVuSans-52" transform="translate(466.308594 0.828125)"/>
      <use xlink:href="#DejaVuSans-3d" transform="translate(555.273438 0.828125)"/>
      <use xlink:href="#DejaVuSans-30" transform="translate(658.544922 0.828125)"/>
      <use xlink:href="#DejaVuSans-2e" transform="translate(722.167969 0.828125)"/>
      <use xlink:href="#DejaVuSans-35" transform="translate(753.955078 0.828125)"/>
      <use xlink:href="#DejaVuSans-2c" transform="translate(817.578125 0.828125)"/>
      <use xlink:href="#DejaVuSans-53" transform="translate(868.847656 0.828125)"/>
      <use xlink:href="#DejaVuSans-4e" transform="translate(932.324219 0.828125)"/>
      <use xlink:href="#DejaVuSans-52" transform="translate(1003.503906 0.828125)"/>
      <use xlink:href="#DejaVuSans-74" transform="translate(1073.943359 -15.578125)scale(0.7)"/>
      <use xlink:href="#DejaVuSans-72" transform="translate(1101.389648 -15.578125)scale(0.7)"/>
      <use xlink:href="#DejaVuSans-61" transform="translate(1130.168945 -15.578125)scale(0.7)"/>
      <use xlink:href="#DejaVuSans-69" transform="translate(1173.064453 -15.578125)scale(0.7)"/>
      <use xlink:href="#DejaVuSans-6e" transform="translate(1192.512695 -15.578125)scale(0.7)"/>
      <use xlink:href="#DejaVuSans-3d" transform="translate(1259.094727 0.828125)"/>
      <use xlink:href="#DejaVuSans-31" transform="translate(1362.366211 0.828125)"/>
      <use xlink:href="#DejaVuSans-30" transform="translate(1425.989258 0.828125)"/>
      <use xlink:href="#DejaVuSans-28" transform="translate(1489.612305 0.828125)"/>
      <use xlink:href="#DejaVuSans-64" transform="translate(1528.625977 0.828125)"/>
      <use xlink:href="#DejaVuSans-42" transform="translate(1592.102539 0.828125)"/>
      <use xlink:href="#DejaVuSans-29" transform="translate(1660.706055 0.828125)"/>
     </g>
    </g>
    <g id="line2d_35">
     <path d="M 211.99976 487.53476 
L 236.99976 487.53476 
L 261.99976 487.53476 
" style="fill: none; stroke: #000000; stroke-width: 3; stroke-linecap: square"/>
     <g>
      <use xlink:href="#mc8c1c8e279" x="236.99976" y="487.53476" style="fill: #ffffff; stroke: #000000"/>
     </g>
    </g>
    <g id="text_15">
     <!-- FL+精确, $\mathrm{R}=0.2,\mathrm{SNR}_\mathrm{train}=2\mathrm{(dB)}$ -->
     <g transform="translate(281.99976 496.28476)scale(0.25 -0.25)">
      <use xlink:href="#UNAVAILABLE-46" transform="translate(0 0.171875)"/>
      <use xlink:href="#UNAVAILABLE-4c" transform="translate(63.623047 0.171875)"/>
      <use xlink:href="#UNAVAILABLE-2b" transform="translate(125.976562 0.171875)"/>
      <use xlink:href="#UNAVAILABLE-7cbe" transform="translate(189.013672 0.171875)"/>
      <use xlink:href="#UNAVAILABLE-786e" transform="translate(289.013672 0.171875)"/>
      <use xlink:href="#UNAVAILABLE-2c" transform="translate(389.013672 0.171875)"/>
      <use xlink:href="#UNAVAILABLE-20" transform="translate(416.308594 0.171875)"/>
      <use xlink:href="#DejaVuSans-52" transform="translate(466.308594 0.171875)"/>
      <use xlink:href="#DejaVuSans-3d" transform="translate(555.273438 0.171875)"/>
      <use xlink:href="#DejaVuSans-30" transform="translate(658.544922 0.171875)"/>
      <use xlink:href="#DejaVuSans-2e" transform="translate(722.167969 0.171875)"/>
      <use xlink:href="#DejaVuSans-32" transform="translate(748.455078 0.171875)"/>
      <use xlink:href="#DejaVuSans-2c" transform="translate(812.078125 0.171875)"/>
      <use xlink:href="#DejaVuSans-53" transform="translate(863.347656 0.171875)"/>
      <use xlink:href="#DejaVuSans-4e" transform="translate(926.824219 0.171875)"/>
      <use xlink:href="#DejaVuSans-52" transform="translate(998.003906 0.171875)"/>
      <use xlink:href="#DejaVuSans-74" transform="translate(1068.443359 -16.234375)scale(0.7)"/>
      <use xlink:href="#DejaVuSans-72" transform="translate(1095.889648 -16.234375)scale(0.7)"/>
      <use xlink:href="#DejaVuSans-61" transform="translate(1124.668945 -16.234375)scale(0.7)"/>
      <use xlink:href="#DejaVuSans-69" transform="translate(1167.564453 -16.234375)scale(0.7)"/>
      <use xlink:href="#DejaVuSans-6e" transform="translate(1187.012695 -16.234375)scale(0.7)"/>
      <use xlink:href="#DejaVuSans-3d" transform="translate(1253.594727 0.171875)"/>
      <use xlink:href="#DejaVuSans-32" transform="translate(1356.866211 0.171875)"/>
      <use xlink:href="#DejaVuSans-28" transform="translate(1420.489258 0.171875)"/>
      <use xlink:href="#DejaVuSans-64" transform="translate(1459.50293 0.171875)"/>
      <use xlink:href="#DejaVuSans-42" transform="translate(1522.979492 0.171875)"/>
      <use xlink:href="#DejaVuSans-29" transform="translate(1591.583008 0.171875)"/>
     </g>
    </g>
    <g id="line2d_36">
     <path d="M 211.99976 516.28476 
L 236.99976 516.28476 
L 261.99976 516.28476 
" style="fill: none; stroke-dasharray: 3,4.95; stroke-dashoffset: 0; stroke: #000000; stroke-width: 3"/>
     <g>
      <use xlink:href="#m1e9efb9296" x="236.99976" y="516.28476" style="fill: #ffffff; stroke: #000000; stroke-linejoin: bevel"/>
     </g>
    </g>
    <g id="text_16">
     <!-- FL+量化, $\mathrm{R}=0.2,\mathrm{SNR}_\mathrm{train}=2\mathrm{(dB)}$ -->
     <g transform="translate(281.99976 525.03476)scale(0.25 -0.25)">
      <use xlink:href="#UNAVAILABLE-46" transform="translate(0 0.828125)"/>
      <use xlink:href="#UNAVAILABLE-4c" transform="translate(63.623047 0.828125)"/>
      <use xlink:href="#UNAVAILABLE-2b" transform="translate(125.976562 0.828125)"/>
      <use xlink:href="#UNAVAILABLE-91cf" transform="translate(189.013672 0.828125)"/>
      <use xlink:href="#UNAVAILABLE-5316" transform="translate(289.013672 0.828125)"/>
      <use xlink:href="#UNAVAILABLE-2c" transform="translate(389.013672 0.828125)"/>
      <use xlink:href="#UNAVAILABLE-20" transform="translate(416.308594 0.828125)"/>
      <use xlink:href="#DejaVuSans-52" transform="translate(466.308594 0.828125)"/>
      <use xlink:href="#DejaVuSans-3d" transform="translate(555.273438 0.828125)"/>
      <use xlink:href="#DejaVuSans-30" transform="translate(658.544922 0.828125)"/>
      <use xlink:href="#DejaVuSans-2e" transform="translate(722.167969 0.828125)"/>
      <use xlink:href="#DejaVuSans-32" transform="translate(748.455078 0.828125)"/>
      <use xlink:href="#DejaVuSans-2c" transform="translate(812.078125 0.828125)"/>
      <use xlink:href="#DejaVuSans-53" transform="translate(863.347656 0.828125)"/>
      <use xlink:href="#DejaVuSans-4e" transform="translate(926.824219 0.828125)"/>
      <use xlink:href="#DejaVuSans-52" transform="translate(998.003906 0.828125)"/>
      <use xlink:href="#DejaVuSans-74" transform="translate(1068.443359 -15.578125)scale(0.7)"/>
      <use xlink:href="#DejaVuSans-72" transform="translate(1095.889648 -15.578125)scale(0.7)"/>
      <use xlink:href="#DejaVuSans-61" transform="translate(1124.668945 -15.578125)scale(0.7)"/>
      <use xlink:href="#DejaVuSans-69" transform="translate(1167.564453 -15.578125)scale(0.7)"/>
      <use xlink:href="#DejaVuSans-6e" transform="translate(1187.012695 -15.578125)scale(0.7)"/>
      <use xlink:href="#DejaVuSans-3d" transform="translate(1253.594727 0.828125)"/>
      <use xlink:href="#DejaVuSans-32" transform="translate(1356.866211 0.828125)"/>
      <use xlink:href="#DejaVuSans-28" transform="translate(1420.489258 0.828125)"/>
      <use xlink:href="#DejaVuSans-64" transform="translate(1459.50293 0.828125)"/>
      <use xlink:href="#DejaVuSans-42" transform="translate(1522.979492 0.828125)"/>
      <use xlink:href="#DejaVuSans-29" transform="translate(1591.583008 0.828125)"/>
     </g>
    </g>
   </g>
  </g>
  <g id="text_17">
   <!-- non-IID MNIST,  AutoEncoder -->
   <g transform="translate(171.972656 23.83149)scale(0.3 -0.3)">
    <defs>
     <path id="TimesNewRomanPSMT-6e" d="M 1034 2341 
Q 1538 2947 1994 2947 
Q 2228 2947 2397 2830 
Q 2566 2713 2666 2444 
Q 2734 2256 2734 1869 
L 2734 647 
Q 2734 375 2778 278 
Q 2813 200 2889 156 
Q 2966 113 3172 113 
L 3172 0 
L 1756 0 
L 1756 113 
L 1816 113 
Q 2016 113 2095 173 
Q 2175 234 2206 353 
Q 2219 400 2219 647 
L 2219 1819 
Q 2219 2209 2117 2386 
Q 2016 2563 1775 2563 
Q 1403 2563 1034 2156 
L 1034 647 
Q 1034 356 1069 288 
Q 1113 197 1189 155 
Q 1266 113 1500 113 
L 1500 0 
L 84 0 
L 84 113 
L 147 113 
Q 366 113 442 223 
Q 519 334 519 647 
L 519 1709 
Q 519 2225 495 2337 
Q 472 2450 423 2490 
Q 375 2531 294 2531 
Q 206 2531 84 2484 
L 38 2597 
L 900 2947 
L 1034 2947 
L 1034 2341 
z
" transform="scale(0.015625)"/>
     <path id="TimesNewRomanPSMT-6f" d="M 1600 2947 
Q 2250 2947 2644 2453 
Q 2978 2031 2978 1484 
Q 2978 1100 2793 706 
Q 2609 313 2286 112 
Q 1963 -88 1566 -88 
Q 919 -88 538 428 
Q 216 863 216 1403 
Q 216 1797 411 2186 
Q 606 2575 925 2761 
Q 1244 2947 1600 2947 
z
M 1503 2744 
Q 1338 2744 1170 2645 
Q 1003 2547 900 2300 
Q 797 2053 797 1666 
Q 797 1041 1045 587 
Q 1294 134 1700 134 
Q 2003 134 2200 384 
Q 2397 634 2397 1244 
Q 2397 2006 2069 2444 
Q 1847 2744 1503 2744 
z
" transform="scale(0.015625)"/>
     <path id="TimesNewRomanPSMT-2d" d="M 259 1672 
L 1875 1672 
L 1875 1200 
L 259 1200 
L 259 1672 
z
" transform="scale(0.015625)"/>
     <path id="TimesNewRomanPSMT-49" d="M 1975 116 
L 1975 0 
L 159 0 
L 159 116 
L 309 116 
Q 572 116 691 269 
Q 766 369 766 750 
L 766 3488 
Q 766 3809 725 3913 
Q 694 3991 597 4047 
Q 459 4122 309 4122 
L 159 4122 
L 159 4238 
L 1975 4238 
L 1975 4122 
L 1822 4122 
Q 1563 4122 1444 3969 
Q 1366 3869 1366 3488 
L 1366 750 
Q 1366 428 1406 325 
Q 1438 247 1538 191 
Q 1672 116 1822 116 
L 1975 116 
z
" transform="scale(0.015625)"/>
     <path id="TimesNewRomanPSMT-44" d="M 109 0 
L 109 116 
L 269 116 
Q 538 116 650 288 
Q 719 391 719 750 
L 719 3488 
Q 719 3884 631 3984 
Q 509 4122 269 4122 
L 109 4122 
L 109 4238 
L 1834 4238 
Q 2784 4238 3279 4022 
Q 3775 3806 4076 3303 
Q 4378 2800 4378 2141 
Q 4378 1256 3841 663 
Q 3238 0 2003 0 
L 109 0 
z
M 1319 306 
Q 1716 219 1984 219 
Q 2709 219 3187 728 
Q 3666 1238 3666 2109 
Q 3666 2988 3187 3494 
Q 2709 4000 1959 4000 
Q 1678 4000 1319 3909 
L 1319 306 
z
" transform="scale(0.015625)"/>
     <path id="TimesNewRomanPSMT-20" transform="scale(0.015625)"/>
     <path id="TimesNewRomanPSMT-4d" d="M 2619 0 
L 981 3566 
L 981 734 
Q 981 344 1066 247 
Q 1181 116 1431 116 
L 1581 116 
L 1581 0 
L 106 0 
L 106 116 
L 256 116 
Q 525 116 638 278 
Q 706 378 706 734 
L 706 3503 
Q 706 3784 644 3909 
Q 600 4000 483 4061 
Q 366 4122 106 4122 
L 106 4238 
L 1306 4238 
L 2844 922 
L 4356 4238 
L 5556 4238 
L 5556 4122 
L 5409 4122 
Q 5138 4122 5025 3959 
Q 4956 3859 4956 3503 
L 4956 734 
Q 4956 344 5044 247 
Q 5159 116 5409 116 
L 5556 116 
L 5556 0 
L 3756 0 
L 3756 116 
L 3906 116 
Q 4178 116 4288 278 
Q 4356 378 4356 734 
L 4356 3566 
L 2722 0 
L 2619 0 
z
" transform="scale(0.015625)"/>
     <path id="TimesNewRomanPSMT-4e" d="M -84 4238 
L 1066 4238 
L 3656 1059 
L 3656 3503 
Q 3656 3894 3569 3991 
Q 3453 4122 3203 4122 
L 3056 4122 
L 3056 4238 
L 4531 4238 
L 4531 4122 
L 4381 4122 
Q 4113 4122 4000 3959 
Q 3931 3859 3931 3503 
L 3931 -69 
L 3819 -69 
L 1025 3344 
L 1025 734 
Q 1025 344 1109 247 
Q 1228 116 1475 116 
L 1625 116 
L 1625 0 
L 150 0 
L 150 116 
L 297 116 
Q 569 116 681 278 
Q 750 378 750 734 
L 750 3681 
Q 566 3897 470 3965 
Q 375 4034 191 4094 
Q 100 4122 -84 4122 
L -84 4238 
z
" transform="scale(0.015625)"/>
     <path id="TimesNewRomanPSMT-53" d="M 2934 4334 
L 2934 2869 
L 2819 2869 
Q 2763 3291 2617 3541 
Q 2472 3791 2203 3937 
Q 1934 4084 1647 4084 
Q 1322 4084 1109 3886 
Q 897 3688 897 3434 
Q 897 3241 1031 3081 
Q 1225 2847 1953 2456 
Q 2547 2138 2764 1967 
Q 2981 1797 3098 1565 
Q 3216 1334 3216 1081 
Q 3216 600 2842 251 
Q 2469 -97 1881 -97 
Q 1697 -97 1534 -69 
Q 1438 -53 1133 45 
Q 828 144 747 144 
Q 669 144 623 97 
Q 578 50 556 -97 
L 441 -97 
L 441 1356 
L 556 1356 
Q 638 900 775 673 
Q 913 447 1195 297 
Q 1478 147 1816 147 
Q 2206 147 2432 353 
Q 2659 559 2659 841 
Q 2659 997 2573 1156 
Q 2488 1316 2306 1453 
Q 2184 1547 1640 1851 
Q 1097 2156 867 2337 
Q 638 2519 519 2737 
Q 400 2956 400 3219 
Q 400 3675 750 4004 
Q 1100 4334 1641 4334 
Q 1978 4334 2356 4169 
Q 2531 4091 2603 4091 
Q 2684 4091 2736 4139 
Q 2788 4188 2819 4334 
L 2934 4334 
z
" transform="scale(0.015625)"/>
     <path id="TimesNewRomanPSMT-54" d="M 3703 4238 
L 3750 3244 
L 3631 3244 
Q 3597 3506 3538 3619 
Q 3441 3800 3280 3886 
Q 3119 3972 2856 3972 
L 2259 3972 
L 2259 734 
Q 2259 344 2344 247 
Q 2463 116 2709 116 
L 2856 116 
L 2856 0 
L 1059 0 
L 1059 116 
L 1209 116 
Q 1478 116 1591 278 
Q 1659 378 1659 734 
L 1659 3972 
L 1150 3972 
Q 853 3972 728 3928 
Q 566 3869 450 3700 
Q 334 3531 313 3244 
L 194 3244 
L 244 4238 
L 3703 4238 
z
" transform="scale(0.015625)"/>
     <path id="TimesNewRomanPSMT-2c" d="M 344 -1066 
L 344 -928 
Q 666 -822 842 -598 
Q 1019 -375 1019 -125 
Q 1019 -66 991 -25 
Q 969 3 947 3 
Q 913 3 797 -59 
Q 741 -88 678 -88 
Q 525 -88 434 3 
Q 344 94 344 253 
Q 344 406 461 515 
Q 578 625 747 625 
Q 953 625 1114 445 
Q 1275 266 1275 -31 
Q 1275 -353 1051 -629 
Q 828 -906 344 -1066 
z
" transform="scale(0.015625)"/>
     <path id="TimesNewRomanPSMT-41" d="M 2928 1419 
L 1288 1419 
L 1000 750 
Q 894 503 894 381 
Q 894 284 986 211 
Q 1078 138 1384 116 
L 1384 0 
L 50 0 
L 50 116 
Q 316 163 394 238 
Q 553 388 747 847 
L 2238 4334 
L 2347 4334 
L 3822 809 
Q 4000 384 4145 257 
Q 4291 131 4550 116 
L 4550 0 
L 2878 0 
L 2878 116 
Q 3131 128 3220 200 
Q 3309 272 3309 375 
Q 3309 513 3184 809 
L 2928 1419 
z
M 2841 1650 
L 2122 3363 
L 1384 1650 
L 2841 1650 
z
" transform="scale(0.015625)"/>
     <path id="TimesNewRomanPSMT-75" d="M 2709 2863 
L 2709 1128 
Q 2709 631 2732 520 
Q 2756 409 2807 365 
Q 2859 322 2928 322 
Q 3025 322 3147 375 
L 3191 266 
L 2334 -88 
L 2194 -88 
L 2194 519 
Q 1825 119 1631 15 
Q 1438 -88 1222 -88 
Q 981 -88 804 51 
Q 628 191 559 409 
Q 491 628 491 1028 
L 491 2306 
Q 491 2509 447 2587 
Q 403 2666 317 2708 
Q 231 2750 6 2747 
L 6 2863 
L 1009 2863 
L 1009 947 
Q 1009 547 1148 422 
Q 1288 297 1484 297 
Q 1619 297 1789 381 
Q 1959 466 2194 703 
L 2194 2325 
Q 2194 2569 2105 2655 
Q 2016 2741 1734 2747 
L 1734 2863 
L 2709 2863 
z
" transform="scale(0.015625)"/>
     <path id="TimesNewRomanPSMT-74" d="M 1031 3803 
L 1031 2863 
L 1700 2863 
L 1700 2644 
L 1031 2644 
L 1031 788 
Q 1031 509 1111 412 
Q 1191 316 1316 316 
Q 1419 316 1516 380 
Q 1613 444 1666 569 
L 1788 569 
Q 1678 263 1478 108 
Q 1278 -47 1066 -47 
Q 922 -47 784 33 
Q 647 113 581 261 
Q 516 409 516 719 
L 516 2644 
L 63 2644 
L 63 2747 
Q 234 2816 414 2980 
Q 594 3144 734 3369 
Q 806 3488 934 3803 
L 1031 3803 
z
" transform="scale(0.015625)"/>
     <path id="TimesNewRomanPSMT-45" d="M 1338 4006 
L 1338 2331 
L 2269 2331 
Q 2631 2331 2753 2441 
Q 2916 2584 2934 2947 
L 3050 2947 
L 3050 1472 
L 2934 1472 
Q 2891 1781 2847 1869 
Q 2791 1978 2662 2040 
Q 2534 2103 2269 2103 
L 1338 2103 
L 1338 706 
Q 1338 425 1363 364 
Q 1388 303 1450 267 
Q 1513 231 1688 231 
L 2406 231 
Q 2766 231 2928 281 
Q 3091 331 3241 478 
Q 3434 672 3638 1063 
L 3763 1063 
L 3397 0 
L 131 0 
L 131 116 
L 281 116 
Q 431 116 566 188 
Q 666 238 702 338 
Q 738 438 738 747 
L 738 3500 
Q 738 3903 656 3997 
Q 544 4122 281 4122 
L 131 4122 
L 131 4238 
L 3397 4238 
L 3444 3309 
L 3322 3309 
Q 3256 3644 3176 3769 
Q 3097 3894 2941 3959 
Q 2816 4006 2500 4006 
L 1338 4006 
z
" transform="scale(0.015625)"/>
     <path id="TimesNewRomanPSMT-63" d="M 2631 1088 
Q 2516 522 2178 217 
Q 1841 -88 1431 -88 
Q 944 -88 581 321 
Q 219 731 219 1428 
Q 219 2103 620 2525 
Q 1022 2947 1584 2947 
Q 2006 2947 2278 2723 
Q 2550 2500 2550 2259 
Q 2550 2141 2473 2067 
Q 2397 1994 2259 1994 
Q 2075 1994 1981 2113 
Q 1928 2178 1911 2362 
Q 1894 2547 1784 2644 
Q 1675 2738 1481 2738 
Q 1169 2738 978 2506 
Q 725 2200 725 1697 
Q 725 1184 976 792 
Q 1228 400 1656 400 
Q 1963 400 2206 609 
Q 2378 753 2541 1131 
L 2631 1088 
z
" transform="scale(0.015625)"/>
     <path id="TimesNewRomanPSMT-64" d="M 2222 322 
Q 2013 103 1813 7 
Q 1613 -88 1381 -88 
Q 913 -88 563 304 
Q 213 697 213 1313 
Q 213 1928 600 2439 
Q 988 2950 1597 2950 
Q 1975 2950 2222 2709 
L 2222 3238 
Q 2222 3728 2198 3840 
Q 2175 3953 2125 3993 
Q 2075 4034 2000 4034 
Q 1919 4034 1784 3984 
L 1744 4094 
L 2597 4444 
L 2738 4444 
L 2738 1134 
Q 2738 631 2761 520 
Q 2784 409 2836 365 
Q 2888 322 2956 322 
Q 3041 322 3181 375 
L 3216 266 
L 2366 -88 
L 2222 -88 
L 2222 322 
z
M 2222 541 
L 2222 2016 
Q 2203 2228 2109 2403 
Q 2016 2578 1861 2667 
Q 1706 2756 1559 2756 
Q 1284 2756 1069 2509 
Q 784 2184 784 1559 
Q 784 928 1059 592 
Q 1334 256 1672 256 
Q 1956 256 2222 541 
z
" transform="scale(0.015625)"/>
     <path id="TimesNewRomanPSMT-65" d="M 681 1784 
Q 678 1147 991 784 
Q 1303 422 1725 422 
Q 2006 422 2214 576 
Q 2422 731 2563 1106 
L 2659 1044 
Q 2594 616 2278 264 
Q 1963 -88 1488 -88 
Q 972 -88 605 314 
Q 238 716 238 1394 
Q 238 2128 614 2539 
Q 991 2950 1559 2950 
Q 2041 2950 2350 2633 
Q 2659 2316 2659 1784 
L 681 1784 
z
M 681 1966 
L 2006 1966 
Q 1991 2241 1941 2353 
Q 1863 2528 1708 2628 
Q 1553 2728 1384 2728 
Q 1125 2728 920 2526 
Q 716 2325 681 1966 
z
" transform="scale(0.015625)"/>
     <path id="TimesNewRomanPSMT-72" d="M 1038 2947 
L 1038 2303 
Q 1397 2947 1775 2947 
Q 1947 2947 2059 2842 
Q 2172 2738 2172 2600 
Q 2172 2478 2090 2393 
Q 2009 2309 1897 2309 
Q 1788 2309 1652 2417 
Q 1516 2525 1450 2525 
Q 1394 2525 1328 2463 
Q 1188 2334 1038 2041 
L 1038 669 
Q 1038 431 1097 309 
Q 1138 225 1241 169 
Q 1344 113 1538 113 
L 1538 0 
L 72 0 
L 72 113 
Q 291 113 397 181 
Q 475 231 506 341 
Q 522 394 522 644 
L 522 1753 
Q 522 2253 501 2348 
Q 481 2444 426 2487 
Q 372 2531 291 2531 
Q 194 2531 72 2484 
L 41 2597 
L 906 2947 
L 1038 2947 
z
" transform="scale(0.015625)"/>
    </defs>
    <use xlink:href="#TimesNewRomanPSMT-6e"/>
    <use xlink:href="#TimesNewRomanPSMT-6f" x="50"/>
    <use xlink:href="#TimesNewRomanPSMT-6e" x="100"/>
    <use xlink:href="#TimesNewRomanPSMT-2d" x="150"/>
    <use xlink:href="#TimesNewRomanPSMT-49" x="183.300781"/>
    <use xlink:href="#TimesNewRomanPSMT-49" x="216.601562"/>
    <use xlink:href="#TimesNewRomanPSMT-44" x="249.902344"/>
    <use xlink:href="#TimesNewRomanPSMT-20" x="322.119141"/>
    <use xlink:href="#TimesNewRomanPSMT-4d" x="347.119141"/>
    <use xlink:href="#TimesNewRomanPSMT-4e" x="436.035156"/>
    <use xlink:href="#TimesNewRomanPSMT-49" x="508.251953"/>
    <use xlink:href="#TimesNewRomanPSMT-53" x="541.552734"/>
    <use xlink:href="#TimesNewRomanPSMT-54" x="597.167969"/>
    <use xlink:href="#TimesNewRomanPSMT-2c" x="650.876953"/>
    <use xlink:href="#TimesNewRomanPSMT-20" x="675.876953"/>
    <use xlink:href="#TimesNewRomanPSMT-20" x="700.876953"/>
    <use xlink:href="#TimesNewRomanPSMT-41" x="720.376953"/>
    <use xlink:href="#TimesNewRomanPSMT-75" x="792.59375"/>
    <use xlink:href="#TimesNewRomanPSMT-74" x="842.59375"/>
    <use xlink:href="#TimesNewRomanPSMT-6f" x="870.376953"/>
    <use xlink:href="#TimesNewRomanPSMT-45" x="920.376953"/>
    <use xlink:href="#TimesNewRomanPSMT-6e" x="981.460938"/>
    <use xlink:href="#TimesNewRomanPSMT-63" x="1031.460938"/>
    <use xlink:href="#TimesNewRomanPSMT-6f" x="1075.845703"/>
    <use xlink:href="#TimesNewRomanPSMT-64" x="1125.845703"/>
    <use xlink:href="#TimesNewRomanPSMT-65" x="1175.845703"/>
    <use xlink:href="#TimesNewRomanPSMT-72" x="1220.230469"/>
   </g>
  </g>
 </g>
 <defs>
  <clipPath id="p9e8424bafa">
   <rect x="99.908834" y="36.249158" width="617.090926" height="503.285602"/>
  </clipPath>
 </defs>
</svg>
