<?xml version="1.0" encoding="utf-8" standalone="no"?>
<!DOCTYPE svg PUBLIC "-//W3C//DTD SVG 1.1//EN"
  "http://www.w3.org/Graphics/SVG/1.1/DTD/svg11.dtd">
<svg xmlns:xlink="http://www.w3.org/1999/xlink" width="720pt" height="612pt" viewBox="0 0 720 612" xmlns="http://www.w3.org/2000/svg" version="1.1">
 <metadata>
  <rdf:RDF xmlns:dc="http://purl.org/dc/elements/1.1/" xmlns:cc="http://creativecommons.org/ns#" xmlns:rdf="http://www.w3.org/1999/02/22-rdf-syntax-ns#">
   <cc:Work>
    <dc:type rdf:resource="http://purl.org/dc/dcmitype/StillImage"/>
    <dc:date>2023-12-03T13:49:51.050093</dc:date>
    <dc:format>image/svg+xml</dc:format>
    <dc:creator>
     <cc:Agent>
      <dc:title>Matplotlib v3.5.2, https://matplotlib.org/</dc:title>
     </cc:Agent>
    </dc:creator>
   </cc:Work>
  </rdf:RDF>
 </metadata>
 <defs>
  <style type="text/css">*{stroke-linejoin: round; stroke-linecap: butt}</style>
 </defs>
 <g id="figure_1">
  <g id="patch_1">
   <path d="M 0 612 
L 720 612 
L 720 0 
L 0 0 
z
" style="fill: #ffffff"/>
  </g>
  <g id="axes_1">
   <g id="patch_2">
    <path d="M 83.908834 539.638666 
L 692.99976 539.638666 
L 692.99976 36.249158 
L 83.908834 36.249158 
z
" style="fill: #ffffff"/>
   </g>
   <g id="matplotlib.axis_1">
    <g id="xtick_1">
     <g id="line2d_1">
      <path d="M 139.280736 539.638666 
L 139.280736 36.249158 
" clip-path="url(#pe0edf790b3)" style="fill: none; stroke-dasharray: 2.5,5; stroke-dashoffset: 0; stroke: #b0b0b0; stroke-width: 0.5"/>
     </g>
     <g id="line2d_2">
      <defs>
       <path id="mafac8d2a30" d="M 0 0 
L 0 -3.5 
" style="stroke: #000000; stroke-width: 2"/>
      </defs>
      <g>
       <use xlink:href="#mafac8d2a30" x="139.280736" y="539.638666" style="stroke: #000000; stroke-width: 2"/>
      </g>
     </g>
     <g id="line2d_3">
      <defs>
       <path id="m10b5a6c80c" d="M 0 0 
L 0 3.5 
" style="stroke: #000000; stroke-width: 2"/>
      </defs>
      <g>
       <use xlink:href="#m10b5a6c80c" x="139.280736" y="36.249158" style="stroke: #000000; stroke-width: 2"/>
      </g>
     </g>
     <g id="text_1">
      <!-- 0 -->
      <g transform="translate(131.280736 565.358666)scale(0.32 -0.32)">
       <defs>
        <path id="TimesNewRomanPSMT-30" d="M 231 2094 
Q 231 2819 450 3342 
Q 669 3866 1031 4122 
Q 1313 4325 1613 4325 
Q 2100 4325 2488 3828 
Q 2972 3213 2972 2159 
Q 2972 1422 2759 906 
Q 2547 391 2217 158 
Q 1888 -75 1581 -75 
Q 975 -75 572 641 
Q 231 1244 231 2094 
z
M 844 2016 
Q 844 1141 1059 588 
Q 1238 122 1591 122 
Q 1759 122 1940 273 
Q 2122 425 2216 781 
Q 2359 1319 2359 2297 
Q 2359 3022 2209 3506 
Q 2097 3866 1919 4016 
Q 1791 4119 1609 4119 
Q 1397 4119 1231 3928 
Q 1006 3669 925 3112 
Q 844 2556 844 2016 
z
" transform="scale(0.015625)"/>
       </defs>
       <use xlink:href="#TimesNewRomanPSMT-30"/>
      </g>
     </g>
    </g>
    <g id="xtick_2">
     <g id="line2d_4">
      <path d="M 250.024541 539.638666 
L 250.024541 36.249158 
" clip-path="url(#pe0edf790b3)" style="fill: none; stroke-dasharray: 2.5,5; stroke-dashoffset: 0; stroke: #b0b0b0; stroke-width: 0.5"/>
     </g>
     <g id="line2d_5">
      <g>
       <use xlink:href="#mafac8d2a30" x="250.024541" y="539.638666" style="stroke: #000000; stroke-width: 2"/>
      </g>
     </g>
     <g id="line2d_6">
      <g>
       <use xlink:href="#m10b5a6c80c" x="250.024541" y="36.249158" style="stroke: #000000; stroke-width: 2"/>
      </g>
     </g>
     <g id="text_2">
      <!-- 20 -->
      <g transform="translate(234.024541 565.358666)scale(0.32 -0.32)">
       <defs>
        <path id="TimesNewRomanPSMT-32" d="M 2934 816 
L 2638 0 
L 138 0 
L 138 116 
Q 1241 1122 1691 1759 
Q 2141 2397 2141 2925 
Q 2141 3328 1894 3587 
Q 1647 3847 1303 3847 
Q 991 3847 742 3664 
Q 494 3481 375 3128 
L 259 3128 
Q 338 3706 661 4015 
Q 984 4325 1469 4325 
Q 1984 4325 2329 3994 
Q 2675 3663 2675 3213 
Q 2675 2891 2525 2569 
Q 2294 2063 1775 1497 
Q 997 647 803 472 
L 1909 472 
Q 2247 472 2383 497 
Q 2519 522 2628 598 
Q 2738 675 2819 816 
L 2934 816 
z
" transform="scale(0.015625)"/>
       </defs>
       <use xlink:href="#TimesNewRomanPSMT-32"/>
       <use xlink:href="#TimesNewRomanPSMT-30" x="50"/>
      </g>
     </g>
    </g>
    <g id="xtick_3">
     <g id="line2d_7">
      <path d="M 360.768346 539.638666 
L 360.768346 36.249158 
" clip-path="url(#pe0edf790b3)" style="fill: none; stroke-dasharray: 2.5,5; stroke-dashoffset: 0; stroke: #b0b0b0; stroke-width: 0.5"/>
     </g>
     <g id="line2d_8">
      <g>
       <use xlink:href="#mafac8d2a30" x="360.768346" y="539.638666" style="stroke: #000000; stroke-width: 2"/>
      </g>
     </g>
     <g id="line2d_9">
      <g>
       <use xlink:href="#m10b5a6c80c" x="360.768346" y="36.249158" style="stroke: #000000; stroke-width: 2"/>
      </g>
     </g>
     <g id="text_3">
      <!-- 40 -->
      <g transform="translate(344.768346 565.358666)scale(0.32 -0.32)">
       <defs>
        <path id="TimesNewRomanPSMT-34" d="M 2978 1563 
L 2978 1119 
L 2409 1119 
L 2409 0 
L 1894 0 
L 1894 1119 
L 100 1119 
L 100 1519 
L 2066 4325 
L 2409 4325 
L 2409 1563 
L 2978 1563 
z
M 1894 1563 
L 1894 3666 
L 406 1563 
L 1894 1563 
z
" transform="scale(0.015625)"/>
       </defs>
       <use xlink:href="#TimesNewRomanPSMT-34"/>
       <use xlink:href="#TimesNewRomanPSMT-30" x="50"/>
      </g>
     </g>
    </g>
    <g id="xtick_4">
     <g id="line2d_10">
      <path d="M 471.51215 539.638666 
L 471.51215 36.249158 
" clip-path="url(#pe0edf790b3)" style="fill: none; stroke-dasharray: 2.5,5; stroke-dashoffset: 0; stroke: #b0b0b0; stroke-width: 0.5"/>
     </g>
     <g id="line2d_11">
      <g>
       <use xlink:href="#mafac8d2a30" x="471.51215" y="539.638666" style="stroke: #000000; stroke-width: 2"/>
      </g>
     </g>
     <g id="line2d_12">
      <g>
       <use xlink:href="#m10b5a6c80c" x="471.51215" y="36.249158" style="stroke: #000000; stroke-width: 2"/>
      </g>
     </g>
     <g id="text_4">
      <!-- 60 -->
      <g transform="translate(455.51215 565.358666)scale(0.32 -0.32)">
       <defs>
        <path id="TimesNewRomanPSMT-36" d="M 2869 4325 
L 2869 4209 
Q 2456 4169 2195 4045 
Q 1934 3922 1679 3669 
Q 1425 3416 1258 3105 
Q 1091 2794 978 2366 
Q 1428 2675 1881 2675 
Q 2316 2675 2634 2325 
Q 2953 1975 2953 1425 
Q 2953 894 2631 456 
Q 2244 -75 1606 -75 
Q 1172 -75 869 213 
Q 275 772 275 1663 
Q 275 2231 503 2743 
Q 731 3256 1154 3653 
Q 1578 4050 1965 4187 
Q 2353 4325 2688 4325 
L 2869 4325 
z
M 925 2138 
Q 869 1716 869 1456 
Q 869 1156 980 804 
Q 1091 453 1309 247 
Q 1469 100 1697 100 
Q 1969 100 2183 356 
Q 2397 613 2397 1088 
Q 2397 1622 2184 2012 
Q 1972 2403 1581 2403 
Q 1463 2403 1327 2353 
Q 1191 2303 925 2138 
z
" transform="scale(0.015625)"/>
       </defs>
       <use xlink:href="#TimesNewRomanPSMT-36"/>
       <use xlink:href="#TimesNewRomanPSMT-30" x="50"/>
      </g>
     </g>
    </g>
    <g id="xtick_5">
     <g id="line2d_13">
      <path d="M 582.255955 539.638666 
L 582.255955 36.249158 
" clip-path="url(#pe0edf790b3)" style="fill: none; stroke-dasharray: 2.5,5; stroke-dashoffset: 0; stroke: #b0b0b0; stroke-width: 0.5"/>
     </g>
     <g id="line2d_14">
      <g>
       <use xlink:href="#mafac8d2a30" x="582.255955" y="539.638666" style="stroke: #000000; stroke-width: 2"/>
      </g>
     </g>
     <g id="line2d_15">
      <g>
       <use xlink:href="#m10b5a6c80c" x="582.255955" y="36.249158" style="stroke: #000000; stroke-width: 2"/>
      </g>
     </g>
     <g id="text_5">
      <!-- 80 -->
      <g transform="translate(566.255955 565.358666)scale(0.32 -0.32)">
       <defs>
        <path id="TimesNewRomanPSMT-38" d="M 1228 2134 
Q 725 2547 579 2797 
Q 434 3047 434 3316 
Q 434 3728 753 4026 
Q 1072 4325 1600 4325 
Q 2113 4325 2425 4047 
Q 2738 3769 2738 3413 
Q 2738 3175 2569 2928 
Q 2400 2681 1866 2347 
Q 2416 1922 2594 1678 
Q 2831 1359 2831 1006 
Q 2831 559 2490 242 
Q 2150 -75 1597 -75 
Q 994 -75 656 303 
Q 388 606 388 966 
Q 388 1247 577 1523 
Q 766 1800 1228 2134 
z
M 1719 2469 
Q 2094 2806 2194 3001 
Q 2294 3197 2294 3444 
Q 2294 3772 2109 3958 
Q 1925 4144 1606 4144 
Q 1288 4144 1088 3959 
Q 888 3775 888 3528 
Q 888 3366 970 3203 
Q 1053 3041 1206 2894 
L 1719 2469 
z
M 1375 2016 
Q 1116 1797 991 1539 
Q 866 1281 866 981 
Q 866 578 1086 336 
Q 1306 94 1647 94 
Q 1984 94 2187 284 
Q 2391 475 2391 747 
Q 2391 972 2272 1150 
Q 2050 1481 1375 2016 
z
" transform="scale(0.015625)"/>
       </defs>
       <use xlink:href="#TimesNewRomanPSMT-38"/>
       <use xlink:href="#TimesNewRomanPSMT-30" x="50"/>
      </g>
     </g>
    </g>
    <g id="xtick_6">
     <g id="line2d_16">
      <path d="M 692.99976 539.638666 
L 692.99976 36.249158 
" clip-path="url(#pe0edf790b3)" style="fill: none; stroke-dasharray: 2.5,5; stroke-dashoffset: 0; stroke: #b0b0b0; stroke-width: 0.5"/>
     </g>
     <g id="line2d_17">
      <g>
       <use xlink:href="#mafac8d2a30" x="692.99976" y="539.638666" style="stroke: #000000; stroke-width: 2"/>
      </g>
     </g>
     <g id="line2d_18">
      <g>
       <use xlink:href="#m10b5a6c80c" x="692.99976" y="36.249158" style="stroke: #000000; stroke-width: 2"/>
      </g>
     </g>
     <g id="text_6">
      <!-- 100 -->
      <g transform="translate(668.99976 565.358666)scale(0.32 -0.32)">
       <defs>
        <path id="TimesNewRomanPSMT-31" d="M 750 3822 
L 1781 4325 
L 1884 4325 
L 1884 747 
Q 1884 391 1914 303 
Q 1944 216 2037 169 
Q 2131 122 2419 116 
L 2419 0 
L 825 0 
L 825 116 
Q 1125 122 1212 167 
Q 1300 213 1334 289 
Q 1369 366 1369 747 
L 1369 3034 
Q 1369 3497 1338 3628 
Q 1316 3728 1258 3775 
Q 1200 3822 1119 3822 
Q 1003 3822 797 3725 
L 750 3822 
z
" transform="scale(0.015625)"/>
       </defs>
       <use xlink:href="#TimesNewRomanPSMT-31"/>
       <use xlink:href="#TimesNewRomanPSMT-30" x="50"/>
       <use xlink:href="#TimesNewRomanPSMT-30" x="100"/>
      </g>
     </g>
    </g>
    <g id="text_7">
     <!-- 通信轮数 -->
     <g transform="translate(318.454297 602.984135)scale(0.35 -0.35)">
      <defs>
       <path id="UNAVAILABLE-901a" d="M 200 2306 
L 591 2284 
L 1144 2284 
L 1356 2569 
L 1744 2278 
Q 1806 2228 1807 2203 
Q 1809 2178 1753 2134 
L 1575 1997 
L 1575 194 
Q 1672 72 1920 -93 
Q 2169 -259 2353 -328 
Q 2538 -397 2813 -433 
Q 3088 -469 4080 -433 
Q 5072 -397 5345 -362 
Q 5619 -328 6153 -250 
L 6153 -344 
Q 5856 -425 5787 -509 
Q 5719 -594 5613 -834 
Q 5131 -828 4118 -812 
Q 3106 -797 2743 -756 
Q 2381 -716 2189 -586 
Q 1997 -456 1775 -254 
Q 1553 -53 1426 12 
Q 1300 78 1181 -3 
Q 1063 -84 894 -281 
Q 725 -478 691 -531 
L 516 -791 
L 238 -344 
Q 384 -250 706 -75 
Q 1028 100 1209 178 
L 1209 2134 
L 928 2134 
Q 622 2134 478 2038 
L 200 2306 
z
M 672 4378 
L 713 4438 
Q 888 4369 970 4330 
Q 1053 4291 1256 4173 
Q 1459 4056 1584 3936 
Q 1709 3816 1711 3636 
Q 1713 3456 1608 3354 
Q 1503 3253 1445 3254 
Q 1388 3256 1361 3281 
Q 1334 3306 1322 3366 
L 1291 3494 
Q 1241 3684 1127 3886 
Q 1013 4088 903 4178 
L 672 4378 
L 672 4378 
z
M 2122 4469 
L 2625 4453 
L 4816 4453 
L 5125 4688 
L 5547 4291 
Q 5591 4247 5577 4217 
Q 5563 4188 5506 4181 
Q 5450 4175 5295 4165 
Q 5141 4156 4920 4079 
Q 4700 4003 4056 3591 
Q 4069 3513 4066 3427 
Q 4063 3341 3958 3255 
Q 3853 3169 3778 3275 
Q 3581 3678 3456 3763 
L 3119 4013 
L 3156 4078 
Q 3731 3897 3869 3800 
L 4000 3709 
Q 4366 4019 4719 4309 
L 2975 4306 
Q 2941 4303 2812 4290 
Q 2684 4278 2609 4265 
Q 2534 4253 2409 4203 
L 2122 4469 
z
M 2356 3488 
L 2778 3213 
L 4997 3213 
L 5209 3509 
L 5591 3241 
Q 5647 3197 5645 3176 
Q 5644 3156 5603 3125 
L 5441 2997 
L 5441 272 
Q 5441 128 5397 61 
Q 5353 -6 5233 -84 
Q 5113 -163 4903 -222 
Q 4884 -125 4850 -33 
Q 4816 59 4712 123 
Q 4609 188 4416 272 
L 4434 359 
Q 4850 284 4939 281 
Q 5028 278 5058 304 
Q 5088 331 5088 409 
L 5088 1191 
L 4056 1191 
L 4056 769 
L 4091 194 
Q 3981 122 3697 0 
L 3734 856 
L 3734 1191 
L 2716 1191 
L 2719 447 
L 2734 38 
Q 2550 -88 2341 -153 
L 2384 700 
L 2384 2884 
L 2356 3488 
z
M 2716 1338 
L 3734 1338 
L 3734 2159 
L 2716 2159 
L 2716 1338 
z
M 2716 2306 
L 3734 2306 
L 3734 3063 
L 2716 3063 
L 2716 2306 
z
M 4056 1338 
L 5088 1338 
L 5088 2159 
L 4056 2159 
L 4056 1338 
z
M 4056 2306 
L 5088 2306 
L 5088 3063 
L 4056 3063 
L 4056 2306 
z
" transform="scale(0.015625)"/>
       <path id="UNAVAILABLE-4fe1" d="M 194 1638 
Q 247 1716 450 1984 
Q 653 2253 918 2748 
Q 1184 3244 1323 3553 
Q 1463 3863 1581 4200 
Q 1700 4538 1725 4634 
L 1794 4891 
L 2322 4597 
Q 2388 4556 2391 4534 
Q 2394 4513 2328 4494 
L 2153 4441 
Q 2025 4209 1966 4097 
L 1681 3559 
L 1491 3213 
L 1756 3084 
Q 1816 3053 1814 3028 
Q 1813 3003 1756 2975 
L 1581 2888 
L 1581 -97 
L 1609 -794 
Q 1459 -906 1407 -936 
Q 1356 -966 1159 -1022 
L 1203 -6 
L 1203 2716 
Q 994 2403 908 2295 
Q 822 2188 587 1923 
Q 353 1659 244 1588 
L 194 1638 
z
M 2103 3806 
L 2663 3781 
L 3934 3781 
Q 3897 3813 3884 3834 
Q 3872 3856 3863 3906 
L 3825 4178 
Q 3794 4359 3726 4473 
Q 3659 4588 3463 4822 
L 3500 4872 
Q 3794 4716 3986 4578 
Q 4178 4441 4237 4314 
Q 4297 4188 4290 4069 
Q 4284 3950 4231 3900 
L 4125 3781 
L 5438 3781 
L 5766 4169 
L 6184 3763 
Q 6263 3684 6250 3661 
Q 6238 3638 6138 3638 
L 2903 3638 
Q 2566 3638 2306 3550 
L 2103 3806 
z
M 2416 2900 
L 2888 2881 
L 4953 2881 
L 5259 3213 
L 5634 2850 
Q 5719 2766 5708 2750 
Q 5697 2734 5634 2734 
L 3241 2734 
Q 2938 2734 2647 2634 
L 2416 2900 
z
M 2697 1709 
L 2466 1984 
L 3038 1963 
L 4941 1963 
L 5228 2284 
L 5659 1919 
Q 5713 1872 5695 1845 
Q 5678 1819 5634 1819 
L 3359 1819 
Q 3272 1819 3075 1792 
Q 2878 1766 2697 1709 
z
M 3134 1081 
L 4900 1081 
L 5128 1366 
L 5519 1081 
Q 5581 1031 5582 1009 
Q 5584 988 5513 941 
L 5344 831 
L 5344 -216 
L 5384 -797 
Q 5306 -859 5259 -884 
Q 5213 -909 4953 -981 
L 4953 -359 
L 3050 -359 
L 3050 -841 
Q 2916 -988 2647 -1019 
L 2678 -253 
L 2678 869 
L 2647 1369 
L 3134 1081 
z
M 3050 -213 
L 4953 -213 
L 4953 938 
L 3050 938 
L 3050 -213 
z
" transform="scale(0.015625)"/>
       <path id="UNAVAILABLE-8f6e" d="M 413 3756 
L 747 3747 
L 1325 3747 
Q 1469 4216 1491 4303 
L 1650 4956 
L 2128 4644 
Q 2197 4597 2195 4570 
Q 2194 4544 2100 4519 
L 1922 4469 
Q 1797 4128 1659 3747 
L 2356 3747 
L 2694 4128 
L 3113 3722 
Q 3178 3653 3168 3623 
Q 3159 3594 3056 3594 
L 1606 3594 
L 1106 2228 
L 1756 2228 
L 1756 2606 
L 1731 3122 
L 2256 2913 
Q 2334 2878 2339 2859 
Q 2344 2841 2272 2788 
L 2116 2669 
L 2116 2228 
L 2309 2228 
L 2563 2559 
L 2734 2409 
Q 3006 2803 3200 3129 
Q 3394 3456 3544 3781 
Q 3694 4106 3781 4351 
Q 3869 4597 3906 4794 
L 3938 4956 
L 4375 4700 
Q 4466 4644 4458 4623 
Q 4450 4603 4409 4588 
L 4300 4538 
L 4253 4459 
Q 4484 4066 4701 3784 
Q 4919 3503 5166 3298 
Q 5413 3094 5594 3001 
Q 5775 2909 6188 2806 
L 6188 2722 
Q 5953 2731 5850 2684 
Q 5747 2638 5725 2603 
L 5613 2453 
Q 5425 2575 5170 2765 
Q 4916 2956 4706 3289 
Q 4497 3622 4426 3759 
Q 4356 3897 4181 4303 
Q 4050 4028 3920 3792 
Q 3791 3556 3503 3164 
Q 3216 2772 3116 2672 
L 2797 2341 
L 2934 2213 
Q 3013 2138 3006 2109 
Q 3000 2081 2863 2081 
L 2116 2081 
L 2116 1109 
L 3000 1347 
L 3022 1256 
L 2116 903 
L 2116 -197 
L 2156 -797 
Q 1984 -913 1716 -1000 
L 1756 -59 
L 1756 784 
Q 1025 491 728 281 
L 441 763 
Q 1006 834 1166 875 
L 1756 1016 
L 1756 2081 
L 1091 2081 
L 878 1891 
L 566 2266 
L 838 2422 
Q 884 2506 906 2553 
L 1006 2834 
L 1275 3594 
L 1034 3594 
Q 875 3594 831 3566 
L 694 3494 
L 413 3756 
z
M 3319 2553 
L 3841 2322 
Q 3925 2281 3928 2261 
Q 3931 2241 3875 2203 
L 3688 2081 
L 3688 1041 
Q 3925 1197 4095 1325 
Q 4266 1453 4525 1712 
Q 4784 1972 4981 2269 
L 5347 1856 
Q 5391 1803 5384 1781 
Q 5378 1759 5313 1759 
L 5153 1753 
Q 4688 1431 4284 1219 
L 3688 900 
L 3688 -234 
Q 3688 -356 3767 -412 
Q 3847 -469 4522 -453 
Q 5022 -444 5109 -366 
Q 5197 -288 5236 -159 
Q 5275 -31 5309 228 
L 5350 547 
L 5388 869 
L 5488 869 
Q 5463 506 5464 350 
Q 5466 194 5489 9 
Q 5513 -175 5591 -213 
L 5766 -331 
Q 5734 -400 5657 -528 
Q 5581 -656 5378 -715 
Q 5175 -775 4997 -784 
Q 4819 -794 4516 -795 
Q 4213 -797 4056 -797 
Q 3522 -806 3433 -673 
Q 3344 -541 3344 -363 
L 3344 1903 
L 3319 2553 
z
" transform="scale(0.015625)"/>
       <path id="UNAVAILABLE-6570" d="M 194 -950 
Q 525 -822 711 -731 
Q 897 -641 1205 -441 
Q 1513 -241 1644 -88 
L 1869 156 
Q 1772 225 1678 281 
Q 1584 338 972 578 
Q 1153 863 1188 928 
L 1356 1250 
L 928 1234 
Q 669 1222 613 1181 
L 528 1125 
L 319 1372 
L 1422 1384 
Q 1513 1597 1525 1638 
L 1622 1950 
L 2094 1734 
Q 2106 1725 2101 1708 
Q 2097 1691 2063 1672 
L 1950 1613 
L 1828 1400 
L 2478 1422 
L 2694 1700 
L 3066 1397 
Q 3163 1316 3161 1289 
Q 3159 1263 3066 1216 
L 2897 1131 
Q 2647 638 2550 503 
L 2375 250 
Q 2553 159 2720 78 
Q 2888 -3 2939 -100 
Q 2991 -197 2988 -309 
Q 2981 -406 2932 -507 
Q 2884 -609 2839 -617 
Q 2794 -625 2697 -513 
Q 2509 -300 2478 -272 
L 2172 -3 
Q 1997 -172 1784 -350 
Q 1572 -528 1220 -689 
Q 869 -850 231 -1038 
L 194 -950 
z
M 1372 625 
L 2069 384 
Q 2175 550 2262 703 
Q 2350 856 2531 1291 
L 1741 1269 
L 1372 625 
z
M 219 1734 
Q 347 1838 437 1920 
Q 528 2003 739 2247 
Q 950 2491 1076 2659 
Q 1203 2828 1453 3238 
L 878 3238 
Q 744 3238 553 3166 
L 328 3397 
L 772 3381 
L 1778 3384 
L 1778 4306 
L 1744 4925 
L 2284 4709 
Q 2356 4678 2359 4645 
Q 2363 4613 2291 4584 
L 2125 4516 
L 2128 3384 
L 2884 3381 
L 3153 3694 
L 3478 3347 
Q 3534 3281 3525 3259 
Q 3516 3238 3431 3238 
L 2125 3238 
L 2125 3000 
Q 2806 2800 2954 2656 
Q 3103 2513 3126 2388 
Q 3150 2263 3059 2170 
Q 2969 2078 2912 2125 
Q 2856 2172 2728 2364 
Q 2600 2556 2463 2641 
L 2125 2859 
L 2125 2438 
L 2150 2097 
Q 2097 2059 2055 2036 
Q 2013 2013 1750 1928 
L 1778 2416 
L 1778 3097 
Q 1459 2697 1132 2376 
Q 806 2056 688 1969 
L 288 1659 
L 219 1734 
z
M 619 4450 
L 647 4503 
Q 853 4394 992 4317 
Q 1131 4241 1236 4144 
Q 1341 4047 1380 3887 
Q 1419 3728 1291 3598 
Q 1163 3469 1069 3641 
L 978 3959 
Q 928 4109 844 4200 
L 619 4450 
L 619 4450 
z
M 2938 4678 
L 3309 4356 
Q 3369 4303 3364 4290 
Q 3359 4278 3341 4269 
L 3181 4263 
Q 3134 4253 3059 4178 
L 2547 3656 
L 2403 3525 
Q 2381 3503 2373 3501 
Q 2366 3500 2348 3517 
Q 2331 3534 2329 3539 
Q 2328 3544 2347 3572 
L 2688 4134 
Q 2734 4213 2815 4389 
Q 2897 4566 2903 4611 
Q 2909 4656 2916 4659 
L 2938 4678 
L 2938 4678 
z
M 2359 -959 
Q 2722 -803 3009 -651 
Q 3297 -500 3578 -267 
Q 3859 -34 3982 103 
Q 4106 241 4369 597 
Q 4244 922 4166 1170 
Q 4088 1419 4022 1753 
Q 3956 2088 3919 2397 
L 3847 2934 
Q 3716 2638 3597 2403 
Q 3478 2169 3131 1663 
L 3047 1713 
Q 3291 2181 3408 2468 
Q 3525 2756 3648 3125 
Q 3772 3494 3839 3756 
Q 3906 4019 3959 4306 
L 4069 4906 
L 4613 4613 
Q 4675 4575 4673 4550 
Q 4672 4525 4613 4500 
L 4444 4425 
Q 4269 4000 4038 3397 
L 5450 3397 
L 5778 3763 
L 6200 3341 
Q 6247 3291 6237 3270 
Q 6228 3250 6191 3250 
L 5447 3247 
Q 5400 2950 5320 2453 
Q 5241 1956 5119 1543 
Q 4997 1131 4938 1013 
L 4756 631 
Q 4900 419 5064 233 
Q 5228 47 5533 -142 
Q 5838 -331 6228 -506 
L 6209 -569 
Q 5984 -550 5839 -586 
Q 5694 -622 5669 -669 
L 5563 -825 
Q 5450 -741 5362 -664 
Q 5275 -588 5015 -297 
Q 4756 -6 4538 303 
Q 4300 0 4044 -228 
Q 3788 -456 3422 -642 
Q 3056 -828 2391 -1041 
L 2359 -959 
z
M 5044 3250 
L 3988 3250 
Q 4019 2941 4064 2636 
Q 4109 2331 4225 1900 
Q 4341 1469 4406 1303 
L 4547 928 
Q 4669 1197 4728 1364 
Q 4788 1531 4864 1882 
Q 4941 2234 4966 2500 
L 5044 3250 
L 5044 3250 
z
" transform="scale(0.015625)"/>
      </defs>
      <use xlink:href="#UNAVAILABLE-901a"/>
      <use xlink:href="#UNAVAILABLE-4fe1" x="100"/>
      <use xlink:href="#UNAVAILABLE-8f6e" x="200"/>
      <use xlink:href="#UNAVAILABLE-6570" x="300"/>
     </g>
    </g>
   </g>
   <g id="matplotlib.axis_2">
    <g id="ytick_1">
     <g id="line2d_19">
      <path d="M 83.908834 471.620814 
L 692.99976 471.620814 
" clip-path="url(#pe0edf790b3)" style="fill: none; stroke-dasharray: 2.5,5; stroke-dashoffset: 0; stroke: #b0b0b0; stroke-width: 0.5"/>
     </g>
     <g id="line2d_20">
      <defs>
       <path id="m163e0cb7d4" d="M 0 0 
L 3.5 0 
" style="stroke: #000000; stroke-width: 2"/>
      </defs>
      <g>
       <use xlink:href="#m163e0cb7d4" x="83.908834" y="471.620814" style="stroke: #000000; stroke-width: 2"/>
      </g>
     </g>
     <g id="line2d_21">
      <defs>
       <path id="m2c15cdb848" d="M 0 0 
L -3.5 0 
" style="stroke: #000000; stroke-width: 2"/>
      </defs>
      <g>
       <use xlink:href="#m2c15cdb848" x="692.99976" y="471.620814" style="stroke: #000000; stroke-width: 2"/>
      </g>
     </g>
     <g id="text_8">
      <!-- 0.2 -->
      <g transform="translate(40.408834 482.730814)scale(0.32 -0.32)">
       <defs>
        <path id="TimesNewRomanPSMT-2e" d="M 800 606 
Q 947 606 1047 504 
Q 1147 403 1147 259 
Q 1147 116 1045 14 
Q 944 -88 800 -88 
Q 656 -88 554 14 
Q 453 116 453 259 
Q 453 406 554 506 
Q 656 606 800 606 
z
" transform="scale(0.015625)"/>
       </defs>
       <use xlink:href="#TimesNewRomanPSMT-30"/>
       <use xlink:href="#TimesNewRomanPSMT-2e" x="50"/>
       <use xlink:href="#TimesNewRomanPSMT-32" x="75"/>
      </g>
     </g>
    </g>
    <g id="ytick_2">
     <g id="line2d_22">
      <path d="M 83.908834 367.258938 
L 692.99976 367.258938 
" clip-path="url(#pe0edf790b3)" style="fill: none; stroke-dasharray: 2.5,5; stroke-dashoffset: 0; stroke: #b0b0b0; stroke-width: 0.5"/>
     </g>
     <g id="line2d_23">
      <g>
       <use xlink:href="#m163e0cb7d4" x="83.908834" y="367.258938" style="stroke: #000000; stroke-width: 2"/>
      </g>
     </g>
     <g id="line2d_24">
      <g>
       <use xlink:href="#m2c15cdb848" x="692.99976" y="367.258938" style="stroke: #000000; stroke-width: 2"/>
      </g>
     </g>
     <g id="text_9">
      <!-- 0.4 -->
      <g transform="translate(40.408834 378.368938)scale(0.32 -0.32)">
       <use xlink:href="#TimesNewRomanPSMT-30"/>
       <use xlink:href="#TimesNewRomanPSMT-2e" x="50"/>
       <use xlink:href="#TimesNewRomanPSMT-34" x="75"/>
      </g>
     </g>
    </g>
    <g id="ytick_3">
     <g id="line2d_25">
      <path d="M 83.908834 262.897062 
L 692.99976 262.897062 
" clip-path="url(#pe0edf790b3)" style="fill: none; stroke-dasharray: 2.5,5; stroke-dashoffset: 0; stroke: #b0b0b0; stroke-width: 0.5"/>
     </g>
     <g id="line2d_26">
      <g>
       <use xlink:href="#m163e0cb7d4" x="83.908834" y="262.897062" style="stroke: #000000; stroke-width: 2"/>
      </g>
     </g>
     <g id="line2d_27">
      <g>
       <use xlink:href="#m2c15cdb848" x="692.99976" y="262.897062" style="stroke: #000000; stroke-width: 2"/>
      </g>
     </g>
     <g id="text_10">
      <!-- 0.6 -->
      <g transform="translate(40.408834 274.007062)scale(0.32 -0.32)">
       <use xlink:href="#TimesNewRomanPSMT-30"/>
       <use xlink:href="#TimesNewRomanPSMT-2e" x="50"/>
       <use xlink:href="#TimesNewRomanPSMT-36" x="75"/>
      </g>
     </g>
    </g>
    <g id="ytick_4">
     <g id="line2d_28">
      <path d="M 83.908834 158.535186 
L 692.99976 158.535186 
" clip-path="url(#pe0edf790b3)" style="fill: none; stroke-dasharray: 2.5,5; stroke-dashoffset: 0; stroke: #b0b0b0; stroke-width: 0.5"/>
     </g>
     <g id="line2d_29">
      <g>
       <use xlink:href="#m163e0cb7d4" x="83.908834" y="158.535186" style="stroke: #000000; stroke-width: 2"/>
      </g>
     </g>
     <g id="line2d_30">
      <g>
       <use xlink:href="#m2c15cdb848" x="692.99976" y="158.535186" style="stroke: #000000; stroke-width: 2"/>
      </g>
     </g>
     <g id="text_11">
      <!-- 0.8 -->
      <g transform="translate(40.408834 169.645186)scale(0.32 -0.32)">
       <use xlink:href="#TimesNewRomanPSMT-30"/>
       <use xlink:href="#TimesNewRomanPSMT-2e" x="50"/>
       <use xlink:href="#TimesNewRomanPSMT-38" x="75"/>
      </g>
     </g>
    </g>
    <g id="ytick_5">
     <g id="line2d_31">
      <path d="M 83.908834 54.17331 
L 692.99976 54.17331 
" clip-path="url(#pe0edf790b3)" style="fill: none; stroke-dasharray: 2.5,5; stroke-dashoffset: 0; stroke: #b0b0b0; stroke-width: 0.5"/>
     </g>
     <g id="line2d_32">
      <g>
       <use xlink:href="#m163e0cb7d4" x="83.908834" y="54.17331" style="stroke: #000000; stroke-width: 2"/>
      </g>
     </g>
     <g id="line2d_33">
      <g>
       <use xlink:href="#m2c15cdb848" x="692.99976" y="54.17331" style="stroke: #000000; stroke-width: 2"/>
      </g>
     </g>
     <g id="text_12">
      <!-- 1.0 -->
      <g transform="translate(40.408834 65.28331)scale(0.32 -0.32)">
       <use xlink:href="#TimesNewRomanPSMT-31"/>
       <use xlink:href="#TimesNewRomanPSMT-2e" x="50"/>
       <use xlink:href="#TimesNewRomanPSMT-30" x="75"/>
      </g>
     </g>
    </g>
    <g id="text_13">
     <!-- 分类准确率(%) -->
     <g transform="translate(30.240084 400.072428)rotate(-90)scale(0.35 -0.35)">
      <defs>
       <path id="UNAVAILABLE-5206" d="M 2191 4775 
L 2772 4400 
Q 2791 4384 2789 4362 
Q 2788 4341 2756 4334 
L 2541 4278 
Q 2194 3653 1967 3300 
Q 1741 2947 1461 2620 
Q 1181 2294 1043 2161 
Q 906 2028 667 1833 
Q 428 1638 231 1503 
L 184 1575 
Q 528 1897 750 2130 
Q 972 2363 1295 2869 
Q 1619 3375 1792 3753 
Q 1966 4131 2019 4275 
Q 2072 4419 2191 4775 
z
M 2428 2147 
L 2050 2150 
Q 1763 2150 1522 2044 
L 1338 2309 
L 1697 2297 
L 4119 2297 
L 4344 2553 
L 4747 2247 
Q 4838 2175 4836 2161 
Q 4834 2147 4781 2116 
L 4581 1997 
Q 4525 1272 4490 812 
Q 4456 353 4429 67 
Q 4403 -219 4339 -366 
Q 4275 -513 4131 -648 
Q 3988 -784 3869 -828 
L 3613 -934 
Q 3588 -816 3539 -689 
Q 3491 -563 3384 -498 
Q 3278 -434 3000 -316 
L 2825 -244 
L 2850 -147 
Q 3672 -372 3808 -286 
Q 3944 -200 3983 -100 
Q 4022 0 4069 358 
Q 4116 716 4128 900 
L 4222 2150 
L 2850 2150 
Q 2819 1928 2776 1656 
Q 2734 1384 2651 1078 
Q 2569 772 2444 456 
Q 2319 141 2042 -140 
Q 1766 -422 1491 -580 
Q 1216 -738 1000 -838 
L 731 -959 
L 584 -1028 
L 534 -934 
Q 1178 -594 1511 -273 
Q 1844 47 1967 283 
Q 2091 519 2227 895 
Q 2363 1272 2403 1828 
L 2428 2147 
L 2428 2147 
z
M 3506 4847 
L 4050 4641 
L 4159 4600 
Q 4159 4588 4081 4531 
L 3909 4403 
Q 3969 4194 4017 4066 
Q 4066 3938 4242 3597 
Q 4419 3256 4801 2928 
Q 5184 2600 5511 2472 
Q 5838 2344 6256 2275 
L 6241 2194 
Q 6009 2178 5865 2100 
Q 5722 2022 5556 1828 
Q 4984 2216 4643 2580 
Q 4303 2944 4162 3209 
Q 4022 3475 3947 3653 
Q 3872 3831 3822 3975 
L 3634 4516 
L 3506 4847 
L 3506 4847 
z
" transform="scale(0.015625)"/>
       <path id="UNAVAILABLE-7c7b" d="M 250 1147 
L 881 1131 
L 2863 1131 
Q 2869 1216 2880 1334 
Q 2891 1453 2888 1522 
L 2875 1784 
L 3441 1572 
Q 3528 1538 3529 1508 
Q 3531 1478 3463 1450 
L 3328 1391 
Q 3303 1250 3281 1131 
L 5288 1131 
L 5634 1528 
L 6091 1103 
Q 6166 1031 6156 1009 
Q 6147 988 6078 988 
L 3497 988 
Q 3575 825 3673 662 
Q 3772 500 4181 162 
Q 4591 -175 5142 -279 
Q 5694 -384 6159 -416 
L 6159 -503 
Q 5844 -531 5745 -573 
Q 5647 -616 5616 -691 
L 5513 -888 
Q 5059 -713 4778 -584 
Q 4497 -456 4130 -196 
Q 3763 63 3484 681 
L 3400 878 
L 3353 988 
L 3247 988 
Q 3197 819 3130 628 
Q 3063 438 2913 227 
Q 2763 16 2473 -212 
Q 2184 -441 1834 -605 
Q 1484 -769 1154 -842 
Q 825 -916 338 -997 
L 316 -909 
Q 1097 -703 1614 -439 
Q 2131 -175 2423 183 
Q 2716 541 2781 825 
L 2822 988 
L 838 988 
Q 569 988 456 909 
L 250 1147 
z
M 378 3391 
L 1041 3375 
L 3000 3375 
L 3000 4306 
L 2972 4913 
L 3497 4725 
Q 3591 4688 3594 4659 
Q 3597 4631 3497 4566 
L 3384 4491 
L 3384 3375 
L 3738 3375 
Q 4078 3825 4281 4117 
Q 4484 4409 4553 4600 
L 4619 4775 
L 5075 4425 
Q 5153 4363 5139 4339 
Q 5125 4316 5066 4306 
L 4906 4281 
Q 4347 3759 3919 3375 
L 5213 3375 
L 5525 3781 
L 6016 3350 
Q 6091 3281 6083 3253 
Q 6075 3225 6016 3225 
L 3384 3225 
L 3384 2997 
Q 4322 2791 4839 2630 
Q 5356 2469 5457 2400 
Q 5559 2331 5575 2206 
Q 5591 2081 5591 1953 
Q 5588 1772 5466 1778 
Q 5425 1778 5283 1928 
Q 5141 2078 4566 2406 
Q 3991 2734 3384 2878 
L 3384 2494 
L 3413 1988 
Q 3244 1863 2972 1806 
L 3000 2538 
L 3000 3159 
Q 2850 2972 2554 2625 
Q 2259 2278 1698 1943 
Q 1138 1609 544 1363 
L 503 1438 
Q 1091 1806 1434 2054 
Q 1778 2303 2090 2643 
Q 2403 2984 2569 3225 
L 1041 3225 
Q 781 3225 603 3141 
L 378 3391 
z
M 1347 4672 
Q 1375 4653 1833 4429 
Q 2291 4206 2333 4051 
Q 2375 3897 2331 3769 
Q 2294 3669 2209 3600 
Q 2125 3531 2072 3566 
Q 2047 3578 1953 3772 
Q 1859 3966 1817 4042 
Q 1775 4119 1664 4250 
Q 1553 4381 1316 4594 
L 1347 4672 
z
" transform="scale(0.015625)"/>
       <path id="UNAVAILABLE-51c6" d="M 309 1319 
L 325 1400 
Q 684 1331 795 1393 
Q 906 1456 997 1691 
L 1753 3391 
Q 2031 4059 2059 4113 
L 2097 4188 
L 2184 4144 
Q 2025 3725 1789 3053 
Q 1553 2381 1453 2089 
Q 1353 1797 1284 1536 
Q 1216 1275 1194 1095 
Q 1172 916 1170 755 
Q 1169 594 1184 359 
Q 1194 200 1211 14 
Q 1228 -172 1233 -283 
Q 1238 -394 1178 -528 
Q 1119 -663 947 -581 
Q 859 -544 779 -433 
Q 700 -322 709 -166 
Q 709 -119 748 23 
Q 788 166 813 356 
Q 838 547 842 755 
Q 847 963 791 1053 
Q 706 1175 309 1319 
z
M 519 4338 
L 550 4403 
Q 797 4263 934 4175 
Q 1072 4088 1272 3922 
Q 1472 3756 1473 3543 
Q 1475 3331 1354 3217 
Q 1234 3103 1182 3142 
Q 1131 3181 1107 3231 
Q 1084 3281 1034 3487 
Q 984 3694 873 3894 
Q 763 4094 519 4338 
z
M 1563 1628 
Q 1956 2303 2190 2790 
Q 2425 3278 2584 3689 
Q 2744 4100 2781 4209 
L 2875 4519 
Q 2941 4728 2947 4772 
L 2959 4869 
L 3459 4634 
Q 3578 4578 3576 4562 
Q 3575 4547 3497 4503 
L 3306 4394 
L 2972 3694 
L 5250 3694 
L 5538 4106 
L 5988 3641 
Q 6041 3584 6031 3562 
Q 6022 3541 5941 3541 
L 4303 3541 
L 4303 2400 
L 5088 2400 
L 5347 2788 
L 5731 2359 
Q 5791 2291 5780 2270 
Q 5769 2250 5688 2250 
L 4303 2250 
L 4303 1100 
L 5069 1100 
L 5347 1509 
L 5731 1078 
Q 5806 991 5792 969 
Q 5778 947 5719 947 
L 4303 947 
L 4303 -334 
L 5347 -334 
L 5653 66 
L 6009 -378 
Q 6053 -438 6045 -461 
Q 6038 -484 5988 -484 
L 2944 -484 
L 2944 -806 
Q 2763 -956 2534 -1025 
L 2578 -22 
L 2578 2928 
Q 1900 1938 1825 1844 
L 1622 1584 
L 1563 1628 
z
M 2944 -334 
L 3947 -334 
L 3947 947 
L 2944 947 
L 2944 -334 
z
M 2944 1100 
L 3947 1100 
L 3947 2250 
L 2944 2250 
L 2944 1100 
z
M 2944 2400 
L 3947 2400 
L 3947 3541 
L 2944 3541 
L 2944 2400 
z
M 3788 4778 
L 3828 4831 
Q 3984 4731 4146 4634 
Q 4309 4538 4434 4436 
Q 4559 4334 4567 4198 
Q 4575 4063 4472 3959 
Q 4369 3856 4311 3861 
Q 4253 3866 4236 3881 
Q 4219 3897 4206 3948 
Q 4194 4000 4150 4144 
Q 4106 4288 4054 4409 
Q 4003 4531 3788 4778 
z
" transform="scale(0.015625)"/>
       <path id="UNAVAILABLE-786e" d="M 219 1088 
Q 766 2100 945 2734 
Q 1125 3369 1228 3878 
L 1050 3878 
Q 684 3878 472 3784 
L 231 4038 
L 550 4025 
L 2031 4025 
L 2322 4369 
L 2731 3975 
Q 2778 3928 2768 3903 
Q 2759 3878 2669 3878 
L 1666 3878 
Q 1450 3181 1369 2975 
L 1216 2578 
L 1281 2525 
L 1894 2525 
L 2081 2794 
L 2434 2566 
Q 2525 2503 2526 2497 
Q 2528 2491 2434 2406 
L 2322 2306 
L 2322 797 
L 2350 153 
Q 2144 31 1966 -31 
L 1966 328 
L 1234 328 
L 1234 -200 
Q 1191 -234 1056 -295 
Q 922 -356 884 -366 
L 922 472 
L 922 2003 
Q 634 1503 547 1384 
L 294 1034 
L 219 1088 
z
M 1234 472 
L 1966 472 
L 1966 2378 
L 1234 2378 
L 1234 472 
z
M 1622 -984 
Q 1853 -853 2181 -601 
Q 2509 -350 2650 -72 
Q 2791 206 2842 518 
Q 2894 831 2906 1323 
Q 2919 1816 2925 2344 
Q 2928 2763 2925 2913 
L 2919 3169 
Q 2781 3044 2447 2719 
L 2388 2784 
Q 2766 3272 2927 3494 
Q 3088 3716 3330 4192 
Q 3572 4669 3591 4734 
L 3666 4981 
L 4172 4734 
Q 4256 4691 4254 4678 
Q 4253 4666 4163 4622 
L 3988 4538 
L 3650 4059 
L 4644 4059 
L 4916 4334 
L 5356 3975 
Q 5416 3925 5409 3901 
Q 5403 3878 5319 3859 
L 5166 3825 
Q 5041 3797 4881 3678 
Q 4722 3559 4300 3059 
L 5266 3059 
L 5475 3344 
L 5869 3081 
Q 5931 3038 5932 3017 
Q 5934 2997 5853 2944 
L 5713 2850 
L 5713 -441 
Q 5713 -556 5672 -657 
Q 5631 -759 5512 -843 
Q 5394 -928 5153 -978 
Q 5138 -875 5117 -808 
Q 5097 -741 5008 -642 
Q 4919 -544 4547 -459 
L 4575 -372 
Q 5103 -453 5213 -434 
Q 5291 -425 5316 -392 
Q 5341 -359 5341 -250 
L 5341 913 
L 4419 913 
L 4419 181 
L 4456 -488 
Q 4394 -519 4326 -553 
Q 4259 -588 4247 -591 
L 4119 -641 
L 4025 -684 
L 4063 241 
L 4063 913 
L 3228 913 
Q 3209 734 3187 557 
Q 3166 381 3070 126 
Q 2975 -128 2689 -409 
Q 2403 -691 1675 -1063 
L 1622 -984 
z
M 3006 3256 
L 3331 3059 
L 4156 3059 
Q 4284 3259 4344 3366 
L 4522 3706 
L 4634 3916 
L 3547 3916 
Q 3281 3566 3006 3256 
z
M 3228 1059 
L 4063 1059 
L 4063 1906 
L 3266 1906 
L 3228 1059 
z
M 3266 2053 
L 4063 2053 
L 4063 2916 
L 3288 2916 
Q 3278 2563 3278 2497 
L 3266 2053 
L 3266 2053 
z
M 4419 1059 
L 5341 1059 
L 5341 1906 
L 4419 1906 
L 4419 1059 
z
M 4419 2053 
L 5341 2053 
L 5341 2916 
L 4419 2916 
L 4419 2053 
z
" transform="scale(0.015625)"/>
       <path id="UNAVAILABLE-7387" d="M 138 556 
L 453 541 
L 3025 541 
L 3025 944 
L 2991 1459 
Q 2591 1350 2284 1213 
L 2078 1681 
Q 2284 1722 2432 1822 
Q 2581 1922 2803 2159 
L 3203 2591 
L 3325 2719 
Q 2541 2603 2369 2516 
L 2203 2438 
L 1975 2859 
Q 2088 2859 2156 2889 
Q 2225 2919 2414 3158 
Q 2603 3397 2698 3537 
Q 2794 3678 2897 3881 
L 1219 3881 
Q 1134 3881 1062 3870 
Q 991 3859 797 3775 
L 553 4047 
L 919 4034 
L 3203 4034 
Q 3119 4278 3081 4364 
Q 3044 4450 2976 4556 
Q 2909 4663 2713 4822 
L 2734 4916 
Q 3016 4822 3211 4742 
Q 3406 4663 3489 4563 
Q 3572 4463 3562 4350 
Q 3553 4238 3391 4034 
L 5113 4034 
L 5447 4428 
L 5875 4034 
Q 5969 3944 5950 3912 
Q 5931 3881 5850 3881 
L 3131 3881 
L 3378 3747 
Q 3444 3709 3434 3684 
Q 3425 3659 3391 3653 
L 3228 3613 
Q 3138 3550 3094 3519 
L 2503 2988 
L 2284 2797 
L 3450 2859 
Q 3775 3231 3844 3353 
L 3934 3509 
L 4303 3125 
Q 4353 3069 4345 3055 
Q 4338 3041 4284 3034 
L 4100 3006 
Q 3909 2866 3864 2828 
Q 3819 2791 3553 2563 
L 3103 2184 
L 2647 1778 
L 2509 1666 
Q 3413 1728 4084 1809 
Q 3934 2059 3684 2325 
L 3734 2369 
Q 4309 2009 4432 1895 
Q 4556 1781 4592 1678 
Q 4628 1575 4591 1453 
Q 4556 1344 4475 1276 
Q 4394 1209 4353 1219 
Q 4306 1225 4281 1272 
Q 4256 1319 4240 1387 
Q 4225 1456 4141 1697 
Q 3638 1606 3066 1459 
L 3525 1244 
Q 3594 1209 3595 1192 
Q 3597 1175 3525 1128 
L 3391 1038 
L 3391 541 
L 5394 541 
L 5747 925 
L 6181 528 
Q 6241 469 6228 430 
Q 6216 391 6163 391 
L 3391 391 
L 3391 -316 
L 3422 -869 
Q 3278 -969 2975 -1047 
L 3025 -266 
L 3025 391 
L 859 391 
Q 547 391 388 303 
L 138 556 
z
M 456 1581 
Q 844 1709 1053 1800 
Q 1263 1891 2000 2269 
L 2050 2203 
Q 1834 2038 1607 1867 
Q 1381 1697 1190 1548 
Q 1000 1400 784 1144 
L 456 1581 
z
M 941 3506 
Q 1625 3106 1692 2964 
Q 1759 2822 1678 2628 
Q 1634 2525 1556 2469 
Q 1478 2413 1441 2431 
Q 1409 2444 1367 2575 
Q 1325 2706 1284 2823 
Q 1244 2941 1200 3019 
Q 1156 3097 894 3453 
L 941 3506 
z
M 5344 3256 
Q 4713 2697 4484 2469 
L 4422 2531 
Q 4666 2847 4814 3095 
Q 4963 3344 5131 3694 
L 5503 3375 
Q 5581 3306 5570 3281 
Q 5559 3256 5488 3256 
L 5344 3256 
z
M 4553 2197 
L 4588 2269 
Q 4863 2194 5013 2142 
Q 5163 2091 5398 1980 
Q 5634 1869 5679 1778 
Q 5725 1688 5722 1538 
Q 5719 1456 5706 1395 
Q 5694 1334 5650 1279 
Q 5606 1225 5556 1231 
Q 5519 1231 5472 1284 
L 5275 1619 
Q 5216 1709 5028 1884 
Q 4841 2059 4553 2197 
z
" transform="scale(0.015625)"/>
       <path id="UNAVAILABLE-28" d="M 1488 -909 
L 1369 -763 
Q 1216 -578 969 -207 
Q 722 163 594 503 
Q 466 844 417 1164 
Q 369 1484 366 1696 
Q 363 1909 363 2028 
Q 369 2338 417 2658 
Q 466 2978 595 3323 
Q 725 3669 983 4050 
Q 1241 4431 1488 4738 
L 1591 4866 
Q 1616 4900 1658 4931 
Q 1700 4963 1725 4961 
Q 1750 4959 1773 4931 
Q 1797 4903 1756 4834 
L 1653 4659 
Q 1547 4481 1369 4167 
Q 1191 3853 1117 3668 
Q 1044 3484 975 3225 
Q 906 2966 862 2720 
Q 819 2475 809 2192 
Q 800 1909 809 1703 
Q 819 1353 864 1092 
Q 909 831 964 636 
Q 1019 441 1123 159 
Q 1228 -122 1556 -669 
L 1653 -831 
Q 1766 -1028 1767 -1062 
Q 1769 -1097 1739 -1112 
Q 1709 -1128 1661 -1098 
Q 1613 -1069 1488 -909 
z
" transform="scale(0.015625)"/>
       <path id="UNAVAILABLE-25" d="M 931 4356 
Q 1034 4353 1175 4297 
Q 1316 4241 1409 4123 
Q 1503 4006 1553 3865 
Q 1603 3725 1633 3565 
Q 1663 3406 1666 3179 
Q 1669 2953 1616 2681 
Q 1581 2509 1534 2407 
Q 1488 2306 1411 2207 
Q 1334 2109 1207 2025 
Q 1081 1941 916 1941 
Q 759 1938 643 2009 
Q 528 2081 453 2178 
Q 378 2275 318 2412 
Q 259 2550 220 2717 
Q 181 2884 181 3176 
Q 181 3469 231 3669 
Q 266 3809 356 3989 
Q 447 4169 589 4262 
Q 731 4356 931 4356 
z
M 931 2106 
Q 988 2106 1048 2142 
Q 1109 2178 1161 2289 
Q 1213 2400 1234 2556 
Q 1256 2713 1257 3041 
Q 1259 3369 1238 3656 
Q 1216 3900 1162 4006 
Q 1109 4113 1051 4150 
Q 994 4188 938 4191 
Q 869 4191 803 4145 
Q 738 4100 686 3992 
Q 634 3884 615 3709 
Q 597 3534 595 3265 
Q 594 2997 606 2822 
Q 616 2653 639 2511 
Q 663 2369 709 2270 
Q 756 2172 815 2137 
Q 875 2103 931 2106 
z
M 950 -425 
L 3463 4359 
L 3684 4359 
L 1184 -425 
L 950 -425 
z
M 2969 722 
Q 2963 922 3003 1133 
Q 3044 1344 3137 1511 
Q 3231 1678 3375 1778 
Q 3519 1878 3706 1878 
Q 3888 1875 4041 1772 
Q 4194 1669 4283 1483 
Q 4372 1297 4411 1120 
Q 4450 944 4450 731 
Q 4447 516 4409 336 
Q 4372 156 4284 -25 
Q 4197 -206 4031 -317 
Q 3866 -428 3688 -428 
Q 3541 -431 3428 -365 
Q 3316 -300 3219 -170 
Q 3122 -41 3048 175 
Q 2975 391 2969 722 
z
M 3700 -269 
Q 3756 -269 3836 -225 
Q 3916 -181 3962 -39 
Q 4009 103 4018 297 
Q 4028 491 4031 795 
Q 4034 1100 4000 1328 
Q 3978 1463 3939 1538 
Q 3900 1613 3831 1663 
Q 3763 1713 3697 1713 
Q 3644 1709 3581 1670 
Q 3519 1631 3470 1525 
Q 3422 1419 3395 1231 
Q 3369 1044 3367 884 
Q 3366 725 3381 494 
Q 3394 231 3416 100 
Q 3438 -31 3484 -120 
Q 3531 -209 3593 -240 
Q 3656 -272 3700 -269 
z
" transform="scale(0.015625)"/>
       <path id="UNAVAILABLE-29" d="M 509 -822 
L 603 -663 
Q 925 -113 1033 170 
Q 1141 453 1195 643 
Q 1250 834 1294 1093 
Q 1338 1353 1347 1634 
Q 1356 1916 1350 2128 
Q 1338 2491 1295 2730 
Q 1253 2969 1184 3230 
Q 1116 3491 1044 3670 
Q 972 3850 781 4189 
Q 591 4528 509 4666 
L 403 4841 
Q 366 4906 386 4936 
Q 406 4966 431 4967 
Q 456 4969 501 4936 
Q 547 4903 572 4875 
L 675 4744 
Q 956 4381 1192 4036 
Q 1428 3691 1561 3336 
Q 1694 2981 1742 2662 
Q 1791 2344 1795 2130 
Q 1800 1916 1800 1803 
Q 1791 1491 1742 1170 
Q 1694 850 1566 509 
Q 1438 169 1191 -201 
Q 944 -572 794 -756 
L 675 -903 
Q 547 -1063 498 -1092 
Q 450 -1122 422 -1106 
Q 394 -1091 394 -1055 
Q 394 -1019 509 -822 
z
" transform="scale(0.015625)"/>
      </defs>
      <use xlink:href="#UNAVAILABLE-5206"/>
      <use xlink:href="#UNAVAILABLE-7c7b" x="100"/>
      <use xlink:href="#UNAVAILABLE-51c6" x="200"/>
      <use xlink:href="#UNAVAILABLE-786e" x="300"/>
      <use xlink:href="#UNAVAILABLE-7387" x="400"/>
      <use xlink:href="#UNAVAILABLE-28" x="500"/>
      <use xlink:href="#UNAVAILABLE-25" x="533.544922"/>
      <use xlink:href="#UNAVAILABLE-29" x="607.177734"/>
     </g>
    </g>
   </g>
   <g id="line2d_34">
    <path d="M 139.280736 77.393827 
L 144.817926 72.071371 
L 150.355117 67.062001 
L 155.892307 64.974764 
L 161.429497 63.722421 
L 166.966687 63.148431 
L 172.503878 63.461517 
L 178.041068 62.052631 
L 183.578258 61.687365 
L 189.115448 61.948269 
L 194.652639 61.791727 
L 200.189829 62.104812 
L 205.727019 62.156993 
L 211.264209 61.42646 
L 216.801399 61.739546 
L 222.33859 62.52226 
L 227.87578 62.417898 
L 233.41297 61.217736 
L 238.95016 61.843908 
L 244.487351 62.209174 
L 250.024541 61.42646 
L 266.636112 61.374279 
L 272.173302 61.583003 
L 277.710492 61.217736 
L 283.247682 61.791727 
L 288.784873 61.061194 
L 294.322063 61.217736 
L 299.859253 61.217736 
L 305.396443 60.748108 
L 310.933634 61.165555 
L 316.470824 61.269917 
L 322.008014 60.382841 
L 327.545204 61.009013 
L 333.082394 60.748108 
L 338.619585 61.322098 
L 344.156775 60.904651 
L 355.231155 61.165555 
L 366.305536 60.33066 
L 371.842726 60.643746 
L 377.379916 60.643746 
L 382.917107 60.226299 
L 388.454297 60.643746 
L 393.991487 60.695927 
L 399.528677 61.009013 
L 410.603058 59.965394 
L 416.140248 60.748108 
L 427.214629 60.226299 
L 432.751819 61.009013 
L 438.289009 60.591565 
L 443.826199 60.487203 
L 449.363389 60.174118 
L 454.90058 60.017575 
L 460.43777 60.748108 
L 465.97496 60.121937 
L 471.51215 60.591565 
L 477.049341 60.121937 
L 482.586531 60.85247 
L 493.660911 59.965394 
L 499.198102 60.487203 
L 510.272482 60.382841 
L 515.809672 60.800289 
L 521.346863 59.861032 
L 526.884053 60.591565 
L 532.421243 60.539384 
L 537.958433 60.278479 
L 543.495624 60.904651 
L 549.032814 60.539384 
L 554.570004 60.748108 
L 560.107194 60.278479 
L 565.644385 60.226299 
L 571.181575 59.913213 
L 576.718765 60.487203 
L 582.255955 60.435022 
L 587.793145 60.121937 
L 593.330336 60.017575 
L 598.867526 60.278479 
L 604.404716 59.965394 
L 609.941906 60.539384 
L 621.016287 60.33066 
L 626.553477 60.069756 
L 632.090667 60.643746 
L 637.627858 60.174118 
L 659.776619 60.33066 
L 665.313809 60.226299 
L 670.850999 60.695927 
L 676.388189 60.278479 
L 681.92538 60.591565 
L 687.46257 60.174118 
L 704.07414 60.017575 
L 709.611331 60.539384 
L 715.148521 60.278479 
L 721 60.553062 
L 721 60.553062 
" clip-path="url(#pe0edf790b3)" style="fill: none; stroke: #0000ff; stroke-width: 3; stroke-linecap: square"/>
   </g>
   <g id="line2d_35">
    <path d="M 139.280736 516.757325 
L 144.817926 252.617417 
L 150.355117 141.106752 
L 155.892307 108.545847 
L 161.429497 92.317575 
L 166.966687 85.638415 
L 172.503878 82.194473 
L 178.041068 79.376703 
L 183.578258 75.776218 
L 194.652639 72.123552 
L 200.189829 72.280095 
L 205.727019 71.549562 
L 211.264209 69.671048 
L 216.801399 69.566686 
L 222.33859 69.20142 
L 227.87578 68.992696 
L 233.41297 67.427268 
L 238.95016 67.688173 
L 244.487351 66.748916 
L 250.024541 66.748916 
L 255.561731 67.479449 
L 261.098921 66.644554 
L 277.710492 65.757478 
L 283.247682 64.661678 
L 288.784873 65.34003 
L 294.322063 65.131307 
L 299.859253 64.661678 
L 305.396443 65.548754 
L 316.470824 65.444392 
L 322.008014 64.244231 
L 344.156775 64.76604 
L 349.693965 64.035507 
L 355.231155 64.713859 
L 366.305536 63.148431 
L 371.842726 63.09625 
L 377.379916 63.878964 
L 382.917107 62.730984 
L 388.454297 63.252793 
L 393.991487 63.565879 
L 399.528677 63.409336 
L 405.065868 63.09625 
L 410.603058 63.357155 
L 416.140248 63.304974 
L 421.677438 63.513698 
L 427.214629 62.835345 
L 432.751819 62.887526 
L 438.289009 63.148431 
L 443.826199 63.200612 
L 449.363389 62.470079 
L 454.90058 63.09625 
L 465.97496 62.52226 
L 471.51215 62.574441 
L 477.049341 62.313536 
L 488.123721 62.835345 
L 493.660911 62.574441 
L 499.198102 62.887526 
L 510.272482 61.896089 
L 515.809672 62.470079 
L 521.346863 62.783164 
L 526.884053 62.00045 
L 543.495624 61.948269 
L 549.032814 62.156993 
L 571.181575 62.365717 
L 582.255955 61.896089 
L 587.793145 62.156993 
L 593.330336 61.843908 
L 598.867526 61.896089 
L 604.404716 61.739546 
L 615.479097 62.209174 
L 621.016287 61.896089 
L 632.090667 62.209174 
L 643.165048 62.261355 
L 654.239428 61.948269 
L 687.46257 61.896089 
L 692.99976 62.156993 
L 704.07414 62.00045 
L 709.611331 61.42646 
L 715.148521 61.478641 
L 721 62.00045 
L 721 62.00045 
" clip-path="url(#pe0edf790b3)" style="fill: none; stroke-dasharray: 15,15; stroke-dashoffset: 0; stroke: #0000ff; stroke-width: 3"/>
   </g>
   <g id="line2d_36">
    <path d="M 139.280736 93.726461 
L 144.817926 75.828399 
L 150.355117 69.618867 
L 155.892307 67.740354 
L 161.429497 67.218544 
L 166.966687 66.227106 
L 172.503878 65.548754 
L 178.041068 65.183488 
L 183.578258 65.496573 
L 189.115448 65.079126 
L 194.652639 63.513698 
L 200.189829 62.574441 
L 205.727019 63.67024 
L 211.264209 62.991888 
L 216.801399 63.148431 
L 222.33859 62.991888 
L 227.87578 62.00045 
L 233.41297 62.52226 
L 238.95016 62.730984 
L 244.487351 62.470079 
L 250.024541 63.252793 
L 255.561731 62.470079 
L 261.098921 62.313536 
L 266.636112 61.843908 
L 272.173302 62.313536 
L 277.710492 62.052631 
L 283.247682 62.52226 
L 288.784873 61.165555 
L 294.322063 62.313536 
L 305.396443 61.635184 
L 310.933634 61.009013 
L 316.470824 62.313536 
L 322.008014 61.739546 
L 327.545204 61.583003 
L 333.082394 62.00045 
L 338.619585 62.00045 
L 344.156775 61.635184 
L 349.693965 62.156993 
L 355.231155 61.530822 
L 360.768346 61.687365 
L 366.305536 61.269917 
L 371.842726 61.687365 
L 377.379916 60.956832 
L 382.917107 61.113374 
L 393.991487 61.843908 
L 399.528677 61.42646 
L 405.065868 61.739546 
L 410.603058 60.539384 
L 416.140248 60.748108 
L 421.677438 61.42646 
L 432.751819 61.478641 
L 438.289009 60.956832 
L 454.90058 61.217736 
L 460.43777 61.322098 
L 465.97496 61.635184 
L 471.51215 61.061194 
L 482.586531 61.478641 
L 493.660911 60.956832 
L 499.198102 61.374279 
L 510.272482 61.478641 
L 515.809672 61.113374 
L 521.346863 61.374279 
L 526.884053 61.269917 
L 532.421243 60.539384 
L 537.958433 61.687365 
L 543.495624 60.904651 
L 549.032814 60.591565 
L 554.570004 61.217736 
L 560.107194 60.85247 
L 565.644385 62.104812 
L 576.718765 61.374279 
L 582.255955 61.269917 
L 587.793145 60.278479 
L 593.330336 61.009013 
L 598.867526 61.478641 
L 604.404716 61.374279 
L 609.941906 60.748108 
L 621.016287 61.269917 
L 626.553477 60.800289 
L 632.090667 61.478641 
L 637.627858 60.800289 
L 643.165048 61.217736 
L 648.702238 60.904651 
L 654.239428 60.748108 
L 659.776619 61.269917 
L 665.313809 60.800289 
L 670.850999 60.85247 
L 676.388189 60.591565 
L 681.92538 60.904651 
L 687.46257 60.956832 
L 692.99976 60.800289 
L 698.53695 60.435022 
L 704.07414 60.956832 
L 709.611331 60.904651 
L 720.685711 60.591565 
L 721 60.591565 
L 721 60.591565 
" clip-path="url(#pe0edf790b3)" style="fill: none; stroke: #ff0000; stroke-width: 3; stroke-linecap: square"/>
   </g>
   <g id="line2d_37">
    <path d="M 139.280736 516.757325 
L 144.817926 377.799487 
L 150.355117 185.773635 
L 155.892307 124.565395 
L 161.429497 98.68365 
L 166.966687 99.988173 
L 172.503878 88.66491 
L 178.041068 84.072987 
L 183.578258 78.333084 
L 189.115448 80.002874 
L 194.652639 77.602551 
L 205.727019 70.610305 
L 211.264209 72.071371 
L 216.801399 70.819029 
L 222.33859 71.288657 
L 227.87578 73.845523 
L 233.41297 71.96701 
L 238.95016 69.410144 
L 244.487351 68.418706 
L 250.024541 69.462325 
L 255.561731 68.053439 
L 261.098921 68.523068 
L 266.636112 67.114182 
L 272.173302 67.375087 
L 277.710492 68.366525 
L 283.247682 67.218544 
L 288.784873 67.53163 
L 294.322063 67.479449 
L 299.859253 67.00982 
L 305.396443 66.018383 
L 310.933634 67.479449 
L 316.470824 67.375087 
L 322.008014 67.635992 
L 327.545204 65.444392 
L 333.082394 65.600935 
L 344.156775 65.183488 
L 349.693965 65.444392 
L 355.231155 64.870402 
L 366.305536 64.661678 
L 371.842726 65.287849 
L 377.379916 65.235669 
L 382.917107 64.557316 
L 388.454297 64.818221 
L 393.991487 64.922583 
L 405.065868 63.983326 
L 410.603058 64.557316 
L 416.140248 64.713859 
L 421.677438 64.035507 
L 427.214629 64.713859 
L 432.751819 64.922583 
L 438.289009 64.035507 
L 443.826199 63.878964 
L 449.363389 64.348593 
L 454.90058 64.557316 
L 460.43777 64.348593 
L 465.97496 64.505135 
L 471.51215 63.67024 
L 477.049341 63.67024 
L 482.586531 63.461517 
L 488.123721 64.139869 
L 493.660911 62.887526 
L 499.198102 63.931145 
L 504.735292 63.618059 
L 510.272482 63.148431 
L 515.809672 63.931145 
L 521.346863 63.722421 
L 526.884053 63.044069 
L 532.421243 63.357155 
L 537.958433 63.409336 
L 543.495624 64.035507 
L 549.032814 64.087688 
L 554.570004 63.252793 
L 560.107194 63.357155 
L 565.644385 62.939707 
L 576.718765 63.304974 
L 582.255955 63.200612 
L 587.793145 63.357155 
L 593.330336 63.044069 
L 598.867526 62.887526 
L 604.404716 63.513698 
L 609.941906 63.252793 
L 615.479097 62.261355 
L 621.016287 63.200612 
L 626.553477 62.835345 
L 632.090667 62.887526 
L 637.627858 62.417898 
L 643.165048 63.148431 
L 648.702238 63.252793 
L 654.239428 63.09625 
L 659.776619 62.00045 
L 665.313809 63.044069 
L 670.850999 64.244231 
L 676.388189 62.939707 
L 681.92538 62.574441 
L 692.99976 62.939707 
L 709.611331 62.574441 
L 715.148521 62.783164 
L 721 62.72506 
L 721 62.72506 
" clip-path="url(#pe0edf790b3)" style="fill: none; stroke-dasharray: 15,15; stroke-dashoffset: 0; stroke: #ff0000; stroke-width: 3"/>
   </g>
   <g id="line2d_38">
    <path d="M 139.280736 273.333249 
L 144.817926 141.837286 
L 150.355117 105.206267 
L 155.892307 93.935184 
L 161.429497 91.795766 
L 166.966687 84.646977 
L 172.503878 81.307397 
L 178.041068 88.404005 
L 183.578258 84.386073 
L 189.115448 82.55974 
L 194.652639 81.46394 
L 200.189829 80.733407 
L 205.727019 78.541808 
L 211.264209 80.785588 
L 216.801399 79.428884 
L 222.33859 79.22016 
L 227.87578 77.289465 
L 233.41297 77.654732 
L 238.95016 77.759094 
L 244.487351 79.950693 
L 250.024541 77.654732 
L 255.561731 78.333084 
L 261.098921 75.932761 
L 266.636112 75.150047 
L 272.173302 76.872018 
L 277.710492 78.333084 
L 283.247682 76.558932 
L 288.784873 74.941323 
L 294.322063 78.698351 
L 299.859253 74.262971 
L 305.396443 74.889142 
L 310.933634 76.141485 
L 316.470824 75.671856 
L 322.008014 76.663294 
L 327.545204 74.680418 
L 333.082394 75.828399 
L 338.619585 75.045685 
L 344.156775 73.741161 
L 349.693965 74.628237 
L 355.231155 74.471695 
L 360.768346 73.949885 
L 366.305536 73.688981 
L 371.842726 72.384457 
L 377.379916 73.741161 
L 382.917107 74.680418 
L 388.454297 74.002066 
L 393.991487 74.576056 
L 399.528677 72.01919 
L 405.065868 74.054247 
L 410.603058 74.21079 
L 416.140248 73.949885 
L 421.677438 74.889142 
L 427.214629 72.645362 
L 432.751819 72.175733 
L 438.289009 73.219352 
L 443.826199 73.845523 
L 449.363389 72.071371 
L 454.90058 73.219352 
L 460.43777 74.680418 
L 465.97496 73.793342 
L 471.51215 72.071371 
L 477.049341 73.584619 
L 482.586531 73.532438 
L 488.123721 71.914829 
L 493.660911 71.236476 
L 499.198102 72.071371 
L 504.735292 72.280095 
L 510.272482 72.01919 
L 515.809672 73.11499 
L 521.346863 70.662486 
L 526.884053 72.801905 
L 532.421243 71.236476 
L 537.958433 72.175733 
L 543.495624 73.323714 
L 549.032814 73.062809 
L 554.570004 71.497381 
L 560.107194 72.749724 
L 565.644385 72.854085 
L 571.181575 71.96701 
L 576.718765 71.393019 
L 582.255955 71.393019 
L 587.793145 69.984134 
L 593.330336 71.497381 
L 598.867526 72.01919 
L 604.404716 70.140677 
L 609.941906 71.4452 
L 615.479097 71.236476 
L 621.016287 71.601743 
L 626.553477 71.132115 
L 632.090667 72.801905 
L 643.165048 72.384457 
L 648.702238 70.558124 
L 654.239428 71.236476 
L 659.776619 69.671048 
L 665.313809 70.088496 
L 670.850999 71.601743 
L 676.388189 70.140677 
L 681.92538 69.514505 
L 687.46257 70.401581 
L 692.99976 70.923391 
L 698.53695 70.662486 
L 704.07414 71.132115 
L 709.611331 71.4452 
L 715.148521 71.132115 
L 721 70.616229 
L 721 70.616229 
" clip-path="url(#pe0edf790b3)" style="fill: none; stroke: #000000; stroke-width: 3; stroke-linecap: square"/>
   </g>
   <g id="line2d_39">
    <path d="M 139.280736 516.757325 
L 144.817926 516.652963 
L 150.355117 452.679133 
L 155.892307 328.43632 
L 161.429497 223.917901 
L 166.966687 175.702714 
L 172.503878 162.605299 
L 178.041068 133.644878 
L 183.578258 141.158933 
L 189.115448 121.747624 
L 194.652639 126.704813 
L 200.189829 125.452471 
L 205.727019 126.49609 
L 211.264209 113.398674 
L 216.801399 120.547463 
L 222.33859 111.572341 
L 227.87578 108.650209 
L 233.41297 110.319999 
L 238.95016 108.545847 
L 244.487351 118.668949 
L 250.024541 114.703198 
L 255.561731 107.919676 
L 261.098921 110.163456 
L 266.636112 105.988981 
L 272.173302 96.648593 
L 277.710492 101.031792 
L 283.247682 102.336315 
L 288.784873 105.154086 
L 294.322063 106.667333 
L 299.859253 100.457802 
L 305.396443 96.961679 
L 310.933634 97.01386 
L 316.470824 94.456994 
L 322.008014 94.091727 
L 327.545204 93.256832 
L 333.082394 94.926622 
L 338.619585 96.909498 
L 344.156775 97.58785 
L 355.231155 93.100289 
L 360.768346 96.857317 
L 366.305536 91.065233 
L 371.842726 96.022422 
L 377.379916 99.988173 
L 382.917107 97.692212 
L 388.454297 97.01386 
L 393.991487 92.161033 
L 399.528677 92.891566 
L 405.065868 92.421937 
L 410.603058 88.977995 
L 416.140248 92.265394 
L 421.677438 94.926622 
L 427.214629 92.421937 
L 432.751819 92.995928 
L 438.289009 96.283327 
L 443.826199 95.657155 
L 449.363389 86.160225 
L 454.90058 91.534861 
L 460.43777 89.499805 
L 465.97496 92.839385 
L 471.51215 92.526299 
L 477.049341 88.717091 
L 482.586531 90.752147 
L 488.123721 85.32533 
L 493.660911 86.47331 
L 499.198102 86.786396 
L 504.735292 87.934377 
L 510.272482 89.760709 
L 515.809672 89.81289 
L 521.346863 84.699158 
L 526.884053 84.22953 
L 532.421243 85.847139 
L 537.958433 90.282519 
L 543.495624 88.038738 
L 549.032814 86.99512 
L 554.570004 91.847947 
L 560.107194 92.630661 
L 565.644385 87.464748 
L 571.181575 90.491243 
L 576.718765 93.883004 
L 582.255955 92.161033 
L 587.793145 89.499805 
L 598.867526 87.203843 
L 604.404716 91.326138 
L 609.941906 87.308205 
L 615.479097 88.925814 
L 621.016287 86.734215 
L 626.553477 88.508367 
L 632.090667 84.855701 
L 637.627858 84.072987 
L 643.165048 85.742777 
L 654.239428 86.160225 
L 659.776619 84.907882 
L 665.313809 86.577672 
L 670.850999 84.177349 
L 676.388189 86.264587 
L 681.92538 86.47331 
L 687.46257 84.125168 
L 692.99976 88.090919 
L 698.53695 89.134538 
L 704.07414 84.646977 
L 709.611331 85.273149 
L 715.148521 82.820645 
L 720.685711 85.89932 
L 721 85.774926 
L 721 85.774926 
" clip-path="url(#pe0edf790b3)" style="fill: none; stroke-dasharray: 15,15; stroke-dashoffset: 0; stroke: #000000; stroke-width: 3"/>
   </g>
   <g id="patch_3">
    <path d="M 83.908834 539.638666 
L 83.908834 36.249158 
" style="fill: none; stroke: #000000; stroke-width: 2.5; stroke-linejoin: miter; stroke-linecap: square"/>
   </g>
   <g id="patch_4">
    <path d="M 692.99976 539.638666 
L 692.99976 36.249158 
" style="fill: none; stroke: #000000; stroke-width: 2.5; stroke-linejoin: miter; stroke-linecap: square"/>
   </g>
   <g id="patch_5">
    <path d="M 83.908834 539.638666 
L 692.99976 539.638666 
" style="fill: none; stroke: #000000; stroke-width: 2.5; stroke-linejoin: miter; stroke-linecap: square"/>
   </g>
   <g id="patch_6">
    <path d="M 83.908834 36.249158 
L 692.99976 36.249158 
" style="fill: none; stroke: #000000; stroke-width: 2.5; stroke-linejoin: miter; stroke-linecap: square"/>
   </g>
   <g id="legend_1">
    <g id="patch_7">
     <path d="M 185.73976 539.638666 
L 687.79976 539.638666 
Q 692.99976 539.638666 692.99976 534.438666 
L 692.99976 348.278666 
Q 692.99976 343.078666 687.79976 343.078666 
L 185.73976 343.078666 
Q 180.53976 343.078666 180.53976 348.278666 
L 180.53976 534.438666 
Q 180.53976 539.638666 185.73976 539.638666 
L 185.73976 539.638666 
z
" style="fill: none; stroke: #000000; stroke-linejoin: miter"/>
    </g>
    <g id="line2d_40">
     <path d="M 190.93976 364.658666 
L 216.93976 364.658666 
L 242.93976 364.658666 
" style="fill: none; stroke: #0000ff; stroke-width: 3; stroke-linecap: square"/>
    </g>
    <g id="text_14">
     <!-- 中心式, $\mathrm{R}=0.9,\mathrm{SNR}_\mathrm{train}=20\mathrm{(dB)}$ -->
     <g transform="translate(263.73976 373.758666)scale(0.26 -0.26)">
      <defs>
       <path id="UNAVAILABLE-4e2d" d="M 1406 3484 
L 2975 3484 
L 2975 3863 
L 2925 4875 
L 3547 4622 
L 3622 4603 
L 3547 4547 
L 3369 4406 
L 3369 3484 
L 5013 3484 
L 5306 3828 
L 5741 3478 
Q 5794 3434 5792 3417 
Q 5791 3400 5738 3359 
L 5528 3203 
L 5528 1991 
L 5559 1328 
Q 5441 1250 5352 1212 
Q 5263 1175 5103 1138 
L 5103 1588 
L 3369 1588 
L 3369 19 
L 3403 -800 
Q 3284 -897 3206 -934 
L 3072 -988 
L 2938 -1041 
L 2975 81 
L 2975 1588 
L 1341 1588 
L 1341 1197 
Q 1163 1084 919 1053 
L 947 1719 
L 947 3175 
L 919 3759 
L 1406 3484 
z
M 1341 1734 
L 2975 1734 
L 2975 3338 
L 1341 3338 
L 1341 1734 
z
M 3369 1734 
L 5103 1734 
L 5103 3338 
L 3369 3338 
L 3369 1734 
z
" transform="scale(0.015625)"/>
       <path id="UNAVAILABLE-5fc3" d="M 1116 2438 
L 1178 2422 
Q 1178 2344 1179 2292 
Q 1181 2241 1178 2134 
Q 1169 1950 1151 1669 
Q 1134 1388 1093 1095 
Q 1053 803 881 645 
Q 709 488 550 497 
Q 441 500 386 558 
Q 331 616 326 680 
Q 322 744 409 856 
L 634 1103 
Q 847 1347 933 1601 
Q 1019 1856 1044 2003 
L 1103 2391 
L 1116 2438 
L 1116 2438 
z
M 4616 1072 
Q 4619 881 4636 568 
Q 4653 256 4728 161 
Q 4803 66 4997 -28 
Q 4913 -275 4817 -397 
Q 4722 -519 4480 -564 
Q 4238 -609 3569 -619 
Q 2894 -631 2506 -590 
Q 2119 -550 2070 -408 
Q 2022 -266 2022 -166 
L 2022 2756 
L 1984 3575 
L 2559 3288 
Q 2638 3247 2644 3223 
Q 2650 3200 2541 3125 
L 2391 3022 
L 2391 3 
Q 2391 -244 2897 -238 
L 3438 -244 
Q 3928 -247 4120 -214 
Q 4313 -181 4366 -120 
Q 4419 -59 4445 128 
Q 4472 316 4488 513 
L 4503 794 
L 4519 1072 
L 4616 1072 
z
M 2650 4650 
L 2700 4738 
Q 3006 4544 3278 4334 
Q 3550 4125 3636 4015 
Q 3722 3906 3742 3818 
Q 3763 3731 3744 3619 
Q 3713 3453 3617 3364 
Q 3522 3275 3453 3303 
Q 3413 3316 3389 3358 
Q 3366 3400 3344 3520 
Q 3322 3641 3247 3814 
Q 3172 3988 3076 4148 
Q 2981 4309 2650 4650 
z
M 4650 2691 
L 4697 2775 
Q 4734 2741 4756 2728 
L 5222 2422 
Q 5478 2244 5675 2044 
Q 5872 1844 5944 1720 
Q 6016 1597 6020 1490 
Q 6025 1384 5981 1266 
Q 5938 1147 5864 1064 
Q 5791 981 5734 988 
Q 5706 988 5662 1016 
Q 5619 1044 5578 1217 
Q 5538 1391 5480 1552 
Q 5422 1713 5298 1933 
Q 5175 2153 5050 2295 
Q 4925 2438 4650 2691 
z
" transform="scale(0.015625)"/>
       <path id="UNAVAILABLE-5f0f" d="M 431 -91 
Q 1141 0 1381 63 
L 1850 181 
L 1850 1997 
L 1356 1994 
Q 1288 1991 1122 1977 
Q 956 1963 913 1941 
L 794 1884 
L 534 2166 
L 1097 2144 
L 2641 2144 
L 2941 2513 
L 3369 2094 
Q 3403 2059 3387 2026 
Q 3372 1994 3313 1994 
L 2209 1994 
L 2209 266 
Q 3169 494 3775 675 
L 3803 578 
Q 3547 472 3330 386 
Q 3113 300 2134 -33 
Q 1156 -366 984 -478 
L 734 -631 
L 431 -91 
z
M 463 3484 
L 1028 3459 
L 3553 3459 
Q 3541 3719 3533 3925 
Q 3525 4131 3516 4281 
L 3469 4944 
L 4044 4694 
Q 4134 4653 4136 4626 
Q 4138 4600 4056 4553 
L 3922 4475 
Q 3894 3938 3900 3778 
L 3909 3459 
L 5209 3459 
L 5569 3863 
L 6028 3422 
Q 6081 3369 6072 3339 
Q 6063 3309 6000 3309 
L 3909 3309 
Q 3919 3031 3931 2872 
Q 3944 2713 3975 2441 
Q 4006 2169 4050 1947 
Q 4094 1725 4201 1353 
Q 4309 981 4534 625 
Q 4759 269 5084 -14 
Q 5409 -297 5471 -283 
Q 5534 -269 5562 -153 
Q 5591 -38 5653 188 
L 5734 494 
L 5806 719 
L 5872 697 
Q 5841 463 5817 289 
Q 5794 116 5789 -15 
Q 5784 -147 5809 -350 
Q 5834 -584 5898 -700 
Q 5963 -816 5972 -886 
Q 5981 -956 5853 -956 
Q 5656 -959 5431 -804 
Q 5206 -650 4901 -378 
Q 4597 -106 4380 214 
Q 4163 534 4045 767 
Q 3928 1000 3842 1317 
Q 3756 1634 3692 1998 
Q 3628 2363 3619 2528 
L 3553 3309 
L 1403 3309 
Q 1388 3309 1167 3296 
Q 947 3284 906 3263 
L 763 3191 
L 463 3484 
z
M 4378 4578 
L 4416 4634 
Q 4563 4581 4641 4550 
Q 4719 4519 4884 4441 
Q 5050 4363 5134 4277 
Q 5219 4191 5223 4030 
Q 5228 3869 5140 3783 
Q 5053 3697 5001 3705 
Q 4950 3713 4900 3806 
L 4809 4038 
Q 4766 4138 4683 4253 
Q 4600 4369 4378 4578 
z
" transform="scale(0.015625)"/>
       <path id="UNAVAILABLE-2c" d="M 553 -1059 
L 553 -928 
Q 622 -884 690 -842 
Q 759 -800 820 -754 
Q 881 -709 945 -631 
Q 1009 -553 1048 -473 
Q 1088 -394 1097 -297 
Q 1106 -200 1069 -141 
L 1006 -38 
Q 906 -72 836 -86 
Q 766 -100 688 -94 
Q 575 -88 519 -44 
Q 463 0 430 79 
Q 397 159 397 247 
Q 397 334 442 415 
Q 488 497 573 544 
Q 659 591 763 600 
Q 894 606 1001 554 
Q 1109 503 1184 411 
Q 1259 319 1307 183 
Q 1356 47 1350 -100 
Q 1344 -184 1320 -282 
Q 1297 -381 1248 -486 
Q 1200 -591 1119 -678 
Q 1038 -766 919 -853 
Q 800 -941 725 -975 
L 553 -1059 
L 553 -1059 
z
" transform="scale(0.015625)"/>
       <path id="UNAVAILABLE-20" transform="scale(0.015625)"/>
       <path id="DejaVuSans-52" d="M 2841 2188 
Q 3044 2119 3236 1894 
Q 3428 1669 3622 1275 
L 4263 0 
L 3584 0 
L 2988 1197 
Q 2756 1666 2539 1819 
Q 2322 1972 1947 1972 
L 1259 1972 
L 1259 0 
L 628 0 
L 628 4666 
L 2053 4666 
Q 2853 4666 3247 4331 
Q 3641 3997 3641 3322 
Q 3641 2881 3436 2590 
Q 3231 2300 2841 2188 
z
M 1259 4147 
L 1259 2491 
L 2053 2491 
Q 2509 2491 2742 2702 
Q 2975 2913 2975 3322 
Q 2975 3731 2742 3939 
Q 2509 4147 2053 4147 
L 1259 4147 
z
" transform="scale(0.015625)"/>
       <path id="DejaVuSans-3d" d="M 678 2906 
L 4684 2906 
L 4684 2381 
L 678 2381 
L 678 2906 
z
M 678 1631 
L 4684 1631 
L 4684 1100 
L 678 1100 
L 678 1631 
z
" transform="scale(0.015625)"/>
       <path id="DejaVuSans-30" d="M 2034 4250 
Q 1547 4250 1301 3770 
Q 1056 3291 1056 2328 
Q 1056 1369 1301 889 
Q 1547 409 2034 409 
Q 2525 409 2770 889 
Q 3016 1369 3016 2328 
Q 3016 3291 2770 3770 
Q 2525 4250 2034 4250 
z
M 2034 4750 
Q 2819 4750 3233 4129 
Q 3647 3509 3647 2328 
Q 3647 1150 3233 529 
Q 2819 -91 2034 -91 
Q 1250 -91 836 529 
Q 422 1150 422 2328 
Q 422 3509 836 4129 
Q 1250 4750 2034 4750 
z
" transform="scale(0.015625)"/>
       <path id="DejaVuSans-2e" d="M 684 794 
L 1344 794 
L 1344 0 
L 684 0 
L 684 794 
z
" transform="scale(0.015625)"/>
       <path id="DejaVuSans-39" d="M 703 97 
L 703 672 
Q 941 559 1184 500 
Q 1428 441 1663 441 
Q 2288 441 2617 861 
Q 2947 1281 2994 2138 
Q 2813 1869 2534 1725 
Q 2256 1581 1919 1581 
Q 1219 1581 811 2004 
Q 403 2428 403 3163 
Q 403 3881 828 4315 
Q 1253 4750 1959 4750 
Q 2769 4750 3195 4129 
Q 3622 3509 3622 2328 
Q 3622 1225 3098 567 
Q 2575 -91 1691 -91 
Q 1453 -91 1209 -44 
Q 966 3 703 97 
z
M 1959 2075 
Q 2384 2075 2632 2365 
Q 2881 2656 2881 3163 
Q 2881 3666 2632 3958 
Q 2384 4250 1959 4250 
Q 1534 4250 1286 3958 
Q 1038 3666 1038 3163 
Q 1038 2656 1286 2365 
Q 1534 2075 1959 2075 
z
" transform="scale(0.015625)"/>
       <path id="DejaVuSans-2c" d="M 750 794 
L 1409 794 
L 1409 256 
L 897 -744 
L 494 -744 
L 750 256 
L 750 794 
z
" transform="scale(0.015625)"/>
       <path id="DejaVuSans-53" d="M 3425 4513 
L 3425 3897 
Q 3066 4069 2747 4153 
Q 2428 4238 2131 4238 
Q 1616 4238 1336 4038 
Q 1056 3838 1056 3469 
Q 1056 3159 1242 3001 
Q 1428 2844 1947 2747 
L 2328 2669 
Q 3034 2534 3370 2195 
Q 3706 1856 3706 1288 
Q 3706 609 3251 259 
Q 2797 -91 1919 -91 
Q 1588 -91 1214 -16 
Q 841 59 441 206 
L 441 856 
Q 825 641 1194 531 
Q 1563 422 1919 422 
Q 2459 422 2753 634 
Q 3047 847 3047 1241 
Q 3047 1584 2836 1778 
Q 2625 1972 2144 2069 
L 1759 2144 
Q 1053 2284 737 2584 
Q 422 2884 422 3419 
Q 422 4038 858 4394 
Q 1294 4750 2059 4750 
Q 2388 4750 2728 4690 
Q 3069 4631 3425 4513 
z
" transform="scale(0.015625)"/>
       <path id="DejaVuSans-4e" d="M 628 4666 
L 1478 4666 
L 3547 763 
L 3547 4666 
L 4159 4666 
L 4159 0 
L 3309 0 
L 1241 3903 
L 1241 0 
L 628 0 
L 628 4666 
z
" transform="scale(0.015625)"/>
       <path id="DejaVuSans-74" d="M 1172 4494 
L 1172 3500 
L 2356 3500 
L 2356 3053 
L 1172 3053 
L 1172 1153 
Q 1172 725 1289 603 
Q 1406 481 1766 481 
L 2356 481 
L 2356 0 
L 1766 0 
Q 1100 0 847 248 
Q 594 497 594 1153 
L 594 3053 
L 172 3053 
L 172 3500 
L 594 3500 
L 594 4494 
L 1172 4494 
z
" transform="scale(0.015625)"/>
       <path id="DejaVuSans-72" d="M 2631 2963 
Q 2534 3019 2420 3045 
Q 2306 3072 2169 3072 
Q 1681 3072 1420 2755 
Q 1159 2438 1159 1844 
L 1159 0 
L 581 0 
L 581 3500 
L 1159 3500 
L 1159 2956 
Q 1341 3275 1631 3429 
Q 1922 3584 2338 3584 
Q 2397 3584 2469 3576 
Q 2541 3569 2628 3553 
L 2631 2963 
z
" transform="scale(0.015625)"/>
       <path id="DejaVuSans-61" d="M 2194 1759 
Q 1497 1759 1228 1600 
Q 959 1441 959 1056 
Q 959 750 1161 570 
Q 1363 391 1709 391 
Q 2188 391 2477 730 
Q 2766 1069 2766 1631 
L 2766 1759 
L 2194 1759 
z
M 3341 1997 
L 3341 0 
L 2766 0 
L 2766 531 
Q 2569 213 2275 61 
Q 1981 -91 1556 -91 
Q 1019 -91 701 211 
Q 384 513 384 1019 
Q 384 1609 779 1909 
Q 1175 2209 1959 2209 
L 2766 2209 
L 2766 2266 
Q 2766 2663 2505 2880 
Q 2244 3097 1772 3097 
Q 1472 3097 1187 3025 
Q 903 2953 641 2809 
L 641 3341 
Q 956 3463 1253 3523 
Q 1550 3584 1831 3584 
Q 2591 3584 2966 3190 
Q 3341 2797 3341 1997 
z
" transform="scale(0.015625)"/>
       <path id="DejaVuSans-69" d="M 603 3500 
L 1178 3500 
L 1178 0 
L 603 0 
L 603 3500 
z
M 603 4863 
L 1178 4863 
L 1178 4134 
L 603 4134 
L 603 4863 
z
" transform="scale(0.015625)"/>
       <path id="DejaVuSans-6e" d="M 3513 2113 
L 3513 0 
L 2938 0 
L 2938 2094 
Q 2938 2591 2744 2837 
Q 2550 3084 2163 3084 
Q 1697 3084 1428 2787 
Q 1159 2491 1159 1978 
L 1159 0 
L 581 0 
L 581 3500 
L 1159 3500 
L 1159 2956 
Q 1366 3272 1645 3428 
Q 1925 3584 2291 3584 
Q 2894 3584 3203 3211 
Q 3513 2838 3513 2113 
z
" transform="scale(0.015625)"/>
       <path id="DejaVuSans-32" d="M 1228 531 
L 3431 531 
L 3431 0 
L 469 0 
L 469 531 
Q 828 903 1448 1529 
Q 2069 2156 2228 2338 
Q 2531 2678 2651 2914 
Q 2772 3150 2772 3378 
Q 2772 3750 2511 3984 
Q 2250 4219 1831 4219 
Q 1534 4219 1204 4116 
Q 875 4013 500 3803 
L 500 4441 
Q 881 4594 1212 4672 
Q 1544 4750 1819 4750 
Q 2544 4750 2975 4387 
Q 3406 4025 3406 3419 
Q 3406 3131 3298 2873 
Q 3191 2616 2906 2266 
Q 2828 2175 2409 1742 
Q 1991 1309 1228 531 
z
" transform="scale(0.015625)"/>
       <path id="DejaVuSans-28" d="M 1984 4856 
Q 1566 4138 1362 3434 
Q 1159 2731 1159 2009 
Q 1159 1288 1364 580 
Q 1569 -128 1984 -844 
L 1484 -844 
Q 1016 -109 783 600 
Q 550 1309 550 2009 
Q 550 2706 781 3412 
Q 1013 4119 1484 4856 
L 1984 4856 
z
" transform="scale(0.015625)"/>
       <path id="DejaVuSans-64" d="M 2906 2969 
L 2906 4863 
L 3481 4863 
L 3481 0 
L 2906 0 
L 2906 525 
Q 2725 213 2448 61 
Q 2172 -91 1784 -91 
Q 1150 -91 751 415 
Q 353 922 353 1747 
Q 353 2572 751 3078 
Q 1150 3584 1784 3584 
Q 2172 3584 2448 3432 
Q 2725 3281 2906 2969 
z
M 947 1747 
Q 947 1113 1208 752 
Q 1469 391 1925 391 
Q 2381 391 2643 752 
Q 2906 1113 2906 1747 
Q 2906 2381 2643 2742 
Q 2381 3103 1925 3103 
Q 1469 3103 1208 2742 
Q 947 2381 947 1747 
z
" transform="scale(0.015625)"/>
       <path id="DejaVuSans-42" d="M 1259 2228 
L 1259 519 
L 2272 519 
Q 2781 519 3026 730 
Q 3272 941 3272 1375 
Q 3272 1813 3026 2020 
Q 2781 2228 2272 2228 
L 1259 2228 
z
M 1259 4147 
L 1259 2741 
L 2194 2741 
Q 2656 2741 2882 2914 
Q 3109 3088 3109 3444 
Q 3109 3797 2882 3972 
Q 2656 4147 2194 4147 
L 1259 4147 
z
M 628 4666 
L 2241 4666 
Q 2963 4666 3353 4366 
Q 3744 4066 3744 3513 
Q 3744 3084 3544 2831 
Q 3344 2578 2956 2516 
Q 3422 2416 3680 2098 
Q 3938 1781 3938 1306 
Q 3938 681 3513 340 
Q 3088 0 2303 0 
L 628 0 
L 628 4666 
z
" transform="scale(0.015625)"/>
       <path id="DejaVuSans-29" d="M 513 4856 
L 1013 4856 
Q 1481 4119 1714 3412 
Q 1947 2706 1947 2009 
Q 1947 1309 1714 600 
Q 1481 -109 1013 -844 
L 513 -844 
Q 928 -128 1133 580 
Q 1338 1288 1338 2009 
Q 1338 2731 1133 3434 
Q 928 4138 513 4856 
z
" transform="scale(0.015625)"/>
      </defs>
      <use xlink:href="#UNAVAILABLE-4e2d" transform="translate(0 0.75)"/>
      <use xlink:href="#UNAVAILABLE-5fc3" transform="translate(100 0.75)"/>
      <use xlink:href="#UNAVAILABLE-5f0f" transform="translate(200 0.75)"/>
      <use xlink:href="#UNAVAILABLE-2c" transform="translate(300 0.75)"/>
      <use xlink:href="#UNAVAILABLE-20" transform="translate(327.294922 0.75)"/>
      <use xlink:href="#DejaVuSans-52" transform="translate(377.294922 0.75)"/>
      <use xlink:href="#DejaVuSans-3d" transform="translate(466.259766 0.75)"/>
      <use xlink:href="#DejaVuSans-30" transform="translate(569.53125 0.75)"/>
      <use xlink:href="#DejaVuSans-2e" transform="translate(633.154297 0.75)"/>
      <use xlink:href="#DejaVuSans-39" transform="translate(664.941406 0.75)"/>
      <use xlink:href="#DejaVuSans-2c" transform="translate(728.564453 0.75)"/>
      <use xlink:href="#DejaVuSans-53" transform="translate(779.833984 0.75)"/>
      <use xlink:href="#DejaVuSans-4e" transform="translate(843.310547 0.75)"/>
      <use xlink:href="#DejaVuSans-52" transform="translate(914.490234 0.75)"/>
      <use xlink:href="#DejaVuSans-74" transform="translate(984.929688 -15.65625)scale(0.7)"/>
      <use xlink:href="#DejaVuSans-72" transform="translate(1012.375977 -15.65625)scale(0.7)"/>
      <use xlink:href="#DejaVuSans-61" transform="translate(1041.155273 -15.65625)scale(0.7)"/>
      <use xlink:href="#DejaVuSans-69" transform="translate(1084.050781 -15.65625)scale(0.7)"/>
      <use xlink:href="#DejaVuSans-6e" transform="translate(1103.499023 -15.65625)scale(0.7)"/>
      <use xlink:href="#DejaVuSans-3d" transform="translate(1170.081055 0.75)"/>
      <use xlink:href="#DejaVuSans-32" transform="translate(1273.352539 0.75)"/>
      <use xlink:href="#DejaVuSans-30" transform="translate(1336.975586 0.75)"/>
      <use xlink:href="#DejaVuSans-28" transform="translate(1400.598633 0.75)"/>
      <use xlink:href="#DejaVuSans-64" transform="translate(1439.612305 0.75)"/>
      <use xlink:href="#DejaVuSans-42" transform="translate(1503.088867 0.75)"/>
      <use xlink:href="#DejaVuSans-29" transform="translate(1571.692383 0.75)"/>
     </g>
    </g>
    <g id="line2d_41">
     <path d="M 190.93976 394.818666 
L 216.93976 394.818666 
L 242.93976 394.818666 
" style="fill: none; stroke-dasharray: 15,15; stroke-dashoffset: 0; stroke: #0000ff; stroke-width: 3"/>
    </g>
    <g id="text_15">
     <!-- 联邦式, $\mathrm{R}=0.9,\mathrm{SNR}_\mathrm{train}=20\mathrm{(dB)}$ -->
     <g transform="translate(263.73976 403.918666)scale(0.26 -0.26)">
      <defs>
       <path id="UNAVAILABLE-8054" d="M 800 581 
L 800 4188 
L 700 4188 
Q 522 4188 375 4128 
L 197 4353 
L 684 4338 
L 2278 4338 
L 2578 4753 
L 2972 4353 
Q 3097 4222 3076 4205 
Q 3056 4188 2991 4188 
L 2363 4188 
L 2363 913 
L 3153 1131 
L 3206 1038 
L 2363 716 
L 2363 0 
L 2397 -744 
Q 2194 -931 2097 -972 
L 1975 -1028 
L 2013 -84 
L 2013 603 
Q 769 172 641 113 
L 397 0 
L 184 503 
Q 525 528 800 581 
z
M 1150 653 
Q 1591 728 2013 831 
L 2013 1772 
L 1150 1772 
L 1150 653 
z
M 2013 1922 
L 2013 2947 
L 1150 2947 
L 1150 1922 
L 2013 1922 
z
M 1150 3097 
L 2013 3097 
L 2013 4188 
L 1150 4188 
L 1150 3097 
z
M 2331 -1063 
Q 2888 -663 3167 -331 
Q 3447 0 3569 292 
Q 3691 584 3758 948 
Q 3825 1313 3841 1525 
L 3853 1684 
L 3266 1684 
Q 3000 1684 2928 1650 
L 2806 1600 
L 2569 1850 
L 3006 1834 
L 3863 1834 
Q 3884 2241 3888 2300 
L 3916 3119 
L 3353 3119 
Q 3119 3119 3050 3091 
L 2906 3041 
L 2694 3284 
L 3044 3266 
L 4241 3266 
Q 4384 3503 4503 3712 
Q 4622 3922 4737 4195 
Q 4853 4469 5009 4925 
L 5519 4578 
Q 5597 4522 5587 4498 
Q 5578 4475 5519 4459 
L 5325 4409 
L 4434 3266 
L 5159 3266 
L 5491 3669 
L 5891 3266 
Q 5981 3169 5961 3144 
Q 5941 3119 5903 3119 
L 4319 3119 
L 4234 1834 
L 5281 1834 
L 5581 2250 
L 6041 1800 
Q 6094 1744 6083 1714 
Q 6072 1684 5925 1684 
L 4478 1684 
Q 4500 1534 4536 1379 
Q 4572 1225 4701 947 
Q 4831 669 5047 364 
Q 5263 59 5603 -156 
Q 5944 -372 6241 -456 
L 6234 -544 
Q 6050 -513 5914 -561 
Q 5778 -609 5613 -784 
Q 5331 -559 5122 -309 
Q 4913 -59 4766 186 
Q 4619 431 4506 787 
Q 4394 1144 4369 1428 
L 4341 1684 
L 4219 1684 
Q 4172 1300 4125 1022 
Q 4078 744 3954 398 
Q 3831 53 3515 -309 
Q 3200 -672 2722 -944 
L 2391 -1138 
L 2331 -1063 
z
M 3078 4775 
L 3138 4831 
Q 3244 4763 3367 4684 
Q 3491 4606 3620 4493 
Q 3750 4381 3872 4220 
Q 3994 4059 3995 3898 
Q 3997 3738 3834 3558 
Q 3672 3378 3636 3489 
Q 3600 3600 3595 3661 
Q 3591 3722 3553 3903 
Q 3516 4084 3484 4190 
Q 3453 4297 3362 4434 
Q 3272 4572 3078 4775 
z
" transform="scale(0.015625)"/>
       <path id="UNAVAILABLE-90a6" d="M 241 1294 
L 756 1272 
L 1731 1272 
Q 1750 1525 1759 1692 
Q 1769 1859 1775 2078 
L 1784 2541 
L 1250 2541 
Q 1156 2541 1098 2533 
Q 1041 2525 844 2463 
L 609 2709 
L 1019 2691 
L 1784 2691 
L 1784 3700 
L 1075 3700 
Q 1003 3700 839 3679 
Q 675 3659 556 3616 
L 350 3872 
L 800 3850 
L 1784 3850 
Q 1775 4122 1767 4356 
Q 1759 4591 1750 4722 
L 1731 4969 
L 2306 4750 
Q 2413 4706 2414 4690 
Q 2416 4675 2322 4616 
L 2163 4516 
L 2147 3850 
L 3013 3850 
L 3334 4241 
L 3719 3816 
Q 3800 3725 3795 3711 
Q 3791 3697 3638 3700 
L 2141 3703 
L 2138 2691 
L 2794 2691 
L 3131 3034 
L 3516 2625 
Q 3544 2591 3539 2566 
Q 3534 2541 3397 2541 
L 2138 2541 
Q 2100 1688 2100 1669 
L 2078 1272 
L 3097 1272 
L 3419 1647 
L 3788 1216 
Q 3834 1159 3825 1139 
Q 3816 1119 3706 1119 
L 2056 1119 
Q 2028 947 1931 515 
Q 1834 84 1401 -294 
Q 969 -672 722 -822 
L 431 -988 
L 350 -1034 
L 306 -941 
Q 728 -641 990 -366 
Q 1253 -91 1443 256 
Q 1634 603 1688 947 
L 1716 1119 
L 1019 1119 
Q 700 1119 444 1019 
L 241 1294 
z
M 5709 4081 
Q 5569 3838 5486 3686 
Q 5403 3534 4963 2613 
Q 5403 2206 5589 1997 
Q 5775 1788 5878 1561 
Q 5981 1334 5995 1071 
Q 6009 809 5917 561 
Q 5825 313 5570 188 
Q 5316 63 5031 3 
Q 5047 91 5044 183 
Q 5041 275 4937 400 
Q 4834 525 4406 700 
L 4438 788 
Q 4475 778 4497 773 
Q 4519 769 4762 694 
Q 5006 619 5231 622 
Q 5406 622 5482 683 
Q 5559 744 5592 887 
Q 5625 1031 5626 1167 
Q 5628 1303 5559 1509 
Q 5484 1716 5343 1930 
Q 5203 2144 4784 2613 
Q 4881 2916 4934 3069 
L 5216 3897 
L 5313 4216 
L 4278 4216 
L 4278 -166 
L 4325 -856 
Q 4247 -934 4126 -978 
Q 4006 -1022 3897 -1025 
L 3931 -41 
L 3934 3841 
L 3897 4678 
L 4391 4363 
L 5244 4363 
L 5497 4663 
L 5903 4325 
Q 6006 4238 5998 4217 
Q 5991 4197 5928 4172 
L 5709 4081 
z
" transform="scale(0.015625)"/>
      </defs>
      <use xlink:href="#UNAVAILABLE-8054" transform="translate(0 0.359375)"/>
      <use xlink:href="#UNAVAILABLE-90a6" transform="translate(100 0.359375)"/>
      <use xlink:href="#UNAVAILABLE-5f0f" transform="translate(200 0.359375)"/>
      <use xlink:href="#UNAVAILABLE-2c" transform="translate(300 0.359375)"/>
      <use xlink:href="#UNAVAILABLE-20" transform="translate(327.294922 0.359375)"/>
      <use xlink:href="#DejaVuSans-52" transform="translate(377.294922 0.359375)"/>
      <use xlink:href="#DejaVuSans-3d" transform="translate(466.259766 0.359375)"/>
      <use xlink:href="#DejaVuSans-30" transform="translate(569.53125 0.359375)"/>
      <use xlink:href="#DejaVuSans-2e" transform="translate(633.154297 0.359375)"/>
      <use xlink:href="#DejaVuSans-39" transform="translate(664.941406 0.359375)"/>
      <use xlink:href="#DejaVuSans-2c" transform="translate(728.564453 0.359375)"/>
      <use xlink:href="#DejaVuSans-53" transform="translate(779.833984 0.359375)"/>
      <use xlink:href="#DejaVuSans-4e" transform="translate(843.310547 0.359375)"/>
      <use xlink:href="#DejaVuSans-52" transform="translate(914.490234 0.359375)"/>
      <use xlink:href="#DejaVuSans-74" transform="translate(984.929688 -16.046875)scale(0.7)"/>
      <use xlink:href="#DejaVuSans-72" transform="translate(1012.375977 -16.046875)scale(0.7)"/>
      <use xlink:href="#DejaVuSans-61" transform="translate(1041.155273 -16.046875)scale(0.7)"/>
      <use xlink:href="#DejaVuSans-69" transform="translate(1084.050781 -16.046875)scale(0.7)"/>
      <use xlink:href="#DejaVuSans-6e" transform="translate(1103.499023 -16.046875)scale(0.7)"/>
      <use xlink:href="#DejaVuSans-3d" transform="translate(1170.081055 0.359375)"/>
      <use xlink:href="#DejaVuSans-32" transform="translate(1273.352539 0.359375)"/>
      <use xlink:href="#DejaVuSans-30" transform="translate(1336.975586 0.359375)"/>
      <use xlink:href="#DejaVuSans-28" transform="translate(1400.598633 0.359375)"/>
      <use xlink:href="#DejaVuSans-64" transform="translate(1439.612305 0.359375)"/>
      <use xlink:href="#DejaVuSans-42" transform="translate(1503.088867 0.359375)"/>
      <use xlink:href="#DejaVuSans-29" transform="translate(1571.692383 0.359375)"/>
     </g>
    </g>
    <g id="line2d_42">
     <path d="M 190.93976 424.978666 
L 216.93976 424.978666 
L 242.93976 424.978666 
" style="fill: none; stroke: #ff0000; stroke-width: 3; stroke-linecap: square"/>
    </g>
    <g id="text_16">
     <!-- 中心式, $\mathrm{R}=0.5,\mathrm{SNR}_\mathrm{train}=10\mathrm{(dB)}$ -->
     <g transform="translate(263.73976 434.078666)scale(0.26 -0.26)">
      <defs>
       <path id="DejaVuSans-35" d="M 691 4666 
L 3169 4666 
L 3169 4134 
L 1269 4134 
L 1269 2991 
Q 1406 3038 1543 3061 
Q 1681 3084 1819 3084 
Q 2600 3084 3056 2656 
Q 3513 2228 3513 1497 
Q 3513 744 3044 326 
Q 2575 -91 1722 -91 
Q 1428 -91 1123 -41 
Q 819 9 494 109 
L 494 744 
Q 775 591 1075 516 
Q 1375 441 1709 441 
Q 2250 441 2565 725 
Q 2881 1009 2881 1497 
Q 2881 1984 2565 2268 
Q 2250 2553 1709 2553 
Q 1456 2553 1204 2497 
Q 953 2441 691 2322 
L 691 4666 
z
" transform="scale(0.015625)"/>
       <path id="DejaVuSans-31" d="M 794 531 
L 1825 531 
L 1825 4091 
L 703 3866 
L 703 4441 
L 1819 4666 
L 2450 4666 
L 2450 531 
L 3481 531 
L 3481 0 
L 794 0 
L 794 531 
z
" transform="scale(0.015625)"/>
      </defs>
      <use xlink:href="#UNAVAILABLE-4e2d" transform="translate(0 0.75)"/>
      <use xlink:href="#UNAVAILABLE-5fc3" transform="translate(100 0.75)"/>
      <use xlink:href="#UNAVAILABLE-5f0f" transform="translate(200 0.75)"/>
      <use xlink:href="#UNAVAILABLE-2c" transform="translate(300 0.75)"/>
      <use xlink:href="#UNAVAILABLE-20" transform="translate(327.294922 0.75)"/>
      <use xlink:href="#DejaVuSans-52" transform="translate(377.294922 0.75)"/>
      <use xlink:href="#DejaVuSans-3d" transform="translate(466.259766 0.75)"/>
      <use xlink:href="#DejaVuSans-30" transform="translate(569.53125 0.75)"/>
      <use xlink:href="#DejaVuSans-2e" transform="translate(633.154297 0.75)"/>
      <use xlink:href="#DejaVuSans-35" transform="translate(664.941406 0.75)"/>
      <use xlink:href="#DejaVuSans-2c" transform="translate(728.564453 0.75)"/>
      <use xlink:href="#DejaVuSans-53" transform="translate(779.833984 0.75)"/>
      <use xlink:href="#DejaVuSans-4e" transform="translate(843.310547 0.75)"/>
      <use xlink:href="#DejaVuSans-52" transform="translate(914.490234 0.75)"/>
      <use xlink:href="#DejaVuSans-74" transform="translate(984.929688 -15.65625)scale(0.7)"/>
      <use xlink:href="#DejaVuSans-72" transform="translate(1012.375977 -15.65625)scale(0.7)"/>
      <use xlink:href="#DejaVuSans-61" transform="translate(1041.155273 -15.65625)scale(0.7)"/>
      <use xlink:href="#DejaVuSans-69" transform="translate(1084.050781 -15.65625)scale(0.7)"/>
      <use xlink:href="#DejaVuSans-6e" transform="translate(1103.499023 -15.65625)scale(0.7)"/>
      <use xlink:href="#DejaVuSans-3d" transform="translate(1170.081055 0.75)"/>
      <use xlink:href="#DejaVuSans-31" transform="translate(1273.352539 0.75)"/>
      <use xlink:href="#DejaVuSans-30" transform="translate(1336.975586 0.75)"/>
      <use xlink:href="#DejaVuSans-28" transform="translate(1400.598633 0.75)"/>
      <use xlink:href="#DejaVuSans-64" transform="translate(1439.612305 0.75)"/>
      <use xlink:href="#DejaVuSans-42" transform="translate(1503.088867 0.75)"/>
      <use xlink:href="#DejaVuSans-29" transform="translate(1571.692383 0.75)"/>
     </g>
    </g>
    <g id="line2d_43">
     <path d="M 190.93976 455.138666 
L 216.93976 455.138666 
L 242.93976 455.138666 
" style="fill: none; stroke-dasharray: 15,15; stroke-dashoffset: 0; stroke: #ff0000; stroke-width: 3"/>
    </g>
    <g id="text_17">
     <!-- 联邦式, $\mathrm{R}=0.5,\mathrm{SNR}_\mathrm{train}=10\mathrm{(dB)}$ -->
     <g transform="translate(263.73976 464.238666)scale(0.26 -0.26)">
      <use xlink:href="#UNAVAILABLE-8054" transform="translate(0 0.359375)"/>
      <use xlink:href="#UNAVAILABLE-90a6" transform="translate(100 0.359375)"/>
      <use xlink:href="#UNAVAILABLE-5f0f" transform="translate(200 0.359375)"/>
      <use xlink:href="#UNAVAILABLE-2c" transform="translate(300 0.359375)"/>
      <use xlink:href="#UNAVAILABLE-20" transform="translate(327.294922 0.359375)"/>
      <use xlink:href="#DejaVuSans-52" transform="translate(377.294922 0.359375)"/>
      <use xlink:href="#DejaVuSans-3d" transform="translate(466.259766 0.359375)"/>
      <use xlink:href="#DejaVuSans-30" transform="translate(569.53125 0.359375)"/>
      <use xlink:href="#DejaVuSans-2e" transform="translate(633.154297 0.359375)"/>
      <use xlink:href="#DejaVuSans-35" transform="translate(664.941406 0.359375)"/>
      <use xlink:href="#DejaVuSans-2c" transform="translate(728.564453 0.359375)"/>
      <use xlink:href="#DejaVuSans-53" transform="translate(779.833984 0.359375)"/>
      <use xlink:href="#DejaVuSans-4e" transform="translate(843.310547 0.359375)"/>
      <use xlink:href="#DejaVuSans-52" transform="translate(914.490234 0.359375)"/>
      <use xlink:href="#DejaVuSans-74" transform="translate(984.929688 -16.046875)scale(0.7)"/>
      <use xlink:href="#DejaVuSans-72" transform="translate(1012.375977 -16.046875)scale(0.7)"/>
      <use xlink:href="#DejaVuSans-61" transform="translate(1041.155273 -16.046875)scale(0.7)"/>
      <use xlink:href="#DejaVuSans-69" transform="translate(1084.050781 -16.046875)scale(0.7)"/>
      <use xlink:href="#DejaVuSans-6e" transform="translate(1103.499023 -16.046875)scale(0.7)"/>
      <use xlink:href="#DejaVuSans-3d" transform="translate(1170.081055 0.359375)"/>
      <use xlink:href="#DejaVuSans-31" transform="translate(1273.352539 0.359375)"/>
      <use xlink:href="#DejaVuSans-30" transform="translate(1336.975586 0.359375)"/>
      <use xlink:href="#DejaVuSans-28" transform="translate(1400.598633 0.359375)"/>
      <use xlink:href="#DejaVuSans-64" transform="translate(1439.612305 0.359375)"/>
      <use xlink:href="#DejaVuSans-42" transform="translate(1503.088867 0.359375)"/>
      <use xlink:href="#DejaVuSans-29" transform="translate(1571.692383 0.359375)"/>
     </g>
    </g>
    <g id="line2d_44">
     <path d="M 190.93976 485.298666 
L 216.93976 485.298666 
L 242.93976 485.298666 
" style="fill: none; stroke: #000000; stroke-width: 3; stroke-linecap: square"/>
    </g>
    <g id="text_18">
     <!-- 中心式, $\mathrm{R}=0.2,\mathrm{SNR}_\mathrm{train}=2\mathrm{(dB)}$ -->
     <g transform="translate(263.73976 494.398666)scale(0.26 -0.26)">
      <use xlink:href="#UNAVAILABLE-4e2d" transform="translate(0 0.75)"/>
      <use xlink:href="#UNAVAILABLE-5fc3" transform="translate(100 0.75)"/>
      <use xlink:href="#UNAVAILABLE-5f0f" transform="translate(200 0.75)"/>
      <use xlink:href="#UNAVAILABLE-2c" transform="translate(300 0.75)"/>
      <use xlink:href="#UNAVAILABLE-20" transform="translate(327.294922 0.75)"/>
      <use xlink:href="#DejaVuSans-52" transform="translate(377.294922 0.75)"/>
      <use xlink:href="#DejaVuSans-3d" transform="translate(466.259766 0.75)"/>
      <use xlink:href="#DejaVuSans-30" transform="translate(569.53125 0.75)"/>
      <use xlink:href="#DejaVuSans-2e" transform="translate(633.154297 0.75)"/>
      <use xlink:href="#DejaVuSans-32" transform="translate(659.441406 0.75)"/>
      <use xlink:href="#DejaVuSans-2c" transform="translate(723.064453 0.75)"/>
      <use xlink:href="#DejaVuSans-53" transform="translate(774.333984 0.75)"/>
      <use xlink:href="#DejaVuSans-4e" transform="translate(837.810547 0.75)"/>
      <use xlink:href="#DejaVuSans-52" transform="translate(908.990234 0.75)"/>
      <use xlink:href="#DejaVuSans-74" transform="translate(979.429688 -15.65625)scale(0.7)"/>
      <use xlink:href="#DejaVuSans-72" transform="translate(1006.875977 -15.65625)scale(0.7)"/>
      <use xlink:href="#DejaVuSans-61" transform="translate(1035.655273 -15.65625)scale(0.7)"/>
      <use xlink:href="#DejaVuSans-69" transform="translate(1078.550781 -15.65625)scale(0.7)"/>
      <use xlink:href="#DejaVuSans-6e" transform="translate(1097.999023 -15.65625)scale(0.7)"/>
      <use xlink:href="#DejaVuSans-3d" transform="translate(1164.581055 0.75)"/>
      <use xlink:href="#DejaVuSans-32" transform="translate(1267.852539 0.75)"/>
      <use xlink:href="#DejaVuSans-28" transform="translate(1331.475586 0.75)"/>
      <use xlink:href="#DejaVuSans-64" transform="translate(1370.489258 0.75)"/>
      <use xlink:href="#DejaVuSans-42" transform="translate(1433.96582 0.75)"/>
      <use xlink:href="#DejaVuSans-29" transform="translate(1502.569336 0.75)"/>
     </g>
    </g>
    <g id="line2d_45">
     <path d="M 190.93976 515.458666 
L 216.93976 515.458666 
L 242.93976 515.458666 
" style="fill: none; stroke-dasharray: 15,15; stroke-dashoffset: 0; stroke: #000000; stroke-width: 3"/>
    </g>
    <g id="text_19">
     <!-- 联邦式, $\mathrm{R}=0.2,\mathrm{SNR}_\mathrm{train}=2\mathrm{(dB)}$ -->
     <g transform="translate(263.73976 524.558666)scale(0.26 -0.26)">
      <use xlink:href="#UNAVAILABLE-8054" transform="translate(0 0.359375)"/>
      <use xlink:href="#UNAVAILABLE-90a6" transform="translate(100 0.359375)"/>
      <use xlink:href="#UNAVAILABLE-5f0f" transform="translate(200 0.359375)"/>
      <use xlink:href="#UNAVAILABLE-2c" transform="translate(300 0.359375)"/>
      <use xlink:href="#UNAVAILABLE-20" transform="translate(327.294922 0.359375)"/>
      <use xlink:href="#DejaVuSans-52" transform="translate(377.294922 0.359375)"/>
      <use xlink:href="#DejaVuSans-3d" transform="translate(466.259766 0.359375)"/>
      <use xlink:href="#DejaVuSans-30" transform="translate(569.53125 0.359375)"/>
      <use xlink:href="#DejaVuSans-2e" transform="translate(633.154297 0.359375)"/>
      <use xlink:href="#DejaVuSans-32" transform="translate(659.441406 0.359375)"/>
      <use xlink:href="#DejaVuSans-2c" transform="translate(723.064453 0.359375)"/>
      <use xlink:href="#DejaVuSans-53" transform="translate(774.333984 0.359375)"/>
      <use xlink:href="#DejaVuSans-4e" transform="translate(837.810547 0.359375)"/>
      <use xlink:href="#DejaVuSans-52" transform="translate(908.990234 0.359375)"/>
      <use xlink:href="#DejaVuSans-74" transform="translate(979.429688 -16.046875)scale(0.7)"/>
      <use xlink:href="#DejaVuSans-72" transform="translate(1006.875977 -16.046875)scale(0.7)"/>
      <use xlink:href="#DejaVuSans-61" transform="translate(1035.655273 -16.046875)scale(0.7)"/>
      <use xlink:href="#DejaVuSans-69" transform="translate(1078.550781 -16.046875)scale(0.7)"/>
      <use xlink:href="#DejaVuSans-6e" transform="translate(1097.999023 -16.046875)scale(0.7)"/>
      <use xlink:href="#DejaVuSans-3d" transform="translate(1164.581055 0.359375)"/>
      <use xlink:href="#DejaVuSans-32" transform="translate(1267.852539 0.359375)"/>
      <use xlink:href="#DejaVuSans-28" transform="translate(1331.475586 0.359375)"/>
      <use xlink:href="#DejaVuSans-64" transform="translate(1370.489258 0.359375)"/>
      <use xlink:href="#DejaVuSans-42" transform="translate(1433.96582 0.359375)"/>
      <use xlink:href="#DejaVuSans-29" transform="translate(1502.569336 0.359375)"/>
     </g>
    </g>
   </g>
  </g>
  <g id="text_20">
   <!-- non-IID MNIST, AutoEncoder+LeNet -->
   <g transform="translate(129.785156 23.83149)scale(0.3 -0.3)">
    <defs>
     <path id="TimesNewRomanPSMT-6e" d="M 1034 2341 
Q 1538 2947 1994 2947 
Q 2228 2947 2397 2830 
Q 2566 2713 2666 2444 
Q 2734 2256 2734 1869 
L 2734 647 
Q 2734 375 2778 278 
Q 2813 200 2889 156 
Q 2966 113 3172 113 
L 3172 0 
L 1756 0 
L 1756 113 
L 1816 113 
Q 2016 113 2095 173 
Q 2175 234 2206 353 
Q 2219 400 2219 647 
L 2219 1819 
Q 2219 2209 2117 2386 
Q 2016 2563 1775 2563 
Q 1403 2563 1034 2156 
L 1034 647 
Q 1034 356 1069 288 
Q 1113 197 1189 155 
Q 1266 113 1500 113 
L 1500 0 
L 84 0 
L 84 113 
L 147 113 
Q 366 113 442 223 
Q 519 334 519 647 
L 519 1709 
Q 519 2225 495 2337 
Q 472 2450 423 2490 
Q 375 2531 294 2531 
Q 206 2531 84 2484 
L 38 2597 
L 900 2947 
L 1034 2947 
L 1034 2341 
z
" transform="scale(0.015625)"/>
     <path id="TimesNewRomanPSMT-6f" d="M 1600 2947 
Q 2250 2947 2644 2453 
Q 2978 2031 2978 1484 
Q 2978 1100 2793 706 
Q 2609 313 2286 112 
Q 1963 -88 1566 -88 
Q 919 -88 538 428 
Q 216 863 216 1403 
Q 216 1797 411 2186 
Q 606 2575 925 2761 
Q 1244 2947 1600 2947 
z
M 1503 2744 
Q 1338 2744 1170 2645 
Q 1003 2547 900 2300 
Q 797 2053 797 1666 
Q 797 1041 1045 587 
Q 1294 134 1700 134 
Q 2003 134 2200 384 
Q 2397 634 2397 1244 
Q 2397 2006 2069 2444 
Q 1847 2744 1503 2744 
z
" transform="scale(0.015625)"/>
     <path id="TimesNewRomanPSMT-2d" d="M 259 1672 
L 1875 1672 
L 1875 1200 
L 259 1200 
L 259 1672 
z
" transform="scale(0.015625)"/>
     <path id="TimesNewRomanPSMT-49" d="M 1975 116 
L 1975 0 
L 159 0 
L 159 116 
L 309 116 
Q 572 116 691 269 
Q 766 369 766 750 
L 766 3488 
Q 766 3809 725 3913 
Q 694 3991 597 4047 
Q 459 4122 309 4122 
L 159 4122 
L 159 4238 
L 1975 4238 
L 1975 4122 
L 1822 4122 
Q 1563 4122 1444 3969 
Q 1366 3869 1366 3488 
L 1366 750 
Q 1366 428 1406 325 
Q 1438 247 1538 191 
Q 1672 116 1822 116 
L 1975 116 
z
" transform="scale(0.015625)"/>
     <path id="TimesNewRomanPSMT-44" d="M 109 0 
L 109 116 
L 269 116 
Q 538 116 650 288 
Q 719 391 719 750 
L 719 3488 
Q 719 3884 631 3984 
Q 509 4122 269 4122 
L 109 4122 
L 109 4238 
L 1834 4238 
Q 2784 4238 3279 4022 
Q 3775 3806 4076 3303 
Q 4378 2800 4378 2141 
Q 4378 1256 3841 663 
Q 3238 0 2003 0 
L 109 0 
z
M 1319 306 
Q 1716 219 1984 219 
Q 2709 219 3187 728 
Q 3666 1238 3666 2109 
Q 3666 2988 3187 3494 
Q 2709 4000 1959 4000 
Q 1678 4000 1319 3909 
L 1319 306 
z
" transform="scale(0.015625)"/>
     <path id="TimesNewRomanPSMT-20" transform="scale(0.015625)"/>
     <path id="TimesNewRomanPSMT-4d" d="M 2619 0 
L 981 3566 
L 981 734 
Q 981 344 1066 247 
Q 1181 116 1431 116 
L 1581 116 
L 1581 0 
L 106 0 
L 106 116 
L 256 116 
Q 525 116 638 278 
Q 706 378 706 734 
L 706 3503 
Q 706 3784 644 3909 
Q 600 4000 483 4061 
Q 366 4122 106 4122 
L 106 4238 
L 1306 4238 
L 2844 922 
L 4356 4238 
L 5556 4238 
L 5556 4122 
L 5409 4122 
Q 5138 4122 5025 3959 
Q 4956 3859 4956 3503 
L 4956 734 
Q 4956 344 5044 247 
Q 5159 116 5409 116 
L 5556 116 
L 5556 0 
L 3756 0 
L 3756 116 
L 3906 116 
Q 4178 116 4288 278 
Q 4356 378 4356 734 
L 4356 3566 
L 2722 0 
L 2619 0 
z
" transform="scale(0.015625)"/>
     <path id="TimesNewRomanPSMT-4e" d="M -84 4238 
L 1066 4238 
L 3656 1059 
L 3656 3503 
Q 3656 3894 3569 3991 
Q 3453 4122 3203 4122 
L 3056 4122 
L 3056 4238 
L 4531 4238 
L 4531 4122 
L 4381 4122 
Q 4113 4122 4000 3959 
Q 3931 3859 3931 3503 
L 3931 -69 
L 3819 -69 
L 1025 3344 
L 1025 734 
Q 1025 344 1109 247 
Q 1228 116 1475 116 
L 1625 116 
L 1625 0 
L 150 0 
L 150 116 
L 297 116 
Q 569 116 681 278 
Q 750 378 750 734 
L 750 3681 
Q 566 3897 470 3965 
Q 375 4034 191 4094 
Q 100 4122 -84 4122 
L -84 4238 
z
" transform="scale(0.015625)"/>
     <path id="TimesNewRomanPSMT-53" d="M 2934 4334 
L 2934 2869 
L 2819 2869 
Q 2763 3291 2617 3541 
Q 2472 3791 2203 3937 
Q 1934 4084 1647 4084 
Q 1322 4084 1109 3886 
Q 897 3688 897 3434 
Q 897 3241 1031 3081 
Q 1225 2847 1953 2456 
Q 2547 2138 2764 1967 
Q 2981 1797 3098 1565 
Q 3216 1334 3216 1081 
Q 3216 600 2842 251 
Q 2469 -97 1881 -97 
Q 1697 -97 1534 -69 
Q 1438 -53 1133 45 
Q 828 144 747 144 
Q 669 144 623 97 
Q 578 50 556 -97 
L 441 -97 
L 441 1356 
L 556 1356 
Q 638 900 775 673 
Q 913 447 1195 297 
Q 1478 147 1816 147 
Q 2206 147 2432 353 
Q 2659 559 2659 841 
Q 2659 997 2573 1156 
Q 2488 1316 2306 1453 
Q 2184 1547 1640 1851 
Q 1097 2156 867 2337 
Q 638 2519 519 2737 
Q 400 2956 400 3219 
Q 400 3675 750 4004 
Q 1100 4334 1641 4334 
Q 1978 4334 2356 4169 
Q 2531 4091 2603 4091 
Q 2684 4091 2736 4139 
Q 2788 4188 2819 4334 
L 2934 4334 
z
" transform="scale(0.015625)"/>
     <path id="TimesNewRomanPSMT-54" d="M 3703 4238 
L 3750 3244 
L 3631 3244 
Q 3597 3506 3538 3619 
Q 3441 3800 3280 3886 
Q 3119 3972 2856 3972 
L 2259 3972 
L 2259 734 
Q 2259 344 2344 247 
Q 2463 116 2709 116 
L 2856 116 
L 2856 0 
L 1059 0 
L 1059 116 
L 1209 116 
Q 1478 116 1591 278 
Q 1659 378 1659 734 
L 1659 3972 
L 1150 3972 
Q 853 3972 728 3928 
Q 566 3869 450 3700 
Q 334 3531 313 3244 
L 194 3244 
L 244 4238 
L 3703 4238 
z
" transform="scale(0.015625)"/>
     <path id="TimesNewRomanPSMT-2c" d="M 344 -1066 
L 344 -928 
Q 666 -822 842 -598 
Q 1019 -375 1019 -125 
Q 1019 -66 991 -25 
Q 969 3 947 3 
Q 913 3 797 -59 
Q 741 -88 678 -88 
Q 525 -88 434 3 
Q 344 94 344 253 
Q 344 406 461 515 
Q 578 625 747 625 
Q 953 625 1114 445 
Q 1275 266 1275 -31 
Q 1275 -353 1051 -629 
Q 828 -906 344 -1066 
z
" transform="scale(0.015625)"/>
     <path id="TimesNewRomanPSMT-41" d="M 2928 1419 
L 1288 1419 
L 1000 750 
Q 894 503 894 381 
Q 894 284 986 211 
Q 1078 138 1384 116 
L 1384 0 
L 50 0 
L 50 116 
Q 316 163 394 238 
Q 553 388 747 847 
L 2238 4334 
L 2347 4334 
L 3822 809 
Q 4000 384 4145 257 
Q 4291 131 4550 116 
L 4550 0 
L 2878 0 
L 2878 116 
Q 3131 128 3220 200 
Q 3309 272 3309 375 
Q 3309 513 3184 809 
L 2928 1419 
z
M 2841 1650 
L 2122 3363 
L 1384 1650 
L 2841 1650 
z
" transform="scale(0.015625)"/>
     <path id="TimesNewRomanPSMT-75" d="M 2709 2863 
L 2709 1128 
Q 2709 631 2732 520 
Q 2756 409 2807 365 
Q 2859 322 2928 322 
Q 3025 322 3147 375 
L 3191 266 
L 2334 -88 
L 2194 -88 
L 2194 519 
Q 1825 119 1631 15 
Q 1438 -88 1222 -88 
Q 981 -88 804 51 
Q 628 191 559 409 
Q 491 628 491 1028 
L 491 2306 
Q 491 2509 447 2587 
Q 403 2666 317 2708 
Q 231 2750 6 2747 
L 6 2863 
L 1009 2863 
L 1009 947 
Q 1009 547 1148 422 
Q 1288 297 1484 297 
Q 1619 297 1789 381 
Q 1959 466 2194 703 
L 2194 2325 
Q 2194 2569 2105 2655 
Q 2016 2741 1734 2747 
L 1734 2863 
L 2709 2863 
z
" transform="scale(0.015625)"/>
     <path id="TimesNewRomanPSMT-74" d="M 1031 3803 
L 1031 2863 
L 1700 2863 
L 1700 2644 
L 1031 2644 
L 1031 788 
Q 1031 509 1111 412 
Q 1191 316 1316 316 
Q 1419 316 1516 380 
Q 1613 444 1666 569 
L 1788 569 
Q 1678 263 1478 108 
Q 1278 -47 1066 -47 
Q 922 -47 784 33 
Q 647 113 581 261 
Q 516 409 516 719 
L 516 2644 
L 63 2644 
L 63 2747 
Q 234 2816 414 2980 
Q 594 3144 734 3369 
Q 806 3488 934 3803 
L 1031 3803 
z
" transform="scale(0.015625)"/>
     <path id="TimesNewRomanPSMT-45" d="M 1338 4006 
L 1338 2331 
L 2269 2331 
Q 2631 2331 2753 2441 
Q 2916 2584 2934 2947 
L 3050 2947 
L 3050 1472 
L 2934 1472 
Q 2891 1781 2847 1869 
Q 2791 1978 2662 2040 
Q 2534 2103 2269 2103 
L 1338 2103 
L 1338 706 
Q 1338 425 1363 364 
Q 1388 303 1450 267 
Q 1513 231 1688 231 
L 2406 231 
Q 2766 231 2928 281 
Q 3091 331 3241 478 
Q 3434 672 3638 1063 
L 3763 1063 
L 3397 0 
L 131 0 
L 131 116 
L 281 116 
Q 431 116 566 188 
Q 666 238 702 338 
Q 738 438 738 747 
L 738 3500 
Q 738 3903 656 3997 
Q 544 4122 281 4122 
L 131 4122 
L 131 4238 
L 3397 4238 
L 3444 3309 
L 3322 3309 
Q 3256 3644 3176 3769 
Q 3097 3894 2941 3959 
Q 2816 4006 2500 4006 
L 1338 4006 
z
" transform="scale(0.015625)"/>
     <path id="TimesNewRomanPSMT-63" d="M 2631 1088 
Q 2516 522 2178 217 
Q 1841 -88 1431 -88 
Q 944 -88 581 321 
Q 219 731 219 1428 
Q 219 2103 620 2525 
Q 1022 2947 1584 2947 
Q 2006 2947 2278 2723 
Q 2550 2500 2550 2259 
Q 2550 2141 2473 2067 
Q 2397 1994 2259 1994 
Q 2075 1994 1981 2113 
Q 1928 2178 1911 2362 
Q 1894 2547 1784 2644 
Q 1675 2738 1481 2738 
Q 1169 2738 978 2506 
Q 725 2200 725 1697 
Q 725 1184 976 792 
Q 1228 400 1656 400 
Q 1963 400 2206 609 
Q 2378 753 2541 1131 
L 2631 1088 
z
" transform="scale(0.015625)"/>
     <path id="TimesNewRomanPSMT-64" d="M 2222 322 
Q 2013 103 1813 7 
Q 1613 -88 1381 -88 
Q 913 -88 563 304 
Q 213 697 213 1313 
Q 213 1928 600 2439 
Q 988 2950 1597 2950 
Q 1975 2950 2222 2709 
L 2222 3238 
Q 2222 3728 2198 3840 
Q 2175 3953 2125 3993 
Q 2075 4034 2000 4034 
Q 1919 4034 1784 3984 
L 1744 4094 
L 2597 4444 
L 2738 4444 
L 2738 1134 
Q 2738 631 2761 520 
Q 2784 409 2836 365 
Q 2888 322 2956 322 
Q 3041 322 3181 375 
L 3216 266 
L 2366 -88 
L 2222 -88 
L 2222 322 
z
M 2222 541 
L 2222 2016 
Q 2203 2228 2109 2403 
Q 2016 2578 1861 2667 
Q 1706 2756 1559 2756 
Q 1284 2756 1069 2509 
Q 784 2184 784 1559 
Q 784 928 1059 592 
Q 1334 256 1672 256 
Q 1956 256 2222 541 
z
" transform="scale(0.015625)"/>
     <path id="TimesNewRomanPSMT-65" d="M 681 1784 
Q 678 1147 991 784 
Q 1303 422 1725 422 
Q 2006 422 2214 576 
Q 2422 731 2563 1106 
L 2659 1044 
Q 2594 616 2278 264 
Q 1963 -88 1488 -88 
Q 972 -88 605 314 
Q 238 716 238 1394 
Q 238 2128 614 2539 
Q 991 2950 1559 2950 
Q 2041 2950 2350 2633 
Q 2659 2316 2659 1784 
L 681 1784 
z
M 681 1966 
L 2006 1966 
Q 1991 2241 1941 2353 
Q 1863 2528 1708 2628 
Q 1553 2728 1384 2728 
Q 1125 2728 920 2526 
Q 716 2325 681 1966 
z
" transform="scale(0.015625)"/>
     <path id="TimesNewRomanPSMT-72" d="M 1038 2947 
L 1038 2303 
Q 1397 2947 1775 2947 
Q 1947 2947 2059 2842 
Q 2172 2738 2172 2600 
Q 2172 2478 2090 2393 
Q 2009 2309 1897 2309 
Q 1788 2309 1652 2417 
Q 1516 2525 1450 2525 
Q 1394 2525 1328 2463 
Q 1188 2334 1038 2041 
L 1038 669 
Q 1038 431 1097 309 
Q 1138 225 1241 169 
Q 1344 113 1538 113 
L 1538 0 
L 72 0 
L 72 113 
Q 291 113 397 181 
Q 475 231 506 341 
Q 522 394 522 644 
L 522 1753 
Q 522 2253 501 2348 
Q 481 2444 426 2487 
Q 372 2531 291 2531 
Q 194 2531 72 2484 
L 41 2597 
L 906 2947 
L 1038 2947 
z
" transform="scale(0.015625)"/>
     <path id="TimesNewRomanPSMT-2b" d="M 1672 441 
L 1672 2000 
L 116 2000 
L 116 2256 
L 1672 2256 
L 1672 3809 
L 1922 3809 
L 1922 2256 
L 3484 2256 
L 3484 2000 
L 1922 2000 
L 1922 441 
L 1672 441 
z
" transform="scale(0.015625)"/>
     <path id="TimesNewRomanPSMT-4c" d="M 3669 1172 
L 3772 1150 
L 3409 0 
L 128 0 
L 128 116 
L 288 116 
Q 556 116 672 291 
Q 738 391 738 753 
L 738 3488 
Q 738 3884 650 3984 
Q 528 4122 288 4122 
L 128 4122 
L 128 4238 
L 2047 4238 
L 2047 4122 
Q 1709 4125 1573 4059 
Q 1438 3994 1388 3894 
Q 1338 3794 1338 3416 
L 1338 753 
Q 1338 494 1388 397 
Q 1425 331 1503 300 
Q 1581 269 1991 269 
L 2300 269 
Q 2788 269 2984 341 
Q 3181 413 3343 595 
Q 3506 778 3669 1172 
z
" transform="scale(0.015625)"/>
    </defs>
    <use xlink:href="#TimesNewRomanPSMT-6e"/>
    <use xlink:href="#TimesNewRomanPSMT-6f" x="50"/>
    <use xlink:href="#TimesNewRomanPSMT-6e" x="100"/>
    <use xlink:href="#TimesNewRomanPSMT-2d" x="150"/>
    <use xlink:href="#TimesNewRomanPSMT-49" x="183.300781"/>
    <use xlink:href="#TimesNewRomanPSMT-49" x="216.601562"/>
    <use xlink:href="#TimesNewRomanPSMT-44" x="249.902344"/>
    <use xlink:href="#TimesNewRomanPSMT-20" x="322.119141"/>
    <use xlink:href="#TimesNewRomanPSMT-4d" x="347.119141"/>
    <use xlink:href="#TimesNewRomanPSMT-4e" x="436.035156"/>
    <use xlink:href="#TimesNewRomanPSMT-49" x="508.251953"/>
    <use xlink:href="#TimesNewRomanPSMT-53" x="541.552734"/>
    <use xlink:href="#TimesNewRomanPSMT-54" x="597.167969"/>
    <use xlink:href="#TimesNewRomanPSMT-2c" x="650.876953"/>
    <use xlink:href="#TimesNewRomanPSMT-20" x="675.876953"/>
    <use xlink:href="#TimesNewRomanPSMT-41" x="695.376953"/>
    <use xlink:href="#TimesNewRomanPSMT-75" x="767.59375"/>
    <use xlink:href="#TimesNewRomanPSMT-74" x="817.59375"/>
    <use xlink:href="#TimesNewRomanPSMT-6f" x="845.376953"/>
    <use xlink:href="#TimesNewRomanPSMT-45" x="895.376953"/>
    <use xlink:href="#TimesNewRomanPSMT-6e" x="956.460938"/>
    <use xlink:href="#TimesNewRomanPSMT-63" x="1006.460938"/>
    <use xlink:href="#TimesNewRomanPSMT-6f" x="1050.845703"/>
    <use xlink:href="#TimesNewRomanPSMT-64" x="1100.845703"/>
    <use xlink:href="#TimesNewRomanPSMT-65" x="1150.845703"/>
    <use xlink:href="#TimesNewRomanPSMT-72" x="1195.230469"/>
    <use xlink:href="#TimesNewRomanPSMT-2b" x="1228.53125"/>
    <use xlink:href="#TimesNewRomanPSMT-4c" x="1284.927734"/>
    <use xlink:href="#TimesNewRomanPSMT-65" x="1346.011719"/>
    <use xlink:href="#TimesNewRomanPSMT-4e" x="1390.396484"/>
    <use xlink:href="#TimesNewRomanPSMT-65" x="1462.613281"/>
    <use xlink:href="#TimesNewRomanPSMT-74" x="1506.998047"/>
   </g>
  </g>
 </g>
 <defs>
  <clipPath id="pe0edf790b3">
   <rect x="83.908834" y="36.249158" width="609.090926" height="503.389509"/>
  </clipPath>
 </defs>
</svg>
