<?xml version="1.0" encoding="utf-8" standalone="no"?>
<!DOCTYPE svg PUBLIC "-//W3C//DTD SVG 1.1//EN"
  "http://www.w3.org/Graphics/SVG/1.1/DTD/svg11.dtd">
<svg xmlns:xlink="http://www.w3.org/1999/xlink" width="720pt" height="612pt" viewBox="0 0 720 612" xmlns="http://www.w3.org/2000/svg" version="1.1">
 <metadata>
  <rdf:RDF xmlns:dc="http://purl.org/dc/elements/1.1/" xmlns:cc="http://creativecommons.org/ns#" xmlns:rdf="http://www.w3.org/1999/02/22-rdf-syntax-ns#">
   <cc:Work>
    <dc:type rdf:resource="http://purl.org/dc/dcmitype/StillImage"/>
    <dc:date>2023-12-03T13:49:53.005867</dc:date>
    <dc:format>image/svg+xml</dc:format>
    <dc:creator>
     <cc:Agent>
      <dc:title>Matplotlib v3.5.2, https://matplotlib.org/</dc:title>
     </cc:Agent>
    </dc:creator>
   </cc:Work>
  </rdf:RDF>
 </metadata>
 <defs>
  <style type="text/css">*{stroke-linejoin: round; stroke-linecap: butt}</style>
 </defs>
 <g id="figure_1">
  <g id="patch_1">
   <path d="M 0 612 
L 720 612 
L 720 0 
L 0 0 
z
" style="fill: #ffffff"/>
  </g>
  <g id="axes_1">
   <g id="patch_2">
    <path d="M 75.843209 539.53476 
L 716.99976 539.53476 
L 716.99976 36.249158 
L 75.843209 36.249158 
z
" style="fill: #ffffff"/>
   </g>
   <g id="matplotlib.axis_1">
    <g id="xtick_1">
     <g id="line2d_1">
      <path d="M 177.845387 539.53476 
L 177.845387 36.249158 
" clip-path="url(#p1090573628)" style="fill: none; stroke-dasharray: 2.5,5; stroke-dashoffset: 0; stroke: #b0b0b0; stroke-width: 0.5"/>
     </g>
     <g id="line2d_2">
      <defs>
       <path id="md748f49af2" d="M 0 0 
L 0 -3.5 
" style="stroke: #000000; stroke-width: 2"/>
      </defs>
      <g>
       <use xlink:href="#md748f49af2" x="177.845387" y="539.53476" style="stroke: #000000; stroke-width: 2"/>
      </g>
     </g>
     <g id="line2d_3">
      <defs>
       <path id="m2f91885352" d="M 0 0 
L 0 3.5 
" style="stroke: #000000; stroke-width: 2"/>
      </defs>
      <g>
       <use xlink:href="#m2f91885352" x="177.845387" y="36.249158" style="stroke: #000000; stroke-width: 2"/>
      </g>
     </g>
     <g id="text_1">
      <!-- 0 -->
      <g transform="translate(169.845387 565.25476)scale(0.32 -0.32)">
       <defs>
        <path id="TimesNewRomanPSMT-30" d="M 231 2094 
Q 231 2819 450 3342 
Q 669 3866 1031 4122 
Q 1313 4325 1613 4325 
Q 2100 4325 2488 3828 
Q 2972 3213 2972 2159 
Q 2972 1422 2759 906 
Q 2547 391 2217 158 
Q 1888 -75 1581 -75 
Q 975 -75 572 641 
Q 231 1244 231 2094 
z
M 844 2016 
Q 844 1141 1059 588 
Q 1238 122 1591 122 
Q 1759 122 1940 273 
Q 2122 425 2216 781 
Q 2359 1319 2359 2297 
Q 2359 3022 2209 3506 
Q 2097 3866 1919 4016 
Q 1791 4119 1609 4119 
Q 1397 4119 1231 3928 
Q 1006 3669 925 3112 
Q 844 2556 844 2016 
z
" transform="scale(0.015625)"/>
       </defs>
       <use xlink:href="#TimesNewRomanPSMT-30"/>
      </g>
     </g>
    </g>
    <g id="xtick_2">
     <g id="line2d_4">
      <path d="M 323.562785 539.53476 
L 323.562785 36.249158 
" clip-path="url(#p1090573628)" style="fill: none; stroke-dasharray: 2.5,5; stroke-dashoffset: 0; stroke: #b0b0b0; stroke-width: 0.5"/>
     </g>
     <g id="line2d_5">
      <g>
       <use xlink:href="#md748f49af2" x="323.562785" y="539.53476" style="stroke: #000000; stroke-width: 2"/>
      </g>
     </g>
     <g id="line2d_6">
      <g>
       <use xlink:href="#m2f91885352" x="323.562785" y="36.249158" style="stroke: #000000; stroke-width: 2"/>
      </g>
     </g>
     <g id="text_2">
      <!-- 10 -->
      <g transform="translate(307.562785 565.25476)scale(0.32 -0.32)">
       <defs>
        <path id="TimesNewRomanPSMT-31" d="M 750 3822 
L 1781 4325 
L 1884 4325 
L 1884 747 
Q 1884 391 1914 303 
Q 1944 216 2037 169 
Q 2131 122 2419 116 
L 2419 0 
L 825 0 
L 825 116 
Q 1125 122 1212 167 
Q 1300 213 1334 289 
Q 1369 366 1369 747 
L 1369 3034 
Q 1369 3497 1338 3628 
Q 1316 3728 1258 3775 
Q 1200 3822 1119 3822 
Q 1003 3822 797 3725 
L 750 3822 
z
" transform="scale(0.015625)"/>
       </defs>
       <use xlink:href="#TimesNewRomanPSMT-31"/>
       <use xlink:href="#TimesNewRomanPSMT-30" x="50"/>
      </g>
     </g>
    </g>
    <g id="xtick_3">
     <g id="line2d_7">
      <path d="M 469.280183 539.53476 
L 469.280183 36.249158 
" clip-path="url(#p1090573628)" style="fill: none; stroke-dasharray: 2.5,5; stroke-dashoffset: 0; stroke: #b0b0b0; stroke-width: 0.5"/>
     </g>
     <g id="line2d_8">
      <g>
       <use xlink:href="#md748f49af2" x="469.280183" y="539.53476" style="stroke: #000000; stroke-width: 2"/>
      </g>
     </g>
     <g id="line2d_9">
      <g>
       <use xlink:href="#m2f91885352" x="469.280183" y="36.249158" style="stroke: #000000; stroke-width: 2"/>
      </g>
     </g>
     <g id="text_3">
      <!-- 20 -->
      <g transform="translate(453.280183 565.25476)scale(0.32 -0.32)">
       <defs>
        <path id="TimesNewRomanPSMT-32" d="M 2934 816 
L 2638 0 
L 138 0 
L 138 116 
Q 1241 1122 1691 1759 
Q 2141 2397 2141 2925 
Q 2141 3328 1894 3587 
Q 1647 3847 1303 3847 
Q 991 3847 742 3664 
Q 494 3481 375 3128 
L 259 3128 
Q 338 3706 661 4015 
Q 984 4325 1469 4325 
Q 1984 4325 2329 3994 
Q 2675 3663 2675 3213 
Q 2675 2891 2525 2569 
Q 2294 2063 1775 1497 
Q 997 647 803 472 
L 1909 472 
Q 2247 472 2383 497 
Q 2519 522 2628 598 
Q 2738 675 2819 816 
L 2934 816 
z
" transform="scale(0.015625)"/>
       </defs>
       <use xlink:href="#TimesNewRomanPSMT-32"/>
       <use xlink:href="#TimesNewRomanPSMT-30" x="50"/>
      </g>
     </g>
    </g>
    <g id="xtick_4">
     <g id="line2d_10">
      <path d="M 614.997581 539.53476 
L 614.997581 36.249158 
" clip-path="url(#p1090573628)" style="fill: none; stroke-dasharray: 2.5,5; stroke-dashoffset: 0; stroke: #b0b0b0; stroke-width: 0.5"/>
     </g>
     <g id="line2d_11">
      <g>
       <use xlink:href="#md748f49af2" x="614.997581" y="539.53476" style="stroke: #000000; stroke-width: 2"/>
      </g>
     </g>
     <g id="line2d_12">
      <g>
       <use xlink:href="#m2f91885352" x="614.997581" y="36.249158" style="stroke: #000000; stroke-width: 2"/>
      </g>
     </g>
     <g id="text_4">
      <!-- 30 -->
      <g transform="translate(598.997581 565.25476)scale(0.32 -0.32)">
       <defs>
        <path id="TimesNewRomanPSMT-33" d="M 325 3431 
Q 506 3859 782 4092 
Q 1059 4325 1472 4325 
Q 1981 4325 2253 3994 
Q 2459 3747 2459 3466 
Q 2459 3003 1878 2509 
Q 2269 2356 2469 2072 
Q 2669 1788 2669 1403 
Q 2669 853 2319 450 
Q 1863 -75 997 -75 
Q 569 -75 414 31 
Q 259 138 259 259 
Q 259 350 332 419 
Q 406 488 509 488 
Q 588 488 669 463 
Q 722 447 909 348 
Q 1097 250 1169 231 
Q 1284 197 1416 197 
Q 1734 197 1970 444 
Q 2206 691 2206 1028 
Q 2206 1275 2097 1509 
Q 2016 1684 1919 1775 
Q 1784 1900 1550 2001 
Q 1316 2103 1072 2103 
L 972 2103 
L 972 2197 
Q 1219 2228 1467 2375 
Q 1716 2522 1828 2728 
Q 1941 2934 1941 3181 
Q 1941 3503 1739 3701 
Q 1538 3900 1238 3900 
Q 753 3900 428 3381 
L 325 3431 
z
" transform="scale(0.015625)"/>
       </defs>
       <use xlink:href="#TimesNewRomanPSMT-33"/>
       <use xlink:href="#TimesNewRomanPSMT-30" x="50"/>
      </g>
     </g>
    </g>
    <g id="text_5">
     <!-- $\mathrm{{SNR}}_\mathrm{{test}}\mathrm{{(dB)}}$ -->
     <g transform="translate(299.646484 602.69976)scale(0.35 -0.35)">
      <defs>
       <path id="DejaVuSans-53" d="M 3425 4513 
L 3425 3897 
Q 3066 4069 2747 4153 
Q 2428 4238 2131 4238 
Q 1616 4238 1336 4038 
Q 1056 3838 1056 3469 
Q 1056 3159 1242 3001 
Q 1428 2844 1947 2747 
L 2328 2669 
Q 3034 2534 3370 2195 
Q 3706 1856 3706 1288 
Q 3706 609 3251 259 
Q 2797 -91 1919 -91 
Q 1588 -91 1214 -16 
Q 841 59 441 206 
L 441 856 
Q 825 641 1194 531 
Q 1563 422 1919 422 
Q 2459 422 2753 634 
Q 3047 847 3047 1241 
Q 3047 1584 2836 1778 
Q 2625 1972 2144 2069 
L 1759 2144 
Q 1053 2284 737 2584 
Q 422 2884 422 3419 
Q 422 4038 858 4394 
Q 1294 4750 2059 4750 
Q 2388 4750 2728 4690 
Q 3069 4631 3425 4513 
z
" transform="scale(0.015625)"/>
       <path id="DejaVuSans-4e" d="M 628 4666 
L 1478 4666 
L 3547 763 
L 3547 4666 
L 4159 4666 
L 4159 0 
L 3309 0 
L 1241 3903 
L 1241 0 
L 628 0 
L 628 4666 
z
" transform="scale(0.015625)"/>
       <path id="DejaVuSans-52" d="M 2841 2188 
Q 3044 2119 3236 1894 
Q 3428 1669 3622 1275 
L 4263 0 
L 3584 0 
L 2988 1197 
Q 2756 1666 2539 1819 
Q 2322 1972 1947 1972 
L 1259 1972 
L 1259 0 
L 628 0 
L 628 4666 
L 2053 4666 
Q 2853 4666 3247 4331 
Q 3641 3997 3641 3322 
Q 3641 2881 3436 2590 
Q 3231 2300 2841 2188 
z
M 1259 4147 
L 1259 2491 
L 2053 2491 
Q 2509 2491 2742 2702 
Q 2975 2913 2975 3322 
Q 2975 3731 2742 3939 
Q 2509 4147 2053 4147 
L 1259 4147 
z
" transform="scale(0.015625)"/>
       <path id="DejaVuSans-74" d="M 1172 4494 
L 1172 3500 
L 2356 3500 
L 2356 3053 
L 1172 3053 
L 1172 1153 
Q 1172 725 1289 603 
Q 1406 481 1766 481 
L 2356 481 
L 2356 0 
L 1766 0 
Q 1100 0 847 248 
Q 594 497 594 1153 
L 594 3053 
L 172 3053 
L 172 3500 
L 594 3500 
L 594 4494 
L 1172 4494 
z
" transform="scale(0.015625)"/>
       <path id="DejaVuSans-65" d="M 3597 1894 
L 3597 1613 
L 953 1613 
Q 991 1019 1311 708 
Q 1631 397 2203 397 
Q 2534 397 2845 478 
Q 3156 559 3463 722 
L 3463 178 
Q 3153 47 2828 -22 
Q 2503 -91 2169 -91 
Q 1331 -91 842 396 
Q 353 884 353 1716 
Q 353 2575 817 3079 
Q 1281 3584 2069 3584 
Q 2775 3584 3186 3129 
Q 3597 2675 3597 1894 
z
M 3022 2063 
Q 3016 2534 2758 2815 
Q 2500 3097 2075 3097 
Q 1594 3097 1305 2825 
Q 1016 2553 972 2059 
L 3022 2063 
z
" transform="scale(0.015625)"/>
       <path id="DejaVuSans-73" d="M 2834 3397 
L 2834 2853 
Q 2591 2978 2328 3040 
Q 2066 3103 1784 3103 
Q 1356 3103 1142 2972 
Q 928 2841 928 2578 
Q 928 2378 1081 2264 
Q 1234 2150 1697 2047 
L 1894 2003 
Q 2506 1872 2764 1633 
Q 3022 1394 3022 966 
Q 3022 478 2636 193 
Q 2250 -91 1575 -91 
Q 1294 -91 989 -36 
Q 684 19 347 128 
L 347 722 
Q 666 556 975 473 
Q 1284 391 1588 391 
Q 1994 391 2212 530 
Q 2431 669 2431 922 
Q 2431 1156 2273 1281 
Q 2116 1406 1581 1522 
L 1381 1569 
Q 847 1681 609 1914 
Q 372 2147 372 2553 
Q 372 3047 722 3315 
Q 1072 3584 1716 3584 
Q 2034 3584 2315 3537 
Q 2597 3491 2834 3397 
z
" transform="scale(0.015625)"/>
       <path id="DejaVuSans-28" d="M 1984 4856 
Q 1566 4138 1362 3434 
Q 1159 2731 1159 2009 
Q 1159 1288 1364 580 
Q 1569 -128 1984 -844 
L 1484 -844 
Q 1016 -109 783 600 
Q 550 1309 550 2009 
Q 550 2706 781 3412 
Q 1013 4119 1484 4856 
L 1984 4856 
z
" transform="scale(0.015625)"/>
       <path id="DejaVuSans-64" d="M 2906 2969 
L 2906 4863 
L 3481 4863 
L 3481 0 
L 2906 0 
L 2906 525 
Q 2725 213 2448 61 
Q 2172 -91 1784 -91 
Q 1150 -91 751 415 
Q 353 922 353 1747 
Q 353 2572 751 3078 
Q 1150 3584 1784 3584 
Q 2172 3584 2448 3432 
Q 2725 3281 2906 2969 
z
M 947 1747 
Q 947 1113 1208 752 
Q 1469 391 1925 391 
Q 2381 391 2643 752 
Q 2906 1113 2906 1747 
Q 2906 2381 2643 2742 
Q 2381 3103 1925 3103 
Q 1469 3103 1208 2742 
Q 947 2381 947 1747 
z
" transform="scale(0.015625)"/>
       <path id="DejaVuSans-42" d="M 1259 2228 
L 1259 519 
L 2272 519 
Q 2781 519 3026 730 
Q 3272 941 3272 1375 
Q 3272 1813 3026 2020 
Q 2781 2228 2272 2228 
L 1259 2228 
z
M 1259 4147 
L 1259 2741 
L 2194 2741 
Q 2656 2741 2882 2914 
Q 3109 3088 3109 3444 
Q 3109 3797 2882 3972 
Q 2656 4147 2194 4147 
L 1259 4147 
z
M 628 4666 
L 2241 4666 
Q 2963 4666 3353 4366 
Q 3744 4066 3744 3513 
Q 3744 3084 3544 2831 
Q 3344 2578 2956 2516 
Q 3422 2416 3680 2098 
Q 3938 1781 3938 1306 
Q 3938 681 3513 340 
Q 3088 0 2303 0 
L 628 0 
L 628 4666 
z
" transform="scale(0.015625)"/>
       <path id="DejaVuSans-29" d="M 513 4856 
L 1013 4856 
Q 1481 4119 1714 3412 
Q 1947 2706 1947 2009 
Q 1947 1309 1714 600 
Q 1481 -109 1013 -844 
L 513 -844 
Q 928 -128 1133 580 
Q 1338 1288 1338 2009 
Q 1338 2731 1133 3434 
Q 928 4138 513 4856 
z
" transform="scale(0.015625)"/>
      </defs>
      <use xlink:href="#DejaVuSans-53" transform="translate(0 0.015625)"/>
      <use xlink:href="#DejaVuSans-4e" transform="translate(63.476562 0.015625)"/>
      <use xlink:href="#DejaVuSans-52" transform="translate(134.65625 0.015625)"/>
      <use xlink:href="#DejaVuSans-74" transform="translate(205.095703 -16.390625)scale(0.7)"/>
      <use xlink:href="#DejaVuSans-65" transform="translate(232.541992 -16.390625)scale(0.7)"/>
      <use xlink:href="#DejaVuSans-73" transform="translate(275.608398 -16.390625)scale(0.7)"/>
      <use xlink:href="#DejaVuSans-74" transform="translate(312.078125 -16.390625)scale(0.7)"/>
      <use xlink:href="#DejaVuSans-28" transform="translate(342.258789 0.015625)"/>
      <use xlink:href="#DejaVuSans-64" transform="translate(381.272461 0.015625)"/>
      <use xlink:href="#DejaVuSans-42" transform="translate(444.749023 0.015625)"/>
      <use xlink:href="#DejaVuSans-29" transform="translate(513.352539 0.015625)"/>
     </g>
    </g>
   </g>
   <g id="matplotlib.axis_2">
    <g id="ytick_1">
     <g id="line2d_13">
      <path d="M 75.843209 526.054009 
L 716.99976 526.054009 
" clip-path="url(#p1090573628)" style="fill: none; stroke-dasharray: 2.5,5; stroke-dashoffset: 0; stroke: #b0b0b0; stroke-width: 0.5"/>
     </g>
     <g id="line2d_14">
      <defs>
       <path id="ma5610ceb48" d="M 0 0 
L 3.5 0 
" style="stroke: #000000; stroke-width: 2"/>
      </defs>
      <g>
       <use xlink:href="#ma5610ceb48" x="75.843209" y="526.054009" style="stroke: #000000; stroke-width: 2"/>
      </g>
     </g>
     <g id="line2d_15">
      <defs>
       <path id="m2b566b91c1" d="M 0 0 
L -3.5 0 
" style="stroke: #000000; stroke-width: 2"/>
      </defs>
      <g>
       <use xlink:href="#m2b566b91c1" x="716.99976" y="526.054009" style="stroke: #000000; stroke-width: 2"/>
      </g>
     </g>
     <g id="text_6">
      <!-- 16 -->
      <g transform="translate(40.343209 537.164009)scale(0.32 -0.32)">
       <defs>
        <path id="TimesNewRomanPSMT-36" d="M 2869 4325 
L 2869 4209 
Q 2456 4169 2195 4045 
Q 1934 3922 1679 3669 
Q 1425 3416 1258 3105 
Q 1091 2794 978 2366 
Q 1428 2675 1881 2675 
Q 2316 2675 2634 2325 
Q 2953 1975 2953 1425 
Q 2953 894 2631 456 
Q 2244 -75 1606 -75 
Q 1172 -75 869 213 
Q 275 772 275 1663 
Q 275 2231 503 2743 
Q 731 3256 1154 3653 
Q 1578 4050 1965 4187 
Q 2353 4325 2688 4325 
L 2869 4325 
z
M 925 2138 
Q 869 1716 869 1456 
Q 869 1156 980 804 
Q 1091 453 1309 247 
Q 1469 100 1697 100 
Q 1969 100 2183 356 
Q 2397 613 2397 1088 
Q 2397 1622 2184 2012 
Q 1972 2403 1581 2403 
Q 1463 2403 1327 2353 
Q 1191 2303 925 2138 
z
" transform="scale(0.015625)"/>
       </defs>
       <use xlink:href="#TimesNewRomanPSMT-31"/>
       <use xlink:href="#TimesNewRomanPSMT-36" x="50"/>
      </g>
     </g>
    </g>
    <g id="ytick_2">
     <g id="line2d_16">
      <path d="M 75.843209 449.664934 
L 716.99976 449.664934 
" clip-path="url(#p1090573628)" style="fill: none; stroke-dasharray: 2.5,5; stroke-dashoffset: 0; stroke: #b0b0b0; stroke-width: 0.5"/>
     </g>
     <g id="line2d_17">
      <g>
       <use xlink:href="#ma5610ceb48" x="75.843209" y="449.664934" style="stroke: #000000; stroke-width: 2"/>
      </g>
     </g>
     <g id="line2d_18">
      <g>
       <use xlink:href="#m2b566b91c1" x="716.99976" y="449.664934" style="stroke: #000000; stroke-width: 2"/>
      </g>
     </g>
     <g id="text_7">
      <!-- 18 -->
      <g transform="translate(40.343209 460.774934)scale(0.32 -0.32)">
       <defs>
        <path id="TimesNewRomanPSMT-38" d="M 1228 2134 
Q 725 2547 579 2797 
Q 434 3047 434 3316 
Q 434 3728 753 4026 
Q 1072 4325 1600 4325 
Q 2113 4325 2425 4047 
Q 2738 3769 2738 3413 
Q 2738 3175 2569 2928 
Q 2400 2681 1866 2347 
Q 2416 1922 2594 1678 
Q 2831 1359 2831 1006 
Q 2831 559 2490 242 
Q 2150 -75 1597 -75 
Q 994 -75 656 303 
Q 388 606 388 966 
Q 388 1247 577 1523 
Q 766 1800 1228 2134 
z
M 1719 2469 
Q 2094 2806 2194 3001 
Q 2294 3197 2294 3444 
Q 2294 3772 2109 3958 
Q 1925 4144 1606 4144 
Q 1288 4144 1088 3959 
Q 888 3775 888 3528 
Q 888 3366 970 3203 
Q 1053 3041 1206 2894 
L 1719 2469 
z
M 1375 2016 
Q 1116 1797 991 1539 
Q 866 1281 866 981 
Q 866 578 1086 336 
Q 1306 94 1647 94 
Q 1984 94 2187 284 
Q 2391 475 2391 747 
Q 2391 972 2272 1150 
Q 2050 1481 1375 2016 
z
" transform="scale(0.015625)"/>
       </defs>
       <use xlink:href="#TimesNewRomanPSMT-31"/>
       <use xlink:href="#TimesNewRomanPSMT-38" x="50"/>
      </g>
     </g>
    </g>
    <g id="ytick_3">
     <g id="line2d_19">
      <path d="M 75.843209 373.27586 
L 716.99976 373.27586 
" clip-path="url(#p1090573628)" style="fill: none; stroke-dasharray: 2.5,5; stroke-dashoffset: 0; stroke: #b0b0b0; stroke-width: 0.5"/>
     </g>
     <g id="line2d_20">
      <g>
       <use xlink:href="#ma5610ceb48" x="75.843209" y="373.27586" style="stroke: #000000; stroke-width: 2"/>
      </g>
     </g>
     <g id="line2d_21">
      <g>
       <use xlink:href="#m2b566b91c1" x="716.99976" y="373.27586" style="stroke: #000000; stroke-width: 2"/>
      </g>
     </g>
     <g id="text_8">
      <!-- 20 -->
      <g transform="translate(40.343209 384.38586)scale(0.32 -0.32)">
       <use xlink:href="#TimesNewRomanPSMT-32"/>
       <use xlink:href="#TimesNewRomanPSMT-30" x="50"/>
      </g>
     </g>
    </g>
    <g id="ytick_4">
     <g id="line2d_22">
      <path d="M 75.843209 296.886785 
L 716.99976 296.886785 
" clip-path="url(#p1090573628)" style="fill: none; stroke-dasharray: 2.5,5; stroke-dashoffset: 0; stroke: #b0b0b0; stroke-width: 0.5"/>
     </g>
     <g id="line2d_23">
      <g>
       <use xlink:href="#ma5610ceb48" x="75.843209" y="296.886785" style="stroke: #000000; stroke-width: 2"/>
      </g>
     </g>
     <g id="line2d_24">
      <g>
       <use xlink:href="#m2b566b91c1" x="716.99976" y="296.886785" style="stroke: #000000; stroke-width: 2"/>
      </g>
     </g>
     <g id="text_9">
      <!-- 22 -->
      <g transform="translate(40.343209 307.996785)scale(0.32 -0.32)">
       <use xlink:href="#TimesNewRomanPSMT-32"/>
       <use xlink:href="#TimesNewRomanPSMT-32" x="50"/>
      </g>
     </g>
    </g>
    <g id="ytick_5">
     <g id="line2d_25">
      <path d="M 75.843209 220.49771 
L 716.99976 220.49771 
" clip-path="url(#p1090573628)" style="fill: none; stroke-dasharray: 2.5,5; stroke-dashoffset: 0; stroke: #b0b0b0; stroke-width: 0.5"/>
     </g>
     <g id="line2d_26">
      <g>
       <use xlink:href="#ma5610ceb48" x="75.843209" y="220.49771" style="stroke: #000000; stroke-width: 2"/>
      </g>
     </g>
     <g id="line2d_27">
      <g>
       <use xlink:href="#m2b566b91c1" x="716.99976" y="220.49771" style="stroke: #000000; stroke-width: 2"/>
      </g>
     </g>
     <g id="text_10">
      <!-- 24 -->
      <g transform="translate(40.343209 231.60771)scale(0.32 -0.32)">
       <defs>
        <path id="TimesNewRomanPSMT-34" d="M 2978 1563 
L 2978 1119 
L 2409 1119 
L 2409 0 
L 1894 0 
L 1894 1119 
L 100 1119 
L 100 1519 
L 2066 4325 
L 2409 4325 
L 2409 1563 
L 2978 1563 
z
M 1894 1563 
L 1894 3666 
L 406 1563 
L 1894 1563 
z
" transform="scale(0.015625)"/>
       </defs>
       <use xlink:href="#TimesNewRomanPSMT-32"/>
       <use xlink:href="#TimesNewRomanPSMT-34" x="50"/>
      </g>
     </g>
    </g>
    <g id="ytick_6">
     <g id="line2d_28">
      <path d="M 75.843209 144.108636 
L 716.99976 144.108636 
" clip-path="url(#p1090573628)" style="fill: none; stroke-dasharray: 2.5,5; stroke-dashoffset: 0; stroke: #b0b0b0; stroke-width: 0.5"/>
     </g>
     <g id="line2d_29">
      <g>
       <use xlink:href="#ma5610ceb48" x="75.843209" y="144.108636" style="stroke: #000000; stroke-width: 2"/>
      </g>
     </g>
     <g id="line2d_30">
      <g>
       <use xlink:href="#m2b566b91c1" x="716.99976" y="144.108636" style="stroke: #000000; stroke-width: 2"/>
      </g>
     </g>
     <g id="text_11">
      <!-- 26 -->
      <g transform="translate(40.343209 155.218636)scale(0.32 -0.32)">
       <use xlink:href="#TimesNewRomanPSMT-32"/>
       <use xlink:href="#TimesNewRomanPSMT-36" x="50"/>
      </g>
     </g>
    </g>
    <g id="ytick_7">
     <g id="line2d_31">
      <path d="M 75.843209 67.719561 
L 716.99976 67.719561 
" clip-path="url(#p1090573628)" style="fill: none; stroke-dasharray: 2.5,5; stroke-dashoffset: 0; stroke: #b0b0b0; stroke-width: 0.5"/>
     </g>
     <g id="line2d_32">
      <g>
       <use xlink:href="#ma5610ceb48" x="75.843209" y="67.719561" style="stroke: #000000; stroke-width: 2"/>
      </g>
     </g>
     <g id="line2d_33">
      <g>
       <use xlink:href="#m2b566b91c1" x="716.99976" y="67.719561" style="stroke: #000000; stroke-width: 2"/>
      </g>
     </g>
     <g id="text_12">
      <!-- 28 -->
      <g transform="translate(40.343209 78.829561)scale(0.32 -0.32)">
       <use xlink:href="#TimesNewRomanPSMT-32"/>
       <use xlink:href="#TimesNewRomanPSMT-38" x="50"/>
      </g>
     </g>
    </g>
    <g id="text_13">
     <!-- PSNR(dB) -->
     <g transform="translate(30.174459 368.370084)rotate(-90)scale(0.35 -0.35)">
      <defs>
       <path id="UNAVAILABLE-50" d="M 1219 1888 
L 1219 372 
Q 1219 216 1251 159 
Q 1284 103 1361 53 
Q 1438 3 1597 3 
L 1803 3 
Q 1925 3 1923 -94 
Q 1922 -191 1803 -191 
L 206 -191 
Q 97 -191 101 -94 
Q 106 3 206 3 
L 397 3 
Q 531 3 606 43 
Q 681 84 711 140 
Q 741 197 741 422 
L 741 3838 
Q 741 3922 708 3978 
Q 675 4034 611 4073 
Q 547 4113 422 4113 
L 181 4113 
Q 84 4113 76 4211 
Q 69 4309 181 4309 
L 2175 4309 
Q 2466 4309 2752 4253 
Q 3038 4197 3258 4030 
Q 3478 3863 3572 3630 
Q 3666 3397 3667 3078 
Q 3669 2759 3556 2538 
Q 3403 2241 3108 2095 
Q 2813 1950 2463 1919 
Q 2113 1888 1813 1888 
L 1219 1888 
z
M 1219 2066 
L 1797 2066 
Q 2125 2066 2419 2130 
Q 2713 2194 2936 2412 
Q 3159 2631 3161 3020 
Q 3163 3409 2997 3666 
Q 2825 3928 2595 4020 
Q 2366 4113 2175 4113 
L 1700 4113 
Q 1522 4113 1423 4067 
Q 1325 4022 1272 3967 
Q 1219 3913 1219 3813 
L 1219 2066 
z
" transform="scale(0.015625)"/>
       <path id="UNAVAILABLE-53" d="M 2856 4172 
L 3219 3122 
Q 3247 3031 3175 2992 
Q 3103 2953 3047 3056 
L 2969 3197 
Q 2894 3331 2722 3556 
Q 2550 3781 2278 3967 
Q 2006 4153 1672 4150 
Q 1341 4144 1122 3953 
Q 903 3763 856 3441 
Q 809 3119 981 2884 
Q 1100 2716 1342 2600 
Q 1584 2484 2003 2359 
Q 2422 2234 2717 2092 
Q 3013 1950 3188 1686 
Q 3363 1422 3370 1083 
Q 3378 744 3203 459 
Q 3044 203 2747 29 
Q 2450 -144 2097 -169 
Q 1869 -188 1659 -150 
Q 1450 -113 1325 -72 
L 988 31 
Q 881 53 834 31 
Q 791 9 772 -31 
L 750 -97 
Q 719 -163 658 -169 
Q 597 -175 559 -72 
L 103 1131 
Q 66 1234 137 1270 
Q 209 1306 259 1228 
L 369 1041 
Q 438 916 642 650 
Q 847 384 1158 211 
Q 1469 38 1856 34 
Q 2103 31 2323 118 
Q 2544 206 2703 418 
Q 2863 631 2863 928 
Q 2859 1191 2736 1356 
Q 2613 1522 2366 1642 
Q 2119 1763 1695 1897 
Q 1272 2031 983 2167 
Q 694 2303 516 2558 
Q 338 2813 327 3150 
Q 316 3488 506 3784 
Q 678 4053 979 4203 
Q 1281 4353 1675 4344 
Q 1881 4338 2034 4292 
Q 2188 4247 2338 4167 
Q 2488 4088 2553 4103 
Q 2594 4113 2625 4144 
L 2684 4219 
Q 2713 4247 2767 4255 
Q 2822 4263 2856 4172 
z
" transform="scale(0.015625)"/>
       <path id="UNAVAILABLE-4e" d="M 1225 4309 
L 3944 613 
L 3944 3759 
Q 3944 3875 3919 3942 
Q 3894 4009 3837 4062 
Q 3781 4116 3669 4116 
L 3394 4116 
Q 3288 4116 3286 4212 
Q 3284 4309 3394 4309 
L 4594 4309 
Q 4738 4309 4752 4212 
Q 4766 4116 4609 4116 
L 4428 4116 
Q 4275 4116 4225 4078 
Q 4175 4041 4154 3983 
Q 4134 3925 4134 3800 
L 4134 -34 
Q 4134 -153 4028 -172 
Q 3922 -191 3850 -88 
L 1034 3884 
L 1034 334 
Q 1034 203 1076 139 
Q 1119 75 1184 44 
Q 1250 13 1406 13 
L 1563 13 
Q 1659 13 1673 -79 
Q 1688 -172 1544 -172 
L 344 -172 
Q 238 -172 245 -79 
Q 253 13 344 13 
L 550 13 
Q 631 13 695 47 
Q 759 81 801 151 
Q 844 222 844 334 
L 844 3750 
Q 844 3844 808 3926 
Q 772 4009 703 4062 
Q 634 4116 491 4116 
L 291 4116 
Q 172 4116 172 4212 
Q 172 4309 291 4309 
L 1225 4309 
z
" transform="scale(0.015625)"/>
       <path id="UNAVAILABLE-52" d="M 2556 2050 
L 3672 356 
Q 3744 244 3836 155 
Q 3928 66 4014 42 
Q 4100 19 4219 19 
L 4494 19 
Q 4600 19 4604 -84 
Q 4609 -188 4494 -188 
L 3494 -188 
L 2022 2050 
L 1306 2050 
L 1306 419 
Q 1306 194 1342 141 
Q 1378 88 1439 53 
Q 1500 19 1659 19 
L 1875 19 
Q 1975 19 1976 -84 
Q 1978 -188 1866 -188 
L 306 -188 
Q 222 -188 208 -84 
Q 194 19 306 19 
L 444 19 
Q 616 19 686 51 
Q 756 84 789 154 
Q 822 225 822 419 
L 822 3750 
Q 822 3869 798 3931 
Q 775 3994 715 4050 
Q 656 4106 453 4106 
L 247 4106 
Q 156 4106 137 4207 
Q 119 4309 247 4309 
L 2356 4309 
Q 2763 4309 3136 4195 
Q 3509 4081 3701 3820 
Q 3894 3559 3900 3195 
Q 3906 2831 3784 2616 
Q 3634 2356 3346 2228 
Q 3059 2100 2781 2075 
L 2556 2050 
L 2556 2050 
z
M 1306 2219 
L 2347 2219 
Q 2647 2219 2870 2314 
Q 3094 2409 3228 2653 
Q 3363 2897 3356 3159 
Q 3347 3428 3200 3651 
Q 3053 3875 2812 3990 
Q 2572 4106 2272 4106 
L 1763 4106 
Q 1581 4106 1497 4064 
Q 1413 4022 1359 3956 
Q 1306 3891 1306 3744 
L 1306 2219 
z
" transform="scale(0.015625)"/>
       <path id="UNAVAILABLE-28" d="M 1488 -909 
L 1369 -763 
Q 1216 -578 969 -207 
Q 722 163 594 503 
Q 466 844 417 1164 
Q 369 1484 366 1696 
Q 363 1909 363 2028 
Q 369 2338 417 2658 
Q 466 2978 595 3323 
Q 725 3669 983 4050 
Q 1241 4431 1488 4738 
L 1591 4866 
Q 1616 4900 1658 4931 
Q 1700 4963 1725 4961 
Q 1750 4959 1773 4931 
Q 1797 4903 1756 4834 
L 1653 4659 
Q 1547 4481 1369 4167 
Q 1191 3853 1117 3668 
Q 1044 3484 975 3225 
Q 906 2966 862 2720 
Q 819 2475 809 2192 
Q 800 1909 809 1703 
Q 819 1353 864 1092 
Q 909 831 964 636 
Q 1019 441 1123 159 
Q 1228 -122 1556 -669 
L 1653 -831 
Q 1766 -1028 1767 -1062 
Q 1769 -1097 1739 -1112 
Q 1709 -1128 1661 -1098 
Q 1613 -1069 1488 -909 
z
" transform="scale(0.015625)"/>
       <path id="UNAVAILABLE-64" d="M 2581 2575 
L 2581 3741 
Q 2581 3844 2551 3911 
Q 2522 3978 2415 4014 
Q 2309 4050 2200 4050 
L 2050 4047 
Q 1925 4044 1942 4126 
Q 1959 4209 2063 4216 
L 2244 4225 
Q 2347 4228 2453 4248 
Q 2559 4269 2673 4311 
Q 2788 4353 2856 4397 
L 2969 4466 
L 2969 441 
Q 2969 269 2998 211 
Q 3028 153 3093 111 
Q 3159 69 3288 69 
L 3384 69 
Q 3497 69 3495 -20 
Q 3494 -109 3394 -109 
L 2581 -109 
L 2581 138 
Q 2484 50 2414 -4 
Q 2344 -59 2173 -145 
Q 2003 -231 1656 -231 
Q 1372 -234 1105 -143 
Q 838 -53 602 167 
Q 366 388 266 716 
Q 166 1044 172 1372 
Q 178 1681 272 1976 
Q 366 2272 561 2525 
Q 756 2778 1020 2906 
Q 1284 3034 1622 3031 
Q 1878 3028 2097 2942 
Q 2316 2856 2416 2747 
L 2581 2575 
L 2581 2575 
z
M 2581 431 
L 2581 2316 
Q 2513 2400 2420 2506 
Q 2328 2613 2108 2736 
Q 1888 2859 1647 2850 
Q 1409 2838 1179 2680 
Q 950 2522 798 2192 
Q 647 1863 626 1416 
Q 606 969 750 638 
Q 881 331 1128 146 
Q 1375 -38 1666 -50 
Q 1981 -69 2182 65 
Q 2384 200 2484 319 
L 2581 431 
L 2581 431 
z
" transform="scale(0.015625)"/>
       <path id="UNAVAILABLE-42" d="M 481 4091 
L 300 4091 
Q 197 4091 197 4192 
Q 197 4294 300 4294 
L 2406 4294 
Q 2638 4294 2931 4217 
Q 3225 4141 3450 3864 
Q 3675 3588 3669 3216 
Q 3663 2991 3566 2811 
Q 3469 2631 3289 2484 
Q 3109 2338 2934 2272 
L 2725 2188 
Q 2931 2153 3120 2103 
Q 3309 2053 3509 1886 
Q 3709 1719 3795 1486 
Q 3881 1253 3875 1009 
Q 3863 684 3723 446 
Q 3584 209 3362 67 
Q 3141 -75 2902 -129 
Q 2663 -184 2391 -184 
L 334 -184 
Q 241 -184 228 -84 
Q 216 16 344 16 
L 506 16 
Q 653 16 726 95 
Q 800 175 800 353 
L 800 3788 
Q 800 3938 719 4014 
Q 638 4091 481 4091 
z
M 2294 4091 
L 1697 4091 
Q 1456 4091 1365 3984 
Q 1275 3878 1275 3772 
L 1275 2272 
L 2278 2272 
Q 2484 2272 2670 2356 
Q 2856 2441 2998 2652 
Q 3141 2863 3141 3216 
Q 3138 3509 3017 3704 
Q 2897 3900 2695 3995 
Q 2494 4091 2294 4091 
z
M 1275 2078 
L 1275 363 
Q 1275 219 1386 117 
Q 1497 16 1613 16 
L 2328 16 
Q 2600 16 2844 128 
Q 3088 241 3211 484 
Q 3334 728 3346 1045 
Q 3359 1363 3228 1609 
Q 3063 1906 2823 1992 
Q 2584 2078 2294 2078 
L 1275 2078 
z
" transform="scale(0.015625)"/>
       <path id="UNAVAILABLE-29" d="M 509 -822 
L 603 -663 
Q 925 -113 1033 170 
Q 1141 453 1195 643 
Q 1250 834 1294 1093 
Q 1338 1353 1347 1634 
Q 1356 1916 1350 2128 
Q 1338 2491 1295 2730 
Q 1253 2969 1184 3230 
Q 1116 3491 1044 3670 
Q 972 3850 781 4189 
Q 591 4528 509 4666 
L 403 4841 
Q 366 4906 386 4936 
Q 406 4966 431 4967 
Q 456 4969 501 4936 
Q 547 4903 572 4875 
L 675 4744 
Q 956 4381 1192 4036 
Q 1428 3691 1561 3336 
Q 1694 2981 1742 2662 
Q 1791 2344 1795 2130 
Q 1800 1916 1800 1803 
Q 1791 1491 1742 1170 
Q 1694 850 1566 509 
Q 1438 169 1191 -201 
Q 944 -572 794 -756 
L 675 -903 
Q 547 -1063 498 -1092 
Q 450 -1122 422 -1106 
Q 394 -1091 394 -1055 
Q 394 -1019 509 -822 
z
" transform="scale(0.015625)"/>
      </defs>
      <use xlink:href="#UNAVAILABLE-50"/>
      <use xlink:href="#UNAVAILABLE-53" x="61.035156"/>
      <use xlink:href="#UNAVAILABLE-4e" x="116.748047"/>
      <use xlink:href="#UNAVAILABLE-52" x="194.677734"/>
      <use xlink:href="#UNAVAILABLE-28" x="269.677734"/>
      <use xlink:href="#UNAVAILABLE-64" x="303.222656"/>
      <use xlink:href="#UNAVAILABLE-42" x="358.984375"/>
      <use xlink:href="#UNAVAILABLE-29" x="426.318359"/>
     </g>
    </g>
   </g>
   <g id="line2d_34">
    <path d="M 104.986688 430.682259 
L 119.558428 399.706458 
L 134.130168 369.838346 
L 148.701908 339.893813 
L 163.273648 311.400677 
L 177.845387 282.143706 
L 192.417127 257.164431 
L 206.988867 232.758124 
L 221.560607 208.962958 
L 236.132347 187.841399 
L 250.704086 169.355198 
L 265.275826 152.014933 
L 279.847566 136.698886 
L 294.419306 123.712738 
L 308.991046 111.872452 
L 323.562785 103.164073 
L 338.134525 94.875894 
L 352.706265 87.886272 
L 367.278005 82.2717 
L 381.849745 77.879337 
L 396.421484 74.174462 
L 410.993224 71.080655 
L 425.564964 68.789004 
L 440.136704 66.650119 
L 454.708444 65.084129 
L 469.280183 63.938267 
L 483.851923 62.945244 
L 498.423663 62.181336 
L 512.995403 61.493848 
L 527.567143 60.920953 
L 542.138882 60.538999 
L 556.710622 60.233465 
L 571.282362 59.966104 
L 585.854102 59.698743 
L 600.425842 59.622323 
L 614.997581 59.431383 
L 629.569321 59.354963 
L 644.141061 59.278543 
L 658.712801 59.240369 
L 673.284541 59.125776 
L 687.85628 59.163949 
" clip-path="url(#p1090573628)" style="fill: none; stroke: #0000ff; stroke-width: 3; stroke-linecap: square"/>
    <defs>
     <path id="m05cb9b4c43" d="M 0 10 
C 2.652031 10 5.195799 8.946337 7.071068 7.071068 
C 8.946337 5.195799 10 2.652031 10 0 
C 10 -2.652031 8.946337 -5.195799 7.071068 -7.071068 
C 5.195799 -8.946337 2.652031 -10 0 -10 
C -2.652031 -10 -5.195799 -8.946337 -7.071068 -7.071068 
C -8.946337 -5.195799 -10 -2.652031 -10 0 
C -10 2.652031 -8.946337 5.195799 -7.071068 7.071068 
C -5.195799 8.946337 -2.652031 10 0 10 
z
" style="stroke: #0000ff"/>
    </defs>
    <g clip-path="url(#p1090573628)">
     <use xlink:href="#m05cb9b4c43" x="104.986688" y="430.682259" style="fill: #ffffff; stroke: #0000ff"/>
     <use xlink:href="#m05cb9b4c43" x="192.417127" y="257.164431" style="fill: #ffffff; stroke: #0000ff"/>
     <use xlink:href="#m05cb9b4c43" x="279.847566" y="136.698886" style="fill: #ffffff; stroke: #0000ff"/>
     <use xlink:href="#m05cb9b4c43" x="367.278005" y="82.2717" style="fill: #ffffff; stroke: #0000ff"/>
     <use xlink:href="#m05cb9b4c43" x="454.708444" y="65.084129" style="fill: #ffffff; stroke: #0000ff"/>
     <use xlink:href="#m05cb9b4c43" x="542.138882" y="60.538999" style="fill: #ffffff; stroke: #0000ff"/>
     <use xlink:href="#m05cb9b4c43" x="629.569321" y="59.354963" style="fill: #ffffff; stroke: #0000ff"/>
    </g>
   </g>
   <g id="line2d_35">
    <path d="M 104.986688 442.44751 
L 119.558428 410.959061 
L 134.130168 380.789275 
L 148.701908 352.351651 
L 163.273648 323.495721 
L 177.845387 297.001306 
L 192.417127 272.326108 
L 206.988867 249.34315 
L 221.560607 228.39512 
L 236.132347 209.150985 
L 250.704086 191.603752 
L 265.275826 176.592001 
L 279.847566 163.949123 
L 294.419306 152.719541 
L 308.991046 143.163549 
L 323.562785 134.552717 
L 338.134525 128.197329 
L 352.706265 122.342497 
L 367.278005 118.246197 
L 381.849745 114.486685 
L 396.421484 111.313763 
L 410.993224 108.765751 
L 425.564964 106.962196 
L 440.136704 105.361456 
L 454.708444 104.029388 
L 469.280183 103.073155 
L 483.851923 102.29322 
L 498.423663 101.734531 
L 512.995403 101.173584 
L 527.567143 100.736846 
L 542.138882 100.414192 
L 556.710622 100.067352 
L 571.282362 99.976872 
L 585.854102 99.756354 
L 600.425842 99.607303 
L 614.997581 99.537585 
L 629.569321 99.430859 
L 644.141061 99.366314 
L 658.712801 99.343949 
L 673.284541 99.280642 
L 687.85628 99.257985 
" clip-path="url(#p1090573628)" style="fill: none; stroke-dasharray: 15,30; stroke-dashoffset: 0; stroke: #0000ff; stroke-width: 3"/>
    <defs>
     <path id="m3ab6b6d9fc" d="M 0 -10 
L -2.24514 -3.09017 
L -9.510565 -3.09017 
L -3.632713 1.18034 
L -5.877853 8.09017 
L -0 3.81966 
L 5.877853 8.09017 
L 3.632713 1.18034 
L 9.510565 -3.09017 
L 2.24514 -3.09017 
z
" style="stroke: #0000ff; stroke-linejoin: bevel"/>
    </defs>
    <g clip-path="url(#p1090573628)">
     <use xlink:href="#m3ab6b6d9fc" x="104.986688" y="442.44751" style="fill: #ffffff; stroke: #0000ff; stroke-linejoin: bevel"/>
     <use xlink:href="#m3ab6b6d9fc" x="192.417127" y="272.326108" style="fill: #ffffff; stroke: #0000ff; stroke-linejoin: bevel"/>
     <use xlink:href="#m3ab6b6d9fc" x="279.847566" y="163.949123" style="fill: #ffffff; stroke: #0000ff; stroke-linejoin: bevel"/>
     <use xlink:href="#m3ab6b6d9fc" x="367.278005" y="118.246197" style="fill: #ffffff; stroke: #0000ff; stroke-linejoin: bevel"/>
     <use xlink:href="#m3ab6b6d9fc" x="454.708444" y="104.029388" style="fill: #ffffff; stroke: #0000ff; stroke-linejoin: bevel"/>
     <use xlink:href="#m3ab6b6d9fc" x="542.138882" y="100.414192" style="fill: #ffffff; stroke: #0000ff; stroke-linejoin: bevel"/>
     <use xlink:href="#m3ab6b6d9fc" x="629.569321" y="99.430859" style="fill: #ffffff; stroke: #0000ff; stroke-linejoin: bevel"/>
    </g>
   </g>
   <g id="line2d_36">
    <path d="M 104.986688 453.026029 
L 119.558428 421.248218 
L 134.130168 389.279395 
L 148.701908 360.404305 
L 163.273648 331.147261 
L 177.845387 304.945849 
L 192.417127 278.553425 
L 206.988867 255.14014 
L 221.560607 233.101905 
L 236.132347 213.546335 
L 250.704086 196.129577 
L 265.275826 181.119137 
L 279.847566 167.598268 
L 294.419306 156.483643 
L 308.991046 146.705895 
L 323.562785 138.837771 
L 338.134525 132.306523 
L 352.706265 126.615531 
L 367.278005 122.108574 
L 381.849745 118.174512 
L 396.421484 114.966185 
L 410.993224 112.8273 
L 425.564964 110.841183 
L 440.136704 109.275193 
L 454.708444 108.052983 
L 469.280183 107.098134 
L 483.851923 106.257879 
L 498.423663 105.646738 
L 512.995403 105.073843 
L 527.567143 104.730063 
L 542.138882 104.386282 
L 556.710622 104.118922 
L 571.282362 103.889807 
L 585.854102 103.775214 
L 600.425842 103.622447 
L 614.997581 103.5842 
L 629.569321 103.46968 
L 644.141061 103.431433 
L 658.712801 103.39326 
L 673.284541 103.355086 
L 687.85628 103.278666 
" clip-path="url(#p1090573628)" style="fill: none; stroke: #ff0000; stroke-width: 3; stroke-linecap: square"/>
    <defs>
     <path id="mc785444e10" d="M 0 10 
C 2.652031 10 5.195799 8.946337 7.071068 7.071068 
C 8.946337 5.195799 10 2.652031 10 0 
C 10 -2.652031 8.946337 -5.195799 7.071068 -7.071068 
C 5.195799 -8.946337 2.652031 -10 0 -10 
C -2.652031 -10 -5.195799 -8.946337 -7.071068 -7.071068 
C -8.946337 -5.195799 -10 -2.652031 -10 0 
C -10 2.652031 -8.946337 5.195799 -7.071068 7.071068 
C -5.195799 8.946337 -2.652031 10 0 10 
z
" style="stroke: #ff0000"/>
    </defs>
    <g clip-path="url(#p1090573628)">
     <use xlink:href="#mc785444e10" x="104.986688" y="453.026029" style="fill: #ffffff; stroke: #ff0000"/>
     <use xlink:href="#mc785444e10" x="163.273648" y="331.147261" style="fill: #ffffff; stroke: #ff0000"/>
     <use xlink:href="#mc785444e10" x="221.560607" y="233.101905" style="fill: #ffffff; stroke: #ff0000"/>
     <use xlink:href="#mc785444e10" x="279.847566" y="167.598268" style="fill: #ffffff; stroke: #ff0000"/>
     <use xlink:href="#mc785444e10" x="338.134525" y="132.306523" style="fill: #ffffff; stroke: #ff0000"/>
     <use xlink:href="#mc785444e10" x="396.421484" y="114.966185" style="fill: #ffffff; stroke: #ff0000"/>
     <use xlink:href="#mc785444e10" x="454.708444" y="108.052983" style="fill: #ffffff; stroke: #ff0000"/>
     <use xlink:href="#mc785444e10" x="512.995403" y="105.073843" style="fill: #ffffff; stroke: #ff0000"/>
     <use xlink:href="#mc785444e10" x="571.282362" y="103.889807" style="fill: #ffffff; stroke: #ff0000"/>
     <use xlink:href="#mc785444e10" x="629.569321" y="103.46968" style="fill: #ffffff; stroke: #ff0000"/>
     <use xlink:href="#mc785444e10" x="687.85628" y="103.278666" style="fill: #ffffff; stroke: #ff0000"/>
    </g>
   </g>
   <g id="line2d_37">
    <path d="M 104.986688 456.129961 
L 119.558428 426.872043 
L 134.130168 397.633721 
L 148.701908 370.09558 
L 163.273648 342.578274 
L 177.845387 317.670538 
L 192.417127 294.584206 
L 206.988867 272.777052 
L 221.560607 252.482998 
L 236.132347 235.005337 
L 250.704086 219.619209 
L 265.275826 206.744885 
L 279.847566 194.517691 
L 294.419306 184.599852 
L 308.991046 175.777681 
L 323.562785 169.007702 
L 338.134525 163.689266 
L 352.706265 158.807568 
L 367.278005 154.639584 
L 381.849745 151.740943 
L 396.421484 149.123359 
L 410.993224 146.885835 
L 425.564964 145.436843 
L 440.136704 143.907205 
L 454.708444 142.929845 
L 469.280183 142.056662 
L 483.851923 141.462057 
L 498.423663 141.05548 
L 512.995403 140.513692 
L 527.567143 140.161607 
L 542.138882 139.809521 
L 556.710622 139.733611 
L 571.282362 139.614282 
L 585.854102 139.39238 
L 600.425842 139.326888 
L 614.997581 139.215718 
L 629.569321 139.128954 
L 644.141061 139.085972 
L 658.712801 139.034467 
L 673.284541 138.988644 
L 687.85628 138.964166 
" clip-path="url(#p1090573628)" style="fill: none; stroke-dasharray: 15,30; stroke-dashoffset: 0; stroke: #ff0000; stroke-width: 3"/>
    <defs>
     <path id="md65f0aa605" d="M 0 -10 
L -2.24514 -3.09017 
L -9.510565 -3.09017 
L -3.632713 1.18034 
L -5.877853 8.09017 
L -0 3.81966 
L 5.877853 8.09017 
L 3.632713 1.18034 
L 9.510565 -3.09017 
L 2.24514 -3.09017 
z
" style="stroke: #ff0000; stroke-linejoin: bevel"/>
    </defs>
    <g clip-path="url(#p1090573628)">
     <use xlink:href="#md65f0aa605" x="104.986688" y="456.129961" style="fill: #ffffff; stroke: #ff0000; stroke-linejoin: bevel"/>
     <use xlink:href="#md65f0aa605" x="163.273648" y="342.578274" style="fill: #ffffff; stroke: #ff0000; stroke-linejoin: bevel"/>
     <use xlink:href="#md65f0aa605" x="221.560607" y="252.482998" style="fill: #ffffff; stroke: #ff0000; stroke-linejoin: bevel"/>
     <use xlink:href="#md65f0aa605" x="279.847566" y="194.517691" style="fill: #ffffff; stroke: #ff0000; stroke-linejoin: bevel"/>
     <use xlink:href="#md65f0aa605" x="338.134525" y="163.689266" style="fill: #ffffff; stroke: #ff0000; stroke-linejoin: bevel"/>
     <use xlink:href="#md65f0aa605" x="396.421484" y="149.123359" style="fill: #ffffff; stroke: #ff0000; stroke-linejoin: bevel"/>
     <use xlink:href="#md65f0aa605" x="454.708444" y="142.929845" style="fill: #ffffff; stroke: #ff0000; stroke-linejoin: bevel"/>
     <use xlink:href="#md65f0aa605" x="512.995403" y="140.513692" style="fill: #ffffff; stroke: #ff0000; stroke-linejoin: bevel"/>
     <use xlink:href="#md65f0aa605" x="571.282362" y="139.614282" style="fill: #ffffff; stroke: #ff0000; stroke-linejoin: bevel"/>
     <use xlink:href="#md65f0aa605" x="629.569321" y="139.128954" style="fill: #ffffff; stroke: #ff0000; stroke-linejoin: bevel"/>
     <use xlink:href="#md65f0aa605" x="687.85628" y="138.964166" style="fill: #ffffff; stroke: #ff0000; stroke-linejoin: bevel"/>
    </g>
   </g>
   <g id="line2d_38">
    <path d="M 104.986688 516.658142 
L 119.558428 487.668531 
L 134.130168 459.901057 
L 148.701908 432.630203 
L 163.273648 407.689102 
L 177.845387 384.696018 
L 192.417127 363.192504 
L 206.988867 346.195947 
L 221.560607 330.95632 
L 236.132347 317.817404 
L 250.704086 307.466688 
L 265.275826 298.338182 
L 279.847566 290.890258 
L 294.419306 284.626371 
L 308.991046 279.928401 
L 323.562785 275.765225 
L 338.134525 272.251291 
L 352.706265 270.112406 
L 367.278005 267.935348 
L 381.849745 266.025577 
L 396.421484 264.612427 
L 410.993224 263.695752 
L 425.564964 262.779077 
L 440.136704 262.129762 
L 454.708444 261.671388 
L 469.280183 261.174913 
L 483.851923 260.907553 
L 498.423663 260.487425 
L 512.995403 260.372831 
L 527.567143 260.067224 
L 542.138882 260.067224 
L 556.710622 259.952704 
L 571.282362 259.799864 
L 585.854102 259.76169 
L 600.425842 259.68527 
L 614.997581 259.647097 
L 629.569321 259.608923 
L 644.141061 259.647097 
L 658.712801 259.57075 
L 673.284541 259.57075 
L 687.85628 259.532503 
" clip-path="url(#p1090573628)" style="fill: none; stroke: #000000; stroke-width: 3; stroke-linecap: square"/>
    <defs>
     <path id="mc65a108bed" d="M 0 10 
C 2.652031 10 5.195799 8.946337 7.071068 7.071068 
C 8.946337 5.195799 10 2.652031 10 0 
C 10 -2.652031 8.946337 -5.195799 7.071068 -7.071068 
C 5.195799 -8.946337 2.652031 -10 0 -10 
C -2.652031 -10 -5.195799 -8.946337 -7.071068 -7.071068 
C -8.946337 -5.195799 -10 -2.652031 -10 0 
C -10 2.652031 -8.946337 5.195799 -7.071068 7.071068 
C -5.195799 8.946337 -2.652031 10 0 10 
z
" style="stroke: #000000"/>
    </defs>
    <g clip-path="url(#p1090573628)">
     <use xlink:href="#mc65a108bed" x="104.986688" y="516.658142" style="fill: #ffffff; stroke: #000000"/>
     <use xlink:href="#mc65a108bed" x="177.845387" y="384.696018" style="fill: #ffffff; stroke: #000000"/>
     <use xlink:href="#mc65a108bed" x="250.704086" y="307.466688" style="fill: #ffffff; stroke: #000000"/>
     <use xlink:href="#mc65a108bed" x="323.562785" y="275.765225" style="fill: #ffffff; stroke: #000000"/>
     <use xlink:href="#mc65a108bed" x="396.421484" y="264.612427" style="fill: #ffffff; stroke: #000000"/>
     <use xlink:href="#mc65a108bed" x="469.280183" y="261.174913" style="fill: #ffffff; stroke: #000000"/>
     <use xlink:href="#mc65a108bed" x="542.138882" y="260.067224" style="fill: #ffffff; stroke: #000000"/>
     <use xlink:href="#mc65a108bed" x="614.997581" y="259.647097" style="fill: #ffffff; stroke: #000000"/>
     <use xlink:href="#mc65a108bed" x="687.85628" y="259.532503" style="fill: #ffffff; stroke: #000000"/>
    </g>
   </g>
   <g id="line2d_39">
    <path d="M 104.986688 515.386394 
L 119.558428 487.339029 
L 134.130168 460.619215 
L 148.701908 436.487262 
L 163.273648 412.052252 
L 177.845387 390.556752 
L 192.417127 371.251933 
L 206.988867 354.628587 
L 221.560607 339.90882 
L 236.132347 327.738741 
L 250.704086 318.13882 
L 265.275826 309.996342 
L 279.847566 302.353034 
L 294.419306 296.396575 
L 308.991046 292.079175 
L 323.562785 288.099509 
L 338.134525 285.072944 
L 352.706265 282.618617 
L 367.278005 280.443307 
L 381.849745 279.07088 
L 396.421484 277.603602 
L 410.993224 276.678549 
L 425.564964 275.884773 
L 440.136704 275.285943 
L 454.708444 274.626138 
L 469.280183 274.223931 
L 483.851923 273.918179 
L 498.423663 273.708734 
L 512.995403 273.445089 
L 527.567143 273.380908 
L 542.138882 273.219909 
L 556.710622 273.03465 
L 571.282362 272.981907 
L 585.854102 272.95874 
L 600.425842 272.867677 
L 614.997581 272.817775 
L 629.569321 272.799052 
L 644.141061 272.763137 
L 658.712801 272.781131 
L 673.284541 272.724308 
L 687.85628 272.71542 
" clip-path="url(#p1090573628)" style="fill: none; stroke-dasharray: 15,30; stroke-dashoffset: 0; stroke: #000000; stroke-width: 3"/>
    <defs>
     <path id="m9b6bff8b27" d="M 0 -10 
L -2.24514 -3.09017 
L -9.510565 -3.09017 
L -3.632713 1.18034 
L -5.877853 8.09017 
L -0 3.81966 
L 5.877853 8.09017 
L 3.632713 1.18034 
L 9.510565 -3.09017 
L 2.24514 -3.09017 
z
" style="stroke: #000000; stroke-linejoin: bevel"/>
    </defs>
    <g clip-path="url(#p1090573628)">
     <use xlink:href="#m9b6bff8b27" x="104.986688" y="515.386394" style="fill: #ffffff; stroke: #000000; stroke-linejoin: bevel"/>
     <use xlink:href="#m9b6bff8b27" x="177.845387" y="390.556752" style="fill: #ffffff; stroke: #000000; stroke-linejoin: bevel"/>
     <use xlink:href="#m9b6bff8b27" x="250.704086" y="318.13882" style="fill: #ffffff; stroke: #000000; stroke-linejoin: bevel"/>
     <use xlink:href="#m9b6bff8b27" x="323.562785" y="288.099509" style="fill: #ffffff; stroke: #000000; stroke-linejoin: bevel"/>
     <use xlink:href="#m9b6bff8b27" x="396.421484" y="277.603602" style="fill: #ffffff; stroke: #000000; stroke-linejoin: bevel"/>
     <use xlink:href="#m9b6bff8b27" x="469.280183" y="274.223931" style="fill: #ffffff; stroke: #000000; stroke-linejoin: bevel"/>
     <use xlink:href="#m9b6bff8b27" x="542.138882" y="273.219909" style="fill: #ffffff; stroke: #000000; stroke-linejoin: bevel"/>
     <use xlink:href="#m9b6bff8b27" x="614.997581" y="272.817775" style="fill: #ffffff; stroke: #000000; stroke-linejoin: bevel"/>
     <use xlink:href="#m9b6bff8b27" x="687.85628" y="272.71542" style="fill: #ffffff; stroke: #000000; stroke-linejoin: bevel"/>
    </g>
   </g>
   <g id="patch_3">
    <path d="M 75.843209 539.53476 
L 75.843209 36.249158 
" style="fill: none; stroke: #000000; stroke-width: 2.5; stroke-linejoin: miter; stroke-linecap: square"/>
   </g>
   <g id="patch_4">
    <path d="M 716.99976 539.53476 
L 716.99976 36.249158 
" style="fill: none; stroke: #000000; stroke-width: 2.5; stroke-linejoin: miter; stroke-linecap: square"/>
   </g>
   <g id="patch_5">
    <path d="M 75.843209 539.53476 
L 716.99976 539.53476 
" style="fill: none; stroke: #000000; stroke-width: 2.5; stroke-linejoin: miter; stroke-linecap: square"/>
   </g>
   <g id="patch_6">
    <path d="M 75.843209 36.249158 
L 716.99976 36.249158 
" style="fill: none; stroke: #000000; stroke-width: 2.5; stroke-linejoin: miter; stroke-linecap: square"/>
   </g>
   <g id="legend_1">
    <g id="patch_7">
     <path d="M 206.99976 539.53476 
L 711.99976 539.53476 
Q 716.99976 539.53476 716.99976 534.53476 
L 716.99976 356.28476 
Q 716.99976 351.28476 711.99976 351.28476 
L 206.99976 351.28476 
Q 201.99976 351.28476 201.99976 356.28476 
L 201.99976 534.53476 
Q 201.99976 539.53476 206.99976 539.53476 
L 206.99976 539.53476 
z
" style="fill: none; stroke: #000000; stroke-linejoin: miter"/>
    </g>
    <g id="line2d_40">
     <path d="M 211.99976 372.03476 
L 236.99976 372.03476 
L 261.99976 372.03476 
" style="fill: none; stroke: #0000ff; stroke-width: 3; stroke-linecap: square"/>
     <g>
      <use xlink:href="#m05cb9b4c43" x="236.99976" y="372.03476" style="fill: #ffffff; stroke: #0000ff"/>
     </g>
    </g>
    <g id="text_14">
     <!-- FL+精确, $\mathrm{R}=0.9,\mathrm{SNR}_\mathrm{train}=20\mathrm{(dB)}$ -->
     <g transform="translate(281.99976 380.78476)scale(0.25 -0.25)">
      <defs>
       <path id="UNAVAILABLE-46" d="M 284 4131 
Q 200 4184 200 4251 
Q 200 4319 284 4319 
L 3678 4319 
L 3819 3197 
Q 3828 3103 3765 3083 
Q 3703 3063 3663 3138 
L 3575 3288 
Q 3453 3494 3334 3641 
Q 3216 3788 3070 3892 
Q 2925 3997 2729 4064 
Q 2534 4131 2341 4131 
L 1841 4131 
Q 1419 4131 1348 4039 
Q 1278 3947 1278 3813 
L 1278 2225 
L 2116 2228 
Q 2203 2228 2273 2254 
Q 2344 2281 2392 2347 
Q 2441 2413 2473 2541 
Q 2506 2669 2506 2769 
L 2506 2972 
Q 2506 3066 2600 3073 
Q 2694 3081 2694 2972 
L 2694 1344 
Q 2694 1222 2600 1228 
Q 2506 1234 2506 1325 
L 2506 1556 
Q 2506 1650 2484 1750 
Q 2463 1850 2409 1915 
Q 2356 1981 2279 2017 
Q 2203 2053 2106 2053 
L 1278 2053 
L 1278 406 
Q 1278 209 1334 139 
Q 1391 69 1497 41 
Q 1603 13 1797 13 
L 1978 13 
Q 2084 13 2079 -84 
Q 2075 -181 1978 -181 
L 328 -181 
Q 238 -181 233 -84 
Q 228 13 328 13 
L 456 13 
Q 578 13 651 47 
Q 725 81 764 142 
Q 803 203 803 391 
L 803 3709 
Q 803 3841 770 3936 
Q 738 4031 655 4081 
Q 572 4131 441 4131 
L 284 4131 
z
" transform="scale(0.015625)"/>
       <path id="UNAVAILABLE-4c" d="M 3653 -172 
L 309 -172 
Q 228 -172 229 -79 
Q 231 13 328 13 
L 466 13 
Q 572 13 653 48 
Q 734 84 781 142 
Q 828 200 828 381 
L 828 3813 
Q 828 3922 793 3981 
Q 759 4041 681 4081 
Q 603 4122 466 4122 
L 284 4122 
Q 181 4122 181 4214 
Q 181 4306 284 4306 
L 1834 4306 
Q 1925 4306 1939 4214 
Q 1953 4122 1834 4122 
L 1653 4122 
Q 1528 4122 1461 4083 
Q 1394 4044 1353 3978 
Q 1313 3913 1313 3838 
L 1313 381 
Q 1313 247 1378 165 
Q 1444 84 1558 48 
Q 1672 13 1947 13 
L 2391 13 
Q 2609 13 2820 61 
Q 3031 109 3176 221 
Q 3322 334 3415 498 
Q 3509 663 3569 825 
L 3647 1044 
Q 3669 1113 3731 1116 
Q 3794 1119 3788 1044 
L 3653 -172 
z
" transform="scale(0.015625)"/>
       <path id="UNAVAILABLE-2b" d="M 441 1756 
L 441 2081 
L 1834 2078 
L 1834 3550 
L 2200 3550 
L 2200 2081 
L 3625 2081 
L 3625 1756 
L 2200 1756 
L 2200 291 
L 1834 291 
L 1834 1759 
L 441 1756 
z
" transform="scale(0.015625)"/>
       <path id="UNAVAILABLE-7cbe" d="M 4403 4106 
L 5303 4106 
L 5575 4438 
L 5944 4091 
Q 6025 4013 6019 3992 
Q 6013 3972 5906 3972 
L 4403 3972 
L 4403 3375 
L 4991 3375 
L 5266 3663 
L 5609 3334 
Q 5666 3278 5662 3251 
Q 5659 3225 5591 3225 
L 4403 3225 
L 4403 2581 
L 5447 2581 
L 5769 2919 
L 6153 2559 
Q 6238 2478 6231 2454 
Q 6225 2431 6106 2431 
L 3463 2431 
Q 3150 2431 2863 2334 
L 2716 2459 
L 1778 2459 
L 1778 2119 
Q 2294 1834 2450 1662 
Q 2606 1491 2618 1427 
Q 2631 1363 2616 1291 
Q 2594 1191 2509 1087 
Q 2425 984 2366 1013 
Q 2331 1025 2300 1113 
L 2234 1303 
Q 2197 1403 2083 1611 
Q 1969 1819 1878 1900 
L 1778 1991 
L 1778 -228 
L 1816 -931 
Q 1678 -994 1406 -1059 
L 1441 -50 
L 1441 1800 
Q 1147 1247 881 864 
Q 616 481 244 47 
L 166 109 
Q 531 691 678 953 
Q 825 1216 990 1580 
Q 1156 1944 1331 2459 
L 822 2459 
Q 563 2459 347 2369 
L 141 2628 
L 788 2609 
L 1441 2609 
L 1441 4163 
L 1413 4878 
L 1931 4659 
Q 2000 4628 2004 4600 
Q 2009 4572 1938 4538 
L 1781 4459 
L 1778 2822 
Q 2084 3278 2272 3709 
L 2466 4150 
L 2856 3906 
Q 2928 3859 2923 3836 
Q 2919 3813 2834 3794 
L 2716 3766 
Q 2253 3169 1778 2672 
L 1778 2609 
L 2091 2609 
L 2388 2944 
L 2775 2581 
L 4034 2581 
L 4034 3225 
L 3606 3225 
Q 3328 3225 3094 3134 
L 2872 3391 
L 3469 3375 
L 4034 3375 
L 4034 3972 
L 3641 3972 
Q 3309 3972 3084 3884 
L 2894 4122 
L 3353 4106 
L 4034 4106 
L 4034 4459 
L 4003 4894 
L 4528 4709 
Q 4619 4675 4617 4654 
Q 4616 4634 4563 4597 
L 4406 4491 
L 4403 4106 
z
M 438 4128 
L 500 4178 
Q 581 4100 784 3903 
Q 988 3706 1106 3529 
Q 1225 3353 1229 3228 
Q 1234 3103 1159 2968 
Q 1084 2834 993 2840 
Q 903 2847 873 2898 
Q 844 2950 842 3062 
Q 841 3175 806 3354 
Q 772 3534 697 3696 
Q 622 3859 438 4128 
z
M 3047 2153 
L 3434 1928 
L 5059 1928 
L 5272 2209 
L 5638 1978 
Q 5747 1906 5745 1890 
Q 5744 1875 5697 1841 
L 5534 1722 
L 5534 -419 
Q 5534 -556 5503 -651 
Q 5472 -747 5417 -800 
Q 5363 -853 5247 -922 
Q 5131 -991 4966 -1028 
Q 4941 -941 4906 -862 
Q 4872 -784 4761 -709 
Q 4650 -634 4581 -611 
Q 4513 -588 4200 -522 
L 4216 -419 
Q 4619 -484 4947 -478 
Q 5056 -478 5098 -447 
Q 5141 -416 5155 -380 
Q 5169 -344 5169 -131 
L 5169 344 
L 3434 344 
L 3434 -922 
Q 3222 -1016 3038 -1041 
L 3075 -366 
L 3075 1509 
L 3047 2153 
z
M 3434 494 
L 5169 494 
L 5169 1103 
L 3434 1103 
L 3434 494 
z
M 3434 1250 
L 5169 1250 
L 5169 1778 
L 3434 1778 
L 3434 1250 
z
" transform="scale(0.015625)"/>
       <path id="UNAVAILABLE-786e" d="M 219 1088 
Q 766 2100 945 2734 
Q 1125 3369 1228 3878 
L 1050 3878 
Q 684 3878 472 3784 
L 231 4038 
L 550 4025 
L 2031 4025 
L 2322 4369 
L 2731 3975 
Q 2778 3928 2768 3903 
Q 2759 3878 2669 3878 
L 1666 3878 
Q 1450 3181 1369 2975 
L 1216 2578 
L 1281 2525 
L 1894 2525 
L 2081 2794 
L 2434 2566 
Q 2525 2503 2526 2497 
Q 2528 2491 2434 2406 
L 2322 2306 
L 2322 797 
L 2350 153 
Q 2144 31 1966 -31 
L 1966 328 
L 1234 328 
L 1234 -200 
Q 1191 -234 1056 -295 
Q 922 -356 884 -366 
L 922 472 
L 922 2003 
Q 634 1503 547 1384 
L 294 1034 
L 219 1088 
z
M 1234 472 
L 1966 472 
L 1966 2378 
L 1234 2378 
L 1234 472 
z
M 1622 -984 
Q 1853 -853 2181 -601 
Q 2509 -350 2650 -72 
Q 2791 206 2842 518 
Q 2894 831 2906 1323 
Q 2919 1816 2925 2344 
Q 2928 2763 2925 2913 
L 2919 3169 
Q 2781 3044 2447 2719 
L 2388 2784 
Q 2766 3272 2927 3494 
Q 3088 3716 3330 4192 
Q 3572 4669 3591 4734 
L 3666 4981 
L 4172 4734 
Q 4256 4691 4254 4678 
Q 4253 4666 4163 4622 
L 3988 4538 
L 3650 4059 
L 4644 4059 
L 4916 4334 
L 5356 3975 
Q 5416 3925 5409 3901 
Q 5403 3878 5319 3859 
L 5166 3825 
Q 5041 3797 4881 3678 
Q 4722 3559 4300 3059 
L 5266 3059 
L 5475 3344 
L 5869 3081 
Q 5931 3038 5932 3017 
Q 5934 2997 5853 2944 
L 5713 2850 
L 5713 -441 
Q 5713 -556 5672 -657 
Q 5631 -759 5512 -843 
Q 5394 -928 5153 -978 
Q 5138 -875 5117 -808 
Q 5097 -741 5008 -642 
Q 4919 -544 4547 -459 
L 4575 -372 
Q 5103 -453 5213 -434 
Q 5291 -425 5316 -392 
Q 5341 -359 5341 -250 
L 5341 913 
L 4419 913 
L 4419 181 
L 4456 -488 
Q 4394 -519 4326 -553 
Q 4259 -588 4247 -591 
L 4119 -641 
L 4025 -684 
L 4063 241 
L 4063 913 
L 3228 913 
Q 3209 734 3187 557 
Q 3166 381 3070 126 
Q 2975 -128 2689 -409 
Q 2403 -691 1675 -1063 
L 1622 -984 
z
M 3006 3256 
L 3331 3059 
L 4156 3059 
Q 4284 3259 4344 3366 
L 4522 3706 
L 4634 3916 
L 3547 3916 
Q 3281 3566 3006 3256 
z
M 3228 1059 
L 4063 1059 
L 4063 1906 
L 3266 1906 
L 3228 1059 
z
M 3266 2053 
L 4063 2053 
L 4063 2916 
L 3288 2916 
Q 3278 2563 3278 2497 
L 3266 2053 
L 3266 2053 
z
M 4419 1059 
L 5341 1059 
L 5341 1906 
L 4419 1906 
L 4419 1059 
z
M 4419 2053 
L 5341 2053 
L 5341 2916 
L 4419 2916 
L 4419 2053 
z
" transform="scale(0.015625)"/>
       <path id="UNAVAILABLE-2c" d="M 553 -1059 
L 553 -928 
Q 622 -884 690 -842 
Q 759 -800 820 -754 
Q 881 -709 945 -631 
Q 1009 -553 1048 -473 
Q 1088 -394 1097 -297 
Q 1106 -200 1069 -141 
L 1006 -38 
Q 906 -72 836 -86 
Q 766 -100 688 -94 
Q 575 -88 519 -44 
Q 463 0 430 79 
Q 397 159 397 247 
Q 397 334 442 415 
Q 488 497 573 544 
Q 659 591 763 600 
Q 894 606 1001 554 
Q 1109 503 1184 411 
Q 1259 319 1307 183 
Q 1356 47 1350 -100 
Q 1344 -184 1320 -282 
Q 1297 -381 1248 -486 
Q 1200 -591 1119 -678 
Q 1038 -766 919 -853 
Q 800 -941 725 -975 
L 553 -1059 
L 553 -1059 
z
" transform="scale(0.015625)"/>
       <path id="UNAVAILABLE-20" transform="scale(0.015625)"/>
       <path id="DejaVuSans-3d" d="M 678 2906 
L 4684 2906 
L 4684 2381 
L 678 2381 
L 678 2906 
z
M 678 1631 
L 4684 1631 
L 4684 1100 
L 678 1100 
L 678 1631 
z
" transform="scale(0.015625)"/>
       <path id="DejaVuSans-30" d="M 2034 4250 
Q 1547 4250 1301 3770 
Q 1056 3291 1056 2328 
Q 1056 1369 1301 889 
Q 1547 409 2034 409 
Q 2525 409 2770 889 
Q 3016 1369 3016 2328 
Q 3016 3291 2770 3770 
Q 2525 4250 2034 4250 
z
M 2034 4750 
Q 2819 4750 3233 4129 
Q 3647 3509 3647 2328 
Q 3647 1150 3233 529 
Q 2819 -91 2034 -91 
Q 1250 -91 836 529 
Q 422 1150 422 2328 
Q 422 3509 836 4129 
Q 1250 4750 2034 4750 
z
" transform="scale(0.015625)"/>
       <path id="DejaVuSans-2e" d="M 684 794 
L 1344 794 
L 1344 0 
L 684 0 
L 684 794 
z
" transform="scale(0.015625)"/>
       <path id="DejaVuSans-39" d="M 703 97 
L 703 672 
Q 941 559 1184 500 
Q 1428 441 1663 441 
Q 2288 441 2617 861 
Q 2947 1281 2994 2138 
Q 2813 1869 2534 1725 
Q 2256 1581 1919 1581 
Q 1219 1581 811 2004 
Q 403 2428 403 3163 
Q 403 3881 828 4315 
Q 1253 4750 1959 4750 
Q 2769 4750 3195 4129 
Q 3622 3509 3622 2328 
Q 3622 1225 3098 567 
Q 2575 -91 1691 -91 
Q 1453 -91 1209 -44 
Q 966 3 703 97 
z
M 1959 2075 
Q 2384 2075 2632 2365 
Q 2881 2656 2881 3163 
Q 2881 3666 2632 3958 
Q 2384 4250 1959 4250 
Q 1534 4250 1286 3958 
Q 1038 3666 1038 3163 
Q 1038 2656 1286 2365 
Q 1534 2075 1959 2075 
z
" transform="scale(0.015625)"/>
       <path id="DejaVuSans-2c" d="M 750 794 
L 1409 794 
L 1409 256 
L 897 -744 
L 494 -744 
L 750 256 
L 750 794 
z
" transform="scale(0.015625)"/>
       <path id="DejaVuSans-72" d="M 2631 2963 
Q 2534 3019 2420 3045 
Q 2306 3072 2169 3072 
Q 1681 3072 1420 2755 
Q 1159 2438 1159 1844 
L 1159 0 
L 581 0 
L 581 3500 
L 1159 3500 
L 1159 2956 
Q 1341 3275 1631 3429 
Q 1922 3584 2338 3584 
Q 2397 3584 2469 3576 
Q 2541 3569 2628 3553 
L 2631 2963 
z
" transform="scale(0.015625)"/>
       <path id="DejaVuSans-61" d="M 2194 1759 
Q 1497 1759 1228 1600 
Q 959 1441 959 1056 
Q 959 750 1161 570 
Q 1363 391 1709 391 
Q 2188 391 2477 730 
Q 2766 1069 2766 1631 
L 2766 1759 
L 2194 1759 
z
M 3341 1997 
L 3341 0 
L 2766 0 
L 2766 531 
Q 2569 213 2275 61 
Q 1981 -91 1556 -91 
Q 1019 -91 701 211 
Q 384 513 384 1019 
Q 384 1609 779 1909 
Q 1175 2209 1959 2209 
L 2766 2209 
L 2766 2266 
Q 2766 2663 2505 2880 
Q 2244 3097 1772 3097 
Q 1472 3097 1187 3025 
Q 903 2953 641 2809 
L 641 3341 
Q 956 3463 1253 3523 
Q 1550 3584 1831 3584 
Q 2591 3584 2966 3190 
Q 3341 2797 3341 1997 
z
" transform="scale(0.015625)"/>
       <path id="DejaVuSans-69" d="M 603 3500 
L 1178 3500 
L 1178 0 
L 603 0 
L 603 3500 
z
M 603 4863 
L 1178 4863 
L 1178 4134 
L 603 4134 
L 603 4863 
z
" transform="scale(0.015625)"/>
       <path id="DejaVuSans-6e" d="M 3513 2113 
L 3513 0 
L 2938 0 
L 2938 2094 
Q 2938 2591 2744 2837 
Q 2550 3084 2163 3084 
Q 1697 3084 1428 2787 
Q 1159 2491 1159 1978 
L 1159 0 
L 581 0 
L 581 3500 
L 1159 3500 
L 1159 2956 
Q 1366 3272 1645 3428 
Q 1925 3584 2291 3584 
Q 2894 3584 3203 3211 
Q 3513 2838 3513 2113 
z
" transform="scale(0.015625)"/>
       <path id="DejaVuSans-32" d="M 1228 531 
L 3431 531 
L 3431 0 
L 469 0 
L 469 531 
Q 828 903 1448 1529 
Q 2069 2156 2228 2338 
Q 2531 2678 2651 2914 
Q 2772 3150 2772 3378 
Q 2772 3750 2511 3984 
Q 2250 4219 1831 4219 
Q 1534 4219 1204 4116 
Q 875 4013 500 3803 
L 500 4441 
Q 881 4594 1212 4672 
Q 1544 4750 1819 4750 
Q 2544 4750 2975 4387 
Q 3406 4025 3406 3419 
Q 3406 3131 3298 2873 
Q 3191 2616 2906 2266 
Q 2828 2175 2409 1742 
Q 1991 1309 1228 531 
z
" transform="scale(0.015625)"/>
      </defs>
      <use xlink:href="#UNAVAILABLE-46" transform="translate(0 0.171875)"/>
      <use xlink:href="#UNAVAILABLE-4c" transform="translate(63.623047 0.171875)"/>
      <use xlink:href="#UNAVAILABLE-2b" transform="translate(125.976562 0.171875)"/>
      <use xlink:href="#UNAVAILABLE-7cbe" transform="translate(189.013672 0.171875)"/>
      <use xlink:href="#UNAVAILABLE-786e" transform="translate(289.013672 0.171875)"/>
      <use xlink:href="#UNAVAILABLE-2c" transform="translate(389.013672 0.171875)"/>
      <use xlink:href="#UNAVAILABLE-20" transform="translate(416.308594 0.171875)"/>
      <use xlink:href="#DejaVuSans-52" transform="translate(466.308594 0.171875)"/>
      <use xlink:href="#DejaVuSans-3d" transform="translate(555.273438 0.171875)"/>
      <use xlink:href="#DejaVuSans-30" transform="translate(658.544922 0.171875)"/>
      <use xlink:href="#DejaVuSans-2e" transform="translate(722.167969 0.171875)"/>
      <use xlink:href="#DejaVuSans-39" transform="translate(753.955078 0.171875)"/>
      <use xlink:href="#DejaVuSans-2c" transform="translate(817.578125 0.171875)"/>
      <use xlink:href="#DejaVuSans-53" transform="translate(868.847656 0.171875)"/>
      <use xlink:href="#DejaVuSans-4e" transform="translate(932.324219 0.171875)"/>
      <use xlink:href="#DejaVuSans-52" transform="translate(1003.503906 0.171875)"/>
      <use xlink:href="#DejaVuSans-74" transform="translate(1073.943359 -16.234375)scale(0.7)"/>
      <use xlink:href="#DejaVuSans-72" transform="translate(1101.389648 -16.234375)scale(0.7)"/>
      <use xlink:href="#DejaVuSans-61" transform="translate(1130.168945 -16.234375)scale(0.7)"/>
      <use xlink:href="#DejaVuSans-69" transform="translate(1173.064453 -16.234375)scale(0.7)"/>
      <use xlink:href="#DejaVuSans-6e" transform="translate(1192.512695 -16.234375)scale(0.7)"/>
      <use xlink:href="#DejaVuSans-3d" transform="translate(1259.094727 0.171875)"/>
      <use xlink:href="#DejaVuSans-32" transform="translate(1362.366211 0.171875)"/>
      <use xlink:href="#DejaVuSans-30" transform="translate(1425.989258 0.171875)"/>
      <use xlink:href="#DejaVuSans-28" transform="translate(1489.612305 0.171875)"/>
      <use xlink:href="#DejaVuSans-64" transform="translate(1528.625977 0.171875)"/>
      <use xlink:href="#DejaVuSans-42" transform="translate(1592.102539 0.171875)"/>
      <use xlink:href="#DejaVuSans-29" transform="translate(1660.706055 0.171875)"/>
     </g>
    </g>
    <g id="line2d_41">
     <path d="M 211.99976 400.78476 
L 236.99976 400.78476 
L 261.99976 400.78476 
" style="fill: none; stroke-dasharray: 15,30; stroke-dashoffset: 0; stroke: #0000ff; stroke-width: 3"/>
     <g>
      <use xlink:href="#m3ab6b6d9fc" x="236.99976" y="400.78476" style="fill: #ffffff; stroke: #0000ff; stroke-linejoin: bevel"/>
     </g>
    </g>
    <g id="text_15">
     <!-- FL+量化, $\mathrm{R}=0.9,\mathrm{SNR}_\mathrm{train}=20\mathrm{(dB)}$ -->
     <g transform="translate(281.99976 409.53476)scale(0.25 -0.25)">
      <defs>
       <path id="UNAVAILABLE-91cf" d="M 103 2738 
L 572 2722 
L 5309 2722 
L 5666 3072 
L 6072 2722 
Q 6159 2644 6142 2614 
Q 6125 2584 6084 2584 
L 816 2584 
Q 578 2584 341 2503 
L 103 2738 
z
M 291 -538 
L 678 -550 
L 2997 -550 
L 2997 3 
L 1406 3 
Q 1231 3 1047 -81 
L 738 166 
L 1169 147 
L 2997 147 
L 2997 734 
L 1709 734 
L 1709 534 
Q 1659 503 1634 494 
L 1525 466 
L 1431 428 
L 1294 394 
L 1338 1041 
L 1338 1816 
L 1309 2394 
L 1797 2147 
L 4550 2147 
L 4750 2403 
L 5134 2147 
Q 5197 2103 5200 2089 
Q 5203 2075 5134 2019 
L 4994 1903 
L 4994 1016 
L 5025 666 
Q 4850 538 4600 481 
L 4600 734 
L 3375 734 
L 3375 147 
L 4716 147 
L 4994 450 
L 5309 166 
Q 5422 59 5409 31 
Q 5397 3 5328 3 
L 3375 3 
L 3375 -550 
L 5163 -550 
L 5497 -213 
L 5853 -550 
Q 5966 -659 5953 -675 
Q 5941 -691 5878 -691 
L 844 -691 
Q 819 -691 698 -719 
Q 578 -747 522 -766 
L 291 -538 
z
M 1709 875 
L 2997 875 
L 2997 1381 
L 1709 1381 
L 1709 875 
z
M 1709 1519 
L 2997 1519 
L 2997 2006 
L 1709 2006 
L 1709 1519 
z
M 3375 875 
L 4600 875 
L 4600 1381 
L 3375 1381 
L 3375 875 
z
M 3375 1519 
L 4600 1519 
L 4600 2006 
L 3375 2006 
L 3375 1519 
z
M 1447 4725 
L 1894 4469 
L 4497 4469 
L 4691 4725 
L 5078 4491 
Q 5150 4444 5151 4417 
Q 5153 4391 5078 4334 
L 4928 4219 
L 4928 3547 
L 4966 3047 
Q 4766 2956 4725 2953 
L 4550 2922 
L 4550 3134 
L 1859 3134 
L 1859 2997 
Q 1769 2953 1720 2936 
Q 1672 2919 1447 2875 
L 1478 3459 
L 1478 4266 
L 1447 4725 
z
M 1859 3275 
L 4550 3275 
L 4550 3747 
L 1859 3747 
L 1859 3275 
z
M 1859 3891 
L 4550 3891 
L 4550 4325 
L 1859 4325 
L 1859 3891 
z
" transform="scale(0.015625)"/>
       <path id="UNAVAILABLE-5316" d="M 225 1538 
Q 469 1850 586 2014 
Q 703 2178 1034 2711 
Q 1366 3244 1558 3705 
Q 1750 4166 1836 4400 
Q 1922 4634 1941 4713 
L 1981 4875 
L 2547 4544 
Q 2569 4528 2566 4490 
Q 2563 4453 2525 4444 
L 2313 4381 
L 1694 3244 
L 2006 3069 
Q 2041 3047 2037 3023 
Q 2034 3000 1981 2959 
L 1841 2847 
L 1841 -194 
L 1866 -781 
Q 1772 -838 1441 -978 
L 1481 -63 
L 1481 2903 
Q 1097 2353 878 2093 
Q 659 1834 297 1469 
L 225 1538 
z
M 2013 647 
Q 2203 772 2300 838 
L 2728 1116 
Q 3066 1338 3384 1591 
L 3384 3925 
L 3334 4859 
L 3928 4559 
Q 3994 4525 3997 4494 
Q 4000 4463 3928 4419 
L 3738 4297 
L 3741 1900 
Q 4284 2434 4479 2631 
Q 4675 2828 4881 3072 
Q 5088 3316 5303 3628 
L 5738 3156 
Q 5778 3106 5768 3082 
Q 5759 3059 5722 3063 
L 5494 3075 
Q 4809 2431 4481 2142 
Q 4153 1853 3738 1519 
L 3741 144 
Q 3741 -166 3780 -250 
Q 3819 -334 3900 -366 
Q 3928 -378 4251 -389 
Q 4575 -400 4778 -397 
Q 5438 -394 5513 -317 
Q 5588 -241 5614 -148 
Q 5641 -56 5652 53 
Q 5663 163 5759 991 
L 5850 991 
Q 5853 694 5856 476 
Q 5859 259 5906 136 
Q 5953 13 6012 -43 
Q 6072 -100 6234 -181 
Q 6159 -328 6045 -490 
Q 5931 -653 5682 -709 
Q 5434 -766 4648 -767 
Q 3863 -769 3678 -705 
Q 3494 -641 3439 -525 
Q 3384 -409 3384 -194 
L 3384 1284 
Q 2622 834 2066 559 
L 2013 647 
z
" transform="scale(0.015625)"/>
      </defs>
      <use xlink:href="#UNAVAILABLE-46" transform="translate(0 0.828125)"/>
      <use xlink:href="#UNAVAILABLE-4c" transform="translate(63.623047 0.828125)"/>
      <use xlink:href="#UNAVAILABLE-2b" transform="translate(125.976562 0.828125)"/>
      <use xlink:href="#UNAVAILABLE-91cf" transform="translate(189.013672 0.828125)"/>
      <use xlink:href="#UNAVAILABLE-5316" transform="translate(289.013672 0.828125)"/>
      <use xlink:href="#UNAVAILABLE-2c" transform="translate(389.013672 0.828125)"/>
      <use xlink:href="#UNAVAILABLE-20" transform="translate(416.308594 0.828125)"/>
      <use xlink:href="#DejaVuSans-52" transform="translate(466.308594 0.828125)"/>
      <use xlink:href="#DejaVuSans-3d" transform="translate(555.273438 0.828125)"/>
      <use xlink:href="#DejaVuSans-30" transform="translate(658.544922 0.828125)"/>
      <use xlink:href="#DejaVuSans-2e" transform="translate(722.167969 0.828125)"/>
      <use xlink:href="#DejaVuSans-39" transform="translate(753.955078 0.828125)"/>
      <use xlink:href="#DejaVuSans-2c" transform="translate(817.578125 0.828125)"/>
      <use xlink:href="#DejaVuSans-53" transform="translate(868.847656 0.828125)"/>
      <use xlink:href="#DejaVuSans-4e" transform="translate(932.324219 0.828125)"/>
      <use xlink:href="#DejaVuSans-52" transform="translate(1003.503906 0.828125)"/>
      <use xlink:href="#DejaVuSans-74" transform="translate(1073.943359 -15.578125)scale(0.7)"/>
      <use xlink:href="#DejaVuSans-72" transform="translate(1101.389648 -15.578125)scale(0.7)"/>
      <use xlink:href="#DejaVuSans-61" transform="translate(1130.168945 -15.578125)scale(0.7)"/>
      <use xlink:href="#DejaVuSans-69" transform="translate(1173.064453 -15.578125)scale(0.7)"/>
      <use xlink:href="#DejaVuSans-6e" transform="translate(1192.512695 -15.578125)scale(0.7)"/>
      <use xlink:href="#DejaVuSans-3d" transform="translate(1259.094727 0.828125)"/>
      <use xlink:href="#DejaVuSans-32" transform="translate(1362.366211 0.828125)"/>
      <use xlink:href="#DejaVuSans-30" transform="translate(1425.989258 0.828125)"/>
      <use xlink:href="#DejaVuSans-28" transform="translate(1489.612305 0.828125)"/>
      <use xlink:href="#DejaVuSans-64" transform="translate(1528.625977 0.828125)"/>
      <use xlink:href="#DejaVuSans-42" transform="translate(1592.102539 0.828125)"/>
      <use xlink:href="#DejaVuSans-29" transform="translate(1660.706055 0.828125)"/>
     </g>
    </g>
    <g id="line2d_42">
     <path d="M 211.99976 429.78476 
L 236.99976 429.78476 
L 261.99976 429.78476 
" style="fill: none; stroke: #ff0000; stroke-width: 3; stroke-linecap: square"/>
     <g>
      <use xlink:href="#mc785444e10" x="236.99976" y="429.78476" style="fill: #ffffff; stroke: #ff0000"/>
     </g>
    </g>
    <g id="text_16">
     <!-- FL+精确, $\mathrm{R}=0.5,\mathrm{SNR}_\mathrm{train}=10\mathrm{(dB)}$ -->
     <g transform="translate(281.99976 438.53476)scale(0.25 -0.25)">
      <defs>
       <path id="DejaVuSans-35" d="M 691 4666 
L 3169 4666 
L 3169 4134 
L 1269 4134 
L 1269 2991 
Q 1406 3038 1543 3061 
Q 1681 3084 1819 3084 
Q 2600 3084 3056 2656 
Q 3513 2228 3513 1497 
Q 3513 744 3044 326 
Q 2575 -91 1722 -91 
Q 1428 -91 1123 -41 
Q 819 9 494 109 
L 494 744 
Q 775 591 1075 516 
Q 1375 441 1709 441 
Q 2250 441 2565 725 
Q 2881 1009 2881 1497 
Q 2881 1984 2565 2268 
Q 2250 2553 1709 2553 
Q 1456 2553 1204 2497 
Q 953 2441 691 2322 
L 691 4666 
z
" transform="scale(0.015625)"/>
       <path id="DejaVuSans-31" d="M 794 531 
L 1825 531 
L 1825 4091 
L 703 3866 
L 703 4441 
L 1819 4666 
L 2450 4666 
L 2450 531 
L 3481 531 
L 3481 0 
L 794 0 
L 794 531 
z
" transform="scale(0.015625)"/>
      </defs>
      <use xlink:href="#UNAVAILABLE-46" transform="translate(0 0.171875)"/>
      <use xlink:href="#UNAVAILABLE-4c" transform="translate(63.623047 0.171875)"/>
      <use xlink:href="#UNAVAILABLE-2b" transform="translate(125.976562 0.171875)"/>
      <use xlink:href="#UNAVAILABLE-7cbe" transform="translate(189.013672 0.171875)"/>
      <use xlink:href="#UNAVAILABLE-786e" transform="translate(289.013672 0.171875)"/>
      <use xlink:href="#UNAVAILABLE-2c" transform="translate(389.013672 0.171875)"/>
      <use xlink:href="#UNAVAILABLE-20" transform="translate(416.308594 0.171875)"/>
      <use xlink:href="#DejaVuSans-52" transform="translate(466.308594 0.171875)"/>
      <use xlink:href="#DejaVuSans-3d" transform="translate(555.273438 0.171875)"/>
      <use xlink:href="#DejaVuSans-30" transform="translate(658.544922 0.171875)"/>
      <use xlink:href="#DejaVuSans-2e" transform="translate(722.167969 0.171875)"/>
      <use xlink:href="#DejaVuSans-35" transform="translate(753.955078 0.171875)"/>
      <use xlink:href="#DejaVuSans-2c" transform="translate(817.578125 0.171875)"/>
      <use xlink:href="#DejaVuSans-53" transform="translate(868.847656 0.171875)"/>
      <use xlink:href="#DejaVuSans-4e" transform="translate(932.324219 0.171875)"/>
      <use xlink:href="#DejaVuSans-52" transform="translate(1003.503906 0.171875)"/>
      <use xlink:href="#DejaVuSans-74" transform="translate(1073.943359 -16.234375)scale(0.7)"/>
      <use xlink:href="#DejaVuSans-72" transform="translate(1101.389648 -16.234375)scale(0.7)"/>
      <use xlink:href="#DejaVuSans-61" transform="translate(1130.168945 -16.234375)scale(0.7)"/>
      <use xlink:href="#DejaVuSans-69" transform="translate(1173.064453 -16.234375)scale(0.7)"/>
      <use xlink:href="#DejaVuSans-6e" transform="translate(1192.512695 -16.234375)scale(0.7)"/>
      <use xlink:href="#DejaVuSans-3d" transform="translate(1259.094727 0.171875)"/>
      <use xlink:href="#DejaVuSans-31" transform="translate(1362.366211 0.171875)"/>
      <use xlink:href="#DejaVuSans-30" transform="translate(1425.989258 0.171875)"/>
      <use xlink:href="#DejaVuSans-28" transform="translate(1489.612305 0.171875)"/>
      <use xlink:href="#DejaVuSans-64" transform="translate(1528.625977 0.171875)"/>
      <use xlink:href="#DejaVuSans-42" transform="translate(1592.102539 0.171875)"/>
      <use xlink:href="#DejaVuSans-29" transform="translate(1660.706055 0.171875)"/>
     </g>
    </g>
    <g id="line2d_43">
     <path d="M 211.99976 458.53476 
L 236.99976 458.53476 
L 261.99976 458.53476 
" style="fill: none; stroke-dasharray: 15,30; stroke-dashoffset: 0; stroke: #ff0000; stroke-width: 3"/>
     <g>
      <use xlink:href="#md65f0aa605" x="236.99976" y="458.53476" style="fill: #ffffff; stroke: #ff0000; stroke-linejoin: bevel"/>
     </g>
    </g>
    <g id="text_17">
     <!-- FL+量化, $\mathrm{R}=0.5,\mathrm{SNR}_\mathrm{train}=10\mathrm{(dB)}$ -->
     <g transform="translate(281.99976 467.28476)scale(0.25 -0.25)">
      <use xlink:href="#UNAVAILABLE-46" transform="translate(0 0.828125)"/>
      <use xlink:href="#UNAVAILABLE-4c" transform="translate(63.623047 0.828125)"/>
      <use xlink:href="#UNAVAILABLE-2b" transform="translate(125.976562 0.828125)"/>
      <use xlink:href="#UNAVAILABLE-91cf" transform="translate(189.013672 0.828125)"/>
      <use xlink:href="#UNAVAILABLE-5316" transform="translate(289.013672 0.828125)"/>
      <use xlink:href="#UNAVAILABLE-2c" transform="translate(389.013672 0.828125)"/>
      <use xlink:href="#UNAVAILABLE-20" transform="translate(416.308594 0.828125)"/>
      <use xlink:href="#DejaVuSans-52" transform="translate(466.308594 0.828125)"/>
      <use xlink:href="#DejaVuSans-3d" transform="translate(555.273438 0.828125)"/>
      <use xlink:href="#DejaVuSans-30" transform="translate(658.544922 0.828125)"/>
      <use xlink:href="#DejaVuSans-2e" transform="translate(722.167969 0.828125)"/>
      <use xlink:href="#DejaVuSans-35" transform="translate(753.955078 0.828125)"/>
      <use xlink:href="#DejaVuSans-2c" transform="translate(817.578125 0.828125)"/>
      <use xlink:href="#DejaVuSans-53" transform="translate(868.847656 0.828125)"/>
      <use xlink:href="#DejaVuSans-4e" transform="translate(932.324219 0.828125)"/>
      <use xlink:href="#DejaVuSans-52" transform="translate(1003.503906 0.828125)"/>
      <use xlink:href="#DejaVuSans-74" transform="translate(1073.943359 -15.578125)scale(0.7)"/>
      <use xlink:href="#DejaVuSans-72" transform="translate(1101.389648 -15.578125)scale(0.7)"/>
      <use xlink:href="#DejaVuSans-61" transform="translate(1130.168945 -15.578125)scale(0.7)"/>
      <use xlink:href="#DejaVuSans-69" transform="translate(1173.064453 -15.578125)scale(0.7)"/>
      <use xlink:href="#DejaVuSans-6e" transform="translate(1192.512695 -15.578125)scale(0.7)"/>
      <use xlink:href="#DejaVuSans-3d" transform="translate(1259.094727 0.828125)"/>
      <use xlink:href="#DejaVuSans-31" transform="translate(1362.366211 0.828125)"/>
      <use xlink:href="#DejaVuSans-30" transform="translate(1425.989258 0.828125)"/>
      <use xlink:href="#DejaVuSans-28" transform="translate(1489.612305 0.828125)"/>
      <use xlink:href="#DejaVuSans-64" transform="translate(1528.625977 0.828125)"/>
      <use xlink:href="#DejaVuSans-42" transform="translate(1592.102539 0.828125)"/>
      <use xlink:href="#DejaVuSans-29" transform="translate(1660.706055 0.828125)"/>
     </g>
    </g>
    <g id="line2d_44">
     <path d="M 211.99976 487.53476 
L 236.99976 487.53476 
L 261.99976 487.53476 
" style="fill: none; stroke: #000000; stroke-width: 3; stroke-linecap: square"/>
     <g>
      <use xlink:href="#mc65a108bed" x="236.99976" y="487.53476" style="fill: #ffffff; stroke: #000000"/>
     </g>
    </g>
    <g id="text_18">
     <!-- FL+精确, $\mathrm{R}=0.2,\mathrm{SNR}_\mathrm{train}=2\mathrm{(dB)}$ -->
     <g transform="translate(281.99976 496.28476)scale(0.25 -0.25)">
      <use xlink:href="#UNAVAILABLE-46" transform="translate(0 0.171875)"/>
      <use xlink:href="#UNAVAILABLE-4c" transform="translate(63.623047 0.171875)"/>
      <use xlink:href="#UNAVAILABLE-2b" transform="translate(125.976562 0.171875)"/>
      <use xlink:href="#UNAVAILABLE-7cbe" transform="translate(189.013672 0.171875)"/>
      <use xlink:href="#UNAVAILABLE-786e" transform="translate(289.013672 0.171875)"/>
      <use xlink:href="#UNAVAILABLE-2c" transform="translate(389.013672 0.171875)"/>
      <use xlink:href="#UNAVAILABLE-20" transform="translate(416.308594 0.171875)"/>
      <use xlink:href="#DejaVuSans-52" transform="translate(466.308594 0.171875)"/>
      <use xlink:href="#DejaVuSans-3d" transform="translate(555.273438 0.171875)"/>
      <use xlink:href="#DejaVuSans-30" transform="translate(658.544922 0.171875)"/>
      <use xlink:href="#DejaVuSans-2e" transform="translate(722.167969 0.171875)"/>
      <use xlink:href="#DejaVuSans-32" transform="translate(748.455078 0.171875)"/>
      <use xlink:href="#DejaVuSans-2c" transform="translate(812.078125 0.171875)"/>
      <use xlink:href="#DejaVuSans-53" transform="translate(863.347656 0.171875)"/>
      <use xlink:href="#DejaVuSans-4e" transform="translate(926.824219 0.171875)"/>
      <use xlink:href="#DejaVuSans-52" transform="translate(998.003906 0.171875)"/>
      <use xlink:href="#DejaVuSans-74" transform="translate(1068.443359 -16.234375)scale(0.7)"/>
      <use xlink:href="#DejaVuSans-72" transform="translate(1095.889648 -16.234375)scale(0.7)"/>
      <use xlink:href="#DejaVuSans-61" transform="translate(1124.668945 -16.234375)scale(0.7)"/>
      <use xlink:href="#DejaVuSans-69" transform="translate(1167.564453 -16.234375)scale(0.7)"/>
      <use xlink:href="#DejaVuSans-6e" transform="translate(1187.012695 -16.234375)scale(0.7)"/>
      <use xlink:href="#DejaVuSans-3d" transform="translate(1253.594727 0.171875)"/>
      <use xlink:href="#DejaVuSans-32" transform="translate(1356.866211 0.171875)"/>
      <use xlink:href="#DejaVuSans-28" transform="translate(1420.489258 0.171875)"/>
      <use xlink:href="#DejaVuSans-64" transform="translate(1459.50293 0.171875)"/>
      <use xlink:href="#DejaVuSans-42" transform="translate(1522.979492 0.171875)"/>
      <use xlink:href="#DejaVuSans-29" transform="translate(1591.583008 0.171875)"/>
     </g>
    </g>
    <g id="line2d_45">
     <path d="M 211.99976 516.28476 
L 236.99976 516.28476 
L 261.99976 516.28476 
" style="fill: none; stroke-dasharray: 15,30; stroke-dashoffset: 0; stroke: #000000; stroke-width: 3"/>
     <g>
      <use xlink:href="#m9b6bff8b27" x="236.99976" y="516.28476" style="fill: #ffffff; stroke: #000000; stroke-linejoin: bevel"/>
     </g>
    </g>
    <g id="text_19">
     <!-- FL+量化, $\mathrm{R}=0.2,\mathrm{SNR}_\mathrm{train}=2\mathrm{(dB)}$ -->
     <g transform="translate(281.99976 525.03476)scale(0.25 -0.25)">
      <use xlink:href="#UNAVAILABLE-46" transform="translate(0 0.828125)"/>
      <use xlink:href="#UNAVAILABLE-4c" transform="translate(63.623047 0.828125)"/>
      <use xlink:href="#UNAVAILABLE-2b" transform="translate(125.976562 0.828125)"/>
      <use xlink:href="#UNAVAILABLE-91cf" transform="translate(189.013672 0.828125)"/>
      <use xlink:href="#UNAVAILABLE-5316" transform="translate(289.013672 0.828125)"/>
      <use xlink:href="#UNAVAILABLE-2c" transform="translate(389.013672 0.828125)"/>
      <use xlink:href="#UNAVAILABLE-20" transform="translate(416.308594 0.828125)"/>
      <use xlink:href="#DejaVuSans-52" transform="translate(466.308594 0.828125)"/>
      <use xlink:href="#DejaVuSans-3d" transform="translate(555.273438 0.828125)"/>
      <use xlink:href="#DejaVuSans-30" transform="translate(658.544922 0.828125)"/>
      <use xlink:href="#DejaVuSans-2e" transform="translate(722.167969 0.828125)"/>
      <use xlink:href="#DejaVuSans-32" transform="translate(748.455078 0.828125)"/>
      <use xlink:href="#DejaVuSans-2c" transform="translate(812.078125 0.828125)"/>
      <use xlink:href="#DejaVuSans-53" transform="translate(863.347656 0.828125)"/>
      <use xlink:href="#DejaVuSans-4e" transform="translate(926.824219 0.828125)"/>
      <use xlink:href="#DejaVuSans-52" transform="translate(998.003906 0.828125)"/>
      <use xlink:href="#DejaVuSans-74" transform="translate(1068.443359 -15.578125)scale(0.7)"/>
      <use xlink:href="#DejaVuSans-72" transform="translate(1095.889648 -15.578125)scale(0.7)"/>
      <use xlink:href="#DejaVuSans-61" transform="translate(1124.668945 -15.578125)scale(0.7)"/>
      <use xlink:href="#DejaVuSans-69" transform="translate(1167.564453 -15.578125)scale(0.7)"/>
      <use xlink:href="#DejaVuSans-6e" transform="translate(1187.012695 -15.578125)scale(0.7)"/>
      <use xlink:href="#DejaVuSans-3d" transform="translate(1253.594727 0.828125)"/>
      <use xlink:href="#DejaVuSans-32" transform="translate(1356.866211 0.828125)"/>
      <use xlink:href="#DejaVuSans-28" transform="translate(1420.489258 0.828125)"/>
      <use xlink:href="#DejaVuSans-64" transform="translate(1459.50293 0.828125)"/>
      <use xlink:href="#DejaVuSans-42" transform="translate(1522.979492 0.828125)"/>
      <use xlink:href="#DejaVuSans-29" transform="translate(1591.583008 0.828125)"/>
     </g>
    </g>
   </g>
  </g>
  <g id="text_20">
   <!-- non-IID MNIST,  AutoEncoder -->
   <g transform="translate(171.972656 23.83149)scale(0.3 -0.3)">
    <defs>
     <path id="TimesNewRomanPSMT-6e" d="M 1034 2341 
Q 1538 2947 1994 2947 
Q 2228 2947 2397 2830 
Q 2566 2713 2666 2444 
Q 2734 2256 2734 1869 
L 2734 647 
Q 2734 375 2778 278 
Q 2813 200 2889 156 
Q 2966 113 3172 113 
L 3172 0 
L 1756 0 
L 1756 113 
L 1816 113 
Q 2016 113 2095 173 
Q 2175 234 2206 353 
Q 2219 400 2219 647 
L 2219 1819 
Q 2219 2209 2117 2386 
Q 2016 2563 1775 2563 
Q 1403 2563 1034 2156 
L 1034 647 
Q 1034 356 1069 288 
Q 1113 197 1189 155 
Q 1266 113 1500 113 
L 1500 0 
L 84 0 
L 84 113 
L 147 113 
Q 366 113 442 223 
Q 519 334 519 647 
L 519 1709 
Q 519 2225 495 2337 
Q 472 2450 423 2490 
Q 375 2531 294 2531 
Q 206 2531 84 2484 
L 38 2597 
L 900 2947 
L 1034 2947 
L 1034 2341 
z
" transform="scale(0.015625)"/>
     <path id="TimesNewRomanPSMT-6f" d="M 1600 2947 
Q 2250 2947 2644 2453 
Q 2978 2031 2978 1484 
Q 2978 1100 2793 706 
Q 2609 313 2286 112 
Q 1963 -88 1566 -88 
Q 919 -88 538 428 
Q 216 863 216 1403 
Q 216 1797 411 2186 
Q 606 2575 925 2761 
Q 1244 2947 1600 2947 
z
M 1503 2744 
Q 1338 2744 1170 2645 
Q 1003 2547 900 2300 
Q 797 2053 797 1666 
Q 797 1041 1045 587 
Q 1294 134 1700 134 
Q 2003 134 2200 384 
Q 2397 634 2397 1244 
Q 2397 2006 2069 2444 
Q 1847 2744 1503 2744 
z
" transform="scale(0.015625)"/>
     <path id="TimesNewRomanPSMT-2d" d="M 259 1672 
L 1875 1672 
L 1875 1200 
L 259 1200 
L 259 1672 
z
" transform="scale(0.015625)"/>
     <path id="TimesNewRomanPSMT-49" d="M 1975 116 
L 1975 0 
L 159 0 
L 159 116 
L 309 116 
Q 572 116 691 269 
Q 766 369 766 750 
L 766 3488 
Q 766 3809 725 3913 
Q 694 3991 597 4047 
Q 459 4122 309 4122 
L 159 4122 
L 159 4238 
L 1975 4238 
L 1975 4122 
L 1822 4122 
Q 1563 4122 1444 3969 
Q 1366 3869 1366 3488 
L 1366 750 
Q 1366 428 1406 325 
Q 1438 247 1538 191 
Q 1672 116 1822 116 
L 1975 116 
z
" transform="scale(0.015625)"/>
     <path id="TimesNewRomanPSMT-44" d="M 109 0 
L 109 116 
L 269 116 
Q 538 116 650 288 
Q 719 391 719 750 
L 719 3488 
Q 719 3884 631 3984 
Q 509 4122 269 4122 
L 109 4122 
L 109 4238 
L 1834 4238 
Q 2784 4238 3279 4022 
Q 3775 3806 4076 3303 
Q 4378 2800 4378 2141 
Q 4378 1256 3841 663 
Q 3238 0 2003 0 
L 109 0 
z
M 1319 306 
Q 1716 219 1984 219 
Q 2709 219 3187 728 
Q 3666 1238 3666 2109 
Q 3666 2988 3187 3494 
Q 2709 4000 1959 4000 
Q 1678 4000 1319 3909 
L 1319 306 
z
" transform="scale(0.015625)"/>
     <path id="TimesNewRomanPSMT-20" transform="scale(0.015625)"/>
     <path id="TimesNewRomanPSMT-4d" d="M 2619 0 
L 981 3566 
L 981 734 
Q 981 344 1066 247 
Q 1181 116 1431 116 
L 1581 116 
L 1581 0 
L 106 0 
L 106 116 
L 256 116 
Q 525 116 638 278 
Q 706 378 706 734 
L 706 3503 
Q 706 3784 644 3909 
Q 600 4000 483 4061 
Q 366 4122 106 4122 
L 106 4238 
L 1306 4238 
L 2844 922 
L 4356 4238 
L 5556 4238 
L 5556 4122 
L 5409 4122 
Q 5138 4122 5025 3959 
Q 4956 3859 4956 3503 
L 4956 734 
Q 4956 344 5044 247 
Q 5159 116 5409 116 
L 5556 116 
L 5556 0 
L 3756 0 
L 3756 116 
L 3906 116 
Q 4178 116 4288 278 
Q 4356 378 4356 734 
L 4356 3566 
L 2722 0 
L 2619 0 
z
" transform="scale(0.015625)"/>
     <path id="TimesNewRomanPSMT-4e" d="M -84 4238 
L 1066 4238 
L 3656 1059 
L 3656 3503 
Q 3656 3894 3569 3991 
Q 3453 4122 3203 4122 
L 3056 4122 
L 3056 4238 
L 4531 4238 
L 4531 4122 
L 4381 4122 
Q 4113 4122 4000 3959 
Q 3931 3859 3931 3503 
L 3931 -69 
L 3819 -69 
L 1025 3344 
L 1025 734 
Q 1025 344 1109 247 
Q 1228 116 1475 116 
L 1625 116 
L 1625 0 
L 150 0 
L 150 116 
L 297 116 
Q 569 116 681 278 
Q 750 378 750 734 
L 750 3681 
Q 566 3897 470 3965 
Q 375 4034 191 4094 
Q 100 4122 -84 4122 
L -84 4238 
z
" transform="scale(0.015625)"/>
     <path id="TimesNewRomanPSMT-53" d="M 2934 4334 
L 2934 2869 
L 2819 2869 
Q 2763 3291 2617 3541 
Q 2472 3791 2203 3937 
Q 1934 4084 1647 4084 
Q 1322 4084 1109 3886 
Q 897 3688 897 3434 
Q 897 3241 1031 3081 
Q 1225 2847 1953 2456 
Q 2547 2138 2764 1967 
Q 2981 1797 3098 1565 
Q 3216 1334 3216 1081 
Q 3216 600 2842 251 
Q 2469 -97 1881 -97 
Q 1697 -97 1534 -69 
Q 1438 -53 1133 45 
Q 828 144 747 144 
Q 669 144 623 97 
Q 578 50 556 -97 
L 441 -97 
L 441 1356 
L 556 1356 
Q 638 900 775 673 
Q 913 447 1195 297 
Q 1478 147 1816 147 
Q 2206 147 2432 353 
Q 2659 559 2659 841 
Q 2659 997 2573 1156 
Q 2488 1316 2306 1453 
Q 2184 1547 1640 1851 
Q 1097 2156 867 2337 
Q 638 2519 519 2737 
Q 400 2956 400 3219 
Q 400 3675 750 4004 
Q 1100 4334 1641 4334 
Q 1978 4334 2356 4169 
Q 2531 4091 2603 4091 
Q 2684 4091 2736 4139 
Q 2788 4188 2819 4334 
L 2934 4334 
z
" transform="scale(0.015625)"/>
     <path id="TimesNewRomanPSMT-54" d="M 3703 4238 
L 3750 3244 
L 3631 3244 
Q 3597 3506 3538 3619 
Q 3441 3800 3280 3886 
Q 3119 3972 2856 3972 
L 2259 3972 
L 2259 734 
Q 2259 344 2344 247 
Q 2463 116 2709 116 
L 2856 116 
L 2856 0 
L 1059 0 
L 1059 116 
L 1209 116 
Q 1478 116 1591 278 
Q 1659 378 1659 734 
L 1659 3972 
L 1150 3972 
Q 853 3972 728 3928 
Q 566 3869 450 3700 
Q 334 3531 313 3244 
L 194 3244 
L 244 4238 
L 3703 4238 
z
" transform="scale(0.015625)"/>
     <path id="TimesNewRomanPSMT-2c" d="M 344 -1066 
L 344 -928 
Q 666 -822 842 -598 
Q 1019 -375 1019 -125 
Q 1019 -66 991 -25 
Q 969 3 947 3 
Q 913 3 797 -59 
Q 741 -88 678 -88 
Q 525 -88 434 3 
Q 344 94 344 253 
Q 344 406 461 515 
Q 578 625 747 625 
Q 953 625 1114 445 
Q 1275 266 1275 -31 
Q 1275 -353 1051 -629 
Q 828 -906 344 -1066 
z
" transform="scale(0.015625)"/>
     <path id="TimesNewRomanPSMT-41" d="M 2928 1419 
L 1288 1419 
L 1000 750 
Q 894 503 894 381 
Q 894 284 986 211 
Q 1078 138 1384 116 
L 1384 0 
L 50 0 
L 50 116 
Q 316 163 394 238 
Q 553 388 747 847 
L 2238 4334 
L 2347 4334 
L 3822 809 
Q 4000 384 4145 257 
Q 4291 131 4550 116 
L 4550 0 
L 2878 0 
L 2878 116 
Q 3131 128 3220 200 
Q 3309 272 3309 375 
Q 3309 513 3184 809 
L 2928 1419 
z
M 2841 1650 
L 2122 3363 
L 1384 1650 
L 2841 1650 
z
" transform="scale(0.015625)"/>
     <path id="TimesNewRomanPSMT-75" d="M 2709 2863 
L 2709 1128 
Q 2709 631 2732 520 
Q 2756 409 2807 365 
Q 2859 322 2928 322 
Q 3025 322 3147 375 
L 3191 266 
L 2334 -88 
L 2194 -88 
L 2194 519 
Q 1825 119 1631 15 
Q 1438 -88 1222 -88 
Q 981 -88 804 51 
Q 628 191 559 409 
Q 491 628 491 1028 
L 491 2306 
Q 491 2509 447 2587 
Q 403 2666 317 2708 
Q 231 2750 6 2747 
L 6 2863 
L 1009 2863 
L 1009 947 
Q 1009 547 1148 422 
Q 1288 297 1484 297 
Q 1619 297 1789 381 
Q 1959 466 2194 703 
L 2194 2325 
Q 2194 2569 2105 2655 
Q 2016 2741 1734 2747 
L 1734 2863 
L 2709 2863 
z
" transform="scale(0.015625)"/>
     <path id="TimesNewRomanPSMT-74" d="M 1031 3803 
L 1031 2863 
L 1700 2863 
L 1700 2644 
L 1031 2644 
L 1031 788 
Q 1031 509 1111 412 
Q 1191 316 1316 316 
Q 1419 316 1516 380 
Q 1613 444 1666 569 
L 1788 569 
Q 1678 263 1478 108 
Q 1278 -47 1066 -47 
Q 922 -47 784 33 
Q 647 113 581 261 
Q 516 409 516 719 
L 516 2644 
L 63 2644 
L 63 2747 
Q 234 2816 414 2980 
Q 594 3144 734 3369 
Q 806 3488 934 3803 
L 1031 3803 
z
" transform="scale(0.015625)"/>
     <path id="TimesNewRomanPSMT-45" d="M 1338 4006 
L 1338 2331 
L 2269 2331 
Q 2631 2331 2753 2441 
Q 2916 2584 2934 2947 
L 3050 2947 
L 3050 1472 
L 2934 1472 
Q 2891 1781 2847 1869 
Q 2791 1978 2662 2040 
Q 2534 2103 2269 2103 
L 1338 2103 
L 1338 706 
Q 1338 425 1363 364 
Q 1388 303 1450 267 
Q 1513 231 1688 231 
L 2406 231 
Q 2766 231 2928 281 
Q 3091 331 3241 478 
Q 3434 672 3638 1063 
L 3763 1063 
L 3397 0 
L 131 0 
L 131 116 
L 281 116 
Q 431 116 566 188 
Q 666 238 702 338 
Q 738 438 738 747 
L 738 3500 
Q 738 3903 656 3997 
Q 544 4122 281 4122 
L 131 4122 
L 131 4238 
L 3397 4238 
L 3444 3309 
L 3322 3309 
Q 3256 3644 3176 3769 
Q 3097 3894 2941 3959 
Q 2816 4006 2500 4006 
L 1338 4006 
z
" transform="scale(0.015625)"/>
     <path id="TimesNewRomanPSMT-63" d="M 2631 1088 
Q 2516 522 2178 217 
Q 1841 -88 1431 -88 
Q 944 -88 581 321 
Q 219 731 219 1428 
Q 219 2103 620 2525 
Q 1022 2947 1584 2947 
Q 2006 2947 2278 2723 
Q 2550 2500 2550 2259 
Q 2550 2141 2473 2067 
Q 2397 1994 2259 1994 
Q 2075 1994 1981 2113 
Q 1928 2178 1911 2362 
Q 1894 2547 1784 2644 
Q 1675 2738 1481 2738 
Q 1169 2738 978 2506 
Q 725 2200 725 1697 
Q 725 1184 976 792 
Q 1228 400 1656 400 
Q 1963 400 2206 609 
Q 2378 753 2541 1131 
L 2631 1088 
z
" transform="scale(0.015625)"/>
     <path id="TimesNewRomanPSMT-64" d="M 2222 322 
Q 2013 103 1813 7 
Q 1613 -88 1381 -88 
Q 913 -88 563 304 
Q 213 697 213 1313 
Q 213 1928 600 2439 
Q 988 2950 1597 2950 
Q 1975 2950 2222 2709 
L 2222 3238 
Q 2222 3728 2198 3840 
Q 2175 3953 2125 3993 
Q 2075 4034 2000 4034 
Q 1919 4034 1784 3984 
L 1744 4094 
L 2597 4444 
L 2738 4444 
L 2738 1134 
Q 2738 631 2761 520 
Q 2784 409 2836 365 
Q 2888 322 2956 322 
Q 3041 322 3181 375 
L 3216 266 
L 2366 -88 
L 2222 -88 
L 2222 322 
z
M 2222 541 
L 2222 2016 
Q 2203 2228 2109 2403 
Q 2016 2578 1861 2667 
Q 1706 2756 1559 2756 
Q 1284 2756 1069 2509 
Q 784 2184 784 1559 
Q 784 928 1059 592 
Q 1334 256 1672 256 
Q 1956 256 2222 541 
z
" transform="scale(0.015625)"/>
     <path id="TimesNewRomanPSMT-65" d="M 681 1784 
Q 678 1147 991 784 
Q 1303 422 1725 422 
Q 2006 422 2214 576 
Q 2422 731 2563 1106 
L 2659 1044 
Q 2594 616 2278 264 
Q 1963 -88 1488 -88 
Q 972 -88 605 314 
Q 238 716 238 1394 
Q 238 2128 614 2539 
Q 991 2950 1559 2950 
Q 2041 2950 2350 2633 
Q 2659 2316 2659 1784 
L 681 1784 
z
M 681 1966 
L 2006 1966 
Q 1991 2241 1941 2353 
Q 1863 2528 1708 2628 
Q 1553 2728 1384 2728 
Q 1125 2728 920 2526 
Q 716 2325 681 1966 
z
" transform="scale(0.015625)"/>
     <path id="TimesNewRomanPSMT-72" d="M 1038 2947 
L 1038 2303 
Q 1397 2947 1775 2947 
Q 1947 2947 2059 2842 
Q 2172 2738 2172 2600 
Q 2172 2478 2090 2393 
Q 2009 2309 1897 2309 
Q 1788 2309 1652 2417 
Q 1516 2525 1450 2525 
Q 1394 2525 1328 2463 
Q 1188 2334 1038 2041 
L 1038 669 
Q 1038 431 1097 309 
Q 1138 225 1241 169 
Q 1344 113 1538 113 
L 1538 0 
L 72 0 
L 72 113 
Q 291 113 397 181 
Q 475 231 506 341 
Q 522 394 522 644 
L 522 1753 
Q 522 2253 501 2348 
Q 481 2444 426 2487 
Q 372 2531 291 2531 
Q 194 2531 72 2484 
L 41 2597 
L 906 2947 
L 1038 2947 
z
" transform="scale(0.015625)"/>
    </defs>
    <use xlink:href="#TimesNewRomanPSMT-6e"/>
    <use xlink:href="#TimesNewRomanPSMT-6f" x="50"/>
    <use xlink:href="#TimesNewRomanPSMT-6e" x="100"/>
    <use xlink:href="#TimesNewRomanPSMT-2d" x="150"/>
    <use xlink:href="#TimesNewRomanPSMT-49" x="183.300781"/>
    <use xlink:href="#TimesNewRomanPSMT-49" x="216.601562"/>
    <use xlink:href="#TimesNewRomanPSMT-44" x="249.902344"/>
    <use xlink:href="#TimesNewRomanPSMT-20" x="322.119141"/>
    <use xlink:href="#TimesNewRomanPSMT-4d" x="347.119141"/>
    <use xlink:href="#TimesNewRomanPSMT-4e" x="436.035156"/>
    <use xlink:href="#TimesNewRomanPSMT-49" x="508.251953"/>
    <use xlink:href="#TimesNewRomanPSMT-53" x="541.552734"/>
    <use xlink:href="#TimesNewRomanPSMT-54" x="597.167969"/>
    <use xlink:href="#TimesNewRomanPSMT-2c" x="650.876953"/>
    <use xlink:href="#TimesNewRomanPSMT-20" x="675.876953"/>
    <use xlink:href="#TimesNewRomanPSMT-20" x="700.876953"/>
    <use xlink:href="#TimesNewRomanPSMT-41" x="720.376953"/>
    <use xlink:href="#TimesNewRomanPSMT-75" x="792.59375"/>
    <use xlink:href="#TimesNewRomanPSMT-74" x="842.59375"/>
    <use xlink:href="#TimesNewRomanPSMT-6f" x="870.376953"/>
    <use xlink:href="#TimesNewRomanPSMT-45" x="920.376953"/>
    <use xlink:href="#TimesNewRomanPSMT-6e" x="981.460938"/>
    <use xlink:href="#TimesNewRomanPSMT-63" x="1031.460938"/>
    <use xlink:href="#TimesNewRomanPSMT-6f" x="1075.845703"/>
    <use xlink:href="#TimesNewRomanPSMT-64" x="1125.845703"/>
    <use xlink:href="#TimesNewRomanPSMT-65" x="1175.845703"/>
    <use xlink:href="#TimesNewRomanPSMT-72" x="1220.230469"/>
   </g>
  </g>
 </g>
 <defs>
  <clipPath id="p1090573628">
   <rect x="75.843209" y="36.249158" width="641.156551" height="503.285602"/>
  </clipPath>
 </defs>
</svg>
