<?xml version="1.0" encoding="utf-8" standalone="no"?>
<!DOCTYPE svg PUBLIC "-//W3C//DTD SVG 1.1//EN"
  "http://www.w3.org/Graphics/SVG/1.1/DTD/svg11.dtd">
<svg xmlns:xlink="http://www.w3.org/1999/xlink" width="720pt" height="612pt" viewBox="0 0 720 612" xmlns="http://www.w3.org/2000/svg" version="1.1">
 <metadata>
  <rdf:RDF xmlns:dc="http://purl.org/dc/elements/1.1/" xmlns:cc="http://creativecommons.org/ns#" xmlns:rdf="http://www.w3.org/1999/02/22-rdf-syntax-ns#">
   <cc:Work>
    <dc:type rdf:resource="http://purl.org/dc/dcmitype/StillImage"/>
    <dc:date>2023-12-03T13:49:51.529451</dc:date>
    <dc:format>image/svg+xml</dc:format>
    <dc:creator>
     <cc:Agent>
      <dc:title>Matplotlib v3.5.2, https://matplotlib.org/</dc:title>
     </cc:Agent>
    </dc:creator>
   </cc:Work>
  </rdf:RDF>
 </metadata>
 <defs>
  <style type="text/css">*{stroke-linejoin: round; stroke-linecap: butt}</style>
 </defs>
 <g id="figure_1">
  <g id="patch_1">
   <path d="M 0 612 
L 720 612 
L 720 0 
L 0 0 
z
" style="fill: #ffffff"/>
  </g>
  <g id="axes_1">
   <g id="patch_2">
    <path d="M 99.843209 539.53476 
L 716.99976 539.53476 
L 716.99976 36.249158 
L 99.843209 36.249158 
z
" style="fill: #ffffff"/>
   </g>
   <g id="matplotlib.axis_1">
    <g id="xtick_1">
     <g id="line2d_1">
      <path d="M 198.027206 539.53476 
L 198.027206 36.249158 
" clip-path="url(#p3910656ac4)" style="fill: none; stroke-dasharray: 2.5,5; stroke-dashoffset: 0; stroke: #b0b0b0; stroke-width: 0.5"/>
     </g>
     <g id="line2d_2">
      <defs>
       <path id="m44f634754e" d="M 0 0 
L 0 -3.5 
" style="stroke: #000000; stroke-width: 2"/>
      </defs>
      <g>
       <use xlink:href="#m44f634754e" x="198.027206" y="539.53476" style="stroke: #000000; stroke-width: 2"/>
      </g>
     </g>
     <g id="line2d_3">
      <defs>
       <path id="m0841cf2eaa" d="M 0 0 
L 0 3.5 
" style="stroke: #000000; stroke-width: 2"/>
      </defs>
      <g>
       <use xlink:href="#m0841cf2eaa" x="198.027206" y="36.249158" style="stroke: #000000; stroke-width: 2"/>
      </g>
     </g>
     <g id="text_1">
      <!-- 0 -->
      <g transform="translate(190.027206 565.25476)scale(0.32 -0.32)">
       <defs>
        <path id="TimesNewRomanPSMT-30" d="M 231 2094 
Q 231 2819 450 3342 
Q 669 3866 1031 4122 
Q 1313 4325 1613 4325 
Q 2100 4325 2488 3828 
Q 2972 3213 2972 2159 
Q 2972 1422 2759 906 
Q 2547 391 2217 158 
Q 1888 -75 1581 -75 
Q 975 -75 572 641 
Q 231 1244 231 2094 
z
M 844 2016 
Q 844 1141 1059 588 
Q 1238 122 1591 122 
Q 1759 122 1940 273 
Q 2122 425 2216 781 
Q 2359 1319 2359 2297 
Q 2359 3022 2209 3506 
Q 2097 3866 1919 4016 
Q 1791 4119 1609 4119 
Q 1397 4119 1231 3928 
Q 1006 3669 925 3112 
Q 844 2556 844 2016 
z
" transform="scale(0.015625)"/>
       </defs>
       <use xlink:href="#TimesNewRomanPSMT-30"/>
      </g>
     </g>
    </g>
    <g id="xtick_2">
     <g id="line2d_4">
      <path d="M 338.290058 539.53476 
L 338.290058 36.249158 
" clip-path="url(#p3910656ac4)" style="fill: none; stroke-dasharray: 2.5,5; stroke-dashoffset: 0; stroke: #b0b0b0; stroke-width: 0.5"/>
     </g>
     <g id="line2d_5">
      <g>
       <use xlink:href="#m44f634754e" x="338.290058" y="539.53476" style="stroke: #000000; stroke-width: 2"/>
      </g>
     </g>
     <g id="line2d_6">
      <g>
       <use xlink:href="#m0841cf2eaa" x="338.290058" y="36.249158" style="stroke: #000000; stroke-width: 2"/>
      </g>
     </g>
     <g id="text_2">
      <!-- 10 -->
      <g transform="translate(322.290058 565.25476)scale(0.32 -0.32)">
       <defs>
        <path id="TimesNewRomanPSMT-31" d="M 750 3822 
L 1781 4325 
L 1884 4325 
L 1884 747 
Q 1884 391 1914 303 
Q 1944 216 2037 169 
Q 2131 122 2419 116 
L 2419 0 
L 825 0 
L 825 116 
Q 1125 122 1212 167 
Q 1300 213 1334 289 
Q 1369 366 1369 747 
L 1369 3034 
Q 1369 3497 1338 3628 
Q 1316 3728 1258 3775 
Q 1200 3822 1119 3822 
Q 1003 3822 797 3725 
L 750 3822 
z
" transform="scale(0.015625)"/>
       </defs>
       <use xlink:href="#TimesNewRomanPSMT-31"/>
       <use xlink:href="#TimesNewRomanPSMT-30" x="50"/>
      </g>
     </g>
    </g>
    <g id="xtick_3">
     <g id="line2d_7">
      <path d="M 478.552911 539.53476 
L 478.552911 36.249158 
" clip-path="url(#p3910656ac4)" style="fill: none; stroke-dasharray: 2.5,5; stroke-dashoffset: 0; stroke: #b0b0b0; stroke-width: 0.5"/>
     </g>
     <g id="line2d_8">
      <g>
       <use xlink:href="#m44f634754e" x="478.552911" y="539.53476" style="stroke: #000000; stroke-width: 2"/>
      </g>
     </g>
     <g id="line2d_9">
      <g>
       <use xlink:href="#m0841cf2eaa" x="478.552911" y="36.249158" style="stroke: #000000; stroke-width: 2"/>
      </g>
     </g>
     <g id="text_3">
      <!-- 20 -->
      <g transform="translate(462.552911 565.25476)scale(0.32 -0.32)">
       <defs>
        <path id="TimesNewRomanPSMT-32" d="M 2934 816 
L 2638 0 
L 138 0 
L 138 116 
Q 1241 1122 1691 1759 
Q 2141 2397 2141 2925 
Q 2141 3328 1894 3587 
Q 1647 3847 1303 3847 
Q 991 3847 742 3664 
Q 494 3481 375 3128 
L 259 3128 
Q 338 3706 661 4015 
Q 984 4325 1469 4325 
Q 1984 4325 2329 3994 
Q 2675 3663 2675 3213 
Q 2675 2891 2525 2569 
Q 2294 2063 1775 1497 
Q 997 647 803 472 
L 1909 472 
Q 2247 472 2383 497 
Q 2519 522 2628 598 
Q 2738 675 2819 816 
L 2934 816 
z
" transform="scale(0.015625)"/>
       </defs>
       <use xlink:href="#TimesNewRomanPSMT-32"/>
       <use xlink:href="#TimesNewRomanPSMT-30" x="50"/>
      </g>
     </g>
    </g>
    <g id="xtick_4">
     <g id="line2d_10">
      <path d="M 618.815763 539.53476 
L 618.815763 36.249158 
" clip-path="url(#p3910656ac4)" style="fill: none; stroke-dasharray: 2.5,5; stroke-dashoffset: 0; stroke: #b0b0b0; stroke-width: 0.5"/>
     </g>
     <g id="line2d_11">
      <g>
       <use xlink:href="#m44f634754e" x="618.815763" y="539.53476" style="stroke: #000000; stroke-width: 2"/>
      </g>
     </g>
     <g id="line2d_12">
      <g>
       <use xlink:href="#m0841cf2eaa" x="618.815763" y="36.249158" style="stroke: #000000; stroke-width: 2"/>
      </g>
     </g>
     <g id="text_4">
      <!-- 30 -->
      <g transform="translate(602.815763 565.25476)scale(0.32 -0.32)">
       <defs>
        <path id="TimesNewRomanPSMT-33" d="M 325 3431 
Q 506 3859 782 4092 
Q 1059 4325 1472 4325 
Q 1981 4325 2253 3994 
Q 2459 3747 2459 3466 
Q 2459 3003 1878 2509 
Q 2269 2356 2469 2072 
Q 2669 1788 2669 1403 
Q 2669 853 2319 450 
Q 1863 -75 997 -75 
Q 569 -75 414 31 
Q 259 138 259 259 
Q 259 350 332 419 
Q 406 488 509 488 
Q 588 488 669 463 
Q 722 447 909 348 
Q 1097 250 1169 231 
Q 1284 197 1416 197 
Q 1734 197 1970 444 
Q 2206 691 2206 1028 
Q 2206 1275 2097 1509 
Q 2016 1684 1919 1775 
Q 1784 1900 1550 2001 
Q 1316 2103 1072 2103 
L 972 2103 
L 972 2197 
Q 1219 2228 1467 2375 
Q 1716 2522 1828 2728 
Q 1941 2934 1941 3181 
Q 1941 3503 1739 3701 
Q 1538 3900 1238 3900 
Q 753 3900 428 3381 
L 325 3431 
z
" transform="scale(0.015625)"/>
       </defs>
       <use xlink:href="#TimesNewRomanPSMT-33"/>
       <use xlink:href="#TimesNewRomanPSMT-30" x="50"/>
      </g>
     </g>
    </g>
    <g id="text_5">
     <!-- $\mathrm{{SNR}}_\mathrm{{test}}\mathrm{{(dB)}}$ -->
     <g transform="translate(311.646484 602.69976)scale(0.35 -0.35)">
      <defs>
       <path id="DejaVuSans-53" d="M 3425 4513 
L 3425 3897 
Q 3066 4069 2747 4153 
Q 2428 4238 2131 4238 
Q 1616 4238 1336 4038 
Q 1056 3838 1056 3469 
Q 1056 3159 1242 3001 
Q 1428 2844 1947 2747 
L 2328 2669 
Q 3034 2534 3370 2195 
Q 3706 1856 3706 1288 
Q 3706 609 3251 259 
Q 2797 -91 1919 -91 
Q 1588 -91 1214 -16 
Q 841 59 441 206 
L 441 856 
Q 825 641 1194 531 
Q 1563 422 1919 422 
Q 2459 422 2753 634 
Q 3047 847 3047 1241 
Q 3047 1584 2836 1778 
Q 2625 1972 2144 2069 
L 1759 2144 
Q 1053 2284 737 2584 
Q 422 2884 422 3419 
Q 422 4038 858 4394 
Q 1294 4750 2059 4750 
Q 2388 4750 2728 4690 
Q 3069 4631 3425 4513 
z
" transform="scale(0.015625)"/>
       <path id="DejaVuSans-4e" d="M 628 4666 
L 1478 4666 
L 3547 763 
L 3547 4666 
L 4159 4666 
L 4159 0 
L 3309 0 
L 1241 3903 
L 1241 0 
L 628 0 
L 628 4666 
z
" transform="scale(0.015625)"/>
       <path id="DejaVuSans-52" d="M 2841 2188 
Q 3044 2119 3236 1894 
Q 3428 1669 3622 1275 
L 4263 0 
L 3584 0 
L 2988 1197 
Q 2756 1666 2539 1819 
Q 2322 1972 1947 1972 
L 1259 1972 
L 1259 0 
L 628 0 
L 628 4666 
L 2053 4666 
Q 2853 4666 3247 4331 
Q 3641 3997 3641 3322 
Q 3641 2881 3436 2590 
Q 3231 2300 2841 2188 
z
M 1259 4147 
L 1259 2491 
L 2053 2491 
Q 2509 2491 2742 2702 
Q 2975 2913 2975 3322 
Q 2975 3731 2742 3939 
Q 2509 4147 2053 4147 
L 1259 4147 
z
" transform="scale(0.015625)"/>
       <path id="DejaVuSans-74" d="M 1172 4494 
L 1172 3500 
L 2356 3500 
L 2356 3053 
L 1172 3053 
L 1172 1153 
Q 1172 725 1289 603 
Q 1406 481 1766 481 
L 2356 481 
L 2356 0 
L 1766 0 
Q 1100 0 847 248 
Q 594 497 594 1153 
L 594 3053 
L 172 3053 
L 172 3500 
L 594 3500 
L 594 4494 
L 1172 4494 
z
" transform="scale(0.015625)"/>
       <path id="DejaVuSans-65" d="M 3597 1894 
L 3597 1613 
L 953 1613 
Q 991 1019 1311 708 
Q 1631 397 2203 397 
Q 2534 397 2845 478 
Q 3156 559 3463 722 
L 3463 178 
Q 3153 47 2828 -22 
Q 2503 -91 2169 -91 
Q 1331 -91 842 396 
Q 353 884 353 1716 
Q 353 2575 817 3079 
Q 1281 3584 2069 3584 
Q 2775 3584 3186 3129 
Q 3597 2675 3597 1894 
z
M 3022 2063 
Q 3016 2534 2758 2815 
Q 2500 3097 2075 3097 
Q 1594 3097 1305 2825 
Q 1016 2553 972 2059 
L 3022 2063 
z
" transform="scale(0.015625)"/>
       <path id="DejaVuSans-73" d="M 2834 3397 
L 2834 2853 
Q 2591 2978 2328 3040 
Q 2066 3103 1784 3103 
Q 1356 3103 1142 2972 
Q 928 2841 928 2578 
Q 928 2378 1081 2264 
Q 1234 2150 1697 2047 
L 1894 2003 
Q 2506 1872 2764 1633 
Q 3022 1394 3022 966 
Q 3022 478 2636 193 
Q 2250 -91 1575 -91 
Q 1294 -91 989 -36 
Q 684 19 347 128 
L 347 722 
Q 666 556 975 473 
Q 1284 391 1588 391 
Q 1994 391 2212 530 
Q 2431 669 2431 922 
Q 2431 1156 2273 1281 
Q 2116 1406 1581 1522 
L 1381 1569 
Q 847 1681 609 1914 
Q 372 2147 372 2553 
Q 372 3047 722 3315 
Q 1072 3584 1716 3584 
Q 2034 3584 2315 3537 
Q 2597 3491 2834 3397 
z
" transform="scale(0.015625)"/>
       <path id="DejaVuSans-28" d="M 1984 4856 
Q 1566 4138 1362 3434 
Q 1159 2731 1159 2009 
Q 1159 1288 1364 580 
Q 1569 -128 1984 -844 
L 1484 -844 
Q 1016 -109 783 600 
Q 550 1309 550 2009 
Q 550 2706 781 3412 
Q 1013 4119 1484 4856 
L 1984 4856 
z
" transform="scale(0.015625)"/>
       <path id="DejaVuSans-64" d="M 2906 2969 
L 2906 4863 
L 3481 4863 
L 3481 0 
L 2906 0 
L 2906 525 
Q 2725 213 2448 61 
Q 2172 -91 1784 -91 
Q 1150 -91 751 415 
Q 353 922 353 1747 
Q 353 2572 751 3078 
Q 1150 3584 1784 3584 
Q 2172 3584 2448 3432 
Q 2725 3281 2906 2969 
z
M 947 1747 
Q 947 1113 1208 752 
Q 1469 391 1925 391 
Q 2381 391 2643 752 
Q 2906 1113 2906 1747 
Q 2906 2381 2643 2742 
Q 2381 3103 1925 3103 
Q 1469 3103 1208 2742 
Q 947 2381 947 1747 
z
" transform="scale(0.015625)"/>
       <path id="DejaVuSans-42" d="M 1259 2228 
L 1259 519 
L 2272 519 
Q 2781 519 3026 730 
Q 3272 941 3272 1375 
Q 3272 1813 3026 2020 
Q 2781 2228 2272 2228 
L 1259 2228 
z
M 1259 4147 
L 1259 2741 
L 2194 2741 
Q 2656 2741 2882 2914 
Q 3109 3088 3109 3444 
Q 3109 3797 2882 3972 
Q 2656 4147 2194 4147 
L 1259 4147 
z
M 628 4666 
L 2241 4666 
Q 2963 4666 3353 4366 
Q 3744 4066 3744 3513 
Q 3744 3084 3544 2831 
Q 3344 2578 2956 2516 
Q 3422 2416 3680 2098 
Q 3938 1781 3938 1306 
Q 3938 681 3513 340 
Q 3088 0 2303 0 
L 628 0 
L 628 4666 
z
" transform="scale(0.015625)"/>
       <path id="DejaVuSans-29" d="M 513 4856 
L 1013 4856 
Q 1481 4119 1714 3412 
Q 1947 2706 1947 2009 
Q 1947 1309 1714 600 
Q 1481 -109 1013 -844 
L 513 -844 
Q 928 -128 1133 580 
Q 1338 1288 1338 2009 
Q 1338 2731 1133 3434 
Q 928 4138 513 4856 
z
" transform="scale(0.015625)"/>
      </defs>
      <use xlink:href="#DejaVuSans-53" transform="translate(0 0.015625)"/>
      <use xlink:href="#DejaVuSans-4e" transform="translate(63.476562 0.015625)"/>
      <use xlink:href="#DejaVuSans-52" transform="translate(134.65625 0.015625)"/>
      <use xlink:href="#DejaVuSans-74" transform="translate(205.095703 -16.390625)scale(0.7)"/>
      <use xlink:href="#DejaVuSans-65" transform="translate(232.541992 -16.390625)scale(0.7)"/>
      <use xlink:href="#DejaVuSans-73" transform="translate(275.608398 -16.390625)scale(0.7)"/>
      <use xlink:href="#DejaVuSans-74" transform="translate(312.078125 -16.390625)scale(0.7)"/>
      <use xlink:href="#DejaVuSans-28" transform="translate(342.258789 0.015625)"/>
      <use xlink:href="#DejaVuSans-64" transform="translate(381.272461 0.015625)"/>
      <use xlink:href="#DejaVuSans-42" transform="translate(444.749023 0.015625)"/>
      <use xlink:href="#DejaVuSans-29" transform="translate(513.352539 0.015625)"/>
     </g>
    </g>
   </g>
   <g id="matplotlib.axis_2">
    <g id="ytick_1">
     <g id="line2d_13">
      <path d="M 99.843209 474.773333 
L 716.99976 474.773333 
" clip-path="url(#p3910656ac4)" style="fill: none; stroke-dasharray: 2.5,5; stroke-dashoffset: 0; stroke: #b0b0b0; stroke-width: 0.5"/>
     </g>
     <g id="line2d_14">
      <defs>
       <path id="m8cb610207b" d="M 0 0 
L 3.5 0 
" style="stroke: #000000; stroke-width: 2"/>
      </defs>
      <g>
       <use xlink:href="#m8cb610207b" x="99.843209" y="474.773333" style="stroke: #000000; stroke-width: 2"/>
      </g>
     </g>
     <g id="line2d_15">
      <defs>
       <path id="m4e56859749" d="M 0 0 
L -3.5 0 
" style="stroke: #000000; stroke-width: 2"/>
      </defs>
      <g>
       <use xlink:href="#m4e56859749" x="716.99976" y="474.773333" style="stroke: #000000; stroke-width: 2"/>
      </g>
     </g>
     <g id="text_6">
      <!-- 17.5 -->
      <g transform="translate(40.343209 485.883333)scale(0.32 -0.32)">
       <defs>
        <path id="TimesNewRomanPSMT-37" d="M 644 4238 
L 2916 4238 
L 2916 4119 
L 1503 -88 
L 1153 -88 
L 2419 3728 
L 1253 3728 
Q 900 3728 750 3644 
Q 488 3500 328 3200 
L 238 3234 
L 644 4238 
z
" transform="scale(0.015625)"/>
        <path id="TimesNewRomanPSMT-2e" d="M 800 606 
Q 947 606 1047 504 
Q 1147 403 1147 259 
Q 1147 116 1045 14 
Q 944 -88 800 -88 
Q 656 -88 554 14 
Q 453 116 453 259 
Q 453 406 554 506 
Q 656 606 800 606 
z
" transform="scale(0.015625)"/>
        <path id="TimesNewRomanPSMT-35" d="M 2778 4238 
L 2534 3706 
L 1259 3706 
L 981 3138 
Q 1809 3016 2294 2522 
Q 2709 2097 2709 1522 
Q 2709 1188 2573 903 
Q 2438 619 2231 419 
Q 2025 219 1772 97 
Q 1413 -75 1034 -75 
Q 653 -75 479 54 
Q 306 184 306 341 
Q 306 428 378 495 
Q 450 563 559 563 
Q 641 563 702 538 
Q 763 513 909 409 
Q 1144 247 1384 247 
Q 1750 247 2026 523 
Q 2303 800 2303 1197 
Q 2303 1581 2056 1914 
Q 1809 2247 1375 2428 
Q 1034 2569 447 2591 
L 1259 4238 
L 2778 4238 
z
" transform="scale(0.015625)"/>
       </defs>
       <use xlink:href="#TimesNewRomanPSMT-31"/>
       <use xlink:href="#TimesNewRomanPSMT-37" x="50"/>
       <use xlink:href="#TimesNewRomanPSMT-2e" x="100"/>
       <use xlink:href="#TimesNewRomanPSMT-35" x="125"/>
      </g>
     </g>
    </g>
    <g id="ytick_2">
     <g id="line2d_16">
      <path d="M 99.843209 391.030676 
L 716.99976 391.030676 
" clip-path="url(#p3910656ac4)" style="fill: none; stroke-dasharray: 2.5,5; stroke-dashoffset: 0; stroke: #b0b0b0; stroke-width: 0.5"/>
     </g>
     <g id="line2d_17">
      <g>
       <use xlink:href="#m8cb610207b" x="99.843209" y="391.030676" style="stroke: #000000; stroke-width: 2"/>
      </g>
     </g>
     <g id="line2d_18">
      <g>
       <use xlink:href="#m4e56859749" x="716.99976" y="391.030676" style="stroke: #000000; stroke-width: 2"/>
      </g>
     </g>
     <g id="text_7">
      <!-- 20.0 -->
      <g transform="translate(40.343209 402.140676)scale(0.32 -0.32)">
       <use xlink:href="#TimesNewRomanPSMT-32"/>
       <use xlink:href="#TimesNewRomanPSMT-30" x="50"/>
       <use xlink:href="#TimesNewRomanPSMT-2e" x="100"/>
       <use xlink:href="#TimesNewRomanPSMT-30" x="125"/>
      </g>
     </g>
    </g>
    <g id="ytick_3">
     <g id="line2d_19">
      <path d="M 99.843209 307.28802 
L 716.99976 307.28802 
" clip-path="url(#p3910656ac4)" style="fill: none; stroke-dasharray: 2.5,5; stroke-dashoffset: 0; stroke: #b0b0b0; stroke-width: 0.5"/>
     </g>
     <g id="line2d_20">
      <g>
       <use xlink:href="#m8cb610207b" x="99.843209" y="307.28802" style="stroke: #000000; stroke-width: 2"/>
      </g>
     </g>
     <g id="line2d_21">
      <g>
       <use xlink:href="#m4e56859749" x="716.99976" y="307.28802" style="stroke: #000000; stroke-width: 2"/>
      </g>
     </g>
     <g id="text_8">
      <!-- 22.5 -->
      <g transform="translate(40.343209 318.39802)scale(0.32 -0.32)">
       <use xlink:href="#TimesNewRomanPSMT-32"/>
       <use xlink:href="#TimesNewRomanPSMT-32" x="50"/>
       <use xlink:href="#TimesNewRomanPSMT-2e" x="100"/>
       <use xlink:href="#TimesNewRomanPSMT-35" x="125"/>
      </g>
     </g>
    </g>
    <g id="ytick_4">
     <g id="line2d_22">
      <path d="M 99.843209 223.545363 
L 716.99976 223.545363 
" clip-path="url(#p3910656ac4)" style="fill: none; stroke-dasharray: 2.5,5; stroke-dashoffset: 0; stroke: #b0b0b0; stroke-width: 0.5"/>
     </g>
     <g id="line2d_23">
      <g>
       <use xlink:href="#m8cb610207b" x="99.843209" y="223.545363" style="stroke: #000000; stroke-width: 2"/>
      </g>
     </g>
     <g id="line2d_24">
      <g>
       <use xlink:href="#m4e56859749" x="716.99976" y="223.545363" style="stroke: #000000; stroke-width: 2"/>
      </g>
     </g>
     <g id="text_9">
      <!-- 25.0 -->
      <g transform="translate(40.343209 234.655363)scale(0.32 -0.32)">
       <use xlink:href="#TimesNewRomanPSMT-32"/>
       <use xlink:href="#TimesNewRomanPSMT-35" x="50"/>
       <use xlink:href="#TimesNewRomanPSMT-2e" x="100"/>
       <use xlink:href="#TimesNewRomanPSMT-30" x="125"/>
      </g>
     </g>
    </g>
    <g id="ytick_5">
     <g id="line2d_25">
      <path d="M 99.843209 139.802707 
L 716.99976 139.802707 
" clip-path="url(#p3910656ac4)" style="fill: none; stroke-dasharray: 2.5,5; stroke-dashoffset: 0; stroke: #b0b0b0; stroke-width: 0.5"/>
     </g>
     <g id="line2d_26">
      <g>
       <use xlink:href="#m8cb610207b" x="99.843209" y="139.802707" style="stroke: #000000; stroke-width: 2"/>
      </g>
     </g>
     <g id="line2d_27">
      <g>
       <use xlink:href="#m4e56859749" x="716.99976" y="139.802707" style="stroke: #000000; stroke-width: 2"/>
      </g>
     </g>
     <g id="text_10">
      <!-- 27.5 -->
      <g transform="translate(40.343209 150.912707)scale(0.32 -0.32)">
       <use xlink:href="#TimesNewRomanPSMT-32"/>
       <use xlink:href="#TimesNewRomanPSMT-37" x="50"/>
       <use xlink:href="#TimesNewRomanPSMT-2e" x="100"/>
       <use xlink:href="#TimesNewRomanPSMT-35" x="125"/>
      </g>
     </g>
    </g>
    <g id="ytick_6">
     <g id="line2d_28">
      <path d="M 99.843209 56.06005 
L 716.99976 56.06005 
" clip-path="url(#p3910656ac4)" style="fill: none; stroke-dasharray: 2.5,5; stroke-dashoffset: 0; stroke: #b0b0b0; stroke-width: 0.5"/>
     </g>
     <g id="line2d_29">
      <g>
       <use xlink:href="#m8cb610207b" x="99.843209" y="56.06005" style="stroke: #000000; stroke-width: 2"/>
      </g>
     </g>
     <g id="line2d_30">
      <g>
       <use xlink:href="#m4e56859749" x="716.99976" y="56.06005" style="stroke: #000000; stroke-width: 2"/>
      </g>
     </g>
     <g id="text_11">
      <!-- 30.0 -->
      <g transform="translate(40.343209 67.17005)scale(0.32 -0.32)">
       <use xlink:href="#TimesNewRomanPSMT-33"/>
       <use xlink:href="#TimesNewRomanPSMT-30" x="50"/>
       <use xlink:href="#TimesNewRomanPSMT-2e" x="100"/>
       <use xlink:href="#TimesNewRomanPSMT-30" x="125"/>
      </g>
     </g>
    </g>
    <g id="text_12">
     <!-- PSNR(dB) -->
     <g transform="translate(30.174459 368.370084)rotate(-90)scale(0.35 -0.35)">
      <defs>
       <path id="UNAVAILABLE-50" d="M 1219 1888 
L 1219 372 
Q 1219 216 1251 159 
Q 1284 103 1361 53 
Q 1438 3 1597 3 
L 1803 3 
Q 1925 3 1923 -94 
Q 1922 -191 1803 -191 
L 206 -191 
Q 97 -191 101 -94 
Q 106 3 206 3 
L 397 3 
Q 531 3 606 43 
Q 681 84 711 140 
Q 741 197 741 422 
L 741 3838 
Q 741 3922 708 3978 
Q 675 4034 611 4073 
Q 547 4113 422 4113 
L 181 4113 
Q 84 4113 76 4211 
Q 69 4309 181 4309 
L 2175 4309 
Q 2466 4309 2752 4253 
Q 3038 4197 3258 4030 
Q 3478 3863 3572 3630 
Q 3666 3397 3667 3078 
Q 3669 2759 3556 2538 
Q 3403 2241 3108 2095 
Q 2813 1950 2463 1919 
Q 2113 1888 1813 1888 
L 1219 1888 
z
M 1219 2066 
L 1797 2066 
Q 2125 2066 2419 2130 
Q 2713 2194 2936 2412 
Q 3159 2631 3161 3020 
Q 3163 3409 2997 3666 
Q 2825 3928 2595 4020 
Q 2366 4113 2175 4113 
L 1700 4113 
Q 1522 4113 1423 4067 
Q 1325 4022 1272 3967 
Q 1219 3913 1219 3813 
L 1219 2066 
z
" transform="scale(0.015625)"/>
       <path id="UNAVAILABLE-53" d="M 2856 4172 
L 3219 3122 
Q 3247 3031 3175 2992 
Q 3103 2953 3047 3056 
L 2969 3197 
Q 2894 3331 2722 3556 
Q 2550 3781 2278 3967 
Q 2006 4153 1672 4150 
Q 1341 4144 1122 3953 
Q 903 3763 856 3441 
Q 809 3119 981 2884 
Q 1100 2716 1342 2600 
Q 1584 2484 2003 2359 
Q 2422 2234 2717 2092 
Q 3013 1950 3188 1686 
Q 3363 1422 3370 1083 
Q 3378 744 3203 459 
Q 3044 203 2747 29 
Q 2450 -144 2097 -169 
Q 1869 -188 1659 -150 
Q 1450 -113 1325 -72 
L 988 31 
Q 881 53 834 31 
Q 791 9 772 -31 
L 750 -97 
Q 719 -163 658 -169 
Q 597 -175 559 -72 
L 103 1131 
Q 66 1234 137 1270 
Q 209 1306 259 1228 
L 369 1041 
Q 438 916 642 650 
Q 847 384 1158 211 
Q 1469 38 1856 34 
Q 2103 31 2323 118 
Q 2544 206 2703 418 
Q 2863 631 2863 928 
Q 2859 1191 2736 1356 
Q 2613 1522 2366 1642 
Q 2119 1763 1695 1897 
Q 1272 2031 983 2167 
Q 694 2303 516 2558 
Q 338 2813 327 3150 
Q 316 3488 506 3784 
Q 678 4053 979 4203 
Q 1281 4353 1675 4344 
Q 1881 4338 2034 4292 
Q 2188 4247 2338 4167 
Q 2488 4088 2553 4103 
Q 2594 4113 2625 4144 
L 2684 4219 
Q 2713 4247 2767 4255 
Q 2822 4263 2856 4172 
z
" transform="scale(0.015625)"/>
       <path id="UNAVAILABLE-4e" d="M 1225 4309 
L 3944 613 
L 3944 3759 
Q 3944 3875 3919 3942 
Q 3894 4009 3837 4062 
Q 3781 4116 3669 4116 
L 3394 4116 
Q 3288 4116 3286 4212 
Q 3284 4309 3394 4309 
L 4594 4309 
Q 4738 4309 4752 4212 
Q 4766 4116 4609 4116 
L 4428 4116 
Q 4275 4116 4225 4078 
Q 4175 4041 4154 3983 
Q 4134 3925 4134 3800 
L 4134 -34 
Q 4134 -153 4028 -172 
Q 3922 -191 3850 -88 
L 1034 3884 
L 1034 334 
Q 1034 203 1076 139 
Q 1119 75 1184 44 
Q 1250 13 1406 13 
L 1563 13 
Q 1659 13 1673 -79 
Q 1688 -172 1544 -172 
L 344 -172 
Q 238 -172 245 -79 
Q 253 13 344 13 
L 550 13 
Q 631 13 695 47 
Q 759 81 801 151 
Q 844 222 844 334 
L 844 3750 
Q 844 3844 808 3926 
Q 772 4009 703 4062 
Q 634 4116 491 4116 
L 291 4116 
Q 172 4116 172 4212 
Q 172 4309 291 4309 
L 1225 4309 
z
" transform="scale(0.015625)"/>
       <path id="UNAVAILABLE-52" d="M 2556 2050 
L 3672 356 
Q 3744 244 3836 155 
Q 3928 66 4014 42 
Q 4100 19 4219 19 
L 4494 19 
Q 4600 19 4604 -84 
Q 4609 -188 4494 -188 
L 3494 -188 
L 2022 2050 
L 1306 2050 
L 1306 419 
Q 1306 194 1342 141 
Q 1378 88 1439 53 
Q 1500 19 1659 19 
L 1875 19 
Q 1975 19 1976 -84 
Q 1978 -188 1866 -188 
L 306 -188 
Q 222 -188 208 -84 
Q 194 19 306 19 
L 444 19 
Q 616 19 686 51 
Q 756 84 789 154 
Q 822 225 822 419 
L 822 3750 
Q 822 3869 798 3931 
Q 775 3994 715 4050 
Q 656 4106 453 4106 
L 247 4106 
Q 156 4106 137 4207 
Q 119 4309 247 4309 
L 2356 4309 
Q 2763 4309 3136 4195 
Q 3509 4081 3701 3820 
Q 3894 3559 3900 3195 
Q 3906 2831 3784 2616 
Q 3634 2356 3346 2228 
Q 3059 2100 2781 2075 
L 2556 2050 
L 2556 2050 
z
M 1306 2219 
L 2347 2219 
Q 2647 2219 2870 2314 
Q 3094 2409 3228 2653 
Q 3363 2897 3356 3159 
Q 3347 3428 3200 3651 
Q 3053 3875 2812 3990 
Q 2572 4106 2272 4106 
L 1763 4106 
Q 1581 4106 1497 4064 
Q 1413 4022 1359 3956 
Q 1306 3891 1306 3744 
L 1306 2219 
z
" transform="scale(0.015625)"/>
       <path id="UNAVAILABLE-28" d="M 1488 -909 
L 1369 -763 
Q 1216 -578 969 -207 
Q 722 163 594 503 
Q 466 844 417 1164 
Q 369 1484 366 1696 
Q 363 1909 363 2028 
Q 369 2338 417 2658 
Q 466 2978 595 3323 
Q 725 3669 983 4050 
Q 1241 4431 1488 4738 
L 1591 4866 
Q 1616 4900 1658 4931 
Q 1700 4963 1725 4961 
Q 1750 4959 1773 4931 
Q 1797 4903 1756 4834 
L 1653 4659 
Q 1547 4481 1369 4167 
Q 1191 3853 1117 3668 
Q 1044 3484 975 3225 
Q 906 2966 862 2720 
Q 819 2475 809 2192 
Q 800 1909 809 1703 
Q 819 1353 864 1092 
Q 909 831 964 636 
Q 1019 441 1123 159 
Q 1228 -122 1556 -669 
L 1653 -831 
Q 1766 -1028 1767 -1062 
Q 1769 -1097 1739 -1112 
Q 1709 -1128 1661 -1098 
Q 1613 -1069 1488 -909 
z
" transform="scale(0.015625)"/>
       <path id="UNAVAILABLE-64" d="M 2581 2575 
L 2581 3741 
Q 2581 3844 2551 3911 
Q 2522 3978 2415 4014 
Q 2309 4050 2200 4050 
L 2050 4047 
Q 1925 4044 1942 4126 
Q 1959 4209 2063 4216 
L 2244 4225 
Q 2347 4228 2453 4248 
Q 2559 4269 2673 4311 
Q 2788 4353 2856 4397 
L 2969 4466 
L 2969 441 
Q 2969 269 2998 211 
Q 3028 153 3093 111 
Q 3159 69 3288 69 
L 3384 69 
Q 3497 69 3495 -20 
Q 3494 -109 3394 -109 
L 2581 -109 
L 2581 138 
Q 2484 50 2414 -4 
Q 2344 -59 2173 -145 
Q 2003 -231 1656 -231 
Q 1372 -234 1105 -143 
Q 838 -53 602 167 
Q 366 388 266 716 
Q 166 1044 172 1372 
Q 178 1681 272 1976 
Q 366 2272 561 2525 
Q 756 2778 1020 2906 
Q 1284 3034 1622 3031 
Q 1878 3028 2097 2942 
Q 2316 2856 2416 2747 
L 2581 2575 
L 2581 2575 
z
M 2581 431 
L 2581 2316 
Q 2513 2400 2420 2506 
Q 2328 2613 2108 2736 
Q 1888 2859 1647 2850 
Q 1409 2838 1179 2680 
Q 950 2522 798 2192 
Q 647 1863 626 1416 
Q 606 969 750 638 
Q 881 331 1128 146 
Q 1375 -38 1666 -50 
Q 1981 -69 2182 65 
Q 2384 200 2484 319 
L 2581 431 
L 2581 431 
z
" transform="scale(0.015625)"/>
       <path id="UNAVAILABLE-42" d="M 481 4091 
L 300 4091 
Q 197 4091 197 4192 
Q 197 4294 300 4294 
L 2406 4294 
Q 2638 4294 2931 4217 
Q 3225 4141 3450 3864 
Q 3675 3588 3669 3216 
Q 3663 2991 3566 2811 
Q 3469 2631 3289 2484 
Q 3109 2338 2934 2272 
L 2725 2188 
Q 2931 2153 3120 2103 
Q 3309 2053 3509 1886 
Q 3709 1719 3795 1486 
Q 3881 1253 3875 1009 
Q 3863 684 3723 446 
Q 3584 209 3362 67 
Q 3141 -75 2902 -129 
Q 2663 -184 2391 -184 
L 334 -184 
Q 241 -184 228 -84 
Q 216 16 344 16 
L 506 16 
Q 653 16 726 95 
Q 800 175 800 353 
L 800 3788 
Q 800 3938 719 4014 
Q 638 4091 481 4091 
z
M 2294 4091 
L 1697 4091 
Q 1456 4091 1365 3984 
Q 1275 3878 1275 3772 
L 1275 2272 
L 2278 2272 
Q 2484 2272 2670 2356 
Q 2856 2441 2998 2652 
Q 3141 2863 3141 3216 
Q 3138 3509 3017 3704 
Q 2897 3900 2695 3995 
Q 2494 4091 2294 4091 
z
M 1275 2078 
L 1275 363 
Q 1275 219 1386 117 
Q 1497 16 1613 16 
L 2328 16 
Q 2600 16 2844 128 
Q 3088 241 3211 484 
Q 3334 728 3346 1045 
Q 3359 1363 3228 1609 
Q 3063 1906 2823 1992 
Q 2584 2078 2294 2078 
L 1275 2078 
z
" transform="scale(0.015625)"/>
       <path id="UNAVAILABLE-29" d="M 509 -822 
L 603 -663 
Q 925 -113 1033 170 
Q 1141 453 1195 643 
Q 1250 834 1294 1093 
Q 1338 1353 1347 1634 
Q 1356 1916 1350 2128 
Q 1338 2491 1295 2730 
Q 1253 2969 1184 3230 
Q 1116 3491 1044 3670 
Q 972 3850 781 4189 
Q 591 4528 509 4666 
L 403 4841 
Q 366 4906 386 4936 
Q 406 4966 431 4967 
Q 456 4969 501 4936 
Q 547 4903 572 4875 
L 675 4744 
Q 956 4381 1192 4036 
Q 1428 3691 1561 3336 
Q 1694 2981 1742 2662 
Q 1791 2344 1795 2130 
Q 1800 1916 1800 1803 
Q 1791 1491 1742 1170 
Q 1694 850 1566 509 
Q 1438 169 1191 -201 
Q 944 -572 794 -756 
L 675 -903 
Q 547 -1063 498 -1092 
Q 450 -1122 422 -1106 
Q 394 -1091 394 -1055 
Q 394 -1019 509 -822 
z
" transform="scale(0.015625)"/>
      </defs>
      <use xlink:href="#UNAVAILABLE-50"/>
      <use xlink:href="#UNAVAILABLE-53" x="61.035156"/>
      <use xlink:href="#UNAVAILABLE-4e" x="116.748047"/>
      <use xlink:href="#UNAVAILABLE-52" x="194.677734"/>
      <use xlink:href="#UNAVAILABLE-28" x="269.677734"/>
      <use xlink:href="#UNAVAILABLE-64" x="303.222656"/>
      <use xlink:href="#UNAVAILABLE-42" x="358.984375"/>
      <use xlink:href="#UNAVAILABLE-29" x="426.318359"/>
     </g>
    </g>
   </g>
   <g id="line2d_31">
    <path d="M 127.895779 460.300775 
L 141.922065 432.767642 
L 155.94835 404.893398 
L 169.974635 376.988166 
L 184.00092 349.344567 
L 198.027206 322.235156 
L 212.053491 295.909747 
L 226.079776 270.593298 
L 240.106061 246.483933 
L 254.132347 223.751155 
L 268.158632 202.534628 
L 282.184917 182.943221 
L 296.211202 165.053924 
L 310.237488 148.830381 
L 324.263773 134.426698 
L 338.290058 121.849199 
L 352.316343 110.919374 
L 366.342629 101.654027 
L 380.368914 93.835354 
L 394.395199 87.343752 
L 408.421484 81.960651 
L 422.44777 77.52524 
L 436.474055 73.865971 
L 450.50034 70.937802 
L 464.526625 68.508235 
L 478.552911 66.563086 
L 492.579196 65.007542 
L 506.605481 63.78736 
L 520.631766 62.776419 
L 534.658052 61.984815 
L 548.684337 61.35511 
L 562.710622 60.853696 
L 576.736907 60.453103 
L 590.763193 60.131541 
L 604.789478 59.87189 
L 618.815763 59.661243 
L 632.842048 59.490208 
L 646.868334 59.352907 
L 660.894619 59.246082 
L 674.920904 59.169541 
L 688.947189 59.125776 
" clip-path="url(#p3910656ac4)" style="fill: none; stroke: #0000ff; stroke-width: 3; stroke-linecap: square"/>
    <defs>
     <path id="m7dd77b85bf" d="M 0 -10 
L -2.24514 -3.09017 
L -9.510565 -3.09017 
L -3.632713 1.18034 
L -5.877853 8.09017 
L -0 3.81966 
L 5.877853 8.09017 
L 3.632713 1.18034 
L 9.510565 -3.09017 
L 2.24514 -3.09017 
z
" style="stroke: #0000ff; stroke-linejoin: bevel"/>
    </defs>
    <g clip-path="url(#p3910656ac4)">
     <use xlink:href="#m7dd77b85bf" x="127.895779" y="460.300775" style="fill: #ffffff; stroke: #0000ff; stroke-linejoin: bevel"/>
     <use xlink:href="#m7dd77b85bf" x="184.00092" y="349.344567" style="fill: #ffffff; stroke: #0000ff; stroke-linejoin: bevel"/>
     <use xlink:href="#m7dd77b85bf" x="240.106061" y="246.483933" style="fill: #ffffff; stroke: #0000ff; stroke-linejoin: bevel"/>
     <use xlink:href="#m7dd77b85bf" x="296.211202" y="165.053924" style="fill: #ffffff; stroke: #0000ff; stroke-linejoin: bevel"/>
     <use xlink:href="#m7dd77b85bf" x="352.316343" y="110.919374" style="fill: #ffffff; stroke: #0000ff; stroke-linejoin: bevel"/>
     <use xlink:href="#m7dd77b85bf" x="408.421484" y="81.960651" style="fill: #ffffff; stroke: #0000ff; stroke-linejoin: bevel"/>
     <use xlink:href="#m7dd77b85bf" x="464.526625" y="68.508235" style="fill: #ffffff; stroke: #0000ff; stroke-linejoin: bevel"/>
     <use xlink:href="#m7dd77b85bf" x="520.631766" y="62.776419" style="fill: #ffffff; stroke: #0000ff; stroke-linejoin: bevel"/>
     <use xlink:href="#m7dd77b85bf" x="576.736907" y="60.453103" style="fill: #ffffff; stroke: #0000ff; stroke-linejoin: bevel"/>
     <use xlink:href="#m7dd77b85bf" x="632.842048" y="59.490208" style="fill: #ffffff; stroke: #0000ff; stroke-linejoin: bevel"/>
     <use xlink:href="#m7dd77b85bf" x="688.947189" y="59.125776" style="fill: #ffffff; stroke: #0000ff; stroke-linejoin: bevel"/>
    </g>
   </g>
   <g id="line2d_32">
    <path d="M 127.895779 445.750591 
L 141.922065 415.078706 
L 155.94835 386.166175 
L 169.974635 358.97786 
L 184.00092 333.478428 
L 198.027206 309.63274 
L 212.053491 287.405592 
L 226.079776 266.761716 
L 240.106061 247.665973 
L 254.132347 230.083094 
L 268.158632 213.977877 
L 282.184917 199.315118 
L 296.211202 186.059612 
L 310.237488 174.151878 
L 324.263773 163.765698 
L 338.290058 154.85571 
L 352.316343 147.28621 
L 366.342629 140.968199 
L 380.368914 135.653269 
L 394.395199 131.35995 
L 408.421484 127.92136 
L 422.44777 125.146784 
L 436.474055 122.942559 
L 450.50034 121.250672 
L 464.526625 119.930182 
L 478.552911 118.898924 
L 492.579196 118.109556 
L 506.605481 117.472184 
L 520.631766 117.017027 
L 534.658052 116.65432 
L 548.684337 116.43869 
L 562.710622 116.335251 
L 576.736907 116.309056 
L 590.763193 116.325156 
L 604.789478 116.348668 
L 618.815763 116.344579 
L 632.842048 116.277941 
L 646.868334 116.113934 
L 660.894619 115.817545 
L 674.920904 115.353828 
L 688.947189 114.687832 
" clip-path="url(#p3910656ac4)" style="fill: none; stroke-dasharray: 15,15; stroke-dashoffset: 0; stroke: #0000ff; stroke-width: 3"/>
    <defs>
     <path id="md3355fb048" d="M 0 10 
C 2.652031 10 5.195799 8.946337 7.071068 7.071068 
C 8.946337 5.195799 10 2.652031 10 0 
C 10 -2.652031 8.946337 -5.195799 7.071068 -7.071068 
C 5.195799 -8.946337 2.652031 -10 0 -10 
C -2.652031 -10 -5.195799 -8.946337 -7.071068 -7.071068 
C -8.946337 -5.195799 -10 -2.652031 -10 0 
C -10 2.652031 -8.946337 5.195799 -7.071068 7.071068 
C -5.195799 8.946337 -2.652031 10 0 10 
z
" style="stroke: #0000ff"/>
    </defs>
    <g clip-path="url(#p3910656ac4)">
     <use xlink:href="#md3355fb048" x="127.895779" y="445.750591" style="fill: #ffffff; stroke: #0000ff"/>
     <use xlink:href="#md3355fb048" x="184.00092" y="333.478428" style="fill: #ffffff; stroke: #0000ff"/>
     <use xlink:href="#md3355fb048" x="240.106061" y="247.665973" style="fill: #ffffff; stroke: #0000ff"/>
     <use xlink:href="#md3355fb048" x="296.211202" y="186.059612" style="fill: #ffffff; stroke: #0000ff"/>
     <use xlink:href="#md3355fb048" x="352.316343" y="147.28621" style="fill: #ffffff; stroke: #0000ff"/>
     <use xlink:href="#md3355fb048" x="408.421484" y="127.92136" style="fill: #ffffff; stroke: #0000ff"/>
     <use xlink:href="#md3355fb048" x="464.526625" y="119.930182" style="fill: #ffffff; stroke: #0000ff"/>
     <use xlink:href="#md3355fb048" x="520.631766" y="117.017027" style="fill: #ffffff; stroke: #0000ff"/>
     <use xlink:href="#md3355fb048" x="576.736907" y="116.309056" style="fill: #ffffff; stroke: #0000ff"/>
     <use xlink:href="#md3355fb048" x="632.842048" y="116.277941" style="fill: #ffffff; stroke: #0000ff"/>
     <use xlink:href="#md3355fb048" x="688.947189" y="114.687832" style="fill: #ffffff; stroke: #0000ff"/>
    </g>
   </g>
   <g id="line2d_33">
    <path d="M 127.895779 471.565898 
L 141.922065 441.458614 
L 155.94835 411.389281 
L 169.974635 381.863081 
L 184.00092 353.295624 
L 198.027206 326.020545 
L 212.053491 300.296921 
L 226.079776 276.315913 
L 240.106061 254.207984 
L 254.132347 234.048974 
L 268.158632 215.866738 
L 282.184917 199.646965 
L 296.211202 185.339054 
L 310.237488 172.826596 
L 324.263773 162.001999 
L 338.290058 152.882066 
L 352.316343 145.249953 
L 366.342629 138.883833 
L 380.368914 133.634711 
L 394.395199 129.375573 
L 408.421484 125.861847 
L 422.44777 123.014244 
L 436.474055 120.699169 
L 450.50034 118.848003 
L 464.526625 117.321721 
L 478.552911 116.109973 
L 492.579196 115.185604 
L 506.605481 114.407289 
L 520.631766 113.785506 
L 534.658052 113.29374 
L 548.684337 112.900302 
L 562.710622 112.586152 
L 576.736907 112.336404 
L 590.763193 112.139301 
L 604.789478 111.98558 
L 618.815763 111.867255 
L 632.842048 111.777169 
L 646.868334 111.708295 
L 660.894619 111.652902 
L 674.920904 111.602301 
L 688.947189 111.546333 
" clip-path="url(#p3910656ac4)" style="fill: none; stroke: #ff0000; stroke-width: 3; stroke-linecap: square"/>
    <defs>
     <path id="m0d73cd4285" d="M 0 -10 
L -2.24514 -3.09017 
L -9.510565 -3.09017 
L -3.632713 1.18034 
L -5.877853 8.09017 
L -0 3.81966 
L 5.877853 8.09017 
L 3.632713 1.18034 
L 9.510565 -3.09017 
L 2.24514 -3.09017 
z
" style="stroke: #ff0000; stroke-linejoin: bevel"/>
    </defs>
    <g clip-path="url(#p3910656ac4)">
     <use xlink:href="#m0d73cd4285" x="127.895779" y="471.565898" style="fill: #ffffff; stroke: #ff0000; stroke-linejoin: bevel"/>
     <use xlink:href="#m0d73cd4285" x="169.974635" y="381.863081" style="fill: #ffffff; stroke: #ff0000; stroke-linejoin: bevel"/>
     <use xlink:href="#m0d73cd4285" x="212.053491" y="300.296921" style="fill: #ffffff; stroke: #ff0000; stroke-linejoin: bevel"/>
     <use xlink:href="#m0d73cd4285" x="254.132347" y="234.048974" style="fill: #ffffff; stroke: #ff0000; stroke-linejoin: bevel"/>
     <use xlink:href="#m0d73cd4285" x="296.211202" y="185.339054" style="fill: #ffffff; stroke: #ff0000; stroke-linejoin: bevel"/>
     <use xlink:href="#m0d73cd4285" x="338.290058" y="152.882066" style="fill: #ffffff; stroke: #ff0000; stroke-linejoin: bevel"/>
     <use xlink:href="#m0d73cd4285" x="380.368914" y="133.634711" style="fill: #ffffff; stroke: #ff0000; stroke-linejoin: bevel"/>
     <use xlink:href="#m0d73cd4285" x="422.44777" y="123.014244" style="fill: #ffffff; stroke: #ff0000; stroke-linejoin: bevel"/>
     <use xlink:href="#m0d73cd4285" x="464.526625" y="117.321721" style="fill: #ffffff; stroke: #ff0000; stroke-linejoin: bevel"/>
     <use xlink:href="#m0d73cd4285" x="506.605481" y="114.407289" style="fill: #ffffff; stroke: #ff0000; stroke-linejoin: bevel"/>
     <use xlink:href="#m0d73cd4285" x="548.684337" y="112.900302" style="fill: #ffffff; stroke: #ff0000; stroke-linejoin: bevel"/>
     <use xlink:href="#m0d73cd4285" x="590.763193" y="112.139301" style="fill: #ffffff; stroke: #ff0000; stroke-linejoin: bevel"/>
     <use xlink:href="#m0d73cd4285" x="632.842048" y="111.777169" style="fill: #ffffff; stroke: #ff0000; stroke-linejoin: bevel"/>
     <use xlink:href="#m0d73cd4285" x="674.920904" y="111.602301" style="fill: #ffffff; stroke: #ff0000; stroke-linejoin: bevel"/>
    </g>
   </g>
   <g id="line2d_34">
    <path d="M 127.895779 460.891891 
L 141.922065 432.95005 
L 155.94835 405.735603 
L 169.974635 379.44329 
L 184.00092 354.273022 
L 198.027206 330.417239 
L 212.053491 308.050106 
L 226.079776 287.318573 
L 240.106061 268.335469 
L 254.132347 251.174524 
L 268.158632 235.867172 
L 282.184917 222.401275 
L 296.211202 210.722269 
L 310.237488 200.793929 
L 324.263773 192.465281 
L 338.290058 185.400517 
L 352.316343 179.560279 
L 366.342629 174.640896 
L 380.368914 170.657191 
L 394.395199 167.363951 
L 408.421484 164.715943 
L 422.44777 162.570625 
L 436.474055 160.853693 
L 450.50034 159.471357 
L 464.526625 158.404512 
L 478.552911 157.545184 
L 492.579196 156.87823 
L 506.605481 156.324427 
L 520.631766 155.864734 
L 534.658052 155.504263 
L 548.684337 155.213114 
L 562.710622 154.979466 
L 576.736907 154.794631 
L 590.763193 154.652091 
L 604.789478 154.545968 
L 618.815763 154.470705 
L 632.842048 154.419401 
L 646.868334 154.383367 
L 660.894619 154.351166 
L 674.920904 154.307721 
L 688.947189 154.233735 
" clip-path="url(#p3910656ac4)" style="fill: none; stroke-dasharray: 15,15; stroke-dashoffset: 0; stroke: #ff0000; stroke-width: 3"/>
    <defs>
     <path id="m24c3286914" d="M 0 10 
C 2.652031 10 5.195799 8.946337 7.071068 7.071068 
C 8.946337 5.195799 10 2.652031 10 0 
C 10 -2.652031 8.946337 -5.195799 7.071068 -7.071068 
C 5.195799 -8.946337 2.652031 -10 0 -10 
C -2.652031 -10 -5.195799 -8.946337 -7.071068 -7.071068 
C -8.946337 -5.195799 -10 -2.652031 -10 0 
C -10 2.652031 -8.946337 5.195799 -7.071068 7.071068 
C -5.195799 8.946337 -2.652031 10 0 10 
z
" style="stroke: #ff0000"/>
    </defs>
    <g clip-path="url(#p3910656ac4)">
     <use xlink:href="#m24c3286914" x="127.895779" y="460.891891" style="fill: #ffffff; stroke: #ff0000"/>
     <use xlink:href="#m24c3286914" x="169.974635" y="379.44329" style="fill: #ffffff; stroke: #ff0000"/>
     <use xlink:href="#m24c3286914" x="212.053491" y="308.050106" style="fill: #ffffff; stroke: #ff0000"/>
     <use xlink:href="#m24c3286914" x="254.132347" y="251.174524" style="fill: #ffffff; stroke: #ff0000"/>
     <use xlink:href="#m24c3286914" x="296.211202" y="210.722269" style="fill: #ffffff; stroke: #ff0000"/>
     <use xlink:href="#m24c3286914" x="338.290058" y="185.400517" style="fill: #ffffff; stroke: #ff0000"/>
     <use xlink:href="#m24c3286914" x="380.368914" y="170.657191" style="fill: #ffffff; stroke: #ff0000"/>
     <use xlink:href="#m24c3286914" x="422.44777" y="162.570625" style="fill: #ffffff; stroke: #ff0000"/>
     <use xlink:href="#m24c3286914" x="464.526625" y="158.404512" style="fill: #ffffff; stroke: #ff0000"/>
     <use xlink:href="#m24c3286914" x="506.605481" y="156.324427" style="fill: #ffffff; stroke: #ff0000"/>
     <use xlink:href="#m24c3286914" x="548.684337" y="155.213114" style="fill: #ffffff; stroke: #ff0000"/>
     <use xlink:href="#m24c3286914" x="590.763193" y="154.652091" style="fill: #ffffff; stroke: #ff0000"/>
     <use xlink:href="#m24c3286914" x="632.842048" y="154.419401" style="fill: #ffffff; stroke: #ff0000"/>
     <use xlink:href="#m24c3286914" x="674.920904" y="154.307721" style="fill: #ffffff; stroke: #ff0000"/>
    </g>
   </g>
   <g id="line2d_35">
    <path d="M 127.895779 513.773163 
L 141.922065 485.407025 
L 155.94835 457.505499 
L 169.974635 430.978387 
L 184.00092 406.442361 
L 198.027206 384.270925 
L 212.053491 364.641057 
L 226.079776 347.574989 
L 240.106061 332.978229 
L 254.132347 320.673223 
L 268.158632 310.429136 
L 282.184917 301.987019 
L 296.211202 295.081406 
L 310.237488 289.405495 
L 324.263773 284.786142 
L 338.290058 281.069244 
L 352.316343 278.05297 
L 366.342629 275.656754 
L 380.368914 273.739078 
L 394.395199 272.16935 
L 408.421484 270.93409 
L 422.44777 269.934777 
L 436.474055 269.097172 
L 450.50034 268.464591 
L 464.526625 267.91903 
L 478.552911 267.539775 
L 492.579196 267.19828 
L 506.605481 266.923423 
L 520.631766 266.707345 
L 534.658052 266.536374 
L 548.684337 266.402843 
L 562.710622 266.300106 
L 576.736907 266.221841 
L 590.763193 266.162358 
L 604.789478 266.116229 
L 618.815763 266.078917 
L 632.842048 266.04678 
L 646.868334 266.017838 
L 660.894619 265.992537 
L 674.920904 265.974903 
L 688.947189 265.973306 
" clip-path="url(#p3910656ac4)" style="fill: none; stroke: #000000; stroke-width: 3; stroke-linecap: square"/>
    <defs>
     <path id="m6c425910c6" d="M 0 -10 
L -2.24514 -3.09017 
L -9.510565 -3.09017 
L -3.632713 1.18034 
L -5.877853 8.09017 
L -0 3.81966 
L 5.877853 8.09017 
L 3.632713 1.18034 
L 9.510565 -3.09017 
L 2.24514 -3.09017 
z
" style="stroke: #000000; stroke-linejoin: bevel"/>
    </defs>
    <g clip-path="url(#p3910656ac4)">
     <use xlink:href="#m6c425910c6" x="127.895779" y="513.773163" style="fill: #ffffff; stroke: #000000; stroke-linejoin: bevel"/>
     <use xlink:href="#m6c425910c6" x="184.00092" y="406.442361" style="fill: #ffffff; stroke: #000000; stroke-linejoin: bevel"/>
     <use xlink:href="#m6c425910c6" x="240.106061" y="332.978229" style="fill: #ffffff; stroke: #000000; stroke-linejoin: bevel"/>
     <use xlink:href="#m6c425910c6" x="296.211202" y="295.081406" style="fill: #ffffff; stroke: #000000; stroke-linejoin: bevel"/>
     <use xlink:href="#m6c425910c6" x="352.316343" y="278.05297" style="fill: #ffffff; stroke: #000000; stroke-linejoin: bevel"/>
     <use xlink:href="#m6c425910c6" x="408.421484" y="270.93409" style="fill: #ffffff; stroke: #000000; stroke-linejoin: bevel"/>
     <use xlink:href="#m6c425910c6" x="464.526625" y="267.91903" style="fill: #ffffff; stroke: #000000; stroke-linejoin: bevel"/>
     <use xlink:href="#m6c425910c6" x="520.631766" y="266.707345" style="fill: #ffffff; stroke: #000000; stroke-linejoin: bevel"/>
     <use xlink:href="#m6c425910c6" x="576.736907" y="266.221841" style="fill: #ffffff; stroke: #000000; stroke-linejoin: bevel"/>
     <use xlink:href="#m6c425910c6" x="632.842048" y="266.04678" style="fill: #ffffff; stroke: #000000; stroke-linejoin: bevel"/>
     <use xlink:href="#m6c425910c6" x="688.947189" y="265.973306" style="fill: #ffffff; stroke: #000000; stroke-linejoin: bevel"/>
    </g>
   </g>
   <g id="line2d_36">
    <path d="M 127.895779 516.658142 
L 141.922065 491.686254 
L 155.94835 466.860804 
L 169.974635 443.068656 
L 184.00092 420.921116 
L 198.027206 400.800312 
L 212.053491 382.901942 
L 226.079776 367.27469 
L 240.106061 353.854986 
L 254.132347 342.498755 
L 268.158632 333.008769 
L 282.184917 325.158661 
L 296.211202 318.71306 
L 310.237488 313.459913 
L 324.263773 309.114779 
L 338.290058 305.581055 
L 352.316343 302.6633 
L 366.342629 300.332508 
L 380.368914 298.52153 
L 394.395199 297.019782 
L 408.421484 295.848923 
L 422.44777 294.924682 
L 436.474055 294.156014 
L 450.50034 293.559277 
L 464.526625 293.086614 
L 478.552911 292.718477 
L 492.579196 292.413463 
L 506.605481 292.185054 
L 520.631766 292.010058 
L 534.658052 291.857934 
L 548.684337 291.728364 
L 562.710622 291.61745 
L 576.736907 291.524298 
L 590.763193 291.449993 
L 604.789478 291.396069 
L 618.815763 291.363357 
L 632.842048 291.35026 
L 646.868334 291.350451 
L 660.894619 291.35109 
L 674.920904 291.33007 
L 688.947189 291.253529 
" clip-path="url(#p3910656ac4)" style="fill: none; stroke-dasharray: 15,15; stroke-dashoffset: 0; stroke: #000000; stroke-width: 3"/>
    <defs>
     <path id="mc52e89d8a3" d="M 0 10 
C 2.652031 10 5.195799 8.946337 7.071068 7.071068 
C 8.946337 5.195799 10 2.652031 10 0 
C 10 -2.652031 8.946337 -5.195799 7.071068 -7.071068 
C 5.195799 -8.946337 2.652031 -10 0 -10 
C -2.652031 -10 -5.195799 -8.946337 -7.071068 -7.071068 
C -8.946337 -5.195799 -10 -2.652031 -10 0 
C -10 2.652031 -8.946337 5.195799 -7.071068 7.071068 
C -5.195799 8.946337 -2.652031 10 0 10 
z
" style="stroke: #000000"/>
    </defs>
    <g clip-path="url(#p3910656ac4)">
     <use xlink:href="#mc52e89d8a3" x="127.895779" y="516.658142" style="fill: #ffffff; stroke: #000000"/>
     <use xlink:href="#mc52e89d8a3" x="184.00092" y="420.921116" style="fill: #ffffff; stroke: #000000"/>
     <use xlink:href="#mc52e89d8a3" x="240.106061" y="353.854986" style="fill: #ffffff; stroke: #000000"/>
     <use xlink:href="#mc52e89d8a3" x="296.211202" y="318.71306" style="fill: #ffffff; stroke: #000000"/>
     <use xlink:href="#mc52e89d8a3" x="352.316343" y="302.6633" style="fill: #ffffff; stroke: #000000"/>
     <use xlink:href="#mc52e89d8a3" x="408.421484" y="295.848923" style="fill: #ffffff; stroke: #000000"/>
     <use xlink:href="#mc52e89d8a3" x="464.526625" y="293.086614" style="fill: #ffffff; stroke: #000000"/>
     <use xlink:href="#mc52e89d8a3" x="520.631766" y="292.010058" style="fill: #ffffff; stroke: #000000"/>
     <use xlink:href="#mc52e89d8a3" x="576.736907" y="291.524298" style="fill: #ffffff; stroke: #000000"/>
     <use xlink:href="#mc52e89d8a3" x="632.842048" y="291.35026" style="fill: #ffffff; stroke: #000000"/>
     <use xlink:href="#mc52e89d8a3" x="688.947189" y="291.253529" style="fill: #ffffff; stroke: #000000"/>
    </g>
   </g>
   <g id="patch_3">
    <path d="M 99.843209 539.53476 
L 99.843209 36.249157 
" style="fill: none; stroke: #000000; stroke-width: 2.5; stroke-linejoin: miter; stroke-linecap: square"/>
   </g>
   <g id="patch_4">
    <path d="M 716.99976 539.53476 
L 716.99976 36.249157 
" style="fill: none; stroke: #000000; stroke-width: 2.5; stroke-linejoin: miter; stroke-linecap: square"/>
   </g>
   <g id="patch_5">
    <path d="M 99.843209 539.53476 
L 716.99976 539.53476 
" style="fill: none; stroke: #000000; stroke-width: 2.5; stroke-linejoin: miter; stroke-linecap: square"/>
   </g>
   <g id="patch_6">
    <path d="M 99.843209 36.249158 
L 716.99976 36.249158 
" style="fill: none; stroke: #000000; stroke-width: 2.5; stroke-linejoin: miter; stroke-linecap: square"/>
   </g>
   <g id="legend_1">
    <g id="patch_7">
     <path d="M 229.24976 539.53476 
L 711.99976 539.53476 
Q 716.99976 539.53476 716.99976 534.53476 
L 716.99976 355.53476 
Q 716.99976 350.53476 711.99976 350.53476 
L 229.24976 350.53476 
Q 224.24976 350.53476 224.24976 355.53476 
L 224.24976 534.53476 
Q 224.24976 539.53476 229.24976 539.53476 
L 229.24976 539.53476 
z
" style="fill: none; stroke: #000000; stroke-linejoin: miter"/>
    </g>
    <g id="line2d_37">
     <path d="M 234.24976 371.28476 
L 259.24976 371.28476 
L 284.24976 371.28476 
" style="fill: none; stroke: #0000ff; stroke-width: 3; stroke-linecap: square"/>
     <g>
      <use xlink:href="#m7dd77b85bf" x="259.24976" y="371.28476" style="fill: #ffffff; stroke: #0000ff; stroke-linejoin: bevel"/>
     </g>
    </g>
    <g id="text_13">
     <!-- 中心式, $\mathrm{R}=0.9,\mathrm{SNR}_\mathrm{train}=20\mathrm{(dB)}$ -->
     <g transform="translate(304.24976 380.03476)scale(0.25 -0.25)">
      <defs>
       <path id="UNAVAILABLE-4e2d" d="M 1406 3484 
L 2975 3484 
L 2975 3863 
L 2925 4875 
L 3547 4622 
L 3622 4603 
L 3547 4547 
L 3369 4406 
L 3369 3484 
L 5013 3484 
L 5306 3828 
L 5741 3478 
Q 5794 3434 5792 3417 
Q 5791 3400 5738 3359 
L 5528 3203 
L 5528 1991 
L 5559 1328 
Q 5441 1250 5352 1212 
Q 5263 1175 5103 1138 
L 5103 1588 
L 3369 1588 
L 3369 19 
L 3403 -800 
Q 3284 -897 3206 -934 
L 3072 -988 
L 2938 -1041 
L 2975 81 
L 2975 1588 
L 1341 1588 
L 1341 1197 
Q 1163 1084 919 1053 
L 947 1719 
L 947 3175 
L 919 3759 
L 1406 3484 
z
M 1341 1734 
L 2975 1734 
L 2975 3338 
L 1341 3338 
L 1341 1734 
z
M 3369 1734 
L 5103 1734 
L 5103 3338 
L 3369 3338 
L 3369 1734 
z
" transform="scale(0.015625)"/>
       <path id="UNAVAILABLE-5fc3" d="M 1116 2438 
L 1178 2422 
Q 1178 2344 1179 2292 
Q 1181 2241 1178 2134 
Q 1169 1950 1151 1669 
Q 1134 1388 1093 1095 
Q 1053 803 881 645 
Q 709 488 550 497 
Q 441 500 386 558 
Q 331 616 326 680 
Q 322 744 409 856 
L 634 1103 
Q 847 1347 933 1601 
Q 1019 1856 1044 2003 
L 1103 2391 
L 1116 2438 
L 1116 2438 
z
M 4616 1072 
Q 4619 881 4636 568 
Q 4653 256 4728 161 
Q 4803 66 4997 -28 
Q 4913 -275 4817 -397 
Q 4722 -519 4480 -564 
Q 4238 -609 3569 -619 
Q 2894 -631 2506 -590 
Q 2119 -550 2070 -408 
Q 2022 -266 2022 -166 
L 2022 2756 
L 1984 3575 
L 2559 3288 
Q 2638 3247 2644 3223 
Q 2650 3200 2541 3125 
L 2391 3022 
L 2391 3 
Q 2391 -244 2897 -238 
L 3438 -244 
Q 3928 -247 4120 -214 
Q 4313 -181 4366 -120 
Q 4419 -59 4445 128 
Q 4472 316 4488 513 
L 4503 794 
L 4519 1072 
L 4616 1072 
z
M 2650 4650 
L 2700 4738 
Q 3006 4544 3278 4334 
Q 3550 4125 3636 4015 
Q 3722 3906 3742 3818 
Q 3763 3731 3744 3619 
Q 3713 3453 3617 3364 
Q 3522 3275 3453 3303 
Q 3413 3316 3389 3358 
Q 3366 3400 3344 3520 
Q 3322 3641 3247 3814 
Q 3172 3988 3076 4148 
Q 2981 4309 2650 4650 
z
M 4650 2691 
L 4697 2775 
Q 4734 2741 4756 2728 
L 5222 2422 
Q 5478 2244 5675 2044 
Q 5872 1844 5944 1720 
Q 6016 1597 6020 1490 
Q 6025 1384 5981 1266 
Q 5938 1147 5864 1064 
Q 5791 981 5734 988 
Q 5706 988 5662 1016 
Q 5619 1044 5578 1217 
Q 5538 1391 5480 1552 
Q 5422 1713 5298 1933 
Q 5175 2153 5050 2295 
Q 4925 2438 4650 2691 
z
" transform="scale(0.015625)"/>
       <path id="UNAVAILABLE-5f0f" d="M 431 -91 
Q 1141 0 1381 63 
L 1850 181 
L 1850 1997 
L 1356 1994 
Q 1288 1991 1122 1977 
Q 956 1963 913 1941 
L 794 1884 
L 534 2166 
L 1097 2144 
L 2641 2144 
L 2941 2513 
L 3369 2094 
Q 3403 2059 3387 2026 
Q 3372 1994 3313 1994 
L 2209 1994 
L 2209 266 
Q 3169 494 3775 675 
L 3803 578 
Q 3547 472 3330 386 
Q 3113 300 2134 -33 
Q 1156 -366 984 -478 
L 734 -631 
L 431 -91 
z
M 463 3484 
L 1028 3459 
L 3553 3459 
Q 3541 3719 3533 3925 
Q 3525 4131 3516 4281 
L 3469 4944 
L 4044 4694 
Q 4134 4653 4136 4626 
Q 4138 4600 4056 4553 
L 3922 4475 
Q 3894 3938 3900 3778 
L 3909 3459 
L 5209 3459 
L 5569 3863 
L 6028 3422 
Q 6081 3369 6072 3339 
Q 6063 3309 6000 3309 
L 3909 3309 
Q 3919 3031 3931 2872 
Q 3944 2713 3975 2441 
Q 4006 2169 4050 1947 
Q 4094 1725 4201 1353 
Q 4309 981 4534 625 
Q 4759 269 5084 -14 
Q 5409 -297 5471 -283 
Q 5534 -269 5562 -153 
Q 5591 -38 5653 188 
L 5734 494 
L 5806 719 
L 5872 697 
Q 5841 463 5817 289 
Q 5794 116 5789 -15 
Q 5784 -147 5809 -350 
Q 5834 -584 5898 -700 
Q 5963 -816 5972 -886 
Q 5981 -956 5853 -956 
Q 5656 -959 5431 -804 
Q 5206 -650 4901 -378 
Q 4597 -106 4380 214 
Q 4163 534 4045 767 
Q 3928 1000 3842 1317 
Q 3756 1634 3692 1998 
Q 3628 2363 3619 2528 
L 3553 3309 
L 1403 3309 
Q 1388 3309 1167 3296 
Q 947 3284 906 3263 
L 763 3191 
L 463 3484 
z
M 4378 4578 
L 4416 4634 
Q 4563 4581 4641 4550 
Q 4719 4519 4884 4441 
Q 5050 4363 5134 4277 
Q 5219 4191 5223 4030 
Q 5228 3869 5140 3783 
Q 5053 3697 5001 3705 
Q 4950 3713 4900 3806 
L 4809 4038 
Q 4766 4138 4683 4253 
Q 4600 4369 4378 4578 
z
" transform="scale(0.015625)"/>
       <path id="UNAVAILABLE-2c" d="M 553 -1059 
L 553 -928 
Q 622 -884 690 -842 
Q 759 -800 820 -754 
Q 881 -709 945 -631 
Q 1009 -553 1048 -473 
Q 1088 -394 1097 -297 
Q 1106 -200 1069 -141 
L 1006 -38 
Q 906 -72 836 -86 
Q 766 -100 688 -94 
Q 575 -88 519 -44 
Q 463 0 430 79 
Q 397 159 397 247 
Q 397 334 442 415 
Q 488 497 573 544 
Q 659 591 763 600 
Q 894 606 1001 554 
Q 1109 503 1184 411 
Q 1259 319 1307 183 
Q 1356 47 1350 -100 
Q 1344 -184 1320 -282 
Q 1297 -381 1248 -486 
Q 1200 -591 1119 -678 
Q 1038 -766 919 -853 
Q 800 -941 725 -975 
L 553 -1059 
L 553 -1059 
z
" transform="scale(0.015625)"/>
       <path id="UNAVAILABLE-20" transform="scale(0.015625)"/>
       <path id="DejaVuSans-3d" d="M 678 2906 
L 4684 2906 
L 4684 2381 
L 678 2381 
L 678 2906 
z
M 678 1631 
L 4684 1631 
L 4684 1100 
L 678 1100 
L 678 1631 
z
" transform="scale(0.015625)"/>
       <path id="DejaVuSans-30" d="M 2034 4250 
Q 1547 4250 1301 3770 
Q 1056 3291 1056 2328 
Q 1056 1369 1301 889 
Q 1547 409 2034 409 
Q 2525 409 2770 889 
Q 3016 1369 3016 2328 
Q 3016 3291 2770 3770 
Q 2525 4250 2034 4250 
z
M 2034 4750 
Q 2819 4750 3233 4129 
Q 3647 3509 3647 2328 
Q 3647 1150 3233 529 
Q 2819 -91 2034 -91 
Q 1250 -91 836 529 
Q 422 1150 422 2328 
Q 422 3509 836 4129 
Q 1250 4750 2034 4750 
z
" transform="scale(0.015625)"/>
       <path id="DejaVuSans-2e" d="M 684 794 
L 1344 794 
L 1344 0 
L 684 0 
L 684 794 
z
" transform="scale(0.015625)"/>
       <path id="DejaVuSans-39" d="M 703 97 
L 703 672 
Q 941 559 1184 500 
Q 1428 441 1663 441 
Q 2288 441 2617 861 
Q 2947 1281 2994 2138 
Q 2813 1869 2534 1725 
Q 2256 1581 1919 1581 
Q 1219 1581 811 2004 
Q 403 2428 403 3163 
Q 403 3881 828 4315 
Q 1253 4750 1959 4750 
Q 2769 4750 3195 4129 
Q 3622 3509 3622 2328 
Q 3622 1225 3098 567 
Q 2575 -91 1691 -91 
Q 1453 -91 1209 -44 
Q 966 3 703 97 
z
M 1959 2075 
Q 2384 2075 2632 2365 
Q 2881 2656 2881 3163 
Q 2881 3666 2632 3958 
Q 2384 4250 1959 4250 
Q 1534 4250 1286 3958 
Q 1038 3666 1038 3163 
Q 1038 2656 1286 2365 
Q 1534 2075 1959 2075 
z
" transform="scale(0.015625)"/>
       <path id="DejaVuSans-2c" d="M 750 794 
L 1409 794 
L 1409 256 
L 897 -744 
L 494 -744 
L 750 256 
L 750 794 
z
" transform="scale(0.015625)"/>
       <path id="DejaVuSans-72" d="M 2631 2963 
Q 2534 3019 2420 3045 
Q 2306 3072 2169 3072 
Q 1681 3072 1420 2755 
Q 1159 2438 1159 1844 
L 1159 0 
L 581 0 
L 581 3500 
L 1159 3500 
L 1159 2956 
Q 1341 3275 1631 3429 
Q 1922 3584 2338 3584 
Q 2397 3584 2469 3576 
Q 2541 3569 2628 3553 
L 2631 2963 
z
" transform="scale(0.015625)"/>
       <path id="DejaVuSans-61" d="M 2194 1759 
Q 1497 1759 1228 1600 
Q 959 1441 959 1056 
Q 959 750 1161 570 
Q 1363 391 1709 391 
Q 2188 391 2477 730 
Q 2766 1069 2766 1631 
L 2766 1759 
L 2194 1759 
z
M 3341 1997 
L 3341 0 
L 2766 0 
L 2766 531 
Q 2569 213 2275 61 
Q 1981 -91 1556 -91 
Q 1019 -91 701 211 
Q 384 513 384 1019 
Q 384 1609 779 1909 
Q 1175 2209 1959 2209 
L 2766 2209 
L 2766 2266 
Q 2766 2663 2505 2880 
Q 2244 3097 1772 3097 
Q 1472 3097 1187 3025 
Q 903 2953 641 2809 
L 641 3341 
Q 956 3463 1253 3523 
Q 1550 3584 1831 3584 
Q 2591 3584 2966 3190 
Q 3341 2797 3341 1997 
z
" transform="scale(0.015625)"/>
       <path id="DejaVuSans-69" d="M 603 3500 
L 1178 3500 
L 1178 0 
L 603 0 
L 603 3500 
z
M 603 4863 
L 1178 4863 
L 1178 4134 
L 603 4134 
L 603 4863 
z
" transform="scale(0.015625)"/>
       <path id="DejaVuSans-6e" d="M 3513 2113 
L 3513 0 
L 2938 0 
L 2938 2094 
Q 2938 2591 2744 2837 
Q 2550 3084 2163 3084 
Q 1697 3084 1428 2787 
Q 1159 2491 1159 1978 
L 1159 0 
L 581 0 
L 581 3500 
L 1159 3500 
L 1159 2956 
Q 1366 3272 1645 3428 
Q 1925 3584 2291 3584 
Q 2894 3584 3203 3211 
Q 3513 2838 3513 2113 
z
" transform="scale(0.015625)"/>
       <path id="DejaVuSans-32" d="M 1228 531 
L 3431 531 
L 3431 0 
L 469 0 
L 469 531 
Q 828 903 1448 1529 
Q 2069 2156 2228 2338 
Q 2531 2678 2651 2914 
Q 2772 3150 2772 3378 
Q 2772 3750 2511 3984 
Q 2250 4219 1831 4219 
Q 1534 4219 1204 4116 
Q 875 4013 500 3803 
L 500 4441 
Q 881 4594 1212 4672 
Q 1544 4750 1819 4750 
Q 2544 4750 2975 4387 
Q 3406 4025 3406 3419 
Q 3406 3131 3298 2873 
Q 3191 2616 2906 2266 
Q 2828 2175 2409 1742 
Q 1991 1309 1228 531 
z
" transform="scale(0.015625)"/>
      </defs>
      <use xlink:href="#UNAVAILABLE-4e2d" transform="translate(0 0.75)"/>
      <use xlink:href="#UNAVAILABLE-5fc3" transform="translate(100 0.75)"/>
      <use xlink:href="#UNAVAILABLE-5f0f" transform="translate(200 0.75)"/>
      <use xlink:href="#UNAVAILABLE-2c" transform="translate(300 0.75)"/>
      <use xlink:href="#UNAVAILABLE-20" transform="translate(327.294922 0.75)"/>
      <use xlink:href="#DejaVuSans-52" transform="translate(377.294922 0.75)"/>
      <use xlink:href="#DejaVuSans-3d" transform="translate(466.259766 0.75)"/>
      <use xlink:href="#DejaVuSans-30" transform="translate(569.53125 0.75)"/>
      <use xlink:href="#DejaVuSans-2e" transform="translate(633.154297 0.75)"/>
      <use xlink:href="#DejaVuSans-39" transform="translate(664.941406 0.75)"/>
      <use xlink:href="#DejaVuSans-2c" transform="translate(728.564453 0.75)"/>
      <use xlink:href="#DejaVuSans-53" transform="translate(779.833984 0.75)"/>
      <use xlink:href="#DejaVuSans-4e" transform="translate(843.310547 0.75)"/>
      <use xlink:href="#DejaVuSans-52" transform="translate(914.490234 0.75)"/>
      <use xlink:href="#DejaVuSans-74" transform="translate(984.929688 -15.65625)scale(0.7)"/>
      <use xlink:href="#DejaVuSans-72" transform="translate(1012.375977 -15.65625)scale(0.7)"/>
      <use xlink:href="#DejaVuSans-61" transform="translate(1041.155273 -15.65625)scale(0.7)"/>
      <use xlink:href="#DejaVuSans-69" transform="translate(1084.050781 -15.65625)scale(0.7)"/>
      <use xlink:href="#DejaVuSans-6e" transform="translate(1103.499023 -15.65625)scale(0.7)"/>
      <use xlink:href="#DejaVuSans-3d" transform="translate(1170.081055 0.75)"/>
      <use xlink:href="#DejaVuSans-32" transform="translate(1273.352539 0.75)"/>
      <use xlink:href="#DejaVuSans-30" transform="translate(1336.975586 0.75)"/>
      <use xlink:href="#DejaVuSans-28" transform="translate(1400.598633 0.75)"/>
      <use xlink:href="#DejaVuSans-64" transform="translate(1439.612305 0.75)"/>
      <use xlink:href="#DejaVuSans-42" transform="translate(1503.088867 0.75)"/>
      <use xlink:href="#DejaVuSans-29" transform="translate(1571.692383 0.75)"/>
     </g>
    </g>
    <g id="line2d_38">
     <path d="M 234.24976 400.28476 
L 259.24976 400.28476 
L 284.24976 400.28476 
" style="fill: none; stroke-dasharray: 15,15; stroke-dashoffset: 0; stroke: #0000ff; stroke-width: 3"/>
     <g>
      <use xlink:href="#md3355fb048" x="259.24976" y="400.28476" style="fill: #ffffff; stroke: #0000ff"/>
     </g>
    </g>
    <g id="text_14">
     <!-- 联邦式, $\mathrm{R}=0.9,\mathrm{SNR}_\mathrm{train}=20\mathrm{(dB)}$ -->
     <g transform="translate(304.24976 409.03476)scale(0.25 -0.25)">
      <defs>
       <path id="UNAVAILABLE-8054" d="M 800 581 
L 800 4188 
L 700 4188 
Q 522 4188 375 4128 
L 197 4353 
L 684 4338 
L 2278 4338 
L 2578 4753 
L 2972 4353 
Q 3097 4222 3076 4205 
Q 3056 4188 2991 4188 
L 2363 4188 
L 2363 913 
L 3153 1131 
L 3206 1038 
L 2363 716 
L 2363 0 
L 2397 -744 
Q 2194 -931 2097 -972 
L 1975 -1028 
L 2013 -84 
L 2013 603 
Q 769 172 641 113 
L 397 0 
L 184 503 
Q 525 528 800 581 
z
M 1150 653 
Q 1591 728 2013 831 
L 2013 1772 
L 1150 1772 
L 1150 653 
z
M 2013 1922 
L 2013 2947 
L 1150 2947 
L 1150 1922 
L 2013 1922 
z
M 1150 3097 
L 2013 3097 
L 2013 4188 
L 1150 4188 
L 1150 3097 
z
M 2331 -1063 
Q 2888 -663 3167 -331 
Q 3447 0 3569 292 
Q 3691 584 3758 948 
Q 3825 1313 3841 1525 
L 3853 1684 
L 3266 1684 
Q 3000 1684 2928 1650 
L 2806 1600 
L 2569 1850 
L 3006 1834 
L 3863 1834 
Q 3884 2241 3888 2300 
L 3916 3119 
L 3353 3119 
Q 3119 3119 3050 3091 
L 2906 3041 
L 2694 3284 
L 3044 3266 
L 4241 3266 
Q 4384 3503 4503 3712 
Q 4622 3922 4737 4195 
Q 4853 4469 5009 4925 
L 5519 4578 
Q 5597 4522 5587 4498 
Q 5578 4475 5519 4459 
L 5325 4409 
L 4434 3266 
L 5159 3266 
L 5491 3669 
L 5891 3266 
Q 5981 3169 5961 3144 
Q 5941 3119 5903 3119 
L 4319 3119 
L 4234 1834 
L 5281 1834 
L 5581 2250 
L 6041 1800 
Q 6094 1744 6083 1714 
Q 6072 1684 5925 1684 
L 4478 1684 
Q 4500 1534 4536 1379 
Q 4572 1225 4701 947 
Q 4831 669 5047 364 
Q 5263 59 5603 -156 
Q 5944 -372 6241 -456 
L 6234 -544 
Q 6050 -513 5914 -561 
Q 5778 -609 5613 -784 
Q 5331 -559 5122 -309 
Q 4913 -59 4766 186 
Q 4619 431 4506 787 
Q 4394 1144 4369 1428 
L 4341 1684 
L 4219 1684 
Q 4172 1300 4125 1022 
Q 4078 744 3954 398 
Q 3831 53 3515 -309 
Q 3200 -672 2722 -944 
L 2391 -1138 
L 2331 -1063 
z
M 3078 4775 
L 3138 4831 
Q 3244 4763 3367 4684 
Q 3491 4606 3620 4493 
Q 3750 4381 3872 4220 
Q 3994 4059 3995 3898 
Q 3997 3738 3834 3558 
Q 3672 3378 3636 3489 
Q 3600 3600 3595 3661 
Q 3591 3722 3553 3903 
Q 3516 4084 3484 4190 
Q 3453 4297 3362 4434 
Q 3272 4572 3078 4775 
z
" transform="scale(0.015625)"/>
       <path id="UNAVAILABLE-90a6" d="M 241 1294 
L 756 1272 
L 1731 1272 
Q 1750 1525 1759 1692 
Q 1769 1859 1775 2078 
L 1784 2541 
L 1250 2541 
Q 1156 2541 1098 2533 
Q 1041 2525 844 2463 
L 609 2709 
L 1019 2691 
L 1784 2691 
L 1784 3700 
L 1075 3700 
Q 1003 3700 839 3679 
Q 675 3659 556 3616 
L 350 3872 
L 800 3850 
L 1784 3850 
Q 1775 4122 1767 4356 
Q 1759 4591 1750 4722 
L 1731 4969 
L 2306 4750 
Q 2413 4706 2414 4690 
Q 2416 4675 2322 4616 
L 2163 4516 
L 2147 3850 
L 3013 3850 
L 3334 4241 
L 3719 3816 
Q 3800 3725 3795 3711 
Q 3791 3697 3638 3700 
L 2141 3703 
L 2138 2691 
L 2794 2691 
L 3131 3034 
L 3516 2625 
Q 3544 2591 3539 2566 
Q 3534 2541 3397 2541 
L 2138 2541 
Q 2100 1688 2100 1669 
L 2078 1272 
L 3097 1272 
L 3419 1647 
L 3788 1216 
Q 3834 1159 3825 1139 
Q 3816 1119 3706 1119 
L 2056 1119 
Q 2028 947 1931 515 
Q 1834 84 1401 -294 
Q 969 -672 722 -822 
L 431 -988 
L 350 -1034 
L 306 -941 
Q 728 -641 990 -366 
Q 1253 -91 1443 256 
Q 1634 603 1688 947 
L 1716 1119 
L 1019 1119 
Q 700 1119 444 1019 
L 241 1294 
z
M 5709 4081 
Q 5569 3838 5486 3686 
Q 5403 3534 4963 2613 
Q 5403 2206 5589 1997 
Q 5775 1788 5878 1561 
Q 5981 1334 5995 1071 
Q 6009 809 5917 561 
Q 5825 313 5570 188 
Q 5316 63 5031 3 
Q 5047 91 5044 183 
Q 5041 275 4937 400 
Q 4834 525 4406 700 
L 4438 788 
Q 4475 778 4497 773 
Q 4519 769 4762 694 
Q 5006 619 5231 622 
Q 5406 622 5482 683 
Q 5559 744 5592 887 
Q 5625 1031 5626 1167 
Q 5628 1303 5559 1509 
Q 5484 1716 5343 1930 
Q 5203 2144 4784 2613 
Q 4881 2916 4934 3069 
L 5216 3897 
L 5313 4216 
L 4278 4216 
L 4278 -166 
L 4325 -856 
Q 4247 -934 4126 -978 
Q 4006 -1022 3897 -1025 
L 3931 -41 
L 3934 3841 
L 3897 4678 
L 4391 4363 
L 5244 4363 
L 5497 4663 
L 5903 4325 
Q 6006 4238 5998 4217 
Q 5991 4197 5928 4172 
L 5709 4081 
z
" transform="scale(0.015625)"/>
      </defs>
      <use xlink:href="#UNAVAILABLE-8054" transform="translate(0 0.359375)"/>
      <use xlink:href="#UNAVAILABLE-90a6" transform="translate(100 0.359375)"/>
      <use xlink:href="#UNAVAILABLE-5f0f" transform="translate(200 0.359375)"/>
      <use xlink:href="#UNAVAILABLE-2c" transform="translate(300 0.359375)"/>
      <use xlink:href="#UNAVAILABLE-20" transform="translate(327.294922 0.359375)"/>
      <use xlink:href="#DejaVuSans-52" transform="translate(377.294922 0.359375)"/>
      <use xlink:href="#DejaVuSans-3d" transform="translate(466.259766 0.359375)"/>
      <use xlink:href="#DejaVuSans-30" transform="translate(569.53125 0.359375)"/>
      <use xlink:href="#DejaVuSans-2e" transform="translate(633.154297 0.359375)"/>
      <use xlink:href="#DejaVuSans-39" transform="translate(664.941406 0.359375)"/>
      <use xlink:href="#DejaVuSans-2c" transform="translate(728.564453 0.359375)"/>
      <use xlink:href="#DejaVuSans-53" transform="translate(779.833984 0.359375)"/>
      <use xlink:href="#DejaVuSans-4e" transform="translate(843.310547 0.359375)"/>
      <use xlink:href="#DejaVuSans-52" transform="translate(914.490234 0.359375)"/>
      <use xlink:href="#DejaVuSans-74" transform="translate(984.929688 -16.046875)scale(0.7)"/>
      <use xlink:href="#DejaVuSans-72" transform="translate(1012.375977 -16.046875)scale(0.7)"/>
      <use xlink:href="#DejaVuSans-61" transform="translate(1041.155273 -16.046875)scale(0.7)"/>
      <use xlink:href="#DejaVuSans-69" transform="translate(1084.050781 -16.046875)scale(0.7)"/>
      <use xlink:href="#DejaVuSans-6e" transform="translate(1103.499023 -16.046875)scale(0.7)"/>
      <use xlink:href="#DejaVuSans-3d" transform="translate(1170.081055 0.359375)"/>
      <use xlink:href="#DejaVuSans-32" transform="translate(1273.352539 0.359375)"/>
      <use xlink:href="#DejaVuSans-30" transform="translate(1336.975586 0.359375)"/>
      <use xlink:href="#DejaVuSans-28" transform="translate(1400.598633 0.359375)"/>
      <use xlink:href="#DejaVuSans-64" transform="translate(1439.612305 0.359375)"/>
      <use xlink:href="#DejaVuSans-42" transform="translate(1503.088867 0.359375)"/>
      <use xlink:href="#DejaVuSans-29" transform="translate(1571.692383 0.359375)"/>
     </g>
    </g>
    <g id="line2d_39">
     <path d="M 234.24976 429.28476 
L 259.24976 429.28476 
L 284.24976 429.28476 
" style="fill: none; stroke: #ff0000; stroke-width: 3; stroke-linecap: square"/>
     <g>
      <use xlink:href="#m0d73cd4285" x="259.24976" y="429.28476" style="fill: #ffffff; stroke: #ff0000; stroke-linejoin: bevel"/>
     </g>
    </g>
    <g id="text_15">
     <!-- 中心式, $\mathrm{R}=0.5,\mathrm{SNR}_\mathrm{train}=10\mathrm{(dB)}$ -->
     <g transform="translate(304.24976 438.03476)scale(0.25 -0.25)">
      <defs>
       <path id="DejaVuSans-35" d="M 691 4666 
L 3169 4666 
L 3169 4134 
L 1269 4134 
L 1269 2991 
Q 1406 3038 1543 3061 
Q 1681 3084 1819 3084 
Q 2600 3084 3056 2656 
Q 3513 2228 3513 1497 
Q 3513 744 3044 326 
Q 2575 -91 1722 -91 
Q 1428 -91 1123 -41 
Q 819 9 494 109 
L 494 744 
Q 775 591 1075 516 
Q 1375 441 1709 441 
Q 2250 441 2565 725 
Q 2881 1009 2881 1497 
Q 2881 1984 2565 2268 
Q 2250 2553 1709 2553 
Q 1456 2553 1204 2497 
Q 953 2441 691 2322 
L 691 4666 
z
" transform="scale(0.015625)"/>
       <path id="DejaVuSans-31" d="M 794 531 
L 1825 531 
L 1825 4091 
L 703 3866 
L 703 4441 
L 1819 4666 
L 2450 4666 
L 2450 531 
L 3481 531 
L 3481 0 
L 794 0 
L 794 531 
z
" transform="scale(0.015625)"/>
      </defs>
      <use xlink:href="#UNAVAILABLE-4e2d" transform="translate(0 0.75)"/>
      <use xlink:href="#UNAVAILABLE-5fc3" transform="translate(100 0.75)"/>
      <use xlink:href="#UNAVAILABLE-5f0f" transform="translate(200 0.75)"/>
      <use xlink:href="#UNAVAILABLE-2c" transform="translate(300 0.75)"/>
      <use xlink:href="#UNAVAILABLE-20" transform="translate(327.294922 0.75)"/>
      <use xlink:href="#DejaVuSans-52" transform="translate(377.294922 0.75)"/>
      <use xlink:href="#DejaVuSans-3d" transform="translate(466.259766 0.75)"/>
      <use xlink:href="#DejaVuSans-30" transform="translate(569.53125 0.75)"/>
      <use xlink:href="#DejaVuSans-2e" transform="translate(633.154297 0.75)"/>
      <use xlink:href="#DejaVuSans-35" transform="translate(664.941406 0.75)"/>
      <use xlink:href="#DejaVuSans-2c" transform="translate(728.564453 0.75)"/>
      <use xlink:href="#DejaVuSans-53" transform="translate(779.833984 0.75)"/>
      <use xlink:href="#DejaVuSans-4e" transform="translate(843.310547 0.75)"/>
      <use xlink:href="#DejaVuSans-52" transform="translate(914.490234 0.75)"/>
      <use xlink:href="#DejaVuSans-74" transform="translate(984.929688 -15.65625)scale(0.7)"/>
      <use xlink:href="#DejaVuSans-72" transform="translate(1012.375977 -15.65625)scale(0.7)"/>
      <use xlink:href="#DejaVuSans-61" transform="translate(1041.155273 -15.65625)scale(0.7)"/>
      <use xlink:href="#DejaVuSans-69" transform="translate(1084.050781 -15.65625)scale(0.7)"/>
      <use xlink:href="#DejaVuSans-6e" transform="translate(1103.499023 -15.65625)scale(0.7)"/>
      <use xlink:href="#DejaVuSans-3d" transform="translate(1170.081055 0.75)"/>
      <use xlink:href="#DejaVuSans-31" transform="translate(1273.352539 0.75)"/>
      <use xlink:href="#DejaVuSans-30" transform="translate(1336.975586 0.75)"/>
      <use xlink:href="#DejaVuSans-28" transform="translate(1400.598633 0.75)"/>
      <use xlink:href="#DejaVuSans-64" transform="translate(1439.612305 0.75)"/>
      <use xlink:href="#DejaVuSans-42" transform="translate(1503.088867 0.75)"/>
      <use xlink:href="#DejaVuSans-29" transform="translate(1571.692383 0.75)"/>
     </g>
    </g>
    <g id="line2d_40">
     <path d="M 234.24976 458.28476 
L 259.24976 458.28476 
L 284.24976 458.28476 
" style="fill: none; stroke-dasharray: 15,15; stroke-dashoffset: 0; stroke: #ff0000; stroke-width: 3"/>
     <g>
      <use xlink:href="#m24c3286914" x="259.24976" y="458.28476" style="fill: #ffffff; stroke: #ff0000"/>
     </g>
    </g>
    <g id="text_16">
     <!-- 联邦式, $\mathrm{R}=0.5,\mathrm{SNR}_\mathrm{train}=10\mathrm{(dB)}$ -->
     <g transform="translate(304.24976 467.03476)scale(0.25 -0.25)">
      <use xlink:href="#UNAVAILABLE-8054" transform="translate(0 0.359375)"/>
      <use xlink:href="#UNAVAILABLE-90a6" transform="translate(100 0.359375)"/>
      <use xlink:href="#UNAVAILABLE-5f0f" transform="translate(200 0.359375)"/>
      <use xlink:href="#UNAVAILABLE-2c" transform="translate(300 0.359375)"/>
      <use xlink:href="#UNAVAILABLE-20" transform="translate(327.294922 0.359375)"/>
      <use xlink:href="#DejaVuSans-52" transform="translate(377.294922 0.359375)"/>
      <use xlink:href="#DejaVuSans-3d" transform="translate(466.259766 0.359375)"/>
      <use xlink:href="#DejaVuSans-30" transform="translate(569.53125 0.359375)"/>
      <use xlink:href="#DejaVuSans-2e" transform="translate(633.154297 0.359375)"/>
      <use xlink:href="#DejaVuSans-35" transform="translate(664.941406 0.359375)"/>
      <use xlink:href="#DejaVuSans-2c" transform="translate(728.564453 0.359375)"/>
      <use xlink:href="#DejaVuSans-53" transform="translate(779.833984 0.359375)"/>
      <use xlink:href="#DejaVuSans-4e" transform="translate(843.310547 0.359375)"/>
      <use xlink:href="#DejaVuSans-52" transform="translate(914.490234 0.359375)"/>
      <use xlink:href="#DejaVuSans-74" transform="translate(984.929688 -16.046875)scale(0.7)"/>
      <use xlink:href="#DejaVuSans-72" transform="translate(1012.375977 -16.046875)scale(0.7)"/>
      <use xlink:href="#DejaVuSans-61" transform="translate(1041.155273 -16.046875)scale(0.7)"/>
      <use xlink:href="#DejaVuSans-69" transform="translate(1084.050781 -16.046875)scale(0.7)"/>
      <use xlink:href="#DejaVuSans-6e" transform="translate(1103.499023 -16.046875)scale(0.7)"/>
      <use xlink:href="#DejaVuSans-3d" transform="translate(1170.081055 0.359375)"/>
      <use xlink:href="#DejaVuSans-31" transform="translate(1273.352539 0.359375)"/>
      <use xlink:href="#DejaVuSans-30" transform="translate(1336.975586 0.359375)"/>
      <use xlink:href="#DejaVuSans-28" transform="translate(1400.598633 0.359375)"/>
      <use xlink:href="#DejaVuSans-64" transform="translate(1439.612305 0.359375)"/>
      <use xlink:href="#DejaVuSans-42" transform="translate(1503.088867 0.359375)"/>
      <use xlink:href="#DejaVuSans-29" transform="translate(1571.692383 0.359375)"/>
     </g>
    </g>
    <g id="line2d_41">
     <path d="M 234.24976 487.28476 
L 259.24976 487.28476 
L 284.24976 487.28476 
" style="fill: none; stroke: #000000; stroke-width: 3; stroke-linecap: square"/>
     <g>
      <use xlink:href="#m6c425910c6" x="259.24976" y="487.28476" style="fill: #ffffff; stroke: #000000; stroke-linejoin: bevel"/>
     </g>
    </g>
    <g id="text_17">
     <!-- 中心式, $\mathrm{R}=0.2,\mathrm{SNR}_\mathrm{train}=2\mathrm{(dB)}$ -->
     <g transform="translate(304.24976 496.03476)scale(0.25 -0.25)">
      <use xlink:href="#UNAVAILABLE-4e2d" transform="translate(0 0.75)"/>
      <use xlink:href="#UNAVAILABLE-5fc3" transform="translate(100 0.75)"/>
      <use xlink:href="#UNAVAILABLE-5f0f" transform="translate(200 0.75)"/>
      <use xlink:href="#UNAVAILABLE-2c" transform="translate(300 0.75)"/>
      <use xlink:href="#UNAVAILABLE-20" transform="translate(327.294922 0.75)"/>
      <use xlink:href="#DejaVuSans-52" transform="translate(377.294922 0.75)"/>
      <use xlink:href="#DejaVuSans-3d" transform="translate(466.259766 0.75)"/>
      <use xlink:href="#DejaVuSans-30" transform="translate(569.53125 0.75)"/>
      <use xlink:href="#DejaVuSans-2e" transform="translate(633.154297 0.75)"/>
      <use xlink:href="#DejaVuSans-32" transform="translate(659.441406 0.75)"/>
      <use xlink:href="#DejaVuSans-2c" transform="translate(723.064453 0.75)"/>
      <use xlink:href="#DejaVuSans-53" transform="translate(774.333984 0.75)"/>
      <use xlink:href="#DejaVuSans-4e" transform="translate(837.810547 0.75)"/>
      <use xlink:href="#DejaVuSans-52" transform="translate(908.990234 0.75)"/>
      <use xlink:href="#DejaVuSans-74" transform="translate(979.429688 -15.65625)scale(0.7)"/>
      <use xlink:href="#DejaVuSans-72" transform="translate(1006.875977 -15.65625)scale(0.7)"/>
      <use xlink:href="#DejaVuSans-61" transform="translate(1035.655273 -15.65625)scale(0.7)"/>
      <use xlink:href="#DejaVuSans-69" transform="translate(1078.550781 -15.65625)scale(0.7)"/>
      <use xlink:href="#DejaVuSans-6e" transform="translate(1097.999023 -15.65625)scale(0.7)"/>
      <use xlink:href="#DejaVuSans-3d" transform="translate(1164.581055 0.75)"/>
      <use xlink:href="#DejaVuSans-32" transform="translate(1267.852539 0.75)"/>
      <use xlink:href="#DejaVuSans-28" transform="translate(1331.475586 0.75)"/>
      <use xlink:href="#DejaVuSans-64" transform="translate(1370.489258 0.75)"/>
      <use xlink:href="#DejaVuSans-42" transform="translate(1433.96582 0.75)"/>
      <use xlink:href="#DejaVuSans-29" transform="translate(1502.569336 0.75)"/>
     </g>
    </g>
    <g id="line2d_42">
     <path d="M 234.24976 516.28476 
L 259.24976 516.28476 
L 284.24976 516.28476 
" style="fill: none; stroke-dasharray: 15,15; stroke-dashoffset: 0; stroke: #000000; stroke-width: 3"/>
     <g>
      <use xlink:href="#mc52e89d8a3" x="259.24976" y="516.28476" style="fill: #ffffff; stroke: #000000"/>
     </g>
    </g>
    <g id="text_18">
     <!-- 联邦式, $\mathrm{R}=0.2,\mathrm{SNR}_\mathrm{train}=2\mathrm{(dB)}$ -->
     <g transform="translate(304.24976 525.03476)scale(0.25 -0.25)">
      <use xlink:href="#UNAVAILABLE-8054" transform="translate(0 0.359375)"/>
      <use xlink:href="#UNAVAILABLE-90a6" transform="translate(100 0.359375)"/>
      <use xlink:href="#UNAVAILABLE-5f0f" transform="translate(200 0.359375)"/>
      <use xlink:href="#UNAVAILABLE-2c" transform="translate(300 0.359375)"/>
      <use xlink:href="#UNAVAILABLE-20" transform="translate(327.294922 0.359375)"/>
      <use xlink:href="#DejaVuSans-52" transform="translate(377.294922 0.359375)"/>
      <use xlink:href="#DejaVuSans-3d" transform="translate(466.259766 0.359375)"/>
      <use xlink:href="#DejaVuSans-30" transform="translate(569.53125 0.359375)"/>
      <use xlink:href="#DejaVuSans-2e" transform="translate(633.154297 0.359375)"/>
      <use xlink:href="#DejaVuSans-32" transform="translate(659.441406 0.359375)"/>
      <use xlink:href="#DejaVuSans-2c" transform="translate(723.064453 0.359375)"/>
      <use xlink:href="#DejaVuSans-53" transform="translate(774.333984 0.359375)"/>
      <use xlink:href="#DejaVuSans-4e" transform="translate(837.810547 0.359375)"/>
      <use xlink:href="#DejaVuSans-52" transform="translate(908.990234 0.359375)"/>
      <use xlink:href="#DejaVuSans-74" transform="translate(979.429688 -16.046875)scale(0.7)"/>
      <use xlink:href="#DejaVuSans-72" transform="translate(1006.875977 -16.046875)scale(0.7)"/>
      <use xlink:href="#DejaVuSans-61" transform="translate(1035.655273 -16.046875)scale(0.7)"/>
      <use xlink:href="#DejaVuSans-69" transform="translate(1078.550781 -16.046875)scale(0.7)"/>
      <use xlink:href="#DejaVuSans-6e" transform="translate(1097.999023 -16.046875)scale(0.7)"/>
      <use xlink:href="#DejaVuSans-3d" transform="translate(1164.581055 0.359375)"/>
      <use xlink:href="#DejaVuSans-32" transform="translate(1267.852539 0.359375)"/>
      <use xlink:href="#DejaVuSans-28" transform="translate(1331.475586 0.359375)"/>
      <use xlink:href="#DejaVuSans-64" transform="translate(1370.489258 0.359375)"/>
      <use xlink:href="#DejaVuSans-42" transform="translate(1433.96582 0.359375)"/>
      <use xlink:href="#DejaVuSans-29" transform="translate(1502.569336 0.359375)"/>
     </g>
    </g>
   </g>
  </g>
  <g id="text_19">
   <!-- non-IID MNIST,  AutoEncoder -->
   <g transform="translate(171.972656 23.83149)scale(0.3 -0.3)">
    <defs>
     <path id="TimesNewRomanPSMT-6e" d="M 1034 2341 
Q 1538 2947 1994 2947 
Q 2228 2947 2397 2830 
Q 2566 2713 2666 2444 
Q 2734 2256 2734 1869 
L 2734 647 
Q 2734 375 2778 278 
Q 2813 200 2889 156 
Q 2966 113 3172 113 
L 3172 0 
L 1756 0 
L 1756 113 
L 1816 113 
Q 2016 113 2095 173 
Q 2175 234 2206 353 
Q 2219 400 2219 647 
L 2219 1819 
Q 2219 2209 2117 2386 
Q 2016 2563 1775 2563 
Q 1403 2563 1034 2156 
L 1034 647 
Q 1034 356 1069 288 
Q 1113 197 1189 155 
Q 1266 113 1500 113 
L 1500 0 
L 84 0 
L 84 113 
L 147 113 
Q 366 113 442 223 
Q 519 334 519 647 
L 519 1709 
Q 519 2225 495 2337 
Q 472 2450 423 2490 
Q 375 2531 294 2531 
Q 206 2531 84 2484 
L 38 2597 
L 900 2947 
L 1034 2947 
L 1034 2341 
z
" transform="scale(0.015625)"/>
     <path id="TimesNewRomanPSMT-6f" d="M 1600 2947 
Q 2250 2947 2644 2453 
Q 2978 2031 2978 1484 
Q 2978 1100 2793 706 
Q 2609 313 2286 112 
Q 1963 -88 1566 -88 
Q 919 -88 538 428 
Q 216 863 216 1403 
Q 216 1797 411 2186 
Q 606 2575 925 2761 
Q 1244 2947 1600 2947 
z
M 1503 2744 
Q 1338 2744 1170 2645 
Q 1003 2547 900 2300 
Q 797 2053 797 1666 
Q 797 1041 1045 587 
Q 1294 134 1700 134 
Q 2003 134 2200 384 
Q 2397 634 2397 1244 
Q 2397 2006 2069 2444 
Q 1847 2744 1503 2744 
z
" transform="scale(0.015625)"/>
     <path id="TimesNewRomanPSMT-2d" d="M 259 1672 
L 1875 1672 
L 1875 1200 
L 259 1200 
L 259 1672 
z
" transform="scale(0.015625)"/>
     <path id="TimesNewRomanPSMT-49" d="M 1975 116 
L 1975 0 
L 159 0 
L 159 116 
L 309 116 
Q 572 116 691 269 
Q 766 369 766 750 
L 766 3488 
Q 766 3809 725 3913 
Q 694 3991 597 4047 
Q 459 4122 309 4122 
L 159 4122 
L 159 4238 
L 1975 4238 
L 1975 4122 
L 1822 4122 
Q 1563 4122 1444 3969 
Q 1366 3869 1366 3488 
L 1366 750 
Q 1366 428 1406 325 
Q 1438 247 1538 191 
Q 1672 116 1822 116 
L 1975 116 
z
" transform="scale(0.015625)"/>
     <path id="TimesNewRomanPSMT-44" d="M 109 0 
L 109 116 
L 269 116 
Q 538 116 650 288 
Q 719 391 719 750 
L 719 3488 
Q 719 3884 631 3984 
Q 509 4122 269 4122 
L 109 4122 
L 109 4238 
L 1834 4238 
Q 2784 4238 3279 4022 
Q 3775 3806 4076 3303 
Q 4378 2800 4378 2141 
Q 4378 1256 3841 663 
Q 3238 0 2003 0 
L 109 0 
z
M 1319 306 
Q 1716 219 1984 219 
Q 2709 219 3187 728 
Q 3666 1238 3666 2109 
Q 3666 2988 3187 3494 
Q 2709 4000 1959 4000 
Q 1678 4000 1319 3909 
L 1319 306 
z
" transform="scale(0.015625)"/>
     <path id="TimesNewRomanPSMT-20" transform="scale(0.015625)"/>
     <path id="TimesNewRomanPSMT-4d" d="M 2619 0 
L 981 3566 
L 981 734 
Q 981 344 1066 247 
Q 1181 116 1431 116 
L 1581 116 
L 1581 0 
L 106 0 
L 106 116 
L 256 116 
Q 525 116 638 278 
Q 706 378 706 734 
L 706 3503 
Q 706 3784 644 3909 
Q 600 4000 483 4061 
Q 366 4122 106 4122 
L 106 4238 
L 1306 4238 
L 2844 922 
L 4356 4238 
L 5556 4238 
L 5556 4122 
L 5409 4122 
Q 5138 4122 5025 3959 
Q 4956 3859 4956 3503 
L 4956 734 
Q 4956 344 5044 247 
Q 5159 116 5409 116 
L 5556 116 
L 5556 0 
L 3756 0 
L 3756 116 
L 3906 116 
Q 4178 116 4288 278 
Q 4356 378 4356 734 
L 4356 3566 
L 2722 0 
L 2619 0 
z
" transform="scale(0.015625)"/>
     <path id="TimesNewRomanPSMT-4e" d="M -84 4238 
L 1066 4238 
L 3656 1059 
L 3656 3503 
Q 3656 3894 3569 3991 
Q 3453 4122 3203 4122 
L 3056 4122 
L 3056 4238 
L 4531 4238 
L 4531 4122 
L 4381 4122 
Q 4113 4122 4000 3959 
Q 3931 3859 3931 3503 
L 3931 -69 
L 3819 -69 
L 1025 3344 
L 1025 734 
Q 1025 344 1109 247 
Q 1228 116 1475 116 
L 1625 116 
L 1625 0 
L 150 0 
L 150 116 
L 297 116 
Q 569 116 681 278 
Q 750 378 750 734 
L 750 3681 
Q 566 3897 470 3965 
Q 375 4034 191 4094 
Q 100 4122 -84 4122 
L -84 4238 
z
" transform="scale(0.015625)"/>
     <path id="TimesNewRomanPSMT-53" d="M 2934 4334 
L 2934 2869 
L 2819 2869 
Q 2763 3291 2617 3541 
Q 2472 3791 2203 3937 
Q 1934 4084 1647 4084 
Q 1322 4084 1109 3886 
Q 897 3688 897 3434 
Q 897 3241 1031 3081 
Q 1225 2847 1953 2456 
Q 2547 2138 2764 1967 
Q 2981 1797 3098 1565 
Q 3216 1334 3216 1081 
Q 3216 600 2842 251 
Q 2469 -97 1881 -97 
Q 1697 -97 1534 -69 
Q 1438 -53 1133 45 
Q 828 144 747 144 
Q 669 144 623 97 
Q 578 50 556 -97 
L 441 -97 
L 441 1356 
L 556 1356 
Q 638 900 775 673 
Q 913 447 1195 297 
Q 1478 147 1816 147 
Q 2206 147 2432 353 
Q 2659 559 2659 841 
Q 2659 997 2573 1156 
Q 2488 1316 2306 1453 
Q 2184 1547 1640 1851 
Q 1097 2156 867 2337 
Q 638 2519 519 2737 
Q 400 2956 400 3219 
Q 400 3675 750 4004 
Q 1100 4334 1641 4334 
Q 1978 4334 2356 4169 
Q 2531 4091 2603 4091 
Q 2684 4091 2736 4139 
Q 2788 4188 2819 4334 
L 2934 4334 
z
" transform="scale(0.015625)"/>
     <path id="TimesNewRomanPSMT-54" d="M 3703 4238 
L 3750 3244 
L 3631 3244 
Q 3597 3506 3538 3619 
Q 3441 3800 3280 3886 
Q 3119 3972 2856 3972 
L 2259 3972 
L 2259 734 
Q 2259 344 2344 247 
Q 2463 116 2709 116 
L 2856 116 
L 2856 0 
L 1059 0 
L 1059 116 
L 1209 116 
Q 1478 116 1591 278 
Q 1659 378 1659 734 
L 1659 3972 
L 1150 3972 
Q 853 3972 728 3928 
Q 566 3869 450 3700 
Q 334 3531 313 3244 
L 194 3244 
L 244 4238 
L 3703 4238 
z
" transform="scale(0.015625)"/>
     <path id="TimesNewRomanPSMT-2c" d="M 344 -1066 
L 344 -928 
Q 666 -822 842 -598 
Q 1019 -375 1019 -125 
Q 1019 -66 991 -25 
Q 969 3 947 3 
Q 913 3 797 -59 
Q 741 -88 678 -88 
Q 525 -88 434 3 
Q 344 94 344 253 
Q 344 406 461 515 
Q 578 625 747 625 
Q 953 625 1114 445 
Q 1275 266 1275 -31 
Q 1275 -353 1051 -629 
Q 828 -906 344 -1066 
z
" transform="scale(0.015625)"/>
     <path id="TimesNewRomanPSMT-41" d="M 2928 1419 
L 1288 1419 
L 1000 750 
Q 894 503 894 381 
Q 894 284 986 211 
Q 1078 138 1384 116 
L 1384 0 
L 50 0 
L 50 116 
Q 316 163 394 238 
Q 553 388 747 847 
L 2238 4334 
L 2347 4334 
L 3822 809 
Q 4000 384 4145 257 
Q 4291 131 4550 116 
L 4550 0 
L 2878 0 
L 2878 116 
Q 3131 128 3220 200 
Q 3309 272 3309 375 
Q 3309 513 3184 809 
L 2928 1419 
z
M 2841 1650 
L 2122 3363 
L 1384 1650 
L 2841 1650 
z
" transform="scale(0.015625)"/>
     <path id="TimesNewRomanPSMT-75" d="M 2709 2863 
L 2709 1128 
Q 2709 631 2732 520 
Q 2756 409 2807 365 
Q 2859 322 2928 322 
Q 3025 322 3147 375 
L 3191 266 
L 2334 -88 
L 2194 -88 
L 2194 519 
Q 1825 119 1631 15 
Q 1438 -88 1222 -88 
Q 981 -88 804 51 
Q 628 191 559 409 
Q 491 628 491 1028 
L 491 2306 
Q 491 2509 447 2587 
Q 403 2666 317 2708 
Q 231 2750 6 2747 
L 6 2863 
L 1009 2863 
L 1009 947 
Q 1009 547 1148 422 
Q 1288 297 1484 297 
Q 1619 297 1789 381 
Q 1959 466 2194 703 
L 2194 2325 
Q 2194 2569 2105 2655 
Q 2016 2741 1734 2747 
L 1734 2863 
L 2709 2863 
z
" transform="scale(0.015625)"/>
     <path id="TimesNewRomanPSMT-74" d="M 1031 3803 
L 1031 2863 
L 1700 2863 
L 1700 2644 
L 1031 2644 
L 1031 788 
Q 1031 509 1111 412 
Q 1191 316 1316 316 
Q 1419 316 1516 380 
Q 1613 444 1666 569 
L 1788 569 
Q 1678 263 1478 108 
Q 1278 -47 1066 -47 
Q 922 -47 784 33 
Q 647 113 581 261 
Q 516 409 516 719 
L 516 2644 
L 63 2644 
L 63 2747 
Q 234 2816 414 2980 
Q 594 3144 734 3369 
Q 806 3488 934 3803 
L 1031 3803 
z
" transform="scale(0.015625)"/>
     <path id="TimesNewRomanPSMT-45" d="M 1338 4006 
L 1338 2331 
L 2269 2331 
Q 2631 2331 2753 2441 
Q 2916 2584 2934 2947 
L 3050 2947 
L 3050 1472 
L 2934 1472 
Q 2891 1781 2847 1869 
Q 2791 1978 2662 2040 
Q 2534 2103 2269 2103 
L 1338 2103 
L 1338 706 
Q 1338 425 1363 364 
Q 1388 303 1450 267 
Q 1513 231 1688 231 
L 2406 231 
Q 2766 231 2928 281 
Q 3091 331 3241 478 
Q 3434 672 3638 1063 
L 3763 1063 
L 3397 0 
L 131 0 
L 131 116 
L 281 116 
Q 431 116 566 188 
Q 666 238 702 338 
Q 738 438 738 747 
L 738 3500 
Q 738 3903 656 3997 
Q 544 4122 281 4122 
L 131 4122 
L 131 4238 
L 3397 4238 
L 3444 3309 
L 3322 3309 
Q 3256 3644 3176 3769 
Q 3097 3894 2941 3959 
Q 2816 4006 2500 4006 
L 1338 4006 
z
" transform="scale(0.015625)"/>
     <path id="TimesNewRomanPSMT-63" d="M 2631 1088 
Q 2516 522 2178 217 
Q 1841 -88 1431 -88 
Q 944 -88 581 321 
Q 219 731 219 1428 
Q 219 2103 620 2525 
Q 1022 2947 1584 2947 
Q 2006 2947 2278 2723 
Q 2550 2500 2550 2259 
Q 2550 2141 2473 2067 
Q 2397 1994 2259 1994 
Q 2075 1994 1981 2113 
Q 1928 2178 1911 2362 
Q 1894 2547 1784 2644 
Q 1675 2738 1481 2738 
Q 1169 2738 978 2506 
Q 725 2200 725 1697 
Q 725 1184 976 792 
Q 1228 400 1656 400 
Q 1963 400 2206 609 
Q 2378 753 2541 1131 
L 2631 1088 
z
" transform="scale(0.015625)"/>
     <path id="TimesNewRomanPSMT-64" d="M 2222 322 
Q 2013 103 1813 7 
Q 1613 -88 1381 -88 
Q 913 -88 563 304 
Q 213 697 213 1313 
Q 213 1928 600 2439 
Q 988 2950 1597 2950 
Q 1975 2950 2222 2709 
L 2222 3238 
Q 2222 3728 2198 3840 
Q 2175 3953 2125 3993 
Q 2075 4034 2000 4034 
Q 1919 4034 1784 3984 
L 1744 4094 
L 2597 4444 
L 2738 4444 
L 2738 1134 
Q 2738 631 2761 520 
Q 2784 409 2836 365 
Q 2888 322 2956 322 
Q 3041 322 3181 375 
L 3216 266 
L 2366 -88 
L 2222 -88 
L 2222 322 
z
M 2222 541 
L 2222 2016 
Q 2203 2228 2109 2403 
Q 2016 2578 1861 2667 
Q 1706 2756 1559 2756 
Q 1284 2756 1069 2509 
Q 784 2184 784 1559 
Q 784 928 1059 592 
Q 1334 256 1672 256 
Q 1956 256 2222 541 
z
" transform="scale(0.015625)"/>
     <path id="TimesNewRomanPSMT-65" d="M 681 1784 
Q 678 1147 991 784 
Q 1303 422 1725 422 
Q 2006 422 2214 576 
Q 2422 731 2563 1106 
L 2659 1044 
Q 2594 616 2278 264 
Q 1963 -88 1488 -88 
Q 972 -88 605 314 
Q 238 716 238 1394 
Q 238 2128 614 2539 
Q 991 2950 1559 2950 
Q 2041 2950 2350 2633 
Q 2659 2316 2659 1784 
L 681 1784 
z
M 681 1966 
L 2006 1966 
Q 1991 2241 1941 2353 
Q 1863 2528 1708 2628 
Q 1553 2728 1384 2728 
Q 1125 2728 920 2526 
Q 716 2325 681 1966 
z
" transform="scale(0.015625)"/>
     <path id="TimesNewRomanPSMT-72" d="M 1038 2947 
L 1038 2303 
Q 1397 2947 1775 2947 
Q 1947 2947 2059 2842 
Q 2172 2738 2172 2600 
Q 2172 2478 2090 2393 
Q 2009 2309 1897 2309 
Q 1788 2309 1652 2417 
Q 1516 2525 1450 2525 
Q 1394 2525 1328 2463 
Q 1188 2334 1038 2041 
L 1038 669 
Q 1038 431 1097 309 
Q 1138 225 1241 169 
Q 1344 113 1538 113 
L 1538 0 
L 72 0 
L 72 113 
Q 291 113 397 181 
Q 475 231 506 341 
Q 522 394 522 644 
L 522 1753 
Q 522 2253 501 2348 
Q 481 2444 426 2487 
Q 372 2531 291 2531 
Q 194 2531 72 2484 
L 41 2597 
L 906 2947 
L 1038 2947 
z
" transform="scale(0.015625)"/>
    </defs>
    <use xlink:href="#TimesNewRomanPSMT-6e"/>
    <use xlink:href="#TimesNewRomanPSMT-6f" x="50"/>
    <use xlink:href="#TimesNewRomanPSMT-6e" x="100"/>
    <use xlink:href="#TimesNewRomanPSMT-2d" x="150"/>
    <use xlink:href="#TimesNewRomanPSMT-49" x="183.300781"/>
    <use xlink:href="#TimesNewRomanPSMT-49" x="216.601562"/>
    <use xlink:href="#TimesNewRomanPSMT-44" x="249.902344"/>
    <use xlink:href="#TimesNewRomanPSMT-20" x="322.119141"/>
    <use xlink:href="#TimesNewRomanPSMT-4d" x="347.119141"/>
    <use xlink:href="#TimesNewRomanPSMT-4e" x="436.035156"/>
    <use xlink:href="#TimesNewRomanPSMT-49" x="508.251953"/>
    <use xlink:href="#TimesNewRomanPSMT-53" x="541.552734"/>
    <use xlink:href="#TimesNewRomanPSMT-54" x="597.167969"/>
    <use xlink:href="#TimesNewRomanPSMT-2c" x="650.876953"/>
    <use xlink:href="#TimesNewRomanPSMT-20" x="675.876953"/>
    <use xlink:href="#TimesNewRomanPSMT-20" x="700.876953"/>
    <use xlink:href="#TimesNewRomanPSMT-41" x="720.376953"/>
    <use xlink:href="#TimesNewRomanPSMT-75" x="792.59375"/>
    <use xlink:href="#TimesNewRomanPSMT-74" x="842.59375"/>
    <use xlink:href="#TimesNewRomanPSMT-6f" x="870.376953"/>
    <use xlink:href="#TimesNewRomanPSMT-45" x="920.376953"/>
    <use xlink:href="#TimesNewRomanPSMT-6e" x="981.460938"/>
    <use xlink:href="#TimesNewRomanPSMT-63" x="1031.460938"/>
    <use xlink:href="#TimesNewRomanPSMT-6f" x="1075.845703"/>
    <use xlink:href="#TimesNewRomanPSMT-64" x="1125.845703"/>
    <use xlink:href="#TimesNewRomanPSMT-65" x="1175.845703"/>
    <use xlink:href="#TimesNewRomanPSMT-72" x="1220.230469"/>
   </g>
  </g>
 </g>
 <defs>
  <clipPath id="p3910656ac4">
   <rect x="99.843209" y="36.249158" width="617.156551" height="503.285602"/>
  </clipPath>
 </defs>
</svg>
