<?xml version="1.0" encoding="utf-8" standalone="no"?>
<!DOCTYPE svg PUBLIC "-//W3C//DTD SVG 1.1//EN"
  "http://www.w3.org/Graphics/SVG/1.1/DTD/svg11.dtd">
<svg xmlns:xlink="http://www.w3.org/1999/xlink" width="432pt" height="432pt" viewBox="0 0 432 432" xmlns="http://www.w3.org/2000/svg" version="1.1">
 <metadata>
  <rdf:RDF xmlns:dc="http://purl.org/dc/elements/1.1/" xmlns:cc="http://creativecommons.org/ns#" xmlns:rdf="http://www.w3.org/1999/02/22-rdf-syntax-ns#">
   <cc:Work>
    <dc:type rdf:resource="http://purl.org/dc/dcmitype/StillImage"/>
    <dc:date>2024-07-13T21:42:31.161119</dc:date>
    <dc:format>image/svg+xml</dc:format>
    <dc:creator>
     <cc:Agent>
      <dc:title>Matplotlib v3.5.2, https://matplotlib.org/</dc:title>
     </cc:Agent>
    </dc:creator>
   </cc:Work>
  </rdf:RDF>
 </metadata>
 <defs>
  <style type="text/css">*{stroke-linejoin: round; stroke-linecap: butt}</style>
 </defs>
 <g id="figure_1">
  <g id="patch_1">
   <path d="M 0 432 
L 432 432 
L 432 0 
L 0 0 
z
" style="fill: #ffffff"/>
  </g>
  <g id="axes_1">
   <g id="patch_2">
    <path d="M 54 378 
L 388.8 378 
L 388.8 51.84 
L 54 51.84 
z
" style="fill: #ffffff"/>
   </g>
   <g id="patch_3">
    <path d="M 191.838773 343.429947 
Q 138.831053 223.48149 86.275254 104.555661 
" clip-path="url(#pe3dbf4ef9a)" style="fill: none; stroke: #000000; stroke-linecap: round"/>
    <path d="M 86.062762 109.022745 
L 86.275254 104.555661 
L 89.721427 107.405905 
L 86.062762 109.022745 
z
" clip-path="url(#pe3dbf4ef9a)" style="stroke: #000000; stroke-linecap: round"/>
   </g>
   <g id="patch_4">
    <path d="M 201.429402 349.021255 
Q 277.174819 341.519004 351.807646 334.12695 
" clip-path="url(#pe3dbf4ef9a)" style="fill: none; stroke: #000000; stroke-linecap: round"/>
    <path d="M 347.629996 332.530942 
L 351.807646 334.12695 
L 348.02425 336.511465 
L 347.629996 332.530942 
z
" clip-path="url(#pe3dbf4ef9a)" style="stroke: #000000; stroke-linecap: round"/>
   </g>
   <g id="patch_5">
    <path d="M 89.872138 96.553102 
Q 165.175593 88.703433 239.367039 80.969681 
" clip-path="url(#pe3dbf4ef9a)" style="fill: none; stroke: #000000; stroke-linecap: round"/>
    <path d="M 235.181239 79.395174 
L 239.367039 80.969681 
L 235.595953 83.373618 
L 235.181239 79.395174 
z
" clip-path="url(#pe3dbf4ef9a)" style="stroke: #000000; stroke-linecap: round"/>
   </g>
   <g id="patch_6">
    <path d="M 356.965691 327.07787 
Q 303.522402 206.743535 250.532916 87.430994 
" clip-path="url(#pe3dbf4ef9a)" style="fill: none; stroke: #000000; stroke-linecap: round"/>
    <path d="M 250.328649 91.898462 
L 250.532916 87.430994 
L 253.98433 90.274889 
L 250.328649 91.898462 
z
" clip-path="url(#pe3dbf4ef9a)" style="stroke: #000000; stroke-linecap: round"/>
   </g>
   <g id="patch_7">
    <path d="M 245.981744 86.867999 
Q 220.952296 214.919667 196.137324 341.874065 
" clip-path="url(#pe3dbf4ef9a)" style="fill: none; stroke: #000000; stroke-linecap: round"/>
    <path d="M 198.867512 338.332022 
L 196.137324 341.874065 
L 194.941802 337.564688 
L 198.867512 338.332022 
z
" clip-path="url(#pe3dbf4ef9a)" style="stroke: #000000; stroke-linecap: round"/>
   </g>
   <g id="matplotlib.axis_1">
    <g id="xtick_1"/>
    <g id="xtick_2"/>
    <g id="xtick_3"/>
    <g id="xtick_4"/>
    <g id="xtick_5"/>
   </g>
   <g id="matplotlib.axis_2">
    <g id="ytick_1"/>
    <g id="ytick_2"/>
    <g id="ytick_3"/>
    <g id="ytick_4"/>
    <g id="ytick_5"/>
   </g>
   <g id="PathCollection_1">
    <defs>
     <path id="m4495236300" d="M 0 6.855655 
C 1.818141 6.855655 3.56206 6.1333 4.84768 4.84768 
C 6.1333 3.56206 6.855655 1.818141 6.855655 0 
C 6.855655 -1.818141 6.1333 -3.56206 4.84768 -4.84768 
C 3.56206 -6.1333 1.818141 -6.855655 0 -6.855655 
C -1.818141 -6.855655 -3.56206 -6.1333 -4.84768 -4.84768 
C -6.1333 -3.56206 -6.855655 -1.818141 -6.855655 0 
C -6.855655 1.818141 -6.1333 3.56206 -4.84768 4.84768 
C -3.56206 6.1333 -1.818141 6.855655 0 6.855655 
z
" style="stroke: #0058ff"/>
    </defs>
    <g clip-path="url(#pe3dbf4ef9a)">
     <use xlink:href="#m4495236300" x="194.608252" y="349.69686" style="fill: #0058ff; stroke: #0058ff"/>
     <use xlink:href="#m4495236300" x="83.052893" y="97.263943" style="fill: #0058ff; stroke: #0058ff"/>
     <use xlink:href="#m4495236300" x="359.747107" y="333.340582" style="fill: #0058ff; stroke: #0058ff"/>
     <use xlink:href="#m4495236300" x="247.29621" y="80.14314" style="fill: #0058ff; stroke: #0058ff"/>
    </g>
   </g>
   <g id="patch_8">
    <path d="M 54 378 
L 54 51.84 
" style="fill: none; stroke: #000000; stroke-width: 0.8; stroke-linejoin: miter; stroke-linecap: square"/>
   </g>
   <g id="patch_9">
    <path d="M 388.8 378 
L 388.8 51.84 
" style="fill: none; stroke: #000000; stroke-width: 0.8; stroke-linejoin: miter; stroke-linecap: square"/>
   </g>
   <g id="patch_10">
    <path d="M 54 378 
L 388.8 378 
" style="fill: none; stroke: #000000; stroke-width: 0.8; stroke-linejoin: miter; stroke-linecap: square"/>
   </g>
   <g id="patch_11">
    <path d="M 54 51.84 
L 388.8 51.84 
" style="fill: none; stroke: #000000; stroke-width: 0.8; stroke-linejoin: miter; stroke-linecap: square"/>
   </g>
   <g id="text_1">
    <g clip-path="url(#pe3dbf4ef9a)">
     <!-- b -->
     <g transform="translate(190.799189 353.00811)scale(0.12 -0.12)">
      <defs>
       <path id="DejaVuSans-62" d="M 3116 1747 
Q 3116 2381 2855 2742 
Q 2594 3103 2138 3103 
Q 1681 3103 1420 2742 
Q 1159 2381 1159 1747 
Q 1159 1113 1420 752 
Q 1681 391 2138 391 
Q 2594 391 2855 752 
Q 3116 1113 3116 1747 
z
M 1159 2969 
Q 1341 3281 1617 3432 
Q 1894 3584 2278 3584 
Q 2916 3584 3314 3078 
Q 3713 2572 3713 1747 
Q 3713 922 3314 415 
Q 2916 -91 2278 -91 
Q 1894 -91 1617 61 
Q 1341 213 1159 525 
L 1159 0 
L 581 0 
L 581 4863 
L 1159 4863 
L 1159 2969 
z
" transform="scale(0.015625)"/>
      </defs>
      <use xlink:href="#DejaVuSans-62"/>
     </g>
    </g>
   </g>
   <g id="text_2">
    <g clip-path="url(#pe3dbf4ef9a)">
     <!-- a -->
     <g transform="translate(79.376018 100.575193)scale(0.12 -0.12)">
      <defs>
       <path id="DejaVuSans-61" d="M 2194 1759 
Q 1497 1759 1228 1600 
Q 959 1441 959 1056 
Q 959 750 1161 570 
Q 1363 391 1709 391 
Q 2188 391 2477 730 
Q 2766 1069 2766 1631 
L 2766 1759 
L 2194 1759 
z
M 3341 1997 
L 3341 0 
L 2766 0 
L 2766 531 
Q 2569 213 2275 61 
Q 1981 -91 1556 -91 
Q 1019 -91 701 211 
Q 384 513 384 1019 
Q 384 1609 779 1909 
Q 1175 2209 1959 2209 
L 2766 2209 
L 2766 2266 
Q 2766 2663 2505 2880 
Q 2244 3097 1772 3097 
Q 1472 3097 1187 3025 
Q 903 2953 641 2809 
L 641 3341 
Q 956 3463 1253 3523 
Q 1550 3584 1831 3584 
Q 2591 3584 2966 3190 
Q 3341 2797 3341 1997 
z
" transform="scale(0.015625)"/>
      </defs>
      <use xlink:href="#DejaVuSans-61"/>
     </g>
    </g>
   </g>
   <g id="text_3">
    <g clip-path="url(#pe3dbf4ef9a)">
     <!-- d -->
     <g transform="translate(355.938045 336.651832)scale(0.12 -0.12)">
      <defs>
       <path id="DejaVuSans-64" d="M 2906 2969 
L 2906 4863 
L 3481 4863 
L 3481 0 
L 2906 0 
L 2906 525 
Q 2725 213 2448 61 
Q 2172 -91 1784 -91 
Q 1150 -91 751 415 
Q 353 922 353 1747 
Q 353 2572 751 3078 
Q 1150 3584 1784 3584 
Q 2172 3584 2448 3432 
Q 2725 3281 2906 2969 
z
M 947 1747 
Q 947 1113 1208 752 
Q 1469 391 1925 391 
Q 2381 391 2643 752 
Q 2906 1113 2906 1747 
Q 2906 2381 2643 2742 
Q 2381 3103 1925 3103 
Q 1469 3103 1208 2742 
Q 947 2381 947 1747 
z
" transform="scale(0.015625)"/>
      </defs>
      <use xlink:href="#DejaVuSans-64"/>
     </g>
    </g>
   </g>
   <g id="text_4">
    <g clip-path="url(#pe3dbf4ef9a)">
     <!-- c -->
     <g transform="translate(243.997147 83.45439)scale(0.12 -0.12)">
      <defs>
       <path id="DejaVuSans-63" d="M 3122 3366 
L 3122 2828 
Q 2878 2963 2633 3030 
Q 2388 3097 2138 3097 
Q 1578 3097 1268 2742 
Q 959 2388 959 1747 
Q 959 1106 1268 751 
Q 1578 397 2138 397 
Q 2388 397 2633 464 
Q 2878 531 3122 666 
L 3122 134 
Q 2881 22 2623 -34 
Q 2366 -91 2075 -91 
Q 1284 -91 818 406 
Q 353 903 353 1747 
Q 353 2603 823 3093 
Q 1294 3584 2113 3584 
Q 2378 3584 2631 3529 
Q 2884 3475 3122 3366 
z
" transform="scale(0.015625)"/>
      </defs>
      <use xlink:href="#DejaVuSans-63"/>
     </g>
    </g>
   </g>
  </g>
 </g>
 <defs>
  <clipPath id="pe3dbf4ef9a">
   <rect x="54" y="51.84" width="334.8" height="326.16"/>
  </clipPath>
 </defs>
</svg>
