<?xml version="1.0" encoding="utf-8" standalone="no"?>
<!DOCTYPE svg PUBLIC "-//W3C//DTD SVG 1.1//EN"
  "http://www.w3.org/Graphics/SVG/1.1/DTD/svg11.dtd">
<svg xmlns:xlink="http://www.w3.org/1999/xlink" width="432pt" height="432pt" viewBox="0 0 432 432" xmlns="http://www.w3.org/2000/svg" version="1.1">
 <metadata>
  <rdf:RDF xmlns:dc="http://purl.org/dc/elements/1.1/" xmlns:cc="http://creativecommons.org/ns#" xmlns:rdf="http://www.w3.org/1999/02/22-rdf-syntax-ns#">
   <cc:Work>
    <dc:type rdf:resource="http://purl.org/dc/dcmitype/StillImage"/>
    <dc:date>2024-07-14T14:36:31.836545</dc:date>
    <dc:format>image/svg+xml</dc:format>
    <dc:creator>
     <cc:Agent>
      <dc:title>Matplotlib v3.5.2, https://matplotlib.org/</dc:title>
     </cc:Agent>
    </dc:creator>
   </cc:Work>
  </rdf:RDF>
 </metadata>
 <defs>
  <style type="text/css">*{stroke-linejoin: round; stroke-linecap: butt}</style>
 </defs>
 <g id="figure_1">
  <g id="patch_1">
   <path d="M 0 432 
L 432 432 
L 432 0 
L 0 0 
z
" style="fill: #ffffff"/>
  </g>
  <g id="axes_1">
   <g id="patch_2">
    <path d="M 54 378 
L 388.8 378 
L 388.8 51.84 
L 54 51.84 
z
" style="fill: #ffffff"/>
   </g>
   <g id="LineCollection_1">
    <path d="M 191.076835 266.436782 
L 222.186864 258.915695 
" clip-path="url(#p959cb558fb)" style="fill: none; stroke: #000000"/>
    <path d="M 191.076835 266.436782 
L 236.292079 222.641539 
" clip-path="url(#p959cb558fb)" style="fill: none; stroke: #000000"/>
    <path d="M 191.076835 266.436782 
L 189.744118 222.731091 
" clip-path="url(#p959cb558fb)" style="fill: none; stroke: #000000"/>
    <path d="M 191.076835 266.436782 
L 147.23592 299.655348 
" clip-path="url(#p959cb558fb)" style="fill: none; stroke: #000000"/>
    <path d="M 191.076835 266.436782 
L 124.015261 295.496954 
" clip-path="url(#p959cb558fb)" style="fill: none; stroke: #000000"/>
    <path d="M 191.076835 266.436782 
L 124.604384 272.593701 
" clip-path="url(#p959cb558fb)" style="fill: none; stroke: #000000"/>
    <path d="M 191.076835 266.436782 
L 203.779977 243.209083 
" clip-path="url(#p959cb558fb)" style="fill: none; stroke: #000000"/>
    <path d="M 191.076835 266.436782 
L 257.849312 202.224289 
" clip-path="url(#p959cb558fb)" style="fill: none; stroke: #000000"/>
    <path d="M 191.076835 266.436782 
L 135.661864 327.890036 
" clip-path="url(#p959cb558fb)" style="fill: none; stroke: #000000"/>
    <path d="M 191.076835 266.436782 
L 168.168999 346.234221 
" clip-path="url(#p959cb558fb)" style="fill: none; stroke: #000000"/>
    <path d="M 191.076835 266.436782 
L 146.424656 201.18834 
" clip-path="url(#p959cb558fb)" style="fill: none; stroke: #000000"/>
    <path d="M 191.076835 266.436782 
L 225.592236 214.151188 
" clip-path="url(#p959cb558fb)" style="fill: none; stroke: #000000"/>
    <path d="M 191.076835 266.436782 
L 196.259512 349.69686 
" clip-path="url(#p959cb558fb)" style="fill: none; stroke: #000000"/>
    <path d="M 191.076835 266.436782 
L 248.046664 283.02022 
" clip-path="url(#p959cb558fb)" style="fill: none; stroke: #000000"/>
    <path d="M 191.076835 266.436782 
L 216.76718 330.822111 
" clip-path="url(#p959cb558fb)" style="fill: none; stroke: #000000"/>
    <path d="M 191.076835 266.436782 
L 251.914118 158.347967 
" clip-path="url(#p959cb558fb)" style="fill: none; stroke: #000000"/>
    <path d="M 222.186864 258.915695 
L 236.292079 222.641539 
" clip-path="url(#p959cb558fb)" style="fill: none; stroke: #000000"/>
    <path d="M 222.186864 258.915695 
L 189.744118 222.731091 
" clip-path="url(#p959cb558fb)" style="fill: none; stroke: #000000"/>
    <path d="M 222.186864 258.915695 
L 203.779977 243.209083 
" clip-path="url(#p959cb558fb)" style="fill: none; stroke: #000000"/>
    <path d="M 222.186864 258.915695 
L 225.592236 214.151188 
" clip-path="url(#p959cb558fb)" style="fill: none; stroke: #000000"/>
    <path d="M 222.186864 258.915695 
L 196.259512 349.69686 
" clip-path="url(#p959cb558fb)" style="fill: none; stroke: #000000"/>
    <path d="M 222.186864 258.915695 
L 248.046664 283.02022 
" clip-path="url(#p959cb558fb)" style="fill: none; stroke: #000000"/>
    <path d="M 222.186864 258.915695 
L 216.76718 330.822111 
" clip-path="url(#p959cb558fb)" style="fill: none; stroke: #000000"/>
    <path d="M 222.186864 258.915695 
L 280.772081 207.034172 
" clip-path="url(#p959cb558fb)" style="fill: none; stroke: #000000"/>
    <path d="M 236.292079 222.641539 
L 189.744118 222.731091 
" clip-path="url(#p959cb558fb)" style="fill: none; stroke: #000000"/>
    <path d="M 236.292079 222.641539 
L 203.779977 243.209083 
" clip-path="url(#p959cb558fb)" style="fill: none; stroke: #000000"/>
    <path d="M 236.292079 222.641539 
L 257.849312 202.224289 
" clip-path="url(#p959cb558fb)" style="fill: none; stroke: #000000"/>
    <path d="M 236.292079 222.641539 
L 313.691861 248.162137 
" clip-path="url(#p959cb558fb)" style="fill: none; stroke: #000000"/>
    <path d="M 236.292079 222.641539 
L 225.592236 214.151188 
" clip-path="url(#p959cb558fb)" style="fill: none; stroke: #000000"/>
    <path d="M 236.292079 222.641539 
L 257.11485 129.825082 
" clip-path="url(#p959cb558fb)" style="fill: none; stroke: #000000"/>
    <path d="M 236.292079 222.641539 
L 276.157998 226.905046 
" clip-path="url(#p959cb558fb)" style="fill: none; stroke: #000000"/>
    <path d="M 236.292079 222.641539 
L 299.185278 153.275481 
" clip-path="url(#p959cb558fb)" style="fill: none; stroke: #000000"/>
    <path d="M 189.744118 222.731091 
L 203.779977 243.209083 
" clip-path="url(#p959cb558fb)" style="fill: none; stroke: #000000"/>
    <path d="M 189.744118 222.731091 
L 146.424656 201.18834 
" clip-path="url(#p959cb558fb)" style="fill: none; stroke: #000000"/>
    <path d="M 189.744118 222.731091 
L 225.592236 214.151188 
" clip-path="url(#p959cb558fb)" style="fill: none; stroke: #000000"/>
    <path d="M 147.23592 299.655348 
L 124.604384 272.593701 
" clip-path="url(#p959cb558fb)" style="fill: none; stroke: #000000"/>
    <path d="M 147.23592 299.655348 
L 135.661864 327.890036 
" clip-path="url(#p959cb558fb)" style="fill: none; stroke: #000000"/>
    <path d="M 124.015261 295.496954 
L 124.604384 272.593701 
" clip-path="url(#p959cb558fb)" style="fill: none; stroke: #000000"/>
    <path d="M 124.015261 295.496954 
L 135.661864 327.890036 
" clip-path="url(#p959cb558fb)" style="fill: none; stroke: #000000"/>
    <path d="M 124.015261 295.496954 
L 83.052893 293.963831 
" clip-path="url(#p959cb558fb)" style="fill: none; stroke: #000000"/>
    <path d="M 124.604384 272.593701 
L 83.052893 293.963831 
" clip-path="url(#p959cb558fb)" style="fill: none; stroke: #000000"/>
    <path d="M 257.849312 202.224289 
L 280.772081 207.034172 
" clip-path="url(#p959cb558fb)" style="fill: none; stroke: #000000"/>
    <path d="M 257.849312 202.224289 
L 299.185278 153.275481 
" clip-path="url(#p959cb558fb)" style="fill: none; stroke: #000000"/>
    <path d="M 257.849312 202.224289 
L 292.177809 168.187725 
" clip-path="url(#p959cb558fb)" style="fill: none; stroke: #000000"/>
    <path d="M 313.691861 248.162137 
L 292.177809 168.187725 
" clip-path="url(#p959cb558fb)" style="fill: none; stroke: #000000"/>
    <path d="M 225.592236 214.151188 
L 292.177809 168.187725 
" clip-path="url(#p959cb558fb)" style="fill: none; stroke: #000000"/>
    <path d="M 310.82354 86.127902 
L 299.185278 153.275481 
" clip-path="url(#p959cb558fb)" style="fill: none; stroke: #000000"/>
    <path d="M 310.82354 86.127902 
L 292.177809 168.187725 
" clip-path="url(#p959cb558fb)" style="fill: none; stroke: #000000"/>
    <path d="M 312.769337 123.536527 
L 299.185278 153.275481 
" clip-path="url(#p959cb558fb)" style="fill: none; stroke: #000000"/>
    <path d="M 312.769337 123.536527 
L 292.177809 168.187725 
" clip-path="url(#p959cb558fb)" style="fill: none; stroke: #000000"/>
    <path d="M 359.747107 181.690157 
L 299.185278 153.275481 
" clip-path="url(#p959cb558fb)" style="fill: none; stroke: #000000"/>
    <path d="M 359.747107 181.690157 
L 292.177809 168.187725 
" clip-path="url(#p959cb558fb)" style="fill: none; stroke: #000000"/>
    <path d="M 248.046664 283.02022 
L 292.177809 168.187725 
" clip-path="url(#p959cb558fb)" style="fill: none; stroke: #000000"/>
    <path d="M 352.131824 140.173522 
L 299.185278 153.275481 
" clip-path="url(#p959cb558fb)" style="fill: none; stroke: #000000"/>
    <path d="M 352.131824 140.173522 
L 292.177809 168.187725 
" clip-path="url(#p959cb558fb)" style="fill: none; stroke: #000000"/>
    <path d="M 335.452444 185.56683 
L 299.185278 153.275481 
" clip-path="url(#p959cb558fb)" style="fill: none; stroke: #000000"/>
    <path d="M 335.452444 185.56683 
L 292.177809 168.187725 
" clip-path="url(#p959cb558fb)" style="fill: none; stroke: #000000"/>
    <path d="M 286.02975 114.419735 
L 254.743776 100.641962 
" clip-path="url(#p959cb558fb)" style="fill: none; stroke: #000000"/>
    <path d="M 286.02975 114.419735 
L 257.11485 129.825082 
" clip-path="url(#p959cb558fb)" style="fill: none; stroke: #000000"/>
    <path d="M 286.02975 114.419735 
L 325.906934 113.960462 
" clip-path="url(#p959cb558fb)" style="fill: none; stroke: #000000"/>
    <path d="M 286.02975 114.419735 
L 299.185278 153.275481 
" clip-path="url(#p959cb558fb)" style="fill: none; stroke: #000000"/>
    <path d="M 286.02975 114.419735 
L 292.177809 168.187725 
" clip-path="url(#p959cb558fb)" style="fill: none; stroke: #000000"/>
    <path d="M 233.335939 80.14314 
L 254.743776 100.641962 
" clip-path="url(#p959cb558fb)" style="fill: none; stroke: #000000"/>
    <path d="M 233.335939 80.14314 
L 257.11485 129.825082 
" clip-path="url(#p959cb558fb)" style="fill: none; stroke: #000000"/>
    <path d="M 233.335939 80.14314 
L 251.914118 158.347967 
" clip-path="url(#p959cb558fb)" style="fill: none; stroke: #000000"/>
    <path d="M 254.743776 100.641962 
L 251.914118 158.347967 
" clip-path="url(#p959cb558fb)" style="fill: none; stroke: #000000"/>
    <path d="M 348.912389 96.364945 
L 325.906934 113.960462 
" clip-path="url(#p959cb558fb)" style="fill: none; stroke: #000000"/>
    <path d="M 348.912389 96.364945 
L 292.177809 168.187725 
" clip-path="url(#p959cb558fb)" style="fill: none; stroke: #000000"/>
    <path d="M 257.11485 129.825082 
L 292.177809 168.187725 
" clip-path="url(#p959cb558fb)" style="fill: none; stroke: #000000"/>
    <path d="M 276.157998 226.905046 
L 251.914118 158.347967 
" clip-path="url(#p959cb558fb)" style="fill: none; stroke: #000000"/>
    <path d="M 276.157998 226.905046 
L 292.177809 168.187725 
" clip-path="url(#p959cb558fb)" style="fill: none; stroke: #000000"/>
    <path d="M 325.906934 113.960462 
L 299.185278 153.275481 
" clip-path="url(#p959cb558fb)" style="fill: none; stroke: #000000"/>
    <path d="M 325.906934 113.960462 
L 292.177809 168.187725 
" clip-path="url(#p959cb558fb)" style="fill: none; stroke: #000000"/>
    <path d="M 280.772081 207.034172 
L 299.185278 153.275481 
" clip-path="url(#p959cb558fb)" style="fill: none; stroke: #000000"/>
    <path d="M 280.772081 207.034172 
L 292.177809 168.187725 
" clip-path="url(#p959cb558fb)" style="fill: none; stroke: #000000"/>
    <path d="M 251.914118 158.347967 
L 299.185278 153.275481 
" clip-path="url(#p959cb558fb)" style="fill: none; stroke: #000000"/>
    <path d="M 251.914118 158.347967 
L 292.177809 168.187725 
" clip-path="url(#p959cb558fb)" style="fill: none; stroke: #000000"/>
    <path d="M 299.185278 153.275481 
L 292.177809 168.187725 
" clip-path="url(#p959cb558fb)" style="fill: none; stroke: #000000"/>
   </g>
   <g id="matplotlib.axis_1">
    <g id="xtick_1"/>
    <g id="xtick_2"/>
    <g id="xtick_3"/>
    <g id="xtick_4"/>
    <g id="xtick_5"/>
    <g id="xtick_6"/>
    <g id="xtick_7"/>
    <g id="xtick_8"/>
   </g>
   <g id="matplotlib.axis_2">
    <g id="ytick_1"/>
    <g id="ytick_2"/>
    <g id="ytick_3"/>
    <g id="ytick_4"/>
    <g id="ytick_5"/>
    <g id="ytick_6"/>
    <g id="ytick_7"/>
   </g>
   <g id="PathCollection_1">
    <defs>
     <path id="C0_0_96044e9d8c" d="M 0 8.660254 
C 2.296726 8.660254 4.499694 7.747755 6.123724 6.123724 
C 7.747755 4.499694 8.660254 2.296726 8.660254 -0 
C 8.660254 -2.296726 7.747755 -4.499694 6.123724 -6.123724 
C 4.499694 -7.747755 2.296726 -8.660254 0 -8.660254 
C -2.296726 -8.660254 -4.499694 -7.747755 -6.123724 -6.123724 
C -7.747755 -4.499694 -8.660254 -2.296726 -8.660254 0 
C -8.660254 2.296726 -7.747755 4.499694 -6.123724 6.123724 
C -4.499694 7.747755 -2.296726 8.660254 0 8.660254 
z
"/>
    </defs>
    <g clip-path="url(#p959cb558fb)">
     <use xlink:href="#C0_0_96044e9d8c" x="191.076835" y="266.436782" style="fill: #313695; stroke: #313695"/>
    </g>
    <g clip-path="url(#p959cb558fb)">
     <use xlink:href="#C0_0_96044e9d8c" x="222.186864" y="258.915695" style="fill: #679ec9; stroke: #679ec9"/>
    </g>
    <g clip-path="url(#p959cb558fb)">
     <use xlink:href="#C0_0_96044e9d8c" x="236.292079" y="222.641539" style="fill: #34409a; stroke: #34409a"/>
    </g>
    <g clip-path="url(#p959cb558fb)">
     <use xlink:href="#C0_0_96044e9d8c" x="189.744118" y="222.731091" style="fill: #81b7d7; stroke: #81b7d7"/>
    </g>
    <g clip-path="url(#p959cb558fb)">
     <use xlink:href="#C0_0_96044e9d8c" x="147.23592" y="299.655348" style="fill: #feffc0; stroke: #feffc0"/>
    </g>
    <g clip-path="url(#p959cb558fb)">
     <use xlink:href="#C0_0_96044e9d8c" x="124.015261" y="295.496954" style="fill: #fafdc9; stroke: #fafdc9"/>
    </g>
    <g clip-path="url(#p959cb558fb)">
     <use xlink:href="#C0_0_96044e9d8c" x="124.604384" y="272.593701" style="fill: #fafdc9; stroke: #fafdc9"/>
    </g>
    <g clip-path="url(#p959cb558fb)">
     <use xlink:href="#C0_0_96044e9d8c" x="203.779977" y="243.209083" style="fill: #a8d6e8; stroke: #a8d6e8"/>
    </g>
    <g clip-path="url(#p959cb558fb)">
     <use xlink:href="#C0_0_96044e9d8c" x="257.849312" y="202.224289" style="fill: #4676b5; stroke: #4676b5"/>
    </g>
    <g clip-path="url(#p959cb558fb)">
     <use xlink:href="#C0_0_96044e9d8c" x="313.691861" y="248.162137" style="fill: #b0dcea; stroke: #b0dcea"/>
    </g>
    <g clip-path="url(#p959cb558fb)">
     <use xlink:href="#C0_0_96044e9d8c" x="135.661864" y="327.890036" style="fill: #feffc0; stroke: #feffc0"/>
    </g>
    <g clip-path="url(#p959cb558fb)">
     <use xlink:href="#C0_0_96044e9d8c" x="168.168999" y="346.234221" style="fill: #feefa6; stroke: #feefa6"/>
    </g>
    <g clip-path="url(#p959cb558fb)">
     <use xlink:href="#C0_0_96044e9d8c" x="146.424656" y="201.18834" style="fill: #fff5af; stroke: #fff5af"/>
    </g>
    <g clip-path="url(#p959cb558fb)">
     <use xlink:href="#C0_0_96044e9d8c" x="225.592236" y="214.151188" style="fill: #4676b5; stroke: #4676b5"/>
    </g>
    <g clip-path="url(#p959cb558fb)">
     <use xlink:href="#C0_0_96044e9d8c" x="310.82354" y="86.127902" style="fill: #fff5af; stroke: #fff5af"/>
    </g>
    <g clip-path="url(#p959cb558fb)">
     <use xlink:href="#C0_0_96044e9d8c" x="312.769337" y="123.536527" style="fill: #fff5af; stroke: #fff5af"/>
    </g>
    <g clip-path="url(#p959cb558fb)">
     <use xlink:href="#C0_0_96044e9d8c" x="83.052893" y="293.963831" style="fill: #a50026; stroke: #a50026"/>
    </g>
    <g clip-path="url(#p959cb558fb)">
     <use xlink:href="#C0_0_96044e9d8c" x="196.259512" y="349.69686" style="fill: #fffab7; stroke: #fffab7"/>
    </g>
    <g clip-path="url(#p959cb558fb)">
     <use xlink:href="#C0_0_96044e9d8c" x="359.747107" y="181.690157" style="fill: #fff5af; stroke: #fff5af"/>
    </g>
    <g clip-path="url(#p959cb558fb)">
     <use xlink:href="#C0_0_96044e9d8c" x="248.046664" y="283.02022" style="fill: #578abf; stroke: #578abf"/>
    </g>
    <g clip-path="url(#p959cb558fb)">
     <use xlink:href="#C0_0_96044e9d8c" x="352.131824" y="140.173522" style="fill: #fff5af; stroke: #fff5af"/>
    </g>
    <g clip-path="url(#p959cb558fb)">
     <use xlink:href="#C0_0_96044e9d8c" x="216.76718" y="330.822111" style="fill: #fffab7; stroke: #fffab7"/>
    </g>
    <g clip-path="url(#p959cb558fb)">
     <use xlink:href="#C0_0_96044e9d8c" x="335.452444" y="185.56683" style="fill: #fff5af; stroke: #fff5af"/>
    </g>
    <g clip-path="url(#p959cb558fb)">
     <use xlink:href="#C0_0_96044e9d8c" x="286.02975" y="114.419735" style="fill: #eff9dd; stroke: #eff9dd"/>
    </g>
    <g clip-path="url(#p959cb558fb)">
     <use xlink:href="#C0_0_96044e9d8c" x="233.335939" y="80.14314" style="fill: #fffab7; stroke: #fffab7"/>
    </g>
    <g clip-path="url(#p959cb558fb)">
     <use xlink:href="#C0_0_96044e9d8c" x="254.743776" y="100.641962" style="fill: #fffab7; stroke: #fffab7"/>
    </g>
    <g clip-path="url(#p959cb558fb)">
     <use xlink:href="#C0_0_96044e9d8c" x="348.912389" y="96.364945" style="fill: #feea9f; stroke: #feea9f"/>
    </g>
    <g clip-path="url(#p959cb558fb)">
     <use xlink:href="#C0_0_96044e9d8c" x="257.11485" y="129.825082" style="fill: #8abeda; stroke: #8abeda"/>
    </g>
    <g clip-path="url(#p959cb558fb)">
     <use xlink:href="#C0_0_96044e9d8c" x="276.157998" y="226.905046" style="fill: #94c7df; stroke: #94c7df"/>
    </g>
    <g clip-path="url(#p959cb558fb)">
     <use xlink:href="#C0_0_96044e9d8c" x="325.906934" y="113.960462" style="fill: #fafdc9; stroke: #fafdc9"/>
    </g>
    <g clip-path="url(#p959cb558fb)">
     <use xlink:href="#C0_0_96044e9d8c" x="280.772081" y="207.034172" style="fill: #8abeda; stroke: #8abeda"/>
    </g>
    <g clip-path="url(#p959cb558fb)">
     <use xlink:href="#C0_0_96044e9d8c" x="251.914118" y="158.347967" style="fill: #3b56a5; stroke: #3b56a5"/>
    </g>
    <g clip-path="url(#p959cb558fb)">
     <use xlink:href="#C0_0_96044e9d8c" x="299.185278" y="153.275481" style="fill: #4676b5; stroke: #4676b5"/>
    </g>
    <g clip-path="url(#p959cb558fb)">
     <use xlink:href="#C0_0_96044e9d8c" x="292.177809" y="168.187725" style="fill: #374a9f; stroke: #374a9f"/>
    </g>
   </g>
   <g id="patch_3">
    <path d="M 54 378 
L 54 51.84 
" style="fill: none; stroke: #000000; stroke-width: 0.8; stroke-linejoin: miter; stroke-linecap: square"/>
   </g>
   <g id="patch_4">
    <path d="M 388.8 378 
L 388.8 51.84 
" style="fill: none; stroke: #000000; stroke-width: 0.8; stroke-linejoin: miter; stroke-linecap: square"/>
   </g>
   <g id="patch_5">
    <path d="M 54 378 
L 388.8 378 
" style="fill: none; stroke: #000000; stroke-width: 0.8; stroke-linejoin: miter; stroke-linecap: square"/>
   </g>
   <g id="patch_6">
    <path d="M 54 51.84 
L 388.8 51.84 
" style="fill: none; stroke: #000000; stroke-width: 0.8; stroke-linejoin: miter; stroke-linecap: square"/>
   </g>
  </g>
 </g>
 <defs>
  <clipPath id="p959cb558fb">
   <rect x="54" y="51.84" width="334.8" height="326.16"/>
  </clipPath>
 </defs>
</svg>
