<?xml version="1.0" encoding="utf-8" standalone="no"?>
<!DOCTYPE svg PUBLIC "-//W3C//DTD SVG 1.1//EN"
  "http://www.w3.org/Graphics/SVG/1.1/DTD/svg11.dtd">
<svg xmlns:xlink="http://www.w3.org/1999/xlink" width="432pt" height="432pt" viewBox="0 0 432 432" xmlns="http://www.w3.org/2000/svg" version="1.1">
 <metadata>
  <rdf:RDF xmlns:dc="http://purl.org/dc/elements/1.1/" xmlns:cc="http://creativecommons.org/ns#" xmlns:rdf="http://www.w3.org/1999/02/22-rdf-syntax-ns#">
   <cc:Work>
    <dc:type rdf:resource="http://purl.org/dc/dcmitype/StillImage"/>
    <dc:date>2024-07-14T14:36:31.285419</dc:date>
    <dc:format>image/svg+xml</dc:format>
    <dc:creator>
     <cc:Agent>
      <dc:title>Matplotlib v3.5.2, https://matplotlib.org/</dc:title>
     </cc:Agent>
    </dc:creator>
   </cc:Work>
  </rdf:RDF>
 </metadata>
 <defs>
  <style type="text/css">*{stroke-linejoin: round; stroke-linecap: butt}</style>
 </defs>
 <g id="figure_1">
  <g id="patch_1">
   <path d="M 0 432 
L 432 432 
L 432 0 
L 0 0 
z
" style="fill: #ffffff"/>
  </g>
  <g id="axes_1">
   <g id="patch_2">
    <path d="M 54 378 
L 388.8 378 
L 388.8 51.84 
L 54 51.84 
z
" style="fill: #ffffff"/>
   </g>
   <g id="LineCollection_1">
    <path d="M 76.009856 356.117425 
L 77.743744 355.568754 
" clip-path="url(#p1e28702a3a)" style="fill: none; stroke: #000000"/>
    <path d="M 76.009856 356.117425 
L 78.529884 352.922517 
" clip-path="url(#p1e28702a3a)" style="fill: none; stroke: #000000"/>
    <path d="M 76.009856 356.117425 
L 75.935579 352.92905 
" clip-path="url(#p1e28702a3a)" style="fill: none; stroke: #000000"/>
    <path d="M 76.009856 356.117425 
L 73.566425 358.540754 
" clip-path="url(#p1e28702a3a)" style="fill: none; stroke: #000000"/>
    <path d="M 76.009856 356.117425 
L 72.272244 358.237395 
" clip-path="url(#p1e28702a3a)" style="fill: none; stroke: #000000"/>
    <path d="M 76.009856 356.117425 
L 72.305078 356.566579 
" clip-path="url(#p1e28702a3a)" style="fill: none; stroke: #000000"/>
    <path d="M 76.009856 356.117425 
L 76.717854 354.422941 
" clip-path="url(#p1e28702a3a)" style="fill: none; stroke: #000000"/>
    <path d="M 76.009856 356.117425 
L 79.731356 351.433058 
" clip-path="url(#p1e28702a3a)" style="fill: none; stroke: #000000"/>
    <path d="M 76.009856 356.117425 
L 72.921356 360.600504 
" clip-path="url(#p1e28702a3a)" style="fill: none; stroke: #000000"/>
    <path d="M 76.009856 356.117425 
L 74.73311 361.938731 
" clip-path="url(#p1e28702a3a)" style="fill: none; stroke: #000000"/>
    <path d="M 76.009856 356.117425 
L 73.52121 351.357484 
" clip-path="url(#p1e28702a3a)" style="fill: none; stroke: #000000"/>
    <path d="M 76.009856 356.117425 
L 77.933539 352.303137 
" clip-path="url(#p1e28702a3a)" style="fill: none; stroke: #000000"/>
    <path d="M 76.009856 356.117425 
L 76.298708 362.191334 
" clip-path="url(#p1e28702a3a)" style="fill: none; stroke: #000000"/>
    <path d="M 76.009856 356.117425 
L 79.185015 357.327204 
" clip-path="url(#p1e28702a3a)" style="fill: none; stroke: #000000"/>
    <path d="M 76.009856 356.117425 
L 77.441683 360.814402 
" clip-path="url(#p1e28702a3a)" style="fill: none; stroke: #000000"/>
    <path d="M 76.009856 356.117425 
L 79.400563 348.232234 
" clip-path="url(#p1e28702a3a)" style="fill: none; stroke: #000000"/>
    <path d="M 77.743744 355.568754 
L 78.529884 352.922517 
" clip-path="url(#p1e28702a3a)" style="fill: none; stroke: #000000"/>
    <path d="M 77.743744 355.568754 
L 75.935579 352.92905 
" clip-path="url(#p1e28702a3a)" style="fill: none; stroke: #000000"/>
    <path d="M 77.743744 355.568754 
L 76.717854 354.422941 
" clip-path="url(#p1e28702a3a)" style="fill: none; stroke: #000000"/>
    <path d="M 77.743744 355.568754 
L 77.933539 352.303137 
" clip-path="url(#p1e28702a3a)" style="fill: none; stroke: #000000"/>
    <path d="M 77.743744 355.568754 
L 76.298708 362.191334 
" clip-path="url(#p1e28702a3a)" style="fill: none; stroke: #000000"/>
    <path d="M 77.743744 355.568754 
L 79.185015 357.327204 
" clip-path="url(#p1e28702a3a)" style="fill: none; stroke: #000000"/>
    <path d="M 77.743744 355.568754 
L 77.441683 360.814402 
" clip-path="url(#p1e28702a3a)" style="fill: none; stroke: #000000"/>
    <path d="M 77.743744 355.568754 
L 81.008934 351.783944 
" clip-path="url(#p1e28702a3a)" style="fill: none; stroke: #000000"/>
    <path d="M 78.529884 352.922517 
L 75.935579 352.92905 
" clip-path="url(#p1e28702a3a)" style="fill: none; stroke: #000000"/>
    <path d="M 78.529884 352.922517 
L 76.717854 354.422941 
" clip-path="url(#p1e28702a3a)" style="fill: none; stroke: #000000"/>
    <path d="M 78.529884 352.922517 
L 79.731356 351.433058 
" clip-path="url(#p1e28702a3a)" style="fill: none; stroke: #000000"/>
    <path d="M 78.529884 352.922517 
L 82.843686 354.784271 
" clip-path="url(#p1e28702a3a)" style="fill: none; stroke: #000000"/>
    <path d="M 78.529884 352.922517 
L 77.933539 352.303137 
" clip-path="url(#p1e28702a3a)" style="fill: none; stroke: #000000"/>
    <path d="M 78.529884 352.922517 
L 79.690421 346.151461 
" clip-path="url(#p1e28702a3a)" style="fill: none; stroke: #000000"/>
    <path d="M 78.529884 352.922517 
L 80.751773 353.233544 
" clip-path="url(#p1e28702a3a)" style="fill: none; stroke: #000000"/>
    <path d="M 78.529884 352.922517 
L 82.035176 347.862191 
" clip-path="url(#p1e28702a3a)" style="fill: none; stroke: #000000"/>
    <path d="M 75.935579 352.92905 
L 76.717854 354.422941 
" clip-path="url(#p1e28702a3a)" style="fill: none; stroke: #000000"/>
    <path d="M 75.935579 352.92905 
L 73.52121 351.357484 
" clip-path="url(#p1e28702a3a)" style="fill: none; stroke: #000000"/>
    <path d="M 75.935579 352.92905 
L 77.933539 352.303137 
" clip-path="url(#p1e28702a3a)" style="fill: none; stroke: #000000"/>
    <path d="M 73.566425 358.540754 
L 72.305078 356.566579 
" clip-path="url(#p1e28702a3a)" style="fill: none; stroke: #000000"/>
    <path d="M 73.566425 358.540754 
L 72.921356 360.600504 
" clip-path="url(#p1e28702a3a)" style="fill: none; stroke: #000000"/>
    <path d="M 72.272244 358.237395 
L 72.305078 356.566579 
" clip-path="url(#p1e28702a3a)" style="fill: none; stroke: #000000"/>
    <path d="M 72.272244 358.237395 
L 72.921356 360.600504 
" clip-path="url(#p1e28702a3a)" style="fill: none; stroke: #000000"/>
    <path d="M 72.272244 358.237395 
L 69.989246 358.125552 
" clip-path="url(#p1e28702a3a)" style="fill: none; stroke: #000000"/>
    <path d="M 72.305078 356.566579 
L 69.989246 358.125552 
" clip-path="url(#p1e28702a3a)" style="fill: none; stroke: #000000"/>
    <path d="M 79.731356 351.433058 
L 81.008934 351.783944 
" clip-path="url(#p1e28702a3a)" style="fill: none; stroke: #000000"/>
    <path d="M 79.731356 351.433058 
L 82.035176 347.862191 
" clip-path="url(#p1e28702a3a)" style="fill: none; stroke: #000000"/>
    <path d="M 79.731356 351.433058 
L 81.644621 348.950055 
" clip-path="url(#p1e28702a3a)" style="fill: none; stroke: #000000"/>
    <path d="M 82.843686 354.784271 
L 81.644621 348.950055 
" clip-path="url(#p1e28702a3a)" style="fill: none; stroke: #000000"/>
    <path d="M 77.933539 352.303137 
L 81.644621 348.950055 
" clip-path="url(#p1e28702a3a)" style="fill: none; stroke: #000000"/>
    <path d="M 82.683823 342.963706 
L 82.035176 347.862191 
" clip-path="url(#p1e28702a3a)" style="fill: none; stroke: #000000"/>
    <path d="M 82.683823 342.963706 
L 81.644621 348.950055 
" clip-path="url(#p1e28702a3a)" style="fill: none; stroke: #000000"/>
    <path d="M 82.79227 345.692704 
L 82.035176 347.862191 
" clip-path="url(#p1e28702a3a)" style="fill: none; stroke: #000000"/>
    <path d="M 82.79227 345.692704 
L 81.644621 348.950055 
" clip-path="url(#p1e28702a3a)" style="fill: none; stroke: #000000"/>
    <path d="M 85.410531 349.935071 
L 82.035176 347.862191 
" clip-path="url(#p1e28702a3a)" style="fill: none; stroke: #000000"/>
    <path d="M 85.410531 349.935071 
L 81.644621 348.950055 
" clip-path="url(#p1e28702a3a)" style="fill: none; stroke: #000000"/>
    <path d="M 79.185015 357.327204 
L 81.644621 348.950055 
" clip-path="url(#p1e28702a3a)" style="fill: none; stroke: #000000"/>
    <path d="M 84.986101 346.90639 
L 82.035176 347.862191 
" clip-path="url(#p1e28702a3a)" style="fill: none; stroke: #000000"/>
    <path d="M 84.986101 346.90639 
L 81.644621 348.950055 
" clip-path="url(#p1e28702a3a)" style="fill: none; stroke: #000000"/>
    <path d="M 84.056491 350.217879 
L 82.035176 347.862191 
" clip-path="url(#p1e28702a3a)" style="fill: none; stroke: #000000"/>
    <path d="M 84.056491 350.217879 
L 81.644621 348.950055 
" clip-path="url(#p1e28702a3a)" style="fill: none; stroke: #000000"/>
    <path d="M 81.301965 345.027624 
L 79.558272 344.022522 
" clip-path="url(#p1e28702a3a)" style="fill: none; stroke: #000000"/>
    <path d="M 81.301965 345.027624 
L 79.690421 346.151461 
" clip-path="url(#p1e28702a3a)" style="fill: none; stroke: #000000"/>
    <path d="M 81.301965 345.027624 
L 83.524482 344.99412 
" clip-path="url(#p1e28702a3a)" style="fill: none; stroke: #000000"/>
    <path d="M 81.301965 345.027624 
L 82.035176 347.862191 
" clip-path="url(#p1e28702a3a)" style="fill: none; stroke: #000000"/>
    <path d="M 81.301965 345.027624 
L 81.644621 348.950055 
" clip-path="url(#p1e28702a3a)" style="fill: none; stroke: #000000"/>
    <path d="M 78.365127 342.527111 
L 79.558272 344.022522 
" clip-path="url(#p1e28702a3a)" style="fill: none; stroke: #000000"/>
    <path d="M 78.365127 342.527111 
L 79.690421 346.151461 
" clip-path="url(#p1e28702a3a)" style="fill: none; stroke: #000000"/>
    <path d="M 78.365127 342.527111 
L 79.400563 348.232234 
" clip-path="url(#p1e28702a3a)" style="fill: none; stroke: #000000"/>
    <path d="M 79.558272 344.022522 
L 79.400563 348.232234 
" clip-path="url(#p1e28702a3a)" style="fill: none; stroke: #000000"/>
    <path d="M 84.806668 343.710509 
L 83.524482 344.99412 
" clip-path="url(#p1e28702a3a)" style="fill: none; stroke: #000000"/>
    <path d="M 84.806668 343.710509 
L 81.644621 348.950055 
" clip-path="url(#p1e28702a3a)" style="fill: none; stroke: #000000"/>
    <path d="M 79.690421 346.151461 
L 81.644621 348.950055 
" clip-path="url(#p1e28702a3a)" style="fill: none; stroke: #000000"/>
    <path d="M 80.751773 353.233544 
L 79.400563 348.232234 
" clip-path="url(#p1e28702a3a)" style="fill: none; stroke: #000000"/>
    <path d="M 80.751773 353.233544 
L 81.644621 348.950055 
" clip-path="url(#p1e28702a3a)" style="fill: none; stroke: #000000"/>
    <path d="M 83.524482 344.99412 
L 82.035176 347.862191 
" clip-path="url(#p1e28702a3a)" style="fill: none; stroke: #000000"/>
    <path d="M 83.524482 344.99412 
L 81.644621 348.950055 
" clip-path="url(#p1e28702a3a)" style="fill: none; stroke: #000000"/>
    <path d="M 81.008934 351.783944 
L 82.035176 347.862191 
" clip-path="url(#p1e28702a3a)" style="fill: none; stroke: #000000"/>
    <path d="M 81.008934 351.783944 
L 81.644621 348.950055 
" clip-path="url(#p1e28702a3a)" style="fill: none; stroke: #000000"/>
    <path d="M 79.400563 348.232234 
L 82.035176 347.862191 
" clip-path="url(#p1e28702a3a)" style="fill: none; stroke: #000000"/>
    <path d="M 79.400563 348.232234 
L 81.644621 348.950055 
" clip-path="url(#p1e28702a3a)" style="fill: none; stroke: #000000"/>
    <path d="M 82.035176 347.862191 
L 81.644621 348.950055 
" clip-path="url(#p1e28702a3a)" style="fill: none; stroke: #000000"/>
   </g>
   <g id="patch_3">
    <path d="M 75.284465 352.011534 
L 82.344758 352.011534 
L 82.344758 83.450518 
L 75.284465 83.450518 
z
" clip-path="url(#p1e28702a3a)" style="fill: #1f77b4"/>
   </g>
   <g id="patch_4">
    <path d="M 84.109831 352.011534 
L 91.170123 352.011534 
L 91.170123 200.945963 
L 84.109831 200.945963 
z
" clip-path="url(#p1e28702a3a)" style="fill: #1f77b4"/>
   </g>
   <g id="patch_5">
    <path d="M 92.935196 352.011534 
L 99.995489 352.011534 
L 99.995489 184.160899 
L 92.935196 184.160899 
z
" clip-path="url(#p1e28702a3a)" style="fill: #1f77b4"/>
   </g>
   <g id="patch_6">
    <path d="M 101.760562 352.011534 
L 108.820854 352.011534 
L 108.820854 251.301153 
L 101.760562 251.301153 
z
" clip-path="url(#p1e28702a3a)" style="fill: #1f77b4"/>
   </g>
   <g id="patch_7">
    <path d="M 110.585927 352.011534 
L 117.64622 352.011534 
L 117.64622 301.656344 
L 110.585927 301.656344 
z
" clip-path="url(#p1e28702a3a)" style="fill: #1f77b4"/>
   </g>
   <g id="patch_8">
    <path d="M 119.411293 352.011534 
L 126.471585 352.011534 
L 126.471585 284.87128 
L 119.411293 284.87128 
z
" clip-path="url(#p1e28702a3a)" style="fill: #1f77b4"/>
   </g>
   <g id="patch_9">
    <path d="M 128.236658 352.011534 
L 135.296951 352.011534 
L 135.296951 284.87128 
L 128.236658 284.87128 
z
" clip-path="url(#p1e28702a3a)" style="fill: #1f77b4"/>
   </g>
   <g id="patch_10">
    <path d="M 137.062024 352.011534 
L 144.122316 352.011534 
L 144.122316 284.87128 
L 137.062024 284.87128 
z
" clip-path="url(#p1e28702a3a)" style="fill: #1f77b4"/>
   </g>
   <g id="patch_11">
    <path d="M 145.887389 352.011534 
L 152.947681 352.011534 
L 152.947681 268.086217 
L 145.887389 268.086217 
z
" clip-path="url(#p1e28702a3a)" style="fill: #1f77b4"/>
   </g>
   <g id="patch_12">
    <path d="M 154.712755 352.011534 
L 161.773047 352.011534 
L 161.773047 318.441407 
L 154.712755 318.441407 
z
" clip-path="url(#p1e28702a3a)" style="fill: #1f77b4"/>
   </g>
   <g id="patch_13">
    <path d="M 163.53812 352.011534 
L 170.598412 352.011534 
L 170.598412 301.656344 
L 163.53812 301.656344 
z
" clip-path="url(#p1e28702a3a)" style="fill: #1f77b4"/>
   </g>
   <g id="patch_14">
    <path d="M 172.363486 352.011534 
L 179.423778 352.011534 
L 179.423778 335.226471 
L 172.363486 335.226471 
z
" clip-path="url(#p1e28702a3a)" style="fill: #1f77b4"/>
   </g>
   <g id="patch_15">
    <path d="M 181.188851 352.011534 
L 188.249143 352.011534 
L 188.249143 318.441407 
L 181.188851 318.441407 
z
" clip-path="url(#p1e28702a3a)" style="fill: #1f77b4"/>
   </g>
   <g id="patch_16">
    <path d="M 190.014216 352.011534 
L 197.074509 352.011534 
L 197.074509 268.086217 
L 190.014216 268.086217 
z
" clip-path="url(#p1e28702a3a)" style="fill: #1f77b4"/>
   </g>
   <g id="patch_17">
    <path d="M 198.839582 352.011534 
L 205.899874 352.011534 
L 205.899874 318.441407 
L 198.839582 318.441407 
z
" clip-path="url(#p1e28702a3a)" style="fill: #1f77b4"/>
   </g>
   <g id="patch_18">
    <path d="M 207.664947 352.011534 
L 214.72524 352.011534 
L 214.72524 318.441407 
L 207.664947 318.441407 
z
" clip-path="url(#p1e28702a3a)" style="fill: #1f77b4"/>
   </g>
   <g id="patch_19">
    <path d="M 216.490313 352.011534 
L 223.550605 352.011534 
L 223.550605 318.441407 
L 216.490313 318.441407 
z
" clip-path="url(#p1e28702a3a)" style="fill: #1f77b4"/>
   </g>
   <g id="patch_20">
    <path d="M 225.315678 352.011534 
L 232.375971 352.011534 
L 232.375971 318.441407 
L 225.315678 318.441407 
z
" clip-path="url(#p1e28702a3a)" style="fill: #1f77b4"/>
   </g>
   <g id="patch_21">
    <path d="M 234.141044 352.011534 
L 241.201336 352.011534 
L 241.201336 318.441407 
L 234.141044 318.441407 
z
" clip-path="url(#p1e28702a3a)" style="fill: #1f77b4"/>
   </g>
   <g id="patch_22">
    <path d="M 242.966409 352.011534 
L 250.026702 352.011534 
L 250.026702 301.656344 
L 242.966409 301.656344 
z
" clip-path="url(#p1e28702a3a)" style="fill: #1f77b4"/>
   </g>
   <g id="patch_23">
    <path d="M 251.791775 352.011534 
L 258.852067 352.011534 
L 258.852067 318.441407 
L 251.791775 318.441407 
z
" clip-path="url(#p1e28702a3a)" style="fill: #1f77b4"/>
   </g>
   <g id="patch_24">
    <path d="M 260.61714 352.011534 
L 267.677433 352.011534 
L 267.677433 318.441407 
L 260.61714 318.441407 
z
" clip-path="url(#p1e28702a3a)" style="fill: #1f77b4"/>
   </g>
   <g id="patch_25">
    <path d="M 269.442506 352.011534 
L 276.502798 352.011534 
L 276.502798 318.441407 
L 269.442506 318.441407 
z
" clip-path="url(#p1e28702a3a)" style="fill: #1f77b4"/>
   </g>
   <g id="patch_26">
    <path d="M 278.267871 352.011534 
L 285.328163 352.011534 
L 285.328163 268.086217 
L 278.267871 268.086217 
z
" clip-path="url(#p1e28702a3a)" style="fill: #1f77b4"/>
   </g>
   <g id="patch_27">
    <path d="M 287.093237 352.011534 
L 294.153529 352.011534 
L 294.153529 301.656344 
L 287.093237 301.656344 
z
" clip-path="url(#p1e28702a3a)" style="fill: #1f77b4"/>
   </g>
   <g id="patch_28">
    <path d="M 295.918602 352.011534 
L 302.978894 352.011534 
L 302.978894 301.656344 
L 295.918602 301.656344 
z
" clip-path="url(#p1e28702a3a)" style="fill: #1f77b4"/>
   </g>
   <g id="patch_29">
    <path d="M 304.743968 352.011534 
L 311.80426 352.011534 
L 311.80426 318.441407 
L 304.743968 318.441407 
z
" clip-path="url(#p1e28702a3a)" style="fill: #1f77b4"/>
   </g>
   <g id="patch_30">
    <path d="M 313.569333 352.011534 
L 320.629625 352.011534 
L 320.629625 284.87128 
L 313.569333 284.87128 
z
" clip-path="url(#p1e28702a3a)" style="fill: #1f77b4"/>
   </g>
   <g id="patch_31">
    <path d="M 322.394698 352.011534 
L 329.454991 352.011534 
L 329.454991 301.656344 
L 322.394698 301.656344 
z
" clip-path="url(#p1e28702a3a)" style="fill: #1f77b4"/>
   </g>
   <g id="patch_32">
    <path d="M 331.220064 352.011534 
L 338.280356 352.011534 
L 338.280356 284.87128 
L 331.220064 284.87128 
z
" clip-path="url(#p1e28702a3a)" style="fill: #1f77b4"/>
   </g>
   <g id="patch_33">
    <path d="M 340.045429 352.011534 
L 347.105722 352.011534 
L 347.105722 284.87128 
L 340.045429 284.87128 
z
" clip-path="url(#p1e28702a3a)" style="fill: #1f77b4"/>
   </g>
   <g id="patch_34">
    <path d="M 348.870795 352.011534 
L 355.931087 352.011534 
L 355.931087 251.301153 
L 348.870795 251.301153 
z
" clip-path="url(#p1e28702a3a)" style="fill: #1f77b4"/>
   </g>
   <g id="patch_35">
    <path d="M 357.69616 352.011534 
L 364.756453 352.011534 
L 364.756453 150.590772 
L 357.69616 150.590772 
z
" clip-path="url(#p1e28702a3a)" style="fill: #1f77b4"/>
   </g>
   <g id="patch_36">
    <path d="M 366.521526 352.011534 
L 373.581818 352.011534 
L 373.581818 66.665455 
L 366.521526 66.665455 
z
" clip-path="url(#p1e28702a3a)" style="fill: #1f77b4"/>
   </g>
   <g id="matplotlib.axis_1">
    <g id="xtick_1"/>
    <g id="xtick_2"/>
    <g id="xtick_3"/>
    <g id="xtick_4"/>
    <g id="xtick_5"/>
    <g id="xtick_6"/>
    <g id="xtick_7"/>
    <g id="xtick_8"/>
    <g id="text_1">
     <!-- Node label -->
     <g transform="translate(194.667188 389.598437)scale(0.1 -0.1)">
      <defs>
       <path id="DejaVuSans-4e" d="M 628 4666 
L 1478 4666 
L 3547 763 
L 3547 4666 
L 4159 4666 
L 4159 0 
L 3309 0 
L 1241 3903 
L 1241 0 
L 628 0 
L 628 4666 
z
" transform="scale(0.015625)"/>
       <path id="DejaVuSans-6f" d="M 1959 3097 
Q 1497 3097 1228 2736 
Q 959 2375 959 1747 
Q 959 1119 1226 758 
Q 1494 397 1959 397 
Q 2419 397 2687 759 
Q 2956 1122 2956 1747 
Q 2956 2369 2687 2733 
Q 2419 3097 1959 3097 
z
M 1959 3584 
Q 2709 3584 3137 3096 
Q 3566 2609 3566 1747 
Q 3566 888 3137 398 
Q 2709 -91 1959 -91 
Q 1206 -91 779 398 
Q 353 888 353 1747 
Q 353 2609 779 3096 
Q 1206 3584 1959 3584 
z
" transform="scale(0.015625)"/>
       <path id="DejaVuSans-64" d="M 2906 2969 
L 2906 4863 
L 3481 4863 
L 3481 0 
L 2906 0 
L 2906 525 
Q 2725 213 2448 61 
Q 2172 -91 1784 -91 
Q 1150 -91 751 415 
Q 353 922 353 1747 
Q 353 2572 751 3078 
Q 1150 3584 1784 3584 
Q 2172 3584 2448 3432 
Q 2725 3281 2906 2969 
z
M 947 1747 
Q 947 1113 1208 752 
Q 1469 391 1925 391 
Q 2381 391 2643 752 
Q 2906 1113 2906 1747 
Q 2906 2381 2643 2742 
Q 2381 3103 1925 3103 
Q 1469 3103 1208 2742 
Q 947 2381 947 1747 
z
" transform="scale(0.015625)"/>
       <path id="DejaVuSans-65" d="M 3597 1894 
L 3597 1613 
L 953 1613 
Q 991 1019 1311 708 
Q 1631 397 2203 397 
Q 2534 397 2845 478 
Q 3156 559 3463 722 
L 3463 178 
Q 3153 47 2828 -22 
Q 2503 -91 2169 -91 
Q 1331 -91 842 396 
Q 353 884 353 1716 
Q 353 2575 817 3079 
Q 1281 3584 2069 3584 
Q 2775 3584 3186 3129 
Q 3597 2675 3597 1894 
z
M 3022 2063 
Q 3016 2534 2758 2815 
Q 2500 3097 2075 3097 
Q 1594 3097 1305 2825 
Q 1016 2553 972 2059 
L 3022 2063 
z
" transform="scale(0.015625)"/>
       <path id="DejaVuSans-20" transform="scale(0.015625)"/>
       <path id="DejaVuSans-6c" d="M 603 4863 
L 1178 4863 
L 1178 0 
L 603 0 
L 603 4863 
z
" transform="scale(0.015625)"/>
       <path id="DejaVuSans-61" d="M 2194 1759 
Q 1497 1759 1228 1600 
Q 959 1441 959 1056 
Q 959 750 1161 570 
Q 1363 391 1709 391 
Q 2188 391 2477 730 
Q 2766 1069 2766 1631 
L 2766 1759 
L 2194 1759 
z
M 3341 1997 
L 3341 0 
L 2766 0 
L 2766 531 
Q 2569 213 2275 61 
Q 1981 -91 1556 -91 
Q 1019 -91 701 211 
Q 384 513 384 1019 
Q 384 1609 779 1909 
Q 1175 2209 1959 2209 
L 2766 2209 
L 2766 2266 
Q 2766 2663 2505 2880 
Q 2244 3097 1772 3097 
Q 1472 3097 1187 3025 
Q 903 2953 641 2809 
L 641 3341 
Q 956 3463 1253 3523 
Q 1550 3584 1831 3584 
Q 2591 3584 2966 3190 
Q 3341 2797 3341 1997 
z
" transform="scale(0.015625)"/>
       <path id="DejaVuSans-62" d="M 3116 1747 
Q 3116 2381 2855 2742 
Q 2594 3103 2138 3103 
Q 1681 3103 1420 2742 
Q 1159 2381 1159 1747 
Q 1159 1113 1420 752 
Q 1681 391 2138 391 
Q 2594 391 2855 752 
Q 3116 1113 3116 1747 
z
M 1159 2969 
Q 1341 3281 1617 3432 
Q 1894 3584 2278 3584 
Q 2916 3584 3314 3078 
Q 3713 2572 3713 1747 
Q 3713 922 3314 415 
Q 2916 -91 2278 -91 
Q 1894 -91 1617 61 
Q 1341 213 1159 525 
L 1159 0 
L 581 0 
L 581 4863 
L 1159 4863 
L 1159 2969 
z
" transform="scale(0.015625)"/>
      </defs>
      <use xlink:href="#DejaVuSans-4e"/>
      <use xlink:href="#DejaVuSans-6f" x="74.804688"/>
      <use xlink:href="#DejaVuSans-64" x="135.986328"/>
      <use xlink:href="#DejaVuSans-65" x="199.462891"/>
      <use xlink:href="#DejaVuSans-20" x="260.986328"/>
      <use xlink:href="#DejaVuSans-6c" x="292.773438"/>
      <use xlink:href="#DejaVuSans-61" x="320.556641"/>
      <use xlink:href="#DejaVuSans-62" x="381.835938"/>
      <use xlink:href="#DejaVuSans-65" x="445.3125"/>
      <use xlink:href="#DejaVuSans-6c" x="506.835938"/>
     </g>
    </g>
   </g>
   <g id="matplotlib.axis_2">
    <g id="ytick_1"/>
    <g id="ytick_2"/>
    <g id="ytick_3"/>
    <g id="ytick_4"/>
    <g id="ytick_5"/>
    <g id="ytick_6"/>
    <g id="ytick_7"/>
    <g id="ytick_8"/>
    <g id="text_2">
     <!-- Degree -->
     <g transform="translate(47.920312 233.116875)rotate(-90)scale(0.1 -0.1)">
      <defs>
       <path id="DejaVuSans-44" d="M 1259 4147 
L 1259 519 
L 2022 519 
Q 2988 519 3436 956 
Q 3884 1394 3884 2338 
Q 3884 3275 3436 3711 
Q 2988 4147 2022 4147 
L 1259 4147 
z
M 628 4666 
L 1925 4666 
Q 3281 4666 3915 4102 
Q 4550 3538 4550 2338 
Q 4550 1131 3912 565 
Q 3275 0 1925 0 
L 628 0 
L 628 4666 
z
" transform="scale(0.015625)"/>
       <path id="DejaVuSans-67" d="M 2906 1791 
Q 2906 2416 2648 2759 
Q 2391 3103 1925 3103 
Q 1463 3103 1205 2759 
Q 947 2416 947 1791 
Q 947 1169 1205 825 
Q 1463 481 1925 481 
Q 2391 481 2648 825 
Q 2906 1169 2906 1791 
z
M 3481 434 
Q 3481 -459 3084 -895 
Q 2688 -1331 1869 -1331 
Q 1566 -1331 1297 -1286 
Q 1028 -1241 775 -1147 
L 775 -588 
Q 1028 -725 1275 -790 
Q 1522 -856 1778 -856 
Q 2344 -856 2625 -561 
Q 2906 -266 2906 331 
L 2906 616 
Q 2728 306 2450 153 
Q 2172 0 1784 0 
Q 1141 0 747 490 
Q 353 981 353 1791 
Q 353 2603 747 3093 
Q 1141 3584 1784 3584 
Q 2172 3584 2450 3431 
Q 2728 3278 2906 2969 
L 2906 3500 
L 3481 3500 
L 3481 434 
z
" transform="scale(0.015625)"/>
       <path id="DejaVuSans-72" d="M 2631 2963 
Q 2534 3019 2420 3045 
Q 2306 3072 2169 3072 
Q 1681 3072 1420 2755 
Q 1159 2438 1159 1844 
L 1159 0 
L 581 0 
L 581 3500 
L 1159 3500 
L 1159 2956 
Q 1341 3275 1631 3429 
Q 1922 3584 2338 3584 
Q 2397 3584 2469 3576 
Q 2541 3569 2628 3553 
L 2631 2963 
z
" transform="scale(0.015625)"/>
      </defs>
      <use xlink:href="#DejaVuSans-44"/>
      <use xlink:href="#DejaVuSans-65" x="77.001953"/>
      <use xlink:href="#DejaVuSans-67" x="138.525391"/>
      <use xlink:href="#DejaVuSans-72" x="202.001953"/>
      <use xlink:href="#DejaVuSans-65" x="240.865234"/>
      <use xlink:href="#DejaVuSans-65" x="302.388672"/>
     </g>
    </g>
   </g>
   <g id="PathCollection_1">
    <defs>
     <path id="m4d98fcfa31" d="M 0 8.660254 
C 2.296726 8.660254 4.499694 7.747755 6.123724 6.123724 
C 7.747755 4.499694 8.660254 2.296726 8.660254 0 
C 8.660254 -2.296726 7.747755 -4.499694 6.123724 -6.123724 
C 4.499694 -7.747755 2.296726 -8.660254 0 -8.660254 
C -2.296726 -8.660254 -4.499694 -7.747755 -6.123724 -6.123724 
C -7.747755 -4.499694 -8.660254 -2.296726 -8.660254 0 
C -8.660254 2.296726 -7.747755 4.499694 -6.123724 6.123724 
C -4.499694 7.747755 -2.296726 8.660254 0 8.660254 
z
" style="stroke: #1f78b4"/>
    </defs>
    <g clip-path="url(#p1e28702a3a)">
     <use xlink:href="#m4d98fcfa31" x="76.009856" y="356.117425" style="fill: #1f78b4; stroke: #1f78b4"/>
     <use xlink:href="#m4d98fcfa31" x="77.743744" y="355.568754" style="fill: #1f78b4; stroke: #1f78b4"/>
     <use xlink:href="#m4d98fcfa31" x="78.529884" y="352.922517" style="fill: #1f78b4; stroke: #1f78b4"/>
     <use xlink:href="#m4d98fcfa31" x="75.935579" y="352.92905" style="fill: #1f78b4; stroke: #1f78b4"/>
     <use xlink:href="#m4d98fcfa31" x="73.566425" y="358.540754" style="fill: #1f78b4; stroke: #1f78b4"/>
     <use xlink:href="#m4d98fcfa31" x="72.272244" y="358.237395" style="fill: #1f78b4; stroke: #1f78b4"/>
     <use xlink:href="#m4d98fcfa31" x="72.305078" y="356.566579" style="fill: #1f78b4; stroke: #1f78b4"/>
     <use xlink:href="#m4d98fcfa31" x="76.717854" y="354.422941" style="fill: #1f78b4; stroke: #1f78b4"/>
     <use xlink:href="#m4d98fcfa31" x="79.731356" y="351.433058" style="fill: #1f78b4; stroke: #1f78b4"/>
     <use xlink:href="#m4d98fcfa31" x="82.843686" y="354.784271" style="fill: #1f78b4; stroke: #1f78b4"/>
     <use xlink:href="#m4d98fcfa31" x="72.921356" y="360.600504" style="fill: #1f78b4; stroke: #1f78b4"/>
     <use xlink:href="#m4d98fcfa31" x="74.73311" y="361.938731" style="fill: #1f78b4; stroke: #1f78b4"/>
     <use xlink:href="#m4d98fcfa31" x="73.52121" y="351.357484" style="fill: #1f78b4; stroke: #1f78b4"/>
     <use xlink:href="#m4d98fcfa31" x="77.933539" y="352.303137" style="fill: #1f78b4; stroke: #1f78b4"/>
     <use xlink:href="#m4d98fcfa31" x="82.683823" y="342.963706" style="fill: #1f78b4; stroke: #1f78b4"/>
     <use xlink:href="#m4d98fcfa31" x="82.79227" y="345.692704" style="fill: #1f78b4; stroke: #1f78b4"/>
     <use xlink:href="#m4d98fcfa31" x="69.989246" y="358.125552" style="fill: #1f78b4; stroke: #1f78b4"/>
     <use xlink:href="#m4d98fcfa31" x="76.298708" y="362.191334" style="fill: #1f78b4; stroke: #1f78b4"/>
     <use xlink:href="#m4d98fcfa31" x="85.410531" y="349.935071" style="fill: #1f78b4; stroke: #1f78b4"/>
     <use xlink:href="#m4d98fcfa31" x="79.185015" y="357.327204" style="fill: #1f78b4; stroke: #1f78b4"/>
     <use xlink:href="#m4d98fcfa31" x="84.986101" y="346.90639" style="fill: #1f78b4; stroke: #1f78b4"/>
     <use xlink:href="#m4d98fcfa31" x="77.441683" y="360.814402" style="fill: #1f78b4; stroke: #1f78b4"/>
     <use xlink:href="#m4d98fcfa31" x="84.056491" y="350.217879" style="fill: #1f78b4; stroke: #1f78b4"/>
     <use xlink:href="#m4d98fcfa31" x="81.301965" y="345.027624" style="fill: #1f78b4; stroke: #1f78b4"/>
     <use xlink:href="#m4d98fcfa31" x="78.365127" y="342.527111" style="fill: #1f78b4; stroke: #1f78b4"/>
     <use xlink:href="#m4d98fcfa31" x="79.558272" y="344.022522" style="fill: #1f78b4; stroke: #1f78b4"/>
     <use xlink:href="#m4d98fcfa31" x="84.806668" y="343.710509" style="fill: #1f78b4; stroke: #1f78b4"/>
     <use xlink:href="#m4d98fcfa31" x="79.690421" y="346.151461" style="fill: #1f78b4; stroke: #1f78b4"/>
     <use xlink:href="#m4d98fcfa31" x="80.751773" y="353.233544" style="fill: #1f78b4; stroke: #1f78b4"/>
     <use xlink:href="#m4d98fcfa31" x="83.524482" y="344.99412" style="fill: #1f78b4; stroke: #1f78b4"/>
     <use xlink:href="#m4d98fcfa31" x="81.008934" y="351.783944" style="fill: #1f78b4; stroke: #1f78b4"/>
     <use xlink:href="#m4d98fcfa31" x="79.400563" y="348.232234" style="fill: #1f78b4; stroke: #1f78b4"/>
     <use xlink:href="#m4d98fcfa31" x="82.035176" y="347.862191" style="fill: #1f78b4; stroke: #1f78b4"/>
     <use xlink:href="#m4d98fcfa31" x="81.644621" y="348.950055" style="fill: #1f78b4; stroke: #1f78b4"/>
    </g>
   </g>
   <g id="patch_37">
    <path d="M 54 378 
L 54 51.84 
" style="fill: none; stroke: #000000; stroke-width: 0.8; stroke-linejoin: miter; stroke-linecap: square"/>
   </g>
   <g id="patch_38">
    <path d="M 388.8 378 
L 388.8 51.84 
" style="fill: none; stroke: #000000; stroke-width: 0.8; stroke-linejoin: miter; stroke-linecap: square"/>
   </g>
   <g id="patch_39">
    <path d="M 54 378 
L 388.8 378 
" style="fill: none; stroke: #000000; stroke-width: 0.8; stroke-linejoin: miter; stroke-linecap: square"/>
   </g>
   <g id="patch_40">
    <path d="M 54 51.84 
L 388.8 51.84 
" style="fill: none; stroke: #000000; stroke-width: 0.8; stroke-linejoin: miter; stroke-linecap: square"/>
   </g>
   <g id="text_3">
    <g clip-path="url(#p1e28702a3a)">
     <!-- 0 -->
     <g transform="translate(72.192356 359.428675)scale(0.12 -0.12)">
      <defs>
       <path id="DejaVuSans-30" d="M 2034 4250 
Q 1547 4250 1301 3770 
Q 1056 3291 1056 2328 
Q 1056 1369 1301 889 
Q 1547 409 2034 409 
Q 2525 409 2770 889 
Q 3016 1369 3016 2328 
Q 3016 3291 2770 3770 
Q 2525 4250 2034 4250 
z
M 2034 4750 
Q 2819 4750 3233 4129 
Q 3647 3509 3647 2328 
Q 3647 1150 3233 529 
Q 2819 -91 2034 -91 
Q 1250 -91 836 529 
Q 422 1150 422 2328 
Q 422 3509 836 4129 
Q 1250 4750 2034 4750 
z
" transform="scale(0.015625)"/>
      </defs>
      <use xlink:href="#DejaVuSans-30"/>
     </g>
    </g>
   </g>
   <g id="text_4">
    <g clip-path="url(#p1e28702a3a)">
     <!-- 1 -->
     <g transform="translate(73.926244 358.880004)scale(0.12 -0.12)">
      <defs>
       <path id="DejaVuSans-31" d="M 794 531 
L 1825 531 
L 1825 4091 
L 703 3866 
L 703 4441 
L 1819 4666 
L 2450 4666 
L 2450 531 
L 3481 531 
L 3481 0 
L 794 0 
L 794 531 
z
" transform="scale(0.015625)"/>
      </defs>
      <use xlink:href="#DejaVuSans-31"/>
     </g>
    </g>
   </g>
   <g id="text_5">
    <g clip-path="url(#p1e28702a3a)">
     <!-- 2 -->
     <g transform="translate(74.712384 356.233767)scale(0.12 -0.12)">
      <defs>
       <path id="DejaVuSans-32" d="M 1228 531 
L 3431 531 
L 3431 0 
L 469 0 
L 469 531 
Q 828 903 1448 1529 
Q 2069 2156 2228 2338 
Q 2531 2678 2651 2914 
Q 2772 3150 2772 3378 
Q 2772 3750 2511 3984 
Q 2250 4219 1831 4219 
Q 1534 4219 1204 4116 
Q 875 4013 500 3803 
L 500 4441 
Q 881 4594 1212 4672 
Q 1544 4750 1819 4750 
Q 2544 4750 2975 4387 
Q 3406 4025 3406 3419 
Q 3406 3131 3298 2873 
Q 3191 2616 2906 2266 
Q 2828 2175 2409 1742 
Q 1991 1309 1228 531 
z
" transform="scale(0.015625)"/>
      </defs>
      <use xlink:href="#DejaVuSans-32"/>
     </g>
    </g>
   </g>
   <g id="text_6">
    <g clip-path="url(#p1e28702a3a)">
     <!-- 3 -->
     <g transform="translate(72.118079 356.2403)scale(0.12 -0.12)">
      <defs>
       <path id="DejaVuSans-33" d="M 2597 2516 
Q 3050 2419 3304 2112 
Q 3559 1806 3559 1356 
Q 3559 666 3084 287 
Q 2609 -91 1734 -91 
Q 1441 -91 1130 -33 
Q 819 25 488 141 
L 488 750 
Q 750 597 1062 519 
Q 1375 441 1716 441 
Q 2309 441 2620 675 
Q 2931 909 2931 1356 
Q 2931 1769 2642 2001 
Q 2353 2234 1838 2234 
L 1294 2234 
L 1294 2753 
L 1863 2753 
Q 2328 2753 2575 2939 
Q 2822 3125 2822 3475 
Q 2822 3834 2567 4026 
Q 2313 4219 1838 4219 
Q 1578 4219 1281 4162 
Q 984 4106 628 3988 
L 628 4550 
Q 988 4650 1302 4700 
Q 1616 4750 1894 4750 
Q 2613 4750 3031 4423 
Q 3450 4097 3450 3541 
Q 3450 3153 3228 2886 
Q 3006 2619 2597 2516 
z
" transform="scale(0.015625)"/>
      </defs>
      <use xlink:href="#DejaVuSans-33"/>
     </g>
    </g>
   </g>
   <g id="text_7">
    <g clip-path="url(#p1e28702a3a)">
     <!-- 4 -->
     <g transform="translate(69.748925 361.852004)scale(0.12 -0.12)">
      <defs>
       <path id="DejaVuSans-34" d="M 2419 4116 
L 825 1625 
L 2419 1625 
L 2419 4116 
z
M 2253 4666 
L 3047 4666 
L 3047 1625 
L 3713 1625 
L 3713 1100 
L 3047 1100 
L 3047 0 
L 2419 0 
L 2419 1100 
L 313 1100 
L 313 1709 
L 2253 4666 
z
" transform="scale(0.015625)"/>
      </defs>
      <use xlink:href="#DejaVuSans-34"/>
     </g>
    </g>
   </g>
   <g id="text_8">
    <g clip-path="url(#p1e28702a3a)">
     <!-- 5 -->
     <g transform="translate(68.454744 361.548645)scale(0.12 -0.12)">
      <defs>
       <path id="DejaVuSans-35" d="M 691 4666 
L 3169 4666 
L 3169 4134 
L 1269 4134 
L 1269 2991 
Q 1406 3038 1543 3061 
Q 1681 3084 1819 3084 
Q 2600 3084 3056 2656 
Q 3513 2228 3513 1497 
Q 3513 744 3044 326 
Q 2575 -91 1722 -91 
Q 1428 -91 1123 -41 
Q 819 9 494 109 
L 494 744 
Q 775 591 1075 516 
Q 1375 441 1709 441 
Q 2250 441 2565 725 
Q 2881 1009 2881 1497 
Q 2881 1984 2565 2268 
Q 2250 2553 1709 2553 
Q 1456 2553 1204 2497 
Q 953 2441 691 2322 
L 691 4666 
z
" transform="scale(0.015625)"/>
      </defs>
      <use xlink:href="#DejaVuSans-35"/>
     </g>
    </g>
   </g>
   <g id="text_9">
    <g clip-path="url(#p1e28702a3a)">
     <!-- 6 -->
     <g transform="translate(68.487578 359.877829)scale(0.12 -0.12)">
      <defs>
       <path id="DejaVuSans-36" d="M 2113 2584 
Q 1688 2584 1439 2293 
Q 1191 2003 1191 1497 
Q 1191 994 1439 701 
Q 1688 409 2113 409 
Q 2538 409 2786 701 
Q 3034 994 3034 1497 
Q 3034 2003 2786 2293 
Q 2538 2584 2113 2584 
z
M 3366 4563 
L 3366 3988 
Q 3128 4100 2886 4159 
Q 2644 4219 2406 4219 
Q 1781 4219 1451 3797 
Q 1122 3375 1075 2522 
Q 1259 2794 1537 2939 
Q 1816 3084 2150 3084 
Q 2853 3084 3261 2657 
Q 3669 2231 3669 1497 
Q 3669 778 3244 343 
Q 2819 -91 2113 -91 
Q 1303 -91 875 529 
Q 447 1150 447 2328 
Q 447 3434 972 4092 
Q 1497 4750 2381 4750 
Q 2619 4750 2861 4703 
Q 3103 4656 3366 4563 
z
" transform="scale(0.015625)"/>
      </defs>
      <use xlink:href="#DejaVuSans-36"/>
     </g>
    </g>
   </g>
   <g id="text_10">
    <g clip-path="url(#p1e28702a3a)">
     <!-- 7 -->
     <g transform="translate(72.900354 357.734191)scale(0.12 -0.12)">
      <defs>
       <path id="DejaVuSans-37" d="M 525 4666 
L 3525 4666 
L 3525 4397 
L 1831 0 
L 1172 0 
L 2766 4134 
L 525 4134 
L 525 4666 
z
" transform="scale(0.015625)"/>
      </defs>
      <use xlink:href="#DejaVuSans-37"/>
     </g>
    </g>
   </g>
   <g id="text_11">
    <g clip-path="url(#p1e28702a3a)">
     <!-- 8 -->
     <g transform="translate(75.913856 354.744308)scale(0.12 -0.12)">
      <defs>
       <path id="DejaVuSans-38" d="M 2034 2216 
Q 1584 2216 1326 1975 
Q 1069 1734 1069 1313 
Q 1069 891 1326 650 
Q 1584 409 2034 409 
Q 2484 409 2743 651 
Q 3003 894 3003 1313 
Q 3003 1734 2745 1975 
Q 2488 2216 2034 2216 
z
M 1403 2484 
Q 997 2584 770 2862 
Q 544 3141 544 3541 
Q 544 4100 942 4425 
Q 1341 4750 2034 4750 
Q 2731 4750 3128 4425 
Q 3525 4100 3525 3541 
Q 3525 3141 3298 2862 
Q 3072 2584 2669 2484 
Q 3125 2378 3379 2068 
Q 3634 1759 3634 1313 
Q 3634 634 3220 271 
Q 2806 -91 2034 -91 
Q 1263 -91 848 271 
Q 434 634 434 1313 
Q 434 1759 690 2068 
Q 947 2378 1403 2484 
z
M 1172 3481 
Q 1172 3119 1398 2916 
Q 1625 2713 2034 2713 
Q 2441 2713 2670 2916 
Q 2900 3119 2900 3481 
Q 2900 3844 2670 4047 
Q 2441 4250 2034 4250 
Q 1625 4250 1398 4047 
Q 1172 3844 1172 3481 
z
" transform="scale(0.015625)"/>
      </defs>
      <use xlink:href="#DejaVuSans-38"/>
     </g>
    </g>
   </g>
   <g id="text_12">
    <g clip-path="url(#p1e28702a3a)">
     <!-- 9 -->
     <g transform="translate(79.026186 358.095521)scale(0.12 -0.12)">
      <defs>
       <path id="DejaVuSans-39" d="M 703 97 
L 703 672 
Q 941 559 1184 500 
Q 1428 441 1663 441 
Q 2288 441 2617 861 
Q 2947 1281 2994 2138 
Q 2813 1869 2534 1725 
Q 2256 1581 1919 1581 
Q 1219 1581 811 2004 
Q 403 2428 403 3163 
Q 403 3881 828 4315 
Q 1253 4750 1959 4750 
Q 2769 4750 3195 4129 
Q 3622 3509 3622 2328 
Q 3622 1225 3098 567 
Q 2575 -91 1691 -91 
Q 1453 -91 1209 -44 
Q 966 3 703 97 
z
M 1959 2075 
Q 2384 2075 2632 2365 
Q 2881 2656 2881 3163 
Q 2881 3666 2632 3958 
Q 2384 4250 1959 4250 
Q 1534 4250 1286 3958 
Q 1038 3666 1038 3163 
Q 1038 2656 1286 2365 
Q 1534 2075 1959 2075 
z
" transform="scale(0.015625)"/>
      </defs>
      <use xlink:href="#DejaVuSans-39"/>
     </g>
    </g>
   </g>
   <g id="text_13">
    <g clip-path="url(#p1e28702a3a)">
     <!-- 10 -->
     <g transform="translate(65.286356 363.911754)scale(0.12 -0.12)">
      <use xlink:href="#DejaVuSans-31"/>
      <use xlink:href="#DejaVuSans-30" x="63.623047"/>
     </g>
    </g>
   </g>
   <g id="text_14">
    <g clip-path="url(#p1e28702a3a)">
     <!-- 11 -->
     <g transform="translate(67.09811 365.249981)scale(0.12 -0.12)">
      <use xlink:href="#DejaVuSans-31"/>
      <use xlink:href="#DejaVuSans-31" x="63.623047"/>
     </g>
    </g>
   </g>
   <g id="text_15">
    <g clip-path="url(#p1e28702a3a)">
     <!-- 12 -->
     <g transform="translate(65.88621 354.668734)scale(0.12 -0.12)">
      <use xlink:href="#DejaVuSans-31"/>
      <use xlink:href="#DejaVuSans-32" x="63.623047"/>
     </g>
    </g>
   </g>
   <g id="text_16">
    <g clip-path="url(#p1e28702a3a)">
     <!-- 13 -->
     <g transform="translate(70.298539 355.614387)scale(0.12 -0.12)">
      <use xlink:href="#DejaVuSans-31"/>
      <use xlink:href="#DejaVuSans-33" x="63.623047"/>
     </g>
    </g>
   </g>
   <g id="text_17">
    <g clip-path="url(#p1e28702a3a)">
     <!-- 14 -->
     <g transform="translate(75.048823 346.274956)scale(0.12 -0.12)">
      <use xlink:href="#DejaVuSans-31"/>
      <use xlink:href="#DejaVuSans-34" x="63.623047"/>
     </g>
    </g>
   </g>
   <g id="text_18">
    <g clip-path="url(#p1e28702a3a)">
     <!-- 15 -->
     <g transform="translate(75.15727 349.003954)scale(0.12 -0.12)">
      <use xlink:href="#DejaVuSans-31"/>
      <use xlink:href="#DejaVuSans-35" x="63.623047"/>
     </g>
    </g>
   </g>
   <g id="text_19">
    <g clip-path="url(#p1e28702a3a)">
     <!-- 16 -->
     <g transform="translate(62.354246 361.436802)scale(0.12 -0.12)">
      <use xlink:href="#DejaVuSans-31"/>
      <use xlink:href="#DejaVuSans-36" x="63.623047"/>
     </g>
    </g>
   </g>
   <g id="text_20">
    <g clip-path="url(#p1e28702a3a)">
     <!-- 17 -->
     <g transform="translate(68.663708 365.502584)scale(0.12 -0.12)">
      <use xlink:href="#DejaVuSans-31"/>
      <use xlink:href="#DejaVuSans-37" x="63.623047"/>
     </g>
    </g>
   </g>
   <g id="text_21">
    <g clip-path="url(#p1e28702a3a)">
     <!-- 18 -->
     <g transform="translate(77.775531 353.246321)scale(0.12 -0.12)">
      <use xlink:href="#DejaVuSans-31"/>
      <use xlink:href="#DejaVuSans-38" x="63.623047"/>
     </g>
    </g>
   </g>
   <g id="text_22">
    <g clip-path="url(#p1e28702a3a)">
     <!-- 19 -->
     <g transform="translate(71.550015 360.638454)scale(0.12 -0.12)">
      <use xlink:href="#DejaVuSans-31"/>
      <use xlink:href="#DejaVuSans-39" x="63.623047"/>
     </g>
    </g>
   </g>
   <g id="text_23">
    <g clip-path="url(#p1e28702a3a)">
     <!-- 20 -->
     <g transform="translate(77.351101 350.21764)scale(0.12 -0.12)">
      <use xlink:href="#DejaVuSans-32"/>
      <use xlink:href="#DejaVuSans-30" x="63.623047"/>
     </g>
    </g>
   </g>
   <g id="text_24">
    <g clip-path="url(#p1e28702a3a)">
     <!-- 21 -->
     <g transform="translate(69.806683 364.125652)scale(0.12 -0.12)">
      <use xlink:href="#DejaVuSans-32"/>
      <use xlink:href="#DejaVuSans-31" x="63.623047"/>
     </g>
    </g>
   </g>
   <g id="text_25">
    <g clip-path="url(#p1e28702a3a)">
     <!-- 22 -->
     <g transform="translate(76.421491 353.529129)scale(0.12 -0.12)">
      <use xlink:href="#DejaVuSans-32"/>
      <use xlink:href="#DejaVuSans-32" x="63.623047"/>
     </g>
    </g>
   </g>
   <g id="text_26">
    <g clip-path="url(#p1e28702a3a)">
     <!-- 23 -->
     <g transform="translate(73.666965 348.338874)scale(0.12 -0.12)">
      <use xlink:href="#DejaVuSans-32"/>
      <use xlink:href="#DejaVuSans-33" x="63.623047"/>
     </g>
    </g>
   </g>
   <g id="text_27">
    <g clip-path="url(#p1e28702a3a)">
     <!-- 24 -->
     <g transform="translate(70.730127 345.838361)scale(0.12 -0.12)">
      <use xlink:href="#DejaVuSans-32"/>
      <use xlink:href="#DejaVuSans-34" x="63.623047"/>
     </g>
    </g>
   </g>
   <g id="text_28">
    <g clip-path="url(#p1e28702a3a)">
     <!-- 25 -->
     <g transform="translate(71.923272 347.333772)scale(0.12 -0.12)">
      <use xlink:href="#DejaVuSans-32"/>
      <use xlink:href="#DejaVuSans-35" x="63.623047"/>
     </g>
    </g>
   </g>
   <g id="text_29">
    <g clip-path="url(#p1e28702a3a)">
     <!-- 26 -->
     <g transform="translate(77.171668 347.021759)scale(0.12 -0.12)">
      <use xlink:href="#DejaVuSans-32"/>
      <use xlink:href="#DejaVuSans-36" x="63.623047"/>
     </g>
    </g>
   </g>
   <g id="text_30">
    <g clip-path="url(#p1e28702a3a)">
     <!-- 27 -->
     <g transform="translate(72.055421 349.462711)scale(0.12 -0.12)">
      <use xlink:href="#DejaVuSans-32"/>
      <use xlink:href="#DejaVuSans-37" x="63.623047"/>
     </g>
    </g>
   </g>
   <g id="text_31">
    <g clip-path="url(#p1e28702a3a)">
     <!-- 28 -->
     <g transform="translate(73.116773 356.544794)scale(0.12 -0.12)">
      <use xlink:href="#DejaVuSans-32"/>
      <use xlink:href="#DejaVuSans-38" x="63.623047"/>
     </g>
    </g>
   </g>
   <g id="text_32">
    <g clip-path="url(#p1e28702a3a)">
     <!-- 29 -->
     <g transform="translate(75.889482 348.30537)scale(0.12 -0.12)">
      <use xlink:href="#DejaVuSans-32"/>
      <use xlink:href="#DejaVuSans-39" x="63.623047"/>
     </g>
    </g>
   </g>
   <g id="text_33">
    <g clip-path="url(#p1e28702a3a)">
     <!-- 30 -->
     <g transform="translate(73.373934 355.095194)scale(0.12 -0.12)">
      <use xlink:href="#DejaVuSans-33"/>
      <use xlink:href="#DejaVuSans-30" x="63.623047"/>
     </g>
    </g>
   </g>
   <g id="text_34">
    <g clip-path="url(#p1e28702a3a)">
     <!-- 31 -->
     <g transform="translate(71.765563 351.543484)scale(0.12 -0.12)">
      <use xlink:href="#DejaVuSans-33"/>
      <use xlink:href="#DejaVuSans-31" x="63.623047"/>
     </g>
    </g>
   </g>
   <g id="text_35">
    <g clip-path="url(#p1e28702a3a)">
     <!-- 32 -->
     <g transform="translate(74.400176 351.173441)scale(0.12 -0.12)">
      <use xlink:href="#DejaVuSans-33"/>
      <use xlink:href="#DejaVuSans-32" x="63.623047"/>
     </g>
    </g>
   </g>
   <g id="text_36">
    <g clip-path="url(#p1e28702a3a)">
     <!-- 33 -->
     <g transform="translate(74.009621 352.261305)scale(0.12 -0.12)">
      <use xlink:href="#DejaVuSans-33"/>
      <use xlink:href="#DejaVuSans-33" x="63.623047"/>
     </g>
    </g>
   </g>
  </g>
 </g>
 <defs>
  <clipPath id="p1e28702a3a">
   <rect x="54" y="51.84" width="334.8" height="326.16"/>
  </clipPath>
 </defs>
</svg>
