<?xml version="1.0" encoding="utf-8" standalone="no"?>
<!DOCTYPE svg PUBLIC "-//W3C//DTD SVG 1.1//EN"
  "http://www.w3.org/Graphics/SVG/1.1/DTD/svg11.dtd">
<svg xmlns:xlink="http://www.w3.org/1999/xlink" width="360pt" height="360pt" viewBox="0 0 360 360" xmlns="http://www.w3.org/2000/svg" version="1.1">
 <metadata>
  <rdf:RDF xmlns:dc="http://purl.org/dc/elements/1.1/" xmlns:cc="http://creativecommons.org/ns#" xmlns:rdf="http://www.w3.org/1999/02/22-rdf-syntax-ns#">
   <cc:Work>
    <dc:type rdf:resource="http://purl.org/dc/dcmitype/StillImage"/>
    <dc:date>2024-06-24T17:54:36.114853</dc:date>
    <dc:format>image/svg+xml</dc:format>
    <dc:creator>
     <cc:Agent>
      <dc:title>Matplotlib v3.5.2, https://matplotlib.org/</dc:title>
     </cc:Agent>
    </dc:creator>
   </cc:Work>
  </rdf:RDF>
 </metadata>
 <defs>
  <style type="text/css">*{stroke-linejoin: round; stroke-linecap: butt}</style>
 </defs>
 <g id="figure_1">
  <g id="patch_1">
   <path d="M 0 360 
L 360 360 
L 360 0 
L 0 0 
z
" style="fill: #ffffff"/>
  </g>
  <g id="axes_1">
   <g id="patch_2">
    <path d="M 320.4 179.1 
C 320.4 161.253776 316.884683 143.581083 310.055228 127.093322 
C 303.225774 110.60556 293.214998 95.623375 280.595812 83.004188 
C 267.976625 70.385002 252.99444 60.374226 236.506678 53.544772 
C 220.018917 46.715317 202.346224 43.2 184.5 43.2 
C 166.653776 43.2 148.981083 46.715317 132.493322 53.544772 
C 116.00556 60.374226 101.023375 70.385002 88.404188 83.004188 
C 75.785002 95.623375 65.774226 110.60556 58.944772 127.093322 
C 52.115317 143.581083 48.6 161.253776 48.6 179.1 
C 48.6 196.946224 52.115317 214.618917 58.944772 231.106678 
C 65.774226 247.59444 75.785002 262.576625 88.404188 275.195812 
C 101.023375 287.814998 116.00556 297.825774 132.493322 304.655228 
C 148.981083 311.484683 166.653776 315 184.5 315 
C 202.346224 315 220.018917 311.484683 236.506678 304.655228 
C 252.99444 297.825774 267.976625 287.814998 280.595812 275.195812 
C 293.214998 262.576625 303.225774 247.59444 310.055228 231.106678 
C 316.884683 214.618917 320.4 196.946224 320.4 179.1 
M 184.5 179.1 
C 184.5 179.1 184.5 179.1 184.5 179.1 
C 184.5 179.1 184.5 179.1 184.5 179.1 
C 184.5 179.1 184.5 179.1 184.5 179.1 
C 184.5 179.1 184.5 179.1 184.5 179.1 
C 184.5 179.1 184.5 179.1 184.5 179.1 
C 184.5 179.1 184.5 179.1 184.5 179.1 
C 184.5 179.1 184.5 179.1 184.5 179.1 
C 184.5 179.1 184.5 179.1 184.5 179.1 
C 184.5 179.1 184.5 179.1 184.5 179.1 
C 184.5 179.1 184.5 179.1 184.5 179.1 
C 184.5 179.1 184.5 179.1 184.5 179.1 
C 184.5 179.1 184.5 179.1 184.5 179.1 
C 184.5 179.1 184.5 179.1 184.5 179.1 
C 184.5 179.1 184.5 179.1 184.5 179.1 
C 184.5 179.1 184.5 179.1 184.5 179.1 
C 184.5 179.1 184.5 179.1 184.5 179.1 
M 320.4 179.1 
z
" style="fill: #ffffff"/>
   </g>
   <g id="matplotlib.axis_1">
    <g id="xtick_1">
     <g id="line2d_1">
      <path d="M 184.5 179.1 
L 320.4 179.1 
" clip-path="url(#pa7ec6404a8)" style="fill: none; stroke: #b0b0b0; stroke-width: 0.8; stroke-linecap: square"/>
     </g>
     <g id="text_1">
      <!-- 0° -->
      <g transform="translate(329.900781 181.502344)scale(0.1 -0.1)">
       <defs>
        <path id="TimesNewRomanPSMT-30" d="M 231 2094 
Q 231 2819 450 3342 
Q 669 3866 1031 4122 
Q 1313 4325 1613 4325 
Q 2100 4325 2488 3828 
Q 2972 3213 2972 2159 
Q 2972 1422 2759 906 
Q 2547 391 2217 158 
Q 1888 -75 1581 -75 
Q 975 -75 572 641 
Q 231 1244 231 2094 
z
M 844 2016 
Q 844 1141 1059 588 
Q 1238 122 1591 122 
Q 1759 122 1940 273 
Q 2122 425 2216 781 
Q 2359 1319 2359 2297 
Q 2359 3022 2209 3506 
Q 2097 3866 1919 4016 
Q 1791 4119 1609 4119 
Q 1397 4119 1231 3928 
Q 1006 3669 925 3112 
Q 844 2556 844 2016 
z
" transform="scale(0.015625)"/>
        <path id="TimesNewRomanPSMT-b0" d="M 1266 4331 
Q 1669 4331 1948 4050 
Q 2228 3769 2228 3369 
Q 2228 2972 1947 2690 
Q 1666 2409 1266 2409 
Q 869 2409 587 2690 
Q 306 2972 306 3369 
Q 306 3769 586 4050 
Q 866 4331 1266 4331 
z
M 1266 4069 
Q 975 4069 772 3866 
Q 569 3663 569 3372 
Q 569 3084 772 2879 
Q 975 2675 1266 2675 
Q 1553 2675 1758 2879 
Q 1963 3084 1963 3372 
Q 1963 3663 1759 3866 
Q 1556 4069 1266 4069 
z
" transform="scale(0.015625)"/>
       </defs>
       <use xlink:href="#TimesNewRomanPSMT-30"/>
       <use xlink:href="#TimesNewRomanPSMT-b0" x="50"/>
      </g>
     </g>
    </g>
    <g id="xtick_2">
     <g id="line2d_2">
      <path d="M 184.5 179.1 
L 280.595812 83.004188 
" clip-path="url(#pa7ec6404a8)" style="fill: none; stroke: #b0b0b0; stroke-width: 0.8; stroke-linecap: square"/>
     </g>
     <g id="text_2">
      <!-- 45° -->
      <g transform="translate(283.496088 75.507037)scale(0.1 -0.1)">
       <defs>
        <path id="TimesNewRomanPSMT-34" d="M 2978 1563 
L 2978 1119 
L 2409 1119 
L 2409 0 
L 1894 0 
L 1894 1119 
L 100 1119 
L 100 1519 
L 2066 4325 
L 2409 4325 
L 2409 1563 
L 2978 1563 
z
M 1894 1563 
L 1894 3666 
L 406 1563 
L 1894 1563 
z
" transform="scale(0.015625)"/>
        <path id="TimesNewRomanPSMT-35" d="M 2778 4238 
L 2534 3706 
L 1259 3706 
L 981 3138 
Q 1809 3016 2294 2522 
Q 2709 2097 2709 1522 
Q 2709 1188 2573 903 
Q 2438 619 2231 419 
Q 2025 219 1772 97 
Q 1413 -75 1034 -75 
Q 653 -75 479 54 
Q 306 184 306 341 
Q 306 428 378 495 
Q 450 563 559 563 
Q 641 563 702 538 
Q 763 513 909 409 
Q 1144 247 1384 247 
Q 1750 247 2026 523 
Q 2303 800 2303 1197 
Q 2303 1581 2056 1914 
Q 1809 2247 1375 2428 
Q 1034 2569 447 2591 
L 1259 4238 
L 2778 4238 
z
" transform="scale(0.015625)"/>
       </defs>
       <use xlink:href="#TimesNewRomanPSMT-34"/>
       <use xlink:href="#TimesNewRomanPSMT-35" x="50"/>
       <use xlink:href="#TimesNewRomanPSMT-b0" x="100"/>
      </g>
     </g>
    </g>
    <g id="xtick_3">
     <g id="line2d_3">
      <path d="M 184.5 179.1 
L 184.5 43.2 
" clip-path="url(#pa7ec6404a8)" style="fill: none; stroke: #b0b0b0; stroke-width: 0.8; stroke-linecap: square"/>
     </g>
     <g id="text_3">
      <!-- 90° -->
      <g transform="translate(177.500781 31.602344)scale(0.1 -0.1)">
       <defs>
        <path id="TimesNewRomanPSMT-39" d="M 338 -88 
L 338 28 
Q 744 34 1094 217 
Q 1444 400 1770 856 
Q 2097 1313 2225 1859 
Q 1734 1544 1338 1544 
Q 891 1544 572 1889 
Q 253 2234 253 2806 
Q 253 3363 572 3797 
Q 956 4325 1575 4325 
Q 2097 4325 2469 3894 
Q 2925 3359 2925 2575 
Q 2925 1869 2578 1258 
Q 2231 647 1613 244 
Q 1109 -88 516 -88 
L 338 -88 
z
M 2275 2091 
Q 2331 2497 2331 2741 
Q 2331 3044 2228 3395 
Q 2125 3747 1936 3934 
Q 1747 4122 1506 4122 
Q 1228 4122 1018 3872 
Q 809 3622 809 3128 
Q 809 2469 1088 2097 
Q 1291 1828 1588 1828 
Q 1731 1828 1928 1897 
Q 2125 1966 2275 2091 
z
" transform="scale(0.015625)"/>
       </defs>
       <use xlink:href="#TimesNewRomanPSMT-39"/>
       <use xlink:href="#TimesNewRomanPSMT-30" x="50"/>
       <use xlink:href="#TimesNewRomanPSMT-b0" x="100"/>
      </g>
     </g>
    </g>
    <g id="xtick_4">
     <g id="line2d_4">
      <path d="M 184.5 179.1 
L 88.404188 83.004188 
" clip-path="url(#pa7ec6404a8)" style="fill: none; stroke: #b0b0b0; stroke-width: 0.8; stroke-linecap: square"/>
     </g>
     <g id="text_4">
      <!-- 135° -->
      <g transform="translate(69.005475 75.507037)scale(0.1 -0.1)">
       <defs>
        <path id="TimesNewRomanPSMT-31" d="M 750 3822 
L 1781 4325 
L 1884 4325 
L 1884 747 
Q 1884 391 1914 303 
Q 1944 216 2037 169 
Q 2131 122 2419 116 
L 2419 0 
L 825 0 
L 825 116 
Q 1125 122 1212 167 
Q 1300 213 1334 289 
Q 1369 366 1369 747 
L 1369 3034 
Q 1369 3497 1338 3628 
Q 1316 3728 1258 3775 
Q 1200 3822 1119 3822 
Q 1003 3822 797 3725 
L 750 3822 
z
" transform="scale(0.015625)"/>
        <path id="TimesNewRomanPSMT-33" d="M 325 3431 
Q 506 3859 782 4092 
Q 1059 4325 1472 4325 
Q 1981 4325 2253 3994 
Q 2459 3747 2459 3466 
Q 2459 3003 1878 2509 
Q 2269 2356 2469 2072 
Q 2669 1788 2669 1403 
Q 2669 853 2319 450 
Q 1863 -75 997 -75 
Q 569 -75 414 31 
Q 259 138 259 259 
Q 259 350 332 419 
Q 406 488 509 488 
Q 588 488 669 463 
Q 722 447 909 348 
Q 1097 250 1169 231 
Q 1284 197 1416 197 
Q 1734 197 1970 444 
Q 2206 691 2206 1028 
Q 2206 1275 2097 1509 
Q 2016 1684 1919 1775 
Q 1784 1900 1550 2001 
Q 1316 2103 1072 2103 
L 972 2103 
L 972 2197 
Q 1219 2228 1467 2375 
Q 1716 2522 1828 2728 
Q 1941 2934 1941 3181 
Q 1941 3503 1739 3701 
Q 1538 3900 1238 3900 
Q 753 3900 428 3381 
L 325 3431 
z
" transform="scale(0.015625)"/>
       </defs>
       <use xlink:href="#TimesNewRomanPSMT-31"/>
       <use xlink:href="#TimesNewRomanPSMT-33" x="50"/>
       <use xlink:href="#TimesNewRomanPSMT-35" x="100"/>
       <use xlink:href="#TimesNewRomanPSMT-b0" x="150"/>
      </g>
     </g>
    </g>
    <g id="xtick_5">
     <g id="line2d_5">
      <path d="M 184.5 179.1 
L 48.6 179.1 
" clip-path="url(#pa7ec6404a8)" style="fill: none; stroke: #b0b0b0; stroke-width: 0.8; stroke-linecap: square"/>
     </g>
     <g id="text_5">
      <!-- 180° -->
      <g transform="translate(25.100781 181.502344)scale(0.1 -0.1)">
       <defs>
        <path id="TimesNewRomanPSMT-38" d="M 1228 2134 
Q 725 2547 579 2797 
Q 434 3047 434 3316 
Q 434 3728 753 4026 
Q 1072 4325 1600 4325 
Q 2113 4325 2425 4047 
Q 2738 3769 2738 3413 
Q 2738 3175 2569 2928 
Q 2400 2681 1866 2347 
Q 2416 1922 2594 1678 
Q 2831 1359 2831 1006 
Q 2831 559 2490 242 
Q 2150 -75 1597 -75 
Q 994 -75 656 303 
Q 388 606 388 966 
Q 388 1247 577 1523 
Q 766 1800 1228 2134 
z
M 1719 2469 
Q 2094 2806 2194 3001 
Q 2294 3197 2294 3444 
Q 2294 3772 2109 3958 
Q 1925 4144 1606 4144 
Q 1288 4144 1088 3959 
Q 888 3775 888 3528 
Q 888 3366 970 3203 
Q 1053 3041 1206 2894 
L 1719 2469 
z
M 1375 2016 
Q 1116 1797 991 1539 
Q 866 1281 866 981 
Q 866 578 1086 336 
Q 1306 94 1647 94 
Q 1984 94 2187 284 
Q 2391 475 2391 747 
Q 2391 972 2272 1150 
Q 2050 1481 1375 2016 
z
" transform="scale(0.015625)"/>
       </defs>
       <use xlink:href="#TimesNewRomanPSMT-31"/>
       <use xlink:href="#TimesNewRomanPSMT-38" x="50"/>
       <use xlink:href="#TimesNewRomanPSMT-30" x="100"/>
       <use xlink:href="#TimesNewRomanPSMT-b0" x="150"/>
      </g>
     </g>
    </g>
    <g id="xtick_6">
     <g id="line2d_6">
      <path d="M 184.5 179.1 
L 88.404188 275.195812 
" clip-path="url(#pa7ec6404a8)" style="fill: none; stroke: #b0b0b0; stroke-width: 0.8; stroke-linecap: square"/>
     </g>
     <g id="text_6">
      <!-- 225° -->
      <g transform="translate(69.005475 287.49765)scale(0.1 -0.1)">
       <defs>
        <path id="TimesNewRomanPSMT-32" d="M 2934 816 
L 2638 0 
L 138 0 
L 138 116 
Q 1241 1122 1691 1759 
Q 2141 2397 2141 2925 
Q 2141 3328 1894 3587 
Q 1647 3847 1303 3847 
Q 991 3847 742 3664 
Q 494 3481 375 3128 
L 259 3128 
Q 338 3706 661 4015 
Q 984 4325 1469 4325 
Q 1984 4325 2329 3994 
Q 2675 3663 2675 3213 
Q 2675 2891 2525 2569 
Q 2294 2063 1775 1497 
Q 997 647 803 472 
L 1909 472 
Q 2247 472 2383 497 
Q 2519 522 2628 598 
Q 2738 675 2819 816 
L 2934 816 
z
" transform="scale(0.015625)"/>
       </defs>
       <use xlink:href="#TimesNewRomanPSMT-32"/>
       <use xlink:href="#TimesNewRomanPSMT-32" x="50"/>
       <use xlink:href="#TimesNewRomanPSMT-35" x="100"/>
       <use xlink:href="#TimesNewRomanPSMT-b0" x="150"/>
      </g>
     </g>
    </g>
    <g id="xtick_7">
     <g id="line2d_7">
      <path d="M 184.5 179.1 
L 184.5 315 
" clip-path="url(#pa7ec6404a8)" style="fill: none; stroke: #b0b0b0; stroke-width: 0.8; stroke-linecap: square"/>
     </g>
     <g id="text_7">
      <!-- 270° -->
      <g transform="translate(175.000781 331.402344)scale(0.1 -0.1)">
       <defs>
        <path id="TimesNewRomanPSMT-37" d="M 644 4238 
L 2916 4238 
L 2916 4119 
L 1503 -88 
L 1153 -88 
L 2419 3728 
L 1253 3728 
Q 900 3728 750 3644 
Q 488 3500 328 3200 
L 238 3234 
L 644 4238 
z
" transform="scale(0.015625)"/>
       </defs>
       <use xlink:href="#TimesNewRomanPSMT-32"/>
       <use xlink:href="#TimesNewRomanPSMT-37" x="50"/>
       <use xlink:href="#TimesNewRomanPSMT-30" x="100"/>
       <use xlink:href="#TimesNewRomanPSMT-b0" x="150"/>
      </g>
     </g>
    </g>
    <g id="xtick_8">
     <g id="line2d_8">
      <path d="M 184.5 179.1 
L 280.595812 275.195812 
" clip-path="url(#pa7ec6404a8)" style="fill: none; stroke: #b0b0b0; stroke-width: 0.8; stroke-linecap: square"/>
     </g>
     <g id="text_8">
      <!-- 315° -->
      <g transform="translate(280.996088 287.49765)scale(0.1 -0.1)">
       <use xlink:href="#TimesNewRomanPSMT-33"/>
       <use xlink:href="#TimesNewRomanPSMT-31" x="50"/>
       <use xlink:href="#TimesNewRomanPSMT-35" x="100"/>
       <use xlink:href="#TimesNewRomanPSMT-b0" x="150"/>
      </g>
     </g>
    </g>
   </g>
   <g id="matplotlib.axis_2">
    <g id="ytick_1">
     <g id="line2d_9">
      <path d="M 201.075409 179.1 
C 201.075409 176.923337 200.646654 174.76784 199.813681 172.756865 
C 198.980709 170.745891 197.759717 168.918549 196.220584 167.379416 
C 194.681451 165.840283 192.854109 164.619291 190.843135 163.786319 
C 188.83216 162.953346 186.676663 162.524591 184.5 162.524591 
C 182.323337 162.524591 180.16784 162.953346 178.156865 163.786319 
C 176.145891 164.619291 174.318549 165.840283 172.779416 167.379416 
C 171.240283 168.918549 170.019291 170.745891 169.186319 172.756865 
C 168.353346 174.76784 167.924591 176.923337 167.924591 179.1 
C 167.924591 181.276663 168.353346 183.43216 169.186319 185.443135 
C 170.019291 187.454109 171.240283 189.281451 172.779416 190.820584 
C 174.318549 192.359717 176.145891 193.580709 178.156865 194.413681 
C 180.16784 195.246654 182.323337 195.675409 184.5 195.675409 
C 186.676663 195.675409 188.83216 195.246654 190.843135 194.413681 
C 192.854109 193.580709 194.681451 192.359717 196.220584 190.820584 
C 197.759717 189.281451 198.980709 187.454109 199.813681 185.443135 
C 200.646654 183.43216 201.075409 181.276663 201.075409 179.1 
" clip-path="url(#pa7ec6404a8)" style="fill: none; stroke: #b0b0b0; stroke-width: 0.8; stroke-linecap: square"/>
     </g>
    </g>
    <g id="ytick_2">
     <g id="line2d_10">
      <path d="M 217.650839 179.1 
C 217.650839 174.746672 216.793328 170.435674 215.127382 166.413723 
C 213.461435 162.391772 211.019451 158.737085 207.941183 155.658817 
C 204.862915 152.580549 201.208228 150.138565 197.186277 148.472618 
C 193.164326 146.806672 188.853328 145.949161 184.5 145.949161 
C 180.146672 145.949161 175.835674 146.806672 171.813723 148.472618 
C 167.791772 150.138565 164.137085 152.580549 161.058817 155.658817 
C 157.980549 158.737085 155.538565 162.391772 153.872618 166.413723 
C 152.206672 170.435674 151.349161 174.746672 151.349161 179.1 
C 151.349161 183.453328 152.206672 187.764326 153.872618 191.786277 
C 155.538565 195.808228 157.980549 199.462915 161.058817 202.541183 
C 164.137085 205.619451 167.791772 208.061435 171.813723 209.727382 
C 175.835674 211.393328 180.146672 212.250839 184.5 212.250839 
C 188.853328 212.250839 193.164326 211.393328 197.186277 209.727382 
C 201.208228 208.061435 204.862915 205.619451 207.941183 202.541183 
C 211.019451 199.462915 213.461435 195.808228 215.127382 191.786277 
C 216.793328 187.764326 217.650839 183.453328 217.650839 179.1 
" clip-path="url(#pa7ec6404a8)" style="fill: none; stroke: #b0b0b0; stroke-width: 0.8; stroke-linecap: square"/>
     </g>
    </g>
    <g id="ytick_3">
     <g id="line2d_11">
      <path d="M 234.226269 179.1 
C 234.226269 172.570006 232.940002 166.103508 230.441082 160.070581 
C 227.942161 154.037653 224.279185 148.555621 219.661782 143.938218 
C 215.044379 139.320815 209.562347 135.657839 203.529419 133.158918 
C 197.496492 130.659998 191.029994 129.373731 184.5 129.373731 
C 177.970006 129.373731 171.503508 130.659998 165.470581 133.158918 
C 159.437653 135.657839 153.955621 139.320815 149.338218 143.938218 
C 144.720815 148.555621 141.057839 154.037653 138.558918 160.070581 
C 136.059998 166.103508 134.773731 172.570006 134.773731 179.1 
C 134.773731 185.629994 136.059998 192.096492 138.558918 198.129419 
C 141.057839 204.162347 144.720815 209.644379 149.338218 214.261782 
C 153.955621 218.879185 159.437653 222.542161 165.470581 225.041082 
C 171.503508 227.540002 177.970006 228.826269 184.5 228.826269 
C 191.029994 228.826269 197.496492 227.540002 203.529419 225.041082 
C 209.562347 222.542161 215.044379 218.879185 219.661782 214.261782 
C 224.279185 209.644379 227.942161 204.162347 230.441082 198.129419 
C 232.940002 192.096492 234.226269 185.629994 234.226269 179.1 
" clip-path="url(#pa7ec6404a8)" style="fill: none; stroke: #b0b0b0; stroke-width: 0.8; stroke-linecap: square"/>
     </g>
    </g>
    <g id="ytick_4">
     <g id="line2d_12">
      <path d="M 250.801698 179.1 
C 250.801698 170.393341 249.086676 161.771343 245.754782 153.727438 
C 242.422888 145.683534 237.538918 138.374157 231.382381 132.217619 
C 225.225843 126.061082 217.916466 121.177112 209.872562 117.845218 
C 201.828657 114.513324 193.206659 112.798302 184.5 112.798302 
C 175.793341 112.798302 167.171343 114.513324 159.127438 117.845218 
C 151.083534 121.177112 143.774157 126.061082 137.617619 132.217619 
C 131.461082 138.374157 126.577112 145.683534 123.245218 153.727438 
C 119.913324 161.771343 118.198302 170.393341 118.198302 179.1 
C 118.198302 187.806659 119.913324 196.428657 123.245218 204.472562 
C 126.577112 212.516466 131.461082 219.825843 137.617619 225.982381 
C 143.774157 232.138918 151.083534 237.022888 159.127438 240.354782 
C 167.171343 243.686676 175.793341 245.401698 184.5 245.401698 
C 193.206659 245.401698 201.828657 243.686676 209.872562 240.354782 
C 217.916466 237.022888 225.225843 232.138918 231.382381 225.982381 
C 237.538918 219.825843 242.422888 212.516466 245.754782 204.472562 
C 249.086676 196.428657 250.801698 187.806659 250.801698 179.1 
" clip-path="url(#pa7ec6404a8)" style="fill: none; stroke: #b0b0b0; stroke-width: 0.8; stroke-linecap: square"/>
     </g>
    </g>
    <g id="ytick_5">
     <g id="line2d_13">
      <path d="M 267.377128 179.1 
C 267.377128 168.216675 265.23335 157.439177 261.068482 147.384296 
C 256.903614 137.329415 250.798652 128.192693 243.102979 120.497021 
C 235.407307 112.801348 226.270585 106.696386 216.215704 102.531518 
C 206.160823 98.36665 195.383325 96.222872 184.5 96.222872 
C 173.616675 96.222872 162.839177 98.36665 152.784296 102.531518 
C 142.729415 106.696386 133.592693 112.801348 125.897021 120.497021 
C 118.201348 128.192693 112.096386 137.329415 107.931518 147.384296 
C 103.76665 157.439177 101.622872 168.216675 101.622872 179.1 
C 101.622872 189.983325 103.76665 200.760823 107.931518 210.815704 
C 112.096386 220.870585 118.201348 230.007307 125.897021 237.702979 
C 133.592693 245.398652 142.729415 251.503614 152.784296 255.668482 
C 162.839177 259.83335 173.616675 261.977128 184.5 261.977128 
C 195.383325 261.977128 206.160823 259.83335 216.215704 255.668482 
C 226.270585 251.503614 235.407307 245.398652 243.102979 237.702979 
C 250.798652 230.007307 256.903614 220.870585 261.068482 210.815704 
C 265.23335 200.760823 267.377128 189.983325 267.377128 179.1 
" clip-path="url(#pa7ec6404a8)" style="fill: none; stroke: #b0b0b0; stroke-width: 0.8; stroke-linecap: square"/>
     </g>
    </g>
    <g id="ytick_6">
     <g id="line2d_14">
      <path d="M 283.952558 179.1 
C 283.952558 166.04001 281.380025 153.107011 276.382183 141.041154 
C 271.384341 128.975296 264.058386 118.01123 254.823578 108.776422 
C 245.58877 99.541614 234.624704 92.215659 222.558846 87.217817 
C 210.492989 82.219975 197.55999 79.647442 184.5 79.647442 
C 171.44001 79.647442 158.507011 82.219975 146.441154 87.217817 
C 134.375296 92.215659 123.41123 99.541614 114.176422 108.776422 
C 104.941614 118.01123 97.615659 128.975296 92.617817 141.041154 
C 87.619975 153.107011 85.047442 166.04001 85.047442 179.1 
C 85.047442 192.15999 87.619975 205.092989 92.617817 217.158846 
C 97.615659 229.224704 104.941614 240.18877 114.176422 249.423578 
C 123.41123 258.658386 134.375296 265.984341 146.441154 270.982183 
C 158.507011 275.980025 171.44001 278.552558 184.5 278.552558 
C 197.55999 278.552558 210.492989 275.980025 222.558846 270.982183 
C 234.624704 265.984341 245.58877 258.658386 254.823578 249.423578 
C 264.058386 240.18877 271.384341 229.224704 276.382183 217.158846 
C 281.380025 205.092989 283.952558 192.15999 283.952558 179.1 
" clip-path="url(#pa7ec6404a8)" style="fill: none; stroke: #b0b0b0; stroke-width: 0.8; stroke-linecap: square"/>
     </g>
    </g>
    <g id="ytick_7">
     <g id="line2d_15">
      <path d="M 300.527988 179.1 
C 300.527988 163.863344 297.526699 148.774846 291.695883 134.698011 
C 285.865067 120.621177 277.318119 107.829766 266.544177 97.055823 
C 255.770234 86.281881 242.978823 77.734933 228.901989 71.904117 
C 214.825154 66.073301 199.736656 63.072012 184.5 63.072012 
C 169.263344 63.072012 154.174846 66.073301 140.098011 71.904117 
C 126.021177 77.734933 113.229766 86.281881 102.455823 97.055823 
C 91.681881 107.829766 83.134933 120.621177 77.304117 134.698011 
C 71.473301 148.774846 68.472012 163.863344 68.472012 179.1 
C 68.472012 194.336656 71.473301 209.425154 77.304117 223.501989 
C 83.134933 237.578823 91.681881 250.370234 102.455823 261.144177 
C 113.229766 271.918119 126.021177 280.465067 140.098011 286.295883 
C 154.174846 292.126699 169.263344 295.127988 184.5 295.127988 
C 199.736656 295.127988 214.825154 292.126699 228.901989 286.295883 
C 242.978823 280.465067 255.770234 271.918119 266.544177 261.144177 
C 277.318119 250.370234 285.865067 237.578823 291.695883 223.501989 
C 297.526699 209.425154 300.527988 194.336656 300.527988 179.1 
" clip-path="url(#pa7ec6404a8)" style="fill: none; stroke: #b0b0b0; stroke-width: 0.8; stroke-linecap: square"/>
     </g>
    </g>
    <g id="ytick_8">
     <g id="line2d_16">
      <path d="M 317.103417 179.1 
C 317.103417 161.686679 313.673373 144.44268 307.009583 128.354869 
C 300.345794 112.267058 290.577853 97.648302 278.264776 85.335224 
C 265.951698 73.022147 251.332942 63.254206 235.245131 56.590417 
C 219.15732 49.926627 201.913321 46.496583 184.5 46.496583 
C 167.086679 46.496583 149.84268 49.926627 133.754869 56.590417 
C 117.667058 63.254206 103.048302 73.022147 90.735224 85.335224 
C 78.422147 97.648302 68.654206 112.267058 61.990417 128.354869 
C 55.326627 144.44268 51.896583 161.686679 51.896583 179.1 
C 51.896583 196.513321 55.326627 213.75732 61.990417 229.845131 
C 68.654206 245.932942 78.422147 260.551698 90.735224 272.864776 
C 103.048302 285.177853 117.667058 294.945794 133.754869 301.609583 
C 149.84268 308.273373 167.086679 311.703417 184.5 311.703417 
C 201.913321 311.703417 219.15732 308.273373 235.245131 301.609583 
C 251.332942 294.945794 265.951698 285.177853 278.264776 272.864776 
C 290.577853 260.551698 300.345794 245.932942 307.009583 229.845131 
C 313.673373 213.75732 317.103417 196.513321 317.103417 179.1 
" clip-path="url(#pa7ec6404a8)" style="fill: none; stroke: #b0b0b0; stroke-width: 0.8; stroke-linecap: square"/>
     </g>
    </g>
   </g>
   <g id="line2d_17">
    <path d="M 317.103417 179.1 
L 316.971383 174.918071 
L 316.577181 170.765186 
L 315.926437 166.669713 
L 315.028302 162.658694 
L 313.895126 158.757269 
L 312.54203 154.988192 
L 310.98641 151.37145 
L 309.247396 147.924009 
L 307.345294 144.659679 
L 305.301051 141.589095 
L 303.135742 138.719798 
L 300.870125 136.056403 
L 298.524253 133.600839 
L 296.117164 131.352625 
L 293.666639 129.309188 
L 291.189034 127.466178 
L 288.699177 125.817791 
L 286.210321 124.357074 
L 283.734142 123.076206 
L 281.280781 121.966754 
L 278.858908 121.019899 
L 276.475816 120.226628 
L 274.137519 119.577896 
L 271.84887 119.06476 
L 267.43478 118.410628 
L 263.253362 118.198188 
L 259.312805 118.367586 
L 255.612625 118.865898 
L 252.146107 119.647198 
L 248.902228 120.672222 
L 245.867129 121.907792 
L 243.02519 123.326143 
L 240.359802 124.904217 
L 237.853891 126.622973 
L 235.490253 128.466745 
L 233.251755 130.422646 
L 232.174124 131.439242 
L 135.199421 228.276225 
L 132.931236 230.205171 
L 130.533641 232.018996 
L 127.989473 233.704171 
L 125.281537 235.244245 
L 122.392837 236.619235 
L 119.306954 237.804971 
L 116.008625 238.772401 
L 112.484585 239.486887 
L 108.724733 239.907546 
L 104.723713 239.986722 
L 100.48296 239.669731 
L 98.275611 239.3437 
L 96.013272 238.89507 
L 93.699261 238.315243 
L 91.33789 237.595368 
L 88.934579 236.726437 
L 86.495966 235.699403 
L 84.030022 234.505326 
L 81.546143 233.135555 
L 79.055229 231.581933 
L 76.569742 229.837038 
L 74.103726 227.894457 
L 71.672782 225.749071 
L 69.293996 223.397381 
L 66.985802 220.837818 
L 64.76778 218.071069 
L 62.660379 215.100373 
L 60.684569 211.931783 
L 58.861421 208.574371 
L 57.211626 205.040354 
L 55.754972 201.345131 
L 54.509791 197.507201 
L 53.492408 193.547976 
L 52.716616 189.491455 
L 52.193213 185.363799 
L 51.929621 181.192788 
L 51.929621 177.007212 
L 52.193213 172.836201 
L 52.716616 168.708545 
L 53.492408 164.652024 
L 54.509791 160.692799 
L 55.754972 156.854869 
L 57.211626 153.159646 
L 58.861421 149.625629 
L 60.684569 146.268217 
L 62.660379 143.099627 
L 64.76778 140.128931 
L 66.985802 137.362182 
L 69.293996 134.802619 
L 71.672782 132.450929 
L 74.103726 130.305543 
L 76.569742 128.362962 
L 79.055229 126.618067 
L 81.546143 125.064445 
L 84.030022 123.694674 
L 86.495966 122.500597 
L 88.934579 121.473563 
L 91.33789 120.604632 
L 93.699261 119.884757 
L 96.013272 119.30493 
L 100.48296 118.530269 
L 104.723713 118.213278 
L 108.724733 118.292454 
L 112.484585 118.713113 
L 116.008625 119.427599 
L 119.306954 120.395029 
L 122.392837 121.580765 
L 125.281537 122.955755 
L 127.989473 124.495829 
L 130.533641 126.181004 
L 132.931236 127.994829 
L 135.199421 129.923775 
L 137.355209 131.956678 
L 233.251755 227.777354 
L 235.490253 229.733255 
L 237.853891 231.577027 
L 240.359802 233.295783 
L 243.02519 234.873857 
L 245.867129 236.292208 
L 248.902228 237.527778 
L 252.146107 238.552802 
L 255.612625 239.334102 
L 259.312805 239.832414 
L 263.253362 240.001812 
L 267.43478 239.789372 
L 271.84887 239.13524 
L 274.137519 238.622104 
L 276.475816 237.973372 
L 278.858908 237.180101 
L 281.280781 236.233246 
L 283.734142 235.123794 
L 286.210321 233.842926 
L 288.699177 232.382209 
L 291.189034 230.733822 
L 293.666639 228.890812 
L 296.117164 226.847375 
L 298.524253 224.599161 
L 300.870125 222.143597 
L 303.135742 219.480202 
L 305.301051 216.610905 
L 307.345294 213.540321 
L 309.247396 210.275991 
L 310.98641 206.82855 
L 312.54203 203.211808 
L 313.895126 199.442731 
L 315.028302 195.541306 
L 315.926437 191.530287 
L 316.577181 187.434814 
L 316.971383 183.281929 
L 317.103417 179.1 
L 317.103417 179.1 
" clip-path="url(#pa7ec6404a8)" style="fill: none; stroke: #1f77b4; stroke-width: 1.5; stroke-linecap: square"/>
   </g>
   <g id="patch_3">
    <path d="M 320.4 179.1 
C 320.4 161.253776 316.884683 143.581083 310.055228 127.093322 
C 303.225774 110.60556 293.214998 95.623375 280.595812 83.004188 
C 267.976625 70.385002 252.99444 60.374226 236.506678 53.544772 
C 220.018917 46.715317 202.346224 43.2 184.5 43.2 
C 166.653776 43.2 148.981083 46.715317 132.493322 53.544772 
C 116.00556 60.374226 101.023375 70.385002 88.404188 83.004188 
C 75.785002 95.623375 65.774226 110.60556 58.944772 127.093322 
C 52.115317 143.581083 48.6 161.253776 48.6 179.1 
C 48.6 196.946224 52.115317 214.618917 58.944772 231.106678 
C 65.774226 247.59444 75.785002 262.576625 88.404188 275.195812 
C 101.023375 287.814998 116.00556 297.825774 132.493322 304.655228 
C 148.981083 311.484683 166.653776 315 184.5 315 
C 202.346224 315 220.018917 311.484683 236.506678 304.655228 
C 252.99444 297.825774 267.976625 287.814998 280.595812 275.195812 
C 293.214998 262.576625 303.225774 247.59444 310.055228 231.106678 
C 316.884683 214.618917 320.4 196.946224 320.4 179.1 
" style="fill: none; stroke: #000000; stroke-width: 0.8; stroke-linejoin: miter; stroke-linecap: square"/>
   </g>
  </g>
 </g>
 <defs>
  <clipPath id="pa7ec6404a8">
   <path d="M 320.4 179.1 
C 320.4 161.253776 316.884683 143.581083 310.055228 127.093322 
C 303.225774 110.60556 293.214998 95.623375 280.595812 83.004188 
C 267.976625 70.385002 252.99444 60.374226 236.506678 53.544772 
C 220.018917 46.715317 202.346224 43.2 184.5 43.2 
C 166.653776 43.2 148.981083 46.715317 132.493322 53.544772 
C 116.00556 60.374226 101.023375 70.385002 88.404188 83.004188 
C 75.785002 95.623375 65.774226 110.60556 58.944772 127.093322 
C 52.115317 143.581083 48.6 161.253776 48.6 179.1 
C 48.6 196.946224 52.115317 214.618917 58.944772 231.106678 
C 65.774226 247.59444 75.785002 262.576625 88.404188 275.195812 
C 101.023375 287.814998 116.00556 297.825774 132.493322 304.655228 
C 148.981083 311.484683 166.653776 315 184.5 315 
C 202.346224 315 220.018917 311.484683 236.506678 304.655228 
C 252.99444 297.825774 267.976625 287.814998 280.595812 275.195812 
C 293.214998 262.576625 303.225774 247.59444 310.055228 231.106678 
C 316.884683 214.618917 320.4 196.946224 320.4 179.1 
M 184.5 179.1 
C 184.5 179.1 184.5 179.1 184.5 179.1 
C 184.5 179.1 184.5 179.1 184.5 179.1 
C 184.5 179.1 184.5 179.1 184.5 179.1 
C 184.5 179.1 184.5 179.1 184.5 179.1 
C 184.5 179.1 184.5 179.1 184.5 179.1 
C 184.5 179.1 184.5 179.1 184.5 179.1 
C 184.5 179.1 184.5 179.1 184.5 179.1 
C 184.5 179.1 184.5 179.1 184.5 179.1 
C 184.5 179.1 184.5 179.1 184.5 179.1 
C 184.5 179.1 184.5 179.1 184.5 179.1 
C 184.5 179.1 184.5 179.1 184.5 179.1 
C 184.5 179.1 184.5 179.1 184.5 179.1 
C 184.5 179.1 184.5 179.1 184.5 179.1 
C 184.5 179.1 184.5 179.1 184.5 179.1 
C 184.5 179.1 184.5 179.1 184.5 179.1 
C 184.5 179.1 184.5 179.1 184.5 179.1 
M 320.4 179.1 
z
"/>
  </clipPath>
 </defs>
</svg>
