<?xml version="1.0" encoding="utf-8" standalone="no"?>
<!DOCTYPE svg PUBLIC "-//W3C//DTD SVG 1.1//EN"
  "http://www.w3.org/Graphics/SVG/1.1/DTD/svg11.dtd">
<svg xmlns:xlink="http://www.w3.org/1999/xlink" width="360pt" height="360pt" viewBox="0 0 360 360" xmlns="http://www.w3.org/2000/svg" version="1.1">
 <metadata>
  <rdf:RDF xmlns:dc="http://purl.org/dc/elements/1.1/" xmlns:cc="http://creativecommons.org/ns#" xmlns:rdf="http://www.w3.org/1999/02/22-rdf-syntax-ns#">
   <cc:Work>
    <dc:type rdf:resource="http://purl.org/dc/dcmitype/StillImage"/>
    <dc:date>2024-06-24T17:54:35.831076</dc:date>
    <dc:format>image/svg+xml</dc:format>
    <dc:creator>
     <cc:Agent>
      <dc:title>Matplotlib v3.5.2, https://matplotlib.org/</dc:title>
     </cc:Agent>
    </dc:creator>
   </cc:Work>
  </rdf:RDF>
 </metadata>
 <defs>
  <style type="text/css">*{stroke-linejoin: round; stroke-linecap: butt}</style>
 </defs>
 <g id="figure_1">
  <g id="patch_1">
   <path d="M 0 360 
L 360 360 
L 360 0 
L 0 0 
z
" style="fill: #ffffff"/>
  </g>
  <g id="axes_1">
   <g id="patch_2">
    <path d="M 320.4 179.1 
C 320.4 161.253776 316.884683 143.581083 310.055228 127.093322 
C 303.225774 110.60556 293.214998 95.623375 280.595812 83.004188 
C 267.976625 70.385002 252.99444 60.374226 236.506678 53.544772 
C 220.018917 46.715317 202.346224 43.2 184.5 43.2 
C 166.653776 43.2 148.981083 46.715317 132.493322 53.544772 
C 116.00556 60.374226 101.023375 70.385002 88.404188 83.004188 
C 75.785002 95.623375 65.774226 110.60556 58.944772 127.093322 
C 52.115317 143.581083 48.6 161.253776 48.6 179.1 
C 48.6 196.946224 52.115317 214.618917 58.944772 231.106678 
C 65.774226 247.59444 75.785002 262.576625 88.404188 275.195812 
C 101.023375 287.814998 116.00556 297.825774 132.493322 304.655228 
C 148.981083 311.484683 166.653776 315 184.5 315 
C 202.346224 315 220.018917 311.484683 236.506678 304.655228 
C 252.99444 297.825774 267.976625 287.814998 280.595812 275.195812 
C 293.214998 262.576625 303.225774 247.59444 310.055228 231.106678 
C 316.884683 214.618917 320.4 196.946224 320.4 179.1 
M 184.5 179.1 
C 184.5 179.1 184.5 179.1 184.5 179.1 
C 184.5 179.1 184.5 179.1 184.5 179.1 
C 184.5 179.1 184.5 179.1 184.5 179.1 
C 184.5 179.1 184.5 179.1 184.5 179.1 
C 184.5 179.1 184.5 179.1 184.5 179.1 
C 184.5 179.1 184.5 179.1 184.5 179.1 
C 184.5 179.1 184.5 179.1 184.5 179.1 
C 184.5 179.1 184.5 179.1 184.5 179.1 
C 184.5 179.1 184.5 179.1 184.5 179.1 
C 184.5 179.1 184.5 179.1 184.5 179.1 
C 184.5 179.1 184.5 179.1 184.5 179.1 
C 184.5 179.1 184.5 179.1 184.5 179.1 
C 184.5 179.1 184.5 179.1 184.5 179.1 
C 184.5 179.1 184.5 179.1 184.5 179.1 
C 184.5 179.1 184.5 179.1 184.5 179.1 
C 184.5 179.1 184.5 179.1 184.5 179.1 
M 320.4 179.1 
z
" style="fill: #ffffff"/>
   </g>
   <g id="matplotlib.axis_1">
    <g id="xtick_1">
     <g id="line2d_1">
      <path d="M 184.5 179.1 
L 320.4 179.1 
" clip-path="url(#p000dae971c)" style="fill: none; stroke: #b0b0b0; stroke-width: 0.8; stroke-linecap: square"/>
     </g>
     <g id="text_1">
      <!-- 0° -->
      <g transform="translate(329.900781 181.502344)scale(0.1 -0.1)">
       <defs>
        <path id="TimesNewRomanPSMT-30" d="M 231 2094 
Q 231 2819 450 3342 
Q 669 3866 1031 4122 
Q 1313 4325 1613 4325 
Q 2100 4325 2488 3828 
Q 2972 3213 2972 2159 
Q 2972 1422 2759 906 
Q 2547 391 2217 158 
Q 1888 -75 1581 -75 
Q 975 -75 572 641 
Q 231 1244 231 2094 
z
M 844 2016 
Q 844 1141 1059 588 
Q 1238 122 1591 122 
Q 1759 122 1940 273 
Q 2122 425 2216 781 
Q 2359 1319 2359 2297 
Q 2359 3022 2209 3506 
Q 2097 3866 1919 4016 
Q 1791 4119 1609 4119 
Q 1397 4119 1231 3928 
Q 1006 3669 925 3112 
Q 844 2556 844 2016 
z
" transform="scale(0.015625)"/>
        <path id="TimesNewRomanPSMT-b0" d="M 1266 4331 
Q 1669 4331 1948 4050 
Q 2228 3769 2228 3369 
Q 2228 2972 1947 2690 
Q 1666 2409 1266 2409 
Q 869 2409 587 2690 
Q 306 2972 306 3369 
Q 306 3769 586 4050 
Q 866 4331 1266 4331 
z
M 1266 4069 
Q 975 4069 772 3866 
Q 569 3663 569 3372 
Q 569 3084 772 2879 
Q 975 2675 1266 2675 
Q 1553 2675 1758 2879 
Q 1963 3084 1963 3372 
Q 1963 3663 1759 3866 
Q 1556 4069 1266 4069 
z
" transform="scale(0.015625)"/>
       </defs>
       <use xlink:href="#TimesNewRomanPSMT-30"/>
       <use xlink:href="#TimesNewRomanPSMT-b0" x="50"/>
      </g>
     </g>
    </g>
    <g id="xtick_2">
     <g id="line2d_2">
      <path d="M 184.5 179.1 
L 280.595812 83.004188 
" clip-path="url(#p000dae971c)" style="fill: none; stroke: #b0b0b0; stroke-width: 0.8; stroke-linecap: square"/>
     </g>
     <g id="text_2">
      <!-- 45° -->
      <g transform="translate(283.496088 75.507037)scale(0.1 -0.1)">
       <defs>
        <path id="TimesNewRomanPSMT-34" d="M 2978 1563 
L 2978 1119 
L 2409 1119 
L 2409 0 
L 1894 0 
L 1894 1119 
L 100 1119 
L 100 1519 
L 2066 4325 
L 2409 4325 
L 2409 1563 
L 2978 1563 
z
M 1894 1563 
L 1894 3666 
L 406 1563 
L 1894 1563 
z
" transform="scale(0.015625)"/>
        <path id="TimesNewRomanPSMT-35" d="M 2778 4238 
L 2534 3706 
L 1259 3706 
L 981 3138 
Q 1809 3016 2294 2522 
Q 2709 2097 2709 1522 
Q 2709 1188 2573 903 
Q 2438 619 2231 419 
Q 2025 219 1772 97 
Q 1413 -75 1034 -75 
Q 653 -75 479 54 
Q 306 184 306 341 
Q 306 428 378 495 
Q 450 563 559 563 
Q 641 563 702 538 
Q 763 513 909 409 
Q 1144 247 1384 247 
Q 1750 247 2026 523 
Q 2303 800 2303 1197 
Q 2303 1581 2056 1914 
Q 1809 2247 1375 2428 
Q 1034 2569 447 2591 
L 1259 4238 
L 2778 4238 
z
" transform="scale(0.015625)"/>
       </defs>
       <use xlink:href="#TimesNewRomanPSMT-34"/>
       <use xlink:href="#TimesNewRomanPSMT-35" x="50"/>
       <use xlink:href="#TimesNewRomanPSMT-b0" x="100"/>
      </g>
     </g>
    </g>
    <g id="xtick_3">
     <g id="line2d_3">
      <path d="M 184.5 179.1 
L 184.5 43.2 
" clip-path="url(#p000dae971c)" style="fill: none; stroke: #b0b0b0; stroke-width: 0.8; stroke-linecap: square"/>
     </g>
     <g id="text_3">
      <!-- 90° -->
      <g transform="translate(177.500781 31.602344)scale(0.1 -0.1)">
       <defs>
        <path id="TimesNewRomanPSMT-39" d="M 338 -88 
L 338 28 
Q 744 34 1094 217 
Q 1444 400 1770 856 
Q 2097 1313 2225 1859 
Q 1734 1544 1338 1544 
Q 891 1544 572 1889 
Q 253 2234 253 2806 
Q 253 3363 572 3797 
Q 956 4325 1575 4325 
Q 2097 4325 2469 3894 
Q 2925 3359 2925 2575 
Q 2925 1869 2578 1258 
Q 2231 647 1613 244 
Q 1109 -88 516 -88 
L 338 -88 
z
M 2275 2091 
Q 2331 2497 2331 2741 
Q 2331 3044 2228 3395 
Q 2125 3747 1936 3934 
Q 1747 4122 1506 4122 
Q 1228 4122 1018 3872 
Q 809 3622 809 3128 
Q 809 2469 1088 2097 
Q 1291 1828 1588 1828 
Q 1731 1828 1928 1897 
Q 2125 1966 2275 2091 
z
" transform="scale(0.015625)"/>
       </defs>
       <use xlink:href="#TimesNewRomanPSMT-39"/>
       <use xlink:href="#TimesNewRomanPSMT-30" x="50"/>
       <use xlink:href="#TimesNewRomanPSMT-b0" x="100"/>
      </g>
     </g>
    </g>
    <g id="xtick_4">
     <g id="line2d_4">
      <path d="M 184.5 179.1 
L 88.404188 83.004188 
" clip-path="url(#p000dae971c)" style="fill: none; stroke: #b0b0b0; stroke-width: 0.8; stroke-linecap: square"/>
     </g>
     <g id="text_4">
      <!-- 135° -->
      <g transform="translate(69.005475 75.507037)scale(0.1 -0.1)">
       <defs>
        <path id="TimesNewRomanPSMT-31" d="M 750 3822 
L 1781 4325 
L 1884 4325 
L 1884 747 
Q 1884 391 1914 303 
Q 1944 216 2037 169 
Q 2131 122 2419 116 
L 2419 0 
L 825 0 
L 825 116 
Q 1125 122 1212 167 
Q 1300 213 1334 289 
Q 1369 366 1369 747 
L 1369 3034 
Q 1369 3497 1338 3628 
Q 1316 3728 1258 3775 
Q 1200 3822 1119 3822 
Q 1003 3822 797 3725 
L 750 3822 
z
" transform="scale(0.015625)"/>
        <path id="TimesNewRomanPSMT-33" d="M 325 3431 
Q 506 3859 782 4092 
Q 1059 4325 1472 4325 
Q 1981 4325 2253 3994 
Q 2459 3747 2459 3466 
Q 2459 3003 1878 2509 
Q 2269 2356 2469 2072 
Q 2669 1788 2669 1403 
Q 2669 853 2319 450 
Q 1863 -75 997 -75 
Q 569 -75 414 31 
Q 259 138 259 259 
Q 259 350 332 419 
Q 406 488 509 488 
Q 588 488 669 463 
Q 722 447 909 348 
Q 1097 250 1169 231 
Q 1284 197 1416 197 
Q 1734 197 1970 444 
Q 2206 691 2206 1028 
Q 2206 1275 2097 1509 
Q 2016 1684 1919 1775 
Q 1784 1900 1550 2001 
Q 1316 2103 1072 2103 
L 972 2103 
L 972 2197 
Q 1219 2228 1467 2375 
Q 1716 2522 1828 2728 
Q 1941 2934 1941 3181 
Q 1941 3503 1739 3701 
Q 1538 3900 1238 3900 
Q 753 3900 428 3381 
L 325 3431 
z
" transform="scale(0.015625)"/>
       </defs>
       <use xlink:href="#TimesNewRomanPSMT-31"/>
       <use xlink:href="#TimesNewRomanPSMT-33" x="50"/>
       <use xlink:href="#TimesNewRomanPSMT-35" x="100"/>
       <use xlink:href="#TimesNewRomanPSMT-b0" x="150"/>
      </g>
     </g>
    </g>
    <g id="xtick_5">
     <g id="line2d_5">
      <path d="M 184.5 179.1 
L 48.6 179.1 
" clip-path="url(#p000dae971c)" style="fill: none; stroke: #b0b0b0; stroke-width: 0.8; stroke-linecap: square"/>
     </g>
     <g id="text_5">
      <!-- 180° -->
      <g transform="translate(25.100781 181.502344)scale(0.1 -0.1)">
       <defs>
        <path id="TimesNewRomanPSMT-38" d="M 1228 2134 
Q 725 2547 579 2797 
Q 434 3047 434 3316 
Q 434 3728 753 4026 
Q 1072 4325 1600 4325 
Q 2113 4325 2425 4047 
Q 2738 3769 2738 3413 
Q 2738 3175 2569 2928 
Q 2400 2681 1866 2347 
Q 2416 1922 2594 1678 
Q 2831 1359 2831 1006 
Q 2831 559 2490 242 
Q 2150 -75 1597 -75 
Q 994 -75 656 303 
Q 388 606 388 966 
Q 388 1247 577 1523 
Q 766 1800 1228 2134 
z
M 1719 2469 
Q 2094 2806 2194 3001 
Q 2294 3197 2294 3444 
Q 2294 3772 2109 3958 
Q 1925 4144 1606 4144 
Q 1288 4144 1088 3959 
Q 888 3775 888 3528 
Q 888 3366 970 3203 
Q 1053 3041 1206 2894 
L 1719 2469 
z
M 1375 2016 
Q 1116 1797 991 1539 
Q 866 1281 866 981 
Q 866 578 1086 336 
Q 1306 94 1647 94 
Q 1984 94 2187 284 
Q 2391 475 2391 747 
Q 2391 972 2272 1150 
Q 2050 1481 1375 2016 
z
" transform="scale(0.015625)"/>
       </defs>
       <use xlink:href="#TimesNewRomanPSMT-31"/>
       <use xlink:href="#TimesNewRomanPSMT-38" x="50"/>
       <use xlink:href="#TimesNewRomanPSMT-30" x="100"/>
       <use xlink:href="#TimesNewRomanPSMT-b0" x="150"/>
      </g>
     </g>
    </g>
    <g id="xtick_6">
     <g id="line2d_6">
      <path d="M 184.5 179.1 
L 88.404188 275.195812 
" clip-path="url(#p000dae971c)" style="fill: none; stroke: #b0b0b0; stroke-width: 0.8; stroke-linecap: square"/>
     </g>
     <g id="text_6">
      <!-- 225° -->
      <g transform="translate(69.005475 287.49765)scale(0.1 -0.1)">
       <defs>
        <path id="TimesNewRomanPSMT-32" d="M 2934 816 
L 2638 0 
L 138 0 
L 138 116 
Q 1241 1122 1691 1759 
Q 2141 2397 2141 2925 
Q 2141 3328 1894 3587 
Q 1647 3847 1303 3847 
Q 991 3847 742 3664 
Q 494 3481 375 3128 
L 259 3128 
Q 338 3706 661 4015 
Q 984 4325 1469 4325 
Q 1984 4325 2329 3994 
Q 2675 3663 2675 3213 
Q 2675 2891 2525 2569 
Q 2294 2063 1775 1497 
Q 997 647 803 472 
L 1909 472 
Q 2247 472 2383 497 
Q 2519 522 2628 598 
Q 2738 675 2819 816 
L 2934 816 
z
" transform="scale(0.015625)"/>
       </defs>
       <use xlink:href="#TimesNewRomanPSMT-32"/>
       <use xlink:href="#TimesNewRomanPSMT-32" x="50"/>
       <use xlink:href="#TimesNewRomanPSMT-35" x="100"/>
       <use xlink:href="#TimesNewRomanPSMT-b0" x="150"/>
      </g>
     </g>
    </g>
    <g id="xtick_7">
     <g id="line2d_7">
      <path d="M 184.5 179.1 
L 184.5 315 
" clip-path="url(#p000dae971c)" style="fill: none; stroke: #b0b0b0; stroke-width: 0.8; stroke-linecap: square"/>
     </g>
     <g id="text_7">
      <!-- 270° -->
      <g transform="translate(175.000781 331.402344)scale(0.1 -0.1)">
       <defs>
        <path id="TimesNewRomanPSMT-37" d="M 644 4238 
L 2916 4238 
L 2916 4119 
L 1503 -88 
L 1153 -88 
L 2419 3728 
L 1253 3728 
Q 900 3728 750 3644 
Q 488 3500 328 3200 
L 238 3234 
L 644 4238 
z
" transform="scale(0.015625)"/>
       </defs>
       <use xlink:href="#TimesNewRomanPSMT-32"/>
       <use xlink:href="#TimesNewRomanPSMT-37" x="50"/>
       <use xlink:href="#TimesNewRomanPSMT-30" x="100"/>
       <use xlink:href="#TimesNewRomanPSMT-b0" x="150"/>
      </g>
     </g>
    </g>
    <g id="xtick_8">
     <g id="line2d_8">
      <path d="M 184.5 179.1 
L 280.595812 275.195812 
" clip-path="url(#p000dae971c)" style="fill: none; stroke: #b0b0b0; stroke-width: 0.8; stroke-linecap: square"/>
     </g>
     <g id="text_8">
      <!-- 315° -->
      <g transform="translate(280.996088 287.49765)scale(0.1 -0.1)">
       <use xlink:href="#TimesNewRomanPSMT-33"/>
       <use xlink:href="#TimesNewRomanPSMT-31" x="50"/>
       <use xlink:href="#TimesNewRomanPSMT-35" x="100"/>
       <use xlink:href="#TimesNewRomanPSMT-b0" x="150"/>
      </g>
     </g>
    </g>
   </g>
   <g id="matplotlib.axis_2">
    <g id="ytick_1">
     <g id="line2d_9">
      <path d="M 200.678502 179.1 
C 200.678502 176.975459 200.260013 174.871576 199.446986 172.908756 
C 198.63396 170.945935 197.442206 169.162349 195.939928 167.660072 
C 194.437651 166.157794 192.654065 164.96604 190.691244 164.153014 
C 188.728424 163.339987 186.624541 162.921498 184.5 162.921498 
C 182.375459 162.921498 180.271576 163.339987 178.308756 164.153014 
C 176.345935 164.96604 174.562349 166.157794 173.060072 167.660072 
C 171.557794 169.162349 170.36604 170.945935 169.553014 172.908756 
C 168.739987 174.871576 168.321498 176.975459 168.321498 179.1 
C 168.321498 181.224541 168.739987 183.328424 169.553014 185.291244 
C 170.36604 187.254065 171.557794 189.037651 173.060072 190.539928 
C 174.562349 192.042206 176.345935 193.23396 178.308756 194.046986 
C 180.271576 194.860013 182.375459 195.278502 184.5 195.278502 
C 186.624541 195.278502 188.728424 194.860013 190.691244 194.046986 
C 192.654065 193.23396 194.437651 192.042206 195.939928 190.539928 
C 197.442206 189.037651 198.63396 187.254065 199.446986 185.291244 
C 200.260013 183.328424 200.678502 181.224541 200.678502 179.1 
" clip-path="url(#p000dae971c)" style="fill: none; stroke: #b0b0b0; stroke-width: 0.8; stroke-linecap: square"/>
     </g>
    </g>
    <g id="ytick_2">
     <g id="line2d_10">
      <path d="M 216.857083 179.1 
C 216.857083 174.850907 216.020104 170.643131 214.394047 166.71748 
C 212.767989 162.79183 210.384475 159.22465 207.379913 156.220087 
C 204.37535 153.215525 200.80817 150.832011 196.88252 149.205953 
C 192.956869 147.579896 188.749093 146.742917 184.5 146.742917 
C 180.250907 146.742917 176.043131 147.579896 172.11748 149.205953 
C 168.19183 150.832011 164.62465 153.215525 161.620087 156.220087 
C 158.615525 159.22465 156.232011 162.79183 154.605953 166.71748 
C 152.979896 170.643131 152.142917 174.850907 152.142917 179.1 
C 152.142917 183.349093 152.979896 187.556869 154.605953 191.48252 
C 156.232011 195.40817 158.615525 198.97535 161.620087 201.979913 
C 164.62465 204.984475 168.19183 207.367989 172.11748 208.994047 
C 176.043131 210.620104 180.250907 211.457083 184.5 211.457083 
C 188.749093 211.457083 192.956869 210.620104 196.88252 208.994047 
C 200.80817 207.367989 204.37535 204.984475 207.379913 201.979913 
C 210.384475 198.97535 212.767989 195.40817 214.394047 191.48252 
C 216.020104 187.556869 216.857083 183.349093 216.857083 179.1 
" clip-path="url(#p000dae971c)" style="fill: none; stroke: #b0b0b0; stroke-width: 0.8; stroke-linecap: square"/>
     </g>
    </g>
    <g id="ytick_3">
     <g id="line2d_11">
      <path d="M 233.035664 179.1 
C 233.035664 172.726355 231.780195 166.414686 229.341107 160.526205 
C 226.902019 154.637725 223.326745 149.28695 218.819897 144.780103 
C 214.31305 140.273255 208.962275 136.697981 203.073795 134.258893 
C 197.185314 131.819805 190.873645 130.564336 184.5 130.564336 
C 178.126355 130.564336 171.814686 131.819805 165.926205 134.258893 
C 160.037725 136.697981 154.68695 140.273255 150.180103 144.780103 
C 145.673255 149.28695 142.097981 154.637725 139.658893 160.526205 
C 137.219805 166.414686 135.964336 172.726355 135.964336 179.1 
C 135.964336 185.473645 137.219805 191.785314 139.658893 197.673795 
C 142.097981 203.562275 145.673255 208.91305 150.180103 213.419897 
C 154.68695 217.926745 160.037725 221.502019 165.926205 223.941107 
C 171.814686 226.380195 178.126355 227.635664 184.5 227.635664 
C 190.873645 227.635664 197.185314 226.380195 203.073795 223.941107 
C 208.962275 221.502019 214.31305 217.926745 218.819897 213.419897 
C 223.326745 208.91305 226.902019 203.562275 229.341107 197.673795 
C 231.780195 191.785314 233.035664 185.473645 233.035664 179.1 
" clip-path="url(#p000dae971c)" style="fill: none; stroke: #b0b0b0; stroke-width: 0.8; stroke-linecap: square"/>
     </g>
    </g>
    <g id="ytick_4">
     <g id="line2d_12">
      <path d="M 249.214246 179.1 
C 249.214246 170.601803 247.540286 162.18624 244.288167 154.33493 
C 241.036048 146.48362 236.269015 139.349251 230.259882 133.340118 
C 224.250749 127.330985 217.11638 122.563952 209.26507 119.311833 
C 201.41376 116.059714 192.998197 114.385754 184.5 114.385754 
C 176.001803 114.385754 167.58624 116.059714 159.73493 119.311833 
C 151.88362 122.563952 144.749251 127.330985 138.740118 133.340118 
C 132.730985 139.349251 127.963952 146.48362 124.711833 154.33493 
C 121.459714 162.18624 119.785754 170.601803 119.785754 179.1 
C 119.785754 187.598197 121.459714 196.01376 124.711833 203.86507 
C 127.963952 211.71638 132.730985 218.850749 138.740118 224.859882 
C 144.749251 230.869015 151.88362 235.636048 159.73493 238.888167 
C 167.58624 242.140286 176.001803 243.814246 184.5 243.814246 
C 192.998197 243.814246 201.41376 242.140286 209.26507 238.888167 
C 217.11638 235.636048 224.250749 230.869015 230.259882 224.859882 
C 236.269015 218.850749 241.036048 211.71638 244.288167 203.86507 
C 247.540286 196.01376 249.214246 187.598197 249.214246 179.1 
" clip-path="url(#p000dae971c)" style="fill: none; stroke: #b0b0b0; stroke-width: 0.8; stroke-linecap: square"/>
     </g>
    </g>
    <g id="ytick_5">
     <g id="line2d_13">
      <path d="M 265.392827 179.1 
C 265.392827 168.477251 263.300377 157.957795 259.235227 148.143655 
C 255.170077 138.329515 249.211284 129.411551 241.699867 121.900133 
C 234.188449 114.388716 225.270485 108.429923 215.456345 104.364773 
C 205.642205 100.299623 195.122749 98.207173 184.5 98.207173 
C 173.877251 98.207173 163.357795 100.299623 153.543655 104.364773 
C 143.729515 108.429923 134.811551 114.388716 127.300133 121.900133 
C 119.788716 129.411551 113.829923 138.329515 109.764773 148.143655 
C 105.699623 157.957795 103.607173 168.477251 103.607173 179.1 
C 103.607173 189.722749 105.699623 200.242205 109.764773 210.056345 
C 113.829923 219.870485 119.788716 228.788449 127.300133 236.299867 
C 134.811551 243.811284 143.729515 249.770077 153.543655 253.835227 
C 163.357795 257.900377 173.877251 259.992827 184.5 259.992827 
C 195.122749 259.992827 205.642205 257.900377 215.456345 253.835227 
C 225.270485 249.770077 234.188449 243.811284 241.699867 236.299867 
C 249.211284 228.788449 255.170077 219.870485 259.235227 210.056345 
C 263.300377 200.242205 265.392827 189.722749 265.392827 179.1 
" clip-path="url(#p000dae971c)" style="fill: none; stroke: #b0b0b0; stroke-width: 0.8; stroke-linecap: square"/>
     </g>
    </g>
    <g id="ytick_6">
     <g id="line2d_14">
      <path d="M 281.571409 179.1 
C 281.571409 166.352699 279.060468 153.72935 274.182288 141.95238 
C 269.304107 130.17541 262.153554 119.473851 253.139851 110.460149 
C 244.126149 101.446446 233.42459 94.295893 221.64762 89.417712 
C 209.87065 84.539532 197.247301 82.028591 184.5 82.028591 
C 171.752699 82.028591 159.12935 84.539532 147.35238 89.417712 
C 135.57541 94.295893 124.873851 101.446446 115.860149 110.460149 
C 106.846446 119.473851 99.695893 130.17541 94.817712 141.95238 
C 89.939532 153.72935 87.428591 166.352699 87.428591 179.1 
C 87.428591 191.847301 89.939532 204.47065 94.817712 216.24762 
C 99.695893 228.02459 106.846446 238.726149 115.860149 247.739851 
C 124.873851 256.753554 135.57541 263.904107 147.35238 268.782288 
C 159.12935 273.660468 171.752699 276.171409 184.5 276.171409 
C 197.247301 276.171409 209.87065 273.660468 221.64762 268.782288 
C 233.42459 263.904107 244.126149 256.753554 253.139851 247.739851 
C 262.153554 238.726149 269.304107 228.02459 274.182288 216.24762 
C 279.060468 204.47065 281.571409 191.847301 281.571409 179.1 
" clip-path="url(#p000dae971c)" style="fill: none; stroke: #b0b0b0; stroke-width: 0.8; stroke-linecap: square"/>
     </g>
    </g>
    <g id="ytick_7">
     <g id="line2d_15">
      <path d="M 297.74999 179.1 
C 297.74999 164.228148 294.820559 149.500905 289.129348 135.761105 
C 283.438136 122.021305 275.095824 109.536152 264.579836 99.020164 
C 254.063848 88.504176 241.578695 80.161864 227.838895 74.470652 
C 214.099095 68.779441 199.371852 65.85001 184.5 65.85001 
C 169.628148 65.85001 154.900905 68.779441 141.161105 74.470652 
C 127.421305 80.161864 114.936152 88.504176 104.420164 99.020164 
C 93.904176 109.536152 85.561864 122.021305 79.870652 135.761105 
C 74.179441 149.500905 71.25001 164.228148 71.25001 179.1 
C 71.25001 193.971852 74.179441 208.699095 79.870652 222.438895 
C 85.561864 236.178695 93.904176 248.663848 104.420164 259.179836 
C 114.936152 269.695824 127.421305 278.038136 141.161105 283.729348 
C 154.900905 289.420559 169.628148 292.34999 184.5 292.34999 
C 199.371852 292.34999 214.099095 289.420559 227.838895 283.729348 
C 241.578695 278.038136 254.063848 269.695824 264.579836 259.179836 
C 275.095824 248.663848 283.438136 236.178695 289.129348 222.438895 
C 294.820559 208.699095 297.74999 193.971852 297.74999 179.1 
" clip-path="url(#p000dae971c)" style="fill: none; stroke: #b0b0b0; stroke-width: 0.8; stroke-linecap: square"/>
     </g>
    </g>
    <g id="ytick_8">
     <g id="line2d_16">
      <path d="M 313.928571 179.1 
C 313.928571 162.103596 310.58065 145.27246 304.076408 129.56983 
C 297.572166 113.8672 288.038093 99.598452 276.019821 87.580179 
C 264.001548 75.561907 249.7328 66.027834 234.03017 59.523592 
C 218.32754 53.01935 201.496404 49.671429 184.5 49.671429 
C 167.503596 49.671429 150.67246 53.01935 134.96983 59.523592 
C 119.2672 66.027834 104.998452 75.561907 92.980179 87.580179 
C 80.961907 99.598452 71.427834 113.8672 64.923592 129.56983 
C 58.41935 145.27246 55.071429 162.103596 55.071429 179.1 
C 55.071429 196.096404 58.41935 212.92754 64.923592 228.63017 
C 71.427834 244.3328 80.961907 258.601548 92.980179 270.619821 
C 104.998452 282.638093 119.2672 292.172166 134.96983 298.676408 
C 150.67246 305.18065 167.503596 308.528571 184.5 308.528571 
C 201.496404 308.528571 218.32754 305.18065 234.03017 298.676408 
C 249.7328 292.172166 264.001548 282.638093 276.019821 270.619821 
C 288.038093 258.601548 297.572166 244.3328 304.076408 228.63017 
C 310.58065 212.92754 313.928571 196.096404 313.928571 179.1 
" clip-path="url(#p000dae971c)" style="fill: none; stroke: #b0b0b0; stroke-width: 0.8; stroke-linecap: square"/>
     </g>
    </g>
   </g>
   <g id="line2d_17">
    <path d="M 313.928571 179.1 
L 313.812565 174.627261 
L 313.464962 170.167881 
L 312.887009 165.735168 
L 312.080774 161.342318 
L 311.049145 157.002367 
L 309.795808 152.728136 
L 308.325239 148.532179 
L 306.64268 144.426735 
L 304.754116 140.423674 
L 302.666251 136.534455 
L 300.386478 132.770075 
L 297.922845 129.141031 
L 295.284023 125.657275 
L 292.479266 122.328175 
L 289.518369 119.162482 
L 286.411633 116.168294 
L 283.169811 113.353028 
L 279.804067 110.72339 
L 276.325927 108.285353 
L 272.747229 106.044136 
L 269.080071 104.004186 
L 265.336761 102.169166 
L 261.529765 100.541942 
L 257.67165 99.124579 
L 253.775034 97.918337 
L 249.852534 96.92367 
L 245.916707 96.140234 
L 241.980004 95.566891 
L 238.054715 95.201721 
L 233.799783 95.037598 
L 229.588125 95.113506 
L 225.434617 95.423918 
L 221.353621 95.962317 
L 217.358913 96.721244 
L 213.463618 97.692341 
L 209.680152 98.866414 
L 206.020162 100.233478 
L 202.494475 101.782829 
L 199.113052 103.503103 
L 195.884944 105.382348 
L 192.818254 107.408093 
L 189.686403 109.752979 
L 186.760071 112.237723 
L 184.045574 114.845025 
L 181.547797 117.557303 
L 179.270183 120.356817 
L 177.21473 123.225786 
L 175.382003 126.146502 
L 173.656371 129.329674 
L 172.185171 132.531074 
L 170.963724 135.729794 
L 169.985601 138.90565 
L 169.24271 142.039329 
L 168.696775 145.329269 
L 168.395999 148.528746 
L 168.324852 151.61838 
L 168.482746 154.773172 
L 168.859875 157.76419 
L 169.432175 160.575276 
L 170.225771 163.350038 
L 171.179624 165.894266 
L 172.328397 168.327401 
L 173.653904 170.598923 
L 175.050863 172.565074 
L 176.54976 174.310629 
L 178.173857 175.862254 
L 179.845476 177.145197 
L 181.456501 178.105287 
L 182.95641 178.75224 
L 184.24164 179.076794 
L 184.5 179.1 
L 184.030284 179.15712 
L 182.826473 179.493651 
L 181.399352 180.124189 
L 179.845476 181.054803 
L 178.246086 182.276012 
L 176.699361 183.732666 
L 175.200243 185.445566 
L 173.798368 187.379776 
L 172.531094 189.493592 
L 171.362164 191.881389 
L 170.383365 194.383935 
L 169.559172 197.118807 
L 168.953062 199.894585 
L 168.537464 202.853012 
L 168.342511 205.778554 
L 168.355254 208.835852 
L 168.593207 212.00786 
L 169.072345 215.275669 
L 169.749737 218.393889 
L 170.659754 221.559623 
L 171.81095 224.753835 
L 173.210237 227.956574 
L 174.862801 231.147123 
L 176.627104 234.080226 
L 178.61402 236.966996 
L 180.823422 239.789774 
L 183.253756 242.530788 
L 185.902023 245.172272 
L 188.763782 247.696584 
L 191.833155 250.086325 
L 194.844406 252.158052 
L 198.019561 254.087539 
L 201.350839 255.862159 
L 204.8295 257.469778 
L 208.445884 258.898828 
L 212.189446 260.138376 
L 216.048807 261.178194 
L 220.011802 262.008816 
L 224.065536 262.621598 
L 228.196441 263.008777 
L 232.390344 263.163517 
L 236.632534 263.079957 
L 240.550666 262.78986 
L 244.48463 262.292478 
L 248.422208 261.585613 
L 252.351003 260.667839 
L 256.258489 259.538523 
L 260.132065 258.197828 
L 263.959108 256.64672 
L 267.727026 254.886973 
L 271.423308 252.921161 
L 275.035586 250.752658 
L 278.551677 248.385628 
L 281.959643 245.825011 
L 285.24784 243.076509 
L 288.404965 240.146562 
L 291.42011 237.042333 
L 294.282807 233.771675 
L 296.983069 230.343105 
L 299.511442 226.765771 
L 301.859038 223.049418 
L 304.017578 219.204348 
L 305.979428 215.241382 
L 307.737629 211.171815 
L 309.285931 207.007374 
L 310.61882 202.76017 
L 311.731538 198.442646 
L 312.620111 194.067534 
L 313.281358 189.647797 
L 313.712913 185.196579 
L 313.913228 180.727154 
L 313.928571 179.1 
L 313.928571 179.1 
" clip-path="url(#p000dae971c)" style="fill: none; stroke: #1f77b4; stroke-width: 1.5; stroke-linecap: square"/>
   </g>
   <g id="patch_3">
    <path d="M 320.4 179.1 
C 320.4 161.253776 316.884683 143.581083 310.055228 127.093322 
C 303.225774 110.60556 293.214998 95.623375 280.595812 83.004188 
C 267.976625 70.385002 252.99444 60.374226 236.506678 53.544772 
C 220.018917 46.715317 202.346224 43.2 184.5 43.2 
C 166.653776 43.2 148.981083 46.715317 132.493322 53.544772 
C 116.00556 60.374226 101.023375 70.385002 88.404188 83.004188 
C 75.785002 95.623375 65.774226 110.60556 58.944772 127.093322 
C 52.115317 143.581083 48.6 161.253776 48.6 179.1 
C 48.6 196.946224 52.115317 214.618917 58.944772 231.106678 
C 65.774226 247.59444 75.785002 262.576625 88.404188 275.195812 
C 101.023375 287.814998 116.00556 297.825774 132.493322 304.655228 
C 148.981083 311.484683 166.653776 315 184.5 315 
C 202.346224 315 220.018917 311.484683 236.506678 304.655228 
C 252.99444 297.825774 267.976625 287.814998 280.595812 275.195812 
C 293.214998 262.576625 303.225774 247.59444 310.055228 231.106678 
C 316.884683 214.618917 320.4 196.946224 320.4 179.1 
" style="fill: none; stroke: #000000; stroke-width: 0.8; stroke-linejoin: miter; stroke-linecap: square"/>
   </g>
  </g>
 </g>
 <defs>
  <clipPath id="p000dae971c">
   <path d="M 320.4 179.1 
C 320.4 161.253776 316.884683 143.581083 310.055228 127.093322 
C 303.225774 110.60556 293.214998 95.623375 280.595812 83.004188 
C 267.976625 70.385002 252.99444 60.374226 236.506678 53.544772 
C 220.018917 46.715317 202.346224 43.2 184.5 43.2 
C 166.653776 43.2 148.981083 46.715317 132.493322 53.544772 
C 116.00556 60.374226 101.023375 70.385002 88.404188 83.004188 
C 75.785002 95.623375 65.774226 110.60556 58.944772 127.093322 
C 52.115317 143.581083 48.6 161.253776 48.6 179.1 
C 48.6 196.946224 52.115317 214.618917 58.944772 231.106678 
C 65.774226 247.59444 75.785002 262.576625 88.404188 275.195812 
C 101.023375 287.814998 116.00556 297.825774 132.493322 304.655228 
C 148.981083 311.484683 166.653776 315 184.5 315 
C 202.346224 315 220.018917 311.484683 236.506678 304.655228 
C 252.99444 297.825774 267.976625 287.814998 280.595812 275.195812 
C 293.214998 262.576625 303.225774 247.59444 310.055228 231.106678 
C 316.884683 214.618917 320.4 196.946224 320.4 179.1 
M 184.5 179.1 
C 184.5 179.1 184.5 179.1 184.5 179.1 
C 184.5 179.1 184.5 179.1 184.5 179.1 
C 184.5 179.1 184.5 179.1 184.5 179.1 
C 184.5 179.1 184.5 179.1 184.5 179.1 
C 184.5 179.1 184.5 179.1 184.5 179.1 
C 184.5 179.1 184.5 179.1 184.5 179.1 
C 184.5 179.1 184.5 179.1 184.5 179.1 
C 184.5 179.1 184.5 179.1 184.5 179.1 
C 184.5 179.1 184.5 179.1 184.5 179.1 
C 184.5 179.1 184.5 179.1 184.5 179.1 
C 184.5 179.1 184.5 179.1 184.5 179.1 
C 184.5 179.1 184.5 179.1 184.5 179.1 
C 184.5 179.1 184.5 179.1 184.5 179.1 
C 184.5 179.1 184.5 179.1 184.5 179.1 
C 184.5 179.1 184.5 179.1 184.5 179.1 
C 184.5 179.1 184.5 179.1 184.5 179.1 
M 320.4 179.1 
z
"/>
  </clipPath>
 </defs>
</svg>
