<?xml version="1.0" encoding="utf-8" standalone="no"?>
<!DOCTYPE svg PUBLIC "-//W3C//DTD SVG 1.1//EN"
  "http://www.w3.org/Graphics/SVG/1.1/DTD/svg11.dtd">
<svg xmlns:xlink="http://www.w3.org/1999/xlink" width="360pt" height="360pt" viewBox="0 0 360 360" xmlns="http://www.w3.org/2000/svg" version="1.1">
 <metadata>
  <rdf:RDF xmlns:dc="http://purl.org/dc/elements/1.1/" xmlns:cc="http://creativecommons.org/ns#" xmlns:rdf="http://www.w3.org/1999/02/22-rdf-syntax-ns#">
   <cc:Work>
    <dc:type rdf:resource="http://purl.org/dc/dcmitype/StillImage"/>
    <dc:date>2024-06-24T17:54:35.901863</dc:date>
    <dc:format>image/svg+xml</dc:format>
    <dc:creator>
     <cc:Agent>
      <dc:title>Matplotlib v3.5.2, https://matplotlib.org/</dc:title>
     </cc:Agent>
    </dc:creator>
   </cc:Work>
  </rdf:RDF>
 </metadata>
 <defs>
  <style type="text/css">*{stroke-linejoin: round; stroke-linecap: butt}</style>
 </defs>
 <g id="figure_1">
  <g id="patch_1">
   <path d="M 0 360 
L 360 360 
L 360 0 
L 0 0 
z
" style="fill: #ffffff"/>
  </g>
  <g id="axes_1">
   <g id="patch_2">
    <path d="M 320.4 179.1 
C 320.4 161.253776 316.884683 143.581083 310.055228 127.093322 
C 303.225774 110.60556 293.214998 95.623375 280.595812 83.004188 
C 267.976625 70.385002 252.99444 60.374226 236.506678 53.544772 
C 220.018917 46.715317 202.346224 43.2 184.5 43.2 
C 166.653776 43.2 148.981083 46.715317 132.493322 53.544772 
C 116.00556 60.374226 101.023375 70.385002 88.404188 83.004188 
C 75.785002 95.623375 65.774226 110.60556 58.944772 127.093322 
C 52.115317 143.581083 48.6 161.253776 48.6 179.1 
C 48.6 196.946224 52.115317 214.618917 58.944772 231.106678 
C 65.774226 247.59444 75.785002 262.576625 88.404188 275.195812 
C 101.023375 287.814998 116.00556 297.825774 132.493322 304.655228 
C 148.981083 311.484683 166.653776 315 184.5 315 
C 202.346224 315 220.018917 311.484683 236.506678 304.655228 
C 252.99444 297.825774 267.976625 287.814998 280.595812 275.195812 
C 293.214998 262.576625 303.225774 247.59444 310.055228 231.106678 
C 316.884683 214.618917 320.4 196.946224 320.4 179.1 
M 184.5 179.1 
C 184.5 179.1 184.5 179.1 184.5 179.1 
C 184.5 179.1 184.5 179.1 184.5 179.1 
C 184.5 179.1 184.5 179.1 184.5 179.1 
C 184.5 179.1 184.5 179.1 184.5 179.1 
C 184.5 179.1 184.5 179.1 184.5 179.1 
C 184.5 179.1 184.5 179.1 184.5 179.1 
C 184.5 179.1 184.5 179.1 184.5 179.1 
C 184.5 179.1 184.5 179.1 184.5 179.1 
C 184.5 179.1 184.5 179.1 184.5 179.1 
C 184.5 179.1 184.5 179.1 184.5 179.1 
C 184.5 179.1 184.5 179.1 184.5 179.1 
C 184.5 179.1 184.5 179.1 184.5 179.1 
C 184.5 179.1 184.5 179.1 184.5 179.1 
C 184.5 179.1 184.5 179.1 184.5 179.1 
C 184.5 179.1 184.5 179.1 184.5 179.1 
C 184.5 179.1 184.5 179.1 184.5 179.1 
M 320.4 179.1 
z
" style="fill: #ffffff"/>
   </g>
   <g id="matplotlib.axis_1">
    <g id="xtick_1">
     <g id="line2d_1">
      <path d="M 184.5 179.1 
L 320.4 179.1 
" clip-path="url(#pe8e0d15f01)" style="fill: none; stroke: #b0b0b0; stroke-width: 0.8; stroke-linecap: square"/>
     </g>
     <g id="text_1">
      <!-- 0° -->
      <g transform="translate(329.900781 181.502344)scale(0.1 -0.1)">
       <defs>
        <path id="TimesNewRomanPSMT-30" d="M 231 2094 
Q 231 2819 450 3342 
Q 669 3866 1031 4122 
Q 1313 4325 1613 4325 
Q 2100 4325 2488 3828 
Q 2972 3213 2972 2159 
Q 2972 1422 2759 906 
Q 2547 391 2217 158 
Q 1888 -75 1581 -75 
Q 975 -75 572 641 
Q 231 1244 231 2094 
z
M 844 2016 
Q 844 1141 1059 588 
Q 1238 122 1591 122 
Q 1759 122 1940 273 
Q 2122 425 2216 781 
Q 2359 1319 2359 2297 
Q 2359 3022 2209 3506 
Q 2097 3866 1919 4016 
Q 1791 4119 1609 4119 
Q 1397 4119 1231 3928 
Q 1006 3669 925 3112 
Q 844 2556 844 2016 
z
" transform="scale(0.015625)"/>
        <path id="TimesNewRomanPSMT-b0" d="M 1266 4331 
Q 1669 4331 1948 4050 
Q 2228 3769 2228 3369 
Q 2228 2972 1947 2690 
Q 1666 2409 1266 2409 
Q 869 2409 587 2690 
Q 306 2972 306 3369 
Q 306 3769 586 4050 
Q 866 4331 1266 4331 
z
M 1266 4069 
Q 975 4069 772 3866 
Q 569 3663 569 3372 
Q 569 3084 772 2879 
Q 975 2675 1266 2675 
Q 1553 2675 1758 2879 
Q 1963 3084 1963 3372 
Q 1963 3663 1759 3866 
Q 1556 4069 1266 4069 
z
" transform="scale(0.015625)"/>
       </defs>
       <use xlink:href="#TimesNewRomanPSMT-30"/>
       <use xlink:href="#TimesNewRomanPSMT-b0" x="50"/>
      </g>
     </g>
    </g>
    <g id="xtick_2">
     <g id="line2d_2">
      <path d="M 184.5 179.1 
L 280.595812 83.004188 
" clip-path="url(#pe8e0d15f01)" style="fill: none; stroke: #b0b0b0; stroke-width: 0.8; stroke-linecap: square"/>
     </g>
     <g id="text_2">
      <!-- 45° -->
      <g transform="translate(283.496088 75.507037)scale(0.1 -0.1)">
       <defs>
        <path id="TimesNewRomanPSMT-34" d="M 2978 1563 
L 2978 1119 
L 2409 1119 
L 2409 0 
L 1894 0 
L 1894 1119 
L 100 1119 
L 100 1519 
L 2066 4325 
L 2409 4325 
L 2409 1563 
L 2978 1563 
z
M 1894 1563 
L 1894 3666 
L 406 1563 
L 1894 1563 
z
" transform="scale(0.015625)"/>
        <path id="TimesNewRomanPSMT-35" d="M 2778 4238 
L 2534 3706 
L 1259 3706 
L 981 3138 
Q 1809 3016 2294 2522 
Q 2709 2097 2709 1522 
Q 2709 1188 2573 903 
Q 2438 619 2231 419 
Q 2025 219 1772 97 
Q 1413 -75 1034 -75 
Q 653 -75 479 54 
Q 306 184 306 341 
Q 306 428 378 495 
Q 450 563 559 563 
Q 641 563 702 538 
Q 763 513 909 409 
Q 1144 247 1384 247 
Q 1750 247 2026 523 
Q 2303 800 2303 1197 
Q 2303 1581 2056 1914 
Q 1809 2247 1375 2428 
Q 1034 2569 447 2591 
L 1259 4238 
L 2778 4238 
z
" transform="scale(0.015625)"/>
       </defs>
       <use xlink:href="#TimesNewRomanPSMT-34"/>
       <use xlink:href="#TimesNewRomanPSMT-35" x="50"/>
       <use xlink:href="#TimesNewRomanPSMT-b0" x="100"/>
      </g>
     </g>
    </g>
    <g id="xtick_3">
     <g id="line2d_3">
      <path d="M 184.5 179.1 
L 184.5 43.2 
" clip-path="url(#pe8e0d15f01)" style="fill: none; stroke: #b0b0b0; stroke-width: 0.8; stroke-linecap: square"/>
     </g>
     <g id="text_3">
      <!-- 90° -->
      <g transform="translate(177.500781 31.602344)scale(0.1 -0.1)">
       <defs>
        <path id="TimesNewRomanPSMT-39" d="M 338 -88 
L 338 28 
Q 744 34 1094 217 
Q 1444 400 1770 856 
Q 2097 1313 2225 1859 
Q 1734 1544 1338 1544 
Q 891 1544 572 1889 
Q 253 2234 253 2806 
Q 253 3363 572 3797 
Q 956 4325 1575 4325 
Q 2097 4325 2469 3894 
Q 2925 3359 2925 2575 
Q 2925 1869 2578 1258 
Q 2231 647 1613 244 
Q 1109 -88 516 -88 
L 338 -88 
z
M 2275 2091 
Q 2331 2497 2331 2741 
Q 2331 3044 2228 3395 
Q 2125 3747 1936 3934 
Q 1747 4122 1506 4122 
Q 1228 4122 1018 3872 
Q 809 3622 809 3128 
Q 809 2469 1088 2097 
Q 1291 1828 1588 1828 
Q 1731 1828 1928 1897 
Q 2125 1966 2275 2091 
z
" transform="scale(0.015625)"/>
       </defs>
       <use xlink:href="#TimesNewRomanPSMT-39"/>
       <use xlink:href="#TimesNewRomanPSMT-30" x="50"/>
       <use xlink:href="#TimesNewRomanPSMT-b0" x="100"/>
      </g>
     </g>
    </g>
    <g id="xtick_4">
     <g id="line2d_4">
      <path d="M 184.5 179.1 
L 88.404188 83.004188 
" clip-path="url(#pe8e0d15f01)" style="fill: none; stroke: #b0b0b0; stroke-width: 0.8; stroke-linecap: square"/>
     </g>
     <g id="text_4">
      <!-- 135° -->
      <g transform="translate(69.005475 75.507037)scale(0.1 -0.1)">
       <defs>
        <path id="TimesNewRomanPSMT-31" d="M 750 3822 
L 1781 4325 
L 1884 4325 
L 1884 747 
Q 1884 391 1914 303 
Q 1944 216 2037 169 
Q 2131 122 2419 116 
L 2419 0 
L 825 0 
L 825 116 
Q 1125 122 1212 167 
Q 1300 213 1334 289 
Q 1369 366 1369 747 
L 1369 3034 
Q 1369 3497 1338 3628 
Q 1316 3728 1258 3775 
Q 1200 3822 1119 3822 
Q 1003 3822 797 3725 
L 750 3822 
z
" transform="scale(0.015625)"/>
        <path id="TimesNewRomanPSMT-33" d="M 325 3431 
Q 506 3859 782 4092 
Q 1059 4325 1472 4325 
Q 1981 4325 2253 3994 
Q 2459 3747 2459 3466 
Q 2459 3003 1878 2509 
Q 2269 2356 2469 2072 
Q 2669 1788 2669 1403 
Q 2669 853 2319 450 
Q 1863 -75 997 -75 
Q 569 -75 414 31 
Q 259 138 259 259 
Q 259 350 332 419 
Q 406 488 509 488 
Q 588 488 669 463 
Q 722 447 909 348 
Q 1097 250 1169 231 
Q 1284 197 1416 197 
Q 1734 197 1970 444 
Q 2206 691 2206 1028 
Q 2206 1275 2097 1509 
Q 2016 1684 1919 1775 
Q 1784 1900 1550 2001 
Q 1316 2103 1072 2103 
L 972 2103 
L 972 2197 
Q 1219 2228 1467 2375 
Q 1716 2522 1828 2728 
Q 1941 2934 1941 3181 
Q 1941 3503 1739 3701 
Q 1538 3900 1238 3900 
Q 753 3900 428 3381 
L 325 3431 
z
" transform="scale(0.015625)"/>
       </defs>
       <use xlink:href="#TimesNewRomanPSMT-31"/>
       <use xlink:href="#TimesNewRomanPSMT-33" x="50"/>
       <use xlink:href="#TimesNewRomanPSMT-35" x="100"/>
       <use xlink:href="#TimesNewRomanPSMT-b0" x="150"/>
      </g>
     </g>
    </g>
    <g id="xtick_5">
     <g id="line2d_5">
      <path d="M 184.5 179.1 
L 48.6 179.1 
" clip-path="url(#pe8e0d15f01)" style="fill: none; stroke: #b0b0b0; stroke-width: 0.8; stroke-linecap: square"/>
     </g>
     <g id="text_5">
      <!-- 180° -->
      <g transform="translate(25.100781 181.502344)scale(0.1 -0.1)">
       <defs>
        <path id="TimesNewRomanPSMT-38" d="M 1228 2134 
Q 725 2547 579 2797 
Q 434 3047 434 3316 
Q 434 3728 753 4026 
Q 1072 4325 1600 4325 
Q 2113 4325 2425 4047 
Q 2738 3769 2738 3413 
Q 2738 3175 2569 2928 
Q 2400 2681 1866 2347 
Q 2416 1922 2594 1678 
Q 2831 1359 2831 1006 
Q 2831 559 2490 242 
Q 2150 -75 1597 -75 
Q 994 -75 656 303 
Q 388 606 388 966 
Q 388 1247 577 1523 
Q 766 1800 1228 2134 
z
M 1719 2469 
Q 2094 2806 2194 3001 
Q 2294 3197 2294 3444 
Q 2294 3772 2109 3958 
Q 1925 4144 1606 4144 
Q 1288 4144 1088 3959 
Q 888 3775 888 3528 
Q 888 3366 970 3203 
Q 1053 3041 1206 2894 
L 1719 2469 
z
M 1375 2016 
Q 1116 1797 991 1539 
Q 866 1281 866 981 
Q 866 578 1086 336 
Q 1306 94 1647 94 
Q 1984 94 2187 284 
Q 2391 475 2391 747 
Q 2391 972 2272 1150 
Q 2050 1481 1375 2016 
z
" transform="scale(0.015625)"/>
       </defs>
       <use xlink:href="#TimesNewRomanPSMT-31"/>
       <use xlink:href="#TimesNewRomanPSMT-38" x="50"/>
       <use xlink:href="#TimesNewRomanPSMT-30" x="100"/>
       <use xlink:href="#TimesNewRomanPSMT-b0" x="150"/>
      </g>
     </g>
    </g>
    <g id="xtick_6">
     <g id="line2d_6">
      <path d="M 184.5 179.1 
L 88.404188 275.195812 
" clip-path="url(#pe8e0d15f01)" style="fill: none; stroke: #b0b0b0; stroke-width: 0.8; stroke-linecap: square"/>
     </g>
     <g id="text_6">
      <!-- 225° -->
      <g transform="translate(69.005475 287.49765)scale(0.1 -0.1)">
       <defs>
        <path id="TimesNewRomanPSMT-32" d="M 2934 816 
L 2638 0 
L 138 0 
L 138 116 
Q 1241 1122 1691 1759 
Q 2141 2397 2141 2925 
Q 2141 3328 1894 3587 
Q 1647 3847 1303 3847 
Q 991 3847 742 3664 
Q 494 3481 375 3128 
L 259 3128 
Q 338 3706 661 4015 
Q 984 4325 1469 4325 
Q 1984 4325 2329 3994 
Q 2675 3663 2675 3213 
Q 2675 2891 2525 2569 
Q 2294 2063 1775 1497 
Q 997 647 803 472 
L 1909 472 
Q 2247 472 2383 497 
Q 2519 522 2628 598 
Q 2738 675 2819 816 
L 2934 816 
z
" transform="scale(0.015625)"/>
       </defs>
       <use xlink:href="#TimesNewRomanPSMT-32"/>
       <use xlink:href="#TimesNewRomanPSMT-32" x="50"/>
       <use xlink:href="#TimesNewRomanPSMT-35" x="100"/>
       <use xlink:href="#TimesNewRomanPSMT-b0" x="150"/>
      </g>
     </g>
    </g>
    <g id="xtick_7">
     <g id="line2d_7">
      <path d="M 184.5 179.1 
L 184.5 315 
" clip-path="url(#pe8e0d15f01)" style="fill: none; stroke: #b0b0b0; stroke-width: 0.8; stroke-linecap: square"/>
     </g>
     <g id="text_7">
      <!-- 270° -->
      <g transform="translate(175.000781 331.402344)scale(0.1 -0.1)">
       <defs>
        <path id="TimesNewRomanPSMT-37" d="M 644 4238 
L 2916 4238 
L 2916 4119 
L 1503 -88 
L 1153 -88 
L 2419 3728 
L 1253 3728 
Q 900 3728 750 3644 
Q 488 3500 328 3200 
L 238 3234 
L 644 4238 
z
" transform="scale(0.015625)"/>
       </defs>
       <use xlink:href="#TimesNewRomanPSMT-32"/>
       <use xlink:href="#TimesNewRomanPSMT-37" x="50"/>
       <use xlink:href="#TimesNewRomanPSMT-30" x="100"/>
       <use xlink:href="#TimesNewRomanPSMT-b0" x="150"/>
      </g>
     </g>
    </g>
    <g id="xtick_8">
     <g id="line2d_8">
      <path d="M 184.5 179.1 
L 280.595812 275.195812 
" clip-path="url(#pe8e0d15f01)" style="fill: none; stroke: #b0b0b0; stroke-width: 0.8; stroke-linecap: square"/>
     </g>
     <g id="text_8">
      <!-- 315° -->
      <g transform="translate(280.996088 287.49765)scale(0.1 -0.1)">
       <use xlink:href="#TimesNewRomanPSMT-33"/>
       <use xlink:href="#TimesNewRomanPSMT-31" x="50"/>
       <use xlink:href="#TimesNewRomanPSMT-35" x="100"/>
       <use xlink:href="#TimesNewRomanPSMT-b0" x="150"/>
      </g>
     </g>
    </g>
   </g>
   <g id="matplotlib.axis_2">
    <g id="ytick_1">
     <g id="line2d_9">
      <path d="M 200.939537 179.1 
C 200.939537 176.94118 200.514296 174.803351 199.688152 172.808862 
C 198.862007 170.814372 197.651024 169.002008 196.124508 167.475492 
C 194.597992 165.948976 192.785628 164.737993 190.791138 163.911848 
C 188.796649 163.085704 186.65882 162.660463 184.5 162.660463 
C 182.34118 162.660463 180.203351 163.085704 178.208862 163.911848 
C 176.214372 164.737993 174.402008 165.948976 172.875492 167.475492 
C 171.348976 169.002008 170.137993 170.814372 169.311848 172.808862 
C 168.485704 174.803351 168.060463 176.94118 168.060463 179.1 
C 168.060463 181.25882 168.485704 183.396649 169.311848 185.391138 
C 170.137993 187.385628 171.348976 189.197992 172.875492 190.724508 
C 174.402008 192.251024 176.214372 193.462007 178.208862 194.288152 
C 180.203351 195.114296 182.34118 195.539537 184.5 195.539537 
C 186.65882 195.539537 188.796649 195.114296 190.791138 194.288152 
C 192.785628 193.462007 194.597992 192.251024 196.124508 190.724508 
C 197.651024 189.197992 198.862007 187.385628 199.688152 185.391138 
C 200.514296 183.396649 200.939537 181.25882 200.939537 179.1 
" clip-path="url(#pe8e0d15f01)" style="fill: none; stroke: #b0b0b0; stroke-width: 0.8; stroke-linecap: square"/>
     </g>
    </g>
    <g id="ytick_2">
     <g id="line2d_10">
      <path d="M 217.379074 179.1 
C 217.379074 174.78236 216.528593 170.506703 214.876303 166.517723 
C 213.224014 162.528744 210.802049 158.904017 207.749016 155.850984 
C 204.695983 152.797951 201.071256 150.375986 197.082277 148.723697 
C 193.093297 147.071407 188.81764 146.220926 184.5 146.220926 
C 180.18236 146.220926 175.906703 147.071407 171.917723 148.723697 
C 167.928744 150.375986 164.304017 152.797951 161.250984 155.850984 
C 158.197951 158.904017 155.775986 162.528744 154.123697 166.517723 
C 152.471407 170.506703 151.620926 174.78236 151.620926 179.1 
C 151.620926 183.41764 152.471407 187.693297 154.123697 191.682277 
C 155.775986 195.671256 158.197951 199.295983 161.250984 202.349016 
C 164.304017 205.402049 167.928744 207.824014 171.917723 209.476303 
C 175.906703 211.128593 180.18236 211.979074 184.5 211.979074 
C 188.81764 211.979074 193.093297 211.128593 197.082277 209.476303 
C 201.071256 207.824014 204.695983 205.402049 207.749016 202.349016 
C 210.802049 199.295983 213.224014 195.671256 214.876303 191.682277 
C 216.528593 187.693297 217.379074 183.41764 217.379074 179.1 
" clip-path="url(#pe8e0d15f01)" style="fill: none; stroke: #b0b0b0; stroke-width: 0.8; stroke-linecap: square"/>
     </g>
    </g>
    <g id="ytick_3">
     <g id="line2d_11">
      <path d="M 233.81861 179.1 
C 233.81861 172.623539 232.542889 166.210054 230.064455 160.226585 
C 227.58602 154.243116 223.953073 148.806025 219.373524 144.226476 
C 214.793975 139.646927 209.356884 136.01398 203.373415 133.535545 
C 197.389946 131.057111 190.976461 129.78139 184.5 129.78139 
C 178.023539 129.78139 171.610054 131.057111 165.626585 133.535545 
C 159.643116 136.01398 154.206025 139.646927 149.626476 144.226476 
C 145.046927 148.806025 141.41398 154.243116 138.935545 160.226585 
C 136.457111 166.210054 135.18139 172.623539 135.18139 179.1 
C 135.18139 185.576461 136.457111 191.989946 138.935545 197.973415 
C 141.41398 203.956884 145.046927 209.393975 149.626476 213.973524 
C 154.206025 218.553073 159.643116 222.18602 165.626585 224.664455 
C 171.610054 227.142889 178.023539 228.41861 184.5 228.41861 
C 190.976461 228.41861 197.389946 227.142889 203.373415 224.664455 
C 209.356884 222.18602 214.793975 218.553073 219.373524 213.973524 
C 223.953073 209.393975 227.58602 203.956884 230.064455 197.973415 
C 232.542889 191.989946 233.81861 185.576461 233.81861 179.1 
" clip-path="url(#pe8e0d15f01)" style="fill: none; stroke: #b0b0b0; stroke-width: 0.8; stroke-linecap: square"/>
     </g>
    </g>
    <g id="ytick_4">
     <g id="line2d_12">
      <path d="M 250.258147 179.1 
C 250.258147 170.464719 248.557185 161.913406 245.252606 153.935447 
C 241.948027 145.957487 237.104097 138.708034 230.998032 132.601968 
C 224.891966 126.495903 217.642513 121.651973 209.664553 118.347394 
C 201.686594 115.042815 193.135281 113.341853 184.5 113.341853 
C 175.864719 113.341853 167.313406 115.042815 159.335447 118.347394 
C 151.357487 121.651973 144.108034 126.495903 138.001968 132.601968 
C 131.895903 138.708034 127.051973 145.957487 123.747394 153.935447 
C 120.442815 161.913406 118.741853 170.464719 118.741853 179.1 
C 118.741853 187.735281 120.442815 196.286594 123.747394 204.264553 
C 127.051973 212.242513 131.895903 219.491966 138.001968 225.598032 
C 144.108034 231.704097 151.357487 236.548027 159.335447 239.852606 
C 167.313406 243.157185 175.864719 244.858147 184.5 244.858147 
C 193.135281 244.858147 201.686594 243.157185 209.664553 239.852606 
C 217.642513 236.548027 224.891966 231.704097 230.998032 225.598032 
C 237.104097 219.491966 241.948027 212.242513 245.252606 204.264553 
C 248.557185 196.286594 250.258147 187.735281 250.258147 179.1 
" clip-path="url(#pe8e0d15f01)" style="fill: none; stroke: #b0b0b0; stroke-width: 0.8; stroke-linecap: square"/>
     </g>
    </g>
    <g id="ytick_5">
     <g id="line2d_13">
      <path d="M 266.697684 179.1 
C 266.697684 168.305899 264.571481 157.616757 260.440758 147.644308 
C 256.310034 137.671859 250.255122 128.610042 242.62254 120.97746 
C 234.989958 113.344878 225.928141 107.289966 215.955692 103.159242 
C 205.983243 99.028519 195.294101 96.902316 184.5 96.902316 
C 173.705899 96.902316 163.016757 99.028519 153.044308 103.159242 
C 143.071859 107.289966 134.010042 113.344878 126.37746 120.97746 
C 118.744878 128.610042 112.689966 137.671859 108.559242 147.644308 
C 104.428519 157.616757 102.302316 168.305899 102.302316 179.1 
C 102.302316 189.894101 104.428519 200.583243 108.559242 210.555692 
C 112.689966 220.528141 118.744878 229.589958 126.37746 237.22254 
C 134.010042 244.855122 143.071859 250.910034 153.044308 255.040758 
C 163.016757 259.171481 173.705899 261.297684 184.5 261.297684 
C 195.294101 261.297684 205.983243 259.171481 215.955692 255.040758 
C 225.928141 250.910034 234.989958 244.855122 242.62254 237.22254 
C 250.255122 229.589958 256.310034 220.528141 260.440758 210.555692 
C 264.571481 200.583243 266.697684 189.894101 266.697684 179.1 
" clip-path="url(#pe8e0d15f01)" style="fill: none; stroke: #b0b0b0; stroke-width: 0.8; stroke-linecap: square"/>
     </g>
    </g>
    <g id="ytick_6">
     <g id="line2d_14">
      <path d="M 283.137221 179.1 
C 283.137221 166.147079 280.585778 153.320109 275.628909 141.35317 
C 270.672041 129.386231 263.406146 118.512051 254.247048 109.352952 
C 245.087949 100.193854 234.213769 92.927959 222.24683 87.971091 
C 210.279891 83.014222 197.452921 80.462779 184.5 80.462779 
C 171.547079 80.462779 158.720109 83.014222 146.75317 87.971091 
C 134.786231 92.927959 123.912051 100.193854 114.752952 109.352952 
C 105.593854 118.512051 98.327959 129.386231 93.371091 141.35317 
C 88.414222 153.320109 85.862779 166.147079 85.862779 179.1 
C 85.862779 192.052921 88.414222 204.879891 93.371091 216.84683 
C 98.327959 228.813769 105.593854 239.687949 114.752952 248.847048 
C 123.912051 258.006146 134.786231 265.272041 146.75317 270.228909 
C 158.720109 275.185778 171.547079 277.737221 184.5 277.737221 
C 197.452921 277.737221 210.279891 275.185778 222.24683 270.228909 
C 234.213769 265.272041 245.087949 258.006146 254.247048 248.847048 
C 263.406146 239.687949 270.672041 228.813769 275.628909 216.84683 
C 280.585778 204.879891 283.137221 192.052921 283.137221 179.1 
" clip-path="url(#pe8e0d15f01)" style="fill: none; stroke: #b0b0b0; stroke-width: 0.8; stroke-linecap: square"/>
     </g>
    </g>
    <g id="ytick_7">
     <g id="line2d_15">
      <path d="M 299.576757 179.1 
C 299.576757 163.988259 296.600074 149.02346 290.817061 135.062032 
C 285.034048 121.100603 276.55717 108.414059 265.871555 97.728445 
C 255.185941 87.04283 242.499397 78.565952 228.537968 72.782939 
C 214.57654 66.999926 199.611741 64.023243 184.5 64.023243 
C 169.388259 64.023243 154.42346 66.999926 140.462032 72.782939 
C 126.500603 78.565952 113.814059 87.04283 103.128445 97.728445 
C 92.44283 108.414059 83.965952 121.100603 78.182939 135.062032 
C 72.399926 149.02346 69.423243 163.988259 69.423243 179.1 
C 69.423243 194.211741 72.399926 209.17654 78.182939 223.137968 
C 83.965952 237.099397 92.44283 249.785941 103.128445 260.471555 
C 113.814059 271.15717 126.500603 279.634048 140.462032 285.417061 
C 154.42346 291.200074 169.388259 294.176757 184.5 294.176757 
C 199.611741 294.176757 214.57654 291.200074 228.537968 285.417061 
C 242.499397 279.634048 255.185941 271.15717 265.871555 260.471555 
C 276.55717 249.785941 285.034048 237.099397 290.817061 223.137968 
C 296.600074 209.17654 299.576757 194.211741 299.576757 179.1 
" clip-path="url(#pe8e0d15f01)" style="fill: none; stroke: #b0b0b0; stroke-width: 0.8; stroke-linecap: square"/>
     </g>
    </g>
    <g id="ytick_8">
     <g id="line2d_16">
      <path d="M 316.016294 179.1 
C 316.016294 161.829439 312.61437 144.726811 306.005212 128.770893 
C 299.396055 112.814975 289.708195 98.316068 277.496063 86.103937 
C 265.283932 73.891805 250.785025 64.203945 234.829107 57.594788 
C 218.873189 50.98563 201.770561 47.583706 184.5 47.583706 
C 167.229439 47.583706 150.126811 50.98563 134.170893 57.594788 
C 118.214975 64.203945 103.716068 73.891805 91.503937 86.103937 
C 79.291805 98.316068 69.603945 112.814975 62.994788 128.770893 
C 56.38563 144.726811 52.983706 161.829439 52.983706 179.1 
C 52.983706 196.370561 56.38563 213.473189 62.994788 229.429107 
C 69.603945 245.385025 79.291805 259.883932 91.503937 272.096063 
C 103.716068 284.308195 118.214975 293.996055 134.170893 300.605212 
C 150.126811 307.21437 167.229439 310.616294 184.5 310.616294 
C 201.770561 310.616294 218.873189 307.21437 234.829107 300.605212 
C 250.785025 293.996055 265.283932 284.308195 277.496063 272.096063 
C 289.708195 259.883932 299.396055 245.385025 306.005212 229.429107 
C 312.61437 213.473189 316.016294 196.370561 316.016294 179.1 
" clip-path="url(#pe8e0d15f01)" style="fill: none; stroke: #b0b0b0; stroke-width: 0.8; stroke-linecap: square"/>
     </g>
    </g>
   </g>
   <g id="line2d_17">
    <path d="M 228.338765 179.1 
L 228.225507 175.241813 
L 227.884856 171.383665 
L 227.314172 167.52575 
L 226.54189 163.806317 
L 225.546048 160.088468 
L 224.31948 156.373683 
L 222.853375 152.66421 
L 221.205391 149.100149 
L 219.314665 145.547945 
L 217.256198 142.148401 
L 214.949459 138.770647 
L 212.488725 135.555533 
L 209.773362 132.375838 
L 206.919024 129.371327 
L 203.804398 126.419666 
L 200.568705 123.657839 
L 197.069337 120.969918 
L 193.471201 118.487769 
L 189.609863 116.103684 
L 185.677753 113.941373 
L 181.703961 112.002065 
L 177.491071 110.19293 
L 173.27418 108.617316 
L 168.833957 107.195652 
L 164.433489 106.013258 
L 159.8319 105.006302 
L 155.318929 104.23762 
L 150.632941 103.661709 
L 145.779633 103.298527 
L 141.085011 103.169919 
L 136.25974 103.264771 
L 131.648594 103.571257 
L 126.945623 104.103844 
L 122.164981 104.877845 
L 117.670824 105.825908 
L 113.139524 107.006807 
L 108.588627 108.4316 
L 104.387396 109.972087 
L 100.20333 111.736209 
L 96.055078 113.730054 
L 91.962763 115.958445 
L 88.278953 118.210064 
L 84.677674 120.662919 
L 81.177148 123.316989 
L 77.796197 126.170783 
L 74.554061 129.221217 
L 71.743492 132.160993 
L 69.078333 135.254499 
L 66.573022 138.495637 
L 64.24166 141.877047 
L 62.097838 145.390116 
L 60.154454 149.025001 
L 58.423543 152.770676 
L 56.916093 156.615 
L 55.758562 160.14838 
L 54.796174 163.740789 
L 54.034155 167.381484 
L 53.476689 171.059287 
L 53.126864 174.762688 
L 52.986629 178.479943 
L 53.056769 182.199182 
L 53.33689 185.908514 
L 53.82543 189.596143 
L 54.519676 193.250467 
L 55.415805 196.860188 
L 56.50893 200.414408 
L 57.793171 203.902717 
L 59.435953 207.689368 
L 61.295736 211.369956 
L 63.360886 214.933 
L 65.618829 218.368178 
L 68.056228 221.666378 
L 70.659165 224.819739 
L 73.413317 227.821659 
L 76.304123 230.666786 
L 79.624379 233.610444 
L 83.072916 236.355576 
L 86.630697 238.89998 
L 90.279208 241.242983 
L 94.000615 243.385315 
L 98.123503 245.495918 
L 102.292087 247.374213 
L 106.486972 249.025687 
L 111.040403 250.566542 
L 115.583057 251.858681 
L 120.096403 252.912788 
L 124.564029 253.740283 
L 129.30776 254.391672 
L 133.966435 254.80929 
L 138.848826 255.014743 
L 143.605708 254.988138 
L 148.22675 254.747763 
L 152.997261 254.275652 
L 157.597307 253.600933 
L 162.293024 252.683702 
L 166.788238 251.581354 
L 171.328481 250.234745 
L 175.644269 248.725084 
L 179.959612 246.976653 
L 184.033304 245.089845 
L 188.067359 242.974928 
L 191.849215 240.747019 
L 195.558794 238.304775 
L 199.011544 235.774006 
L 202.365497 233.043952 
L 205.597632 230.119214 
L 208.563455 227.136219 
L 211.389064 223.974186 
L 213.954226 220.772713 
L 216.364032 217.405701 
L 218.520249 214.014071 
L 220.50756 210.467741 
L 222.247535 206.907709 
L 223.751649 203.338383 
L 225.074648 199.625441 
L 226.163532 195.908622 
L 227.026133 192.189697 
L 227.688298 188.331992 
L 228.118906 184.473898 
L 228.321294 180.615717 
L 228.338765 179.1 
L 228.338765 179.1 
" clip-path="url(#pe8e0d15f01)" style="fill: none; stroke: #1f77b4; stroke-width: 1.5; stroke-linecap: square"/>
   </g>
   <g id="patch_3">
    <path d="M 320.4 179.1 
C 320.4 161.253776 316.884683 143.581083 310.055228 127.093322 
C 303.225774 110.60556 293.214998 95.623375 280.595812 83.004188 
C 267.976625 70.385002 252.99444 60.374226 236.506678 53.544772 
C 220.018917 46.715317 202.346224 43.2 184.5 43.2 
C 166.653776 43.2 148.981083 46.715317 132.493322 53.544772 
C 116.00556 60.374226 101.023375 70.385002 88.404188 83.004188 
C 75.785002 95.623375 65.774226 110.60556 58.944772 127.093322 
C 52.115317 143.581083 48.6 161.253776 48.6 179.1 
C 48.6 196.946224 52.115317 214.618917 58.944772 231.106678 
C 65.774226 247.59444 75.785002 262.576625 88.404188 275.195812 
C 101.023375 287.814998 116.00556 297.825774 132.493322 304.655228 
C 148.981083 311.484683 166.653776 315 184.5 315 
C 202.346224 315 220.018917 311.484683 236.506678 304.655228 
C 252.99444 297.825774 267.976625 287.814998 280.595812 275.195812 
C 293.214998 262.576625 303.225774 247.59444 310.055228 231.106678 
C 316.884683 214.618917 320.4 196.946224 320.4 179.1 
" style="fill: none; stroke: #000000; stroke-width: 0.8; stroke-linejoin: miter; stroke-linecap: square"/>
   </g>
  </g>
 </g>
 <defs>
  <clipPath id="pe8e0d15f01">
   <path d="M 320.4 179.1 
C 320.4 161.253776 316.884683 143.581083 310.055228 127.093322 
C 303.225774 110.60556 293.214998 95.623375 280.595812 83.004188 
C 267.976625 70.385002 252.99444 60.374226 236.506678 53.544772 
C 220.018917 46.715317 202.346224 43.2 184.5 43.2 
C 166.653776 43.2 148.981083 46.715317 132.493322 53.544772 
C 116.00556 60.374226 101.023375 70.385002 88.404188 83.004188 
C 75.785002 95.623375 65.774226 110.60556 58.944772 127.093322 
C 52.115317 143.581083 48.6 161.253776 48.6 179.1 
C 48.6 196.946224 52.115317 214.618917 58.944772 231.106678 
C 65.774226 247.59444 75.785002 262.576625 88.404188 275.195812 
C 101.023375 287.814998 116.00556 297.825774 132.493322 304.655228 
C 148.981083 311.484683 166.653776 315 184.5 315 
C 202.346224 315 220.018917 311.484683 236.506678 304.655228 
C 252.99444 297.825774 267.976625 287.814998 280.595812 275.195812 
C 293.214998 262.576625 303.225774 247.59444 310.055228 231.106678 
C 316.884683 214.618917 320.4 196.946224 320.4 179.1 
M 184.5 179.1 
C 184.5 179.1 184.5 179.1 184.5 179.1 
C 184.5 179.1 184.5 179.1 184.5 179.1 
C 184.5 179.1 184.5 179.1 184.5 179.1 
C 184.5 179.1 184.5 179.1 184.5 179.1 
C 184.5 179.1 184.5 179.1 184.5 179.1 
C 184.5 179.1 184.5 179.1 184.5 179.1 
C 184.5 179.1 184.5 179.1 184.5 179.1 
C 184.5 179.1 184.5 179.1 184.5 179.1 
C 184.5 179.1 184.5 179.1 184.5 179.1 
C 184.5 179.1 184.5 179.1 184.5 179.1 
C 184.5 179.1 184.5 179.1 184.5 179.1 
C 184.5 179.1 184.5 179.1 184.5 179.1 
C 184.5 179.1 184.5 179.1 184.5 179.1 
C 184.5 179.1 184.5 179.1 184.5 179.1 
C 184.5 179.1 184.5 179.1 184.5 179.1 
C 184.5 179.1 184.5 179.1 184.5 179.1 
M 320.4 179.1 
z
"/>
  </clipPath>
 </defs>
</svg>
