<?xml version="1.0" encoding="utf-8" standalone="no"?>
<!DOCTYPE svg PUBLIC "-//W3C//DTD SVG 1.1//EN"
  "http://www.w3.org/Graphics/SVG/1.1/DTD/svg11.dtd">
<svg xmlns:xlink="http://www.w3.org/1999/xlink" width="360pt" height="360pt" viewBox="0 0 360 360" xmlns="http://www.w3.org/2000/svg" version="1.1">
 <metadata>
  <rdf:RDF xmlns:dc="http://purl.org/dc/elements/1.1/" xmlns:cc="http://creativecommons.org/ns#" xmlns:rdf="http://www.w3.org/1999/02/22-rdf-syntax-ns#">
   <cc:Work>
    <dc:type rdf:resource="http://purl.org/dc/dcmitype/StillImage"/>
    <dc:date>2024-06-24T17:54:35.688314</dc:date>
    <dc:format>image/svg+xml</dc:format>
    <dc:creator>
     <cc:Agent>
      <dc:title>Matplotlib v3.5.2, https://matplotlib.org/</dc:title>
     </cc:Agent>
    </dc:creator>
   </cc:Work>
  </rdf:RDF>
 </metadata>
 <defs>
  <style type="text/css">*{stroke-linejoin: round; stroke-linecap: butt}</style>
 </defs>
 <g id="figure_1">
  <g id="patch_1">
   <path d="M 0 360 
L 360 360 
L 360 0 
L 0 0 
z
" style="fill: #ffffff"/>
  </g>
  <g id="axes_1">
   <g id="patch_2">
    <path d="M 320.4 179.1 
C 320.4 161.253776 316.884683 143.581083 310.055228 127.093322 
C 303.225774 110.60556 293.214998 95.623375 280.595812 83.004188 
C 267.976625 70.385002 252.99444 60.374226 236.506678 53.544772 
C 220.018917 46.715317 202.346224 43.2 184.5 43.2 
C 166.653776 43.2 148.981083 46.715317 132.493322 53.544772 
C 116.00556 60.374226 101.023375 70.385002 88.404188 83.004188 
C 75.785002 95.623375 65.774226 110.60556 58.944772 127.093322 
C 52.115317 143.581083 48.6 161.253776 48.6 179.1 
C 48.6 196.946224 52.115317 214.618917 58.944772 231.106678 
C 65.774226 247.59444 75.785002 262.576625 88.404188 275.195812 
C 101.023375 287.814998 116.00556 297.825774 132.493322 304.655228 
C 148.981083 311.484683 166.653776 315 184.5 315 
C 202.346224 315 220.018917 311.484683 236.506678 304.655228 
C 252.99444 297.825774 267.976625 287.814998 280.595812 275.195812 
C 293.214998 262.576625 303.225774 247.59444 310.055228 231.106678 
C 316.884683 214.618917 320.4 196.946224 320.4 179.1 
M 184.5 179.1 
C 184.5 179.1 184.5 179.1 184.5 179.1 
C 184.5 179.1 184.5 179.1 184.5 179.1 
C 184.5 179.1 184.5 179.1 184.5 179.1 
C 184.5 179.1 184.5 179.1 184.5 179.1 
C 184.5 179.1 184.5 179.1 184.5 179.1 
C 184.5 179.1 184.5 179.1 184.5 179.1 
C 184.5 179.1 184.5 179.1 184.5 179.1 
C 184.5 179.1 184.5 179.1 184.5 179.1 
C 184.5 179.1 184.5 179.1 184.5 179.1 
C 184.5 179.1 184.5 179.1 184.5 179.1 
C 184.5 179.1 184.5 179.1 184.5 179.1 
C 184.5 179.1 184.5 179.1 184.5 179.1 
C 184.5 179.1 184.5 179.1 184.5 179.1 
C 184.5 179.1 184.5 179.1 184.5 179.1 
C 184.5 179.1 184.5 179.1 184.5 179.1 
C 184.5 179.1 184.5 179.1 184.5 179.1 
M 320.4 179.1 
z
" style="fill: #ffffff"/>
   </g>
   <g id="matplotlib.axis_1">
    <g id="xtick_1">
     <g id="line2d_1">
      <path d="M 184.5 179.1 
L 320.4 179.1 
" clip-path="url(#pf324fe5d98)" style="fill: none; stroke: #b0b0b0; stroke-width: 0.8; stroke-linecap: square"/>
     </g>
     <g id="text_1">
      <!-- 0° -->
      <g transform="translate(329.900781 181.502344)scale(0.1 -0.1)">
       <defs>
        <path id="TimesNewRomanPSMT-30" d="M 231 2094 
Q 231 2819 450 3342 
Q 669 3866 1031 4122 
Q 1313 4325 1613 4325 
Q 2100 4325 2488 3828 
Q 2972 3213 2972 2159 
Q 2972 1422 2759 906 
Q 2547 391 2217 158 
Q 1888 -75 1581 -75 
Q 975 -75 572 641 
Q 231 1244 231 2094 
z
M 844 2016 
Q 844 1141 1059 588 
Q 1238 122 1591 122 
Q 1759 122 1940 273 
Q 2122 425 2216 781 
Q 2359 1319 2359 2297 
Q 2359 3022 2209 3506 
Q 2097 3866 1919 4016 
Q 1791 4119 1609 4119 
Q 1397 4119 1231 3928 
Q 1006 3669 925 3112 
Q 844 2556 844 2016 
z
" transform="scale(0.015625)"/>
        <path id="TimesNewRomanPSMT-b0" d="M 1266 4331 
Q 1669 4331 1948 4050 
Q 2228 3769 2228 3369 
Q 2228 2972 1947 2690 
Q 1666 2409 1266 2409 
Q 869 2409 587 2690 
Q 306 2972 306 3369 
Q 306 3769 586 4050 
Q 866 4331 1266 4331 
z
M 1266 4069 
Q 975 4069 772 3866 
Q 569 3663 569 3372 
Q 569 3084 772 2879 
Q 975 2675 1266 2675 
Q 1553 2675 1758 2879 
Q 1963 3084 1963 3372 
Q 1963 3663 1759 3866 
Q 1556 4069 1266 4069 
z
" transform="scale(0.015625)"/>
       </defs>
       <use xlink:href="#TimesNewRomanPSMT-30"/>
       <use xlink:href="#TimesNewRomanPSMT-b0" x="50"/>
      </g>
     </g>
    </g>
    <g id="xtick_2">
     <g id="line2d_2">
      <path d="M 184.5 179.1 
L 280.595812 83.004188 
" clip-path="url(#pf324fe5d98)" style="fill: none; stroke: #b0b0b0; stroke-width: 0.8; stroke-linecap: square"/>
     </g>
     <g id="text_2">
      <!-- 45° -->
      <g transform="translate(283.496088 75.507037)scale(0.1 -0.1)">
       <defs>
        <path id="TimesNewRomanPSMT-34" d="M 2978 1563 
L 2978 1119 
L 2409 1119 
L 2409 0 
L 1894 0 
L 1894 1119 
L 100 1119 
L 100 1519 
L 2066 4325 
L 2409 4325 
L 2409 1563 
L 2978 1563 
z
M 1894 1563 
L 1894 3666 
L 406 1563 
L 1894 1563 
z
" transform="scale(0.015625)"/>
        <path id="TimesNewRomanPSMT-35" d="M 2778 4238 
L 2534 3706 
L 1259 3706 
L 981 3138 
Q 1809 3016 2294 2522 
Q 2709 2097 2709 1522 
Q 2709 1188 2573 903 
Q 2438 619 2231 419 
Q 2025 219 1772 97 
Q 1413 -75 1034 -75 
Q 653 -75 479 54 
Q 306 184 306 341 
Q 306 428 378 495 
Q 450 563 559 563 
Q 641 563 702 538 
Q 763 513 909 409 
Q 1144 247 1384 247 
Q 1750 247 2026 523 
Q 2303 800 2303 1197 
Q 2303 1581 2056 1914 
Q 1809 2247 1375 2428 
Q 1034 2569 447 2591 
L 1259 4238 
L 2778 4238 
z
" transform="scale(0.015625)"/>
       </defs>
       <use xlink:href="#TimesNewRomanPSMT-34"/>
       <use xlink:href="#TimesNewRomanPSMT-35" x="50"/>
       <use xlink:href="#TimesNewRomanPSMT-b0" x="100"/>
      </g>
     </g>
    </g>
    <g id="xtick_3">
     <g id="line2d_3">
      <path d="M 184.5 179.1 
L 184.5 43.2 
" clip-path="url(#pf324fe5d98)" style="fill: none; stroke: #b0b0b0; stroke-width: 0.8; stroke-linecap: square"/>
     </g>
     <g id="text_3">
      <!-- 90° -->
      <g transform="translate(177.500781 31.602344)scale(0.1 -0.1)">
       <defs>
        <path id="TimesNewRomanPSMT-39" d="M 338 -88 
L 338 28 
Q 744 34 1094 217 
Q 1444 400 1770 856 
Q 2097 1313 2225 1859 
Q 1734 1544 1338 1544 
Q 891 1544 572 1889 
Q 253 2234 253 2806 
Q 253 3363 572 3797 
Q 956 4325 1575 4325 
Q 2097 4325 2469 3894 
Q 2925 3359 2925 2575 
Q 2925 1869 2578 1258 
Q 2231 647 1613 244 
Q 1109 -88 516 -88 
L 338 -88 
z
M 2275 2091 
Q 2331 2497 2331 2741 
Q 2331 3044 2228 3395 
Q 2125 3747 1936 3934 
Q 1747 4122 1506 4122 
Q 1228 4122 1018 3872 
Q 809 3622 809 3128 
Q 809 2469 1088 2097 
Q 1291 1828 1588 1828 
Q 1731 1828 1928 1897 
Q 2125 1966 2275 2091 
z
" transform="scale(0.015625)"/>
       </defs>
       <use xlink:href="#TimesNewRomanPSMT-39"/>
       <use xlink:href="#TimesNewRomanPSMT-30" x="50"/>
       <use xlink:href="#TimesNewRomanPSMT-b0" x="100"/>
      </g>
     </g>
    </g>
    <g id="xtick_4">
     <g id="line2d_4">
      <path d="M 184.5 179.1 
L 88.404188 83.004188 
" clip-path="url(#pf324fe5d98)" style="fill: none; stroke: #b0b0b0; stroke-width: 0.8; stroke-linecap: square"/>
     </g>
     <g id="text_4">
      <!-- 135° -->
      <g transform="translate(69.005475 75.507037)scale(0.1 -0.1)">
       <defs>
        <path id="TimesNewRomanPSMT-31" d="M 750 3822 
L 1781 4325 
L 1884 4325 
L 1884 747 
Q 1884 391 1914 303 
Q 1944 216 2037 169 
Q 2131 122 2419 116 
L 2419 0 
L 825 0 
L 825 116 
Q 1125 122 1212 167 
Q 1300 213 1334 289 
Q 1369 366 1369 747 
L 1369 3034 
Q 1369 3497 1338 3628 
Q 1316 3728 1258 3775 
Q 1200 3822 1119 3822 
Q 1003 3822 797 3725 
L 750 3822 
z
" transform="scale(0.015625)"/>
        <path id="TimesNewRomanPSMT-33" d="M 325 3431 
Q 506 3859 782 4092 
Q 1059 4325 1472 4325 
Q 1981 4325 2253 3994 
Q 2459 3747 2459 3466 
Q 2459 3003 1878 2509 
Q 2269 2356 2469 2072 
Q 2669 1788 2669 1403 
Q 2669 853 2319 450 
Q 1863 -75 997 -75 
Q 569 -75 414 31 
Q 259 138 259 259 
Q 259 350 332 419 
Q 406 488 509 488 
Q 588 488 669 463 
Q 722 447 909 348 
Q 1097 250 1169 231 
Q 1284 197 1416 197 
Q 1734 197 1970 444 
Q 2206 691 2206 1028 
Q 2206 1275 2097 1509 
Q 2016 1684 1919 1775 
Q 1784 1900 1550 2001 
Q 1316 2103 1072 2103 
L 972 2103 
L 972 2197 
Q 1219 2228 1467 2375 
Q 1716 2522 1828 2728 
Q 1941 2934 1941 3181 
Q 1941 3503 1739 3701 
Q 1538 3900 1238 3900 
Q 753 3900 428 3381 
L 325 3431 
z
" transform="scale(0.015625)"/>
       </defs>
       <use xlink:href="#TimesNewRomanPSMT-31"/>
       <use xlink:href="#TimesNewRomanPSMT-33" x="50"/>
       <use xlink:href="#TimesNewRomanPSMT-35" x="100"/>
       <use xlink:href="#TimesNewRomanPSMT-b0" x="150"/>
      </g>
     </g>
    </g>
    <g id="xtick_5">
     <g id="line2d_5">
      <path d="M 184.5 179.1 
L 48.6 179.1 
" clip-path="url(#pf324fe5d98)" style="fill: none; stroke: #b0b0b0; stroke-width: 0.8; stroke-linecap: square"/>
     </g>
     <g id="text_5">
      <!-- 180° -->
      <g transform="translate(25.100781 181.502344)scale(0.1 -0.1)">
       <defs>
        <path id="TimesNewRomanPSMT-38" d="M 1228 2134 
Q 725 2547 579 2797 
Q 434 3047 434 3316 
Q 434 3728 753 4026 
Q 1072 4325 1600 4325 
Q 2113 4325 2425 4047 
Q 2738 3769 2738 3413 
Q 2738 3175 2569 2928 
Q 2400 2681 1866 2347 
Q 2416 1922 2594 1678 
Q 2831 1359 2831 1006 
Q 2831 559 2490 242 
Q 2150 -75 1597 -75 
Q 994 -75 656 303 
Q 388 606 388 966 
Q 388 1247 577 1523 
Q 766 1800 1228 2134 
z
M 1719 2469 
Q 2094 2806 2194 3001 
Q 2294 3197 2294 3444 
Q 2294 3772 2109 3958 
Q 1925 4144 1606 4144 
Q 1288 4144 1088 3959 
Q 888 3775 888 3528 
Q 888 3366 970 3203 
Q 1053 3041 1206 2894 
L 1719 2469 
z
M 1375 2016 
Q 1116 1797 991 1539 
Q 866 1281 866 981 
Q 866 578 1086 336 
Q 1306 94 1647 94 
Q 1984 94 2187 284 
Q 2391 475 2391 747 
Q 2391 972 2272 1150 
Q 2050 1481 1375 2016 
z
" transform="scale(0.015625)"/>
       </defs>
       <use xlink:href="#TimesNewRomanPSMT-31"/>
       <use xlink:href="#TimesNewRomanPSMT-38" x="50"/>
       <use xlink:href="#TimesNewRomanPSMT-30" x="100"/>
       <use xlink:href="#TimesNewRomanPSMT-b0" x="150"/>
      </g>
     </g>
    </g>
    <g id="xtick_6">
     <g id="line2d_6">
      <path d="M 184.5 179.1 
L 88.404188 275.195812 
" clip-path="url(#pf324fe5d98)" style="fill: none; stroke: #b0b0b0; stroke-width: 0.8; stroke-linecap: square"/>
     </g>
     <g id="text_6">
      <!-- 225° -->
      <g transform="translate(69.005475 287.49765)scale(0.1 -0.1)">
       <defs>
        <path id="TimesNewRomanPSMT-32" d="M 2934 816 
L 2638 0 
L 138 0 
L 138 116 
Q 1241 1122 1691 1759 
Q 2141 2397 2141 2925 
Q 2141 3328 1894 3587 
Q 1647 3847 1303 3847 
Q 991 3847 742 3664 
Q 494 3481 375 3128 
L 259 3128 
Q 338 3706 661 4015 
Q 984 4325 1469 4325 
Q 1984 4325 2329 3994 
Q 2675 3663 2675 3213 
Q 2675 2891 2525 2569 
Q 2294 2063 1775 1497 
Q 997 647 803 472 
L 1909 472 
Q 2247 472 2383 497 
Q 2519 522 2628 598 
Q 2738 675 2819 816 
L 2934 816 
z
" transform="scale(0.015625)"/>
       </defs>
       <use xlink:href="#TimesNewRomanPSMT-32"/>
       <use xlink:href="#TimesNewRomanPSMT-32" x="50"/>
       <use xlink:href="#TimesNewRomanPSMT-35" x="100"/>
       <use xlink:href="#TimesNewRomanPSMT-b0" x="150"/>
      </g>
     </g>
    </g>
    <g id="xtick_7">
     <g id="line2d_7">
      <path d="M 184.5 179.1 
L 184.5 315 
" clip-path="url(#pf324fe5d98)" style="fill: none; stroke: #b0b0b0; stroke-width: 0.8; stroke-linecap: square"/>
     </g>
     <g id="text_7">
      <!-- 270° -->
      <g transform="translate(175.000781 331.402344)scale(0.1 -0.1)">
       <defs>
        <path id="TimesNewRomanPSMT-37" d="M 644 4238 
L 2916 4238 
L 2916 4119 
L 1503 -88 
L 1153 -88 
L 2419 3728 
L 1253 3728 
Q 900 3728 750 3644 
Q 488 3500 328 3200 
L 238 3234 
L 644 4238 
z
" transform="scale(0.015625)"/>
       </defs>
       <use xlink:href="#TimesNewRomanPSMT-32"/>
       <use xlink:href="#TimesNewRomanPSMT-37" x="50"/>
       <use xlink:href="#TimesNewRomanPSMT-30" x="100"/>
       <use xlink:href="#TimesNewRomanPSMT-b0" x="150"/>
      </g>
     </g>
    </g>
    <g id="xtick_8">
     <g id="line2d_8">
      <path d="M 184.5 179.1 
L 280.595812 275.195812 
" clip-path="url(#pf324fe5d98)" style="fill: none; stroke: #b0b0b0; stroke-width: 0.8; stroke-linecap: square"/>
     </g>
     <g id="text_8">
      <!-- 315° -->
      <g transform="translate(280.996088 287.49765)scale(0.1 -0.1)">
       <use xlink:href="#TimesNewRomanPSMT-33"/>
       <use xlink:href="#TimesNewRomanPSMT-31" x="50"/>
       <use xlink:href="#TimesNewRomanPSMT-35" x="100"/>
       <use xlink:href="#TimesNewRomanPSMT-b0" x="150"/>
      </g>
     </g>
    </g>
   </g>
   <g id="matplotlib.axis_2">
    <g id="ytick_1">
     <g id="line2d_9">
      <path d="M 201.4875 179.1 
C 201.4875 176.869222 201.048085 174.660135 200.194404 172.599165 
C 199.340722 170.538195 198.089375 168.665422 196.511976 167.088024 
C 194.934578 165.510625 193.061805 164.259278 191.000835 163.405596 
C 188.939865 162.551915 186.730778 162.1125 184.5 162.1125 
C 182.269222 162.1125 180.060135 162.551915 177.999165 163.405596 
C 175.938195 164.259278 174.065422 165.510625 172.488024 167.088024 
C 170.910625 168.665422 169.659278 170.538195 168.805596 172.599165 
C 167.951915 174.660135 167.5125 176.869222 167.5125 179.1 
C 167.5125 181.330778 167.951915 183.539865 168.805596 185.600835 
C 169.659278 187.661805 170.910625 189.534578 172.488024 191.111976 
C 174.065422 192.689375 175.938195 193.940722 177.999165 194.794404 
C 180.060135 195.648085 182.269222 196.0875 184.5 196.0875 
C 186.730778 196.0875 188.939865 195.648085 191.000835 194.794404 
C 193.061805 193.940722 194.934578 192.689375 196.511976 191.111976 
C 198.089375 189.534578 199.340722 187.661805 200.194404 185.600835 
C 201.048085 183.539865 201.4875 181.330778 201.4875 179.1 
" clip-path="url(#pf324fe5d98)" style="fill: none; stroke: #b0b0b0; stroke-width: 0.8; stroke-linecap: square"/>
     </g>
    </g>
    <g id="ytick_2">
     <g id="line2d_10">
      <path d="M 218.475 179.1 
C 218.475 174.638444 217.596171 170.220271 215.888807 166.09833 
C 214.181444 161.97639 211.678749 158.230844 208.523953 155.076047 
C 205.369156 151.921251 201.62361 149.418556 197.50167 147.711193 
C 193.379729 146.003829 188.961556 145.125 184.5 145.125 
C 180.038444 145.125 175.620271 146.003829 171.49833 147.711193 
C 167.37639 149.418556 163.630844 151.921251 160.476047 155.076047 
C 157.321251 158.230844 154.818556 161.97639 153.111193 166.09833 
C 151.403829 170.220271 150.525 174.638444 150.525 179.1 
C 150.525 183.561556 151.403829 187.979729 153.111193 192.10167 
C 154.818556 196.22361 157.321251 199.969156 160.476047 203.123953 
C 163.630844 206.278749 167.37639 208.781444 171.49833 210.488807 
C 175.620271 212.196171 180.038444 213.075 184.5 213.075 
C 188.961556 213.075 193.379729 212.196171 197.50167 210.488807 
C 201.62361 208.781444 205.369156 206.278749 208.523953 203.123953 
C 211.678749 199.969156 214.181444 196.22361 215.888807 192.10167 
C 217.596171 187.979729 218.475 183.561556 218.475 179.1 
" clip-path="url(#pf324fe5d98)" style="fill: none; stroke: #b0b0b0; stroke-width: 0.8; stroke-linecap: square"/>
     </g>
    </g>
    <g id="ytick_3">
     <g id="line2d_11">
      <path d="M 235.4625 179.1 
C 235.4625 172.407666 234.144256 165.780406 231.583211 159.597496 
C 229.022165 153.414585 225.268124 147.796266 220.535929 143.064071 
C 215.803734 138.331876 210.185415 134.577835 204.002504 132.016789 
C 197.819594 129.455744 191.192334 128.1375 184.5 128.1375 
C 177.807666 128.1375 171.180406 129.455744 164.997496 132.016789 
C 158.814585 134.577835 153.196266 138.331876 148.464071 143.064071 
C 143.731876 147.796266 139.977835 153.414585 137.416789 159.597496 
C 134.855744 165.780406 133.5375 172.407666 133.5375 179.1 
C 133.5375 185.792334 134.855744 192.419594 137.416789 198.602504 
C 139.977835 204.785415 143.731876 210.403734 148.464071 215.135929 
C 153.196266 219.868124 158.814585 223.622165 164.997496 226.183211 
C 171.180406 228.744256 177.807666 230.0625 184.5 230.0625 
C 191.192334 230.0625 197.819594 228.744256 204.002504 226.183211 
C 210.185415 223.622165 215.803734 219.868124 220.535929 215.135929 
C 225.268124 210.403734 229.022165 204.785415 231.583211 198.602504 
C 234.144256 192.419594 235.4625 185.792334 235.4625 179.1 
" clip-path="url(#pf324fe5d98)" style="fill: none; stroke: #b0b0b0; stroke-width: 0.8; stroke-linecap: square"/>
     </g>
    </g>
    <g id="ytick_4">
     <g id="line2d_12">
      <path d="M 252.45 179.1 
C 252.45 170.176888 250.692341 161.340542 247.277614 153.096661 
C 243.862887 144.85278 238.857499 137.361687 232.547906 131.052094 
C 226.238313 124.742501 218.74722 119.737113 210.503339 116.322386 
C 202.259458 112.907659 193.423112 111.15 184.5 111.15 
C 175.576888 111.15 166.740542 112.907659 158.496661 116.322386 
C 150.25278 119.737113 142.761687 124.742501 136.452094 131.052094 
C 130.142501 137.361687 125.137113 144.85278 121.722386 153.096661 
C 118.307659 161.340542 116.55 170.176888 116.55 179.1 
C 116.55 188.023112 118.307659 196.859458 121.722386 205.103339 
C 125.137113 213.34722 130.142501 220.838313 136.452094 227.147906 
C 142.761687 233.457499 150.25278 238.462887 158.496661 241.877614 
C 166.740542 245.292341 175.576888 247.05 184.5 247.05 
C 193.423112 247.05 202.259458 245.292341 210.503339 241.877614 
C 218.74722 238.462887 226.238313 233.457499 232.547906 227.147906 
C 238.857499 220.838313 243.862887 213.34722 247.277614 205.103339 
C 250.692341 196.859458 252.45 188.023112 252.45 179.1 
" clip-path="url(#pf324fe5d98)" style="fill: none; stroke: #b0b0b0; stroke-width: 0.8; stroke-linecap: square"/>
     </g>
    </g>
    <g id="ytick_5">
     <g id="line2d_13">
      <path d="M 269.4375 179.1 
C 269.4375 167.94611 267.240427 156.900677 262.972018 146.595826 
C 258.703609 136.290975 252.446874 126.927109 244.559882 119.040118 
C 236.672891 111.153126 227.309025 104.896391 217.004174 100.627982 
C 206.699323 96.359573 195.65389 94.1625 184.5 94.1625 
C 173.34611 94.1625 162.300677 96.359573 151.995826 100.627982 
C 141.690975 104.896391 132.327109 111.153126 124.440118 119.040118 
C 116.553126 126.927109 110.296391 136.290975 106.027982 146.595826 
C 101.759573 156.900677 99.5625 167.94611 99.5625 179.1 
C 99.5625 190.25389 101.759573 201.299323 106.027982 211.604174 
C 110.296391 221.909025 116.553126 231.272891 124.440118 239.159882 
C 132.327109 247.046874 141.690975 253.303609 151.995826 257.572018 
C 162.300677 261.840427 173.34611 264.0375 184.5 264.0375 
C 195.65389 264.0375 206.699323 261.840427 217.004174 257.572018 
C 227.309025 253.303609 236.672891 247.046874 244.559882 239.159882 
C 252.446874 231.272891 258.703609 221.909025 262.972018 211.604174 
C 267.240427 201.299323 269.4375 190.25389 269.4375 179.1 
" clip-path="url(#pf324fe5d98)" style="fill: none; stroke: #b0b0b0; stroke-width: 0.8; stroke-linecap: square"/>
     </g>
    </g>
    <g id="ytick_6">
     <g id="line2d_14">
      <path d="M 286.425 179.1 
C 286.425 165.715332 283.788512 152.460812 278.666421 140.094991 
C 273.544331 127.72917 266.036248 116.492531 256.571859 107.028141 
C 247.107469 97.563752 235.87083 90.055669 223.505009 84.933579 
C 211.139188 79.811488 197.884668 77.175 184.5 77.175 
C 171.115332 77.175 157.860812 79.811488 145.494991 84.933579 
C 133.12917 90.055669 121.892531 97.563752 112.428141 107.028141 
C 102.963752 116.492531 95.455669 127.72917 90.333579 140.094991 
C 85.211488 152.460812 82.575 165.715332 82.575 179.1 
C 82.575 192.484668 85.211488 205.739188 90.333579 218.105009 
C 95.455669 230.47083 102.963752 241.707469 112.428141 251.171859 
C 121.892531 260.636248 133.12917 268.144331 145.494991 273.266421 
C 157.860812 278.388512 171.115332 281.025 184.5 281.025 
C 197.884668 281.025 211.139188 278.388512 223.505009 273.266421 
C 235.87083 268.144331 247.107469 260.636248 256.571859 251.171859 
C 266.036248 241.707469 273.544331 230.47083 278.666421 218.105009 
C 283.788512 205.739188 286.425 192.484668 286.425 179.1 
" clip-path="url(#pf324fe5d98)" style="fill: none; stroke: #b0b0b0; stroke-width: 0.8; stroke-linecap: square"/>
     </g>
    </g>
    <g id="ytick_7">
     <g id="line2d_15">
      <path d="M 303.4125 179.1 
C 303.4125 163.484554 300.336598 148.020948 294.360825 133.594156 
C 288.385052 119.167365 279.625623 106.057953 268.583835 95.016165 
C 257.542047 83.974377 244.432635 75.214948 230.005844 69.239175 
C 215.579052 63.263402 200.115446 60.1875 184.5 60.1875 
C 168.884554 60.1875 153.420948 63.263402 138.994156 69.239175 
C 124.567365 75.214948 111.457953 83.974377 100.416165 95.016165 
C 89.374377 106.057953 80.614948 119.167365 74.639175 133.594156 
C 68.663402 148.020948 65.5875 163.484554 65.5875 179.1 
C 65.5875 194.715446 68.663402 210.179052 74.639175 224.605844 
C 80.614948 239.032635 89.374377 252.142047 100.416165 263.183835 
C 111.457953 274.225623 124.567365 282.985052 138.994156 288.960825 
C 153.420948 294.936598 168.884554 298.0125 184.5 298.0125 
C 200.115446 298.0125 215.579052 294.936598 230.005844 288.960825 
C 244.432635 282.985052 257.542047 274.225623 268.583835 263.183835 
C 279.625623 252.142047 288.385052 239.032635 294.360825 224.605844 
C 300.336598 210.179052 303.4125 194.715446 303.4125 179.1 
" clip-path="url(#pf324fe5d98)" style="fill: none; stroke: #b0b0b0; stroke-width: 0.8; stroke-linecap: square"/>
     </g>
    </g>
    <g id="ytick_8">
     <g id="line2d_16">
      <path d="M 320.4 179.1 
C 320.4 161.253776 316.884683 143.581083 310.055228 127.093322 
C 303.225774 110.60556 293.214998 95.623375 280.595812 83.004188 
C 267.976625 70.385002 252.99444 60.374226 236.506678 53.544772 
C 220.018917 46.715317 202.346224 43.2 184.5 43.2 
C 166.653776 43.2 148.981083 46.715317 132.493322 53.544772 
C 116.00556 60.374226 101.023375 70.385002 88.404188 83.004188 
C 75.785002 95.623375 65.774226 110.60556 58.944772 127.093322 
C 52.115317 143.581083 48.6 161.253776 48.6 179.1 
C 48.6 196.946224 52.115317 214.618917 58.944772 231.106678 
C 65.774226 247.59444 75.785002 262.576625 88.404188 275.195812 
C 101.023375 287.814998 116.00556 297.825774 132.493322 304.655228 
C 148.981083 311.484683 166.653776 315 184.5 315 
C 202.346224 315 220.018917 311.484683 236.506678 304.655228 
C 252.99444 297.825774 267.976625 287.814998 280.595812 275.195812 
C 293.214998 262.576625 303.225774 247.59444 310.055228 231.106678 
C 316.884683 214.618917 320.4 196.946224 320.4 179.1 
" clip-path="url(#pf324fe5d98)" style="fill: none; stroke: #b0b0b0; stroke-width: 0.8; stroke-linecap: square"/>
     </g>
    </g>
   </g>
   <g id="line2d_17">
    <path d="M 252.45 179.1 
L 252.314566 174.811972 
L 251.908803 170.541038 
L 251.234328 166.304222 
L 250.293831 162.118414 
L 249.091061 158.0003 
L 247.630812 153.966295 
L 245.918904 150.03248 
L 243.962163 146.214537 
L 241.768388 142.527686 
L 239.346325 138.986622 
L 236.705628 135.605462 
L 233.856825 132.397684 
L 230.81127 129.376075 
L 227.581105 126.55268 
L 224.179206 123.938754 
L 220.619135 121.544717 
L 216.915081 119.380112 
L 213.081812 117.453569 
L 209.134607 115.772766 
L 205.089202 114.344404 
L 200.961722 113.174176 
L 196.768621 112.266749 
L 192.526613 111.625738 
L 188.252609 111.2537 
L 183.963646 111.152117 
L 179.676821 111.321394 
L 175.409222 111.760856 
L 171.177862 112.468752 
L 166.999608 113.44226 
L 162.891116 114.677499 
L 158.868763 116.169545 
L 154.948584 117.91245 
L 151.146205 119.899266 
L 147.476785 122.122074 
L 143.954949 124.572013 
L 140.594738 127.239316 
L 137.409547 130.113352 
L 134.412072 133.182662 
L 131.614262 136.435012 
L 129.02727 139.857438 
L 126.661408 143.436296 
L 124.526109 147.157319 
L 122.629882 151.005676 
L 120.980288 154.966025 
L 119.583903 159.022579 
L 118.446292 163.159168 
L 117.57199 167.359301 
L 116.964483 171.606236 
L 116.626193 175.883044 
L 116.558467 180.172675 
L 116.761577 184.45803 
L 117.234711 188.722027 
L 117.975985 192.947668 
L 118.982443 197.118107 
L 120.250073 201.216721 
L 121.773822 205.227171 
L 123.547616 209.133471 
L 125.564384 212.920049 
L 127.816087 216.57181 
L 130.293749 220.074197 
L 132.987492 223.413249 
L 135.88658 226.575656 
L 138.979455 229.54881 
L 142.253788 232.320861 
L 145.696527 234.880758 
L 149.293948 237.218297 
L 153.03171 239.324158 
L 156.894915 241.189949 
L 160.868161 242.808231 
L 164.935611 244.172553 
L 169.08105 245.277477 
L 173.287954 246.118598 
L 177.539552 246.692564 
L 181.818897 246.997085 
L 186.108929 247.030949 
L 190.392548 246.79402 
L 194.652677 246.287243 
L 198.872335 245.512638 
L 203.0347 244.473293 
L 207.12318 243.17335 
L 211.121478 241.617993 
L 215.013655 239.81342 
L 218.784196 237.766826 
L 222.418069 235.486368 
L 225.90079 232.981138 
L 229.218476 230.261122 
L 232.3579 227.337163 
L 235.306549 224.220916 
L 238.052668 220.924804 
L 240.58531 217.461966 
L 242.89438 213.846206 
L 244.970673 210.091938 
L 246.805912 206.214126 
L 248.392781 202.22823 
L 249.724955 198.150138 
L 250.797123 193.996106 
L 251.605011 189.782694 
L 252.145399 185.526698 
L 252.416133 181.245083 
L 252.45 179.1 
L 252.45 179.1 
" clip-path="url(#pf324fe5d98)" style="fill: none; stroke: #1f77b4; stroke-width: 1.5; stroke-linecap: square"/>
   </g>
   <g id="patch_3">
    <path d="M 320.4 179.1 
C 320.4 161.253776 316.884683 143.581083 310.055228 127.093322 
C 303.225774 110.60556 293.214998 95.623375 280.595812 83.004188 
C 267.976625 70.385002 252.99444 60.374226 236.506678 53.544772 
C 220.018917 46.715317 202.346224 43.2 184.5 43.2 
C 166.653776 43.2 148.981083 46.715317 132.493322 53.544772 
C 116.00556 60.374226 101.023375 70.385002 88.404188 83.004188 
C 75.785002 95.623375 65.774226 110.60556 58.944772 127.093322 
C 52.115317 143.581083 48.6 161.253776 48.6 179.1 
C 48.6 196.946224 52.115317 214.618917 58.944772 231.106678 
C 65.774226 247.59444 75.785002 262.576625 88.404188 275.195812 
C 101.023375 287.814998 116.00556 297.825774 132.493322 304.655228 
C 148.981083 311.484683 166.653776 315 184.5 315 
C 202.346224 315 220.018917 311.484683 236.506678 304.655228 
C 252.99444 297.825774 267.976625 287.814998 280.595812 275.195812 
C 293.214998 262.576625 303.225774 247.59444 310.055228 231.106678 
C 316.884683 214.618917 320.4 196.946224 320.4 179.1 
" style="fill: none; stroke: #000000; stroke-width: 0.8; stroke-linejoin: miter; stroke-linecap: square"/>
   </g>
  </g>
 </g>
 <defs>
  <clipPath id="pf324fe5d98">
   <path d="M 320.4 179.1 
C 320.4 161.253776 316.884683 143.581083 310.055228 127.093322 
C 303.225774 110.60556 293.214998 95.623375 280.595812 83.004188 
C 267.976625 70.385002 252.99444 60.374226 236.506678 53.544772 
C 220.018917 46.715317 202.346224 43.2 184.5 43.2 
C 166.653776 43.2 148.981083 46.715317 132.493322 53.544772 
C 116.00556 60.374226 101.023375 70.385002 88.404188 83.004188 
C 75.785002 95.623375 65.774226 110.60556 58.944772 127.093322 
C 52.115317 143.581083 48.6 161.253776 48.6 179.1 
C 48.6 196.946224 52.115317 214.618917 58.944772 231.106678 
C 65.774226 247.59444 75.785002 262.576625 88.404188 275.195812 
C 101.023375 287.814998 116.00556 297.825774 132.493322 304.655228 
C 148.981083 311.484683 166.653776 315 184.5 315 
C 202.346224 315 220.018917 311.484683 236.506678 304.655228 
C 252.99444 297.825774 267.976625 287.814998 280.595812 275.195812 
C 293.214998 262.576625 303.225774 247.59444 310.055228 231.106678 
C 316.884683 214.618917 320.4 196.946224 320.4 179.1 
M 184.5 179.1 
C 184.5 179.1 184.5 179.1 184.5 179.1 
C 184.5 179.1 184.5 179.1 184.5 179.1 
C 184.5 179.1 184.5 179.1 184.5 179.1 
C 184.5 179.1 184.5 179.1 184.5 179.1 
C 184.5 179.1 184.5 179.1 184.5 179.1 
C 184.5 179.1 184.5 179.1 184.5 179.1 
C 184.5 179.1 184.5 179.1 184.5 179.1 
C 184.5 179.1 184.5 179.1 184.5 179.1 
C 184.5 179.1 184.5 179.1 184.5 179.1 
C 184.5 179.1 184.5 179.1 184.5 179.1 
C 184.5 179.1 184.5 179.1 184.5 179.1 
C 184.5 179.1 184.5 179.1 184.5 179.1 
C 184.5 179.1 184.5 179.1 184.5 179.1 
C 184.5 179.1 184.5 179.1 184.5 179.1 
C 184.5 179.1 184.5 179.1 184.5 179.1 
C 184.5 179.1 184.5 179.1 184.5 179.1 
M 320.4 179.1 
z
"/>
  </clipPath>
 </defs>
</svg>
