<?xml version="1.0" encoding="utf-8" standalone="no"?>
<!DOCTYPE svg PUBLIC "-//W3C//DTD SVG 1.1//EN"
  "http://www.w3.org/Graphics/SVG/1.1/DTD/svg11.dtd">
<svg xmlns:xlink="http://www.w3.org/1999/xlink" width="360pt" height="360pt" viewBox="0 0 360 360" xmlns="http://www.w3.org/2000/svg" version="1.1">
 <metadata>
  <rdf:RDF xmlns:dc="http://purl.org/dc/elements/1.1/" xmlns:cc="http://creativecommons.org/ns#" xmlns:rdf="http://www.w3.org/1999/02/22-rdf-syntax-ns#">
   <cc:Work>
    <dc:type rdf:resource="http://purl.org/dc/dcmitype/StillImage"/>
    <dc:date>2024-07-30T19:42:00.586129</dc:date>
    <dc:format>image/svg+xml</dc:format>
    <dc:creator>
     <cc:Agent>
      <dc:title>Matplotlib v3.9.1, https://matplotlib.org/</dc:title>
     </cc:Agent>
    </dc:creator>
   </cc:Work>
  </rdf:RDF>
 </metadata>
 <defs>
  <style type="text/css">*{stroke-linejoin: round; stroke-linecap: butt}</style>
 </defs>
 <g id="figure_1">
  <g id="patch_1">
   <path d="M 0 360 
L 360 360 
L 360 0 
L 0 0 
z
" style="fill: #ffffff"/>
  </g>
  <g id="axes_1">
   <g id="patch_2">
    <path d="M 320.4 179.1 
C 320.4 161.253776 316.884683 143.581083 310.055228 127.093322 
C 303.225774 110.60556 293.214998 95.623375 280.595812 83.004188 
C 267.976625 70.385002 252.99444 60.374226 236.506678 53.544772 
C 220.018917 46.715317 202.346224 43.2 184.5 43.2 
C 166.653776 43.2 148.981083 46.715317 132.493322 53.544772 
C 116.00556 60.374226 101.023375 70.385002 88.404188 83.004188 
C 75.785002 95.623375 65.774226 110.60556 58.944772 127.093322 
C 52.115317 143.581083 48.6 161.253776 48.6 179.1 
C 48.6 196.946224 52.115317 214.618917 58.944772 231.106678 
C 65.774226 247.59444 75.785002 262.576625 88.404188 275.195812 
C 101.023375 287.814998 116.00556 297.825774 132.493322 304.655228 
C 148.981083 311.484683 166.653776 315 184.5 315 
C 202.346224 315 220.018917 311.484683 236.506678 304.655228 
C 252.99444 297.825774 267.976625 287.814998 280.595812 275.195812 
C 293.214998 262.576625 303.225774 247.59444 310.055228 231.106678 
C 316.884683 214.618917 320.4 196.946224 320.4 179.1 
M 184.5 179.1 
C 184.5 179.1 184.5 179.1 184.5 179.1 
C 184.5 179.1 184.5 179.1 184.5 179.1 
C 184.5 179.1 184.5 179.1 184.5 179.1 
C 184.5 179.1 184.5 179.1 184.5 179.1 
C 184.5 179.1 184.5 179.1 184.5 179.1 
C 184.5 179.1 184.5 179.1 184.5 179.1 
C 184.5 179.1 184.5 179.1 184.5 179.1 
C 184.5 179.1 184.5 179.1 184.5 179.1 
C 184.5 179.1 184.5 179.1 184.5 179.1 
C 184.5 179.1 184.5 179.1 184.5 179.1 
C 184.5 179.1 184.5 179.1 184.5 179.1 
C 184.5 179.1 184.5 179.1 184.5 179.1 
C 184.5 179.1 184.5 179.1 184.5 179.1 
C 184.5 179.1 184.5 179.1 184.5 179.1 
C 184.5 179.1 184.5 179.1 184.5 179.1 
C 184.5 179.1 184.5 179.1 184.5 179.1 
z
" style="fill: #ffffff"/>
   </g>
   <g id="matplotlib.axis_1">
    <g id="xtick_1">
     <g id="line2d_1">
      <path d="M 184.5 179.1 
L 320.4 179.1 
" clip-path="url(#pf96c13e489)" style="fill: none; stroke: #b0b0b0; stroke-width: 0.8; stroke-linecap: square"/>
     </g>
     <g id="text_1">
      <!-- 0° -->
      <g transform="translate(328.71875 181.859375) scale(0.1 -0.1)">
       <defs>
        <path id="DejaVuSans-30" d="M 2034 4250 
Q 1547 4250 1301 3770 
Q 1056 3291 1056 2328 
Q 1056 1369 1301 889 
Q 1547 409 2034 409 
Q 2525 409 2770 889 
Q 3016 1369 3016 2328 
Q 3016 3291 2770 3770 
Q 2525 4250 2034 4250 
z
M 2034 4750 
Q 2819 4750 3233 4129 
Q 3647 3509 3647 2328 
Q 3647 1150 3233 529 
Q 2819 -91 2034 -91 
Q 1250 -91 836 529 
Q 422 1150 422 2328 
Q 422 3509 836 4129 
Q 1250 4750 2034 4750 
z
" transform="scale(0.015625)"/>
        <path id="DejaVuSans-b0" d="M 1600 4347 
Q 1350 4347 1178 4173 
Q 1006 4000 1006 3750 
Q 1006 3503 1178 3333 
Q 1350 3163 1600 3163 
Q 1850 3163 2022 3333 
Q 2194 3503 2194 3750 
Q 2194 3997 2020 4172 
Q 1847 4347 1600 4347 
z
M 1600 4750 
Q 1800 4750 1984 4673 
Q 2169 4597 2303 4453 
Q 2447 4313 2519 4134 
Q 2591 3956 2591 3750 
Q 2591 3338 2302 3052 
Q 2013 2766 1594 2766 
Q 1172 2766 890 3047 
Q 609 3328 609 3750 
Q 609 4169 896 4459 
Q 1184 4750 1600 4750 
z
" transform="scale(0.015625)"/>
       </defs>
       <use xlink:href="#DejaVuSans-30"/>
       <use xlink:href="#DejaVuSans-b0" x="63.623047"/>
      </g>
     </g>
    </g>
    <g id="xtick_2">
     <g id="line2d_2">
      <path d="M 184.5 179.1 
L 280.595812 83.004188 
" clip-path="url(#pf96c13e489)" style="fill: none; stroke: #b0b0b0; stroke-width: 0.8; stroke-linecap: square"/>
     </g>
     <g id="text_2">
      <!-- 45° -->
      <g transform="translate(281.632806 75.864069) scale(0.1 -0.1)">
       <defs>
        <path id="DejaVuSans-34" d="M 2419 4116 
L 825 1625 
L 2419 1625 
L 2419 4116 
z
M 2253 4666 
L 3047 4666 
L 3047 1625 
L 3713 1625 
L 3713 1100 
L 3047 1100 
L 3047 0 
L 2419 0 
L 2419 1100 
L 313 1100 
L 313 1709 
L 2253 4666 
z
" transform="scale(0.015625)"/>
        <path id="DejaVuSans-35" d="M 691 4666 
L 3169 4666 
L 3169 4134 
L 1269 4134 
L 1269 2991 
Q 1406 3038 1543 3061 
Q 1681 3084 1819 3084 
Q 2600 3084 3056 2656 
Q 3513 2228 3513 1497 
Q 3513 744 3044 326 
Q 2575 -91 1722 -91 
Q 1428 -91 1123 -41 
Q 819 9 494 109 
L 494 744 
Q 775 591 1075 516 
Q 1375 441 1709 441 
Q 2250 441 2565 725 
Q 2881 1009 2881 1497 
Q 2881 1984 2565 2268 
Q 2250 2553 1709 2553 
Q 1456 2553 1204 2497 
Q 953 2441 691 2322 
L 691 4666 
z
" transform="scale(0.015625)"/>
       </defs>
       <use xlink:href="#DejaVuSans-34"/>
       <use xlink:href="#DejaVuSans-35" x="63.623047"/>
       <use xlink:href="#DejaVuSans-b0" x="127.246094"/>
      </g>
     </g>
    </g>
    <g id="xtick_3">
     <g id="line2d_3">
      <path d="M 184.5 179.1 
L 184.5 43.2 
" clip-path="url(#pf96c13e489)" style="fill: none; stroke: #b0b0b0; stroke-width: 0.8; stroke-linecap: square"/>
     </g>
     <g id="text_3">
      <!-- 90° -->
      <g transform="translate(175.6375 31.959375) scale(0.1 -0.1)">
       <defs>
        <path id="DejaVuSans-39" d="M 703 97 
L 703 672 
Q 941 559 1184 500 
Q 1428 441 1663 441 
Q 2288 441 2617 861 
Q 2947 1281 2994 2138 
Q 2813 1869 2534 1725 
Q 2256 1581 1919 1581 
Q 1219 1581 811 2004 
Q 403 2428 403 3163 
Q 403 3881 828 4315 
Q 1253 4750 1959 4750 
Q 2769 4750 3195 4129 
Q 3622 3509 3622 2328 
Q 3622 1225 3098 567 
Q 2575 -91 1691 -91 
Q 1453 -91 1209 -44 
Q 966 3 703 97 
z
M 1959 2075 
Q 2384 2075 2632 2365 
Q 2881 2656 2881 3163 
Q 2881 3666 2632 3958 
Q 2384 4250 1959 4250 
Q 1534 4250 1286 3958 
Q 1038 3666 1038 3163 
Q 1038 2656 1286 2365 
Q 1534 2075 1959 2075 
z
" transform="scale(0.015625)"/>
       </defs>
       <use xlink:href="#DejaVuSans-39"/>
       <use xlink:href="#DejaVuSans-30" x="63.623047"/>
       <use xlink:href="#DejaVuSans-b0" x="127.246094"/>
      </g>
     </g>
    </g>
    <g id="xtick_4">
     <g id="line2d_4">
      <path d="M 184.5 179.1 
L 88.404188 83.004188 
" clip-path="url(#pf96c13e489)" style="fill: none; stroke: #b0b0b0; stroke-width: 0.8; stroke-linecap: square"/>
     </g>
     <g id="text_4">
      <!-- 135° -->
      <g transform="translate(66.460944 75.864069) scale(0.1 -0.1)">
       <defs>
        <path id="DejaVuSans-31" d="M 794 531 
L 1825 531 
L 1825 4091 
L 703 3866 
L 703 4441 
L 1819 4666 
L 2450 4666 
L 2450 531 
L 3481 531 
L 3481 0 
L 794 0 
L 794 531 
z
" transform="scale(0.015625)"/>
        <path id="DejaVuSans-33" d="M 2597 2516 
Q 3050 2419 3304 2112 
Q 3559 1806 3559 1356 
Q 3559 666 3084 287 
Q 2609 -91 1734 -91 
Q 1441 -91 1130 -33 
Q 819 25 488 141 
L 488 750 
Q 750 597 1062 519 
Q 1375 441 1716 441 
Q 2309 441 2620 675 
Q 2931 909 2931 1356 
Q 2931 1769 2642 2001 
Q 2353 2234 1838 2234 
L 1294 2234 
L 1294 2753 
L 1863 2753 
Q 2328 2753 2575 2939 
Q 2822 3125 2822 3475 
Q 2822 3834 2567 4026 
Q 2313 4219 1838 4219 
Q 1578 4219 1281 4162 
Q 984 4106 628 3988 
L 628 4550 
Q 988 4650 1302 4700 
Q 1616 4750 1894 4750 
Q 2613 4750 3031 4423 
Q 3450 4097 3450 3541 
Q 3450 3153 3228 2886 
Q 3006 2619 2597 2516 
z
" transform="scale(0.015625)"/>
       </defs>
       <use xlink:href="#DejaVuSans-31"/>
       <use xlink:href="#DejaVuSans-33" x="63.623047"/>
       <use xlink:href="#DejaVuSans-35" x="127.246094"/>
       <use xlink:href="#DejaVuSans-b0" x="190.869141"/>
      </g>
     </g>
    </g>
    <g id="xtick_5">
     <g id="line2d_5">
      <path d="M 184.5 179.1 
L 48.6 179.1 
" clip-path="url(#pf96c13e489)" style="fill: none; stroke: #b0b0b0; stroke-width: 0.8; stroke-linecap: square"/>
     </g>
     <g id="text_5">
      <!-- 180° -->
      <g transform="translate(22.55625 181.859375) scale(0.1 -0.1)">
       <defs>
        <path id="DejaVuSans-38" d="M 2034 2216 
Q 1584 2216 1326 1975 
Q 1069 1734 1069 1313 
Q 1069 891 1326 650 
Q 1584 409 2034 409 
Q 2484 409 2743 651 
Q 3003 894 3003 1313 
Q 3003 1734 2745 1975 
Q 2488 2216 2034 2216 
z
M 1403 2484 
Q 997 2584 770 2862 
Q 544 3141 544 3541 
Q 544 4100 942 4425 
Q 1341 4750 2034 4750 
Q 2731 4750 3128 4425 
Q 3525 4100 3525 3541 
Q 3525 3141 3298 2862 
Q 3072 2584 2669 2484 
Q 3125 2378 3379 2068 
Q 3634 1759 3634 1313 
Q 3634 634 3220 271 
Q 2806 -91 2034 -91 
Q 1263 -91 848 271 
Q 434 634 434 1313 
Q 434 1759 690 2068 
Q 947 2378 1403 2484 
z
M 1172 3481 
Q 1172 3119 1398 2916 
Q 1625 2713 2034 2713 
Q 2441 2713 2670 2916 
Q 2900 3119 2900 3481 
Q 2900 3844 2670 4047 
Q 2441 4250 2034 4250 
Q 1625 4250 1398 4047 
Q 1172 3844 1172 3481 
z
" transform="scale(0.015625)"/>
       </defs>
       <use xlink:href="#DejaVuSans-31"/>
       <use xlink:href="#DejaVuSans-38" x="63.623047"/>
       <use xlink:href="#DejaVuSans-30" x="127.246094"/>
       <use xlink:href="#DejaVuSans-b0" x="190.869141"/>
      </g>
     </g>
    </g>
    <g id="xtick_6">
     <g id="line2d_6">
      <path d="M 184.5 179.1 
L 88.404188 275.195812 
" clip-path="url(#pf96c13e489)" style="fill: none; stroke: #b0b0b0; stroke-width: 0.8; stroke-linecap: square"/>
     </g>
     <g id="text_6">
      <!-- 225° -->
      <g transform="translate(66.460944 287.854681) scale(0.1 -0.1)">
       <defs>
        <path id="DejaVuSans-32" d="M 1228 531 
L 3431 531 
L 3431 0 
L 469 0 
L 469 531 
Q 828 903 1448 1529 
Q 2069 2156 2228 2338 
Q 2531 2678 2651 2914 
Q 2772 3150 2772 3378 
Q 2772 3750 2511 3984 
Q 2250 4219 1831 4219 
Q 1534 4219 1204 4116 
Q 875 4013 500 3803 
L 500 4441 
Q 881 4594 1212 4672 
Q 1544 4750 1819 4750 
Q 2544 4750 2975 4387 
Q 3406 4025 3406 3419 
Q 3406 3131 3298 2873 
Q 3191 2616 2906 2266 
Q 2828 2175 2409 1742 
Q 1991 1309 1228 531 
z
" transform="scale(0.015625)"/>
       </defs>
       <use xlink:href="#DejaVuSans-32"/>
       <use xlink:href="#DejaVuSans-32" x="63.623047"/>
       <use xlink:href="#DejaVuSans-35" x="127.246094"/>
       <use xlink:href="#DejaVuSans-b0" x="190.869141"/>
      </g>
     </g>
    </g>
    <g id="xtick_7">
     <g id="line2d_7">
      <path d="M 184.5 179.1 
L 184.5 315 
" clip-path="url(#pf96c13e489)" style="fill: none; stroke: #b0b0b0; stroke-width: 0.8; stroke-linecap: square"/>
     </g>
     <g id="text_7">
      <!-- 270° -->
      <g transform="translate(172.45625 331.759375) scale(0.1 -0.1)">
       <defs>
        <path id="DejaVuSans-37" d="M 525 4666 
L 3525 4666 
L 3525 4397 
L 1831 0 
L 1172 0 
L 2766 4134 
L 525 4134 
L 525 4666 
z
" transform="scale(0.015625)"/>
       </defs>
       <use xlink:href="#DejaVuSans-32"/>
       <use xlink:href="#DejaVuSans-37" x="63.623047"/>
       <use xlink:href="#DejaVuSans-30" x="127.246094"/>
       <use xlink:href="#DejaVuSans-b0" x="190.869141"/>
      </g>
     </g>
    </g>
    <g id="xtick_8">
     <g id="line2d_8">
      <path d="M 184.5 179.1 
L 280.595812 275.195812 
" clip-path="url(#pf96c13e489)" style="fill: none; stroke: #b0b0b0; stroke-width: 0.8; stroke-linecap: square"/>
     </g>
     <g id="text_8">
      <!-- 315° -->
      <g transform="translate(278.451556 287.854681) scale(0.1 -0.1)">
       <use xlink:href="#DejaVuSans-33"/>
       <use xlink:href="#DejaVuSans-31" x="63.623047"/>
       <use xlink:href="#DejaVuSans-35" x="127.246094"/>
       <use xlink:href="#DejaVuSans-b0" x="190.869141"/>
      </g>
     </g>
    </g>
   </g>
   <g id="matplotlib.axis_2">
    <g id="ytick_1">
     <g id="line2d_9">
      <path d="M 200.678502 179.1 
C 200.678502 176.975459 200.260013 174.871576 199.446986 172.908756 
C 198.63396 170.945935 197.442206 169.162349 195.939928 167.660072 
C 194.437651 166.157794 192.654065 164.96604 190.691244 164.153014 
C 188.728424 163.339987 186.624541 162.921498 184.5 162.921498 
C 182.375459 162.921498 180.271576 163.339987 178.308756 164.153014 
C 176.345935 164.96604 174.562349 166.157794 173.060072 167.660072 
C 171.557794 169.162349 170.36604 170.945935 169.553014 172.908756 
C 168.739987 174.871576 168.321498 176.975459 168.321498 179.1 
C 168.321498 181.224541 168.739987 183.328424 169.553014 185.291244 
C 170.36604 187.254065 171.557794 189.037651 173.060072 190.539928 
C 174.562349 192.042206 176.345935 193.23396 178.308756 194.046986 
C 180.271576 194.860013 182.375459 195.278502 184.5 195.278502 
C 186.624541 195.278502 188.728424 194.860013 190.691244 194.046986 
C 192.654065 193.23396 194.437651 192.042206 195.939928 190.539928 
C 197.442206 189.037651 198.63396 187.254065 199.446986 185.291244 
C 200.260013 183.328424 200.678502 181.224541 200.678502 179.1 
" clip-path="url(#pf96c13e489)" style="fill: none; stroke: #b0b0b0; stroke-width: 0.8; stroke-linecap: square"/>
     </g>
    </g>
    <g id="ytick_2">
     <g id="line2d_10">
      <path d="M 216.857083 179.1 
C 216.857083 174.850907 216.020104 170.643131 214.394047 166.71748 
C 212.767989 162.79183 210.384475 159.22465 207.379913 156.220087 
C 204.37535 153.215525 200.80817 150.832011 196.88252 149.205953 
C 192.956869 147.579896 188.749093 146.742917 184.5 146.742917 
C 180.250907 146.742917 176.043131 147.579896 172.11748 149.205953 
C 168.19183 150.832011 164.62465 153.215525 161.620087 156.220087 
C 158.615525 159.22465 156.232011 162.79183 154.605953 166.71748 
C 152.979896 170.643131 152.142917 174.850907 152.142917 179.1 
C 152.142917 183.349093 152.979896 187.556869 154.605953 191.48252 
C 156.232011 195.40817 158.615525 198.97535 161.620087 201.979913 
C 164.62465 204.984475 168.19183 207.367989 172.11748 208.994047 
C 176.043131 210.620104 180.250907 211.457083 184.5 211.457083 
C 188.749093 211.457083 192.956869 210.620104 196.88252 208.994047 
C 200.80817 207.367989 204.37535 204.984475 207.379913 201.979913 
C 210.384475 198.97535 212.767989 195.40817 214.394047 191.48252 
C 216.020104 187.556869 216.857083 183.349093 216.857083 179.1 
" clip-path="url(#pf96c13e489)" style="fill: none; stroke: #b0b0b0; stroke-width: 0.8; stroke-linecap: square"/>
     </g>
    </g>
    <g id="ytick_3">
     <g id="line2d_11">
      <path d="M 233.035664 179.1 
C 233.035664 172.726355 231.780195 166.414686 229.341107 160.526205 
C 226.902019 154.637725 223.326745 149.28695 218.819897 144.780103 
C 214.31305 140.273255 208.962275 136.697981 203.073795 134.258893 
C 197.185314 131.819805 190.873645 130.564336 184.5 130.564336 
C 178.126355 130.564336 171.814686 131.819805 165.926205 134.258893 
C 160.037725 136.697981 154.68695 140.273255 150.180103 144.780103 
C 145.673255 149.28695 142.097981 154.637725 139.658893 160.526205 
C 137.219805 166.414686 135.964336 172.726355 135.964336 179.1 
C 135.964336 185.473645 137.219805 191.785314 139.658893 197.673795 
C 142.097981 203.562275 145.673255 208.91305 150.180103 213.419897 
C 154.68695 217.926745 160.037725 221.502019 165.926205 223.941107 
C 171.814686 226.380195 178.126355 227.635664 184.5 227.635664 
C 190.873645 227.635664 197.185314 226.380195 203.073795 223.941107 
C 208.962275 221.502019 214.31305 217.926745 218.819897 213.419897 
C 223.326745 208.91305 226.902019 203.562275 229.341107 197.673795 
C 231.780195 191.785314 233.035664 185.473645 233.035664 179.1 
" clip-path="url(#pf96c13e489)" style="fill: none; stroke: #b0b0b0; stroke-width: 0.8; stroke-linecap: square"/>
     </g>
    </g>
    <g id="ytick_4">
     <g id="line2d_12">
      <path d="M 249.214246 179.1 
C 249.214246 170.601803 247.540286 162.18624 244.288167 154.33493 
C 241.036048 146.48362 236.269015 139.349251 230.259882 133.340118 
C 224.250749 127.330985 217.11638 122.563952 209.26507 119.311833 
C 201.41376 116.059714 192.998197 114.385754 184.5 114.385754 
C 176.001803 114.385754 167.58624 116.059714 159.73493 119.311833 
C 151.88362 122.563952 144.749251 127.330985 138.740118 133.340118 
C 132.730985 139.349251 127.963952 146.48362 124.711833 154.33493 
C 121.459714 162.18624 119.785754 170.601803 119.785754 179.1 
C 119.785754 187.598197 121.459714 196.01376 124.711833 203.86507 
C 127.963952 211.71638 132.730985 218.850749 138.740118 224.859882 
C 144.749251 230.869015 151.88362 235.636048 159.73493 238.888167 
C 167.58624 242.140286 176.001803 243.814246 184.5 243.814246 
C 192.998197 243.814246 201.41376 242.140286 209.26507 238.888167 
C 217.11638 235.636048 224.250749 230.869015 230.259882 224.859882 
C 236.269015 218.850749 241.036048 211.71638 244.288167 203.86507 
C 247.540286 196.01376 249.214246 187.598197 249.214246 179.1 
" clip-path="url(#pf96c13e489)" style="fill: none; stroke: #b0b0b0; stroke-width: 0.8; stroke-linecap: square"/>
     </g>
    </g>
    <g id="ytick_5">
     <g id="line2d_13">
      <path d="M 265.392827 179.1 
C 265.392827 168.477251 263.300377 157.957795 259.235227 148.143655 
C 255.170077 138.329515 249.211284 129.411551 241.699867 121.900133 
C 234.188449 114.388716 225.270485 108.429923 215.456345 104.364773 
C 205.642205 100.299623 195.122749 98.207173 184.5 98.207173 
C 173.877251 98.207173 163.357795 100.299623 153.543655 104.364773 
C 143.729515 108.429923 134.811551 114.388716 127.300133 121.900133 
C 119.788716 129.411551 113.829923 138.329515 109.764773 148.143655 
C 105.699623 157.957795 103.607173 168.477251 103.607173 179.1 
C 103.607173 189.722749 105.699623 200.242205 109.764773 210.056345 
C 113.829923 219.870485 119.788716 228.788449 127.300133 236.299867 
C 134.811551 243.811284 143.729515 249.770077 153.543655 253.835227 
C 163.357795 257.900377 173.877251 259.992827 184.5 259.992827 
C 195.122749 259.992827 205.642205 257.900377 215.456345 253.835227 
C 225.270485 249.770077 234.188449 243.811284 241.699867 236.299867 
C 249.211284 228.788449 255.170077 219.870485 259.235227 210.056345 
C 263.300377 200.242205 265.392827 189.722749 265.392827 179.1 
" clip-path="url(#pf96c13e489)" style="fill: none; stroke: #b0b0b0; stroke-width: 0.8; stroke-linecap: square"/>
     </g>
    </g>
    <g id="ytick_6">
     <g id="line2d_14">
      <path d="M 281.571409 179.1 
C 281.571409 166.352699 279.060468 153.72935 274.182288 141.95238 
C 269.304107 130.17541 262.153554 119.473851 253.139851 110.460149 
C 244.126149 101.446446 233.42459 94.295893 221.64762 89.417712 
C 209.87065 84.539532 197.247301 82.028591 184.5 82.028591 
C 171.752699 82.028591 159.12935 84.539532 147.35238 89.417712 
C 135.57541 94.295893 124.873851 101.446446 115.860149 110.460149 
C 106.846446 119.473851 99.695893 130.17541 94.817712 141.95238 
C 89.939532 153.72935 87.428591 166.352699 87.428591 179.1 
C 87.428591 191.847301 89.939532 204.47065 94.817712 216.24762 
C 99.695893 228.02459 106.846446 238.726149 115.860149 247.739851 
C 124.873851 256.753554 135.57541 263.904107 147.35238 268.782288 
C 159.12935 273.660468 171.752699 276.171409 184.5 276.171409 
C 197.247301 276.171409 209.87065 273.660468 221.64762 268.782288 
C 233.42459 263.904107 244.126149 256.753554 253.139851 247.739851 
C 262.153554 238.726149 269.304107 228.02459 274.182288 216.24762 
C 279.060468 204.47065 281.571409 191.847301 281.571409 179.1 
" clip-path="url(#pf96c13e489)" style="fill: none; stroke: #b0b0b0; stroke-width: 0.8; stroke-linecap: square"/>
     </g>
    </g>
    <g id="ytick_7">
     <g id="line2d_15">
      <path d="M 297.74999 179.1 
C 297.74999 164.228148 294.820559 149.500905 289.129348 135.761105 
C 283.438136 122.021305 275.095824 109.536152 264.579836 99.020164 
C 254.063848 88.504176 241.578695 80.161864 227.838895 74.470652 
C 214.099095 68.779441 199.371852 65.85001 184.5 65.85001 
C 169.628148 65.85001 154.900905 68.779441 141.161105 74.470652 
C 127.421305 80.161864 114.936152 88.504176 104.420164 99.020164 
C 93.904176 109.536152 85.561864 122.021305 79.870652 135.761105 
C 74.179441 149.500905 71.25001 164.228148 71.25001 179.1 
C 71.25001 193.971852 74.179441 208.699095 79.870652 222.438895 
C 85.561864 236.178695 93.904176 248.663848 104.420164 259.179836 
C 114.936152 269.695824 127.421305 278.038136 141.161105 283.729348 
C 154.900905 289.420559 169.628148 292.34999 184.5 292.34999 
C 199.371852 292.34999 214.099095 289.420559 227.838895 283.729348 
C 241.578695 278.038136 254.063848 269.695824 264.579836 259.179836 
C 275.095824 248.663848 283.438136 236.178695 289.129348 222.438895 
C 294.820559 208.699095 297.74999 193.971852 297.74999 179.1 
" clip-path="url(#pf96c13e489)" style="fill: none; stroke: #b0b0b0; stroke-width: 0.8; stroke-linecap: square"/>
     </g>
    </g>
    <g id="ytick_8">
     <g id="line2d_16">
      <path d="M 313.928571 179.1 
C 313.928571 162.103596 310.58065 145.27246 304.076408 129.56983 
C 297.572166 113.8672 288.038093 99.598452 276.019821 87.580179 
C 264.001548 75.561907 249.7328 66.027834 234.03017 59.523592 
C 218.32754 53.01935 201.496404 49.671429 184.5 49.671429 
C 167.503596 49.671429 150.67246 53.01935 134.96983 59.523592 
C 119.2672 66.027834 104.998452 75.561907 92.980179 87.580179 
C 80.961907 99.598452 71.427834 113.8672 64.923592 129.56983 
C 58.41935 145.27246 55.071429 162.103596 55.071429 179.1 
C 55.071429 196.096404 58.41935 212.92754 64.923592 228.63017 
C 71.427834 244.3328 80.961907 258.601548 92.980179 270.619821 
C 104.998452 282.638093 119.2672 292.172166 134.96983 298.676408 
C 150.67246 305.18065 167.503596 308.528571 184.5 308.528571 
C 201.496404 308.528571 218.32754 305.18065 234.03017 298.676408 
C 249.7328 292.172166 264.001548 282.638093 276.019821 270.619821 
C 288.038093 258.601548 297.572166 244.3328 304.076408 228.63017 
C 310.58065 212.92754 313.928571 196.096404 313.928571 179.1 
" clip-path="url(#pf96c13e489)" style="fill: none; stroke: #b0b0b0; stroke-width: 0.8; stroke-linecap: square"/>
     </g>
    </g>
   </g>
   <g id="line2d_17">
    <path d="M 313.928571 179.1 
L 313.812565 174.627261 
L 313.464962 170.167881 
L 312.887009 165.735168 
L 312.080774 161.342318 
L 311.049145 157.002367 
L 309.795808 152.728136 
L 308.325239 148.532179 
L 306.64268 144.426735 
L 304.754116 140.423674 
L 302.666251 136.534455 
L 300.386478 132.770075 
L 297.922845 129.141031 
L 295.284023 125.657275 
L 292.479266 122.328175 
L 289.518369 119.162482 
L 286.411633 116.168294 
L 283.169811 113.353028 
L 279.804067 110.72339 
L 276.325927 108.285353 
L 272.747229 106.044136 
L 269.080071 104.004186 
L 265.336761 102.169166 
L 261.529765 100.541942 
L 257.67165 99.124579 
L 253.775034 97.918337 
L 249.852534 96.92367 
L 245.916707 96.140234 
L 241.980004 95.566891 
L 238.054715 95.201721 
L 233.799783 95.037598 
L 229.588125 95.113506 
L 225.434617 95.423918 
L 221.353621 95.962317 
L 217.358913 96.721244 
L 213.463618 97.692341 
L 209.680152 98.866414 
L 206.020162 100.233478 
L 202.494475 101.782829 
L 199.113052 103.503103 
L 195.884944 105.382348 
L 192.818254 107.408093 
L 189.686403 109.752979 
L 186.760071 112.237723 
L 184.045574 114.845025 
L 181.547797 117.557303 
L 179.270183 120.356817 
L 177.21473 123.225786 
L 175.382003 126.146502 
L 173.656371 129.329674 
L 172.185171 132.531074 
L 170.963724 135.729794 
L 169.985601 138.90565 
L 169.24271 142.039329 
L 168.696775 145.329269 
L 168.395999 148.528746 
L 168.324852 151.61838 
L 168.482746 154.773172 
L 168.859875 157.76419 
L 169.432175 160.575276 
L 170.225771 163.350038 
L 171.179624 165.894266 
L 172.328397 168.327401 
L 173.653904 170.598923 
L 175.050863 172.565074 
L 176.54976 174.310629 
L 178.173857 175.862254 
L 179.845476 177.145197 
L 181.456501 178.105287 
L 182.95641 178.75224 
L 184.24164 179.076794 
L 184.5 179.1 
L 184.030284 179.15712 
L 182.826473 179.493651 
L 181.399352 180.124189 
L 179.845476 181.054803 
L 178.246086 182.276012 
L 176.699361 183.732666 
L 175.200243 185.445566 
L 173.798368 187.379776 
L 172.531094 189.493592 
L 171.362164 191.881389 
L 170.383365 194.383935 
L 169.559172 197.118807 
L 168.953062 199.894585 
L 168.537464 202.853012 
L 168.342511 205.778554 
L 168.355254 208.835852 
L 168.593207 212.00786 
L 169.072345 215.275669 
L 169.749737 218.393889 
L 170.659754 221.559623 
L 171.81095 224.753835 
L 173.210237 227.956574 
L 174.862801 231.147123 
L 176.627104 234.080226 
L 178.61402 236.966996 
L 180.823422 239.789774 
L 183.253756 242.530788 
L 185.902023 245.172272 
L 188.763782 247.696584 
L 191.833155 250.086325 
L 194.844406 252.158052 
L 198.019561 254.087539 
L 201.350839 255.862159 
L 204.8295 257.469778 
L 208.445884 258.898828 
L 212.189446 260.138376 
L 216.048807 261.178194 
L 220.011802 262.008816 
L 224.065536 262.621598 
L 228.196441 263.008777 
L 232.390344 263.163517 
L 236.632534 263.079957 
L 240.550666 262.78986 
L 244.48463 262.292478 
L 248.422208 261.585613 
L 252.351003 260.667839 
L 256.258489 259.538523 
L 260.132065 258.197828 
L 263.959108 256.64672 
L 267.727026 254.886973 
L 271.423308 252.921161 
L 275.035586 250.752658 
L 278.551677 248.385628 
L 281.959643 245.825011 
L 285.24784 243.076509 
L 288.404965 240.146562 
L 291.42011 237.042333 
L 294.282807 233.771675 
L 296.983069 230.343105 
L 299.511442 226.765771 
L 301.859038 223.049418 
L 304.017578 219.204348 
L 305.979428 215.241382 
L 307.737629 211.171815 
L 309.285931 207.007374 
L 310.61882 202.76017 
L 311.731538 198.442646 
L 312.620111 194.067534 
L 313.281358 189.647797 
L 313.712913 185.196579 
L 313.913228 180.727154 
L 313.928571 179.1 
L 313.928571 179.1 
" clip-path="url(#pf96c13e489)" style="fill: none; stroke: #1f77b4; stroke-width: 1.5; stroke-linecap: square"/>
   </g>
   <g id="patch_3">
    <path d="M 320.4 179.1 
C 320.4 161.253776 316.884683 143.581083 310.055228 127.093322 
C 303.225774 110.60556 293.214998 95.623375 280.595812 83.004188 
C 267.976625 70.385002 252.99444 60.374226 236.506678 53.544772 
C 220.018917 46.715317 202.346224 43.2 184.5 43.2 
C 166.653776 43.2 148.981083 46.715317 132.493322 53.544772 
C 116.00556 60.374226 101.023375 70.385002 88.404188 83.004188 
C 75.785002 95.623375 65.774226 110.60556 58.944772 127.093322 
C 52.115317 143.581083 48.6 161.253776 48.6 179.1 
C 48.6 196.946224 52.115317 214.618917 58.944772 231.106678 
C 65.774226 247.59444 75.785002 262.576625 88.404188 275.195812 
C 101.023375 287.814998 116.00556 297.825774 132.493322 304.655228 
C 148.981083 311.484683 166.653776 315 184.5 315 
C 202.346224 315 220.018917 311.484683 236.506678 304.655228 
C 252.99444 297.825774 267.976625 287.814998 280.595812 275.195812 
C 293.214998 262.576625 303.225774 247.59444 310.055228 231.106678 
C 316.884683 214.618917 320.4 196.946224 320.4 179.1 
" style="fill: none; stroke: #000000; stroke-width: 0.8; stroke-linejoin: miter; stroke-linecap: square"/>
   </g>
  </g>
 </g>
 <defs>
  <clipPath id="pf96c13e489">
   <path d="M 320.4 179.1 
C 320.4 161.253776 316.884683 143.581083 310.055228 127.093322 
C 303.225774 110.60556 293.214998 95.623375 280.595812 83.004188 
C 267.976625 70.385002 252.99444 60.374226 236.506678 53.544772 
C 220.018917 46.715317 202.346224 43.2 184.5 43.2 
C 166.653776 43.2 148.981083 46.715317 132.493322 53.544772 
C 116.00556 60.374226 101.023375 70.385002 88.404188 83.004188 
C 75.785002 95.623375 65.774226 110.60556 58.944772 127.093322 
C 52.115317 143.581083 48.6 161.253776 48.6 179.1 
C 48.6 196.946224 52.115317 214.618917 58.944772 231.106678 
C 65.774226 247.59444 75.785002 262.576625 88.404188 275.195812 
C 101.023375 287.814998 116.00556 297.825774 132.493322 304.655228 
C 148.981083 311.484683 166.653776 315 184.5 315 
C 202.346224 315 220.018917 311.484683 236.506678 304.655228 
C 252.99444 297.825774 267.976625 287.814998 280.595812 275.195812 
C 293.214998 262.576625 303.225774 247.59444 310.055228 231.106678 
C 316.884683 214.618917 320.4 196.946224 320.4 179.1 
M 184.5 179.1 
C 184.5 179.1 184.5 179.1 184.5 179.1 
C 184.5 179.1 184.5 179.1 184.5 179.1 
C 184.5 179.1 184.5 179.1 184.5 179.1 
C 184.5 179.1 184.5 179.1 184.5 179.1 
C 184.5 179.1 184.5 179.1 184.5 179.1 
C 184.5 179.1 184.5 179.1 184.5 179.1 
C 184.5 179.1 184.5 179.1 184.5 179.1 
C 184.5 179.1 184.5 179.1 184.5 179.1 
C 184.5 179.1 184.5 179.1 184.5 179.1 
C 184.5 179.1 184.5 179.1 184.5 179.1 
C 184.5 179.1 184.5 179.1 184.5 179.1 
C 184.5 179.1 184.5 179.1 184.5 179.1 
C 184.5 179.1 184.5 179.1 184.5 179.1 
C 184.5 179.1 184.5 179.1 184.5 179.1 
C 184.5 179.1 184.5 179.1 184.5 179.1 
C 184.5 179.1 184.5 179.1 184.5 179.1 
z
"/>
  </clipPath>
 </defs>
</svg>
