<?xml version="1.0" encoding="utf-8" standalone="no"?>
<!DOCTYPE svg PUBLIC "-//W3C//DTD SVG 1.1//EN"
  "http://www.w3.org/Graphics/SVG/1.1/DTD/svg11.dtd">
<svg xmlns:xlink="http://www.w3.org/1999/xlink" width="576pt" height="576pt" viewBox="0 0 576 576" xmlns="http://www.w3.org/2000/svg" version="1.1">
 <metadata>
  <rdf:RDF xmlns:dc="http://purl.org/dc/elements/1.1/" xmlns:cc="http://creativecommons.org/ns#" xmlns:rdf="http://www.w3.org/1999/02/22-rdf-syntax-ns#">
   <cc:Work>
    <dc:type rdf:resource="http://purl.org/dc/dcmitype/StillImage"/>
    <dc:date>2024-08-12T17:24:18.719446</dc:date>
    <dc:format>image/svg+xml</dc:format>
    <dc:creator>
     <cc:Agent>
      <dc:title>Matplotlib v3.8.4, https://matplotlib.org/</dc:title>
     </cc:Agent>
    </dc:creator>
   </cc:Work>
  </rdf:RDF>
 </metadata>
 <defs>
  <style type="text/css">*{stroke-linejoin: round; stroke-linecap: butt}</style>
 </defs>
 <g id="figure_1">
  <g id="patch_1">
   <path d="M 0 576 
L 576 576 
L 576 0 
L 0 0 
z
" style="fill: #ffffff"/>
  </g>
  <g id="axes_1">
   <g id="patch_2">
    <path d="M 295.2 484.232727 
C 321.41171 484.232727 346.553385 473.818704 365.087863 455.284227 
C 383.622341 436.749749 394.036364 411.608074 394.036364 385.396364 
C 394.036364 359.184654 383.622341 334.042979 365.087863 315.508501 
C 346.553385 296.974023 321.41171 286.56 295.2 286.56 
C 268.98829 286.56 243.846615 296.974023 225.312137 315.508501 
C 206.777659 334.042979 196.363636 359.184654 196.363636 385.396364 
C 196.363636 411.608074 206.777659 436.749749 225.312137 455.284227 
C 243.846615 473.818704 268.98829 484.232727 295.2 484.232727 
L 295.2 484.232727 
z
" clip-path="url(#pc94403189c)" style="fill: none; stroke: #ff0000; stroke-linejoin: miter"/>
   </g>
   <g id="patch_3">
    <path d="M 307.611973 483.842665 
C 333.77196 482.196818 358.210122 470.224686 375.544237 450.562993 
C 392.878352 430.901299 401.693166 405.155333 400.047319 378.995346 
C 398.401472 352.835359 386.42934 328.397197 366.767647 311.063082 
C 347.105953 293.728967 321.359987 284.914153 295.2 286.56 
C 269.040013 288.205847 244.601851 300.177979 227.267736 319.839673 
C 209.933621 339.501366 201.118807 365.247332 202.764654 391.407319 
C 204.410501 417.567306 216.382633 442.005468 236.044327 459.339583 
C 255.70602 476.673698 281.451986 485.488512 307.611973 483.842665 
L 307.611973 483.842665 
z
" clip-path="url(#pc94403189c)" style="fill: none; stroke: #ff0c00; stroke-linejoin: miter"/>
   </g>
   <g id="patch_4">
    <path d="M 319.974962 482.674019 
C 345.979985 479.38882 369.618187 465.905828 385.683529 445.194514 
C 401.748871 424.4832 408.929689 398.234551 405.64449 372.229528 
C 402.359292 346.224505 388.8763 322.586303 368.164985 306.520961 
C 347.453671 290.455619 321.205023 283.274802 295.2 286.56 
C 269.194977 289.845198 245.556775 303.328191 229.491433 324.039505 
C 213.426091 344.750819 206.245273 370.999468 209.530472 397.00449 
C 212.81567 423.009513 226.298663 446.647716 247.009977 462.713058 
C 267.721291 478.778399 293.969939 485.959217 319.974962 482.674019 
L 319.974962 482.674019 
z
" clip-path="url(#pc94403189c)" style="fill: none; stroke: #ff1e00; stroke-linejoin: miter"/>
   </g>
   <g id="patch_5">
    <path d="M 332.240175 480.7314 
C 357.987604 475.819815 380.732558 460.879173 395.465724 439.199977 
C 410.198891 417.520781 415.717372 390.873041 410.805788 365.125612 
C 405.894203 339.378184 390.953561 316.63323 369.274365 301.900064 
C 347.595169 287.166897 320.947429 281.648415 295.2 286.56 
C 269.452571 291.471585 246.707618 306.412227 231.974451 328.091423 
C 217.241285 349.770619 211.722803 376.418359 216.634388 402.165788 
C 221.545973 427.913216 236.486614 450.65817 258.165811 465.391336 
C 279.845007 480.124503 306.492747 485.642984 332.240175 480.7314 
L 332.240175 480.7314 
z
" clip-path="url(#pc94403189c)" style="fill: none; stroke: #ff2900; stroke-linejoin: miter"/>
   </g>
   <g id="patch_6">
    <path d="M 344.359208 478.022475 
C 369.747429 471.503888 391.50937 455.16456 404.852216 432.60304 
C 418.195062 410.04152 422.029429 383.099854 415.510842 357.711633 
C 408.992254 332.323412 392.652927 310.561472 370.091407 297.218626 
C 347.529886 283.87578 320.588221 280.041413 295.2 286.56 
C 269.811779 293.078587 248.049838 309.417915 234.706992 331.979435 
C 221.364146 354.540955 217.529779 381.482621 224.048367 406.870842 
C 230.566954 432.259063 246.906281 454.021004 269.467802 467.36385 
C 292.029322 480.706695 318.970987 484.541062 344.359208 478.022475 
L 344.359208 478.022475 
z
" clip-path="url(#pc94403189c)" style="fill: none; stroke: #ff3b00; stroke-linejoin: miter"/>
   </g>
   <g id="patch_7">
    <path d="M 356.284232 474.557935 
C 381.21305 466.458072 401.906094 448.784542 413.805961 425.429738 
C 425.705828 402.074933 427.840948 374.945669 419.741084 350.016852 
C 411.64122 325.088034 393.967691 304.39499 370.612886 292.495123 
C 347.258081 280.595256 320.128818 278.460136 295.2 286.56 
C 270.271182 294.659864 249.578139 312.333393 237.678271 335.688198 
C 225.778404 359.043002 223.643284 386.172266 231.743148 411.101084 
C 239.843012 436.029901 257.516541 456.722945 280.871346 468.622813 
C 304.226151 480.52268 331.355414 482.657799 356.284232 474.557935 
L 356.284232 474.557935 
z
" clip-path="url(#pc94403189c)" style="fill: none; stroke: #ff4700; stroke-linejoin: miter"/>
   </g>
   <g id="patch_8">
    <path d="M 367.968184 470.351454 
C 392.339216 460.70228 411.881697 441.764298 422.291622 417.70838 
C 432.701547 393.652462 433.128993 366.442666 423.479819 342.071635 
C 413.830645 317.700603 394.892664 298.158122 370.836745 287.748197 
C 346.780827 277.338272 319.571032 276.910826 295.2 286.56 
C 270.828968 296.209174 251.286488 315.147155 240.876562 339.203074 
C 230.466637 363.258992 230.039191 390.468787 239.688365 414.839819 
C 249.337539 439.210851 268.275521 458.753331 292.331439 469.163257 
C 316.387357 479.573182 343.597153 480.000628 367.968184 470.351454 
L 367.968184 470.351454 
z
" clip-path="url(#pc94403189c)" style="fill: none; stroke: #ff5900; stroke-linejoin: miter"/>
   </g>
   <g id="patch_9">
    <path d="M 379.364954 465.419631 
C 403.082018 454.259228 421.396811 434.131534 430.275711 409.46944 
C 439.154611 384.807346 437.872696 357.624403 426.712292 333.907339 
C 415.551889 310.190274 395.424195 291.875482 370.762101 282.996582 
C 346.100007 274.117682 318.917064 275.399597 295.2 286.56 
C 271.482936 297.720403 253.168143 317.848097 244.289243 342.510191 
C 235.410343 367.172285 236.692258 394.355228 247.852661 418.072292 
C 259.013065 441.789357 279.140759 460.104149 303.802853 468.983049 
C 328.464947 477.86195 355.647889 476.580034 379.364954 465.419631 
L 379.364954 465.419631 
z
" clip-path="url(#pc94403189c)" style="fill: none; stroke: #ff6a00; stroke-linejoin: miter"/>
   </g>
   <g id="patch_10">
    <path d="M 390.429563 459.781931 
C 413.399059 447.154344 430.413883 425.916372 437.726717 400.745432 
C 445.039551 375.574492 442.053335 348.525681 429.425747 325.556184 
C 416.798159 302.586688 395.560187 285.571864 370.389248 278.25903 
C 345.218308 270.946196 318.169497 273.932412 295.2 286.56 
C 272.230503 299.187588 255.215679 320.42556 247.902845 345.596499 
C 240.590011 370.767439 243.576228 397.81625 256.203816 420.785747 
C 268.831403 443.755244 290.069375 460.770068 315.240315 468.082902 
C 340.411255 475.395736 367.460066 472.409519 390.429563 459.781931 
L 390.429563 459.781931 
z
" clip-path="url(#pc94403189c)" style="fill: none; stroke: #ff7600; stroke-linejoin: miter"/>
   </g>
   <g id="patch_11">
    <path d="M 401.118344 453.460604 
C 423.249623 439.415667 438.897329 417.151234 444.615236 391.570787 
C 450.333143 365.990339 445.65441 339.182409 431.609474 317.05113 
C 417.564537 294.919851 395.300104 279.272145 369.719657 273.554238 
C 344.13921 267.836331 317.331279 272.515063 295.2 286.56 
C 273.068721 300.604937 257.421015 322.86937 251.703108 348.449817 
C 245.985201 374.030264 250.663934 400.838195 264.70887 422.969474 
C 278.753807 445.100753 301.01824 460.748458 326.598687 466.466366 
C 352.179134 472.184273 378.987065 467.50554 401.118344 453.460604 
L 401.118344 453.460604 
z
" clip-path="url(#pc94403189c)" style="fill: none; stroke: #ff8800; stroke-linejoin: miter"/>
   </g>
   <g id="patch_12">
    <path d="M 411.389114 446.480596 
C 432.594833 431.073739 446.813666 407.870712 450.914081 381.981712 
C 455.014496 356.092711 448.661711 329.63146 433.254855 308.425741 
C 417.847998 287.220022 394.644971 273.001189 368.755971 268.900774 
C 342.86697 264.800359 316.405719 271.153143 295.2 286.56 
C 273.994281 301.966857 259.775448 325.169884 255.675033 351.058884 
C 251.574618 376.947885 257.927402 403.409136 273.334259 424.614855 
C 288.741116 445.820574 311.944143 460.039407 337.833143 464.139822 
C 363.722144 468.240237 390.183395 461.887452 411.389114 446.480596 
L 411.389114 446.480596 
z
" clip-path="url(#pc94403189c)" style="fill: none; stroke: #ff9400; stroke-linejoin: miter"/>
   </g>
   <g id="patch_13">
    <path d="M 421.201338 438.869454 
C 441.397808 422.161481 454.131654 398.111432 456.598394 372.016051 
C 459.065133 345.920669 451.063369 319.910528 434.355396 299.714058 
C 417.647424 279.517588 393.597374 266.783743 367.501993 264.317003 
C 341.406611 261.850263 315.39647 269.852027 295.2 286.56 
C 275.00353 303.267973 262.269685 327.318022 259.802945 353.413404 
C 257.336205 379.508785 265.337969 405.518927 282.045942 425.715396 
C 298.753915 445.911866 322.803964 458.645712 348.899346 461.112451 
C 374.994727 463.579191 401.004869 455.577427 421.201338 438.869454 
L 421.201338 438.869454 
z
" clip-path="url(#pc94403189c)" style="fill: none; stroke: #ffa500; stroke-linejoin: miter"/>
   </g>
   <g id="patch_14">
    <path d="M 430.516293 430.657217 
C 449.623808 412.714066 460.822411 387.91191 461.645741 361.713134 
C 462.46907 335.514357 452.849905 310.057976 434.906755 290.950462 
C 416.963605 271.842947 392.161448 260.644344 365.962672 259.821014 
C 339.763896 258.997685 314.307514 268.61685 295.2 286.56 
C 276.092486 304.50315 264.893883 329.305307 264.070553 355.504083 
C 263.247223 381.702859 272.866388 407.159241 290.809538 426.266755 
C 308.752689 445.374269 333.554845 456.572872 359.753621 457.396202 
C 385.952398 458.219532 411.408779 448.600367 430.516293 430.657217 
L 430.516293 430.657217 
z
" clip-path="url(#pc94403189c)" style="fill: none; stroke: #ffb700; stroke-linejoin: miter"/>
   </g>
   <g id="patch_15">
    <path d="M 439.297217 421.876293 
C 457.240367 402.768779 466.859532 377.312398 466.036202 351.113621 
C 465.212872 324.914845 454.014269 300.112689 434.906755 282.169538 
C 415.799241 264.226388 390.342859 254.607223 364.144083 255.430553 
C 337.945307 256.253883 313.14315 267.452486 295.2 286.56 
C 277.25685 305.667514 267.637685 331.123896 268.461014 357.322672 
C 269.284344 383.521448 280.482947 408.323605 299.590462 426.266755 
C 318.697976 444.209905 344.154357 453.82907 370.353134 453.005741 
C 396.55191 452.182411 421.354066 440.983808 439.297217 421.876293 
L 439.297217 421.876293 
z
" clip-path="url(#pc94403189c)" style="fill: none; stroke: #ffc300; stroke-linejoin: miter"/>
   </g>
   <g id="patch_16">
    <path d="M 447.509454 412.561338 
C 464.217427 392.364869 472.219191 366.354727 469.752451 340.259346 
C 467.285712 314.163964 454.551866 290.113915 434.355396 273.405942 
C 414.158927 256.697969 388.148785 248.696205 362.053404 251.162945 
C 335.958022 253.629685 311.907973 266.36353 295.2 286.56 
C 278.492027 306.75647 270.490263 332.766611 272.957003 358.861993 
C 275.423743 384.957374 288.157588 409.007424 308.354058 425.715396 
C 328.550528 442.423369 354.560669 450.425133 380.656051 447.958394 
C 406.751432 445.491654 430.801481 432.757808 447.509454 412.561338 
L 447.509454 412.561338 
z
" clip-path="url(#pc94403189c)" style="fill: none; stroke: #ffd500; stroke-linejoin: miter"/>
   </g>
   <g id="patch_17">
    <path d="M 455.120596 402.749114 
C 470.527452 381.543395 476.880237 355.082144 472.779822 329.193143 
C 468.679407 303.304143 454.460574 280.101116 433.254855 264.694259 
C 412.049136 249.287402 385.587885 242.934618 359.698884 247.035033 
C 333.809884 251.135448 310.606857 265.354281 295.2 286.56 
C 279.793143 307.765719 273.440359 334.22697 277.540774 360.115971 
C 281.641189 386.004971 295.860022 409.207998 317.065741 424.614855 
C 338.27146 440.021711 364.732711 446.374496 390.621712 442.274081 
C 416.510712 438.173666 439.713739 423.954833 455.120596 402.749114 
L 455.120596 402.749114 
z
" clip-path="url(#pc94403189c)" style="fill: none; stroke: #ffe000; stroke-linejoin: miter"/>
   </g>
   <g id="patch_18">
    <path d="M 462.100604 392.478344 
C 476.14554 370.347065 480.824273 343.539134 475.106366 317.958687 
C 469.388458 292.37824 453.740753 270.113807 431.609474 256.06887 
C 409.478195 242.023934 382.670264 237.345201 357.089817 243.063108 
C 331.50937 248.781015 309.244937 264.428721 295.2 286.56 
C 281.155063 308.691279 276.476331 335.49921 282.194238 361.079657 
C 287.912145 386.660104 303.559851 408.924537 325.69113 422.969474 
C 347.822409 437.01441 374.630339 441.693143 400.210787 435.975236 
C 425.791234 430.257329 448.055667 414.609623 462.100604 392.478344 
L 462.100604 392.478344 
z
" clip-path="url(#pc94403189c)" style="fill: none; stroke: #fef100; stroke-linejoin: miter"/>
   </g>
   <g id="patch_19">
    <path d="M 468.421931 381.789563 
C 481.049519 358.820066 484.035736 331.771255 476.722902 306.600315 
C 469.410068 281.429375 452.395244 260.191403 429.425747 247.563816 
C 406.45625 234.936228 379.407439 231.950011 354.236499 239.262845 
C 329.06556 246.575679 307.827588 263.590503 295.2 286.56 
C 282.572412 309.529497 279.586196 336.578308 286.89903 361.749248 
C 294.211864 386.920187 311.226688 408.158159 334.196184 420.785747 
C 357.165681 433.413335 384.214492 436.399551 409.385432 429.086717 
C 434.556372 421.773883 455.794344 404.759059 468.421931 381.789563 
L 468.421931 381.789563 
z
" clip-path="url(#pc94403189c)" style="fill: none; stroke: #faf900; stroke-linejoin: miter"/>
   </g>
   <g id="patch_20">
    <path d="M 474.059631 370.724954 
C 485.220034 347.007889 486.50195 319.824947 477.623049 295.162853 
C 468.744149 270.500759 450.429357 250.373065 426.712292 239.212661 
C 402.995228 228.052258 375.812285 226.770343 351.150191 235.649243 
C 326.488097 244.528143 306.360403 262.842936 295.2 286.56 
C 284.039597 310.277064 282.757682 337.460007 291.636582 362.122101 
C 300.515482 386.784195 318.830274 406.911889 342.547339 418.072292 
C 366.264403 429.232696 393.447346 430.514611 418.10944 421.635711 
C 442.771534 412.756811 462.899228 394.442018 474.059631 370.724954 
L 474.059631 370.724954 
z
" clip-path="url(#pc94403189c)" style="fill: none; stroke: #eeff00; stroke-linejoin: miter"/>
   </g>
   <g id="patch_21">
    <path d="M 478.991454 359.328184 
C 488.640628 334.957153 488.213182 307.747357 477.803257 283.691439 
C 467.393331 259.635521 447.850851 240.697539 423.479819 231.048365 
C 399.108787 221.399191 371.898992 221.826637 347.843074 232.236562 
C 323.787155 242.646488 304.849174 262.188968 295.2 286.56 
C 285.550826 310.931032 285.978272 338.140827 296.388197 362.196745 
C 306.798122 386.252664 326.340603 405.190645 350.711635 414.839819 
C 375.082666 424.488993 402.292462 424.061547 426.34838 413.651622 
C 450.404298 403.241697 469.34228 383.699216 478.991454 359.328184 
L 478.991454 359.328184 
z
" clip-path="url(#pc94403189c)" style="fill: none; stroke: #ddff00; stroke-linejoin: miter"/>
   </g>
   <g id="patch_22">
    <path d="M 483.197935 347.644232 
C 491.297799 322.715414 489.16268 295.586151 477.262813 272.231346 
C 465.362945 248.876541 444.669901 231.203012 419.741084 223.103148 
C 394.812266 215.003284 367.683002 217.138404 344.328198 229.038271 
C 320.973393 240.938139 303.299864 261.631182 295.2 286.56 
C 287.100136 311.488818 289.235256 338.618081 301.135123 361.972886 
C 313.03499 385.327691 333.728034 403.00122 358.656852 411.101084 
C 383.585669 419.200948 410.714933 417.065828 434.069738 405.165961 
C 457.424542 393.266094 475.098072 372.57305 483.197935 347.644232 
L 483.197935 347.644232 
z
" clip-path="url(#pc94403189c)" style="fill: none; stroke: #d1ff00; stroke-linejoin: miter"/>
   </g>
   <g id="patch_23">
    <path d="M 486.662475 335.719208 
C 493.181062 310.330987 489.346695 283.389322 476.00385 260.827802 
C 462.661004 238.266281 440.899063 221.926954 415.510842 215.408367 
C 390.122621 208.889779 363.180955 212.724146 340.619435 226.066992 
C 318.057915 239.409838 301.718587 261.171779 295.2 286.56 
C 288.681413 311.948221 292.51578 338.889886 305.858626 361.451407 
C 319.201472 384.012927 340.963412 400.352254 366.351633 406.870842 
C 391.739854 413.389429 418.68152 409.555062 441.24304 396.212216 
C 463.80456 382.86937 480.143888 361.107429 486.662475 335.719208 
L 486.662475 335.719208 
z
" clip-path="url(#pc94403189c)" style="fill: none; stroke: #bfff00; stroke-linejoin: miter"/>
   </g>
   <g id="patch_24">
    <path d="M 489.3714 323.600175 
C 494.282984 297.852747 488.764503 271.205007 474.031336 249.525811 
C 459.29817 227.846614 436.553216 212.905973 410.805788 207.994388 
C 385.058359 203.082803 358.410619 208.601285 336.731423 223.334451 
C 315.052227 238.067618 300.111585 260.812571 295.2 286.56 
C 290.288415 312.307429 295.806897 338.955169 310.540064 360.634365 
C 325.27323 382.313561 348.018184 397.254203 373.765612 402.165788 
C 399.513041 407.077372 426.160781 401.558891 447.839977 386.825724 
C 469.519173 372.092558 484.459815 349.347604 489.3714 323.600175 
L 489.3714 323.600175 
z
" clip-path="url(#pc94403189c)" style="fill: none; stroke: #b3ff00; stroke-linejoin: miter"/>
   </g>
   <g id="patch_25">
    <path d="M 491.314019 311.334962 
C 494.599217 285.329939 487.418399 259.081291 471.353058 238.369977 
C 455.287716 217.658663 431.649513 204.17567 405.64449 200.890472 
C 379.639468 197.605273 353.390819 204.786091 332.679505 220.851433 
C 311.968191 236.916775 298.485198 260.554977 295.2 286.56 
C 291.914802 312.565023 299.095619 338.813671 315.160961 359.524985 
C 331.226303 380.2363 354.864505 393.719292 380.869528 397.00449 
C 406.874551 400.289689 433.1232 393.108871 453.834514 377.043529 
C 474.545828 360.978187 488.02882 337.339985 491.314019 311.334962 
L 491.314019 311.334962 
z
" clip-path="url(#pc94403189c)" style="fill: none; stroke: #a2ff00; stroke-linejoin: miter"/>
   </g>
   <g id="patch_26">
    <path d="M 492.482665 298.971973 
C 494.128512 272.811986 485.313698 247.06602 467.979583 227.404327 
C 450.645468 207.742633 426.207306 195.770501 400.047319 194.124654 
C 373.887332 192.478807 348.141366 201.293621 328.479673 218.627736 
C 308.817979 235.961851 296.845847 260.400013 295.2 286.56 
C 293.554153 312.719987 302.368967 338.465953 319.703082 358.127647 
C 337.037197 377.78934 361.475359 389.761472 387.635346 391.407319 
C 413.795333 393.053166 439.541299 384.238352 459.202993 366.904237 
C 478.864686 349.570122 490.836818 325.13196 492.482665 298.971973 
L 492.482665 298.971973 
z
" clip-path="url(#pc94403189c)" style="fill: none; stroke: #90ff00; stroke-linejoin: miter"/>
   </g>
   <g id="patch_27">
    <path d="M 492.872727 286.56 
C 492.872727 260.34829 482.458704 235.206615 463.924227 216.672137 
C 445.389749 198.137659 420.248074 187.723636 394.036364 187.723636 
C 367.824654 187.723636 342.682979 198.137659 324.148501 216.672137 
C 305.614023 235.206615 295.2 260.34829 295.2 286.56 
C 295.2 312.77171 305.614023 337.913385 324.148501 356.447863 
C 342.682979 374.982341 367.824654 385.396364 394.036364 385.396364 
C 420.248074 385.396364 445.389749 374.982341 463.924227 356.447863 
C 482.458704 337.913385 492.872727 312.77171 492.872727 286.56 
L 492.872727 286.56 
z
" clip-path="url(#pc94403189c)" style="fill: none; stroke: #84ff00; stroke-linejoin: miter"/>
   </g>
   <g id="patch_28">
    <path d="M 492.482665 274.148027 
C 490.836818 247.98804 478.864686 223.549878 459.202993 206.215763 
C 439.541299 188.881648 413.795333 180.066834 387.635346 181.712681 
C 361.475359 183.358528 337.037197 195.33066 319.703082 214.992353 
C 302.368967 234.654047 293.554153 260.400013 295.2 286.56 
C 296.845847 312.719987 308.817979 337.158149 328.479673 354.492264 
C 348.141366 371.826379 373.887332 380.641193 400.047319 378.995346 
C 426.207306 377.349499 450.645468 365.377367 467.979583 345.715673 
C 485.313698 326.05398 494.128512 300.308014 492.482665 274.148027 
L 492.482665 274.148027 
z
" clip-path="url(#pc94403189c)" style="fill: none; stroke: #72ff00; stroke-linejoin: miter"/>
   </g>
   <g id="patch_29">
    <path d="M 491.314019 261.785038 
C 488.02882 235.780015 474.545828 212.141813 453.834514 196.076471 
C 433.1232 180.011129 406.874551 172.830311 380.869528 176.11551 
C 354.864505 179.400708 331.226303 192.8837 315.160961 213.595015 
C 299.095619 234.306329 291.914802 260.554977 295.2 286.56 
C 298.485198 312.565023 311.968191 336.203225 332.679505 352.268567 
C 353.390819 368.333909 379.639468 375.514727 405.64449 372.229528 
C 431.649513 368.94433 455.287716 355.461337 471.353058 334.750023 
C 487.418399 314.038709 494.599217 287.790061 491.314019 261.785038 
L 491.314019 261.785038 
z
" clip-path="url(#pc94403189c)" style="fill: none; stroke: #66ff00; stroke-linejoin: miter"/>
   </g>
   <g id="patch_30">
    <path d="M 489.3714 249.519825 
C 484.459815 223.772396 469.519173 201.027442 447.839977 186.294276 
C 426.160781 171.561109 399.513041 166.042628 373.765612 170.954212 
C 348.018184 175.865797 325.27323 190.806439 310.540064 212.485635 
C 295.806897 234.164831 290.288415 260.812571 295.2 286.56 
C 300.111585 312.307429 315.052227 335.052382 336.731423 349.785549 
C 358.410619 364.518715 385.058359 370.037197 410.805788 365.125612 
C 436.553216 360.214027 459.29817 345.273386 474.031336 323.594189 
C 488.764503 301.914993 494.282984 275.267253 489.3714 249.519825 
L 489.3714 249.519825 
z
" clip-path="url(#pc94403189c)" style="fill: none; stroke: #55ff00; stroke-linejoin: miter"/>
   </g>
   <g id="patch_31">
    <path d="M 486.662475 237.400792 
C 480.143888 212.012571 463.80456 190.25063 441.24304 176.907784 
C 418.68152 163.564938 391.739854 159.730571 366.351633 166.249158 
C 340.963412 172.767746 319.201472 189.107073 305.858626 211.668593 
C 292.51578 234.230114 288.681413 261.171779 295.2 286.56 
C 301.718587 311.948221 318.057915 333.710162 340.619435 347.053008 
C 363.180955 360.395854 390.122621 364.230221 415.510842 357.711633 
C 440.899063 351.193046 462.661004 334.853719 476.00385 312.292198 
C 489.346695 289.730678 493.181062 262.789013 486.662475 237.400792 
L 486.662475 237.400792 
z
" clip-path="url(#pc94403189c)" style="fill: none; stroke: #49ff00; stroke-linejoin: miter"/>
   </g>
   <g id="patch_32">
    <path d="M 483.197935 225.475768 
C 475.098072 200.54695 457.424542 179.853906 434.069738 167.954039 
C 410.714933 156.054172 383.585669 153.919052 358.656852 162.018916 
C 333.728034 170.11878 313.03499 187.792309 301.135123 211.147114 
C 289.235256 234.501919 287.100136 261.631182 295.2 286.56 
C 303.299864 311.488818 320.973393 332.181861 344.328198 344.081729 
C 367.683002 355.981596 394.812266 358.116716 419.741084 350.016852 
C 444.669901 341.916988 465.362945 324.243459 477.262813 300.888654 
C 489.16268 277.533849 491.297799 250.404586 483.197935 225.475768 
L 483.197935 225.475768 
z
" clip-path="url(#pc94403189c)" style="fill: none; stroke: #37ff00; stroke-linejoin: miter"/>
   </g>
   <g id="patch_33">
    <path d="M 478.991454 213.791816 
C 469.34228 189.420784 450.404298 169.878303 426.34838 159.468378 
C 402.292462 149.058453 375.082666 148.631007 350.711635 158.280181 
C 326.340603 167.929355 306.798122 186.867336 296.388197 210.923255 
C 285.978272 234.979173 285.550826 262.188968 295.2 286.56 
C 304.849174 310.931032 323.787155 330.473512 347.843074 340.883438 
C 371.898992 351.293363 399.108787 351.720809 423.479819 342.071635 
C 447.850851 332.422461 467.393331 313.484479 477.803257 289.428561 
C 488.213182 265.372643 488.640628 238.162847 478.991454 213.791816 
L 478.991454 213.791816 
z
" clip-path="url(#pc94403189c)" style="fill: none; stroke: #25ff00; stroke-linejoin: miter"/>
   </g>
   <g id="patch_34">
    <path d="M 474.059631 202.395046 
C 462.899228 178.677982 442.771534 160.363189 418.10944 151.484289 
C 393.447346 142.605389 366.264403 143.887304 342.547339 155.047708 
C 318.830274 166.208111 300.515482 186.335805 291.636582 210.997899 
C 282.757682 235.659993 284.039597 262.842936 295.2 286.56 
C 306.360403 310.277064 326.488097 328.591857 351.150191 337.470757 
C 375.812285 346.349657 402.995228 345.067742 426.712292 333.907339 
C 450.429357 322.746935 468.744149 302.619241 477.623049 277.957147 
C 486.50195 253.295053 485.220034 226.112111 474.059631 202.395046 
L 474.059631 202.395046 
z
" clip-path="url(#pc94403189c)" style="fill: none; stroke: #1aff00; stroke-linejoin: miter"/>
   </g>
   <g id="patch_35">
    <path d="M 468.421931 191.330437 
C 455.794344 168.360941 434.556372 151.346117 409.385432 144.033283 
C 384.214492 136.720449 357.165681 139.706665 334.196184 152.334253 
C 311.226688 164.961841 294.211864 186.199813 286.89903 211.370752 
C 279.586196 236.541692 282.572412 263.590503 295.2 286.56 
C 307.827588 309.529497 329.06556 326.544321 354.236499 333.857155 
C 379.407439 341.169989 406.45625 338.183772 429.425747 325.556184 
C 452.395244 312.928597 469.410068 291.690625 476.722902 266.519685 
C 484.035736 241.348745 481.049519 214.299934 468.421931 191.330437 
L 468.421931 191.330437 
z
" clip-path="url(#pc94403189c)" style="fill: none; stroke: #08ff00; stroke-linejoin: miter"/>
   </g>
   <g id="patch_36">
    <path d="M 462.100604 180.641656 
C 448.055667 158.510377 425.791234 142.862671 400.210787 137.144764 
C 374.630339 131.426857 347.822409 136.10559 325.69113 150.150526 
C 303.559851 164.195463 287.912145 186.459896 282.194238 212.040343 
C 276.476331 237.62079 281.155063 264.428721 295.2 286.56 
C 309.244937 308.691279 331.50937 324.338985 357.089817 330.056892 
C 382.670264 335.774799 409.478195 331.096066 431.609474 317.05113 
C 453.740753 303.006193 469.388458 280.74176 475.106366 255.161313 
C 480.824273 229.580866 476.14554 202.772935 462.100604 180.641656 
L 462.100604 180.641656 
z
" clip-path="url(#pc94403189c)" style="fill: none; stroke: #04ff08; stroke-linejoin: miter"/>
   </g>
   <g id="patch_37">
    <path d="M 455.120596 170.370886 
C 439.713739 149.165167 416.510712 134.946334 390.621712 130.845919 
C 364.732711 126.745504 338.27146 133.098289 317.065741 148.505145 
C 295.860022 163.912002 281.641189 187.115029 277.540774 213.004029 
C 273.440359 238.89303 279.793143 265.354281 295.2 286.56 
C 310.606857 307.765719 333.809884 321.984552 359.698884 326.084967 
C 385.587885 330.185382 412.049136 323.832598 433.254855 308.425741 
C 454.460574 293.018884 468.679407 269.815857 472.779822 243.926857 
C 476.880237 218.037856 470.527452 191.576605 455.120596 170.370886 
L 455.120596 170.370886 
z
" clip-path="url(#pc94403189c)" style="fill: none; stroke: #00ff16; stroke-linejoin: miter"/>
   </g>
   <g id="patch_38">
    <path d="M 447.509454 160.558662 
C 430.801481 140.362192 406.751432 127.628346 380.656051 125.161606 
C 354.560669 122.694867 328.550528 130.696631 308.354058 147.404604 
C 288.157588 164.112576 275.423743 188.162626 272.957003 214.258007 
C 270.490263 240.353389 278.492027 266.36353 295.2 286.56 
C 311.907973 306.75647 335.958022 319.490315 362.053404 321.957055 
C 388.148785 324.423795 414.158927 316.422031 434.355396 299.714058 
C 454.551866 283.006085 467.285712 258.956036 469.752451 232.860654 
C 472.219191 206.765273 464.217427 180.755131 447.509454 160.558662 
L 447.509454 160.558662 
z
" clip-path="url(#pc94403189c)" style="fill: none; stroke: #00ff27; stroke-linejoin: miter"/>
   </g>
   <g id="patch_39">
    <path d="M 439.297217 151.243707 
C 421.354066 132.136192 396.55191 120.937589 370.353134 120.114259 
C 344.154357 119.29093 318.697976 128.910095 299.590462 146.853245 
C 280.482947 164.796395 269.284344 189.598552 268.461014 215.797328 
C 267.637685 241.996104 277.25685 267.452486 295.2 286.56 
C 313.14315 305.667514 337.945307 316.866117 364.144083 317.689447 
C 390.342859 318.512777 415.799241 308.893612 434.906755 290.950462 
C 454.014269 273.007311 465.212872 248.205155 466.036202 222.006379 
C 466.859532 195.807602 457.240367 170.351221 439.297217 151.243707 
L 439.297217 151.243707 
z
" clip-path="url(#pc94403189c)" style="fill: none; stroke: #00ff33; stroke-linejoin: miter"/>
   </g>
   <g id="patch_40">
    <path d="M 430.516293 142.462783 
C 411.408779 124.519633 385.952398 114.900468 359.753621 115.723798 
C 333.554845 116.547128 308.752689 127.745731 290.809538 146.853245 
C 272.866388 165.960759 263.247223 191.417141 264.070553 217.615917 
C 264.893883 243.814693 276.092486 268.61685 295.2 286.56 
C 314.307514 304.50315 339.763896 314.122315 365.962672 313.298986 
C 392.161448 312.475656 416.963605 301.277053 434.906755 282.169538 
C 452.849905 263.062024 462.46907 237.605643 461.645741 211.406866 
C 460.822411 185.20809 449.623808 160.405934 430.516293 142.462783 
L 430.516293 142.462783 
z
" clip-path="url(#pc94403189c)" style="fill: none; stroke: #00ff45; stroke-linejoin: miter"/>
   </g>
   <g id="patch_41">
    <path d="M 421.201338 134.250546 
C 401.004869 117.542573 374.994727 109.540809 348.899346 112.007549 
C 322.803964 114.474288 298.753915 127.208134 282.045942 147.404604 
C 265.337969 167.601073 257.336205 193.611215 259.802945 219.706596 
C 262.269685 245.801978 275.00353 269.852027 295.2 286.56 
C 315.39647 303.267973 341.406611 311.269737 367.501993 308.802997 
C 393.597374 306.336257 417.647424 293.602412 434.355396 273.405942 
C 451.063369 253.209472 459.065133 227.199331 456.598394 201.103949 
C 454.131654 175.008568 441.397808 150.958519 421.201338 134.250546 
L 421.201338 134.250546 
z
" clip-path="url(#pc94403189c)" style="fill: none; stroke: #00ff51; stroke-linejoin: miter"/>
   </g>
   <g id="patch_42">
    <path d="M 411.389114 126.639404 
C 390.183395 111.232548 363.722144 104.879763 337.833143 108.980178 
C 311.944143 113.080593 288.741116 127.299426 273.334259 148.505145 
C 257.927402 169.710864 251.574618 196.172115 255.675033 222.061116 
C 259.775448 247.950116 273.994281 271.153143 295.2 286.56 
C 316.405719 301.966857 342.86697 308.319641 368.755971 304.219226 
C 394.644971 300.118811 417.847998 285.899978 433.254855 264.694259 
C 448.661711 243.48854 455.014496 217.027289 450.914081 191.138288 
C 446.813666 165.249288 432.594833 142.046261 411.389114 126.639404 
L 411.389114 126.639404 
z
" clip-path="url(#pc94403189c)" style="fill: none; stroke: #00ff62; stroke-linejoin: miter"/>
   </g>
   <g id="patch_43">
    <path d="M 401.118344 119.659396 
C 378.987065 105.61446 352.179134 100.935727 326.598687 106.653634 
C 301.01824 112.371542 278.753807 128.019247 264.70887 150.150526 
C 250.663934 172.281805 245.985201 199.089736 251.703108 224.670183 
C 257.421015 250.25063 273.068721 272.515063 295.2 286.56 
C 317.331279 300.604937 344.13921 305.283669 369.719657 299.565762 
C 395.300104 293.847855 417.564537 278.200149 431.609474 256.06887 
C 445.65441 233.937591 450.333143 207.129661 444.615236 181.549213 
C 438.897329 155.968766 423.249623 133.704333 401.118344 119.659396 
L 401.118344 119.659396 
z
" clip-path="url(#pc94403189c)" style="fill: none; stroke: #00ff74; stroke-linejoin: miter"/>
   </g>
   <g id="patch_44">
    <path d="M 390.429563 113.338069 
C 367.460066 100.710481 340.411255 97.724264 315.240315 105.037098 
C 290.069375 112.349932 268.831403 129.364756 256.203816 152.334253 
C 243.576228 175.30375 240.590011 202.352561 247.902845 227.523501 
C 255.215679 252.69444 272.230503 273.932412 295.2 286.56 
C 318.169497 299.187588 345.218308 302.173804 370.389248 294.86097 
C 395.560187 287.548136 416.798159 270.533312 429.425747 247.563816 
C 442.053335 224.594319 445.039551 197.545508 437.726717 172.374568 
C 430.413883 147.203628 413.399059 125.965656 390.429563 113.338069 
L 390.429563 113.338069 
z
" clip-path="url(#pc94403189c)" style="fill: none; stroke: #00ff80; stroke-linejoin: miter"/>
   </g>
   <g id="patch_45">
    <path d="M 379.364954 107.700369 
C 355.647889 96.539966 328.464947 95.25805 303.802853 104.136951 
C 279.140759 113.015851 259.013065 131.330643 247.852661 155.047708 
C 236.692258 178.764772 235.410343 205.947715 244.289243 230.609809 
C 253.168143 255.271903 271.482936 275.399597 295.2 286.56 
C 318.917064 297.720403 346.100007 299.002318 370.762101 290.123418 
C 395.424195 281.244518 415.551889 262.929726 426.712292 239.212661 
C 437.872696 215.495597 439.154611 188.312654 430.275711 163.65056 
C 421.396811 138.988466 403.082018 118.860772 379.364954 107.700369 
L 379.364954 107.700369 
z
" clip-path="url(#pc94403189c)" style="fill: none; stroke: #00ff92; stroke-linejoin: miter"/>
   </g>
   <g id="patch_46">
    <path d="M 367.968184 102.768546 
C 343.597153 93.119372 316.387357 93.546818 292.331439 103.956743 
C 268.275521 114.366669 249.337539 133.909149 239.688365 158.280181 
C 230.039191 182.651213 230.466637 209.861008 240.876562 233.916926 
C 251.286488 257.972845 270.828968 276.910826 295.2 286.56 
C 319.571032 296.209174 346.780827 295.781728 370.836745 285.371803 
C 394.892664 274.961878 413.830645 255.419397 423.479819 231.048365 
C 433.128993 206.677334 432.701547 179.467538 422.291622 155.41162 
C 411.881697 131.355702 392.339216 112.41772 367.968184 102.768546 
L 367.968184 102.768546 
z
" clip-path="url(#pc94403189c)" style="fill: none; stroke: #00ff9d; stroke-linejoin: miter"/>
   </g>
   <g id="patch_47">
    <path d="M 356.284232 98.562065 
C 331.355414 90.462201 304.226151 92.59732 280.871346 104.497187 
C 257.516541 116.397055 239.843012 137.090099 231.743148 162.018916 
C 223.643284 186.947734 225.778404 214.076998 237.678271 237.431802 
C 249.578139 260.786607 270.271182 278.460136 295.2 286.56 
C 320.128818 294.659864 347.258081 292.524744 370.612886 280.624877 
C 393.967691 268.72501 411.64122 248.031966 419.741084 223.103148 
C 427.840948 198.174331 425.705828 171.045067 413.805961 147.690262 
C 401.906094 124.335458 381.21305 106.661928 356.284232 98.562065 
L 356.284232 98.562065 
z
" clip-path="url(#pc94403189c)" style="fill: none; stroke: #00ffaf; stroke-linejoin: miter"/>
   </g>
   <g id="patch_48">
    <path d="M 344.359208 95.097525 
C 318.970987 88.578938 292.029322 92.413305 269.467802 105.75615 
C 246.906281 119.098996 230.566954 140.860937 224.048367 166.249158 
C 217.529779 191.637379 221.364146 218.579045 234.706992 241.140565 
C 248.049838 263.702085 269.811779 280.041413 295.2 286.56 
C 320.588221 293.078587 347.529886 289.24422 370.091407 275.901374 
C 392.652927 262.558528 408.992254 240.796588 415.510842 215.408367 
C 422.029429 190.020146 418.195062 163.07848 404.852216 140.51696 
C 391.50937 117.95544 369.747429 101.616112 344.359208 95.097525 
L 344.359208 95.097525 
z
" clip-path="url(#pc94403189c)" style="fill: none; stroke: #00ffbb; stroke-linejoin: miter"/>
   </g>
   <g id="patch_49">
    <path d="M 332.240175 92.3886 
C 306.492747 87.477016 279.845007 92.995497 258.165811 107.728664 
C 236.486614 122.46183 221.545973 145.206784 216.634388 170.954212 
C 211.722803 196.701641 217.241285 223.349381 231.974451 245.028577 
C 246.707618 266.707773 269.452571 281.648415 295.2 286.56 
C 320.947429 291.471585 347.595169 285.953103 369.274365 271.219936 
C 390.953561 256.48677 405.894203 233.741816 410.805788 207.994388 
C 415.717372 182.246959 410.198891 155.599219 395.465724 133.920023 
C 380.732558 112.240827 357.987604 97.300185 332.240175 92.3886 
L 332.240175 92.3886 
z
" clip-path="url(#pc94403189c)" style="fill: none; stroke: #00ffcd; stroke-linejoin: miter"/>
   </g>
   <g id="patch_50">
    <path d="M 319.974962 90.445981 
C 293.969939 87.160783 267.721291 94.341601 247.009977 110.406942 
C 226.298663 126.472284 212.81567 150.110487 209.530472 176.11551 
C 206.245273 202.120532 213.426091 228.369181 229.491433 249.080495 
C 245.556775 269.791809 269.194977 283.274802 295.2 286.56 
C 321.205023 289.845198 347.453671 282.664381 368.164985 266.599039 
C 388.8763 250.533697 402.359292 226.895495 405.64449 200.890472 
C 408.929689 174.885449 401.748871 148.6368 385.683529 127.925486 
C 369.618187 107.214172 345.979985 93.73118 319.974962 90.445981 
L 319.974962 90.445981 
z
" clip-path="url(#pc94403189c)" style="fill: none; stroke: #00ffde; stroke-linejoin: miter"/>
   </g>
   <g id="patch_51">
    <path d="M 307.611973 89.277335 
C 281.451986 87.631488 255.70602 96.446302 236.044327 113.780417 
C 216.382633 131.114532 204.410501 155.552694 202.764654 181.712681 
C 201.118807 207.872668 209.933621 233.618634 227.267736 253.280327 
C 244.601851 272.942021 269.040013 284.914153 295.2 286.56 
C 321.359987 288.205847 347.105953 279.391033 366.767647 262.056918 
C 386.42934 244.722803 398.401472 220.284641 400.047319 194.124654 
C 401.693166 167.964667 392.878352 142.218701 375.544237 122.557007 
C 358.210122 102.895314 333.77196 90.923182 307.611973 89.277335 
L 307.611973 89.277335 
z
" clip-path="url(#pc94403189c)" style="fill: none; stroke: #00ffea; stroke-linejoin: miter"/>
   </g>
   <g id="patch_52">
    <path d="M 295.2 88.887273 
C 268.98829 88.887273 243.846615 99.301296 225.312137 117.835773 
C 206.777659 136.370251 196.363636 161.511926 196.363636 187.723636 
C 196.363636 213.935346 206.777659 239.077021 225.312137 257.611499 
C 243.846615 276.145977 268.98829 286.56 295.2 286.56 
C 321.41171 286.56 346.553385 276.145977 365.087863 257.611499 
C 383.622341 239.077021 394.036364 213.935346 394.036364 187.723636 
C 394.036364 161.511926 383.622341 136.370251 365.087863 117.835773 
C 346.553385 99.301296 321.41171 88.887273 295.2 88.887273 
L 295.2 88.887273 
z
" clip-path="url(#pc94403189c)" style="fill: none; stroke: #00fffc; stroke-linejoin: miter"/>
   </g>
   <g id="patch_53">
    <path d="M 282.788027 89.277335 
C 256.62804 90.923182 232.189878 102.895314 214.855763 122.557007 
C 197.521648 142.218701 188.706834 167.964667 190.352681 194.124654 
C 191.998528 220.284641 203.97066 244.722803 223.632353 262.056918 
C 243.294047 279.391033 269.040013 288.205847 295.2 286.56 
C 321.359987 284.914153 345.798149 272.942021 363.132264 253.280327 
C 380.466379 233.618634 389.281193 207.872668 387.635346 181.712681 
C 385.989499 155.552694 374.017367 131.114532 354.355673 113.780417 
C 334.69398 96.446302 308.948014 87.631488 282.788027 89.277335 
L 282.788027 89.277335 
z
" clip-path="url(#pc94403189c)" style="fill: none; stroke: #00f6ff; stroke-linejoin: miter"/>
   </g>
   <g id="patch_54">
    <path d="M 270.425038 90.445981 
C 244.420015 93.73118 220.781813 107.214172 204.716471 127.925486 
C 188.651129 148.6368 181.470311 174.885449 184.75551 200.890472 
C 188.040708 226.895495 201.5237 250.533697 222.235015 266.599039 
C 242.946329 282.664381 269.194977 289.845198 295.2 286.56 
C 321.205023 283.274802 344.843225 269.791809 360.908567 249.080495 
C 376.973909 228.369181 384.154727 202.120532 380.869528 176.11551 
C 377.58433 150.110487 364.101337 126.472284 343.390023 110.406942 
C 322.678709 94.341601 296.430061 87.160783 270.425038 90.445981 
L 270.425038 90.445981 
z
" clip-path="url(#pc94403189c)" style="fill: none; stroke: #00e5ff; stroke-linejoin: miter"/>
   </g>
   <g id="patch_55">
    <path d="M 258.159825 92.3886 
C 232.412396 97.300185 209.667442 112.240827 194.934276 133.920023 
C 180.201109 155.599219 174.682628 182.246959 179.594212 207.994388 
C 184.505797 233.741816 199.446439 256.48677 221.125635 271.219936 
C 242.804831 285.953103 269.452571 291.471585 295.2 286.56 
C 320.947429 281.648415 343.692382 266.707773 358.425549 245.028577 
C 373.158715 223.349381 378.677197 196.701641 373.765612 170.954212 
C 368.854027 145.206784 353.913386 122.46183 332.234189 107.728664 
C 310.554993 92.995497 283.907253 87.477016 258.159825 92.3886 
L 258.159825 92.3886 
z
" clip-path="url(#pc94403189c)" style="fill: none; stroke: #00d3ff; stroke-linejoin: miter"/>
   </g>
   <g id="patch_56">
    <path d="M 246.040792 95.097525 
C 220.652571 101.616112 198.89063 117.95544 185.547784 140.51696 
C 172.204938 163.07848 168.370571 190.020146 174.889158 215.408367 
C 181.407746 240.796588 197.747073 262.558528 220.308593 275.901374 
C 242.870114 289.24422 269.811779 293.078587 295.2 286.56 
C 320.588221 280.041413 342.350162 263.702085 355.693008 241.140565 
C 369.035854 218.579045 372.870221 191.637379 366.351633 166.249158 
C 359.833046 140.860937 343.493719 119.098996 320.932198 105.75615 
C 298.370678 92.413305 271.429013 88.578938 246.040792 95.097525 
L 246.040792 95.097525 
z
" clip-path="url(#pc94403189c)" style="fill: none; stroke: #00c7ff; stroke-linejoin: miter"/>
   </g>
   <g id="patch_57">
    <path d="M 234.115768 98.562065 
C 209.18695 106.661928 188.493906 124.335458 176.594039 147.690262 
C 164.694172 171.045067 162.559052 198.174331 170.658916 223.103148 
C 178.75878 248.031966 196.432309 268.72501 219.787114 280.624877 
C 243.141919 292.524744 270.271182 294.659864 295.2 286.56 
C 320.128818 278.460136 340.821861 260.786607 352.721729 237.431802 
C 364.621596 214.076998 366.756716 186.947734 358.656852 162.018916 
C 350.556988 137.090099 332.883459 116.397055 309.528654 104.497187 
C 286.173849 92.59732 259.044586 90.462201 234.115768 98.562065 
L 234.115768 98.562065 
z
" clip-path="url(#pc94403189c)" style="fill: none; stroke: #00b5ff; stroke-linejoin: miter"/>
   </g>
   <g id="patch_58">
    <path d="M 222.431816 102.768546 
C 198.060784 112.41772 178.518303 131.355702 168.108378 155.41162 
C 157.698453 179.467538 157.271007 206.677334 166.920181 231.048365 
C 176.569355 255.419397 195.507336 274.961878 219.563255 285.371803 
C 243.619173 295.781728 270.828968 296.209174 295.2 286.56 
C 319.571032 276.910826 339.113512 257.972845 349.523438 233.916926 
C 359.933363 209.861008 360.360809 182.651213 350.711635 158.280181 
C 341.062461 133.909149 322.124479 114.366669 298.068561 103.956743 
C 274.012643 93.546818 246.802847 93.119372 222.431816 102.768546 
L 222.431816 102.768546 
z
" clip-path="url(#pc94403189c)" style="fill: none; stroke: #00aaff; stroke-linejoin: miter"/>
   </g>
   <g id="patch_59">
    <path d="M 211.035046 107.700369 
C 187.317982 118.860772 169.003189 138.988466 160.124289 163.65056 
C 151.245389 188.312654 152.527304 215.495597 163.687708 239.212661 
C 174.848111 262.929726 194.975805 281.244518 219.637899 290.123418 
C 244.299993 299.002318 271.482936 297.720403 295.2 286.56 
C 318.917064 275.399597 337.231857 255.271903 346.110757 230.609809 
C 354.989657 205.947715 353.707742 178.764772 342.547339 155.047708 
C 331.386935 131.330643 311.259241 113.015851 286.597147 104.136951 
C 261.935053 95.25805 234.752111 96.539966 211.035046 107.700369 
L 211.035046 107.700369 
z
" clip-path="url(#pc94403189c)" style="fill: none; stroke: #0098ff; stroke-linejoin: miter"/>
   </g>
   <g id="patch_60">
    <path d="M 199.970437 113.338069 
C 177.000941 125.965656 159.986117 147.203628 152.673283 172.374568 
C 145.360449 197.545508 148.346665 224.594319 160.974253 247.563816 
C 173.601841 270.533312 194.839813 287.548136 220.010752 294.86097 
C 245.181692 302.173804 272.230503 299.187588 295.2 286.56 
C 318.169497 273.932412 335.184321 252.69444 342.497155 227.523501 
C 349.809989 202.352561 346.823772 175.30375 334.196184 152.334253 
C 321.568597 129.364756 300.330625 112.349932 275.159685 105.037098 
C 249.988745 97.724264 222.939934 100.710481 199.970437 113.338069 
L 199.970437 113.338069 
z
" clip-path="url(#pc94403189c)" style="fill: none; stroke: #008cff; stroke-linejoin: miter"/>
   </g>
   <g id="patch_61">
    <path d="M 189.281656 119.659396 
C 167.150377 133.704333 151.502671 155.968766 145.784764 181.549213 
C 140.066857 207.129661 144.74559 233.937591 158.790526 256.06887 
C 172.835463 278.200149 195.099896 293.847855 220.680343 299.565762 
C 246.26079 305.283669 273.068721 300.604937 295.2 286.56 
C 317.331279 272.515063 332.978985 250.25063 338.696892 224.670183 
C 344.414799 199.089736 339.736066 172.281805 325.69113 150.150526 
C 311.646193 128.019247 289.38176 112.371542 263.801313 106.653634 
C 238.220866 100.935727 211.412935 105.61446 189.281656 119.659396 
L 189.281656 119.659396 
z
" clip-path="url(#pc94403189c)" style="fill: none; stroke: #007aff; stroke-linejoin: miter"/>
   </g>
   <g id="patch_62">
    <path d="M 179.010886 126.639404 
C 157.805167 142.046261 143.586334 165.249288 139.485919 191.138288 
C 135.385504 217.027289 141.738289 243.48854 157.145145 264.694259 
C 172.552002 285.899978 195.755029 300.118811 221.644029 304.219226 
C 247.53303 308.319641 273.994281 301.966857 295.2 286.56 
C 316.405719 271.153143 330.624552 247.950116 334.724967 222.061116 
C 338.825382 196.172115 332.472598 169.710864 317.065741 148.505145 
C 301.658884 127.299426 278.455857 113.080593 252.566857 108.980178 
C 226.677856 104.879763 200.216605 111.232548 179.010886 126.639404 
L 179.010886 126.639404 
z
" clip-path="url(#pc94403189c)" style="fill: none; stroke: #0069ff; stroke-linejoin: miter"/>
   </g>
   <g id="patch_63">
    <path d="M 169.198662 134.250546 
C 149.002192 150.958519 136.268346 175.008568 133.801606 201.103949 
C 131.334867 227.199331 139.336631 253.209472 156.044604 273.405942 
C 172.752576 293.602412 196.802626 306.336257 222.898007 308.802997 
C 248.993389 311.269737 275.00353 303.267973 295.2 286.56 
C 315.39647 269.852027 328.130315 245.801978 330.597055 219.706596 
C 333.063795 193.611215 325.062031 167.601073 308.354058 147.404604 
C 291.646085 127.208134 267.596036 114.474288 241.500654 112.007549 
C 215.405273 109.540809 189.395131 117.542573 169.198662 134.250546 
L 169.198662 134.250546 
z
" clip-path="url(#pc94403189c)" style="fill: none; stroke: #005dff; stroke-linejoin: miter"/>
   </g>
   <g id="patch_64">
    <path d="M 159.883707 142.462783 
C 140.776192 160.405934 129.577589 185.20809 128.754259 211.406866 
C 127.93093 237.605643 137.550095 263.062024 155.493245 282.169538 
C 173.436395 301.277053 198.238552 312.475656 224.437328 313.298986 
C 250.636104 314.122315 276.092486 304.50315 295.2 286.56 
C 314.307514 268.61685 325.506117 243.814693 326.329447 217.615917 
C 327.152777 191.417141 317.533612 165.960759 299.590462 146.853245 
C 281.647311 127.745731 256.845155 116.547128 230.646379 115.723798 
C 204.447602 114.900468 178.991221 124.519633 159.883707 142.462783 
L 159.883707 142.462783 
z
" clip-path="url(#pc94403189c)" style="fill: none; stroke: #004bff; stroke-linejoin: miter"/>
   </g>
   <g id="patch_65">
    <path d="M 151.102783 151.243707 
C 133.159633 170.351221 123.540468 195.807602 124.363798 222.006379 
C 125.187128 248.205155 136.385731 273.007311 155.493245 290.950462 
C 174.600759 308.893612 200.057141 318.512777 226.255917 317.689447 
C 252.454693 316.866117 277.25685 305.667514 295.2 286.56 
C 313.14315 267.452486 322.762315 241.996104 321.938986 215.797328 
C 321.115656 189.598552 309.917053 164.796395 290.809538 146.853245 
C 271.702024 128.910095 246.245643 119.29093 220.046866 120.114259 
C 193.84809 120.937589 169.045934 132.136192 151.102783 151.243707 
L 151.102783 151.243707 
z
" clip-path="url(#pc94403189c)" style="fill: none; stroke: #003fff; stroke-linejoin: miter"/>
   </g>
   <g id="patch_66">
    <path d="M 142.890546 160.558662 
C 126.182573 180.755131 118.180809 206.765273 120.647549 232.860654 
C 123.114288 258.956036 135.848134 283.006085 156.044604 299.714058 
C 176.241073 316.422031 202.251215 324.423795 228.346596 321.957055 
C 254.441978 319.490315 278.492027 306.75647 295.2 286.56 
C 311.907973 266.36353 319.909737 240.353389 317.442997 214.258007 
C 314.976257 188.162626 302.242412 164.112576 282.045942 147.404604 
C 261.849472 130.696631 235.839331 122.694867 209.743949 125.161606 
C 183.648568 127.628346 159.598519 140.362192 142.890546 160.558662 
L 142.890546 160.558662 
z
" clip-path="url(#pc94403189c)" style="fill: none; stroke: #002dff; stroke-linejoin: miter"/>
   </g>
   <g id="patch_67">
    <path d="M 135.279404 170.370886 
C 119.872548 191.576605 113.519763 218.037856 117.620178 243.926857 
C 121.720593 269.815857 135.939426 293.018884 157.145145 308.425741 
C 178.350864 323.832598 204.812115 330.185382 230.701116 326.084967 
C 256.590116 321.984552 279.793143 307.765719 295.2 286.56 
C 310.606857 265.354281 316.959641 238.89303 312.859226 213.004029 
C 308.758811 187.115029 294.539978 163.912002 273.334259 148.505145 
C 252.12854 133.098289 225.667289 126.745504 199.778288 130.845919 
C 173.889288 134.946334 150.686261 149.165167 135.279404 170.370886 
L 135.279404 170.370886 
z
" clip-path="url(#pc94403189c)" style="fill: none; stroke: #001cff; stroke-linejoin: miter"/>
   </g>
   <g id="patch_68">
    <path d="M 128.299396 180.641656 
C 114.25446 202.772935 109.575727 229.580866 115.293634 255.161313 
C 121.011542 280.74176 136.659247 303.006193 158.790526 317.05113 
C 180.921805 331.096066 207.729736 335.774799 233.310183 330.056892 
C 258.89063 324.338985 281.155063 308.691279 295.2 286.56 
C 309.244937 264.428721 313.923669 237.62079 308.205762 212.040343 
C 302.487855 186.459896 286.840149 164.195463 264.70887 150.150526 
C 242.577591 136.10559 215.769661 131.426857 190.189213 137.144764 
C 164.608766 142.862671 142.344333 158.510377 128.299396 180.641656 
L 128.299396 180.641656 
z
" clip-path="url(#pc94403189c)" style="fill: none; stroke: #0010ff; stroke-linejoin: miter"/>
   </g>
   <g id="patch_69">
    <path d="M 121.978069 191.330437 
C 109.350481 214.299934 106.364264 241.348745 113.677098 266.519685 
C 120.989932 291.690625 138.004756 312.928597 160.974253 325.556184 
C 183.94375 338.183772 210.992561 341.169989 236.163501 333.857155 
C 261.33444 326.544321 282.572412 309.529497 295.2 286.56 
C 307.827588 263.590503 310.813804 236.541692 303.50097 211.370752 
C 296.188136 186.199813 279.173312 164.961841 256.203816 152.334253 
C 233.234319 139.706665 206.185508 136.720449 181.014568 144.033283 
C 155.843628 151.346117 134.605656 168.360941 121.978069 191.330437 
L 121.978069 191.330437 
z
" clip-path="url(#pc94403189c)" style="fill: none; stroke: #0604ff; stroke-linejoin: miter"/>
   </g>
   <g id="patch_70">
    <path d="M 116.340369 202.395046 
C 105.179966 226.112111 103.89805 253.295053 112.776951 277.957147 
C 121.655851 302.619241 139.970643 322.746935 163.687708 333.907339 
C 187.404772 345.067742 214.587715 346.349657 239.249809 337.470757 
C 263.911903 328.591857 284.039597 310.277064 295.2 286.56 
C 306.360403 262.842936 307.642318 235.659993 298.763418 210.997899 
C 289.884518 186.335805 271.569726 166.208111 247.852661 155.047708 
C 224.135597 143.887304 196.952654 142.605389 172.29056 151.484289 
C 147.628466 160.363189 127.500772 178.677982 116.340369 202.395046 
L 116.340369 202.395046 
z
" clip-path="url(#pc94403189c)" style="fill: none; stroke: #0e00ff; stroke-linejoin: miter"/>
   </g>
   <g id="patch_71">
    <path d="M 111.408546 213.791816 
C 101.759372 238.162847 102.186818 265.372643 112.596743 289.428561 
C 123.006669 313.484479 142.549149 332.422461 166.920181 342.071635 
C 191.291213 351.720809 218.501008 351.293363 242.556926 340.883438 
C 266.612845 330.473512 285.550826 310.931032 295.2 286.56 
C 304.849174 262.188968 304.421728 234.979173 294.011803 210.923255 
C 283.601878 186.867336 264.059397 167.929355 239.688365 158.280181 
C 215.317334 148.631007 188.107538 149.058453 164.05162 159.468378 
C 139.995702 169.878303 121.05772 189.420784 111.408546 213.791816 
L 111.408546 213.791816 
z
" clip-path="url(#pc94403189c)" style="fill: none; stroke: #1f00ff; stroke-linejoin: miter"/>
   </g>
   <g id="patch_72">
    <path d="M 107.202065 225.475768 
C 99.102201 250.404586 101.23732 277.533849 113.137187 300.888654 
C 125.037055 324.243459 145.730099 341.916988 170.658916 350.016852 
C 195.587734 358.116716 222.716998 355.981596 246.071802 344.081729 
C 269.426607 332.181861 287.100136 311.488818 295.2 286.56 
C 303.299864 261.631182 301.164744 234.501919 289.264877 211.147114 
C 277.36501 187.792309 256.671966 170.11878 231.743148 162.018916 
C 206.814331 153.919052 179.685067 156.054172 156.330262 167.954039 
C 132.975458 179.853906 115.301928 200.54695 107.202065 225.475768 
L 107.202065 225.475768 
z
" clip-path="url(#pc94403189c)" style="fill: none; stroke: #3100ff; stroke-linejoin: miter"/>
   </g>
   <g id="patch_73">
    <path d="M 103.737525 237.400792 
C 97.218938 262.789013 101.053305 289.730678 114.39615 312.292198 
C 127.738996 334.853719 149.500937 351.193046 174.889158 357.711633 
C 200.277379 364.230221 227.219045 360.395854 249.780565 347.053008 
C 272.342085 333.710162 288.681413 311.948221 295.2 286.56 
C 301.718587 261.171779 297.88422 234.230114 284.541374 211.668593 
C 271.198528 189.107073 249.436588 172.767746 224.048367 166.249158 
C 198.660146 159.730571 171.71848 163.564938 149.15696 176.907784 
C 126.59544 190.25063 110.256112 212.012571 103.737525 237.400792 
L 103.737525 237.400792 
z
" clip-path="url(#pc94403189c)" style="fill: none; stroke: #3d00ff; stroke-linejoin: miter"/>
   </g>
   <g id="patch_74">
    <path d="M 101.0286 249.519825 
C 96.117016 275.267253 101.635497 301.914993 116.368664 323.594189 
C 131.10183 345.273386 153.846784 360.214027 179.594212 365.125612 
C 205.341641 370.037197 231.989381 364.518715 253.668577 349.785549 
C 275.347773 335.052382 290.288415 312.307429 295.2 286.56 
C 300.111585 260.812571 294.593103 234.164831 279.859936 212.485635 
C 265.12677 190.806439 242.381816 175.865797 216.634388 170.954212 
C 190.886959 166.042628 164.239219 171.561109 142.560023 186.294276 
C 120.880827 201.027442 105.940185 223.772396 101.0286 249.519825 
L 101.0286 249.519825 
z
" clip-path="url(#pc94403189c)" style="fill: none; stroke: #4f00ff; stroke-linejoin: miter"/>
   </g>
   <g id="patch_75">
    <path d="M 99.085981 261.785038 
C 95.800783 287.790061 102.981601 314.038709 119.046942 334.750023 
C 135.112284 355.461337 158.750487 368.94433 184.75551 372.229528 
C 210.760532 375.514727 237.009181 368.333909 257.720495 352.268567 
C 278.431809 336.203225 291.914802 312.565023 295.2 286.56 
C 298.485198 260.554977 291.304381 234.306329 275.239039 213.595015 
C 259.173697 192.8837 235.535495 179.400708 209.530472 176.11551 
C 183.525449 172.830311 157.2768 180.011129 136.565486 196.076471 
C 115.854172 212.141813 102.37118 235.780015 99.085981 261.785038 
L 99.085981 261.785038 
z
" clip-path="url(#pc94403189c)" style="fill: none; stroke: #5a00ff; stroke-linejoin: miter"/>
   </g>
   <g id="patch_76">
    <path d="M 97.917335 274.148027 
C 96.271488 300.308014 105.086302 326.05398 122.420417 345.715673 
C 139.754532 365.377367 164.192694 377.349499 190.352681 378.995346 
C 216.512668 380.641193 242.258634 371.826379 261.920327 354.492264 
C 281.582021 337.158149 293.554153 312.719987 295.2 286.56 
C 296.845847 260.400013 288.031033 234.654047 270.696918 214.992353 
C 253.362803 195.33066 228.924641 183.358528 202.764654 181.712681 
C 176.604667 180.066834 150.858701 188.881648 131.197007 206.215763 
C 111.535314 223.549878 99.563182 247.98804 97.917335 274.148027 
L 97.917335 274.148027 
z
" clip-path="url(#pc94403189c)" style="fill: none; stroke: #6c00ff; stroke-linejoin: miter"/>
   </g>
   <g id="patch_77">
    <path d="M 97.527273 286.56 
C 97.527273 312.77171 107.941296 337.913385 126.475773 356.447863 
C 145.010251 374.982341 170.151926 385.396364 196.363636 385.396364 
C 222.575346 385.396364 247.717021 374.982341 266.251499 356.447863 
C 284.785977 337.913385 295.2 312.77171 295.2 286.56 
C 295.2 260.34829 284.785977 235.206615 266.251499 216.672137 
C 247.717021 198.137659 222.575346 187.723636 196.363636 187.723636 
C 170.151926 187.723636 145.010251 198.137659 126.475773 216.672137 
C 107.941296 235.206615 97.527273 260.34829 97.527273 286.56 
L 97.527273 286.56 
z
" clip-path="url(#pc94403189c)" style="fill: none; stroke: #7800ff; stroke-linejoin: miter"/>
   </g>
   <g id="patch_78">
    <path d="M 97.917335 298.971973 
C 99.563182 325.13196 111.535314 349.570122 131.197007 366.904237 
C 150.858701 384.238352 176.604667 393.053166 202.764654 391.407319 
C 228.924641 389.761472 253.362803 377.78934 270.696918 358.127647 
C 288.031033 338.465953 296.845847 312.719987 295.2 286.56 
C 293.554153 260.400013 281.582021 235.961851 261.920327 218.627736 
C 242.258634 201.293621 216.512668 192.478807 190.352681 194.124654 
C 164.192694 195.770501 139.754532 207.742633 122.420417 227.404327 
C 105.086302 247.06602 96.271488 272.811986 97.917335 298.971973 
L 97.917335 298.971973 
z
" clip-path="url(#pc94403189c)" style="fill: none; stroke: #8a00ff; stroke-linejoin: miter"/>
   </g>
   <g id="patch_79">
    <path d="M 99.085981 311.334962 
C 102.37118 337.339985 115.854172 360.978187 136.565486 377.043529 
C 157.2768 393.108871 183.525449 400.289689 209.530472 397.00449 
C 235.535495 393.719292 259.173697 380.2363 275.239039 359.524985 
C 291.304381 338.813671 298.485198 312.565023 295.2 286.56 
C 291.914802 260.554977 278.431809 236.916775 257.720495 220.851433 
C 237.009181 204.786091 210.760532 197.605273 184.75551 200.890472 
C 158.750487 204.17567 135.112284 217.658663 119.046942 238.369977 
C 102.981601 259.081291 95.800783 285.329939 99.085981 311.334962 
L 99.085981 311.334962 
z
" clip-path="url(#pc94403189c)" style="fill: none; stroke: #9b00ff; stroke-linejoin: miter"/>
   </g>
   <g id="patch_80">
    <path d="M 101.0286 323.600175 
C 105.940185 349.347604 120.880827 372.092558 142.560023 386.825724 
C 164.239219 401.558891 190.886959 407.077372 216.634388 402.165788 
C 242.381816 397.254203 265.12677 382.313561 279.859936 360.634365 
C 294.593103 338.955169 300.111585 312.307429 295.2 286.56 
C 290.288415 260.812571 275.347773 238.067618 253.668577 223.334451 
C 231.989381 208.601285 205.341641 203.082803 179.594212 207.994388 
C 153.846784 212.905973 131.10183 227.846614 116.368664 249.525811 
C 101.635497 271.205007 96.117016 297.852747 101.0286 323.600175 
L 101.0286 323.600175 
z
" clip-path="url(#pc94403189c)" style="fill: none; stroke: #a700ff; stroke-linejoin: miter"/>
   </g>
   <g id="patch_81">
    <path d="M 103.737525 335.719208 
C 110.256112 361.107429 126.59544 382.86937 149.15696 396.212216 
C 171.71848 409.555062 198.660146 413.389429 224.048367 406.870842 
C 249.436588 400.352254 271.198528 384.012927 284.541374 361.451407 
C 297.88422 338.889886 301.718587 311.948221 295.2 286.56 
C 288.681413 261.171779 272.342085 239.409838 249.780565 226.066992 
C 227.219045 212.724146 200.277379 208.889779 174.889158 215.408367 
C 149.500937 221.926954 127.738996 238.266281 114.39615 260.827802 
C 101.053305 283.389322 97.218938 310.330987 103.737525 335.719208 
L 103.737525 335.719208 
z
" clip-path="url(#pc94403189c)" style="fill: none; stroke: #b900ff; stroke-linejoin: miter"/>
   </g>
   <g id="patch_82">
    <path d="M 107.202065 347.644232 
C 115.301928 372.57305 132.975458 393.266094 156.330262 405.165961 
C 179.685067 417.065828 206.814331 419.200948 231.743148 411.101084 
C 256.671966 403.00122 277.36501 385.327691 289.264877 361.972886 
C 301.164744 338.618081 303.299864 311.488818 295.2 286.56 
C 287.100136 261.631182 269.426607 240.938139 246.071802 229.038271 
C 222.716998 217.138404 195.587734 215.003284 170.658916 223.103148 
C 145.730099 231.203012 125.037055 248.876541 113.137187 272.231346 
C 101.23732 295.586151 99.102201 322.715414 107.202065 347.644232 
L 107.202065 347.644232 
z
" clip-path="url(#pc94403189c)" style="fill: none; stroke: #c500ff; stroke-linejoin: miter"/>
   </g>
   <g id="patch_83">
    <path d="M 111.408546 359.328184 
C 121.05772 383.699216 139.995702 403.241697 164.05162 413.651622 
C 188.107538 424.061547 215.317334 424.488993 239.688365 414.839819 
C 264.059397 405.190645 283.601878 386.252664 294.011803 362.196745 
C 304.421728 338.140827 304.849174 310.931032 295.2 286.56 
C 285.550826 262.188968 266.612845 242.646488 242.556926 232.236562 
C 218.501008 221.826637 191.291213 221.399191 166.920181 231.048365 
C 142.549149 240.697539 123.006669 259.635521 112.596743 283.691439 
C 102.186818 307.747357 101.759372 334.957153 111.408546 359.328184 
L 111.408546 359.328184 
z
" clip-path="url(#pc94403189c)" style="fill: none; stroke: #d600ff; stroke-linejoin: miter"/>
   </g>
   <g id="patch_84">
    <path d="M 116.340369 370.724954 
C 127.500772 394.442018 147.628466 412.756811 172.29056 421.635711 
C 196.952654 430.514611 224.135597 429.232696 247.852661 418.072292 
C 271.569726 406.911889 289.884518 386.784195 298.763418 362.122101 
C 307.642318 337.460007 306.360403 310.277064 295.2 286.56 
C 284.039597 262.842936 263.911903 244.528143 239.249809 235.649243 
C 214.587715 226.770343 187.404772 228.052258 163.687708 239.212661 
C 139.970643 250.373065 121.655851 270.500759 112.776951 295.162853 
C 103.89805 319.824947 105.179966 347.007889 116.340369 370.724954 
L 116.340369 370.724954 
z
" clip-path="url(#pc94403189c)" style="fill: none; stroke: #e800ff; stroke-linejoin: miter"/>
   </g>
   <g id="patch_85">
    <path d="M 121.978069 381.789563 
C 134.605656 404.759059 155.843628 421.773883 181.014568 429.086717 
C 206.185508 436.399551 233.234319 433.413335 256.203816 420.785747 
C 279.173312 408.158159 296.188136 386.920187 303.50097 361.749248 
C 310.813804 336.578308 307.827588 309.529497 295.2 286.56 
C 282.572412 263.590503 261.33444 246.575679 236.163501 239.262845 
C 210.992561 231.950011 183.94375 234.936228 160.974253 247.563816 
C 138.004756 260.191403 120.989932 281.429375 113.677098 306.600315 
C 106.364264 331.771255 109.350481 358.820066 121.978069 381.789563 
L 121.978069 381.789563 
z
" clip-path="url(#pc94403189c)" style="fill: none; stroke: #f400ff; stroke-linejoin: miter"/>
   </g>
   <g id="patch_86">
    <path d="M 128.299396 392.478344 
C 142.344333 414.609623 164.608766 430.257329 190.189213 435.975236 
C 215.769661 441.693143 242.577591 437.01441 264.70887 422.969474 
C 286.840149 408.924537 302.487855 386.660104 308.205762 361.079657 
C 313.923669 335.49921 309.244937 308.691279 295.2 286.56 
C 281.155063 264.428721 258.89063 248.781015 233.310183 243.063108 
C 207.729736 237.345201 180.921805 242.023934 158.790526 256.06887 
C 136.659247 270.113807 121.011542 292.37824 115.293634 317.958687 
C 109.575727 343.539134 114.25446 370.347065 128.299396 392.478344 
L 128.299396 392.478344 
z
" clip-path="url(#pc94403189c)" style="fill: none; stroke: #fc00f5; stroke-linejoin: miter"/>
   </g>
   <g id="patch_87">
    <path d="M 135.279404 402.749114 
C 150.686261 423.954833 173.889288 438.173666 199.778288 442.274081 
C 225.667289 446.374496 252.12854 440.021711 273.334259 424.614855 
C 294.539978 409.207998 308.758811 386.004971 312.859226 360.115971 
C 316.959641 334.22697 310.606857 307.765719 295.2 286.56 
C 279.793143 265.354281 256.590116 251.135448 230.701116 247.035033 
C 204.812115 242.934618 178.350864 249.287402 157.145145 264.694259 
C 135.939426 280.101116 121.720593 303.304143 117.620178 329.193143 
C 113.519763 355.082144 119.872548 381.543395 135.279404 402.749114 
L 135.279404 402.749114 
z
" clip-path="url(#pc94403189c)" style="fill: none; stroke: #ff00ed; stroke-linejoin: miter"/>
   </g>
   <g id="patch_88">
    <path d="M 142.890546 412.561338 
C 159.598519 432.757808 183.648568 445.491654 209.743949 447.958394 
C 235.839331 450.425133 261.849472 442.423369 282.045942 425.715396 
C 302.242412 409.007424 314.976257 384.957374 317.442997 358.861993 
C 319.909737 332.766611 311.907973 306.75647 295.2 286.56 
C 278.492027 266.36353 254.441978 253.629685 228.346596 251.162945 
C 202.251215 248.696205 176.241073 256.697969 156.044604 273.405942 
C 135.848134 290.113915 123.114288 314.163964 120.647549 340.259346 
C 118.180809 366.354727 126.182573 392.364869 142.890546 412.561338 
L 142.890546 412.561338 
z
" clip-path="url(#pc94403189c)" style="fill: none; stroke: #ff00db; stroke-linejoin: miter"/>
   </g>
   <g id="patch_89">
    <path d="M 151.102783 421.876293 
C 169.045934 440.983808 193.84809 452.182411 220.046866 453.005741 
C 246.245643 453.82907 271.702024 444.209905 290.809538 426.266755 
C 309.917053 408.323605 321.115656 383.521448 321.938986 357.322672 
C 322.762315 331.123896 313.14315 305.667514 295.2 286.56 
C 277.25685 267.452486 252.454693 256.253883 226.255917 255.430553 
C 200.057141 254.607223 174.600759 264.226388 155.493245 282.169538 
C 136.385731 300.112689 125.187128 324.914845 124.363798 351.113621 
C 123.540468 377.312398 133.159633 402.768779 151.102783 421.876293 
L 151.102783 421.876293 
z
" clip-path="url(#pc94403189c)" style="fill: none; stroke: #ff00cf; stroke-linejoin: miter"/>
   </g>
   <g id="patch_90">
    <path d="M 159.883707 430.657217 
C 178.991221 448.600367 204.447602 458.219532 230.646379 457.396202 
C 256.845155 456.572872 281.647311 445.374269 299.590462 426.266755 
C 317.533612 407.159241 327.152777 381.702859 326.329447 355.504083 
C 325.506117 329.305307 314.307514 304.50315 295.2 286.56 
C 276.092486 268.61685 250.636104 258.997685 224.437328 259.821014 
C 198.238552 260.644344 173.436395 271.842947 155.493245 290.950462 
C 137.550095 310.057976 127.93093 335.514357 128.754259 361.713134 
C 129.577589 387.91191 140.776192 412.714066 159.883707 430.657217 
L 159.883707 430.657217 
z
" clip-path="url(#pc94403189c)" style="fill: none; stroke: #ff00bd; stroke-linejoin: miter"/>
   </g>
   <g id="patch_91">
    <path d="M 169.198662 438.869454 
C 189.395131 455.577427 215.405273 463.579191 241.500654 461.112451 
C 267.596036 458.645712 291.646085 445.911866 308.354058 425.715396 
C 325.062031 405.518927 333.063795 379.508785 330.597055 353.413404 
C 328.130315 327.318022 315.39647 303.267973 295.2 286.56 
C 275.00353 269.852027 248.993389 261.850263 222.898007 264.317003 
C 196.802626 266.783743 172.752576 279.517588 156.044604 299.714058 
C 139.336631 319.910528 131.334867 345.920669 133.801606 372.016051 
C 136.268346 398.111432 149.002192 422.161481 169.198662 438.869454 
L 169.198662 438.869454 
z
" clip-path="url(#pc94403189c)" style="fill: none; stroke: #ff00ac; stroke-linejoin: miter"/>
   </g>
   <g id="patch_92">
    <path d="M 179.010886 446.480596 
C 200.216605 461.887452 226.677856 468.240237 252.566857 464.139822 
C 278.455857 460.039407 301.658884 445.820574 317.065741 424.614855 
C 332.472598 403.409136 338.825382 376.947885 334.724967 351.058884 
C 330.624552 325.169884 316.405719 301.966857 295.2 286.56 
C 273.994281 271.153143 247.53303 264.800359 221.644029 268.900774 
C 195.755029 273.001189 172.552002 287.220022 157.145145 308.425741 
C 141.738289 329.63146 135.385504 356.092711 139.485919 381.981712 
C 143.586334 407.870712 157.805167 431.073739 179.010886 446.480596 
L 179.010886 446.480596 
z
" clip-path="url(#pc94403189c)" style="fill: none; stroke: #ff00a0; stroke-linejoin: miter"/>
   </g>
   <g id="patch_93">
    <path d="M 189.281656 453.460604 
C 211.412935 467.50554 238.220866 472.184273 263.801313 466.466366 
C 289.38176 460.748458 311.646193 445.100753 325.69113 422.969474 
C 339.736066 400.838195 344.414799 374.030264 338.696892 348.449817 
C 332.978985 322.86937 317.331279 300.604937 295.2 286.56 
C 273.068721 272.515063 246.26079 267.836331 220.680343 273.554238 
C 195.099896 279.272145 172.835463 294.919851 158.790526 317.05113 
C 144.74559 339.182409 140.066857 365.990339 145.784764 391.570787 
C 151.502671 417.151234 167.150377 439.415667 189.281656 453.460604 
L 189.281656 453.460604 
z
" clip-path="url(#pc94403189c)" style="fill: none; stroke: #ff008e; stroke-linejoin: miter"/>
   </g>
   <g id="patch_94">
    <path d="M 199.970437 459.781931 
C 222.939934 472.409519 249.988745 475.395736 275.159685 468.082902 
C 300.330625 460.770068 321.568597 443.755244 334.196184 420.785747 
C 346.823772 397.81625 349.809989 370.767439 342.497155 345.596499 
C 335.184321 320.42556 318.169497 299.187588 295.2 286.56 
C 272.230503 273.932412 245.181692 270.946196 220.010752 278.25903 
C 194.839813 285.571864 173.601841 302.586688 160.974253 325.556184 
C 148.346665 348.525681 145.360449 375.574492 152.673283 400.745432 
C 159.986117 425.916372 177.000941 447.154344 199.970437 459.781931 
L 199.970437 459.781931 
z
" clip-path="url(#pc94403189c)" style="fill: none; stroke: #ff0082; stroke-linejoin: miter"/>
   </g>
   <g id="patch_95">
    <path d="M 211.035046 465.419631 
C 234.752111 476.580034 261.935053 477.86195 286.597147 468.983049 
C 311.259241 460.104149 331.386935 441.789357 342.547339 418.072292 
C 353.707742 394.355228 354.989657 367.172285 346.110757 342.510191 
C 337.231857 317.848097 318.917064 297.720403 295.2 286.56 
C 271.482936 275.399597 244.299993 274.117682 219.637899 282.996582 
C 194.975805 291.875482 174.848111 310.190274 163.687708 333.907339 
C 152.527304 357.624403 151.245389 384.807346 160.124289 409.46944 
C 169.003189 434.131534 187.317982 454.259228 211.035046 465.419631 
L 211.035046 465.419631 
z
" clip-path="url(#pc94403189c)" style="fill: none; stroke: #ff0071; stroke-linejoin: miter"/>
   </g>
   <g id="patch_96">
    <path d="M 222.431816 470.351454 
C 246.802847 480.000628 274.012643 479.573182 298.068561 469.163257 
C 322.124479 458.753331 341.062461 439.210851 350.711635 414.839819 
C 360.360809 390.468787 359.933363 363.258992 349.523438 339.203074 
C 339.113512 315.147155 319.571032 296.209174 295.2 286.56 
C 270.828968 276.910826 243.619173 277.338272 219.563255 287.748197 
C 195.507336 298.158122 176.569355 317.700603 166.920181 342.071635 
C 157.271007 366.442666 157.698453 393.652462 168.108378 417.70838 
C 178.518303 441.764298 198.060784 460.70228 222.431816 470.351454 
L 222.431816 470.351454 
z
" clip-path="url(#pc94403189c)" style="fill: none; stroke: #ff005f; stroke-linejoin: miter"/>
   </g>
   <g id="patch_97">
    <path d="M 234.115768 474.557935 
C 259.044586 482.657799 286.173849 480.52268 309.528654 468.622813 
C 332.883459 456.722945 350.556988 436.029901 358.656852 411.101084 
C 366.756716 386.172266 364.621596 359.043002 352.721729 335.688198 
C 340.821861 312.333393 320.128818 294.659864 295.2 286.56 
C 270.271182 278.460136 243.141919 280.595256 219.787114 292.495123 
C 196.432309 304.39499 178.75878 325.088034 170.658916 350.016852 
C 162.559052 374.945669 164.694172 402.074933 176.594039 425.429738 
C 188.493906 448.784542 209.18695 466.458072 234.115768 474.557935 
L 234.115768 474.557935 
z
" clip-path="url(#pc94403189c)" style="fill: none; stroke: #ff0053; stroke-linejoin: miter"/>
   </g>
   <g id="patch_98">
    <path d="M 246.040792 478.022475 
C 271.429013 484.541062 298.370678 480.706695 320.932198 467.36385 
C 343.493719 454.021004 359.833046 432.259063 366.351633 406.870842 
C 372.870221 381.482621 369.035854 354.540955 355.693008 331.979435 
C 342.350162 309.417915 320.588221 293.078587 295.2 286.56 
C 269.811779 280.041413 242.870114 283.87578 220.308593 297.218626 
C 197.747073 310.561472 181.407746 332.323412 174.889158 357.711633 
C 168.370571 383.099854 172.204938 410.04152 185.547784 432.60304 
C 198.89063 455.16456 220.652571 471.503888 246.040792 478.022475 
L 246.040792 478.022475 
z
" clip-path="url(#pc94403189c)" style="fill: none; stroke: #ff0041; stroke-linejoin: miter"/>
   </g>
   <g id="patch_99">
    <path d="M 258.159825 480.7314 
C 283.907253 485.642984 310.554993 480.124503 332.234189 465.391336 
C 353.913386 450.65817 368.854027 427.913216 373.765612 402.165788 
C 378.677197 376.418359 373.158715 349.770619 358.425549 328.091423 
C 343.692382 306.412227 320.947429 291.471585 295.2 286.56 
C 269.452571 281.648415 242.804831 287.166897 221.125635 301.900064 
C 199.446439 316.63323 184.505797 339.378184 179.594212 365.125612 
C 174.682628 390.873041 180.201109 417.520781 194.934276 439.199977 
C 209.667442 460.879173 232.412396 475.819815 258.159825 480.7314 
L 258.159825 480.7314 
z
" clip-path="url(#pc94403189c)" style="fill: none; stroke: #ff0035; stroke-linejoin: miter"/>
   </g>
   <g id="patch_100">
    <path d="M 270.425038 482.674019 
C 296.430061 485.959217 322.678709 478.778399 343.390023 462.713058 
C 364.101337 446.647716 377.58433 423.009513 380.869528 397.00449 
C 384.154727 370.999468 376.973909 344.750819 360.908567 324.039505 
C 344.843225 303.328191 321.205023 289.845198 295.2 286.56 
C 269.194977 283.274802 242.946329 290.455619 222.235015 306.520961 
C 201.5237 322.586303 188.040708 346.224505 184.75551 372.229528 
C 181.470311 398.234551 188.651129 424.4832 204.716471 445.194514 
C 220.781813 465.905828 244.420015 479.38882 270.425038 482.674019 
L 270.425038 482.674019 
z
" clip-path="url(#pc94403189c)" style="fill: none; stroke: #ff0024; stroke-linejoin: miter"/>
   </g>
   <g id="patch_101">
    <path d="M 282.788027 483.842665 
C 308.948014 485.488512 334.69398 476.673698 354.355673 459.339583 
C 374.017367 442.005468 385.989499 417.567306 387.635346 391.407319 
C 389.281193 365.247332 380.466379 339.501366 363.132264 319.839673 
C 345.798149 300.177979 321.359987 288.205847 295.2 286.56 
C 269.040013 284.914153 243.294047 293.728967 223.632353 311.063082 
C 203.97066 328.397197 191.998528 352.835359 190.352681 378.995346 
C 188.706834 405.155333 197.521648 430.901299 214.855763 450.562993 
C 232.189878 470.224686 256.62804 482.196818 282.788027 483.842665 
L 282.788027 483.842665 
z
" clip-path="url(#pc94403189c)" style="fill: none; stroke: #ff0018; stroke-linejoin: miter"/>
   </g>
   <g id="line2d_1">
    <path d="M 295.2 286.56 
" clip-path="url(#pc94403189c)" style="fill: none; stroke: #ff0000; stroke-width: 1.5; stroke-linecap: square"/>
    <defs>
     <path id="me119723644" d="M 0 5 
C 1.326016 5 2.597899 4.473168 3.535534 3.535534 
C 4.473168 2.597899 5 1.326016 5 0 
C 5 -1.326016 4.473168 -2.597899 3.535534 -3.535534 
C 2.597899 -4.473168 1.326016 -5 0 -5 
C -1.326016 -5 -2.597899 -4.473168 -3.535534 -3.535534 
C -4.473168 -2.597899 -5 -1.326016 -5 0 
C -5 1.326016 -4.473168 2.597899 -3.535534 3.535534 
C -2.597899 4.473168 -1.326016 5 0 5 
z
" style="stroke: #ff0000"/>
    </defs>
    <g clip-path="url(#pc94403189c)">
     <use xlink:href="#me119723644" x="295.2" y="286.56" style="fill: #ff0000; stroke: #ff0000"/>
    </g>
   </g>
  </g>
 </g>
 <defs>
  <clipPath id="pc94403189c">
   <rect x="77.76" y="69.12" width="434.88" height="434.88"/>
  </clipPath>
 </defs>
</svg>
