<?xml version="1.0" encoding="utf-8" standalone="no"?>
<!DOCTYPE svg PUBLIC "-//W3C//DTD SVG 1.1//EN"
  "http://www.w3.org/Graphics/SVG/1.1/DTD/svg11.dtd">
<svg xmlns:xlink="http://www.w3.org/1999/xlink" width="432pt" height="288pt" viewBox="0 0 432 288" xmlns="http://www.w3.org/2000/svg" version="1.1">
 <metadata>
  <rdf:RDF xmlns:dc="http://purl.org/dc/elements/1.1/" xmlns:cc="http://creativecommons.org/ns#" xmlns:rdf="http://www.w3.org/1999/02/22-rdf-syntax-ns#">
   <cc:Work>
    <dc:type rdf:resource="http://purl.org/dc/dcmitype/StillImage"/>
    <dc:date>2024-07-30T19:42:00.267520</dc:date>
    <dc:format>image/svg+xml</dc:format>
    <dc:creator>
     <cc:Agent>
      <dc:title>Matplotlib v3.9.1, https://matplotlib.org/</dc:title>
     </cc:Agent>
    </dc:creator>
   </cc:Work>
  </rdf:RDF>
 </metadata>
 <defs>
  <style type="text/css">*{stroke-linejoin: round; stroke-linecap: butt}</style>
 </defs>
 <g id="figure_1">
  <g id="patch_1">
   <path d="M 0 288 
L 432 288 
L 432 0 
L 0 0 
z
" style="fill: #ffffff"/>
  </g>
  <g id="axes_1">
   <g id="patch_2">
    <path d="M 330.12 143.28 
C 330.12 129.00302 327.307746 114.864866 321.844183 101.674657 
C 316.380619 88.484448 308.371998 76.4987 298.276649 66.403351 
C 288.1813 56.308002 276.195552 48.299381 263.005343 42.835817 
C 249.815134 37.372254 235.67698 34.56 221.4 34.56 
C 207.12302 34.56 192.984866 37.372254 179.794657 42.835817 
C 166.604448 48.299381 154.6187 56.308002 144.523351 66.403351 
C 134.428002 76.4987 126.419381 88.484448 120.955817 101.674657 
C 115.492254 114.864866 112.68 129.00302 112.68 143.28 
C 112.68 157.55698 115.492254 171.695134 120.955817 184.885343 
C 126.419381 198.075552 134.428002 210.0613 144.523351 220.156649 
C 154.6187 230.251998 166.604448 238.260619 179.794657 243.724183 
C 192.984866 249.187746 207.12302 252 221.4 252 
C 235.67698 252 249.815134 249.187746 263.005343 243.724183 
C 276.195552 238.260619 288.1813 230.251998 298.276649 220.156649 
C 308.371998 210.0613 316.380619 198.075552 321.844183 184.885343 
C 327.307746 171.695134 330.12 157.55698 330.12 143.28 
M 221.4 143.28 
C 221.4 143.28 221.4 143.28 221.4 143.28 
C 221.4 143.28 221.4 143.28 221.4 143.28 
C 221.4 143.28 221.4 143.28 221.4 143.28 
C 221.4 143.28 221.4 143.28 221.4 143.28 
C 221.4 143.28 221.4 143.28 221.4 143.28 
C 221.4 143.28 221.4 143.28 221.4 143.28 
C 221.4 143.28 221.4 143.28 221.4 143.28 
C 221.4 143.28 221.4 143.28 221.4 143.28 
C 221.4 143.28 221.4 143.28 221.4 143.28 
C 221.4 143.28 221.4 143.28 221.4 143.28 
C 221.4 143.28 221.4 143.28 221.4 143.28 
C 221.4 143.28 221.4 143.28 221.4 143.28 
C 221.4 143.28 221.4 143.28 221.4 143.28 
C 221.4 143.28 221.4 143.28 221.4 143.28 
C 221.4 143.28 221.4 143.28 221.4 143.28 
C 221.4 143.28 221.4 143.28 221.4 143.28 
z
" style="fill: #ffffff"/>
   </g>
   <g id="matplotlib.axis_1">
    <g id="xtick_1">
     <g id="line2d_1">
      <path d="M 221.4 143.28 
L 330.12 143.28 
" clip-path="url(#p8569c40ca8)" style="fill: none; stroke: #b0b0b0; stroke-width: 0.8; stroke-linecap: square"/>
     </g>
     <g id="text_1">
      <!-- 0° -->
      <g transform="translate(338.43875 146.039375) scale(0.1 -0.1)">
       <defs>
        <path id="DejaVuSans-30" d="M 2034 4250 
Q 1547 4250 1301 3770 
Q 1056 3291 1056 2328 
Q 1056 1369 1301 889 
Q 1547 409 2034 409 
Q 2525 409 2770 889 
Q 3016 1369 3016 2328 
Q 3016 3291 2770 3770 
Q 2525 4250 2034 4250 
z
M 2034 4750 
Q 2819 4750 3233 4129 
Q 3647 3509 3647 2328 
Q 3647 1150 3233 529 
Q 2819 -91 2034 -91 
Q 1250 -91 836 529 
Q 422 1150 422 2328 
Q 422 3509 836 4129 
Q 1250 4750 2034 4750 
z
" transform="scale(0.015625)"/>
        <path id="DejaVuSans-b0" d="M 1600 4347 
Q 1350 4347 1178 4173 
Q 1006 4000 1006 3750 
Q 1006 3503 1178 3333 
Q 1350 3163 1600 3163 
Q 1850 3163 2022 3333 
Q 2194 3503 2194 3750 
Q 2194 3997 2020 4172 
Q 1847 4347 1600 4347 
z
M 1600 4750 
Q 1800 4750 1984 4673 
Q 2169 4597 2303 4453 
Q 2447 4313 2519 4134 
Q 2591 3956 2591 3750 
Q 2591 3338 2302 3052 
Q 2013 2766 1594 2766 
Q 1172 2766 890 3047 
Q 609 3328 609 3750 
Q 609 4169 896 4459 
Q 1184 4750 1600 4750 
z
" transform="scale(0.015625)"/>
       </defs>
       <use xlink:href="#DejaVuSans-30"/>
       <use xlink:href="#DejaVuSans-b0" x="63.623047"/>
      </g>
     </g>
    </g>
    <g id="xtick_2">
     <g id="line2d_2">
      <path d="M 221.4 143.28 
L 298.276649 66.403351 
" clip-path="url(#p8569c40ca8)" style="fill: none; stroke: #b0b0b0; stroke-width: 0.8; stroke-linecap: square"/>
     </g>
     <g id="text_2">
      <!-- 45° -->
      <g transform="translate(299.313644 59.263231) scale(0.1 -0.1)">
       <defs>
        <path id="DejaVuSans-34" d="M 2419 4116 
L 825 1625 
L 2419 1625 
L 2419 4116 
z
M 2253 4666 
L 3047 4666 
L 3047 1625 
L 3713 1625 
L 3713 1100 
L 3047 1100 
L 3047 0 
L 2419 0 
L 2419 1100 
L 313 1100 
L 313 1709 
L 2253 4666 
z
" transform="scale(0.015625)"/>
        <path id="DejaVuSans-35" d="M 691 4666 
L 3169 4666 
L 3169 4134 
L 1269 4134 
L 1269 2991 
Q 1406 3038 1543 3061 
Q 1681 3084 1819 3084 
Q 2600 3084 3056 2656 
Q 3513 2228 3513 1497 
Q 3513 744 3044 326 
Q 2575 -91 1722 -91 
Q 1428 -91 1123 -41 
Q 819 9 494 109 
L 494 744 
Q 775 591 1075 516 
Q 1375 441 1709 441 
Q 2250 441 2565 725 
Q 2881 1009 2881 1497 
Q 2881 1984 2565 2268 
Q 2250 2553 1709 2553 
Q 1456 2553 1204 2497 
Q 953 2441 691 2322 
L 691 4666 
z
" transform="scale(0.015625)"/>
       </defs>
       <use xlink:href="#DejaVuSans-34"/>
       <use xlink:href="#DejaVuSans-35" x="63.623047"/>
       <use xlink:href="#DejaVuSans-b0" x="127.246094"/>
      </g>
     </g>
    </g>
    <g id="xtick_3">
     <g id="line2d_3">
      <path d="M 221.4 143.28 
L 221.4 34.56 
" clip-path="url(#p8569c40ca8)" style="fill: none; stroke: #b0b0b0; stroke-width: 0.8; stroke-linecap: square"/>
     </g>
     <g id="text_3">
      <!-- 90° -->
      <g transform="translate(212.5375 23.319375) scale(0.1 -0.1)">
       <defs>
        <path id="DejaVuSans-39" d="M 703 97 
L 703 672 
Q 941 559 1184 500 
Q 1428 441 1663 441 
Q 2288 441 2617 861 
Q 2947 1281 2994 2138 
Q 2813 1869 2534 1725 
Q 2256 1581 1919 1581 
Q 1219 1581 811 2004 
Q 403 2428 403 3163 
Q 403 3881 828 4315 
Q 1253 4750 1959 4750 
Q 2769 4750 3195 4129 
Q 3622 3509 3622 2328 
Q 3622 1225 3098 567 
Q 2575 -91 1691 -91 
Q 1453 -91 1209 -44 
Q 966 3 703 97 
z
M 1959 2075 
Q 2384 2075 2632 2365 
Q 2881 2656 2881 3163 
Q 2881 3666 2632 3958 
Q 2384 4250 1959 4250 
Q 1534 4250 1286 3958 
Q 1038 3666 1038 3163 
Q 1038 2656 1286 2365 
Q 1534 2075 1959 2075 
z
" transform="scale(0.015625)"/>
       </defs>
       <use xlink:href="#DejaVuSans-39"/>
       <use xlink:href="#DejaVuSans-30" x="63.623047"/>
       <use xlink:href="#DejaVuSans-b0" x="127.246094"/>
      </g>
     </g>
    </g>
    <g id="xtick_4">
     <g id="line2d_4">
      <path d="M 221.4 143.28 
L 144.523351 66.403351 
" clip-path="url(#p8569c40ca8)" style="fill: none; stroke: #b0b0b0; stroke-width: 0.8; stroke-linecap: square"/>
     </g>
     <g id="text_4">
      <!-- 135° -->
      <g transform="translate(122.580106 59.263231) scale(0.1 -0.1)">
       <defs>
        <path id="DejaVuSans-31" d="M 794 531 
L 1825 531 
L 1825 4091 
L 703 3866 
L 703 4441 
L 1819 4666 
L 2450 4666 
L 2450 531 
L 3481 531 
L 3481 0 
L 794 0 
L 794 531 
z
" transform="scale(0.015625)"/>
        <path id="DejaVuSans-33" d="M 2597 2516 
Q 3050 2419 3304 2112 
Q 3559 1806 3559 1356 
Q 3559 666 3084 287 
Q 2609 -91 1734 -91 
Q 1441 -91 1130 -33 
Q 819 25 488 141 
L 488 750 
Q 750 597 1062 519 
Q 1375 441 1716 441 
Q 2309 441 2620 675 
Q 2931 909 2931 1356 
Q 2931 1769 2642 2001 
Q 2353 2234 1838 2234 
L 1294 2234 
L 1294 2753 
L 1863 2753 
Q 2328 2753 2575 2939 
Q 2822 3125 2822 3475 
Q 2822 3834 2567 4026 
Q 2313 4219 1838 4219 
Q 1578 4219 1281 4162 
Q 984 4106 628 3988 
L 628 4550 
Q 988 4650 1302 4700 
Q 1616 4750 1894 4750 
Q 2613 4750 3031 4423 
Q 3450 4097 3450 3541 
Q 3450 3153 3228 2886 
Q 3006 2619 2597 2516 
z
" transform="scale(0.015625)"/>
       </defs>
       <use xlink:href="#DejaVuSans-31"/>
       <use xlink:href="#DejaVuSans-33" x="63.623047"/>
       <use xlink:href="#DejaVuSans-35" x="127.246094"/>
       <use xlink:href="#DejaVuSans-b0" x="190.869141"/>
      </g>
     </g>
    </g>
    <g id="xtick_5">
     <g id="line2d_5">
      <path d="M 221.4 143.28 
L 112.68 143.28 
" clip-path="url(#p8569c40ca8)" style="fill: none; stroke: #b0b0b0; stroke-width: 0.8; stroke-linecap: square"/>
     </g>
     <g id="text_5">
      <!-- 180° -->
      <g transform="translate(86.63625 146.039375) scale(0.1 -0.1)">
       <defs>
        <path id="DejaVuSans-38" d="M 2034 2216 
Q 1584 2216 1326 1975 
Q 1069 1734 1069 1313 
Q 1069 891 1326 650 
Q 1584 409 2034 409 
Q 2484 409 2743 651 
Q 3003 894 3003 1313 
Q 3003 1734 2745 1975 
Q 2488 2216 2034 2216 
z
M 1403 2484 
Q 997 2584 770 2862 
Q 544 3141 544 3541 
Q 544 4100 942 4425 
Q 1341 4750 2034 4750 
Q 2731 4750 3128 4425 
Q 3525 4100 3525 3541 
Q 3525 3141 3298 2862 
Q 3072 2584 2669 2484 
Q 3125 2378 3379 2068 
Q 3634 1759 3634 1313 
Q 3634 634 3220 271 
Q 2806 -91 2034 -91 
Q 1263 -91 848 271 
Q 434 634 434 1313 
Q 434 1759 690 2068 
Q 947 2378 1403 2484 
z
M 1172 3481 
Q 1172 3119 1398 2916 
Q 1625 2713 2034 2713 
Q 2441 2713 2670 2916 
Q 2900 3119 2900 3481 
Q 2900 3844 2670 4047 
Q 2441 4250 2034 4250 
Q 1625 4250 1398 4047 
Q 1172 3844 1172 3481 
z
" transform="scale(0.015625)"/>
       </defs>
       <use xlink:href="#DejaVuSans-31"/>
       <use xlink:href="#DejaVuSans-38" x="63.623047"/>
       <use xlink:href="#DejaVuSans-30" x="127.246094"/>
       <use xlink:href="#DejaVuSans-b0" x="190.869141"/>
      </g>
     </g>
    </g>
    <g id="xtick_6">
     <g id="line2d_6">
      <path d="M 221.4 143.28 
L 144.523351 220.156649 
" clip-path="url(#p8569c40ca8)" style="fill: none; stroke: #b0b0b0; stroke-width: 0.8; stroke-linecap: square"/>
     </g>
     <g id="text_6">
      <!-- 225° -->
      <g transform="translate(122.580106 232.815519) scale(0.1 -0.1)">
       <defs>
        <path id="DejaVuSans-32" d="M 1228 531 
L 3431 531 
L 3431 0 
L 469 0 
L 469 531 
Q 828 903 1448 1529 
Q 2069 2156 2228 2338 
Q 2531 2678 2651 2914 
Q 2772 3150 2772 3378 
Q 2772 3750 2511 3984 
Q 2250 4219 1831 4219 
Q 1534 4219 1204 4116 
Q 875 4013 500 3803 
L 500 4441 
Q 881 4594 1212 4672 
Q 1544 4750 1819 4750 
Q 2544 4750 2975 4387 
Q 3406 4025 3406 3419 
Q 3406 3131 3298 2873 
Q 3191 2616 2906 2266 
Q 2828 2175 2409 1742 
Q 1991 1309 1228 531 
z
" transform="scale(0.015625)"/>
       </defs>
       <use xlink:href="#DejaVuSans-32"/>
       <use xlink:href="#DejaVuSans-32" x="63.623047"/>
       <use xlink:href="#DejaVuSans-35" x="127.246094"/>
       <use xlink:href="#DejaVuSans-b0" x="190.869141"/>
      </g>
     </g>
    </g>
    <g id="xtick_7">
     <g id="line2d_7">
      <path d="M 221.4 143.28 
L 221.4 252 
" clip-path="url(#p8569c40ca8)" style="fill: none; stroke: #b0b0b0; stroke-width: 0.8; stroke-linecap: square"/>
     </g>
     <g id="text_7">
      <!-- 270° -->
      <g transform="translate(209.35625 268.759375) scale(0.1 -0.1)">
       <defs>
        <path id="DejaVuSans-37" d="M 525 4666 
L 3525 4666 
L 3525 4397 
L 1831 0 
L 1172 0 
L 2766 4134 
L 525 4134 
L 525 4666 
z
" transform="scale(0.015625)"/>
       </defs>
       <use xlink:href="#DejaVuSans-32"/>
       <use xlink:href="#DejaVuSans-37" x="63.623047"/>
       <use xlink:href="#DejaVuSans-30" x="127.246094"/>
       <use xlink:href="#DejaVuSans-b0" x="190.869141"/>
      </g>
     </g>
    </g>
    <g id="xtick_8">
     <g id="line2d_8">
      <path d="M 221.4 143.28 
L 298.276649 220.156649 
" clip-path="url(#p8569c40ca8)" style="fill: none; stroke: #b0b0b0; stroke-width: 0.8; stroke-linecap: square"/>
     </g>
     <g id="text_8">
      <!-- 315° -->
      <g transform="translate(296.132394 232.815519) scale(0.1 -0.1)">
       <use xlink:href="#DejaVuSans-33"/>
       <use xlink:href="#DejaVuSans-31" x="63.623047"/>
       <use xlink:href="#DejaVuSans-35" x="127.246094"/>
       <use xlink:href="#DejaVuSans-b0" x="190.869141"/>
      </g>
     </g>
    </g>
   </g>
   <g id="matplotlib.axis_2">
    <g id="ytick_1">
     <g id="line2d_9">
      <path d="M 238.935553 143.28 
C 238.935553 140.977252 238.481962 138.696896 237.600739 136.569434 
C 236.719515 134.441973 235.427797 132.50878 233.799509 130.880491 
C 232.17122 129.252203 230.238027 127.960485 228.110566 127.079261 
C 225.983104 126.198038 223.702748 125.744447 221.4 125.744447 
C 219.097252 125.744447 216.816896 126.198038 214.689434 127.079261 
C 212.561973 127.960485 210.62878 129.252203 209.000491 130.880491 
C 207.372203 132.50878 206.080485 134.441973 205.199261 136.569434 
C 204.318038 138.696896 203.864447 140.977252 203.864447 143.28 
C 203.864447 145.582748 204.318038 147.863104 205.199261 149.990566 
C 206.080485 152.118027 207.372203 154.05122 209.000491 155.679509 
C 210.62878 157.307797 212.561973 158.599515 214.689434 159.480739 
C 216.816896 160.361962 219.097252 160.815553 221.4 160.815553 
C 223.702748 160.815553 225.983104 160.361962 228.110566 159.480739 
C 230.238027 158.599515 232.17122 157.307797 233.799509 155.679509 
C 235.427797 154.05122 236.719515 152.118027 237.600739 149.990566 
C 238.481962 147.863104 238.935553 145.582748 238.935553 143.28 
" clip-path="url(#p8569c40ca8)" style="fill: none; stroke: #b0b0b0; stroke-width: 0.8; stroke-linecap: square"/>
     </g>
     <g id="text_9">
      <!-- 0.5 -->
      <g transform="translate(237.600739 134.489747) scale(0.1 -0.1)">
       <defs>
        <path id="DejaVuSans-2e" d="M 684 794 
L 1344 794 
L 1344 0 
L 684 0 
L 684 794 
z
" transform="scale(0.015625)"/>
       </defs>
       <use xlink:href="#DejaVuSans-30"/>
       <use xlink:href="#DejaVuSans-2e" x="63.623047"/>
       <use xlink:href="#DejaVuSans-35" x="95.410156"/>
      </g>
     </g>
    </g>
    <g id="ytick_2">
     <g id="line2d_10">
      <path d="M 256.471106 143.28 
C 256.471106 138.674505 255.563924 134.113792 253.801477 129.858869 
C 252.03903 125.603946 249.455594 121.73756 246.199017 118.480983 
C 242.94244 115.224406 239.076054 112.64097 234.821131 110.878523 
C 230.566208 109.116076 226.005495 108.208894 221.4 108.208894 
C 216.794505 108.208894 212.233792 109.116076 207.978869 110.878523 
C 203.723946 112.64097 199.85756 115.224406 196.600983 118.480983 
C 193.344406 121.73756 190.76097 125.603946 188.998523 129.858869 
C 187.236076 134.113792 186.328894 138.674505 186.328894 143.28 
C 186.328894 147.885495 187.236076 152.446208 188.998523 156.701131 
C 190.76097 160.956054 193.344406 164.82244 196.600983 168.079017 
C 199.85756 171.335594 203.723946 173.91903 207.978869 175.681477 
C 212.233792 177.443924 216.794505 178.351106 221.4 178.351106 
C 226.005495 178.351106 230.566208 177.443924 234.821131 175.681477 
C 239.076054 173.91903 242.94244 171.335594 246.199017 168.079017 
C 249.455594 164.82244 252.03903 160.956054 253.801477 156.701131 
C 255.563924 152.446208 256.471106 147.885495 256.471106 143.28 
" clip-path="url(#p8569c40ca8)" style="fill: none; stroke: #b0b0b0; stroke-width: 0.8; stroke-linecap: square"/>
     </g>
     <g id="text_10">
      <!-- 1.0 -->
      <g transform="translate(253.801477 127.779181) scale(0.1 -0.1)">
       <use xlink:href="#DejaVuSans-31"/>
       <use xlink:href="#DejaVuSans-2e" x="63.623047"/>
       <use xlink:href="#DejaVuSans-30" x="95.410156"/>
      </g>
     </g>
    </g>
    <g id="ytick_3">
     <g id="line2d_11">
      <path d="M 274.006659 143.28 
C 274.006659 136.371757 272.645886 129.530688 270.002216 123.148303 
C 267.358546 116.765919 263.483391 110.96634 258.598526 106.081474 
C 253.71366 101.196609 247.914081 97.321454 241.531697 94.677784 
C 235.149312 92.034114 228.308243 90.673341 221.4 90.673341 
C 214.491757 90.673341 207.650688 92.034114 201.268303 94.677784 
C 194.885919 97.321454 189.08634 101.196609 184.201474 106.081474 
C 179.316609 110.96634 175.441454 116.765919 172.797784 123.148303 
C 170.154114 129.530688 168.793341 136.371757 168.793341 143.28 
C 168.793341 150.188243 170.154114 157.029312 172.797784 163.411697 
C 175.441454 169.794081 179.316609 175.59366 184.201474 180.478526 
C 189.08634 185.363391 194.885919 189.238546 201.268303 191.882216 
C 207.650688 194.525886 214.491757 195.886659 221.4 195.886659 
C 228.308243 195.886659 235.149312 194.525886 241.531697 191.882216 
C 247.914081 189.238546 253.71366 185.363391 258.598526 180.478526 
C 263.483391 175.59366 267.358546 169.794081 270.002216 163.411697 
C 272.645886 157.029312 274.006659 150.188243 274.006659 143.28 
" clip-path="url(#p8569c40ca8)" style="fill: none; stroke: #b0b0b0; stroke-width: 0.8; stroke-linecap: square"/>
     </g>
     <g id="text_11">
      <!-- 1.5 -->
      <g transform="translate(270.002216 121.068616) scale(0.1 -0.1)">
       <use xlink:href="#DejaVuSans-31"/>
       <use xlink:href="#DejaVuSans-2e" x="63.623047"/>
       <use xlink:href="#DejaVuSans-35" x="95.410156"/>
      </g>
     </g>
    </g>
    <g id="ytick_4">
     <g id="line2d_12">
      <path d="M 291.542212 143.28 
C 291.542212 134.069009 289.727848 124.947583 286.202954 116.437737 
C 282.678061 107.927891 277.511188 100.19512 270.998034 93.681966 
C 264.48488 87.168812 256.752109 82.001939 248.242263 78.477046 
C 239.732417 74.952152 230.610991 73.137788 221.4 73.137788 
C 212.189009 73.137788 203.067583 74.952152 194.557737 78.477046 
C 186.047891 82.001939 178.31512 87.168812 171.801966 93.681966 
C 165.288812 100.19512 160.121939 107.927891 156.597046 116.437737 
C 153.072152 124.947583 151.257788 134.069009 151.257788 143.28 
C 151.257788 152.490991 153.072152 161.612417 156.597046 170.122263 
C 160.121939 178.632109 165.288812 186.36488 171.801966 192.878034 
C 178.31512 199.391188 186.047891 204.558061 194.557737 208.082954 
C 203.067583 211.607848 212.189009 213.422212 221.4 213.422212 
C 230.610991 213.422212 239.732417 211.607848 248.242263 208.082954 
C 256.752109 204.558061 264.48488 199.391188 270.998034 192.878034 
C 277.511188 186.36488 282.678061 178.632109 286.202954 170.122263 
C 289.727848 161.612417 291.542212 152.490991 291.542212 143.28 
" clip-path="url(#p8569c40ca8)" style="fill: none; stroke: #b0b0b0; stroke-width: 0.8; stroke-linecap: square"/>
     </g>
     <g id="text_12">
      <!-- 2.0 -->
      <g transform="translate(286.202954 114.35805) scale(0.1 -0.1)">
       <use xlink:href="#DejaVuSans-32"/>
       <use xlink:href="#DejaVuSans-2e" x="63.623047"/>
       <use xlink:href="#DejaVuSans-30" x="95.410156"/>
      </g>
     </g>
    </g>
    <g id="ytick_5">
     <g id="line2d_13">
      <path d="M 309.077765 143.28 
C 309.077765 131.766261 306.80981 120.364479 302.403693 109.727172 
C 297.997576 99.089864 291.538985 89.4239 283.397543 81.282457 
C 275.2561 73.141015 265.590136 66.682424 254.952828 62.276307 
C 244.315521 57.87019 232.913739 55.602235 221.4 55.602235 
C 209.886261 55.602235 198.484479 57.87019 187.847172 62.276307 
C 177.209864 66.682424 167.5439 73.141015 159.402457 81.282457 
C 151.261015 89.4239 144.802424 99.089864 140.396307 109.727172 
C 135.99019 120.364479 133.722235 131.766261 133.722235 143.28 
C 133.722235 154.793739 135.99019 166.195521 140.396307 176.832828 
C 144.802424 187.470136 151.261015 197.1361 159.402457 205.277543 
C 167.5439 213.418985 177.209864 219.877576 187.847172 224.283693 
C 198.484479 228.68981 209.886261 230.957765 221.4 230.957765 
C 232.913739 230.957765 244.315521 228.68981 254.952828 224.283693 
C 265.590136 219.877576 275.2561 213.418985 283.397543 205.277543 
C 291.538985 197.1361 297.997576 187.470136 302.403693 176.832828 
C 306.80981 166.195521 309.077765 154.793739 309.077765 143.28 
" clip-path="url(#p8569c40ca8)" style="fill: none; stroke: #b0b0b0; stroke-width: 0.8; stroke-linecap: square"/>
     </g>
     <g id="text_13">
      <!-- 2.5 -->
      <g transform="translate(302.403693 107.647484) scale(0.1 -0.1)">
       <use xlink:href="#DejaVuSans-32"/>
       <use xlink:href="#DejaVuSans-2e" x="63.623047"/>
       <use xlink:href="#DejaVuSans-35" x="95.410156"/>
      </g>
     </g>
    </g>
    <g id="ytick_6">
     <g id="line2d_14">
      <path d="M 326.613319 143.28 
C 326.613319 129.463514 323.891772 115.781375 318.604432 103.016606 
C 313.317091 90.251837 305.566782 78.65268 295.797051 68.882949 
C 286.02732 59.113218 274.428163 51.362909 261.663394 46.075568 
C 248.898625 40.788228 235.216486 38.066681 221.4 38.066681 
C 207.583514 38.066681 193.901375 40.788228 181.136606 46.075568 
C 168.371837 51.362909 156.77268 59.113218 147.002949 68.882949 
C 137.233218 78.65268 129.482909 90.251837 124.195568 103.016606 
C 118.908228 115.781375 116.186681 129.463514 116.186681 143.28 
C 116.186681 157.096486 118.908228 170.778625 124.195568 183.543394 
C 129.482909 196.308163 137.233218 207.90732 147.002949 217.677051 
C 156.77268 227.446782 168.371837 235.197091 181.136606 240.484432 
C 193.901375 245.771772 207.583514 248.493319 221.4 248.493319 
C 235.216486 248.493319 248.898625 245.771772 261.663394 240.484432 
C 274.428163 235.197091 286.02732 227.446782 295.797051 217.677051 
C 305.566782 207.90732 313.317091 196.308163 318.604432 183.543394 
C 323.891772 170.778625 326.613319 157.096486 326.613319 143.28 
" clip-path="url(#p8569c40ca8)" style="fill: none; stroke: #b0b0b0; stroke-width: 0.8; stroke-linecap: square"/>
     </g>
     <g id="text_14">
      <!-- 3.0 -->
      <g transform="translate(318.604432 100.936919) scale(0.1 -0.1)">
       <use xlink:href="#DejaVuSans-33"/>
       <use xlink:href="#DejaVuSans-2e" x="63.623047"/>
       <use xlink:href="#DejaVuSans-30" x="95.410156"/>
      </g>
     </g>
    </g>
   </g>
   <g id="line2d_15">
    <path d="M 291.542212 143.28 
L 296.792159 141.382891 
L 300.622315 139.789877 
L 304.300814 138.059088 
L 307.77597 136.201847 
L 310.998804 134.23297 
L 313.923776 132.170474 
L 316.509473 130.035215 
L 318.719217 127.850464 
L 320.521613 125.641439 
L 321.483984 124.168387 
L 322.24767 122.704506 
L 322.807803 121.258033 
L 323.16079 119.837225 
L 323.304328 118.450285 
L 323.237417 117.105284 
L 322.960363 115.810087 
L 322.474766 114.57227 
L 321.783506 113.399057 
L 320.890718 112.29724 
L 319.801757 111.273116 
L 318.523153 110.33242 
L 317.062564 109.480266 
L 315.428714 108.721094 
L 313.631332 108.058617 
L 310.652183 107.252422 
L 307.368732 106.676715 
L 303.824104 106.333679 
L 300.06438 106.221042 
L 296.137854 106.332016 
L 292.094269 106.655313 
L 287.984028 107.175254 
L 282.486803 108.13947 
L 277.076694 109.359655 
L 271.864052 110.767122 
L 265.779407 112.670877 
L 259.333212 114.946958 
L 250.030993 118.320237 
L 248.11285 118.782858 
L 247.067029 118.834541 
L 246.552514 118.713833 
L 246.179788 118.461218 
L 245.943991 118.071014 
L 245.839328 117.538484 
L 245.913397 116.464904 
L 246.241447 115.054633 
L 247.271211 111.950952 
L 252.492227 97.4331 
L 254.368294 91.214545 
L 255.725196 85.928824 
L 256.872293 80.479295 
L 257.744104 74.978508 
L 258.18429 70.889905 
L 258.420775 66.888989 
L 258.439693 63.025985 
L 258.231622 59.350124 
L 257.791658 55.908873 
L 257.119397 52.747168 
L 256.218841 49.906693 
L 255.495535 48.210327 
L 254.677768 46.683688 
L 253.769711 45.335883 
L 252.776232 44.174979 
L 251.702841 43.207934 
L 250.55563 42.440551 
L 249.341215 41.877424 
L 248.066665 41.52191 
L 246.739433 41.37609 
L 245.367284 41.440756 
L 243.95822 41.7154 
L 242.520405 42.198205 
L 241.062084 42.886061 
L 239.591511 43.774575 
L 238.116867 44.8581 
L 235.914788 46.833682 
L 233.747694 49.204203 
L 231.640053 51.936006 
L 229.614185 54.990372 
L 227.689809 58.324088 
L 225.88365 61.890095 
L 224.2091 65.638195 
L 222.675957 69.515801 
L 220.86156 74.793632 
L 219.312233 80.075128 
L 218.019042 85.231188 
L 216.729749 91.310807 
L 215.411952 98.743587 
L 214.165957 105.717327 
L 213.615011 107.701161 
L 213.14769 108.703136 
L 212.604405 109.280984 
L 212.187274 109.430444 
L 211.717668 109.393069 
L 211.188682 109.171823 
L 210.269858 108.504739 
L 208.780979 107.021081 
L 206.44439 104.300986 
L 198.472573 94.810191 
L 194.181472 90.129493 
L 190.389226 86.304204 
L 186.328894 82.535062 
L 182.060976 78.937029 
L 178.766308 76.416524 
L 175.428151 74.096245 
L 172.082154 72.015292 
L 168.76564 70.208675 
L 165.51698 68.706822 
L 162.374943 67.535173 
L 159.378021 66.713854 
L 156.563752 66.257446 
L 154.806865 66.160534 
L 153.157265 66.231103 
L 151.624516 66.46925 
L 150.217566 66.873958 
L 148.944672 67.443121 
L 147.813323 68.173567 
L 146.830176 69.061102 
L 146.000994 70.10055 
L 145.330591 71.285805 
L 144.822784 72.60989 
L 144.480347 74.065021 
L 144.304982 75.642673 
L 144.29729 77.333657 
L 144.456753 79.128198 
L 144.781722 81.016014 
L 145.573111 83.999131 
L 146.716259 87.130537 
L 148.191495 90.371793 
L 149.973811 93.684128 
L 152.03318 97.029112 
L 154.334956 100.369311 
L 156.840359 103.668914 
L 160.424006 107.947542 
L 164.185772 112.022741 
L 168.010995 115.833289 
L 172.702018 120.150868 
L 177.89626 124.595395 
L 185.468715 130.964715 
L 186.828428 132.394564 
L 187.396097 133.274431 
L 187.548818 133.780367 
L 187.51641 134.229465 
L 187.296383 134.628773 
L 186.887529 134.985679 
L 185.920747 135.458324 
L 184.535391 135.879359 
L 181.332644 136.539398 
L 166.149306 139.276791 
L 159.825847 140.761348 
L 154.569826 142.229097 
L 149.276848 143.960445 
L 144.077121 145.955829 
L 140.316194 147.618918 
L 136.733056 149.414573 
L 133.378137 151.329692 
L 130.298785 153.347817 
L 127.538556 155.449463 
L 125.136569 157.612511 
L 123.126923 159.812652 
L 122.019481 161.287237 
L 121.106256 162.758764 
L 120.393051 164.219066 
L 119.884418 165.659897 
L 119.583628 167.073003 
L 119.49266 168.450208 
L 119.612186 169.783485 
L 119.941576 171.065036 
L 120.478909 172.287363 
L 121.220986 173.443345 
L 122.163366 174.526309 
L 123.300395 175.53009 
L 124.625256 176.449105 
L 126.130019 177.278402 
L 127.805701 178.013719 
L 130.617644 178.932984 
L 133.754123 179.624482 
L 137.173754 180.083851 
L 140.831847 180.311121 
L 144.681117 180.310821 
L 148.67245 180.091997 
L 152.755674 179.66815 
L 156.880351 179.057089 
L 162.358286 177.989487 
L 167.706859 176.690496 
L 172.818733 175.232402 
L 178.728484 173.309153 
L 185.824359 170.734008 
L 192.486792 168.326202 
L 194.480316 167.811418 
L 195.581712 167.715143 
L 196.353786 167.896717 
L 196.691787 168.183232 
L 196.894223 168.608611 
L 196.967111 169.177349 
L 196.848812 170.306616 
L 196.308366 172.337852 
L 195.120989 175.721445 
L 190.887627 187.370639 
L 188.979575 193.42719 
L 187.5629 198.624016 
L 186.328894 204.024938 
L 185.346865 209.520079 
L 184.811377 213.633598 
L 184.471035 217.684667 
L 184.341875 221.622861 
L 184.435556 225.398356 
L 184.759244 228.962704 
L 185.315584 232.269612 
L 186.102762 235.275682 
L 187.114635 237.941115 
L 187.90915 239.51108 
L 188.795065 240.904391 
L 189.767681 242.112717 
L 190.821644 243.128817 
L 191.951 243.946594 
L 193.14926 244.561148 
L 194.409461 244.968811 
L 195.72424 245.16718 
L 197.085903 245.155138 
L 198.486498 244.932869 
L 199.917896 244.501863 
L 201.371865 243.864908 
L 202.840146 243.026077 
L 204.314533 241.990708 
L 205.786946 240.765368 
L 207.974706 238.588447 
L 210.115009 236.032748 
L 212.184401 233.134529 
L 214.161809 229.93483 
L 216.028966 226.478872 
L 217.770775 222.815377 
L 219.375613 218.995832 
L 221.28919 213.752989 
L 222.937533 208.457604 
L 224.324953 203.23959 
L 225.718575 197.018256 
L 226.970528 190.297646 
L 228.700293 180.555048 
L 229.258722 178.662577 
L 229.736875 177.731028 
L 230.098667 177.3458 
L 230.503802 177.149317 
L 230.959627 177.140212 
L 231.473143 177.315837 
L 232.365856 177.916773 
L 233.423161 178.906008 
L 235.596146 181.349649 
L 245.558467 193.130109 
L 250.00586 197.864107 
L 253.904978 201.68208 
L 258.050859 205.400259 
L 262.378775 208.905663 
L 265.699516 211.331177 
L 269.046168 213.536437 
L 272.382169 215.484323 
L 275.669593 217.142058 
L 278.869786 218.481663 
L 281.944034 219.480321 
L 284.854235 220.120655 
L 286.684984 220.342436 
L 288.415976 220.397548 
L 290.037238 220.28505 
L 291.53935 220.005125 
L 292.913531 219.559063 
L 294.15171 218.949241 
L 295.246599 218.17909 
L 296.191759 217.253055 
L 296.981659 216.176548 
L 297.61173 214.955898 
L 298.078414 213.598292 
L 298.3792 212.111704 
L 298.512659 210.504834 
L 298.47847 208.787023 
L 298.277432 206.968181 
L 297.667568 204.073334 
L 296.698183 201.011316 
L 295.386192 197.820143 
L 293.753968 194.538507 
L 291.829074 191.205091 
L 289.6439 187.857907 
L 287.235226 184.533655 
L 284.643692 181.267111 
L 280.980155 177.056881 
L 277.180909 173.074376 
L 273.362225 169.37641 
L 268.741767 165.22004 
L 262.963689 160.362405 
L 257.547251 155.796471 
L 256.104673 154.327421 
L 255.470598 153.421722 
L 255.241809 152.662299 
L 255.320938 152.226324 
L 255.588109 151.83832 
L 256.044207 151.490828 
L 257.08133 151.028645 
L 259.110655 150.481067 
L 262.634621 149.817569 
L 274.8398 147.65917 
L 281.038953 146.283316 
L 286.247874 144.911781 
L 291.542212 143.28 
L 291.542212 143.28 
" clip-path="url(#p8569c40ca8)" style="fill: none; stroke: #1f77b4; stroke-width: 1.5; stroke-linecap: square"/>
   </g>
   <g id="patch_3">
    <path d="M 330.12 143.28 
C 330.12 129.00302 327.307746 114.864866 321.844183 101.674657 
C 316.380619 88.484448 308.371998 76.4987 298.276649 66.403351 
C 288.1813 56.308002 276.195552 48.299381 263.005343 42.835817 
C 249.815134 37.372254 235.67698 34.56 221.4 34.56 
C 207.12302 34.56 192.984866 37.372254 179.794657 42.835817 
C 166.604448 48.299381 154.6187 56.308002 144.523351 66.403351 
C 134.428002 76.4987 126.419381 88.484448 120.955817 101.674657 
C 115.492254 114.864866 112.68 129.00302 112.68 143.28 
C 112.68 157.55698 115.492254 171.695134 120.955817 184.885343 
C 126.419381 198.075552 134.428002 210.0613 144.523351 220.156649 
C 154.6187 230.251998 166.604448 238.260619 179.794657 243.724183 
C 192.984866 249.187746 207.12302 252 221.4 252 
C 235.67698 252 249.815134 249.187746 263.005343 243.724183 
C 276.195552 238.260619 288.1813 230.251998 298.276649 220.156649 
C 308.371998 210.0613 316.380619 198.075552 321.844183 184.885343 
C 327.307746 171.695134 330.12 157.55698 330.12 143.28 
" style="fill: none; stroke: #000000; stroke-width: 0.8; stroke-linejoin: miter; stroke-linecap: square"/>
   </g>
  </g>
 </g>
 <defs>
  <clipPath id="p8569c40ca8">
   <path d="M 330.12 143.28 
C 330.12 129.00302 327.307746 114.864866 321.844183 101.674657 
C 316.380619 88.484448 308.371998 76.4987 298.276649 66.403351 
C 288.1813 56.308002 276.195552 48.299381 263.005343 42.835817 
C 249.815134 37.372254 235.67698 34.56 221.4 34.56 
C 207.12302 34.56 192.984866 37.372254 179.794657 42.835817 
C 166.604448 48.299381 154.6187 56.308002 144.523351 66.403351 
C 134.428002 76.4987 126.419381 88.484448 120.955817 101.674657 
C 115.492254 114.864866 112.68 129.00302 112.68 143.28 
C 112.68 157.55698 115.492254 171.695134 120.955817 184.885343 
C 126.419381 198.075552 134.428002 210.0613 144.523351 220.156649 
C 154.6187 230.251998 166.604448 238.260619 179.794657 243.724183 
C 192.984866 249.187746 207.12302 252 221.4 252 
C 235.67698 252 249.815134 249.187746 263.005343 243.724183 
C 276.195552 238.260619 288.1813 230.251998 298.276649 220.156649 
C 308.371998 210.0613 316.380619 198.075552 321.844183 184.885343 
C 327.307746 171.695134 330.12 157.55698 330.12 143.28 
M 221.4 143.28 
C 221.4 143.28 221.4 143.28 221.4 143.28 
C 221.4 143.28 221.4 143.28 221.4 143.28 
C 221.4 143.28 221.4 143.28 221.4 143.28 
C 221.4 143.28 221.4 143.28 221.4 143.28 
C 221.4 143.28 221.4 143.28 221.4 143.28 
C 221.4 143.28 221.4 143.28 221.4 143.28 
C 221.4 143.28 221.4 143.28 221.4 143.28 
C 221.4 143.28 221.4 143.28 221.4 143.28 
C 221.4 143.28 221.4 143.28 221.4 143.28 
C 221.4 143.28 221.4 143.28 221.4 143.28 
C 221.4 143.28 221.4 143.28 221.4 143.28 
C 221.4 143.28 221.4 143.28 221.4 143.28 
C 221.4 143.28 221.4 143.28 221.4 143.28 
C 221.4 143.28 221.4 143.28 221.4 143.28 
C 221.4 143.28 221.4 143.28 221.4 143.28 
C 221.4 143.28 221.4 143.28 221.4 143.28 
z
"/>
  </clipPath>
 </defs>
</svg>
