<?xml version="1.0" encoding="utf-8" standalone="no"?>
<!DOCTYPE svg PUBLIC "-//W3C//DTD SVG 1.1//EN"
  "http://www.w3.org/Graphics/SVG/1.1/DTD/svg11.dtd">
<svg xmlns:xlink="http://www.w3.org/1999/xlink" width="432pt" height="288pt" viewBox="0 0 432 288" xmlns="http://www.w3.org/2000/svg" version="1.1">
 <metadata>
  <rdf:RDF xmlns:dc="http://purl.org/dc/elements/1.1/" xmlns:cc="http://creativecommons.org/ns#" xmlns:rdf="http://www.w3.org/1999/02/22-rdf-syntax-ns#">
   <cc:Work>
    <dc:type rdf:resource="http://purl.org/dc/dcmitype/StillImage"/>
    <dc:date>2024-07-30T19:42:02.665794</dc:date>
    <dc:format>image/svg+xml</dc:format>
    <dc:creator>
     <cc:Agent>
      <dc:title>Matplotlib v3.9.1, https://matplotlib.org/</dc:title>
     </cc:Agent>
    </dc:creator>
   </cc:Work>
  </rdf:RDF>
 </metadata>
 <defs>
  <style type="text/css">*{stroke-linejoin: round; stroke-linecap: butt}</style>
 </defs>
 <g id="figure_1">
  <g id="patch_1">
   <path d="M 0 288 
L 432 288 
L 432 0 
L 0 0 
z
" style="fill: #ffffff"/>
  </g>
  <g id="axes_1">
   <g id="patch_2">
    <path d="M 330.12 143.28 
C 330.12 129.00302 327.307746 114.864866 321.844183 101.674657 
C 316.380619 88.484448 308.371998 76.4987 298.276649 66.403351 
C 288.1813 56.308002 276.195552 48.299381 263.005343 42.835817 
C 249.815134 37.372254 235.67698 34.56 221.4 34.56 
C 207.12302 34.56 192.984866 37.372254 179.794657 42.835817 
C 166.604448 48.299381 154.6187 56.308002 144.523351 66.403351 
C 134.428002 76.4987 126.419381 88.484448 120.955817 101.674657 
C 115.492254 114.864866 112.68 129.00302 112.68 143.28 
C 112.68 157.55698 115.492254 171.695134 120.955817 184.885343 
C 126.419381 198.075552 134.428002 210.0613 144.523351 220.156649 
C 154.6187 230.251998 166.604448 238.260619 179.794657 243.724183 
C 192.984866 249.187746 207.12302 252 221.4 252 
C 235.67698 252 249.815134 249.187746 263.005343 243.724183 
C 276.195552 238.260619 288.1813 230.251998 298.276649 220.156649 
C 308.371998 210.0613 316.380619 198.075552 321.844183 184.885343 
C 327.307746 171.695134 330.12 157.55698 330.12 143.28 
M 221.4 143.28 
C 221.4 143.28 221.4 143.28 221.4 143.28 
C 221.4 143.28 221.4 143.28 221.4 143.28 
C 221.4 143.28 221.4 143.28 221.4 143.28 
C 221.4 143.28 221.4 143.28 221.4 143.28 
C 221.4 143.28 221.4 143.28 221.4 143.28 
C 221.4 143.28 221.4 143.28 221.4 143.28 
C 221.4 143.28 221.4 143.28 221.4 143.28 
C 221.4 143.28 221.4 143.28 221.4 143.28 
C 221.4 143.28 221.4 143.28 221.4 143.28 
C 221.4 143.28 221.4 143.28 221.4 143.28 
C 221.4 143.28 221.4 143.28 221.4 143.28 
C 221.4 143.28 221.4 143.28 221.4 143.28 
C 221.4 143.28 221.4 143.28 221.4 143.28 
C 221.4 143.28 221.4 143.28 221.4 143.28 
C 221.4 143.28 221.4 143.28 221.4 143.28 
C 221.4 143.28 221.4 143.28 221.4 143.28 
z
" style="fill: #ffffff"/>
   </g>
   <g id="patch_3">
    <path d="M 221.4 143.28 
C 221.4 143.28 221.4 143.28 221.4 143.28 
C 221.4 143.28 221.4 143.28 221.4 143.28 
L 296.688624 138.302247 
C 296.798177 139.959237 296.852998 141.619392 296.852998 143.28 
C 296.852998 144.940608 296.798177 146.600763 296.688624 148.257753 
z
" clip-path="url(#pa5bd15a70c)" style="fill: #9bcce2; opacity: 0.5"/>
   </g>
   <g id="patch_4">
    <path d="M 221.4 143.28 
C 221.4 143.28 221.4 143.28 221.4 143.28 
C 221.4 143.28 221.4 143.28 221.4 143.28 
L 272.948443 126.576771 
C 273.994222 129.804185 274.734593 133.122692 275.159801 136.488558 
C 275.585009 139.854424 275.693176 143.252797 275.482878 146.63889 
z
" clip-path="url(#pa5bd15a70c)" style="fill: #f8fccb; opacity: 0.5"/>
   </g>
   <g id="patch_5">
    <path d="M 221.4 143.28 
C 221.4 143.28 221.4 143.28 221.4 143.28 
C 221.4 143.28 221.4 143.28 221.4 143.28 
L 287.721791 123.349922 
C 287.991476 124.247359 288.242918 125.150178 288.475961 126.05782 
C 288.709004 126.965463 288.9236 127.877742 289.119617 128.794094 
z
" clip-path="url(#pa5bd15a70c)" style="fill: #bde2ee; opacity: 0.5"/>
   </g>
   <g id="patch_6">
    <path d="M 221.4 143.28 
C 221.4 143.28 221.4 143.28 221.4 143.28 
C 221.4 143.28 221.4 143.28 221.4 143.28 
L 273.930742 108.290496 
C 276.389307 111.98161 278.452001 115.921595 280.084618 120.045116 
C 281.717236 124.168637 282.910702 128.452774 283.645227 132.826484 
z
" clip-path="url(#pa5bd15a70c)" style="fill: #dcf1f7; opacity: 0.5"/>
   </g>
   <g id="patch_7">
    <path d="M 221.4 143.28 
C 221.4 143.28 221.4 143.28 221.4 143.28 
C 221.4 143.28 221.4 143.28 221.4 143.28 
L 276.195777 101.044362 
C 278.365156 103.858877 280.314469 106.836355 282.026404 109.950352 
C 283.738339 113.06435 285.207812 116.305622 286.421774 119.645382 
z
" clip-path="url(#pa5bd15a70c)" style="fill: #bde2ee; opacity: 0.5"/>
   </g>
   <g id="patch_8">
    <path d="M 221.4 143.28 
C 221.4 143.28 221.4 143.28 221.4 143.28 
C 221.4 143.28 221.4 143.28 221.4 143.28 
L 243.290263 108.167602 
C 247.810286 110.985538 251.743948 114.649941 254.874774 118.959153 
C 258.0056 123.268365 260.275086 128.141862 261.558338 133.311451 
z
" clip-path="url(#pa5bd15a70c)" style="fill: #fee090; opacity: 0.5"/>
   </g>
   <g id="patch_9">
    <path d="M 221.4 143.28 
C 221.4 143.28 221.4 143.28 221.4 143.28 
C 221.4 143.28 221.4 143.28 221.4 143.28 
L 281.597694 84.925581 
C 281.90637 85.244007 282.212515 85.564878 282.516099 85.888163 
C 282.819684 86.211447 283.120698 86.537136 283.419115 86.865197 
z
" clip-path="url(#pa5bd15a70c)" style="fill: #70a9cf; opacity: 0.5"/>
   </g>
   <g id="patch_10">
    <path d="M 221.4 143.28 
C 221.4 143.28 221.4 143.28 221.4 143.28 
C 221.4 143.28 221.4 143.28 221.4 143.28 
L 241.429776 78.543618 
C 249.89577 81.163041 257.766285 85.417933 264.594547 91.066762 
C 271.422809 96.715592 277.077122 103.649411 281.236517 111.474618 
z
" clip-path="url(#pa5bd15a70c)" style="fill: #c3e5f0; opacity: 0.5"/>
   </g>
   <g id="patch_11">
    <path d="M 221.4 143.28 
C 221.4 143.28 221.4 143.28 221.4 143.28 
C 221.4 143.28 221.4 143.28 221.4 143.28 
L 261.193441 58.053227 
C 264.849728 59.760393 268.392371 61.701077 271.799405 63.863246 
C 275.206438 66.025415 278.470805 68.404591 281.572267 70.986023 
z
" clip-path="url(#pa5bd15a70c)" style="fill: #4471b2; opacity: 0.5"/>
   </g>
   <g id="patch_12">
    <path d="M 221.4 143.28 
C 221.4 143.28 221.4 143.28 221.4 143.28 
C 221.4 143.28 221.4 143.28 221.4 143.28 
L 238.510485 82.624091 
C 241.845947 83.564995 245.098122 84.779423 248.23392 86.255017 
C 251.369718 87.730612 254.378465 89.462351 257.229547 91.432614 
z
" clip-path="url(#pa5bd15a70c)" style="fill: #dcf1f7; opacity: 0.5"/>
   </g>
   <g id="patch_13">
    <path d="M 221.4 143.28 
C 221.4 143.28 221.4 143.28 221.4 143.28 
C 221.4 143.28 221.4 143.28 221.4 143.28 
L 222.018272 66.421002 
C 229.87612 66.484212 237.678006 67.752097 245.151505 70.180384 
C 252.625004 72.608671 259.682106 76.168764 266.076393 80.736353 
z
" clip-path="url(#pa5bd15a70c)" style="fill: #94c7df; opacity: 0.5"/>
   </g>
   <g id="patch_14">
    <path d="M 221.4 143.28 
C 221.4 143.28 221.4 143.28 221.4 143.28 
C 221.4 143.28 221.4 143.28 221.4 143.28 
L 233.084482 59.162255 
C 234.499767 59.358847 235.909866 59.591126 237.313432 59.858871 
C 238.716997 60.126615 240.113581 60.429739 241.501851 60.767954 
z
" clip-path="url(#pa5bd15a70c)" style="fill: #6ba2cb; opacity: 0.5"/>
   </g>
   <g id="patch_15">
    <path d="M 221.4 143.28 
C 221.4 143.28 221.4 143.28 221.4 143.28 
C 221.4 143.28 221.4 143.28 221.4 143.28 
L 221.020718 79.702607 
C 222.47885 79.693909 223.936849 79.735375 225.392129 79.826934 
C 226.847408 79.918492 228.299108 80.060088 229.744651 80.251471 
z
" clip-path="url(#pa5bd15a70c)" style="fill: #daf0f6; opacity: 0.5"/>
   </g>
   <g id="patch_16">
    <path d="M 221.4 143.28 
C 221.4 143.28 221.4 143.28 221.4 143.28 
C 221.4 143.28 221.4 143.28 221.4 143.28 
L 220.629491 140.253311 
C 220.81773 140.205391 221.010031 140.175135 221.203891 140.162939 
C 221.397751 140.150742 221.592327 140.156657 221.785089 140.180607 
z
" clip-path="url(#pa5bd15a70c)" style="fill: #b30d26; opacity: 0.5"/>
   </g>
   <g id="patch_17">
    <path d="M 221.4 143.28 
C 221.4 143.28 221.4 143.28 221.4 143.28 
C 221.4 143.28 221.4 143.28 221.4 143.28 
L 175.836374 54.237959 
C 184.294008 49.91011 193.325285 46.809272 202.657626 45.029033 
C 211.989967 43.248794 221.52853 42.807245 230.985426 43.717714 
z
" clip-path="url(#pa5bd15a70c)" style="fill: #384ca0; opacity: 0.5"/>
   </g>
   <g id="patch_18">
    <path d="M 221.4 143.28 
C 221.4 143.28 221.4 143.28 221.4 143.28 
C 221.4 143.28 221.4 143.28 221.4 143.28 
L 203.663992 94.053619 
C 204.18346 93.866458 204.705858 93.68753 205.23099 93.516905 
C 205.756122 93.346279 206.283922 93.183976 206.814191 93.030057 
z
" clip-path="url(#pa5bd15a70c)" style="fill: #fdfec2; opacity: 0.5"/>
   </g>
   <g id="patch_19">
    <path d="M 221.4 143.28 
C 221.4 143.28 221.4 143.28 221.4 143.28 
C 221.4 143.28 221.4 143.28 221.4 143.28 
L 208.048076 116.099509 
C 208.200157 116.024802 208.352862 115.951373 208.506176 115.879229 
C 208.659489 115.807085 208.813406 115.736229 208.967909 115.666669 
z
" clip-path="url(#pa5bd15a70c)" style="fill: #fca85e; opacity: 0.5"/>
   </g>
   <g id="patch_20">
    <path d="M 221.4 143.28 
C 221.4 143.28 221.4 143.28 221.4 143.28 
C 221.4 143.28 221.4 143.28 221.4 143.28 
L 178.921195 93.158592 
C 181.220414 91.209962 183.650996 89.421847 186.195713 87.80692 
C 188.74043 86.191994 191.393256 84.75408 194.13539 83.50337 
z
" clip-path="url(#pa5bd15a70c)" style="fill: #cdeaf3; opacity: 0.5"/>
   </g>
   <g id="patch_21">
    <path d="M 221.4 143.28 
C 221.4 143.28 221.4 143.28 221.4 143.28 
C 221.4 143.28 221.4 143.28 221.4 143.28 
L 196.117614 115.522826 
C 196.558255 115.121472 197.008391 114.730667 197.467638 114.350744 
C 197.926886 113.970822 198.395115 113.601889 198.871928 113.244259 
z
" clip-path="url(#pa5bd15a70c)" style="fill: #fecc7e; opacity: 0.5"/>
   </g>
   <g id="patch_22">
    <path d="M 221.4 143.28 
C 221.4 143.28 221.4 143.28 221.4 143.28 
C 221.4 143.28 221.4 143.28 221.4 143.28 
L 183.123675 108.396357 
C 183.297214 108.20594 183.472172 108.01682 183.648534 107.829014 
C 183.824896 107.641207 184.002657 107.45472 184.181802 107.269566 
z
" clip-path="url(#pa5bd15a70c)" style="fill: #fffebe; opacity: 0.5"/>
   </g>
   <g id="patch_23">
    <path d="M 221.4 143.28 
C 221.4 143.28 221.4 143.28 221.4 143.28 
C 221.4 143.28 221.4 143.28 221.4 143.28 
L 150.160271 98.455434 
C 151.156953 96.871405 152.206191 95.321059 153.306232 93.806982 
C 154.406274 92.292904 155.556508 90.815937 156.755017 89.378544 
z
" clip-path="url(#pa5bd15a70c)" style="fill: #6ea6ce; opacity: 0.5"/>
   </g>
   <g id="patch_24">
    <path d="M 221.4 143.28 
C 221.4 143.28 221.4 143.28 221.4 143.28 
C 221.4 143.28 221.4 143.28 221.4 143.28 
L 149.070104 120.716591 
C 150.577618 115.88406 152.565654 111.214752 155.004392 106.778705 
C 157.443129 102.342658 160.320313 98.162164 163.592787 94.299928 
z
" clip-path="url(#pa5bd15a70c)" style="fill: #9bcce2; opacity: 0.5"/>
   </g>
   <g id="patch_25">
    <path d="M 221.4 143.28 
C 221.4 143.28 221.4 143.28 221.4 143.28 
C 221.4 143.28 221.4 143.28 221.4 143.28 
L 180.827808 131.560055 
C 181.202057 130.264478 181.638148 128.98757 182.134582 127.733721 
C 182.631016 126.479873 183.187223 125.250522 183.801291 124.049896 
z
" clip-path="url(#pa5bd15a70c)" style="fill: #fee294; opacity: 0.5"/>
   </g>
   <g id="patch_26">
    <path d="M 221.4 143.28 
C 221.4 143.28 221.4 143.28 221.4 143.28 
C 221.4 143.28 221.4 143.28 221.4 143.28 
L 218.98725 143.512796 
C 218.960216 143.232606 218.982194 142.949835 219.052198 142.677187 
C 219.122203 142.404539 219.239168 142.146157 219.397842 141.913648 
z
" clip-path="url(#pa5bd15a70c)" style="fill: #af0926; opacity: 0.5"/>
   </g>
   <g id="patch_27">
    <path d="M 221.4 143.28 
C 221.4 143.28 221.4 143.28 221.4 143.28 
C 221.4 143.28 221.4 143.28 221.4 143.28 
L 213.397415 144.044371 
C 213.341077 143.454541 213.350122 142.860287 213.424383 142.272445 
C 213.498645 141.684604 213.63767 141.10677 213.838922 140.549482 
z
" clip-path="url(#pa5bd15a70c)" style="fill: #ca2427; opacity: 0.5"/>
   </g>
   <g id="patch_28">
    <path d="M 221.4 143.28 
C 221.4 143.28 221.4 143.28 221.4 143.28 
C 221.4 143.28 221.4 143.28 221.4 143.28 
L 212.90938 143.999083 
C 212.889125 143.759924 212.878984 143.520015 212.878984 143.28 
C 212.878984 143.039985 212.889125 142.800076 212.90938 142.560917 
z
" clip-path="url(#pa5bd15a70c)" style="fill: #ce2827; opacity: 0.5"/>
   </g>
   <g id="patch_29">
    <path d="M 221.4 143.28 
C 221.4 143.28 221.4 143.28 221.4 143.28 
C 221.4 143.28 221.4 143.28 221.4 143.28 
L 183.042162 149.936999 
C 182.939696 149.346586 182.850876 148.753887 182.775771 148.159375 
C 182.700667 147.564862 182.639299 146.968695 182.591716 146.37135 
z
" clip-path="url(#pa5bd15a70c)" style="fill: #fed485; opacity: 0.5"/>
   </g>
   <g id="patch_30">
    <path d="M 221.4 143.28 
C 221.4 143.28 221.4 143.28 221.4 143.28 
C 221.4 143.28 221.4 143.28 221.4 143.28 
L 203.017841 155.148758 
C 201.741199 153.171513 200.791896 151.001177 200.206586 148.721544 
C 199.621276 146.441911 199.407588 144.082701 199.573773 141.735001 
z
" clip-path="url(#pa5bd15a70c)" style="fill: #f57245; opacity: 0.5"/>
   </g>
   <g id="patch_31">
    <path d="M 221.4 143.28 
C 221.4 143.28 221.4 143.28 221.4 143.28 
C 221.4 143.28 221.4 143.28 221.4 143.28 
L 155.750644 188.506001 
C 152.336248 183.549717 149.494079 178.222675 147.278506 172.626775 
C 145.062933 167.030876 143.488173 161.202031 142.584351 155.25174 
z
" clip-path="url(#pa5bd15a70c)" style="fill: #85bbd9; opacity: 0.5"/>
   </g>
   <g id="patch_32">
    <path d="M 221.4 143.28 
C 221.4 143.28 221.4 143.28 221.4 143.28 
C 221.4 143.28 221.4 143.28 221.4 143.28 
L 144.010054 196.406762 
C 142.257566 193.853907 140.632468 191.215901 139.14072 188.502422 
C 137.648972 185.788943 136.292401 183.003312 135.075984 180.15575 
z
" clip-path="url(#pa5bd15a70c)" style="fill: #4471b2; opacity: 0.5"/>
   </g>
   <g id="patch_33">
    <path d="M 221.4 143.28 
C 221.4 143.28 221.4 143.28 221.4 143.28 
C 221.4 143.28 221.4 143.28 221.4 143.28 
L 138.822872 205.747121 
C 138.420778 205.215581 138.023825 204.68017 137.632069 204.140964 
C 137.240313 203.601759 136.853773 203.058783 136.472501 202.512113 
z
" clip-path="url(#pa5bd15a70c)" style="fill: #313695; opacity: 0.5"/>
   </g>
   <g id="patch_34">
    <path d="M 221.4 143.28 
C 221.4 143.28 221.4 143.28 221.4 143.28 
C 221.4 143.28 221.4 143.28 221.4 143.28 
L 212.75669 155.368974 
C 211.965807 154.803512 211.232319 154.161802 210.566778 153.453072 
C 209.901237 152.744343 209.306849 151.97201 208.792163 151.147182 
z
" clip-path="url(#pa5bd15a70c)" style="fill: #e34933; opacity: 0.5"/>
   </g>
   <g id="patch_35">
    <path d="M 221.4 143.28 
C 221.4 143.28 221.4 143.28 221.4 143.28 
C 221.4 143.28 221.4 143.28 221.4 143.28 
L 192.362673 208.21094 
C 186.496446 205.587544 181.012702 202.181224 176.061303 198.085071 
C 171.109903 193.988917 166.736368 189.240586 163.060218 183.969841 
z
" clip-path="url(#pa5bd15a70c)" style="fill: #b2ddeb; opacity: 0.5"/>
   </g>
   <g id="patch_36">
    <path d="M 221.4 143.28 
C 221.4 143.28 221.4 143.28 221.4 143.28 
C 221.4 143.28 221.4 143.28 221.4 143.28 
L 217.896744 156.503796 
C 216.543007 156.145163 215.252333 155.580772 214.069905 154.830381 
C 212.887478 154.07999 211.827259 153.152459 210.926366 152.08026 
z
" clip-path="url(#pa5bd15a70c)" style="fill: #e0422f; opacity: 0.5"/>
   </g>
   <g id="patch_37">
    <path d="M 221.4 143.28 
C 221.4 143.28 221.4 143.28 221.4 143.28 
C 221.4 143.28 221.4 143.28 221.4 143.28 
L 221.207247 143.871 
C 221.182702 143.862994 221.15868 143.853468 221.135319 143.842475 
C 221.111959 143.831483 221.089306 143.819045 221.067492 143.805236 
z
" clip-path="url(#pa5bd15a70c)" style="fill: #a70226; opacity: 0.5"/>
   </g>
   <g id="patch_38">
    <path d="M 221.4 143.28 
C 221.4 143.28 221.4 143.28 221.4 143.28 
C 221.4 143.28 221.4 143.28 221.4 143.28 
L 216.397109 172.498271 
C 214.98838 172.257062 213.598938 171.914288 212.239659 171.472631 
C 210.88038 171.030975 209.55482 170.491591 208.273355 169.858704 
z
" clip-path="url(#pa5bd15a70c)" style="fill: #fca55d; opacity: 0.5"/>
   </g>
   <g id="patch_39">
    <path d="M 221.4 143.28 
C 221.4 143.28 221.4 143.28 221.4 143.28 
C 221.4 143.28 221.4 143.28 221.4 143.28 
L 215.423809 221.535566 
C 212.494303 221.311847 209.579668 220.923804 206.693672 220.373271 
C 203.807676 219.822738 200.954869 219.110582 198.148726 218.240168 
z
" clip-path="url(#pa5bd15a70c)" style="fill: #8cc0db; opacity: 0.5"/>
   </g>
   <g id="patch_40">
    <path d="M 221.4 143.28 
C 221.4 143.28 221.4 143.28 221.4 143.28 
C 221.4 143.28 221.4 143.28 221.4 143.28 
L 223.489279 168.408874 
C 222.267612 168.510447 221.040163 168.522795 219.816701 168.445822 
C 218.593238 168.368848 217.377015 168.202757 216.177713 167.94887 
z
" clip-path="url(#pa5bd15a70c)" style="fill: #f88950; opacity: 0.5"/>
   </g>
   <g id="patch_41">
    <path d="M 221.4 143.28 
C 221.4 143.28 221.4 143.28 221.4 143.28 
C 221.4 143.28 221.4 143.28 221.4 143.28 
L 249.512595 211.510891 
C 242.036124 214.591357 234.103916 216.422121 226.033656 216.929859 
C 217.963397 217.437596 209.864281 216.615438 202.06068 214.496312 
z
" clip-path="url(#pa5bd15a70c)" style="fill: #a6d5e7; opacity: 0.5"/>
   </g>
   <g id="patch_42">
    <path d="M 221.4 143.28 
C 221.4 143.28 221.4 143.28 221.4 143.28 
C 221.4 143.28 221.4 143.28 221.4 143.28 
L 257.305498 208.862543 
C 250.46198 212.60927 243.073989 215.261835 235.410152 216.72379 
C 227.746316 218.185745 219.900661 218.439154 212.158456 217.474802 
z
" clip-path="url(#pa5bd15a70c)" style="fill: #9fd0e4; opacity: 0.5"/>
   </g>
   <g id="patch_43">
    <path d="M 221.4 143.28 
C 221.4 143.28 221.4 143.28 221.4 143.28 
C 221.4 143.28 221.4 143.28 221.4 143.28 
L 250.008546 189.553743 
C 246.308892 191.841038 242.348244 193.676413 238.211513 195.020518 
C 234.074783 196.364624 229.791745 197.207785 225.454224 197.531926 
z
" clip-path="url(#pa5bd15a70c)" style="fill: #f7fcce; opacity: 0.5"/>
   </g>
   <g id="patch_44">
    <path d="M 221.4 143.28 
C 221.4 143.28 221.4 143.28 221.4 143.28 
C 221.4 143.28 221.4 143.28 221.4 143.28 
L 235.269711 167.919417 
C 234.671104 168.256377 234.060417 168.571411 233.438865 168.863891 
C 232.817313 169.156371 232.185309 169.426104 231.544111 169.672551 
z
" clip-path="url(#pa5bd15a70c)" style="fill: #fa9b58; opacity: 0.5"/>
   </g>
   <g id="patch_45">
    <path d="M 221.4 143.28 
C 221.4 143.28 221.4 143.28 221.4 143.28 
C 221.4 143.28 221.4 143.28 221.4 143.28 
L 251.584043 177.695026 
C 249.810687 179.250366 247.919763 180.666315 245.928173 181.930216 
C 243.936583 183.194118 241.850279 184.302195 239.687906 185.244544 
z
" clip-path="url(#pa5bd15a70c)" style="fill: #feeca2; opacity: 0.5"/>
   </g>
   <g id="patch_46">
    <path d="M 221.4 143.28 
C 221.4 143.28 221.4 143.28 221.4 143.28 
C 221.4 143.28 221.4 143.28 221.4 143.28 
L 224.637837 145.806594 
C 224.45489 146.04104 224.24702 146.254924 224.017886 146.44448 
C 223.788751 146.634037 223.539705 146.798147 223.275131 146.933922 
z
" clip-path="url(#pa5bd15a70c)" style="fill: #b91326; opacity: 0.5"/>
   </g>
   <g id="patch_47">
    <path d="M 221.4 143.28 
C 221.4 143.28 221.4 143.28 221.4 143.28 
C 221.4 143.28 221.4 143.28 221.4 143.28 
L 275.551586 189.201268 
C 274.776353 190.115443 273.978094 191.009841 273.157579 191.883602 
C 272.337063 192.757362 271.494553 193.610205 270.630859 194.44131 
z
" clip-path="url(#pa5bd15a70c)" style="fill: #b2ddeb; opacity: 0.5"/>
   </g>
   <g id="patch_48">
    <path d="M 221.4 143.28 
C 221.4 143.28 221.4 143.28 221.4 143.28 
C 221.4 143.28 221.4 143.28 221.4 143.28 
L 295.21882 173.523906 
C 292.801727 179.423506 289.686082 185.01213 285.938628 190.170058 
C 282.191174 195.327985 277.838864 200.01812 272.974933 204.139989 
z
" clip-path="url(#pa5bd15a70c)" style="fill: #85bbd9; opacity: 0.5"/>
   </g>
   <g id="patch_49">
    <path d="M 221.4 143.28 
C 221.4 143.28 221.4 143.28 221.4 143.28 
C 221.4 143.28 221.4 143.28 221.4 143.28 
L 252.116209 150.586118 
C 251.459776 153.345877 250.434393 156.004622 249.067777 158.490489 
C 247.70116 160.976355 246.005734 163.266742 244.027327 165.299739 
z
" clip-path="url(#pa5bd15a70c)" style="fill: #fdaf62; opacity: 0.5"/>
   </g>
   <g id="patch_50">
    <path d="M 221.4 143.28 
C 221.4 143.28 221.4 143.28 221.4 143.28 
C 221.4 143.28 221.4 143.28 221.4 143.28 
L 259.433717 155.883965 
C 259.194262 156.606544 258.934264 157.322152 258.65404 158.029918 
C 258.373815 158.737684 258.073478 159.43732 257.753394 160.127975 
z
" clip-path="url(#pa5bd15a70c)" style="fill: #fed889; opacity: 0.5"/>
   </g>
   <g id="patch_51">
    <path d="M 221.4 143.28 
C 221.4 143.28 221.4 143.28 221.4 143.28 
C 221.4 143.28 221.4 143.28 221.4 143.28 
L 233.7414 142.020585 
C 233.889985 143.476613 233.779732 144.947513 233.415752 146.365121 
C 233.051773 147.782729 232.439776 149.124803 231.608124 150.329148 
z
" clip-path="url(#pa5bd15a70c)" style="fill: #dc3b2c; opacity: 0.5"/>
   </g>
   <g id="patch_52">
    <path d="M 221.4 143.28 
C 221.4 143.28 221.4 143.28 221.4 143.28 
C 221.4 143.28 221.4 143.28 221.4 143.28 
L 236.592845 141.053126 
C 236.794463 142.428666 236.808342 143.825239 236.634099 145.204514 
C 236.459855 146.58379 236.0991 147.933035 235.561733 149.21522 
z
" clip-path="url(#pa5bd15a70c)" style="fill: #e44c34; opacity: 0.5"/>
   </g>
   <g id="matplotlib.axis_1">
    <g id="xtick_1">
     <g id="line2d_1">
      <path d="M 221.4 143.28 
L 330.12 143.28 
" clip-path="url(#pa5bd15a70c)" style="fill: none; stroke: #808080; stroke-width: 0.5; stroke-linecap: square"/>
     </g>
     <g id="text_1">
      <!-- 0° -->
      <g transform="translate(339.471563 146.014375) scale(0.1 -0.1)">
       <defs>
        <path id="Roboto-Thin-30" d="M 3113 1856 
Q 3113 966 2766 451 
Q 2419 -63 1756 -63 
Q 1103 -63 747 451 
Q 391 966 391 1856 
L 391 2694 
Q 391 3584 742 4100 
Q 1094 4616 1750 4616 
Q 2409 4616 2761 4100 
Q 3113 3584 3113 2694 
L 3113 1856 
z
M 2944 2694 
Q 2944 3475 2650 3961 
Q 2356 4447 1750 4447 
Q 1147 4447 853 3961 
Q 559 3475 559 2694 
L 559 1863 
Q 559 1094 856 600 
Q 1153 106 1756 106 
Q 2363 106 2653 600 
Q 2944 1094 2944 1863 
L 2944 2694 
z
" transform="scale(0.015625)"/>
        <path id="Roboto-Thin-b0" d="M 488 3863 
Q 488 4169 703 4391 
Q 919 4613 1225 4613 
Q 1522 4613 1736 4391 
Q 1950 4169 1950 3863 
Q 1950 3550 1736 3336 
Q 1522 3122 1225 3122 
Q 919 3122 703 3336 
Q 488 3550 488 3863 
z
M 659 3863 
Q 659 3616 821 3456 
Q 984 3297 1225 3297 
Q 1463 3297 1619 3456 
Q 1775 3616 1775 3863 
Q 1775 4113 1619 4277 
Q 1463 4441 1225 4441 
Q 984 4441 821 4277 
Q 659 4113 659 3863 
z
" transform="scale(0.015625)"/>
       </defs>
       <use xlink:href="#Roboto-Thin-30"/>
       <use xlink:href="#Roboto-Thin-b0" x="54.736328"/>
      </g>
     </g>
    </g>
    <g id="xtick_2">
     <g id="line2d_2">
      <path d="M 221.4 143.28 
L 298.276649 66.403351 
" clip-path="url(#pa5bd15a70c)" style="fill: none; stroke: #808080; stroke-width: 0.5; stroke-linecap: square"/>
     </g>
     <g id="text_2">
      <!-- 45° -->
      <g transform="translate(300.790988 59.238231) scale(0.1 -0.1)">
       <defs>
        <path id="Roboto-Thin-34" d="M 256 1334 
L 2428 4550 
L 2631 4550 
L 2631 1409 
L 3419 1409 
L 3419 1241 
L 2631 1241 
L 2631 0 
L 2463 0 
L 2463 1241 
L 256 1241 
L 256 1334 
z
M 519 1409 
L 2463 1409 
L 2463 4350 
L 2200 3916 
L 519 1409 
z
" transform="scale(0.015625)"/>
        <path id="Roboto-Thin-35" d="M 850 2331 
L 722 2381 
L 934 4550 
L 3153 4550 
L 3153 4384 
L 1088 4384 
L 903 2559 
Q 1016 2656 1277 2759 
Q 1538 2863 1856 2863 
Q 2444 2863 2822 2489 
Q 3200 2116 3200 1450 
Q 3200 797 2903 367 
Q 2606 -63 1919 -63 
Q 1384 -63 1001 246 
Q 619 556 569 1197 
L 741 1197 
Q 841 106 1919 106 
Q 3028 106 3028 1444 
Q 3028 1978 2726 2336 
Q 2425 2694 1859 2694 
Q 1500 2694 1264 2595 
Q 1028 2497 850 2331 
z
" transform="scale(0.015625)"/>
       </defs>
       <use xlink:href="#Roboto-Thin-34"/>
       <use xlink:href="#Roboto-Thin-35" x="54.736328"/>
       <use xlink:href="#Roboto-Thin-b0" x="109.472656"/>
      </g>
     </g>
    </g>
    <g id="xtick_3">
     <g id="line2d_3">
      <path d="M 221.4 143.28 
L 221.4 34.56 
" clip-path="url(#pa5bd15a70c)" style="fill: none; stroke: #808080; stroke-width: 0.5; stroke-linecap: square"/>
     </g>
     <g id="text_3">
      <!-- 90° -->
      <g transform="translate(214.014844 23.294375) scale(0.1 -0.1)">
       <defs>
        <path id="Roboto-Thin-39" d="M 3103 2313 
Q 3103 1188 2601 567 
Q 2100 -53 1069 -63 
L 931 -63 
L 938 106 
L 1081 106 
Q 2038 119 2486 694 
Q 2934 1269 2934 2263 
Q 2763 1897 2417 1680 
Q 2072 1463 1634 1463 
Q 1034 1463 678 1920 
Q 322 2378 322 2994 
Q 322 3656 689 4134 
Q 1056 4613 1659 4613 
Q 2331 4613 2712 4177 
Q 3094 3741 3103 2866 
L 3103 2313 
z
M 491 2994 
Q 491 2469 792 2050 
Q 1094 1631 1634 1631 
Q 2203 1631 2523 1959 
Q 2844 2288 2934 2628 
L 2934 2819 
Q 2934 3631 2601 4037 
Q 2269 4444 1672 4444 
Q 1309 4444 1043 4234 
Q 778 4025 634 3694 
Q 491 3363 491 2994 
z
" transform="scale(0.015625)"/>
       </defs>
       <use xlink:href="#Roboto-Thin-39"/>
       <use xlink:href="#Roboto-Thin-30" x="54.736328"/>
       <use xlink:href="#Roboto-Thin-b0" x="109.472656"/>
      </g>
     </g>
    </g>
    <g id="xtick_4">
     <g id="line2d_4">
      <path d="M 221.4 143.28 
L 144.523351 66.403351 
" clip-path="url(#pa5bd15a70c)" style="fill: none; stroke: #808080; stroke-width: 0.5; stroke-linecap: square"/>
     </g>
     <g id="text_4">
      <!-- 135° -->
      <g transform="translate(124.501981 59.238231) scale(0.1 -0.1)">
       <defs>
        <path id="Roboto-Thin-31" d="M 2059 4563 
L 2059 0 
L 1891 0 
L 1891 4338 
L 584 3847 
L 584 4031 
L 2025 4563 
L 2059 4563 
z
" transform="scale(0.015625)"/>
        <path id="Roboto-Thin-33" d="M 1303 2231 
L 1303 2406 
L 1663 2406 
Q 2253 2409 2565 2704 
Q 2878 3000 2878 3391 
Q 2878 3819 2611 4131 
Q 2344 4444 1763 4444 
Q 1269 4444 928 4153 
Q 588 3863 588 3356 
L 419 3356 
Q 419 3941 816 4277 
Q 1213 4613 1763 4613 
Q 2350 4613 2698 4283 
Q 3047 3953 3047 3378 
Q 3047 3019 2820 2734 
Q 2594 2450 2197 2328 
Q 2644 2225 2895 1939 
Q 3147 1653 3147 1206 
Q 3147 600 2762 268 
Q 2378 -63 1791 -63 
Q 1450 -63 1111 78 
Q 772 219 547 512 
Q 322 806 322 1266 
L 491 1266 
Q 491 759 862 432 
Q 1234 106 1791 106 
Q 2356 106 2667 395 
Q 2978 684 2978 1194 
Q 2978 1750 2604 1990 
Q 2231 2231 1650 2231 
L 1303 2231 
z
" transform="scale(0.015625)"/>
       </defs>
       <use xlink:href="#Roboto-Thin-31"/>
       <use xlink:href="#Roboto-Thin-33" x="54.736328"/>
       <use xlink:href="#Roboto-Thin-35" x="109.472656"/>
       <use xlink:href="#Roboto-Thin-b0" x="164.208984"/>
      </g>
     </g>
    </g>
    <g id="xtick_5">
     <g id="line2d_5">
      <path d="M 221.4 143.28 
L 112.68 143.28 
" clip-path="url(#pa5bd15a70c)" style="fill: none; stroke: #808080; stroke-width: 0.5; stroke-linecap: square"/>
     </g>
     <g id="text_5">
      <!-- 180° -->
      <g transform="translate(88.558125 146.014375) scale(0.1 -0.1)">
       <defs>
        <path id="Roboto-Thin-38" d="M 3209 1184 
Q 3209 563 2787 250 
Q 2366 -63 1763 -63 
Q 1147 -63 728 250 
Q 309 563 309 1184 
Q 309 1609 578 1912 
Q 847 2216 1275 2328 
Q 900 2444 669 2725 
Q 438 3006 438 3394 
Q 438 3988 814 4300 
Q 1191 4613 1750 4613 
Q 2300 4613 2689 4300 
Q 3078 3988 3078 3394 
Q 3078 3006 2842 2725 
Q 2606 2444 2234 2328 
Q 2659 2216 2934 1912 
Q 3209 1609 3209 1184 
z
M 2909 3409 
Q 2909 3863 2570 4153 
Q 2231 4444 1750 4444 
Q 1259 4444 932 4169 
Q 606 3894 606 3409 
Q 606 2947 934 2680 
Q 1263 2413 1756 2413 
Q 2238 2413 2573 2680 
Q 2909 2947 2909 3409 
z
M 3038 1169 
Q 3038 1663 2663 1953 
Q 2288 2244 1756 2244 
Q 1216 2244 847 1953 
Q 478 1663 478 1169 
Q 478 653 847 379 
Q 1216 106 1763 106 
Q 2294 106 2666 379 
Q 3038 653 3038 1169 
z
" transform="scale(0.015625)"/>
       </defs>
       <use xlink:href="#Roboto-Thin-31"/>
       <use xlink:href="#Roboto-Thin-38" x="54.736328"/>
       <use xlink:href="#Roboto-Thin-30" x="109.472656"/>
       <use xlink:href="#Roboto-Thin-b0" x="164.208984"/>
      </g>
     </g>
    </g>
    <g id="xtick_6">
     <g id="line2d_6">
      <path d="M 221.4 143.28 
L 144.523351 220.156649 
" clip-path="url(#pa5bd15a70c)" style="fill: none; stroke: #808080; stroke-width: 0.5; stroke-linecap: square"/>
     </g>
     <g id="text_6">
      <!-- 225° -->
      <g transform="translate(124.501981 232.790519) scale(0.1 -0.1)">
       <defs>
        <path id="Roboto-Thin-32" d="M 3200 169 
L 3200 0 
L 478 0 
L 478 169 
L 2047 1978 
Q 2784 2856 2784 3391 
Q 2784 3875 2503 4159 
Q 2222 4444 1675 4444 
Q 1184 4444 859 4108 
Q 534 3772 534 3266 
L 366 3266 
Q 366 3819 730 4216 
Q 1094 4613 1675 4613 
Q 2263 4613 2609 4300 
Q 2956 3988 2956 3391 
Q 2956 2969 2657 2536 
Q 2359 2103 1997 1681 
L 700 169 
L 3200 169 
z
" transform="scale(0.015625)"/>
       </defs>
       <use xlink:href="#Roboto-Thin-32"/>
       <use xlink:href="#Roboto-Thin-32" x="54.736328"/>
       <use xlink:href="#Roboto-Thin-35" x="109.472656"/>
       <use xlink:href="#Roboto-Thin-b0" x="164.208984"/>
      </g>
     </g>
    </g>
    <g id="xtick_7">
     <g id="line2d_7">
      <path d="M 221.4 143.28 
L 221.4 252 
" clip-path="url(#pa5bd15a70c)" style="fill: none; stroke: #808080; stroke-width: 0.5; stroke-linecap: square"/>
     </g>
     <g id="text_7">
      <!-- 270° -->
      <g transform="translate(211.278125 268.734375) scale(0.1 -0.1)">
       <defs>
        <path id="Roboto-Thin-37" d="M 3147 4550 
L 3147 4444 
L 1144 0 
L 972 0 
L 2953 4381 
L 241 4381 
L 241 4550 
L 3147 4550 
z
" transform="scale(0.015625)"/>
       </defs>
       <use xlink:href="#Roboto-Thin-32"/>
       <use xlink:href="#Roboto-Thin-37" x="54.736328"/>
       <use xlink:href="#Roboto-Thin-30" x="109.472656"/>
       <use xlink:href="#Roboto-Thin-b0" x="164.208984"/>
      </g>
     </g>
    </g>
    <g id="xtick_8">
     <g id="line2d_8">
      <path d="M 221.4 143.28 
L 298.276649 220.156649 
" clip-path="url(#pa5bd15a70c)" style="fill: none; stroke: #808080; stroke-width: 0.5; stroke-linecap: square"/>
     </g>
     <g id="text_8">
      <!-- 315° -->
      <g transform="translate(298.054269 232.790519) scale(0.1 -0.1)">
       <use xlink:href="#Roboto-Thin-33"/>
       <use xlink:href="#Roboto-Thin-31" x="54.736328"/>
       <use xlink:href="#Roboto-Thin-35" x="109.472656"/>
       <use xlink:href="#Roboto-Thin-b0" x="164.208984"/>
      </g>
     </g>
    </g>
   </g>
   <g id="matplotlib.axis_2">
    <g id="ytick_1">
     <g id="line2d_9">
      <path d="M 242.162056 143.28 
C 242.162056 140.553552 241.625005 137.853615 240.581639 135.334705 
C 239.538272 132.815795 238.008881 130.526899 236.080991 128.599009 
C 234.153101 126.671119 231.864205 125.141728 229.345295 124.098361 
C 226.826385 123.054995 224.126448 122.517944 221.4 122.517944 
C 218.673552 122.517944 215.973615 123.054995 213.454705 124.098361 
C 210.935795 125.141728 208.646899 126.671119 206.719009 128.599009 
C 204.791119 130.526899 203.261728 132.815795 202.218361 135.334705 
C 201.174995 137.853615 200.637944 140.553552 200.637944 143.28 
C 200.637944 146.006448 201.174995 148.706385 202.218361 151.225295 
C 203.261728 153.744205 204.791119 156.033101 206.719009 157.960991 
C 208.646899 159.888881 210.935795 161.418272 213.454705 162.461639 
C 215.973615 163.505005 218.673552 164.042056 221.4 164.042056 
C 224.126448 164.042056 226.826385 163.505005 229.345295 162.461639 
C 231.864205 161.418272 234.153101 159.888881 236.080991 157.960991 
C 238.008881 156.033101 239.538272 153.744205 240.581639 151.225295 
C 241.625005 148.706385 242.162056 146.006448 242.162056 143.28 
" clip-path="url(#pa5bd15a70c)" style="fill: none; stroke: #808080; stroke-width: 0.5; stroke-linecap: square"/>
     </g>
     <g id="text_9">
      <!-- 2 -->
      <g transform="translate(240.581639 133.303455) scale(0.1 -0.1)">
       <use xlink:href="#Roboto-Thin-32"/>
      </g>
     </g>
    </g>
    <g id="ytick_2">
     <g id="line2d_10">
      <path d="M 262.924113 143.28 
C 262.924113 137.827103 261.850011 132.42723 259.763278 127.38941 
C 257.676545 122.351591 254.617762 117.773798 250.761982 113.918018 
C 246.906202 110.062238 242.328409 107.003455 237.29059 104.916722 
C 232.25277 102.829989 226.852897 101.755887 221.4 101.755887 
C 215.947103 101.755887 210.54723 102.829989 205.50941 104.916722 
C 200.471591 107.003455 195.893798 110.062238 192.038018 113.918018 
C 188.182238 117.773798 185.123455 122.351591 183.036722 127.38941 
C 180.949989 132.42723 179.875887 137.827103 179.875887 143.28 
C 179.875887 148.732897 180.949989 154.13277 183.036722 159.17059 
C 185.123455 164.208409 188.182238 168.786202 192.038018 172.641982 
C 195.893798 176.497762 200.471591 179.556545 205.50941 181.643278 
C 210.54723 183.730011 215.947103 184.804113 221.4 184.804113 
C 226.852897 184.804113 232.25277 183.730011 237.29059 181.643278 
C 242.328409 179.556545 246.906202 176.497762 250.761982 172.641982 
C 254.617762 168.786202 257.676545 164.208409 259.763278 159.17059 
C 261.850011 154.13277 262.924113 148.732897 262.924113 143.28 
" clip-path="url(#pa5bd15a70c)" style="fill: none; stroke: #808080; stroke-width: 0.5; stroke-linecap: square"/>
     </g>
     <g id="text_10">
      <!-- 4 -->
      <g transform="translate(259.763278 125.35816) scale(0.1 -0.1)">
       <use xlink:href="#Roboto-Thin-34"/>
      </g>
     </g>
    </g>
    <g id="ytick_3">
     <g id="line2d_11">
      <path d="M 283.686169 143.28 
C 283.686169 135.100655 282.075016 127.000844 278.944917 119.444115 
C 275.814817 111.887386 271.226643 105.020698 265.442972 99.237028 
C 259.659302 93.453357 252.792614 88.865183 245.235885 85.735083 
C 237.679156 82.604984 229.579345 80.993831 221.4 80.993831 
C 213.220655 80.993831 205.120844 82.604984 197.564115 85.735083 
C 190.007386 88.865183 183.140698 93.453357 177.357028 99.237028 
C 171.573357 105.020698 166.985183 111.887386 163.855083 119.444115 
C 160.724984 127.000844 159.113831 135.100655 159.113831 143.28 
C 159.113831 151.459345 160.724984 159.559156 163.855083 167.115885 
C 166.985183 174.672614 171.573357 181.539302 177.357028 187.322972 
C 183.140698 193.106643 190.007386 197.694817 197.564115 200.824917 
C 205.120844 203.955016 213.220655 205.566169 221.4 205.566169 
C 229.579345 205.566169 237.679156 203.955016 245.235885 200.824917 
C 252.792614 197.694817 259.659302 193.106643 265.442972 187.322972 
C 271.226643 181.539302 275.814817 174.672614 278.944917 167.115885 
C 282.075016 159.559156 283.686169 151.459345 283.686169 143.28 
" clip-path="url(#pa5bd15a70c)" style="fill: none; stroke: #808080; stroke-width: 0.5; stroke-linecap: square"/>
     </g>
     <g id="text_11">
      <!-- 6 -->
      <g transform="translate(278.944917 117.412865) scale(0.1 -0.1)">
       <defs>
        <path id="Roboto-Thin-36" d="M 3166 1500 
Q 3166 838 2808 387 
Q 2450 -63 1881 -63 
Q 1250 -63 825 368 
Q 400 800 400 1538 
L 400 2063 
Q 400 2969 695 3531 
Q 991 4094 1483 4353 
Q 1975 4613 2566 4613 
L 2625 4613 
L 2625 4444 
Q 1431 4444 894 3547 
Q 603 3066 572 2291 
Q 744 2591 1078 2791 
Q 1413 2991 1850 2991 
Q 2478 2991 2822 2567 
Q 3166 2144 3166 1500 
z
M 569 1541 
Q 569 888 937 495 
Q 1306 103 1881 103 
Q 2394 103 2695 525 
Q 2997 947 2997 1500 
Q 2997 2053 2706 2437 
Q 2416 2822 1828 2822 
Q 1391 2822 1025 2570 
Q 659 2319 569 1944 
L 569 1541 
z
" transform="scale(0.015625)"/>
       </defs>
       <use xlink:href="#Roboto-Thin-36"/>
      </g>
     </g>
    </g>
    <g id="ytick_4">
     <g id="line2d_12">
      <path d="M 304.448225 143.28 
C 304.448225 132.374207 302.300022 121.574459 298.126556 111.49882 
C 293.953089 101.423181 287.835523 92.267597 280.123963 84.556037 
C 272.412403 76.844477 263.256819 70.726911 253.18118 66.553444 
C 243.105541 62.379978 232.305793 60.231775 221.4 60.231775 
C 210.494207 60.231775 199.694459 62.379978 189.61882 66.553444 
C 179.543181 70.726911 170.387597 76.844477 162.676037 84.556037 
C 154.964477 92.267597 148.846911 101.423181 144.673444 111.49882 
C 140.499978 121.574459 138.351775 132.374207 138.351775 143.28 
C 138.351775 154.185793 140.499978 164.985541 144.673444 175.06118 
C 148.846911 185.136819 154.964477 194.292403 162.676037 202.003963 
C 170.387597 209.715523 179.543181 215.833089 189.61882 220.006556 
C 199.694459 224.180022 210.494207 226.328225 221.4 226.328225 
C 232.305793 226.328225 243.105541 224.180022 253.18118 220.006556 
C 263.256819 215.833089 272.412403 209.715523 280.123963 202.003963 
C 287.835523 194.292403 293.953089 185.136819 298.126556 175.06118 
C 302.300022 164.985541 304.448225 154.185793 304.448225 143.28 
" clip-path="url(#pa5bd15a70c)" style="fill: none; stroke: #808080; stroke-width: 0.5; stroke-linecap: square"/>
     </g>
     <g id="text_12">
      <!-- 8 -->
      <g transform="translate(298.126556 109.46757) scale(0.1 -0.1)">
       <use xlink:href="#Roboto-Thin-38"/>
      </g>
     </g>
    </g>
    <g id="ytick_5">
     <g id="line2d_13">
      <path d="M 325.210282 143.28 
C 325.210282 129.647759 322.525027 116.148074 317.308194 103.553525 
C 312.091362 90.958976 304.444404 79.514496 294.804954 69.875046 
C 285.165504 60.235596 273.721024 52.588638 261.126475 47.371806 
C 248.531926 42.154973 235.032241 39.469718 221.4 39.469718 
C 207.767759 39.469718 194.268074 42.154973 181.673525 47.371806 
C 169.078976 52.588638 157.634496 60.235596 147.995046 69.875046 
C 138.355596 79.514496 130.708638 90.958976 125.491806 103.553525 
C 120.274973 116.148074 117.589718 129.647759 117.589718 143.28 
C 117.589718 156.912241 120.274973 170.411926 125.491806 183.006475 
C 130.708638 195.601024 138.355596 207.045504 147.995046 216.684954 
C 157.634496 226.324404 169.078976 233.971362 181.673525 239.188194 
C 194.268074 244.405027 207.767759 247.090282 221.4 247.090282 
C 235.032241 247.090282 248.531926 244.405027 261.126475 239.188194 
C 273.721024 233.971362 285.165504 226.324404 294.804954 216.684954 
C 304.444404 207.045504 312.091362 195.601024 317.308194 183.006475 
C 322.525027 170.411926 325.210282 156.912241 325.210282 143.28 
" clip-path="url(#pa5bd15a70c)" style="fill: none; stroke: #808080; stroke-width: 0.5; stroke-linecap: square"/>
     </g>
     <g id="text_13">
      <!-- 10 -->
      <g transform="translate(317.308194 101.522275) scale(0.1 -0.1)">
       <use xlink:href="#Roboto-Thin-31"/>
       <use xlink:href="#Roboto-Thin-30" x="54.736328"/>
      </g>
     </g>
    </g>
   </g>
   <g id="patch_53">
    <path d="M 330.12 143.28 
C 330.12 129.00302 327.307746 114.864866 321.844183 101.674657 
C 316.380619 88.484448 308.371998 76.4987 298.276649 66.403351 
C 288.1813 56.308002 276.195552 48.299381 263.005343 42.835817 
C 249.815134 37.372254 235.67698 34.56 221.4 34.56 
C 207.12302 34.56 192.984866 37.372254 179.794657 42.835817 
C 166.604448 48.299381 154.6187 56.308002 144.523351 66.403351 
C 134.428002 76.4987 126.419381 88.484448 120.955817 101.674657 
C 115.492254 114.864866 112.68 129.00302 112.68 143.28 
C 112.68 157.55698 115.492254 171.695134 120.955817 184.885343 
C 126.419381 198.075552 134.428002 210.0613 144.523351 220.156649 
C 154.6187 230.251998 166.604448 238.260619 179.794657 243.724183 
C 192.984866 249.187746 207.12302 252 221.4 252 
C 235.67698 252 249.815134 249.187746 263.005343 243.724183 
C 276.195552 238.260619 288.1813 230.251998 298.276649 220.156649 
C 308.371998 210.0613 316.380619 198.075552 321.844183 184.885343 
C 327.307746 171.695134 330.12 157.55698 330.12 143.28 
" style="fill: none; stroke: #000000; stroke-width: 0.8; stroke-linejoin: miter; stroke-linecap: square"/>
   </g>
  </g>
 </g>
 <defs>
  <clipPath id="pa5bd15a70c">
   <path d="M 330.12 143.28 
C 330.12 129.00302 327.307746 114.864866 321.844183 101.674657 
C 316.380619 88.484448 308.371998 76.4987 298.276649 66.403351 
C 288.1813 56.308002 276.195552 48.299381 263.005343 42.835817 
C 249.815134 37.372254 235.67698 34.56 221.4 34.56 
C 207.12302 34.56 192.984866 37.372254 179.794657 42.835817 
C 166.604448 48.299381 154.6187 56.308002 144.523351 66.403351 
C 134.428002 76.4987 126.419381 88.484448 120.955817 101.674657 
C 115.492254 114.864866 112.68 129.00302 112.68 143.28 
C 112.68 157.55698 115.492254 171.695134 120.955817 184.885343 
C 126.419381 198.075552 134.428002 210.0613 144.523351 220.156649 
C 154.6187 230.251998 166.604448 238.260619 179.794657 243.724183 
C 192.984866 249.187746 207.12302 252 221.4 252 
C 235.67698 252 249.815134 249.187746 263.005343 243.724183 
C 276.195552 238.260619 288.1813 230.251998 298.276649 220.156649 
C 308.371998 210.0613 316.380619 198.075552 321.844183 184.885343 
C 327.307746 171.695134 330.12 157.55698 330.12 143.28 
M 221.4 143.28 
C 221.4 143.28 221.4 143.28 221.4 143.28 
C 221.4 143.28 221.4 143.28 221.4 143.28 
C 221.4 143.28 221.4 143.28 221.4 143.28 
C 221.4 143.28 221.4 143.28 221.4 143.28 
C 221.4 143.28 221.4 143.28 221.4 143.28 
C 221.4 143.28 221.4 143.28 221.4 143.28 
C 221.4 143.28 221.4 143.28 221.4 143.28 
C 221.4 143.28 221.4 143.28 221.4 143.28 
C 221.4 143.28 221.4 143.28 221.4 143.28 
C 221.4 143.28 221.4 143.28 221.4 143.28 
C 221.4 143.28 221.4 143.28 221.4 143.28 
C 221.4 143.28 221.4 143.28 221.4 143.28 
C 221.4 143.28 221.4 143.28 221.4 143.28 
C 221.4 143.28 221.4 143.28 221.4 143.28 
C 221.4 143.28 221.4 143.28 221.4 143.28 
C 221.4 143.28 221.4 143.28 221.4 143.28 
z
"/>
  </clipPath>
 </defs>
</svg>
