<?xml version="1.0" encoding="utf-8" standalone="no"?>
<!DOCTYPE svg PUBLIC "-//W3C//DTD SVG 1.1//EN"
  "http://www.w3.org/Graphics/SVG/1.1/DTD/svg11.dtd">
<svg xmlns:xlink="http://www.w3.org/1999/xlink" width="360pt" height="360pt" viewBox="0 0 360 360" xmlns="http://www.w3.org/2000/svg" version="1.1">
 <metadata>
  <rdf:RDF xmlns:dc="http://purl.org/dc/elements/1.1/" xmlns:cc="http://creativecommons.org/ns#" xmlns:rdf="http://www.w3.org/1999/02/22-rdf-syntax-ns#">
   <cc:Work>
    <dc:type rdf:resource="http://purl.org/dc/dcmitype/StillImage"/>
    <dc:date>2024-07-30T19:42:00.451438</dc:date>
    <dc:format>image/svg+xml</dc:format>
    <dc:creator>
     <cc:Agent>
      <dc:title>Matplotlib v3.9.1, https://matplotlib.org/</dc:title>
     </cc:Agent>
    </dc:creator>
   </cc:Work>
  </rdf:RDF>
 </metadata>
 <defs>
  <style type="text/css">*{stroke-linejoin: round; stroke-linecap: butt}</style>
 </defs>
 <g id="figure_1">
  <g id="patch_1">
   <path d="M 0 360 
L 360 360 
L 360 0 
L 0 0 
z
" style="fill: #ffffff"/>
  </g>
  <g id="axes_1">
   <g id="patch_2">
    <path d="M 320.4 179.1 
C 320.4 161.253776 316.884683 143.581083 310.055228 127.093322 
C 303.225774 110.60556 293.214998 95.623375 280.595812 83.004188 
C 267.976625 70.385002 252.99444 60.374226 236.506678 53.544772 
C 220.018917 46.715317 202.346224 43.2 184.5 43.2 
C 166.653776 43.2 148.981083 46.715317 132.493322 53.544772 
C 116.00556 60.374226 101.023375 70.385002 88.404188 83.004188 
C 75.785002 95.623375 65.774226 110.60556 58.944772 127.093322 
C 52.115317 143.581083 48.6 161.253776 48.6 179.1 
C 48.6 196.946224 52.115317 214.618917 58.944772 231.106678 
C 65.774226 247.59444 75.785002 262.576625 88.404188 275.195812 
C 101.023375 287.814998 116.00556 297.825774 132.493322 304.655228 
C 148.981083 311.484683 166.653776 315 184.5 315 
C 202.346224 315 220.018917 311.484683 236.506678 304.655228 
C 252.99444 297.825774 267.976625 287.814998 280.595812 275.195812 
C 293.214998 262.576625 303.225774 247.59444 310.055228 231.106678 
C 316.884683 214.618917 320.4 196.946224 320.4 179.1 
M 184.5 179.1 
C 184.5 179.1 184.5 179.1 184.5 179.1 
C 184.5 179.1 184.5 179.1 184.5 179.1 
C 184.5 179.1 184.5 179.1 184.5 179.1 
C 184.5 179.1 184.5 179.1 184.5 179.1 
C 184.5 179.1 184.5 179.1 184.5 179.1 
C 184.5 179.1 184.5 179.1 184.5 179.1 
C 184.5 179.1 184.5 179.1 184.5 179.1 
C 184.5 179.1 184.5 179.1 184.5 179.1 
C 184.5 179.1 184.5 179.1 184.5 179.1 
C 184.5 179.1 184.5 179.1 184.5 179.1 
C 184.5 179.1 184.5 179.1 184.5 179.1 
C 184.5 179.1 184.5 179.1 184.5 179.1 
C 184.5 179.1 184.5 179.1 184.5 179.1 
C 184.5 179.1 184.5 179.1 184.5 179.1 
C 184.5 179.1 184.5 179.1 184.5 179.1 
C 184.5 179.1 184.5 179.1 184.5 179.1 
z
" style="fill: #ffffff"/>
   </g>
   <g id="matplotlib.axis_1">
    <g id="xtick_1">
     <g id="line2d_1">
      <path d="M 184.5 179.1 
L 320.4 179.1 
" clip-path="url(#pbf62fb79be)" style="fill: none; stroke: #b0b0b0; stroke-width: 0.8; stroke-linecap: square"/>
     </g>
     <g id="text_1">
      <!-- 0° -->
      <g transform="translate(328.71875 181.859375) scale(0.1 -0.1)">
       <defs>
        <path id="DejaVuSans-30" d="M 2034 4250 
Q 1547 4250 1301 3770 
Q 1056 3291 1056 2328 
Q 1056 1369 1301 889 
Q 1547 409 2034 409 
Q 2525 409 2770 889 
Q 3016 1369 3016 2328 
Q 3016 3291 2770 3770 
Q 2525 4250 2034 4250 
z
M 2034 4750 
Q 2819 4750 3233 4129 
Q 3647 3509 3647 2328 
Q 3647 1150 3233 529 
Q 2819 -91 2034 -91 
Q 1250 -91 836 529 
Q 422 1150 422 2328 
Q 422 3509 836 4129 
Q 1250 4750 2034 4750 
z
" transform="scale(0.015625)"/>
        <path id="DejaVuSans-b0" d="M 1600 4347 
Q 1350 4347 1178 4173 
Q 1006 4000 1006 3750 
Q 1006 3503 1178 3333 
Q 1350 3163 1600 3163 
Q 1850 3163 2022 3333 
Q 2194 3503 2194 3750 
Q 2194 3997 2020 4172 
Q 1847 4347 1600 4347 
z
M 1600 4750 
Q 1800 4750 1984 4673 
Q 2169 4597 2303 4453 
Q 2447 4313 2519 4134 
Q 2591 3956 2591 3750 
Q 2591 3338 2302 3052 
Q 2013 2766 1594 2766 
Q 1172 2766 890 3047 
Q 609 3328 609 3750 
Q 609 4169 896 4459 
Q 1184 4750 1600 4750 
z
" transform="scale(0.015625)"/>
       </defs>
       <use xlink:href="#DejaVuSans-30"/>
       <use xlink:href="#DejaVuSans-b0" x="63.623047"/>
      </g>
     </g>
    </g>
    <g id="xtick_2">
     <g id="line2d_2">
      <path d="M 184.5 179.1 
L 280.595812 83.004188 
" clip-path="url(#pbf62fb79be)" style="fill: none; stroke: #b0b0b0; stroke-width: 0.8; stroke-linecap: square"/>
     </g>
     <g id="text_2">
      <!-- 45° -->
      <g transform="translate(281.632806 75.864069) scale(0.1 -0.1)">
       <defs>
        <path id="DejaVuSans-34" d="M 2419 4116 
L 825 1625 
L 2419 1625 
L 2419 4116 
z
M 2253 4666 
L 3047 4666 
L 3047 1625 
L 3713 1625 
L 3713 1100 
L 3047 1100 
L 3047 0 
L 2419 0 
L 2419 1100 
L 313 1100 
L 313 1709 
L 2253 4666 
z
" transform="scale(0.015625)"/>
        <path id="DejaVuSans-35" d="M 691 4666 
L 3169 4666 
L 3169 4134 
L 1269 4134 
L 1269 2991 
Q 1406 3038 1543 3061 
Q 1681 3084 1819 3084 
Q 2600 3084 3056 2656 
Q 3513 2228 3513 1497 
Q 3513 744 3044 326 
Q 2575 -91 1722 -91 
Q 1428 -91 1123 -41 
Q 819 9 494 109 
L 494 744 
Q 775 591 1075 516 
Q 1375 441 1709 441 
Q 2250 441 2565 725 
Q 2881 1009 2881 1497 
Q 2881 1984 2565 2268 
Q 2250 2553 1709 2553 
Q 1456 2553 1204 2497 
Q 953 2441 691 2322 
L 691 4666 
z
" transform="scale(0.015625)"/>
       </defs>
       <use xlink:href="#DejaVuSans-34"/>
       <use xlink:href="#DejaVuSans-35" x="63.623047"/>
       <use xlink:href="#DejaVuSans-b0" x="127.246094"/>
      </g>
     </g>
    </g>
    <g id="xtick_3">
     <g id="line2d_3">
      <path d="M 184.5 179.1 
L 184.5 43.2 
" clip-path="url(#pbf62fb79be)" style="fill: none; stroke: #b0b0b0; stroke-width: 0.8; stroke-linecap: square"/>
     </g>
     <g id="text_3">
      <!-- 90° -->
      <g transform="translate(175.6375 31.959375) scale(0.1 -0.1)">
       <defs>
        <path id="DejaVuSans-39" d="M 703 97 
L 703 672 
Q 941 559 1184 500 
Q 1428 441 1663 441 
Q 2288 441 2617 861 
Q 2947 1281 2994 2138 
Q 2813 1869 2534 1725 
Q 2256 1581 1919 1581 
Q 1219 1581 811 2004 
Q 403 2428 403 3163 
Q 403 3881 828 4315 
Q 1253 4750 1959 4750 
Q 2769 4750 3195 4129 
Q 3622 3509 3622 2328 
Q 3622 1225 3098 567 
Q 2575 -91 1691 -91 
Q 1453 -91 1209 -44 
Q 966 3 703 97 
z
M 1959 2075 
Q 2384 2075 2632 2365 
Q 2881 2656 2881 3163 
Q 2881 3666 2632 3958 
Q 2384 4250 1959 4250 
Q 1534 4250 1286 3958 
Q 1038 3666 1038 3163 
Q 1038 2656 1286 2365 
Q 1534 2075 1959 2075 
z
" transform="scale(0.015625)"/>
       </defs>
       <use xlink:href="#DejaVuSans-39"/>
       <use xlink:href="#DejaVuSans-30" x="63.623047"/>
       <use xlink:href="#DejaVuSans-b0" x="127.246094"/>
      </g>
     </g>
    </g>
    <g id="xtick_4">
     <g id="line2d_4">
      <path d="M 184.5 179.1 
L 88.404188 83.004188 
" clip-path="url(#pbf62fb79be)" style="fill: none; stroke: #b0b0b0; stroke-width: 0.8; stroke-linecap: square"/>
     </g>
     <g id="text_4">
      <!-- 135° -->
      <g transform="translate(66.460944 75.864069) scale(0.1 -0.1)">
       <defs>
        <path id="DejaVuSans-31" d="M 794 531 
L 1825 531 
L 1825 4091 
L 703 3866 
L 703 4441 
L 1819 4666 
L 2450 4666 
L 2450 531 
L 3481 531 
L 3481 0 
L 794 0 
L 794 531 
z
" transform="scale(0.015625)"/>
        <path id="DejaVuSans-33" d="M 2597 2516 
Q 3050 2419 3304 2112 
Q 3559 1806 3559 1356 
Q 3559 666 3084 287 
Q 2609 -91 1734 -91 
Q 1441 -91 1130 -33 
Q 819 25 488 141 
L 488 750 
Q 750 597 1062 519 
Q 1375 441 1716 441 
Q 2309 441 2620 675 
Q 2931 909 2931 1356 
Q 2931 1769 2642 2001 
Q 2353 2234 1838 2234 
L 1294 2234 
L 1294 2753 
L 1863 2753 
Q 2328 2753 2575 2939 
Q 2822 3125 2822 3475 
Q 2822 3834 2567 4026 
Q 2313 4219 1838 4219 
Q 1578 4219 1281 4162 
Q 984 4106 628 3988 
L 628 4550 
Q 988 4650 1302 4700 
Q 1616 4750 1894 4750 
Q 2613 4750 3031 4423 
Q 3450 4097 3450 3541 
Q 3450 3153 3228 2886 
Q 3006 2619 2597 2516 
z
" transform="scale(0.015625)"/>
       </defs>
       <use xlink:href="#DejaVuSans-31"/>
       <use xlink:href="#DejaVuSans-33" x="63.623047"/>
       <use xlink:href="#DejaVuSans-35" x="127.246094"/>
       <use xlink:href="#DejaVuSans-b0" x="190.869141"/>
      </g>
     </g>
    </g>
    <g id="xtick_5">
     <g id="line2d_5">
      <path d="M 184.5 179.1 
L 48.6 179.1 
" clip-path="url(#pbf62fb79be)" style="fill: none; stroke: #b0b0b0; stroke-width: 0.8; stroke-linecap: square"/>
     </g>
     <g id="text_5">
      <!-- 180° -->
      <g transform="translate(22.55625 181.859375) scale(0.1 -0.1)">
       <defs>
        <path id="DejaVuSans-38" d="M 2034 2216 
Q 1584 2216 1326 1975 
Q 1069 1734 1069 1313 
Q 1069 891 1326 650 
Q 1584 409 2034 409 
Q 2484 409 2743 651 
Q 3003 894 3003 1313 
Q 3003 1734 2745 1975 
Q 2488 2216 2034 2216 
z
M 1403 2484 
Q 997 2584 770 2862 
Q 544 3141 544 3541 
Q 544 4100 942 4425 
Q 1341 4750 2034 4750 
Q 2731 4750 3128 4425 
Q 3525 4100 3525 3541 
Q 3525 3141 3298 2862 
Q 3072 2584 2669 2484 
Q 3125 2378 3379 2068 
Q 3634 1759 3634 1313 
Q 3634 634 3220 271 
Q 2806 -91 2034 -91 
Q 1263 -91 848 271 
Q 434 634 434 1313 
Q 434 1759 690 2068 
Q 947 2378 1403 2484 
z
M 1172 3481 
Q 1172 3119 1398 2916 
Q 1625 2713 2034 2713 
Q 2441 2713 2670 2916 
Q 2900 3119 2900 3481 
Q 2900 3844 2670 4047 
Q 2441 4250 2034 4250 
Q 1625 4250 1398 4047 
Q 1172 3844 1172 3481 
z
" transform="scale(0.015625)"/>
       </defs>
       <use xlink:href="#DejaVuSans-31"/>
       <use xlink:href="#DejaVuSans-38" x="63.623047"/>
       <use xlink:href="#DejaVuSans-30" x="127.246094"/>
       <use xlink:href="#DejaVuSans-b0" x="190.869141"/>
      </g>
     </g>
    </g>
    <g id="xtick_6">
     <g id="line2d_6">
      <path d="M 184.5 179.1 
L 88.404188 275.195812 
" clip-path="url(#pbf62fb79be)" style="fill: none; stroke: #b0b0b0; stroke-width: 0.8; stroke-linecap: square"/>
     </g>
     <g id="text_6">
      <!-- 225° -->
      <g transform="translate(66.460944 287.854681) scale(0.1 -0.1)">
       <defs>
        <path id="DejaVuSans-32" d="M 1228 531 
L 3431 531 
L 3431 0 
L 469 0 
L 469 531 
Q 828 903 1448 1529 
Q 2069 2156 2228 2338 
Q 2531 2678 2651 2914 
Q 2772 3150 2772 3378 
Q 2772 3750 2511 3984 
Q 2250 4219 1831 4219 
Q 1534 4219 1204 4116 
Q 875 4013 500 3803 
L 500 4441 
Q 881 4594 1212 4672 
Q 1544 4750 1819 4750 
Q 2544 4750 2975 4387 
Q 3406 4025 3406 3419 
Q 3406 3131 3298 2873 
Q 3191 2616 2906 2266 
Q 2828 2175 2409 1742 
Q 1991 1309 1228 531 
z
" transform="scale(0.015625)"/>
       </defs>
       <use xlink:href="#DejaVuSans-32"/>
       <use xlink:href="#DejaVuSans-32" x="63.623047"/>
       <use xlink:href="#DejaVuSans-35" x="127.246094"/>
       <use xlink:href="#DejaVuSans-b0" x="190.869141"/>
      </g>
     </g>
    </g>
    <g id="xtick_7">
     <g id="line2d_7">
      <path d="M 184.5 179.1 
L 184.5 315 
" clip-path="url(#pbf62fb79be)" style="fill: none; stroke: #b0b0b0; stroke-width: 0.8; stroke-linecap: square"/>
     </g>
     <g id="text_7">
      <!-- 270° -->
      <g transform="translate(172.45625 331.759375) scale(0.1 -0.1)">
       <defs>
        <path id="DejaVuSans-37" d="M 525 4666 
L 3525 4666 
L 3525 4397 
L 1831 0 
L 1172 0 
L 2766 4134 
L 525 4134 
L 525 4666 
z
" transform="scale(0.015625)"/>
       </defs>
       <use xlink:href="#DejaVuSans-32"/>
       <use xlink:href="#DejaVuSans-37" x="63.623047"/>
       <use xlink:href="#DejaVuSans-30" x="127.246094"/>
       <use xlink:href="#DejaVuSans-b0" x="190.869141"/>
      </g>
     </g>
    </g>
    <g id="xtick_8">
     <g id="line2d_8">
      <path d="M 184.5 179.1 
L 280.595812 275.195812 
" clip-path="url(#pbf62fb79be)" style="fill: none; stroke: #b0b0b0; stroke-width: 0.8; stroke-linecap: square"/>
     </g>
     <g id="text_8">
      <!-- 315° -->
      <g transform="translate(278.451556 287.854681) scale(0.1 -0.1)">
       <use xlink:href="#DejaVuSans-33"/>
       <use xlink:href="#DejaVuSans-31" x="63.623047"/>
       <use xlink:href="#DejaVuSans-35" x="127.246094"/>
       <use xlink:href="#DejaVuSans-b0" x="190.869141"/>
      </g>
     </g>
    </g>
   </g>
   <g id="matplotlib.axis_2">
    <g id="ytick_1">
     <g id="line2d_9">
      <path d="M 201.4875 179.1 
C 201.4875 176.869222 201.048085 174.660135 200.194404 172.599165 
C 199.340722 170.538195 198.089375 168.665422 196.511976 167.088024 
C 194.934578 165.510625 193.061805 164.259278 191.000835 163.405596 
C 188.939865 162.551915 186.730778 162.1125 184.5 162.1125 
C 182.269222 162.1125 180.060135 162.551915 177.999165 163.405596 
C 175.938195 164.259278 174.065422 165.510625 172.488024 167.088024 
C 170.910625 168.665422 169.659278 170.538195 168.805596 172.599165 
C 167.951915 174.660135 167.5125 176.869222 167.5125 179.1 
C 167.5125 181.330778 167.951915 183.539865 168.805596 185.600835 
C 169.659278 187.661805 170.910625 189.534578 172.488024 191.111976 
C 174.065422 192.689375 175.938195 193.940722 177.999165 194.794404 
C 180.060135 195.648085 182.269222 196.0875 184.5 196.0875 
C 186.730778 196.0875 188.939865 195.648085 191.000835 194.794404 
C 193.061805 193.940722 194.934578 192.689375 196.511976 191.111976 
C 198.089375 189.534578 199.340722 187.661805 200.194404 185.600835 
C 201.048085 183.539865 201.4875 181.330778 201.4875 179.1 
" clip-path="url(#pbf62fb79be)" style="fill: none; stroke: #b0b0b0; stroke-width: 0.8; stroke-linecap: square"/>
     </g>
    </g>
    <g id="ytick_2">
     <g id="line2d_10">
      <path d="M 218.475 179.1 
C 218.475 174.638444 217.596171 170.220271 215.888807 166.09833 
C 214.181444 161.97639 211.678749 158.230844 208.523953 155.076047 
C 205.369156 151.921251 201.62361 149.418556 197.50167 147.711193 
C 193.379729 146.003829 188.961556 145.125 184.5 145.125 
C 180.038444 145.125 175.620271 146.003829 171.49833 147.711193 
C 167.37639 149.418556 163.630844 151.921251 160.476047 155.076047 
C 157.321251 158.230844 154.818556 161.97639 153.111193 166.09833 
C 151.403829 170.220271 150.525 174.638444 150.525 179.1 
C 150.525 183.561556 151.403829 187.979729 153.111193 192.10167 
C 154.818556 196.22361 157.321251 199.969156 160.476047 203.123953 
C 163.630844 206.278749 167.37639 208.781444 171.49833 210.488807 
C 175.620271 212.196171 180.038444 213.075 184.5 213.075 
C 188.961556 213.075 193.379729 212.196171 197.50167 210.488807 
C 201.62361 208.781444 205.369156 206.278749 208.523953 203.123953 
C 211.678749 199.969156 214.181444 196.22361 215.888807 192.10167 
C 217.596171 187.979729 218.475 183.561556 218.475 179.1 
" clip-path="url(#pbf62fb79be)" style="fill: none; stroke: #b0b0b0; stroke-width: 0.8; stroke-linecap: square"/>
     </g>
    </g>
    <g id="ytick_3">
     <g id="line2d_11">
      <path d="M 235.4625 179.1 
C 235.4625 172.407666 234.144256 165.780406 231.583211 159.597496 
C 229.022165 153.414585 225.268124 147.796266 220.535929 143.064071 
C 215.803734 138.331876 210.185415 134.577835 204.002504 132.016789 
C 197.819594 129.455744 191.192334 128.1375 184.5 128.1375 
C 177.807666 128.1375 171.180406 129.455744 164.997496 132.016789 
C 158.814585 134.577835 153.196266 138.331876 148.464071 143.064071 
C 143.731876 147.796266 139.977835 153.414585 137.416789 159.597496 
C 134.855744 165.780406 133.5375 172.407666 133.5375 179.1 
C 133.5375 185.792334 134.855744 192.419594 137.416789 198.602504 
C 139.977835 204.785415 143.731876 210.403734 148.464071 215.135929 
C 153.196266 219.868124 158.814585 223.622165 164.997496 226.183211 
C 171.180406 228.744256 177.807666 230.0625 184.5 230.0625 
C 191.192334 230.0625 197.819594 228.744256 204.002504 226.183211 
C 210.185415 223.622165 215.803734 219.868124 220.535929 215.135929 
C 225.268124 210.403734 229.022165 204.785415 231.583211 198.602504 
C 234.144256 192.419594 235.4625 185.792334 235.4625 179.1 
" clip-path="url(#pbf62fb79be)" style="fill: none; stroke: #b0b0b0; stroke-width: 0.8; stroke-linecap: square"/>
     </g>
    </g>
    <g id="ytick_4">
     <g id="line2d_12">
      <path d="M 252.45 179.1 
C 252.45 170.176888 250.692341 161.340542 247.277614 153.096661 
C 243.862887 144.85278 238.857499 137.361687 232.547906 131.052094 
C 226.238313 124.742501 218.74722 119.737113 210.503339 116.322386 
C 202.259458 112.907659 193.423112 111.15 184.5 111.15 
C 175.576888 111.15 166.740542 112.907659 158.496661 116.322386 
C 150.25278 119.737113 142.761687 124.742501 136.452094 131.052094 
C 130.142501 137.361687 125.137113 144.85278 121.722386 153.096661 
C 118.307659 161.340542 116.55 170.176888 116.55 179.1 
C 116.55 188.023112 118.307659 196.859458 121.722386 205.103339 
C 125.137113 213.34722 130.142501 220.838313 136.452094 227.147906 
C 142.761687 233.457499 150.25278 238.462887 158.496661 241.877614 
C 166.740542 245.292341 175.576888 247.05 184.5 247.05 
C 193.423112 247.05 202.259458 245.292341 210.503339 241.877614 
C 218.74722 238.462887 226.238313 233.457499 232.547906 227.147906 
C 238.857499 220.838313 243.862887 213.34722 247.277614 205.103339 
C 250.692341 196.859458 252.45 188.023112 252.45 179.1 
" clip-path="url(#pbf62fb79be)" style="fill: none; stroke: #b0b0b0; stroke-width: 0.8; stroke-linecap: square"/>
     </g>
    </g>
    <g id="ytick_5">
     <g id="line2d_13">
      <path d="M 269.4375 179.1 
C 269.4375 167.94611 267.240427 156.900677 262.972018 146.595826 
C 258.703609 136.290975 252.446874 126.927109 244.559882 119.040118 
C 236.672891 111.153126 227.309025 104.896391 217.004174 100.627982 
C 206.699323 96.359573 195.65389 94.1625 184.5 94.1625 
C 173.34611 94.1625 162.300677 96.359573 151.995826 100.627982 
C 141.690975 104.896391 132.327109 111.153126 124.440118 119.040118 
C 116.553126 126.927109 110.296391 136.290975 106.027982 146.595826 
C 101.759573 156.900677 99.5625 167.94611 99.5625 179.1 
C 99.5625 190.25389 101.759573 201.299323 106.027982 211.604174 
C 110.296391 221.909025 116.553126 231.272891 124.440118 239.159882 
C 132.327109 247.046874 141.690975 253.303609 151.995826 257.572018 
C 162.300677 261.840427 173.34611 264.0375 184.5 264.0375 
C 195.65389 264.0375 206.699323 261.840427 217.004174 257.572018 
C 227.309025 253.303609 236.672891 247.046874 244.559882 239.159882 
C 252.446874 231.272891 258.703609 221.909025 262.972018 211.604174 
C 267.240427 201.299323 269.4375 190.25389 269.4375 179.1 
" clip-path="url(#pbf62fb79be)" style="fill: none; stroke: #b0b0b0; stroke-width: 0.8; stroke-linecap: square"/>
     </g>
    </g>
    <g id="ytick_6">
     <g id="line2d_14">
      <path d="M 286.425 179.1 
C 286.425 165.715332 283.788512 152.460812 278.666421 140.094991 
C 273.544331 127.72917 266.036248 116.492531 256.571859 107.028141 
C 247.107469 97.563752 235.87083 90.055669 223.505009 84.933579 
C 211.139188 79.811488 197.884668 77.175 184.5 77.175 
C 171.115332 77.175 157.860812 79.811488 145.494991 84.933579 
C 133.12917 90.055669 121.892531 97.563752 112.428141 107.028141 
C 102.963752 116.492531 95.455669 127.72917 90.333579 140.094991 
C 85.211488 152.460812 82.575 165.715332 82.575 179.1 
C 82.575 192.484668 85.211488 205.739188 90.333579 218.105009 
C 95.455669 230.47083 102.963752 241.707469 112.428141 251.171859 
C 121.892531 260.636248 133.12917 268.144331 145.494991 273.266421 
C 157.860812 278.388512 171.115332 281.025 184.5 281.025 
C 197.884668 281.025 211.139188 278.388512 223.505009 273.266421 
C 235.87083 268.144331 247.107469 260.636248 256.571859 251.171859 
C 266.036248 241.707469 273.544331 230.47083 278.666421 218.105009 
C 283.788512 205.739188 286.425 192.484668 286.425 179.1 
" clip-path="url(#pbf62fb79be)" style="fill: none; stroke: #b0b0b0; stroke-width: 0.8; stroke-linecap: square"/>
     </g>
    </g>
    <g id="ytick_7">
     <g id="line2d_15">
      <path d="M 303.4125 179.1 
C 303.4125 163.484554 300.336598 148.020948 294.360825 133.594156 
C 288.385052 119.167365 279.625623 106.057953 268.583835 95.016165 
C 257.542047 83.974377 244.432635 75.214948 230.005844 69.239175 
C 215.579052 63.263402 200.115446 60.1875 184.5 60.1875 
C 168.884554 60.1875 153.420948 63.263402 138.994156 69.239175 
C 124.567365 75.214948 111.457953 83.974377 100.416165 95.016165 
C 89.374377 106.057953 80.614948 119.167365 74.639175 133.594156 
C 68.663402 148.020948 65.5875 163.484554 65.5875 179.1 
C 65.5875 194.715446 68.663402 210.179052 74.639175 224.605844 
C 80.614948 239.032635 89.374377 252.142047 100.416165 263.183835 
C 111.457953 274.225623 124.567365 282.985052 138.994156 288.960825 
C 153.420948 294.936598 168.884554 298.0125 184.5 298.0125 
C 200.115446 298.0125 215.579052 294.936598 230.005844 288.960825 
C 244.432635 282.985052 257.542047 274.225623 268.583835 263.183835 
C 279.625623 252.142047 288.385052 239.032635 294.360825 224.605844 
C 300.336598 210.179052 303.4125 194.715446 303.4125 179.1 
" clip-path="url(#pbf62fb79be)" style="fill: none; stroke: #b0b0b0; stroke-width: 0.8; stroke-linecap: square"/>
     </g>
    </g>
    <g id="ytick_8">
     <g id="line2d_16">
      <path d="M 320.4 179.1 
C 320.4 161.253776 316.884683 143.581083 310.055228 127.093322 
C 303.225774 110.60556 293.214998 95.623375 280.595812 83.004188 
C 267.976625 70.385002 252.99444 60.374226 236.506678 53.544772 
C 220.018917 46.715317 202.346224 43.2 184.5 43.2 
C 166.653776 43.2 148.981083 46.715317 132.493322 53.544772 
C 116.00556 60.374226 101.023375 70.385002 88.404188 83.004188 
C 75.785002 95.623375 65.774226 110.60556 58.944772 127.093322 
C 52.115317 143.581083 48.6 161.253776 48.6 179.1 
C 48.6 196.946224 52.115317 214.618917 58.944772 231.106678 
C 65.774226 247.59444 75.785002 262.576625 88.404188 275.195812 
C 101.023375 287.814998 116.00556 297.825774 132.493322 304.655228 
C 148.981083 311.484683 166.653776 315 184.5 315 
C 202.346224 315 220.018917 311.484683 236.506678 304.655228 
C 252.99444 297.825774 267.976625 287.814998 280.595812 275.195812 
C 293.214998 262.576625 303.225774 247.59444 310.055228 231.106678 
C 316.884683 214.618917 320.4 196.946224 320.4 179.1 
" clip-path="url(#pbf62fb79be)" style="fill: none; stroke: #b0b0b0; stroke-width: 0.8; stroke-linecap: square"/>
     </g>
    </g>
   </g>
   <g id="line2d_17">
    <path d="M 252.45 179.1 
L 252.314566 174.811972 
L 251.908803 170.541038 
L 251.234328 166.304222 
L 250.293831 162.118414 
L 249.091061 158.0003 
L 247.630812 153.966295 
L 245.918904 150.03248 
L 243.962163 146.214537 
L 241.768388 142.527686 
L 239.346325 138.986622 
L 236.705628 135.605462 
L 233.856825 132.397684 
L 230.81127 129.376075 
L 227.581105 126.55268 
L 224.179206 123.938754 
L 220.619135 121.544717 
L 216.915081 119.380112 
L 213.081812 117.453569 
L 209.134607 115.772766 
L 205.089202 114.344404 
L 200.961722 113.174176 
L 196.768621 112.266749 
L 192.526613 111.625738 
L 188.252609 111.2537 
L 183.963646 111.152117 
L 179.676821 111.321394 
L 175.409222 111.760856 
L 171.177862 112.468752 
L 166.999608 113.44226 
L 162.891116 114.677499 
L 158.868763 116.169545 
L 154.948584 117.91245 
L 151.146205 119.899266 
L 147.476785 122.122074 
L 143.954949 124.572013 
L 140.594738 127.239316 
L 137.409547 130.113352 
L 134.412072 133.182662 
L 131.614262 136.435012 
L 129.02727 139.857438 
L 126.661408 143.436296 
L 124.526109 147.157319 
L 122.629882 151.005676 
L 120.980288 154.966025 
L 119.583903 159.022579 
L 118.446292 163.159168 
L 117.57199 167.359301 
L 116.964483 171.606236 
L 116.626193 175.883044 
L 116.558467 180.172675 
L 116.761577 184.45803 
L 117.234711 188.722027 
L 117.975985 192.947668 
L 118.982443 197.118107 
L 120.250073 201.216721 
L 121.773822 205.227171 
L 123.547616 209.133471 
L 125.564384 212.920049 
L 127.816087 216.57181 
L 130.293749 220.074197 
L 132.987492 223.413249 
L 135.88658 226.575656 
L 138.979455 229.54881 
L 142.253788 232.320861 
L 145.696527 234.880758 
L 149.293948 237.218297 
L 153.03171 239.324158 
L 156.894915 241.189949 
L 160.868161 242.808231 
L 164.935611 244.172553 
L 169.08105 245.277477 
L 173.287954 246.118598 
L 177.539552 246.692564 
L 181.818897 246.997085 
L 186.108929 247.030949 
L 190.392548 246.79402 
L 194.652677 246.287243 
L 198.872335 245.512638 
L 203.0347 244.473293 
L 207.12318 243.17335 
L 211.121478 241.617993 
L 215.013655 239.81342 
L 218.784196 237.766826 
L 222.418069 235.486368 
L 225.90079 232.981138 
L 229.218476 230.261122 
L 232.3579 227.337163 
L 235.306549 224.220916 
L 238.052668 220.924804 
L 240.58531 217.461966 
L 242.89438 213.846206 
L 244.970673 210.091938 
L 246.805912 206.214126 
L 248.392781 202.22823 
L 249.724955 198.150138 
L 250.797123 193.996106 
L 251.605011 189.782694 
L 252.145399 185.526698 
L 252.416133 181.245083 
L 252.45 179.1 
L 252.45 179.1 
" clip-path="url(#pbf62fb79be)" style="fill: none; stroke: #1f77b4; stroke-width: 1.5; stroke-linecap: square"/>
   </g>
   <g id="patch_3">
    <path d="M 320.4 179.1 
C 320.4 161.253776 316.884683 143.581083 310.055228 127.093322 
C 303.225774 110.60556 293.214998 95.623375 280.595812 83.004188 
C 267.976625 70.385002 252.99444 60.374226 236.506678 53.544772 
C 220.018917 46.715317 202.346224 43.2 184.5 43.2 
C 166.653776 43.2 148.981083 46.715317 132.493322 53.544772 
C 116.00556 60.374226 101.023375 70.385002 88.404188 83.004188 
C 75.785002 95.623375 65.774226 110.60556 58.944772 127.093322 
C 52.115317 143.581083 48.6 161.253776 48.6 179.1 
C 48.6 196.946224 52.115317 214.618917 58.944772 231.106678 
C 65.774226 247.59444 75.785002 262.576625 88.404188 275.195812 
C 101.023375 287.814998 116.00556 297.825774 132.493322 304.655228 
C 148.981083 311.484683 166.653776 315 184.5 315 
C 202.346224 315 220.018917 311.484683 236.506678 304.655228 
C 252.99444 297.825774 267.976625 287.814998 280.595812 275.195812 
C 293.214998 262.576625 303.225774 247.59444 310.055228 231.106678 
C 316.884683 214.618917 320.4 196.946224 320.4 179.1 
" style="fill: none; stroke: #000000; stroke-width: 0.8; stroke-linejoin: miter; stroke-linecap: square"/>
   </g>
  </g>
 </g>
 <defs>
  <clipPath id="pbf62fb79be">
   <path d="M 320.4 179.1 
C 320.4 161.253776 316.884683 143.581083 310.055228 127.093322 
C 303.225774 110.60556 293.214998 95.623375 280.595812 83.004188 
C 267.976625 70.385002 252.99444 60.374226 236.506678 53.544772 
C 220.018917 46.715317 202.346224 43.2 184.5 43.2 
C 166.653776 43.2 148.981083 46.715317 132.493322 53.544772 
C 116.00556 60.374226 101.023375 70.385002 88.404188 83.004188 
C 75.785002 95.623375 65.774226 110.60556 58.944772 127.093322 
C 52.115317 143.581083 48.6 161.253776 48.6 179.1 
C 48.6 196.946224 52.115317 214.618917 58.944772 231.106678 
C 65.774226 247.59444 75.785002 262.576625 88.404188 275.195812 
C 101.023375 287.814998 116.00556 297.825774 132.493322 304.655228 
C 148.981083 311.484683 166.653776 315 184.5 315 
C 202.346224 315 220.018917 311.484683 236.506678 304.655228 
C 252.99444 297.825774 267.976625 287.814998 280.595812 275.195812 
C 293.214998 262.576625 303.225774 247.59444 310.055228 231.106678 
C 316.884683 214.618917 320.4 196.946224 320.4 179.1 
M 184.5 179.1 
C 184.5 179.1 184.5 179.1 184.5 179.1 
C 184.5 179.1 184.5 179.1 184.5 179.1 
C 184.5 179.1 184.5 179.1 184.5 179.1 
C 184.5 179.1 184.5 179.1 184.5 179.1 
C 184.5 179.1 184.5 179.1 184.5 179.1 
C 184.5 179.1 184.5 179.1 184.5 179.1 
C 184.5 179.1 184.5 179.1 184.5 179.1 
C 184.5 179.1 184.5 179.1 184.5 179.1 
C 184.5 179.1 184.5 179.1 184.5 179.1 
C 184.5 179.1 184.5 179.1 184.5 179.1 
C 184.5 179.1 184.5 179.1 184.5 179.1 
C 184.5 179.1 184.5 179.1 184.5 179.1 
C 184.5 179.1 184.5 179.1 184.5 179.1 
C 184.5 179.1 184.5 179.1 184.5 179.1 
C 184.5 179.1 184.5 179.1 184.5 179.1 
C 184.5 179.1 184.5 179.1 184.5 179.1 
z
"/>
  </clipPath>
 </defs>
</svg>
