<?xml version="1.0" encoding="utf-8" standalone="no"?>
<!DOCTYPE svg PUBLIC "-//W3C//DTD SVG 1.1//EN"
  "http://www.w3.org/Graphics/SVG/1.1/DTD/svg11.dtd">
<svg xmlns:xlink="http://www.w3.org/1999/xlink" width="432pt" height="288pt" viewBox="0 0 432 288" xmlns="http://www.w3.org/2000/svg" version="1.1">
 <metadata>
  <rdf:RDF xmlns:dc="http://purl.org/dc/elements/1.1/" xmlns:cc="http://creativecommons.org/ns#" xmlns:rdf="http://www.w3.org/1999/02/22-rdf-syntax-ns#">
   <cc:Work>
    <dc:type rdf:resource="http://purl.org/dc/dcmitype/StillImage"/>
    <dc:date>2024-07-19T22:37:22.773219</dc:date>
    <dc:format>image/svg+xml</dc:format>
    <dc:creator>
     <cc:Agent>
      <dc:title>Matplotlib v3.5.2, https://matplotlib.org/</dc:title>
     </cc:Agent>
    </dc:creator>
   </cc:Work>
  </rdf:RDF>
 </metadata>
 <defs>
  <style type="text/css">*{stroke-linejoin: round; stroke-linecap: butt}</style>
 </defs>
 <g id="figure_1">
  <g id="patch_1">
   <path d="M 0 288 
L 432 288 
L 432 0 
L 0 0 
z
" style="fill: #ffffff"/>
  </g>
  <g id="axes_1">
   <g id="patch_2">
    <path d="M 54 252 
L 321.84 252 
L 321.84 34.56 
L 54 34.56 
z
" style="fill: #ffffff"/>
   </g>
   <g id="QuadMesh_1">
    <path d="M 54 34.56 
L 67.392 34.56 
L 67.392 45.432 
L 54 45.432 
L 54 34.56 
" clip-path="url(#p3d285d780c)" style="fill: #ffffff; stroke: #808080; stroke-width: 0.1"/>
    <path d="M 67.392 34.56 
L 80.784 34.56 
L 80.784 45.432 
L 67.392 45.432 
L 67.392 34.56 
" clip-path="url(#p3d285d780c)" style="fill: #87ceeb; stroke: #808080; stroke-width: 0.1"/>
    <path d="M 80.784 34.56 
L 94.176 34.56 
L 94.176 45.432 
L 80.784 45.432 
L 80.784 34.56 
" clip-path="url(#p3d285d780c)" style="fill: #87ceeb; stroke: #808080; stroke-width: 0.1"/>
    <path d="M 94.176 34.56 
L 107.568 34.56 
L 107.568 45.432 
L 94.176 45.432 
L 94.176 34.56 
" clip-path="url(#p3d285d780c)" style="fill: #ffffff; stroke: #808080; stroke-width: 0.1"/>
    <path d="M 107.568 34.56 
L 120.96 34.56 
L 120.96 45.432 
L 107.568 45.432 
L 107.568 34.56 
" clip-path="url(#p3d285d780c)" style="fill: #ffc0cb; stroke: #808080; stroke-width: 0.1"/>
    <path d="M 120.96 34.56 
L 134.352 34.56 
L 134.352 45.432 
L 120.96 45.432 
L 120.96 34.56 
" clip-path="url(#p3d285d780c)" style="fill: #ffffff; stroke: #808080; stroke-width: 0.1"/>
    <path d="M 134.352 34.56 
L 147.744 34.56 
L 147.744 45.432 
L 134.352 45.432 
L 134.352 34.56 
" clip-path="url(#p3d285d780c)" style="fill: #ffffff; stroke: #808080; stroke-width: 0.1"/>
    <path d="M 147.744 34.56 
L 161.136 34.56 
L 161.136 45.432 
L 147.744 45.432 
L 147.744 34.56 
" clip-path="url(#p3d285d780c)" style="fill: #ffffff; stroke: #808080; stroke-width: 0.1"/>
    <path d="M 161.136 34.56 
L 174.528 34.56 
L 174.528 45.432 
L 161.136 45.432 
L 161.136 34.56 
" clip-path="url(#p3d285d780c)" style="fill: #87ceeb; stroke: #808080; stroke-width: 0.1"/>
    <path d="M 174.528 34.56 
L 187.92 34.56 
L 187.92 45.432 
L 174.528 45.432 
L 174.528 34.56 
" clip-path="url(#p3d285d780c)" style="fill: #ff00ff; stroke: #808080; stroke-width: 0.1"/>
    <path d="M 187.92 34.56 
L 201.312 34.56 
L 201.312 45.432 
L 187.92 45.432 
L 187.92 34.56 
" clip-path="url(#p3d285d780c)" style="fill: #ffffff; stroke: #808080; stroke-width: 0.1"/>
    <path d="M 201.312 34.56 
L 214.704 34.56 
L 214.704 45.432 
L 201.312 45.432 
L 201.312 34.56 
" clip-path="url(#p3d285d780c)" style="fill: #ff00ff; stroke: #808080; stroke-width: 0.1"/>
    <path d="M 214.704 34.56 
L 228.096 34.56 
L 228.096 45.432 
L 214.704 45.432 
L 214.704 34.56 
" clip-path="url(#p3d285d780c)" style="fill: #ffffff; stroke: #808080; stroke-width: 0.1"/>
    <path d="M 228.096 34.56 
L 241.488 34.56 
L 241.488 45.432 
L 228.096 45.432 
L 228.096 34.56 
" clip-path="url(#p3d285d780c)" style="fill: #ffc0cb; stroke: #808080; stroke-width: 0.1"/>
    <path d="M 241.488 34.56 
L 254.88 34.56 
L 254.88 45.432 
L 241.488 45.432 
L 241.488 34.56 
" clip-path="url(#p3d285d780c)" style="fill: #ffffff; stroke: #808080; stroke-width: 0.1"/>
    <path d="M 254.88 34.56 
L 268.272 34.56 
L 268.272 45.432 
L 254.88 45.432 
L 254.88 34.56 
" clip-path="url(#p3d285d780c)" style="fill: #ffc0cb; stroke: #808080; stroke-width: 0.1"/>
    <path d="M 268.272 34.56 
L 281.664 34.56 
L 281.664 45.432 
L 268.272 45.432 
L 268.272 34.56 
" clip-path="url(#p3d285d780c)" style="fill: #ffffff; stroke: #808080; stroke-width: 0.1"/>
    <path d="M 281.664 34.56 
L 295.056 34.56 
L 295.056 45.432 
L 281.664 45.432 
L 281.664 34.56 
" clip-path="url(#p3d285d780c)" style="fill: #87ceeb; stroke: #808080; stroke-width: 0.1"/>
    <path d="M 295.056 34.56 
L 308.448 34.56 
L 308.448 45.432 
L 295.056 45.432 
L 295.056 34.56 
" clip-path="url(#p3d285d780c)" style="fill: #ffffff; stroke: #808080; stroke-width: 0.1"/>
    <path d="M 308.448 34.56 
L 321.84 34.56 
L 321.84 45.432 
L 308.448 45.432 
L 308.448 34.56 
" clip-path="url(#p3d285d780c)" style="fill: #ffffff; stroke: #808080; stroke-width: 0.1"/>
    <path d="M 54 45.432 
L 67.392 45.432 
L 67.392 56.304 
L 54 56.304 
L 54 45.432 
" clip-path="url(#p3d285d780c)" style="fill: #ffc0cb; stroke: #808080; stroke-width: 0.1"/>
    <path d="M 67.392 45.432 
L 80.784 45.432 
L 80.784 56.304 
L 67.392 56.304 
L 67.392 45.432 
" clip-path="url(#p3d285d780c)" style="fill: #ffffff; stroke: #808080; stroke-width: 0.1"/>
    <path d="M 80.784 45.432 
L 94.176 45.432 
L 94.176 56.304 
L 80.784 56.304 
L 80.784 45.432 
" clip-path="url(#p3d285d780c)" style="fill: #ffffff; stroke: #808080; stroke-width: 0.1"/>
    <path d="M 94.176 45.432 
L 107.568 45.432 
L 107.568 56.304 
L 94.176 56.304 
L 94.176 45.432 
" clip-path="url(#p3d285d780c)" style="fill: #ffffff; stroke: #808080; stroke-width: 0.1"/>
    <path d="M 107.568 45.432 
L 120.96 45.432 
L 120.96 56.304 
L 107.568 56.304 
L 107.568 45.432 
" clip-path="url(#p3d285d780c)" style="fill: #ffffff; stroke: #808080; stroke-width: 0.1"/>
    <path d="M 120.96 45.432 
L 134.352 45.432 
L 134.352 56.304 
L 120.96 56.304 
L 120.96 45.432 
" clip-path="url(#p3d285d780c)" style="fill: #ff00ff; stroke: #808080; stroke-width: 0.1"/>
    <path d="M 134.352 45.432 
L 147.744 45.432 
L 147.744 56.304 
L 134.352 56.304 
L 134.352 45.432 
" clip-path="url(#p3d285d780c)" style="fill: #ffffff; stroke: #808080; stroke-width: 0.1"/>
    <path d="M 147.744 45.432 
L 161.136 45.432 
L 161.136 56.304 
L 147.744 56.304 
L 147.744 45.432 
" clip-path="url(#p3d285d780c)" style="fill: #ffffff; stroke: #808080; stroke-width: 0.1"/>
    <path d="M 161.136 45.432 
L 174.528 45.432 
L 174.528 56.304 
L 161.136 56.304 
L 161.136 45.432 
" clip-path="url(#p3d285d780c)" style="fill: #ffffff; stroke: #808080; stroke-width: 0.1"/>
    <path d="M 174.528 45.432 
L 187.92 45.432 
L 187.92 56.304 
L 174.528 56.304 
L 174.528 45.432 
" clip-path="url(#p3d285d780c)" style="fill: #ffffff; stroke: #808080; stroke-width: 0.1"/>
    <path d="M 187.92 45.432 
L 201.312 45.432 
L 201.312 56.304 
L 187.92 56.304 
L 187.92 45.432 
" clip-path="url(#p3d285d780c)" style="fill: #ffffff; stroke: #808080; stroke-width: 0.1"/>
    <path d="M 201.312 45.432 
L 214.704 45.432 
L 214.704 56.304 
L 201.312 56.304 
L 201.312 45.432 
" clip-path="url(#p3d285d780c)" style="fill: #ffc0cb; stroke: #808080; stroke-width: 0.1"/>
    <path d="M 214.704 45.432 
L 228.096 45.432 
L 228.096 56.304 
L 214.704 56.304 
L 214.704 45.432 
" clip-path="url(#p3d285d780c)" style="fill: #ffc0cb; stroke: #808080; stroke-width: 0.1"/>
    <path d="M 228.096 45.432 
L 241.488 45.432 
L 241.488 56.304 
L 228.096 56.304 
L 228.096 45.432 
" clip-path="url(#p3d285d780c)" style="fill: #ffffff; stroke: #808080; stroke-width: 0.1"/>
    <path d="M 241.488 45.432 
L 254.88 45.432 
L 254.88 56.304 
L 241.488 56.304 
L 241.488 45.432 
" clip-path="url(#p3d285d780c)" style="fill: #ffffff; stroke: #808080; stroke-width: 0.1"/>
    <path d="M 254.88 45.432 
L 268.272 45.432 
L 268.272 56.304 
L 254.88 56.304 
L 254.88 45.432 
" clip-path="url(#p3d285d780c)" style="fill: #ffffff; stroke: #808080; stroke-width: 0.1"/>
    <path d="M 268.272 45.432 
L 281.664 45.432 
L 281.664 56.304 
L 268.272 56.304 
L 268.272 45.432 
" clip-path="url(#p3d285d780c)" style="fill: #ffffff; stroke: #808080; stroke-width: 0.1"/>
    <path d="M 281.664 45.432 
L 295.056 45.432 
L 295.056 56.304 
L 281.664 56.304 
L 281.664 45.432 
" clip-path="url(#p3d285d780c)" style="fill: #ffffff; stroke: #808080; stroke-width: 0.1"/>
    <path d="M 295.056 45.432 
L 308.448 45.432 
L 308.448 56.304 
L 295.056 56.304 
L 295.056 45.432 
" clip-path="url(#p3d285d780c)" style="fill: #87ceeb; stroke: #808080; stroke-width: 0.1"/>
    <path d="M 308.448 45.432 
L 321.84 45.432 
L 321.84 56.304 
L 308.448 56.304 
L 308.448 45.432 
" clip-path="url(#p3d285d780c)" style="fill: #ffc0cb; stroke: #808080; stroke-width: 0.1"/>
    <path d="M 54 56.304 
L 67.392 56.304 
L 67.392 67.176 
L 54 67.176 
L 54 56.304 
" clip-path="url(#p3d285d780c)" style="fill: #ffffff; stroke: #808080; stroke-width: 0.1"/>
    <path d="M 67.392 56.304 
L 80.784 56.304 
L 80.784 67.176 
L 67.392 67.176 
L 67.392 56.304 
" clip-path="url(#p3d285d780c)" style="fill: #87ceeb; stroke: #808080; stroke-width: 0.1"/>
    <path d="M 80.784 56.304 
L 94.176 56.304 
L 94.176 67.176 
L 80.784 67.176 
L 80.784 56.304 
" clip-path="url(#p3d285d780c)" style="fill: #ffffff; stroke: #808080; stroke-width: 0.1"/>
    <path d="M 94.176 56.304 
L 107.568 56.304 
L 107.568 67.176 
L 94.176 67.176 
L 94.176 56.304 
" clip-path="url(#p3d285d780c)" style="fill: #ffffff; stroke: #808080; stroke-width: 0.1"/>
    <path d="M 107.568 56.304 
L 120.96 56.304 
L 120.96 67.176 
L 107.568 67.176 
L 107.568 56.304 
" clip-path="url(#p3d285d780c)" style="fill: #ffffff; stroke: #808080; stroke-width: 0.1"/>
    <path d="M 120.96 56.304 
L 134.352 56.304 
L 134.352 67.176 
L 120.96 67.176 
L 120.96 56.304 
" clip-path="url(#p3d285d780c)" style="fill: #ffffff; stroke: #808080; stroke-width: 0.1"/>
    <path d="M 134.352 56.304 
L 147.744 56.304 
L 147.744 67.176 
L 134.352 67.176 
L 134.352 56.304 
" clip-path="url(#p3d285d780c)" style="fill: #ffffff; stroke: #808080; stroke-width: 0.1"/>
    <path d="M 147.744 56.304 
L 161.136 56.304 
L 161.136 67.176 
L 147.744 67.176 
L 147.744 56.304 
" clip-path="url(#p3d285d780c)" style="fill: #ffffff; stroke: #808080; stroke-width: 0.1"/>
    <path d="M 161.136 56.304 
L 174.528 56.304 
L 174.528 67.176 
L 161.136 67.176 
L 161.136 56.304 
" clip-path="url(#p3d285d780c)" style="fill: #ffffff; stroke: #808080; stroke-width: 0.1"/>
    <path d="M 174.528 56.304 
L 187.92 56.304 
L 187.92 67.176 
L 174.528 67.176 
L 174.528 56.304 
" clip-path="url(#p3d285d780c)" style="fill: #ffffff; stroke: #808080; stroke-width: 0.1"/>
    <path d="M 187.92 56.304 
L 201.312 56.304 
L 201.312 67.176 
L 187.92 67.176 
L 187.92 56.304 
" clip-path="url(#p3d285d780c)" style="fill: #ffffff; stroke: #808080; stroke-width: 0.1"/>
    <path d="M 201.312 56.304 
L 214.704 56.304 
L 214.704 67.176 
L 201.312 67.176 
L 201.312 56.304 
" clip-path="url(#p3d285d780c)" style="fill: #87ceeb; stroke: #808080; stroke-width: 0.1"/>
    <path d="M 214.704 56.304 
L 228.096 56.304 
L 228.096 67.176 
L 214.704 67.176 
L 214.704 56.304 
" clip-path="url(#p3d285d780c)" style="fill: #ffffff; stroke: #808080; stroke-width: 0.1"/>
    <path d="M 228.096 56.304 
L 241.488 56.304 
L 241.488 67.176 
L 228.096 67.176 
L 228.096 56.304 
" clip-path="url(#p3d285d780c)" style="fill: #ffffff; stroke: #808080; stroke-width: 0.1"/>
    <path d="M 241.488 56.304 
L 254.88 56.304 
L 254.88 67.176 
L 241.488 67.176 
L 241.488 56.304 
" clip-path="url(#p3d285d780c)" style="fill: #ffffff; stroke: #808080; stroke-width: 0.1"/>
    <path d="M 254.88 56.304 
L 268.272 56.304 
L 268.272 67.176 
L 254.88 67.176 
L 254.88 56.304 
" clip-path="url(#p3d285d780c)" style="fill: #ffffff; stroke: #808080; stroke-width: 0.1"/>
    <path d="M 268.272 56.304 
L 281.664 56.304 
L 281.664 67.176 
L 268.272 67.176 
L 268.272 56.304 
" clip-path="url(#p3d285d780c)" style="fill: #ffc0cb; stroke: #808080; stroke-width: 0.1"/>
    <path d="M 281.664 56.304 
L 295.056 56.304 
L 295.056 67.176 
L 281.664 67.176 
L 281.664 56.304 
" clip-path="url(#p3d285d780c)" style="fill: #ffffff; stroke: #808080; stroke-width: 0.1"/>
    <path d="M 295.056 56.304 
L 308.448 56.304 
L 308.448 67.176 
L 295.056 67.176 
L 295.056 56.304 
" clip-path="url(#p3d285d780c)" style="fill: #ff00ff; stroke: #808080; stroke-width: 0.1"/>
    <path d="M 308.448 56.304 
L 321.84 56.304 
L 321.84 67.176 
L 308.448 67.176 
L 308.448 56.304 
" clip-path="url(#p3d285d780c)" style="fill: #ffffff; stroke: #808080; stroke-width: 0.1"/>
    <path d="M 54 67.176 
L 67.392 67.176 
L 67.392 78.048 
L 54 78.048 
L 54 67.176 
" clip-path="url(#p3d285d780c)" style="fill: #ffffff; stroke: #808080; stroke-width: 0.1"/>
    <path d="M 67.392 67.176 
L 80.784 67.176 
L 80.784 78.048 
L 67.392 78.048 
L 67.392 67.176 
" clip-path="url(#p3d285d780c)" style="fill: #87ceeb; stroke: #808080; stroke-width: 0.1"/>
    <path d="M 80.784 67.176 
L 94.176 67.176 
L 94.176 78.048 
L 80.784 78.048 
L 80.784 67.176 
" clip-path="url(#p3d285d780c)" style="fill: #ffc0cb; stroke: #808080; stroke-width: 0.1"/>
    <path d="M 94.176 67.176 
L 107.568 67.176 
L 107.568 78.048 
L 94.176 78.048 
L 94.176 67.176 
" clip-path="url(#p3d285d780c)" style="fill: #87ceeb; stroke: #808080; stroke-width: 0.1"/>
    <path d="M 107.568 67.176 
L 120.96 67.176 
L 120.96 78.048 
L 107.568 78.048 
L 107.568 67.176 
" clip-path="url(#p3d285d780c)" style="fill: #87ceeb; stroke: #808080; stroke-width: 0.1"/>
    <path d="M 120.96 67.176 
L 134.352 67.176 
L 134.352 78.048 
L 120.96 78.048 
L 120.96 67.176 
" clip-path="url(#p3d285d780c)" style="fill: #87ceeb; stroke: #808080; stroke-width: 0.1"/>
    <path d="M 134.352 67.176 
L 147.744 67.176 
L 147.744 78.048 
L 134.352 78.048 
L 134.352 67.176 
" clip-path="url(#p3d285d780c)" style="fill: #ffc0cb; stroke: #808080; stroke-width: 0.1"/>
    <path d="M 147.744 67.176 
L 161.136 67.176 
L 161.136 78.048 
L 147.744 78.048 
L 147.744 67.176 
" clip-path="url(#p3d285d780c)" style="fill: #ffffff; stroke: #808080; stroke-width: 0.1"/>
    <path d="M 161.136 67.176 
L 174.528 67.176 
L 174.528 78.048 
L 161.136 78.048 
L 161.136 67.176 
" clip-path="url(#p3d285d780c)" style="fill: #ffffff; stroke: #808080; stroke-width: 0.1"/>
    <path d="M 174.528 67.176 
L 187.92 67.176 
L 187.92 78.048 
L 174.528 78.048 
L 174.528 67.176 
" clip-path="url(#p3d285d780c)" style="fill: #ffffff; stroke: #808080; stroke-width: 0.1"/>
    <path d="M 187.92 67.176 
L 201.312 67.176 
L 201.312 78.048 
L 187.92 78.048 
L 187.92 67.176 
" clip-path="url(#p3d285d780c)" style="fill: #ffffff; stroke: #808080; stroke-width: 0.1"/>
    <path d="M 201.312 67.176 
L 214.704 67.176 
L 214.704 78.048 
L 201.312 78.048 
L 201.312 67.176 
" clip-path="url(#p3d285d780c)" style="fill: #ffffff; stroke: #808080; stroke-width: 0.1"/>
    <path d="M 214.704 67.176 
L 228.096 67.176 
L 228.096 78.048 
L 214.704 78.048 
L 214.704 67.176 
" clip-path="url(#p3d285d780c)" style="fill: #ffffff; stroke: #808080; stroke-width: 0.1"/>
    <path d="M 228.096 67.176 
L 241.488 67.176 
L 241.488 78.048 
L 228.096 78.048 
L 228.096 67.176 
" clip-path="url(#p3d285d780c)" style="fill: #ffffff; stroke: #808080; stroke-width: 0.1"/>
    <path d="M 241.488 67.176 
L 254.88 67.176 
L 254.88 78.048 
L 241.488 78.048 
L 241.488 67.176 
" clip-path="url(#p3d285d780c)" style="fill: #ffffff; stroke: #808080; stroke-width: 0.1"/>
    <path d="M 254.88 67.176 
L 268.272 67.176 
L 268.272 78.048 
L 254.88 78.048 
L 254.88 67.176 
" clip-path="url(#p3d285d780c)" style="fill: #ffffff; stroke: #808080; stroke-width: 0.1"/>
    <path d="M 268.272 67.176 
L 281.664 67.176 
L 281.664 78.048 
L 268.272 78.048 
L 268.272 67.176 
" clip-path="url(#p3d285d780c)" style="fill: #ffffff; stroke: #808080; stroke-width: 0.1"/>
    <path d="M 281.664 67.176 
L 295.056 67.176 
L 295.056 78.048 
L 281.664 78.048 
L 281.664 67.176 
" clip-path="url(#p3d285d780c)" style="fill: #ffffff; stroke: #808080; stroke-width: 0.1"/>
    <path d="M 295.056 67.176 
L 308.448 67.176 
L 308.448 78.048 
L 295.056 78.048 
L 295.056 67.176 
" clip-path="url(#p3d285d780c)" style="fill: #ff00ff; stroke: #808080; stroke-width: 0.1"/>
    <path d="M 308.448 67.176 
L 321.84 67.176 
L 321.84 78.048 
L 308.448 78.048 
L 308.448 67.176 
" clip-path="url(#p3d285d780c)" style="fill: #87ceeb; stroke: #808080; stroke-width: 0.1"/>
    <path d="M 54 78.048 
L 67.392 78.048 
L 67.392 88.92 
L 54 88.92 
L 54 78.048 
" clip-path="url(#p3d285d780c)" style="fill: #ffc0cb; stroke: #808080; stroke-width: 0.1"/>
    <path d="M 67.392 78.048 
L 80.784 78.048 
L 80.784 88.92 
L 67.392 88.92 
L 67.392 78.048 
" clip-path="url(#p3d285d780c)" style="fill: #87ceeb; stroke: #808080; stroke-width: 0.1"/>
    <path d="M 80.784 78.048 
L 94.176 78.048 
L 94.176 88.92 
L 80.784 88.92 
L 80.784 78.048 
" clip-path="url(#p3d285d780c)" style="fill: #ffffff; stroke: #808080; stroke-width: 0.1"/>
    <path d="M 94.176 78.048 
L 107.568 78.048 
L 107.568 88.92 
L 94.176 88.92 
L 94.176 78.048 
" clip-path="url(#p3d285d780c)" style="fill: #ffffff; stroke: #808080; stroke-width: 0.1"/>
    <path d="M 107.568 78.048 
L 120.96 78.048 
L 120.96 88.92 
L 107.568 88.92 
L 107.568 78.048 
" clip-path="url(#p3d285d780c)" style="fill: #ffc0cb; stroke: #808080; stroke-width: 0.1"/>
    <path d="M 120.96 78.048 
L 134.352 78.048 
L 134.352 88.92 
L 120.96 88.92 
L 120.96 78.048 
" clip-path="url(#p3d285d780c)" style="fill: #ffffff; stroke: #808080; stroke-width: 0.1"/>
    <path d="M 134.352 78.048 
L 147.744 78.048 
L 147.744 88.92 
L 134.352 88.92 
L 134.352 78.048 
" clip-path="url(#p3d285d780c)" style="fill: #ffffff; stroke: #808080; stroke-width: 0.1"/>
    <path d="M 147.744 78.048 
L 161.136 78.048 
L 161.136 88.92 
L 147.744 88.92 
L 147.744 78.048 
" clip-path="url(#p3d285d780c)" style="fill: #87ceeb; stroke: #808080; stroke-width: 0.1"/>
    <path d="M 161.136 78.048 
L 174.528 78.048 
L 174.528 88.92 
L 161.136 88.92 
L 161.136 78.048 
" clip-path="url(#p3d285d780c)" style="fill: #ffffff; stroke: #808080; stroke-width: 0.1"/>
    <path d="M 174.528 78.048 
L 187.92 78.048 
L 187.92 88.92 
L 174.528 88.92 
L 174.528 78.048 
" clip-path="url(#p3d285d780c)" style="fill: #ffffff; stroke: #808080; stroke-width: 0.1"/>
    <path d="M 187.92 78.048 
L 201.312 78.048 
L 201.312 88.92 
L 187.92 88.92 
L 187.92 78.048 
" clip-path="url(#p3d285d780c)" style="fill: #ffffff; stroke: #808080; stroke-width: 0.1"/>
    <path d="M 201.312 78.048 
L 214.704 78.048 
L 214.704 88.92 
L 201.312 88.92 
L 201.312 78.048 
" clip-path="url(#p3d285d780c)" style="fill: #ffffff; stroke: #808080; stroke-width: 0.1"/>
    <path d="M 214.704 78.048 
L 228.096 78.048 
L 228.096 88.92 
L 214.704 88.92 
L 214.704 78.048 
" clip-path="url(#p3d285d780c)" style="fill: #ffffff; stroke: #808080; stroke-width: 0.1"/>
    <path d="M 228.096 78.048 
L 241.488 78.048 
L 241.488 88.92 
L 228.096 88.92 
L 228.096 78.048 
" clip-path="url(#p3d285d780c)" style="fill: #87ceeb; stroke: #808080; stroke-width: 0.1"/>
    <path d="M 241.488 78.048 
L 254.88 78.048 
L 254.88 88.92 
L 241.488 88.92 
L 241.488 78.048 
" clip-path="url(#p3d285d780c)" style="fill: #ffffff; stroke: #808080; stroke-width: 0.1"/>
    <path d="M 254.88 78.048 
L 268.272 78.048 
L 268.272 88.92 
L 254.88 88.92 
L 254.88 78.048 
" clip-path="url(#p3d285d780c)" style="fill: #ffffff; stroke: #808080; stroke-width: 0.1"/>
    <path d="M 268.272 78.048 
L 281.664 78.048 
L 281.664 88.92 
L 268.272 88.92 
L 268.272 78.048 
" clip-path="url(#p3d285d780c)" style="fill: #ffc0cb; stroke: #808080; stroke-width: 0.1"/>
    <path d="M 281.664 78.048 
L 295.056 78.048 
L 295.056 88.92 
L 281.664 88.92 
L 281.664 78.048 
" clip-path="url(#p3d285d780c)" style="fill: #ffffff; stroke: #808080; stroke-width: 0.1"/>
    <path d="M 295.056 78.048 
L 308.448 78.048 
L 308.448 88.92 
L 295.056 88.92 
L 295.056 78.048 
" clip-path="url(#p3d285d780c)" style="fill: #ffffff; stroke: #808080; stroke-width: 0.1"/>
    <path d="M 308.448 78.048 
L 321.84 78.048 
L 321.84 88.92 
L 308.448 88.92 
L 308.448 78.048 
" clip-path="url(#p3d285d780c)" style="fill: #ffffff; stroke: #808080; stroke-width: 0.1"/>
    <path d="M 54 88.92 
L 67.392 88.92 
L 67.392 99.792 
L 54 99.792 
L 54 88.92 
" clip-path="url(#p3d285d780c)" style="fill: #ffffff; stroke: #808080; stroke-width: 0.1"/>
    <path d="M 67.392 88.92 
L 80.784 88.92 
L 80.784 99.792 
L 67.392 99.792 
L 67.392 88.92 
" clip-path="url(#p3d285d780c)" style="fill: #ffc0cb; stroke: #808080; stroke-width: 0.1"/>
    <path d="M 80.784 88.92 
L 94.176 88.92 
L 94.176 99.792 
L 80.784 99.792 
L 80.784 88.92 
" clip-path="url(#p3d285d780c)" style="fill: #ffffff; stroke: #808080; stroke-width: 0.1"/>
    <path d="M 94.176 88.92 
L 107.568 88.92 
L 107.568 99.792 
L 94.176 99.792 
L 94.176 88.92 
" clip-path="url(#p3d285d780c)" style="fill: #ffffff; stroke: #808080; stroke-width: 0.1"/>
    <path d="M 107.568 88.92 
L 120.96 88.92 
L 120.96 99.792 
L 107.568 99.792 
L 107.568 88.92 
" clip-path="url(#p3d285d780c)" style="fill: #ffffff; stroke: #808080; stroke-width: 0.1"/>
    <path d="M 120.96 88.92 
L 134.352 88.92 
L 134.352 99.792 
L 120.96 99.792 
L 120.96 88.92 
" clip-path="url(#p3d285d780c)" style="fill: #ffffff; stroke: #808080; stroke-width: 0.1"/>
    <path d="M 134.352 88.92 
L 147.744 88.92 
L 147.744 99.792 
L 134.352 99.792 
L 134.352 88.92 
" clip-path="url(#p3d285d780c)" style="fill: #ffffff; stroke: #808080; stroke-width: 0.1"/>
    <path d="M 147.744 88.92 
L 161.136 88.92 
L 161.136 99.792 
L 147.744 99.792 
L 147.744 88.92 
" clip-path="url(#p3d285d780c)" style="fill: #ffffff; stroke: #808080; stroke-width: 0.1"/>
    <path d="M 161.136 88.92 
L 174.528 88.92 
L 174.528 99.792 
L 161.136 99.792 
L 161.136 88.92 
" clip-path="url(#p3d285d780c)" style="fill: #ffffff; stroke: #808080; stroke-width: 0.1"/>
    <path d="M 174.528 88.92 
L 187.92 88.92 
L 187.92 99.792 
L 174.528 99.792 
L 174.528 88.92 
" clip-path="url(#p3d285d780c)" style="fill: #ffffff; stroke: #808080; stroke-width: 0.1"/>
    <path d="M 187.92 88.92 
L 201.312 88.92 
L 201.312 99.792 
L 187.92 99.792 
L 187.92 88.92 
" clip-path="url(#p3d285d780c)" style="fill: #ffffff; stroke: #808080; stroke-width: 0.1"/>
    <path d="M 201.312 88.92 
L 214.704 88.92 
L 214.704 99.792 
L 201.312 99.792 
L 201.312 88.92 
" clip-path="url(#p3d285d780c)" style="fill: #00008b; stroke: #808080; stroke-width: 0.1"/>
    <path d="M 214.704 88.92 
L 228.096 88.92 
L 228.096 99.792 
L 214.704 99.792 
L 214.704 88.92 
" clip-path="url(#p3d285d780c)" style="fill: #87ceeb; stroke: #808080; stroke-width: 0.1"/>
    <path d="M 228.096 88.92 
L 241.488 88.92 
L 241.488 99.792 
L 228.096 99.792 
L 228.096 88.92 
" clip-path="url(#p3d285d780c)" style="fill: #ffffff; stroke: #808080; stroke-width: 0.1"/>
    <path d="M 241.488 88.92 
L 254.88 88.92 
L 254.88 99.792 
L 241.488 99.792 
L 241.488 88.92 
" clip-path="url(#p3d285d780c)" style="fill: #ffffff; stroke: #808080; stroke-width: 0.1"/>
    <path d="M 254.88 88.92 
L 268.272 88.92 
L 268.272 99.792 
L 254.88 99.792 
L 254.88 88.92 
" clip-path="url(#p3d285d780c)" style="fill: #ffffff; stroke: #808080; stroke-width: 0.1"/>
    <path d="M 268.272 88.92 
L 281.664 88.92 
L 281.664 99.792 
L 268.272 99.792 
L 268.272 88.92 
" clip-path="url(#p3d285d780c)" style="fill: #ffffff; stroke: #808080; stroke-width: 0.1"/>
    <path d="M 281.664 88.92 
L 295.056 88.92 
L 295.056 99.792 
L 281.664 99.792 
L 281.664 88.92 
" clip-path="url(#p3d285d780c)" style="fill: #ffffff; stroke: #808080; stroke-width: 0.1"/>
    <path d="M 295.056 88.92 
L 308.448 88.92 
L 308.448 99.792 
L 295.056 99.792 
L 295.056 88.92 
" clip-path="url(#p3d285d780c)" style="fill: #ffffff; stroke: #808080; stroke-width: 0.1"/>
    <path d="M 308.448 88.92 
L 321.84 88.92 
L 321.84 99.792 
L 308.448 99.792 
L 308.448 88.92 
" clip-path="url(#p3d285d780c)" style="fill: #ffffff; stroke: #808080; stroke-width: 0.1"/>
    <path d="M 54 99.792 
L 67.392 99.792 
L 67.392 110.664 
L 54 110.664 
L 54 99.792 
" clip-path="url(#p3d285d780c)" style="fill: #ff00ff; stroke: #808080; stroke-width: 0.1"/>
    <path d="M 67.392 99.792 
L 80.784 99.792 
L 80.784 110.664 
L 67.392 110.664 
L 67.392 99.792 
" clip-path="url(#p3d285d780c)" style="fill: #ffc0cb; stroke: #808080; stroke-width: 0.1"/>
    <path d="M 80.784 99.792 
L 94.176 99.792 
L 94.176 110.664 
L 80.784 110.664 
L 80.784 99.792 
" clip-path="url(#p3d285d780c)" style="fill: #87ceeb; stroke: #808080; stroke-width: 0.1"/>
    <path d="M 94.176 99.792 
L 107.568 99.792 
L 107.568 110.664 
L 94.176 110.664 
L 94.176 99.792 
" clip-path="url(#p3d285d780c)" style="fill: #ffffff; stroke: #808080; stroke-width: 0.1"/>
    <path d="M 107.568 99.792 
L 120.96 99.792 
L 120.96 110.664 
L 107.568 110.664 
L 107.568 99.792 
" clip-path="url(#p3d285d780c)" style="fill: #87ceeb; stroke: #808080; stroke-width: 0.1"/>
    <path d="M 120.96 99.792 
L 134.352 99.792 
L 134.352 110.664 
L 120.96 110.664 
L 120.96 99.792 
" clip-path="url(#p3d285d780c)" style="fill: #ffffff; stroke: #808080; stroke-width: 0.1"/>
    <path d="M 134.352 99.792 
L 147.744 99.792 
L 147.744 110.664 
L 134.352 110.664 
L 134.352 99.792 
" clip-path="url(#p3d285d780c)" style="fill: #ffffff; stroke: #808080; stroke-width: 0.1"/>
    <path d="M 147.744 99.792 
L 161.136 99.792 
L 161.136 110.664 
L 147.744 110.664 
L 147.744 99.792 
" clip-path="url(#p3d285d780c)" style="fill: #ffffff; stroke: #808080; stroke-width: 0.1"/>
    <path d="M 161.136 99.792 
L 174.528 99.792 
L 174.528 110.664 
L 161.136 110.664 
L 161.136 99.792 
" clip-path="url(#p3d285d780c)" style="fill: #ff00ff; stroke: #808080; stroke-width: 0.1"/>
    <path d="M 174.528 99.792 
L 187.92 99.792 
L 187.92 110.664 
L 174.528 110.664 
L 174.528 99.792 
" clip-path="url(#p3d285d780c)" style="fill: #ffffff; stroke: #808080; stroke-width: 0.1"/>
    <path d="M 187.92 99.792 
L 201.312 99.792 
L 201.312 110.664 
L 187.92 110.664 
L 187.92 99.792 
" clip-path="url(#p3d285d780c)" style="fill: #87ceeb; stroke: #808080; stroke-width: 0.1"/>
    <path d="M 201.312 99.792 
L 214.704 99.792 
L 214.704 110.664 
L 201.312 110.664 
L 201.312 99.792 
" clip-path="url(#p3d285d780c)" style="fill: #87ceeb; stroke: #808080; stroke-width: 0.1"/>
    <path d="M 214.704 99.792 
L 228.096 99.792 
L 228.096 110.664 
L 214.704 110.664 
L 214.704 99.792 
" clip-path="url(#p3d285d780c)" style="fill: #ffffff; stroke: #808080; stroke-width: 0.1"/>
    <path d="M 228.096 99.792 
L 241.488 99.792 
L 241.488 110.664 
L 228.096 110.664 
L 228.096 99.792 
" clip-path="url(#p3d285d780c)" style="fill: #ffffff; stroke: #808080; stroke-width: 0.1"/>
    <path d="M 241.488 99.792 
L 254.88 99.792 
L 254.88 110.664 
L 241.488 110.664 
L 241.488 99.792 
" clip-path="url(#p3d285d780c)" style="fill: #ffffff; stroke: #808080; stroke-width: 0.1"/>
    <path d="M 254.88 99.792 
L 268.272 99.792 
L 268.272 110.664 
L 254.88 110.664 
L 254.88 99.792 
" clip-path="url(#p3d285d780c)" style="fill: #87ceeb; stroke: #808080; stroke-width: 0.1"/>
    <path d="M 268.272 99.792 
L 281.664 99.792 
L 281.664 110.664 
L 268.272 110.664 
L 268.272 99.792 
" clip-path="url(#p3d285d780c)" style="fill: #87ceeb; stroke: #808080; stroke-width: 0.1"/>
    <path d="M 281.664 99.792 
L 295.056 99.792 
L 295.056 110.664 
L 281.664 110.664 
L 281.664 99.792 
" clip-path="url(#p3d285d780c)" style="fill: #ffffff; stroke: #808080; stroke-width: 0.1"/>
    <path d="M 295.056 99.792 
L 308.448 99.792 
L 308.448 110.664 
L 295.056 110.664 
L 295.056 99.792 
" clip-path="url(#p3d285d780c)" style="fill: #87ceeb; stroke: #808080; stroke-width: 0.1"/>
    <path d="M 308.448 99.792 
L 321.84 99.792 
L 321.84 110.664 
L 308.448 110.664 
L 308.448 99.792 
" clip-path="url(#p3d285d780c)" style="fill: #00008b; stroke: #808080; stroke-width: 0.1"/>
    <path d="M 54 110.664 
L 67.392 110.664 
L 67.392 121.536 
L 54 121.536 
L 54 110.664 
" clip-path="url(#p3d285d780c)" style="fill: #ffffff; stroke: #808080; stroke-width: 0.1"/>
    <path d="M 67.392 110.664 
L 80.784 110.664 
L 80.784 121.536 
L 67.392 121.536 
L 67.392 110.664 
" clip-path="url(#p3d285d780c)" style="fill: #ffffff; stroke: #808080; stroke-width: 0.1"/>
    <path d="M 80.784 110.664 
L 94.176 110.664 
L 94.176 121.536 
L 80.784 121.536 
L 80.784 110.664 
" clip-path="url(#p3d285d780c)" style="fill: #ffc0cb; stroke: #808080; stroke-width: 0.1"/>
    <path d="M 94.176 110.664 
L 107.568 110.664 
L 107.568 121.536 
L 94.176 121.536 
L 94.176 110.664 
" clip-path="url(#p3d285d780c)" style="fill: #ffc0cb; stroke: #808080; stroke-width: 0.1"/>
    <path d="M 107.568 110.664 
L 120.96 110.664 
L 120.96 121.536 
L 107.568 121.536 
L 107.568 110.664 
" clip-path="url(#p3d285d780c)" style="fill: #ffffff; stroke: #808080; stroke-width: 0.1"/>
    <path d="M 120.96 110.664 
L 134.352 110.664 
L 134.352 121.536 
L 120.96 121.536 
L 120.96 110.664 
" clip-path="url(#p3d285d780c)" style="fill: #ffc0cb; stroke: #808080; stroke-width: 0.1"/>
    <path d="M 134.352 110.664 
L 147.744 110.664 
L 147.744 121.536 
L 134.352 121.536 
L 134.352 110.664 
" clip-path="url(#p3d285d780c)" style="fill: #87ceeb; stroke: #808080; stroke-width: 0.1"/>
    <path d="M 147.744 110.664 
L 161.136 110.664 
L 161.136 121.536 
L 147.744 121.536 
L 147.744 110.664 
" clip-path="url(#p3d285d780c)" style="fill: #ffffff; stroke: #808080; stroke-width: 0.1"/>
    <path d="M 161.136 110.664 
L 174.528 110.664 
L 174.528 121.536 
L 161.136 121.536 
L 161.136 110.664 
" clip-path="url(#p3d285d780c)" style="fill: #ffc0cb; stroke: #808080; stroke-width: 0.1"/>
    <path d="M 174.528 110.664 
L 187.92 110.664 
L 187.92 121.536 
L 174.528 121.536 
L 174.528 110.664 
" clip-path="url(#p3d285d780c)" style="fill: #ffffff; stroke: #808080; stroke-width: 0.1"/>
    <path d="M 187.92 110.664 
L 201.312 110.664 
L 201.312 121.536 
L 187.92 121.536 
L 187.92 110.664 
" clip-path="url(#p3d285d780c)" style="fill: #ffffff; stroke: #808080; stroke-width: 0.1"/>
    <path d="M 201.312 110.664 
L 214.704 110.664 
L 214.704 121.536 
L 201.312 121.536 
L 201.312 110.664 
" clip-path="url(#p3d285d780c)" style="fill: #00008b; stroke: #808080; stroke-width: 0.1"/>
    <path d="M 214.704 110.664 
L 228.096 110.664 
L 228.096 121.536 
L 214.704 121.536 
L 214.704 110.664 
" clip-path="url(#p3d285d780c)" style="fill: #ffffff; stroke: #808080; stroke-width: 0.1"/>
    <path d="M 228.096 110.664 
L 241.488 110.664 
L 241.488 121.536 
L 228.096 121.536 
L 228.096 110.664 
" clip-path="url(#p3d285d780c)" style="fill: #ffffff; stroke: #808080; stroke-width: 0.1"/>
    <path d="M 241.488 110.664 
L 254.88 110.664 
L 254.88 121.536 
L 241.488 121.536 
L 241.488 110.664 
" clip-path="url(#p3d285d780c)" style="fill: #ffffff; stroke: #808080; stroke-width: 0.1"/>
    <path d="M 254.88 110.664 
L 268.272 110.664 
L 268.272 121.536 
L 254.88 121.536 
L 254.88 110.664 
" clip-path="url(#p3d285d780c)" style="fill: #ffffff; stroke: #808080; stroke-width: 0.1"/>
    <path d="M 268.272 110.664 
L 281.664 110.664 
L 281.664 121.536 
L 268.272 121.536 
L 268.272 110.664 
" clip-path="url(#p3d285d780c)" style="fill: #ffffff; stroke: #808080; stroke-width: 0.1"/>
    <path d="M 281.664 110.664 
L 295.056 110.664 
L 295.056 121.536 
L 281.664 121.536 
L 281.664 110.664 
" clip-path="url(#p3d285d780c)" style="fill: #ffffff; stroke: #808080; stroke-width: 0.1"/>
    <path d="M 295.056 110.664 
L 308.448 110.664 
L 308.448 121.536 
L 295.056 121.536 
L 295.056 110.664 
" clip-path="url(#p3d285d780c)" style="fill: #ff00ff; stroke: #808080; stroke-width: 0.1"/>
    <path d="M 308.448 110.664 
L 321.84 110.664 
L 321.84 121.536 
L 308.448 121.536 
L 308.448 110.664 
" clip-path="url(#p3d285d780c)" style="fill: #ffffff; stroke: #808080; stroke-width: 0.1"/>
    <path d="M 54 121.536 
L 67.392 121.536 
L 67.392 132.408 
L 54 132.408 
L 54 121.536 
" clip-path="url(#p3d285d780c)" style="fill: #ff00ff; stroke: #808080; stroke-width: 0.1"/>
    <path d="M 67.392 121.536 
L 80.784 121.536 
L 80.784 132.408 
L 67.392 132.408 
L 67.392 121.536 
" clip-path="url(#p3d285d780c)" style="fill: #ffffff; stroke: #808080; stroke-width: 0.1"/>
    <path d="M 80.784 121.536 
L 94.176 121.536 
L 94.176 132.408 
L 80.784 132.408 
L 80.784 121.536 
" clip-path="url(#p3d285d780c)" style="fill: #ffffff; stroke: #808080; stroke-width: 0.1"/>
    <path d="M 94.176 121.536 
L 107.568 121.536 
L 107.568 132.408 
L 94.176 132.408 
L 94.176 121.536 
" clip-path="url(#p3d285d780c)" style="fill: #ffffff; stroke: #808080; stroke-width: 0.1"/>
    <path d="M 107.568 121.536 
L 120.96 121.536 
L 120.96 132.408 
L 107.568 132.408 
L 107.568 121.536 
" clip-path="url(#p3d285d780c)" style="fill: #ffffff; stroke: #808080; stroke-width: 0.1"/>
    <path d="M 120.96 121.536 
L 134.352 121.536 
L 134.352 132.408 
L 120.96 132.408 
L 120.96 121.536 
" clip-path="url(#p3d285d780c)" style="fill: #ffffff; stroke: #808080; stroke-width: 0.1"/>
    <path d="M 134.352 121.536 
L 147.744 121.536 
L 147.744 132.408 
L 134.352 132.408 
L 134.352 121.536 
" clip-path="url(#p3d285d780c)" style="fill: #87ceeb; stroke: #808080; stroke-width: 0.1"/>
    <path d="M 147.744 121.536 
L 161.136 121.536 
L 161.136 132.408 
L 147.744 132.408 
L 147.744 121.536 
" clip-path="url(#p3d285d780c)" style="fill: #ffffff; stroke: #808080; stroke-width: 0.1"/>
    <path d="M 161.136 121.536 
L 174.528 121.536 
L 174.528 132.408 
L 161.136 132.408 
L 161.136 121.536 
" clip-path="url(#p3d285d780c)" style="fill: #ffffff; stroke: #808080; stroke-width: 0.1"/>
    <path d="M 174.528 121.536 
L 187.92 121.536 
L 187.92 132.408 
L 174.528 132.408 
L 174.528 121.536 
" clip-path="url(#p3d285d780c)" style="fill: #ffffff; stroke: #808080; stroke-width: 0.1"/>
    <path d="M 187.92 121.536 
L 201.312 121.536 
L 201.312 132.408 
L 187.92 132.408 
L 187.92 121.536 
" clip-path="url(#p3d285d780c)" style="fill: #ffffff; stroke: #808080; stroke-width: 0.1"/>
    <path d="M 201.312 121.536 
L 214.704 121.536 
L 214.704 132.408 
L 201.312 132.408 
L 201.312 121.536 
" clip-path="url(#p3d285d780c)" style="fill: #ffffff; stroke: #808080; stroke-width: 0.1"/>
    <path d="M 214.704 121.536 
L 228.096 121.536 
L 228.096 132.408 
L 214.704 132.408 
L 214.704 121.536 
" clip-path="url(#p3d285d780c)" style="fill: #ffffff; stroke: #808080; stroke-width: 0.1"/>
    <path d="M 228.096 121.536 
L 241.488 121.536 
L 241.488 132.408 
L 228.096 132.408 
L 228.096 121.536 
" clip-path="url(#p3d285d780c)" style="fill: #ffffff; stroke: #808080; stroke-width: 0.1"/>
    <path d="M 241.488 121.536 
L 254.88 121.536 
L 254.88 132.408 
L 241.488 132.408 
L 241.488 121.536 
" clip-path="url(#p3d285d780c)" style="fill: #ffffff; stroke: #808080; stroke-width: 0.1"/>
    <path d="M 254.88 121.536 
L 268.272 121.536 
L 268.272 132.408 
L 254.88 132.408 
L 254.88 121.536 
" clip-path="url(#p3d285d780c)" style="fill: #ffffff; stroke: #808080; stroke-width: 0.1"/>
    <path d="M 268.272 121.536 
L 281.664 121.536 
L 281.664 132.408 
L 268.272 132.408 
L 268.272 121.536 
" clip-path="url(#p3d285d780c)" style="fill: #87ceeb; stroke: #808080; stroke-width: 0.1"/>
    <path d="M 281.664 121.536 
L 295.056 121.536 
L 295.056 132.408 
L 281.664 132.408 
L 281.664 121.536 
" clip-path="url(#p3d285d780c)" style="fill: #87ceeb; stroke: #808080; stroke-width: 0.1"/>
    <path d="M 295.056 121.536 
L 308.448 121.536 
L 308.448 132.408 
L 295.056 132.408 
L 295.056 121.536 
" clip-path="url(#p3d285d780c)" style="fill: #ffffff; stroke: #808080; stroke-width: 0.1"/>
    <path d="M 308.448 121.536 
L 321.84 121.536 
L 321.84 132.408 
L 308.448 132.408 
L 308.448 121.536 
" clip-path="url(#p3d285d780c)" style="fill: #ffffff; stroke: #808080; stroke-width: 0.1"/>
    <path d="M 54 132.408 
L 67.392 132.408 
L 67.392 143.28 
L 54 143.28 
L 54 132.408 
" clip-path="url(#p3d285d780c)" style="fill: #ffffff; stroke: #808080; stroke-width: 0.1"/>
    <path d="M 67.392 132.408 
L 80.784 132.408 
L 80.784 143.28 
L 67.392 143.28 
L 67.392 132.408 
" clip-path="url(#p3d285d780c)" style="fill: #ffffff; stroke: #808080; stroke-width: 0.1"/>
    <path d="M 80.784 132.408 
L 94.176 132.408 
L 94.176 143.28 
L 80.784 143.28 
L 80.784 132.408 
" clip-path="url(#p3d285d780c)" style="fill: #ffc0cb; stroke: #808080; stroke-width: 0.1"/>
    <path d="M 94.176 132.408 
L 107.568 132.408 
L 107.568 143.28 
L 94.176 143.28 
L 94.176 132.408 
" clip-path="url(#p3d285d780c)" style="fill: #ffffff; stroke: #808080; stroke-width: 0.1"/>
    <path d="M 107.568 132.408 
L 120.96 132.408 
L 120.96 143.28 
L 107.568 143.28 
L 107.568 132.408 
" clip-path="url(#p3d285d780c)" style="fill: #ffffff; stroke: #808080; stroke-width: 0.1"/>
    <path d="M 120.96 132.408 
L 134.352 132.408 
L 134.352 143.28 
L 120.96 143.28 
L 120.96 132.408 
" clip-path="url(#p3d285d780c)" style="fill: #ffffff; stroke: #808080; stroke-width: 0.1"/>
    <path d="M 134.352 132.408 
L 147.744 132.408 
L 147.744 143.28 
L 134.352 143.28 
L 134.352 132.408 
" clip-path="url(#p3d285d780c)" style="fill: #ffffff; stroke: #808080; stroke-width: 0.1"/>
    <path d="M 147.744 132.408 
L 161.136 132.408 
L 161.136 143.28 
L 147.744 143.28 
L 147.744 132.408 
" clip-path="url(#p3d285d780c)" style="fill: #ffffff; stroke: #808080; stroke-width: 0.1"/>
    <path d="M 161.136 132.408 
L 174.528 132.408 
L 174.528 143.28 
L 161.136 143.28 
L 161.136 132.408 
" clip-path="url(#p3d285d780c)" style="fill: #ffffff; stroke: #808080; stroke-width: 0.1"/>
    <path d="M 174.528 132.408 
L 187.92 132.408 
L 187.92 143.28 
L 174.528 143.28 
L 174.528 132.408 
" clip-path="url(#p3d285d780c)" style="fill: #ffffff; stroke: #808080; stroke-width: 0.1"/>
    <path d="M 187.92 132.408 
L 201.312 132.408 
L 201.312 143.28 
L 187.92 143.28 
L 187.92 132.408 
" clip-path="url(#p3d285d780c)" style="fill: #ffffff; stroke: #808080; stroke-width: 0.1"/>
    <path d="M 201.312 132.408 
L 214.704 132.408 
L 214.704 143.28 
L 201.312 143.28 
L 201.312 132.408 
" clip-path="url(#p3d285d780c)" style="fill: #87ceeb; stroke: #808080; stroke-width: 0.1"/>
    <path d="M 214.704 132.408 
L 228.096 132.408 
L 228.096 143.28 
L 214.704 143.28 
L 214.704 132.408 
" clip-path="url(#p3d285d780c)" style="fill: #ffffff; stroke: #808080; stroke-width: 0.1"/>
    <path d="M 228.096 132.408 
L 241.488 132.408 
L 241.488 143.28 
L 228.096 143.28 
L 228.096 132.408 
" clip-path="url(#p3d285d780c)" style="fill: #ffc0cb; stroke: #808080; stroke-width: 0.1"/>
    <path d="M 241.488 132.408 
L 254.88 132.408 
L 254.88 143.28 
L 241.488 143.28 
L 241.488 132.408 
" clip-path="url(#p3d285d780c)" style="fill: #ffffff; stroke: #808080; stroke-width: 0.1"/>
    <path d="M 254.88 132.408 
L 268.272 132.408 
L 268.272 143.28 
L 254.88 143.28 
L 254.88 132.408 
" clip-path="url(#p3d285d780c)" style="fill: #87ceeb; stroke: #808080; stroke-width: 0.1"/>
    <path d="M 268.272 132.408 
L 281.664 132.408 
L 281.664 143.28 
L 268.272 143.28 
L 268.272 132.408 
" clip-path="url(#p3d285d780c)" style="fill: #87ceeb; stroke: #808080; stroke-width: 0.1"/>
    <path d="M 281.664 132.408 
L 295.056 132.408 
L 295.056 143.28 
L 281.664 143.28 
L 281.664 132.408 
" clip-path="url(#p3d285d780c)" style="fill: #ffffff; stroke: #808080; stroke-width: 0.1"/>
    <path d="M 295.056 132.408 
L 308.448 132.408 
L 308.448 143.28 
L 295.056 143.28 
L 295.056 132.408 
" clip-path="url(#p3d285d780c)" style="fill: #ffffff; stroke: #808080; stroke-width: 0.1"/>
    <path d="M 308.448 132.408 
L 321.84 132.408 
L 321.84 143.28 
L 308.448 143.28 
L 308.448 132.408 
" clip-path="url(#p3d285d780c)" style="fill: #ffc0cb; stroke: #808080; stroke-width: 0.1"/>
    <path d="M 54 143.28 
L 67.392 143.28 
L 67.392 154.152 
L 54 154.152 
L 54 143.28 
" clip-path="url(#p3d285d780c)" style="fill: #ffffff; stroke: #808080; stroke-width: 0.1"/>
    <path d="M 67.392 143.28 
L 80.784 143.28 
L 80.784 154.152 
L 67.392 154.152 
L 67.392 143.28 
" clip-path="url(#p3d285d780c)" style="fill: #ffffff; stroke: #808080; stroke-width: 0.1"/>
    <path d="M 80.784 143.28 
L 94.176 143.28 
L 94.176 154.152 
L 80.784 154.152 
L 80.784 143.28 
" clip-path="url(#p3d285d780c)" style="fill: #ffc0cb; stroke: #808080; stroke-width: 0.1"/>
    <path d="M 94.176 143.28 
L 107.568 143.28 
L 107.568 154.152 
L 94.176 154.152 
L 94.176 143.28 
" clip-path="url(#p3d285d780c)" style="fill: #87ceeb; stroke: #808080; stroke-width: 0.1"/>
    <path d="M 107.568 143.28 
L 120.96 143.28 
L 120.96 154.152 
L 107.568 154.152 
L 107.568 143.28 
" clip-path="url(#p3d285d780c)" style="fill: #ffffff; stroke: #808080; stroke-width: 0.1"/>
    <path d="M 120.96 143.28 
L 134.352 143.28 
L 134.352 154.152 
L 120.96 154.152 
L 120.96 143.28 
" clip-path="url(#p3d285d780c)" style="fill: #ffc0cb; stroke: #808080; stroke-width: 0.1"/>
    <path d="M 134.352 143.28 
L 147.744 143.28 
L 147.744 154.152 
L 134.352 154.152 
L 134.352 143.28 
" clip-path="url(#p3d285d780c)" style="fill: #ffffff; stroke: #808080; stroke-width: 0.1"/>
    <path d="M 147.744 143.28 
L 161.136 143.28 
L 161.136 154.152 
L 147.744 154.152 
L 147.744 143.28 
" clip-path="url(#p3d285d780c)" style="fill: #ffffff; stroke: #808080; stroke-width: 0.1"/>
    <path d="M 161.136 143.28 
L 174.528 143.28 
L 174.528 154.152 
L 161.136 154.152 
L 161.136 143.28 
" clip-path="url(#p3d285d780c)" style="fill: #ffffff; stroke: #808080; stroke-width: 0.1"/>
    <path d="M 174.528 143.28 
L 187.92 143.28 
L 187.92 154.152 
L 174.528 154.152 
L 174.528 143.28 
" clip-path="url(#p3d285d780c)" style="fill: #87ceeb; stroke: #808080; stroke-width: 0.1"/>
    <path d="M 187.92 143.28 
L 201.312 143.28 
L 201.312 154.152 
L 187.92 154.152 
L 187.92 143.28 
" clip-path="url(#p3d285d780c)" style="fill: #ffffff; stroke: #808080; stroke-width: 0.1"/>
    <path d="M 201.312 143.28 
L 214.704 143.28 
L 214.704 154.152 
L 201.312 154.152 
L 201.312 143.28 
" clip-path="url(#p3d285d780c)" style="fill: #ffffff; stroke: #808080; stroke-width: 0.1"/>
    <path d="M 214.704 143.28 
L 228.096 143.28 
L 228.096 154.152 
L 214.704 154.152 
L 214.704 143.28 
" clip-path="url(#p3d285d780c)" style="fill: #ffffff; stroke: #808080; stroke-width: 0.1"/>
    <path d="M 228.096 143.28 
L 241.488 143.28 
L 241.488 154.152 
L 228.096 154.152 
L 228.096 143.28 
" clip-path="url(#p3d285d780c)" style="fill: #ffffff; stroke: #808080; stroke-width: 0.1"/>
    <path d="M 241.488 143.28 
L 254.88 143.28 
L 254.88 154.152 
L 241.488 154.152 
L 241.488 143.28 
" clip-path="url(#p3d285d780c)" style="fill: #ffffff; stroke: #808080; stroke-width: 0.1"/>
    <path d="M 254.88 143.28 
L 268.272 143.28 
L 268.272 154.152 
L 254.88 154.152 
L 254.88 143.28 
" clip-path="url(#p3d285d780c)" style="fill: #87ceeb; stroke: #808080; stroke-width: 0.1"/>
    <path d="M 268.272 143.28 
L 281.664 143.28 
L 281.664 154.152 
L 268.272 154.152 
L 268.272 143.28 
" clip-path="url(#p3d285d780c)" style="fill: #ffc0cb; stroke: #808080; stroke-width: 0.1"/>
    <path d="M 281.664 143.28 
L 295.056 143.28 
L 295.056 154.152 
L 281.664 154.152 
L 281.664 143.28 
" clip-path="url(#p3d285d780c)" style="fill: #ffffff; stroke: #808080; stroke-width: 0.1"/>
    <path d="M 295.056 143.28 
L 308.448 143.28 
L 308.448 154.152 
L 295.056 154.152 
L 295.056 143.28 
" clip-path="url(#p3d285d780c)" style="fill: #ffc0cb; stroke: #808080; stroke-width: 0.1"/>
    <path d="M 308.448 143.28 
L 321.84 143.28 
L 321.84 154.152 
L 308.448 154.152 
L 308.448 143.28 
" clip-path="url(#p3d285d780c)" style="fill: #ffffff; stroke: #808080; stroke-width: 0.1"/>
    <path d="M 54 154.152 
L 67.392 154.152 
L 67.392 165.024 
L 54 165.024 
L 54 154.152 
" clip-path="url(#p3d285d780c)" style="fill: #ffffff; stroke: #808080; stroke-width: 0.1"/>
    <path d="M 67.392 154.152 
L 80.784 154.152 
L 80.784 165.024 
L 67.392 165.024 
L 67.392 154.152 
" clip-path="url(#p3d285d780c)" style="fill: #ffffff; stroke: #808080; stroke-width: 0.1"/>
    <path d="M 80.784 154.152 
L 94.176 154.152 
L 94.176 165.024 
L 80.784 165.024 
L 80.784 154.152 
" clip-path="url(#p3d285d780c)" style="fill: #ffffff; stroke: #808080; stroke-width: 0.1"/>
    <path d="M 94.176 154.152 
L 107.568 154.152 
L 107.568 165.024 
L 94.176 165.024 
L 94.176 154.152 
" clip-path="url(#p3d285d780c)" style="fill: #ffffff; stroke: #808080; stroke-width: 0.1"/>
    <path d="M 107.568 154.152 
L 120.96 154.152 
L 120.96 165.024 
L 107.568 165.024 
L 107.568 154.152 
" clip-path="url(#p3d285d780c)" style="fill: #ffffff; stroke: #808080; stroke-width: 0.1"/>
    <path d="M 120.96 154.152 
L 134.352 154.152 
L 134.352 165.024 
L 120.96 165.024 
L 120.96 154.152 
" clip-path="url(#p3d285d780c)" style="fill: #ffffff; stroke: #808080; stroke-width: 0.1"/>
    <path d="M 134.352 154.152 
L 147.744 154.152 
L 147.744 165.024 
L 134.352 165.024 
L 134.352 154.152 
" clip-path="url(#p3d285d780c)" style="fill: #ffffff; stroke: #808080; stroke-width: 0.1"/>
    <path d="M 147.744 154.152 
L 161.136 154.152 
L 161.136 165.024 
L 147.744 165.024 
L 147.744 154.152 
" clip-path="url(#p3d285d780c)" style="fill: #ffffff; stroke: #808080; stroke-width: 0.1"/>
    <path d="M 161.136 154.152 
L 174.528 154.152 
L 174.528 165.024 
L 161.136 165.024 
L 161.136 154.152 
" clip-path="url(#p3d285d780c)" style="fill: #ffc0cb; stroke: #808080; stroke-width: 0.1"/>
    <path d="M 174.528 154.152 
L 187.92 154.152 
L 187.92 165.024 
L 174.528 165.024 
L 174.528 154.152 
" clip-path="url(#p3d285d780c)" style="fill: #ffffff; stroke: #808080; stroke-width: 0.1"/>
    <path d="M 187.92 154.152 
L 201.312 154.152 
L 201.312 165.024 
L 187.92 165.024 
L 187.92 154.152 
" clip-path="url(#p3d285d780c)" style="fill: #ffffff; stroke: #808080; stroke-width: 0.1"/>
    <path d="M 201.312 154.152 
L 214.704 154.152 
L 214.704 165.024 
L 201.312 165.024 
L 201.312 154.152 
" clip-path="url(#p3d285d780c)" style="fill: #ffffff; stroke: #808080; stroke-width: 0.1"/>
    <path d="M 214.704 154.152 
L 228.096 154.152 
L 228.096 165.024 
L 214.704 165.024 
L 214.704 154.152 
" clip-path="url(#p3d285d780c)" style="fill: #ffffff; stroke: #808080; stroke-width: 0.1"/>
    <path d="M 228.096 154.152 
L 241.488 154.152 
L 241.488 165.024 
L 228.096 165.024 
L 228.096 154.152 
" clip-path="url(#p3d285d780c)" style="fill: #ffffff; stroke: #808080; stroke-width: 0.1"/>
    <path d="M 241.488 154.152 
L 254.88 154.152 
L 254.88 165.024 
L 241.488 165.024 
L 241.488 154.152 
" clip-path="url(#p3d285d780c)" style="fill: #ffffff; stroke: #808080; stroke-width: 0.1"/>
    <path d="M 254.88 154.152 
L 268.272 154.152 
L 268.272 165.024 
L 254.88 165.024 
L 254.88 154.152 
" clip-path="url(#p3d285d780c)" style="fill: #ffffff; stroke: #808080; stroke-width: 0.1"/>
    <path d="M 268.272 154.152 
L 281.664 154.152 
L 281.664 165.024 
L 268.272 165.024 
L 268.272 154.152 
" clip-path="url(#p3d285d780c)" style="fill: #ffffff; stroke: #808080; stroke-width: 0.1"/>
    <path d="M 281.664 154.152 
L 295.056 154.152 
L 295.056 165.024 
L 281.664 165.024 
L 281.664 154.152 
" clip-path="url(#p3d285d780c)" style="fill: #ffc0cb; stroke: #808080; stroke-width: 0.1"/>
    <path d="M 295.056 154.152 
L 308.448 154.152 
L 308.448 165.024 
L 295.056 165.024 
L 295.056 154.152 
" clip-path="url(#p3d285d780c)" style="fill: #ffffff; stroke: #808080; stroke-width: 0.1"/>
    <path d="M 308.448 154.152 
L 321.84 154.152 
L 321.84 165.024 
L 308.448 165.024 
L 308.448 154.152 
" clip-path="url(#p3d285d780c)" style="fill: #ffc0cb; stroke: #808080; stroke-width: 0.1"/>
    <path d="M 54 165.024 
L 67.392 165.024 
L 67.392 175.896 
L 54 175.896 
L 54 165.024 
" clip-path="url(#p3d285d780c)" style="fill: #87ceeb; stroke: #808080; stroke-width: 0.1"/>
    <path d="M 67.392 165.024 
L 80.784 165.024 
L 80.784 175.896 
L 67.392 175.896 
L 67.392 165.024 
" clip-path="url(#p3d285d780c)" style="fill: #ffffff; stroke: #808080; stroke-width: 0.1"/>
    <path d="M 80.784 165.024 
L 94.176 165.024 
L 94.176 175.896 
L 80.784 175.896 
L 80.784 165.024 
" clip-path="url(#p3d285d780c)" style="fill: #87ceeb; stroke: #808080; stroke-width: 0.1"/>
    <path d="M 94.176 165.024 
L 107.568 165.024 
L 107.568 175.896 
L 94.176 175.896 
L 94.176 165.024 
" clip-path="url(#p3d285d780c)" style="fill: #ffffff; stroke: #808080; stroke-width: 0.1"/>
    <path d="M 107.568 165.024 
L 120.96 165.024 
L 120.96 175.896 
L 107.568 175.896 
L 107.568 165.024 
" clip-path="url(#p3d285d780c)" style="fill: #ffffff; stroke: #808080; stroke-width: 0.1"/>
    <path d="M 120.96 165.024 
L 134.352 165.024 
L 134.352 175.896 
L 120.96 175.896 
L 120.96 165.024 
" clip-path="url(#p3d285d780c)" style="fill: #ffffff; stroke: #808080; stroke-width: 0.1"/>
    <path d="M 134.352 165.024 
L 147.744 165.024 
L 147.744 175.896 
L 134.352 175.896 
L 134.352 165.024 
" clip-path="url(#p3d285d780c)" style="fill: #ffffff; stroke: #808080; stroke-width: 0.1"/>
    <path d="M 147.744 165.024 
L 161.136 165.024 
L 161.136 175.896 
L 147.744 175.896 
L 147.744 165.024 
" clip-path="url(#p3d285d780c)" style="fill: #ffc0cb; stroke: #808080; stroke-width: 0.1"/>
    <path d="M 161.136 165.024 
L 174.528 165.024 
L 174.528 175.896 
L 161.136 175.896 
L 161.136 165.024 
" clip-path="url(#p3d285d780c)" style="fill: #ffc0cb; stroke: #808080; stroke-width: 0.1"/>
    <path d="M 174.528 165.024 
L 187.92 165.024 
L 187.92 175.896 
L 174.528 175.896 
L 174.528 165.024 
" clip-path="url(#p3d285d780c)" style="fill: #ffc0cb; stroke: #808080; stroke-width: 0.1"/>
    <path d="M 187.92 165.024 
L 201.312 165.024 
L 201.312 175.896 
L 187.92 175.896 
L 187.92 165.024 
" clip-path="url(#p3d285d780c)" style="fill: #ffffff; stroke: #808080; stroke-width: 0.1"/>
    <path d="M 201.312 165.024 
L 214.704 165.024 
L 214.704 175.896 
L 201.312 175.896 
L 201.312 165.024 
" clip-path="url(#p3d285d780c)" style="fill: #ffffff; stroke: #808080; stroke-width: 0.1"/>
    <path d="M 214.704 165.024 
L 228.096 165.024 
L 228.096 175.896 
L 214.704 175.896 
L 214.704 165.024 
" clip-path="url(#p3d285d780c)" style="fill: #ff00ff; stroke: #808080; stroke-width: 0.1"/>
    <path d="M 228.096 165.024 
L 241.488 165.024 
L 241.488 175.896 
L 228.096 175.896 
L 228.096 165.024 
" clip-path="url(#p3d285d780c)" style="fill: #ffffff; stroke: #808080; stroke-width: 0.1"/>
    <path d="M 241.488 165.024 
L 254.88 165.024 
L 254.88 175.896 
L 241.488 175.896 
L 241.488 165.024 
" clip-path="url(#p3d285d780c)" style="fill: #ffffff; stroke: #808080; stroke-width: 0.1"/>
    <path d="M 254.88 165.024 
L 268.272 165.024 
L 268.272 175.896 
L 254.88 175.896 
L 254.88 165.024 
" clip-path="url(#p3d285d780c)" style="fill: #ffc0cb; stroke: #808080; stroke-width: 0.1"/>
    <path d="M 268.272 165.024 
L 281.664 165.024 
L 281.664 175.896 
L 268.272 175.896 
L 268.272 165.024 
" clip-path="url(#p3d285d780c)" style="fill: #ffffff; stroke: #808080; stroke-width: 0.1"/>
    <path d="M 281.664 165.024 
L 295.056 165.024 
L 295.056 175.896 
L 281.664 175.896 
L 281.664 165.024 
" clip-path="url(#p3d285d780c)" style="fill: #87ceeb; stroke: #808080; stroke-width: 0.1"/>
    <path d="M 295.056 165.024 
L 308.448 165.024 
L 308.448 175.896 
L 295.056 175.896 
L 295.056 165.024 
" clip-path="url(#p3d285d780c)" style="fill: #ffffff; stroke: #808080; stroke-width: 0.1"/>
    <path d="M 308.448 165.024 
L 321.84 165.024 
L 321.84 175.896 
L 308.448 175.896 
L 308.448 165.024 
" clip-path="url(#p3d285d780c)" style="fill: #ffc0cb; stroke: #808080; stroke-width: 0.1"/>
    <path d="M 54 175.896 
L 67.392 175.896 
L 67.392 186.768 
L 54 186.768 
L 54 175.896 
" clip-path="url(#p3d285d780c)" style="fill: #ffc0cb; stroke: #808080; stroke-width: 0.1"/>
    <path d="M 67.392 175.896 
L 80.784 175.896 
L 80.784 186.768 
L 67.392 186.768 
L 67.392 175.896 
" clip-path="url(#p3d285d780c)" style="fill: #87ceeb; stroke: #808080; stroke-width: 0.1"/>
    <path d="M 80.784 175.896 
L 94.176 175.896 
L 94.176 186.768 
L 80.784 186.768 
L 80.784 175.896 
" clip-path="url(#p3d285d780c)" style="fill: #ffffff; stroke: #808080; stroke-width: 0.1"/>
    <path d="M 94.176 175.896 
L 107.568 175.896 
L 107.568 186.768 
L 94.176 186.768 
L 94.176 175.896 
" clip-path="url(#p3d285d780c)" style="fill: #ffffff; stroke: #808080; stroke-width: 0.1"/>
    <path d="M 107.568 175.896 
L 120.96 175.896 
L 120.96 186.768 
L 107.568 186.768 
L 107.568 175.896 
" clip-path="url(#p3d285d780c)" style="fill: #ffc0cb; stroke: #808080; stroke-width: 0.1"/>
    <path d="M 120.96 175.896 
L 134.352 175.896 
L 134.352 186.768 
L 120.96 186.768 
L 120.96 175.896 
" clip-path="url(#p3d285d780c)" style="fill: #ffffff; stroke: #808080; stroke-width: 0.1"/>
    <path d="M 134.352 175.896 
L 147.744 175.896 
L 147.744 186.768 
L 134.352 186.768 
L 134.352 175.896 
" clip-path="url(#p3d285d780c)" style="fill: #ffffff; stroke: #808080; stroke-width: 0.1"/>
    <path d="M 147.744 175.896 
L 161.136 175.896 
L 161.136 186.768 
L 147.744 186.768 
L 147.744 175.896 
" clip-path="url(#p3d285d780c)" style="fill: #ffc0cb; stroke: #808080; stroke-width: 0.1"/>
    <path d="M 161.136 175.896 
L 174.528 175.896 
L 174.528 186.768 
L 161.136 186.768 
L 161.136 175.896 
" clip-path="url(#p3d285d780c)" style="fill: #ffffff; stroke: #808080; stroke-width: 0.1"/>
    <path d="M 174.528 175.896 
L 187.92 175.896 
L 187.92 186.768 
L 174.528 186.768 
L 174.528 175.896 
" clip-path="url(#p3d285d780c)" style="fill: #ffffff; stroke: #808080; stroke-width: 0.1"/>
    <path d="M 187.92 175.896 
L 201.312 175.896 
L 201.312 186.768 
L 187.92 186.768 
L 187.92 175.896 
" clip-path="url(#p3d285d780c)" style="fill: #ffffff; stroke: #808080; stroke-width: 0.1"/>
    <path d="M 201.312 175.896 
L 214.704 175.896 
L 214.704 186.768 
L 201.312 186.768 
L 201.312 175.896 
" clip-path="url(#p3d285d780c)" style="fill: #ffc0cb; stroke: #808080; stroke-width: 0.1"/>
    <path d="M 214.704 175.896 
L 228.096 175.896 
L 228.096 186.768 
L 214.704 186.768 
L 214.704 175.896 
" clip-path="url(#p3d285d780c)" style="fill: #ffffff; stroke: #808080; stroke-width: 0.1"/>
    <path d="M 228.096 175.896 
L 241.488 175.896 
L 241.488 186.768 
L 228.096 186.768 
L 228.096 175.896 
" clip-path="url(#p3d285d780c)" style="fill: #ffffff; stroke: #808080; stroke-width: 0.1"/>
    <path d="M 241.488 175.896 
L 254.88 175.896 
L 254.88 186.768 
L 241.488 186.768 
L 241.488 175.896 
" clip-path="url(#p3d285d780c)" style="fill: #00008b; stroke: #808080; stroke-width: 0.1"/>
    <path d="M 254.88 175.896 
L 268.272 175.896 
L 268.272 186.768 
L 254.88 186.768 
L 254.88 175.896 
" clip-path="url(#p3d285d780c)" style="fill: #ffffff; stroke: #808080; stroke-width: 0.1"/>
    <path d="M 268.272 175.896 
L 281.664 175.896 
L 281.664 186.768 
L 268.272 186.768 
L 268.272 175.896 
" clip-path="url(#p3d285d780c)" style="fill: #ffffff; stroke: #808080; stroke-width: 0.1"/>
    <path d="M 281.664 175.896 
L 295.056 175.896 
L 295.056 186.768 
L 281.664 186.768 
L 281.664 175.896 
" clip-path="url(#p3d285d780c)" style="fill: #ffffff; stroke: #808080; stroke-width: 0.1"/>
    <path d="M 295.056 175.896 
L 308.448 175.896 
L 308.448 186.768 
L 295.056 186.768 
L 295.056 175.896 
" clip-path="url(#p3d285d780c)" style="fill: #87ceeb; stroke: #808080; stroke-width: 0.1"/>
    <path d="M 308.448 175.896 
L 321.84 175.896 
L 321.84 186.768 
L 308.448 186.768 
L 308.448 175.896 
" clip-path="url(#p3d285d780c)" style="fill: #ffffff; stroke: #808080; stroke-width: 0.1"/>
    <path d="M 54 186.768 
L 67.392 186.768 
L 67.392 197.64 
L 54 197.64 
L 54 186.768 
" clip-path="url(#p3d285d780c)" style="fill: #ffffff; stroke: #808080; stroke-width: 0.1"/>
    <path d="M 67.392 186.768 
L 80.784 186.768 
L 80.784 197.64 
L 67.392 197.64 
L 67.392 186.768 
" clip-path="url(#p3d285d780c)" style="fill: #ffffff; stroke: #808080; stroke-width: 0.1"/>
    <path d="M 80.784 186.768 
L 94.176 186.768 
L 94.176 197.64 
L 80.784 197.64 
L 80.784 186.768 
" clip-path="url(#p3d285d780c)" style="fill: #87ceeb; stroke: #808080; stroke-width: 0.1"/>
    <path d="M 94.176 186.768 
L 107.568 186.768 
L 107.568 197.64 
L 94.176 197.64 
L 94.176 186.768 
" clip-path="url(#p3d285d780c)" style="fill: #ffffff; stroke: #808080; stroke-width: 0.1"/>
    <path d="M 107.568 186.768 
L 120.96 186.768 
L 120.96 197.64 
L 107.568 197.64 
L 107.568 186.768 
" clip-path="url(#p3d285d780c)" style="fill: #87ceeb; stroke: #808080; stroke-width: 0.1"/>
    <path d="M 120.96 186.768 
L 134.352 186.768 
L 134.352 197.64 
L 120.96 197.64 
L 120.96 186.768 
" clip-path="url(#p3d285d780c)" style="fill: #ffffff; stroke: #808080; stroke-width: 0.1"/>
    <path d="M 134.352 186.768 
L 147.744 186.768 
L 147.744 197.64 
L 134.352 197.64 
L 134.352 186.768 
" clip-path="url(#p3d285d780c)" style="fill: #ffffff; stroke: #808080; stroke-width: 0.1"/>
    <path d="M 147.744 186.768 
L 161.136 186.768 
L 161.136 197.64 
L 147.744 197.64 
L 147.744 186.768 
" clip-path="url(#p3d285d780c)" style="fill: #87ceeb; stroke: #808080; stroke-width: 0.1"/>
    <path d="M 161.136 186.768 
L 174.528 186.768 
L 174.528 197.64 
L 161.136 197.64 
L 161.136 186.768 
" clip-path="url(#p3d285d780c)" style="fill: #ffffff; stroke: #808080; stroke-width: 0.1"/>
    <path d="M 174.528 186.768 
L 187.92 186.768 
L 187.92 197.64 
L 174.528 197.64 
L 174.528 186.768 
" clip-path="url(#p3d285d780c)" style="fill: #ffffff; stroke: #808080; stroke-width: 0.1"/>
    <path d="M 187.92 186.768 
L 201.312 186.768 
L 201.312 197.64 
L 187.92 197.64 
L 187.92 186.768 
" clip-path="url(#p3d285d780c)" style="fill: #ffffff; stroke: #808080; stroke-width: 0.1"/>
    <path d="M 201.312 186.768 
L 214.704 186.768 
L 214.704 197.64 
L 201.312 197.64 
L 201.312 186.768 
" clip-path="url(#p3d285d780c)" style="fill: #ffc0cb; stroke: #808080; stroke-width: 0.1"/>
    <path d="M 214.704 186.768 
L 228.096 186.768 
L 228.096 197.64 
L 214.704 197.64 
L 214.704 186.768 
" clip-path="url(#p3d285d780c)" style="fill: #87ceeb; stroke: #808080; stroke-width: 0.1"/>
    <path d="M 228.096 186.768 
L 241.488 186.768 
L 241.488 197.64 
L 228.096 197.64 
L 228.096 186.768 
" clip-path="url(#p3d285d780c)" style="fill: #87ceeb; stroke: #808080; stroke-width: 0.1"/>
    <path d="M 241.488 186.768 
L 254.88 186.768 
L 254.88 197.64 
L 241.488 197.64 
L 241.488 186.768 
" clip-path="url(#p3d285d780c)" style="fill: #ffffff; stroke: #808080; stroke-width: 0.1"/>
    <path d="M 254.88 186.768 
L 268.272 186.768 
L 268.272 197.64 
L 254.88 197.64 
L 254.88 186.768 
" clip-path="url(#p3d285d780c)" style="fill: #ffffff; stroke: #808080; stroke-width: 0.1"/>
    <path d="M 268.272 186.768 
L 281.664 186.768 
L 281.664 197.64 
L 268.272 197.64 
L 268.272 186.768 
" clip-path="url(#p3d285d780c)" style="fill: #ffc0cb; stroke: #808080; stroke-width: 0.1"/>
    <path d="M 281.664 186.768 
L 295.056 186.768 
L 295.056 197.64 
L 281.664 197.64 
L 281.664 186.768 
" clip-path="url(#p3d285d780c)" style="fill: #ffffff; stroke: #808080; stroke-width: 0.1"/>
    <path d="M 295.056 186.768 
L 308.448 186.768 
L 308.448 197.64 
L 295.056 197.64 
L 295.056 186.768 
" clip-path="url(#p3d285d780c)" style="fill: #87ceeb; stroke: #808080; stroke-width: 0.1"/>
    <path d="M 308.448 186.768 
L 321.84 186.768 
L 321.84 197.64 
L 308.448 197.64 
L 308.448 186.768 
" clip-path="url(#p3d285d780c)" style="fill: #ffffff; stroke: #808080; stroke-width: 0.1"/>
    <path d="M 54 197.64 
L 67.392 197.64 
L 67.392 208.512 
L 54 208.512 
L 54 197.64 
" clip-path="url(#p3d285d780c)" style="fill: #ffffff; stroke: #808080; stroke-width: 0.1"/>
    <path d="M 67.392 197.64 
L 80.784 197.64 
L 80.784 208.512 
L 67.392 208.512 
L 67.392 197.64 
" clip-path="url(#p3d285d780c)" style="fill: #87ceeb; stroke: #808080; stroke-width: 0.1"/>
    <path d="M 80.784 197.64 
L 94.176 197.64 
L 94.176 208.512 
L 80.784 208.512 
L 80.784 197.64 
" clip-path="url(#p3d285d780c)" style="fill: #ffffff; stroke: #808080; stroke-width: 0.1"/>
    <path d="M 94.176 197.64 
L 107.568 197.64 
L 107.568 208.512 
L 94.176 208.512 
L 94.176 197.64 
" clip-path="url(#p3d285d780c)" style="fill: #ffffff; stroke: #808080; stroke-width: 0.1"/>
    <path d="M 107.568 197.64 
L 120.96 197.64 
L 120.96 208.512 
L 107.568 208.512 
L 107.568 197.64 
" clip-path="url(#p3d285d780c)" style="fill: #ffffff; stroke: #808080; stroke-width: 0.1"/>
    <path d="M 120.96 197.64 
L 134.352 197.64 
L 134.352 208.512 
L 120.96 208.512 
L 120.96 197.64 
" clip-path="url(#p3d285d780c)" style="fill: #ffffff; stroke: #808080; stroke-width: 0.1"/>
    <path d="M 134.352 197.64 
L 147.744 197.64 
L 147.744 208.512 
L 134.352 208.512 
L 134.352 197.64 
" clip-path="url(#p3d285d780c)" style="fill: #ffffff; stroke: #808080; stroke-width: 0.1"/>
    <path d="M 147.744 197.64 
L 161.136 197.64 
L 161.136 208.512 
L 147.744 208.512 
L 147.744 197.64 
" clip-path="url(#p3d285d780c)" style="fill: #00008b; stroke: #808080; stroke-width: 0.1"/>
    <path d="M 161.136 197.64 
L 174.528 197.64 
L 174.528 208.512 
L 161.136 208.512 
L 161.136 197.64 
" clip-path="url(#p3d285d780c)" style="fill: #ffffff; stroke: #808080; stroke-width: 0.1"/>
    <path d="M 174.528 197.64 
L 187.92 197.64 
L 187.92 208.512 
L 174.528 208.512 
L 174.528 197.64 
" clip-path="url(#p3d285d780c)" style="fill: #ffc0cb; stroke: #808080; stroke-width: 0.1"/>
    <path d="M 187.92 197.64 
L 201.312 197.64 
L 201.312 208.512 
L 187.92 208.512 
L 187.92 197.64 
" clip-path="url(#p3d285d780c)" style="fill: #ff00ff; stroke: #808080; stroke-width: 0.1"/>
    <path d="M 201.312 197.64 
L 214.704 197.64 
L 214.704 208.512 
L 201.312 208.512 
L 201.312 197.64 
" clip-path="url(#p3d285d780c)" style="fill: #ffc0cb; stroke: #808080; stroke-width: 0.1"/>
    <path d="M 214.704 197.64 
L 228.096 197.64 
L 228.096 208.512 
L 214.704 208.512 
L 214.704 197.64 
" clip-path="url(#p3d285d780c)" style="fill: #ffffff; stroke: #808080; stroke-width: 0.1"/>
    <path d="M 228.096 197.64 
L 241.488 197.64 
L 241.488 208.512 
L 228.096 208.512 
L 228.096 197.64 
" clip-path="url(#p3d285d780c)" style="fill: #ffc0cb; stroke: #808080; stroke-width: 0.1"/>
    <path d="M 241.488 197.64 
L 254.88 197.64 
L 254.88 208.512 
L 241.488 208.512 
L 241.488 197.64 
" clip-path="url(#p3d285d780c)" style="fill: #ff00ff; stroke: #808080; stroke-width: 0.1"/>
    <path d="M 254.88 197.64 
L 268.272 197.64 
L 268.272 208.512 
L 254.88 208.512 
L 254.88 197.64 
" clip-path="url(#p3d285d780c)" style="fill: #ffc0cb; stroke: #808080; stroke-width: 0.1"/>
    <path d="M 268.272 197.64 
L 281.664 197.64 
L 281.664 208.512 
L 268.272 208.512 
L 268.272 197.64 
" clip-path="url(#p3d285d780c)" style="fill: #87ceeb; stroke: #808080; stroke-width: 0.1"/>
    <path d="M 281.664 197.64 
L 295.056 197.64 
L 295.056 208.512 
L 281.664 208.512 
L 281.664 197.64 
" clip-path="url(#p3d285d780c)" style="fill: #ffffff; stroke: #808080; stroke-width: 0.1"/>
    <path d="M 295.056 197.64 
L 308.448 197.64 
L 308.448 208.512 
L 295.056 208.512 
L 295.056 197.64 
" clip-path="url(#p3d285d780c)" style="fill: #ffffff; stroke: #808080; stroke-width: 0.1"/>
    <path d="M 308.448 197.64 
L 321.84 197.64 
L 321.84 208.512 
L 308.448 208.512 
L 308.448 197.64 
" clip-path="url(#p3d285d780c)" style="fill: #ffffff; stroke: #808080; stroke-width: 0.1"/>
    <path d="M 54 208.512 
L 67.392 208.512 
L 67.392 219.384 
L 54 219.384 
L 54 208.512 
" clip-path="url(#p3d285d780c)" style="fill: #87ceeb; stroke: #808080; stroke-width: 0.1"/>
    <path d="M 67.392 208.512 
L 80.784 208.512 
L 80.784 219.384 
L 67.392 219.384 
L 67.392 208.512 
" clip-path="url(#p3d285d780c)" style="fill: #ffffff; stroke: #808080; stroke-width: 0.1"/>
    <path d="M 80.784 208.512 
L 94.176 208.512 
L 94.176 219.384 
L 80.784 219.384 
L 80.784 208.512 
" clip-path="url(#p3d285d780c)" style="fill: #ffffff; stroke: #808080; stroke-width: 0.1"/>
    <path d="M 94.176 208.512 
L 107.568 208.512 
L 107.568 219.384 
L 94.176 219.384 
L 94.176 208.512 
" clip-path="url(#p3d285d780c)" style="fill: #ffffff; stroke: #808080; stroke-width: 0.1"/>
    <path d="M 107.568 208.512 
L 120.96 208.512 
L 120.96 219.384 
L 107.568 219.384 
L 107.568 208.512 
" clip-path="url(#p3d285d780c)" style="fill: #87ceeb; stroke: #808080; stroke-width: 0.1"/>
    <path d="M 120.96 208.512 
L 134.352 208.512 
L 134.352 219.384 
L 120.96 219.384 
L 120.96 208.512 
" clip-path="url(#p3d285d780c)" style="fill: #ffffff; stroke: #808080; stroke-width: 0.1"/>
    <path d="M 134.352 208.512 
L 147.744 208.512 
L 147.744 219.384 
L 134.352 219.384 
L 134.352 208.512 
" clip-path="url(#p3d285d780c)" style="fill: #ffffff; stroke: #808080; stroke-width: 0.1"/>
    <path d="M 147.744 208.512 
L 161.136 208.512 
L 161.136 219.384 
L 147.744 219.384 
L 147.744 208.512 
" clip-path="url(#p3d285d780c)" style="fill: #ffffff; stroke: #808080; stroke-width: 0.1"/>
    <path d="M 161.136 208.512 
L 174.528 208.512 
L 174.528 219.384 
L 161.136 219.384 
L 161.136 208.512 
" clip-path="url(#p3d285d780c)" style="fill: #ffffff; stroke: #808080; stroke-width: 0.1"/>
    <path d="M 174.528 208.512 
L 187.92 208.512 
L 187.92 219.384 
L 174.528 219.384 
L 174.528 208.512 
" clip-path="url(#p3d285d780c)" style="fill: #ffffff; stroke: #808080; stroke-width: 0.1"/>
    <path d="M 187.92 208.512 
L 201.312 208.512 
L 201.312 219.384 
L 187.92 219.384 
L 187.92 208.512 
" clip-path="url(#p3d285d780c)" style="fill: #ffc0cb; stroke: #808080; stroke-width: 0.1"/>
    <path d="M 201.312 208.512 
L 214.704 208.512 
L 214.704 219.384 
L 201.312 219.384 
L 201.312 208.512 
" clip-path="url(#p3d285d780c)" style="fill: #ffffff; stroke: #808080; stroke-width: 0.1"/>
    <path d="M 214.704 208.512 
L 228.096 208.512 
L 228.096 219.384 
L 214.704 219.384 
L 214.704 208.512 
" clip-path="url(#p3d285d780c)" style="fill: #ffffff; stroke: #808080; stroke-width: 0.1"/>
    <path d="M 228.096 208.512 
L 241.488 208.512 
L 241.488 219.384 
L 228.096 219.384 
L 228.096 208.512 
" clip-path="url(#p3d285d780c)" style="fill: #ffffff; stroke: #808080; stroke-width: 0.1"/>
    <path d="M 241.488 208.512 
L 254.88 208.512 
L 254.88 219.384 
L 241.488 219.384 
L 241.488 208.512 
" clip-path="url(#p3d285d780c)" style="fill: #ffc0cb; stroke: #808080; stroke-width: 0.1"/>
    <path d="M 254.88 208.512 
L 268.272 208.512 
L 268.272 219.384 
L 254.88 219.384 
L 254.88 208.512 
" clip-path="url(#p3d285d780c)" style="fill: #ffffff; stroke: #808080; stroke-width: 0.1"/>
    <path d="M 268.272 208.512 
L 281.664 208.512 
L 281.664 219.384 
L 268.272 219.384 
L 268.272 208.512 
" clip-path="url(#p3d285d780c)" style="fill: #ffffff; stroke: #808080; stroke-width: 0.1"/>
    <path d="M 281.664 208.512 
L 295.056 208.512 
L 295.056 219.384 
L 281.664 219.384 
L 281.664 208.512 
" clip-path="url(#p3d285d780c)" style="fill: #ffffff; stroke: #808080; stroke-width: 0.1"/>
    <path d="M 295.056 208.512 
L 308.448 208.512 
L 308.448 219.384 
L 295.056 219.384 
L 295.056 208.512 
" clip-path="url(#p3d285d780c)" style="fill: #ffc0cb; stroke: #808080; stroke-width: 0.1"/>
    <path d="M 308.448 208.512 
L 321.84 208.512 
L 321.84 219.384 
L 308.448 219.384 
L 308.448 208.512 
" clip-path="url(#p3d285d780c)" style="fill: #87ceeb; stroke: #808080; stroke-width: 0.1"/>
    <path d="M 54 219.384 
L 67.392 219.384 
L 67.392 230.256 
L 54 230.256 
L 54 219.384 
" clip-path="url(#p3d285d780c)" style="fill: #ffffff; stroke: #808080; stroke-width: 0.1"/>
    <path d="M 67.392 219.384 
L 80.784 219.384 
L 80.784 230.256 
L 67.392 230.256 
L 67.392 219.384 
" clip-path="url(#p3d285d780c)" style="fill: #ffffff; stroke: #808080; stroke-width: 0.1"/>
    <path d="M 80.784 219.384 
L 94.176 219.384 
L 94.176 230.256 
L 80.784 230.256 
L 80.784 219.384 
" clip-path="url(#p3d285d780c)" style="fill: #ffffff; stroke: #808080; stroke-width: 0.1"/>
    <path d="M 94.176 219.384 
L 107.568 219.384 
L 107.568 230.256 
L 94.176 230.256 
L 94.176 219.384 
" clip-path="url(#p3d285d780c)" style="fill: #ffffff; stroke: #808080; stroke-width: 0.1"/>
    <path d="M 107.568 219.384 
L 120.96 219.384 
L 120.96 230.256 
L 107.568 230.256 
L 107.568 219.384 
" clip-path="url(#p3d285d780c)" style="fill: #ffffff; stroke: #808080; stroke-width: 0.1"/>
    <path d="M 120.96 219.384 
L 134.352 219.384 
L 134.352 230.256 
L 120.96 230.256 
L 120.96 219.384 
" clip-path="url(#p3d285d780c)" style="fill: #ffffff; stroke: #808080; stroke-width: 0.1"/>
    <path d="M 134.352 219.384 
L 147.744 219.384 
L 147.744 230.256 
L 134.352 230.256 
L 134.352 219.384 
" clip-path="url(#p3d285d780c)" style="fill: #ffffff; stroke: #808080; stroke-width: 0.1"/>
    <path d="M 147.744 219.384 
L 161.136 219.384 
L 161.136 230.256 
L 147.744 230.256 
L 147.744 219.384 
" clip-path="url(#p3d285d780c)" style="fill: #ffffff; stroke: #808080; stroke-width: 0.1"/>
    <path d="M 161.136 219.384 
L 174.528 219.384 
L 174.528 230.256 
L 161.136 230.256 
L 161.136 219.384 
" clip-path="url(#p3d285d780c)" style="fill: #ffffff; stroke: #808080; stroke-width: 0.1"/>
    <path d="M 174.528 219.384 
L 187.92 219.384 
L 187.92 230.256 
L 174.528 230.256 
L 174.528 219.384 
" clip-path="url(#p3d285d780c)" style="fill: #ffc0cb; stroke: #808080; stroke-width: 0.1"/>
    <path d="M 187.92 219.384 
L 201.312 219.384 
L 201.312 230.256 
L 187.92 230.256 
L 187.92 219.384 
" clip-path="url(#p3d285d780c)" style="fill: #ffffff; stroke: #808080; stroke-width: 0.1"/>
    <path d="M 201.312 219.384 
L 214.704 219.384 
L 214.704 230.256 
L 201.312 230.256 
L 201.312 219.384 
" clip-path="url(#p3d285d780c)" style="fill: #ffffff; stroke: #808080; stroke-width: 0.1"/>
    <path d="M 214.704 219.384 
L 228.096 219.384 
L 228.096 230.256 
L 214.704 230.256 
L 214.704 219.384 
" clip-path="url(#p3d285d780c)" style="fill: #ffffff; stroke: #808080; stroke-width: 0.1"/>
    <path d="M 228.096 219.384 
L 241.488 219.384 
L 241.488 230.256 
L 228.096 230.256 
L 228.096 219.384 
" clip-path="url(#p3d285d780c)" style="fill: #ffffff; stroke: #808080; stroke-width: 0.1"/>
    <path d="M 241.488 219.384 
L 254.88 219.384 
L 254.88 230.256 
L 241.488 230.256 
L 241.488 219.384 
" clip-path="url(#p3d285d780c)" style="fill: #ffffff; stroke: #808080; stroke-width: 0.1"/>
    <path d="M 254.88 219.384 
L 268.272 219.384 
L 268.272 230.256 
L 254.88 230.256 
L 254.88 219.384 
" clip-path="url(#p3d285d780c)" style="fill: #ffc0cb; stroke: #808080; stroke-width: 0.1"/>
    <path d="M 268.272 219.384 
L 281.664 219.384 
L 281.664 230.256 
L 268.272 230.256 
L 268.272 219.384 
" clip-path="url(#p3d285d780c)" style="fill: #ffffff; stroke: #808080; stroke-width: 0.1"/>
    <path d="M 281.664 219.384 
L 295.056 219.384 
L 295.056 230.256 
L 281.664 230.256 
L 281.664 219.384 
" clip-path="url(#p3d285d780c)" style="fill: #87ceeb; stroke: #808080; stroke-width: 0.1"/>
    <path d="M 295.056 219.384 
L 308.448 219.384 
L 308.448 230.256 
L 295.056 230.256 
L 295.056 219.384 
" clip-path="url(#p3d285d780c)" style="fill: #ffc0cb; stroke: #808080; stroke-width: 0.1"/>
    <path d="M 308.448 219.384 
L 321.84 219.384 
L 321.84 230.256 
L 308.448 230.256 
L 308.448 219.384 
" clip-path="url(#p3d285d780c)" style="fill: #ffc0cb; stroke: #808080; stroke-width: 0.1"/>
    <path d="M 54 230.256 
L 67.392 230.256 
L 67.392 241.128 
L 54 241.128 
L 54 230.256 
" clip-path="url(#p3d285d780c)" style="fill: #ffffff; stroke: #808080; stroke-width: 0.1"/>
    <path d="M 67.392 230.256 
L 80.784 230.256 
L 80.784 241.128 
L 67.392 241.128 
L 67.392 230.256 
" clip-path="url(#p3d285d780c)" style="fill: #87ceeb; stroke: #808080; stroke-width: 0.1"/>
    <path d="M 80.784 230.256 
L 94.176 230.256 
L 94.176 241.128 
L 80.784 241.128 
L 80.784 230.256 
" clip-path="url(#p3d285d780c)" style="fill: #ffffff; stroke: #808080; stroke-width: 0.1"/>
    <path d="M 94.176 230.256 
L 107.568 230.256 
L 107.568 241.128 
L 94.176 241.128 
L 94.176 230.256 
" clip-path="url(#p3d285d780c)" style="fill: #ffffff; stroke: #808080; stroke-width: 0.1"/>
    <path d="M 107.568 230.256 
L 120.96 230.256 
L 120.96 241.128 
L 107.568 241.128 
L 107.568 230.256 
" clip-path="url(#p3d285d780c)" style="fill: #87ceeb; stroke: #808080; stroke-width: 0.1"/>
    <path d="M 120.96 230.256 
L 134.352 230.256 
L 134.352 241.128 
L 120.96 241.128 
L 120.96 230.256 
" clip-path="url(#p3d285d780c)" style="fill: #ffc0cb; stroke: #808080; stroke-width: 0.1"/>
    <path d="M 134.352 230.256 
L 147.744 230.256 
L 147.744 241.128 
L 134.352 241.128 
L 134.352 230.256 
" clip-path="url(#p3d285d780c)" style="fill: #ffffff; stroke: #808080; stroke-width: 0.1"/>
    <path d="M 147.744 230.256 
L 161.136 230.256 
L 161.136 241.128 
L 147.744 241.128 
L 147.744 230.256 
" clip-path="url(#p3d285d780c)" style="fill: #ffffff; stroke: #808080; stroke-width: 0.1"/>
    <path d="M 161.136 230.256 
L 174.528 230.256 
L 174.528 241.128 
L 161.136 241.128 
L 161.136 230.256 
" clip-path="url(#p3d285d780c)" style="fill: #ffffff; stroke: #808080; stroke-width: 0.1"/>
    <path d="M 174.528 230.256 
L 187.92 230.256 
L 187.92 241.128 
L 174.528 241.128 
L 174.528 230.256 
" clip-path="url(#p3d285d780c)" style="fill: #ffffff; stroke: #808080; stroke-width: 0.1"/>
    <path d="M 187.92 230.256 
L 201.312 230.256 
L 201.312 241.128 
L 187.92 241.128 
L 187.92 230.256 
" clip-path="url(#p3d285d780c)" style="fill: #87ceeb; stroke: #808080; stroke-width: 0.1"/>
    <path d="M 201.312 230.256 
L 214.704 230.256 
L 214.704 241.128 
L 201.312 241.128 
L 201.312 230.256 
" clip-path="url(#p3d285d780c)" style="fill: #ffffff; stroke: #808080; stroke-width: 0.1"/>
    <path d="M 214.704 230.256 
L 228.096 230.256 
L 228.096 241.128 
L 214.704 241.128 
L 214.704 230.256 
" clip-path="url(#p3d285d780c)" style="fill: #ff00ff; stroke: #808080; stroke-width: 0.1"/>
    <path d="M 228.096 230.256 
L 241.488 230.256 
L 241.488 241.128 
L 228.096 241.128 
L 228.096 230.256 
" clip-path="url(#p3d285d780c)" style="fill: #ffffff; stroke: #808080; stroke-width: 0.1"/>
    <path d="M 241.488 230.256 
L 254.88 230.256 
L 254.88 241.128 
L 241.488 241.128 
L 241.488 230.256 
" clip-path="url(#p3d285d780c)" style="fill: #ffffff; stroke: #808080; stroke-width: 0.1"/>
    <path d="M 254.88 230.256 
L 268.272 230.256 
L 268.272 241.128 
L 254.88 241.128 
L 254.88 230.256 
" clip-path="url(#p3d285d780c)" style="fill: #ffffff; stroke: #808080; stroke-width: 0.1"/>
    <path d="M 268.272 230.256 
L 281.664 230.256 
L 281.664 241.128 
L 268.272 241.128 
L 268.272 230.256 
" clip-path="url(#p3d285d780c)" style="fill: #ffffff; stroke: #808080; stroke-width: 0.1"/>
    <path d="M 281.664 230.256 
L 295.056 230.256 
L 295.056 241.128 
L 281.664 241.128 
L 281.664 230.256 
" clip-path="url(#p3d285d780c)" style="fill: #ffffff; stroke: #808080; stroke-width: 0.1"/>
    <path d="M 295.056 230.256 
L 308.448 230.256 
L 308.448 241.128 
L 295.056 241.128 
L 295.056 230.256 
" clip-path="url(#p3d285d780c)" style="fill: #ffffff; stroke: #808080; stroke-width: 0.1"/>
    <path d="M 308.448 230.256 
L 321.84 230.256 
L 321.84 241.128 
L 308.448 241.128 
L 308.448 230.256 
" clip-path="url(#p3d285d780c)" style="fill: #87ceeb; stroke: #808080; stroke-width: 0.1"/>
    <path d="M 54 241.128 
L 67.392 241.128 
L 67.392 252 
L 54 252 
L 54 241.128 
" clip-path="url(#p3d285d780c)" style="fill: #ffffff; stroke: #808080; stroke-width: 0.1"/>
    <path d="M 67.392 241.128 
L 80.784 241.128 
L 80.784 252 
L 67.392 252 
L 67.392 241.128 
" clip-path="url(#p3d285d780c)" style="fill: #ffffff; stroke: #808080; stroke-width: 0.1"/>
    <path d="M 80.784 241.128 
L 94.176 241.128 
L 94.176 252 
L 80.784 252 
L 80.784 241.128 
" clip-path="url(#p3d285d780c)" style="fill: #ffffff; stroke: #808080; stroke-width: 0.1"/>
    <path d="M 94.176 241.128 
L 107.568 241.128 
L 107.568 252 
L 94.176 252 
L 94.176 241.128 
" clip-path="url(#p3d285d780c)" style="fill: #ffffff; stroke: #808080; stroke-width: 0.1"/>
    <path d="M 107.568 241.128 
L 120.96 241.128 
L 120.96 252 
L 107.568 252 
L 107.568 241.128 
" clip-path="url(#p3d285d780c)" style="fill: #ffffff; stroke: #808080; stroke-width: 0.1"/>
    <path d="M 120.96 241.128 
L 134.352 241.128 
L 134.352 252 
L 120.96 252 
L 120.96 241.128 
" clip-path="url(#p3d285d780c)" style="fill: #ffffff; stroke: #808080; stroke-width: 0.1"/>
    <path d="M 134.352 241.128 
L 147.744 241.128 
L 147.744 252 
L 134.352 252 
L 134.352 241.128 
" clip-path="url(#p3d285d780c)" style="fill: #ffffff; stroke: #808080; stroke-width: 0.1"/>
    <path d="M 147.744 241.128 
L 161.136 241.128 
L 161.136 252 
L 147.744 252 
L 147.744 241.128 
" clip-path="url(#p3d285d780c)" style="fill: #ffc0cb; stroke: #808080; stroke-width: 0.1"/>
    <path d="M 161.136 241.128 
L 174.528 241.128 
L 174.528 252 
L 161.136 252 
L 161.136 241.128 
" clip-path="url(#p3d285d780c)" style="fill: #ffffff; stroke: #808080; stroke-width: 0.1"/>
    <path d="M 174.528 241.128 
L 187.92 241.128 
L 187.92 252 
L 174.528 252 
L 174.528 241.128 
" clip-path="url(#p3d285d780c)" style="fill: #ffffff; stroke: #808080; stroke-width: 0.1"/>
    <path d="M 187.92 241.128 
L 201.312 241.128 
L 201.312 252 
L 187.92 252 
L 187.92 241.128 
" clip-path="url(#p3d285d780c)" style="fill: #ffffff; stroke: #808080; stroke-width: 0.1"/>
    <path d="M 201.312 241.128 
L 214.704 241.128 
L 214.704 252 
L 201.312 252 
L 201.312 241.128 
" clip-path="url(#p3d285d780c)" style="fill: #ffffff; stroke: #808080; stroke-width: 0.1"/>
    <path d="M 214.704 241.128 
L 228.096 241.128 
L 228.096 252 
L 214.704 252 
L 214.704 241.128 
" clip-path="url(#p3d285d780c)" style="fill: #ffffff; stroke: #808080; stroke-width: 0.1"/>
    <path d="M 228.096 241.128 
L 241.488 241.128 
L 241.488 252 
L 228.096 252 
L 228.096 241.128 
" clip-path="url(#p3d285d780c)" style="fill: #ffc0cb; stroke: #808080; stroke-width: 0.1"/>
    <path d="M 241.488 241.128 
L 254.88 241.128 
L 254.88 252 
L 241.488 252 
L 241.488 241.128 
" clip-path="url(#p3d285d780c)" style="fill: #ffffff; stroke: #808080; stroke-width: 0.1"/>
    <path d="M 254.88 241.128 
L 268.272 241.128 
L 268.272 252 
L 254.88 252 
L 254.88 241.128 
" clip-path="url(#p3d285d780c)" style="fill: #ffffff; stroke: #808080; stroke-width: 0.1"/>
    <path d="M 268.272 241.128 
L 281.664 241.128 
L 281.664 252 
L 268.272 252 
L 268.272 241.128 
" clip-path="url(#p3d285d780c)" style="fill: #87ceeb; stroke: #808080; stroke-width: 0.1"/>
    <path d="M 281.664 241.128 
L 295.056 241.128 
L 295.056 252 
L 281.664 252 
L 281.664 241.128 
" clip-path="url(#p3d285d780c)" style="fill: #87ceeb; stroke: #808080; stroke-width: 0.1"/>
    <path d="M 295.056 241.128 
L 308.448 241.128 
L 308.448 252 
L 295.056 252 
L 295.056 241.128 
" clip-path="url(#p3d285d780c)" style="fill: #ffffff; stroke: #808080; stroke-width: 0.1"/>
    <path d="M 308.448 241.128 
L 321.84 241.128 
L 321.84 252 
L 308.448 252 
L 308.448 241.128 
" clip-path="url(#p3d285d780c)" style="fill: #ffffff; stroke: #808080; stroke-width: 0.1"/>
   </g>
   <g id="matplotlib.axis_1"/>
   <g id="matplotlib.axis_2"/>
  </g>
  <g id="axes_2">
   <g id="patch_3">
    <path d="M 338.58 252 
L 349.452 252 
L 349.452 34.56 
L 338.58 34.56 
z
" style="fill: #ffffff"/>
   </g>
   <g id="patch_4">
    <path clip-path="url(#p8a6630e828)" style="fill: #ffffff; stroke: #ffffff; stroke-width: 0.01; stroke-linejoin: miter"/>
   </g>
   <g id="QuadMesh_2">
    <path d="M 338.58 252 
L 349.452 252 
L 349.452 215.76 
L 338.58 215.76 
L 338.58 252 
" clip-path="url(#p8a6630e828)" style="fill: #00008b"/>
    <path d="M 338.58 215.76 
L 349.452 215.76 
L 349.452 179.52 
L 338.58 179.52 
L 338.58 215.76 
" clip-path="url(#p8a6630e828)" style="fill: #87ceeb"/>
    <path d="M 338.58 179.52 
L 349.452 179.52 
L 349.452 143.28 
L 338.58 143.28 
L 338.58 179.52 
" clip-path="url(#p8a6630e828)" style="fill: #ffffff"/>
    <path d="M 338.58 143.28 
L 349.452 143.28 
L 349.452 107.04 
L 338.58 107.04 
L 338.58 143.28 
" clip-path="url(#p8a6630e828)" style="fill: #ffffff"/>
    <path d="M 338.58 107.04 
L 349.452 107.04 
L 349.452 70.8 
L 338.58 70.8 
L 338.58 107.04 
" clip-path="url(#p8a6630e828)" style="fill: #ffc0cb"/>
    <path d="M 338.58 70.8 
L 349.452 70.8 
L 349.452 34.56 
L 338.58 34.56 
L 338.58 70.8 
" clip-path="url(#p8a6630e828)" style="fill: #ff00ff"/>
   </g>
   <g id="matplotlib.axis_3">
    <g id="ytick_1">
     <g id="line2d_1">
      <defs>
       <path id="m92030c9492" d="M 0 0 
L 3.5 0 
" style="stroke: #000000; stroke-width: 0.8"/>
      </defs>
      <g>
       <use xlink:href="#m92030c9492" x="349.452" y="252" style="stroke: #000000; stroke-width: 0.8"/>
      </g>
     </g>
     <g id="text_1">
      <!-- 3 -->
      <g transform="translate(356.452 255.471875)scale(0.1 -0.1)">
       <defs>
        <path id="TimesNewRomanPSMT-2212" d="M 3484 2000 
L 116 2000 
L 116 2256 
L 3484 2256 
L 3484 2000 
z
" transform="scale(0.015625)"/>
        <path id="TimesNewRomanPSMT-33" d="M 325 3431 
Q 506 3859 782 4092 
Q 1059 4325 1472 4325 
Q 1981 4325 2253 3994 
Q 2459 3747 2459 3466 
Q 2459 3003 1878 2509 
Q 2269 2356 2469 2072 
Q 2669 1788 2669 1403 
Q 2669 853 2319 450 
Q 1863 -75 997 -75 
Q 569 -75 414 31 
Q 259 138 259 259 
Q 259 350 332 419 
Q 406 488 509 488 
Q 588 488 669 463 
Q 722 447 909 348 
Q 1097 250 1169 231 
Q 1284 197 1416 197 
Q 1734 197 1970 444 
Q 2206 691 2206 1028 
Q 2206 1275 2097 1509 
Q 2016 1684 1919 1775 
Q 1784 1900 1550 2001 
Q 1316 2103 1072 2103 
L 972 2103 
L 972 2197 
Q 1219 2228 1467 2375 
Q 1716 2522 1828 2728 
Q 1941 2934 1941 3181 
Q 1941 3503 1739 3701 
Q 1538 3900 1238 3900 
Q 753 3900 428 3381 
L 325 3431 
z
" transform="scale(0.015625)"/>
       </defs>
       <use xlink:href="#TimesNewRomanPSMT-2212"/>
       <use xlink:href="#TimesNewRomanPSMT-33" x="56.396484"/>
      </g>
     </g>
    </g>
    <g id="ytick_2">
     <g id="line2d_2">
      <g>
       <use xlink:href="#m92030c9492" x="349.452" y="215.76" style="stroke: #000000; stroke-width: 0.8"/>
      </g>
     </g>
     <g id="text_2">
      <!-- 2 -->
      <g transform="translate(356.452 219.231875)scale(0.1 -0.1)">
       <defs>
        <path id="TimesNewRomanPSMT-32" d="M 2934 816 
L 2638 0 
L 138 0 
L 138 116 
Q 1241 1122 1691 1759 
Q 2141 2397 2141 2925 
Q 2141 3328 1894 3587 
Q 1647 3847 1303 3847 
Q 991 3847 742 3664 
Q 494 3481 375 3128 
L 259 3128 
Q 338 3706 661 4015 
Q 984 4325 1469 4325 
Q 1984 4325 2329 3994 
Q 2675 3663 2675 3213 
Q 2675 2891 2525 2569 
Q 2294 2063 1775 1497 
Q 997 647 803 472 
L 1909 472 
Q 2247 472 2383 497 
Q 2519 522 2628 598 
Q 2738 675 2819 816 
L 2934 816 
z
" transform="scale(0.015625)"/>
       </defs>
       <use xlink:href="#TimesNewRomanPSMT-2212"/>
       <use xlink:href="#TimesNewRomanPSMT-32" x="56.396484"/>
      </g>
     </g>
    </g>
    <g id="ytick_3">
     <g id="line2d_3">
      <g>
       <use xlink:href="#m92030c9492" x="349.452" y="179.52" style="stroke: #000000; stroke-width: 0.8"/>
      </g>
     </g>
     <g id="text_3">
      <!-- 1 -->
      <g transform="translate(356.452 182.991875)scale(0.1 -0.1)">
       <defs>
        <path id="TimesNewRomanPSMT-31" d="M 750 3822 
L 1781 4325 
L 1884 4325 
L 1884 747 
Q 1884 391 1914 303 
Q 1944 216 2037 169 
Q 2131 122 2419 116 
L 2419 0 
L 825 0 
L 825 116 
Q 1125 122 1212 167 
Q 1300 213 1334 289 
Q 1369 366 1369 747 
L 1369 3034 
Q 1369 3497 1338 3628 
Q 1316 3728 1258 3775 
Q 1200 3822 1119 3822 
Q 1003 3822 797 3725 
L 750 3822 
z
" transform="scale(0.015625)"/>
       </defs>
       <use xlink:href="#TimesNewRomanPSMT-2212"/>
       <use xlink:href="#TimesNewRomanPSMT-31" x="56.396484"/>
      </g>
     </g>
    </g>
    <g id="ytick_4">
     <g id="line2d_4">
      <g>
       <use xlink:href="#m92030c9492" x="349.452" y="143.28" style="stroke: #000000; stroke-width: 0.8"/>
      </g>
     </g>
     <g id="text_4">
      <!-- 0 -->
      <g transform="translate(356.452 146.751875)scale(0.1 -0.1)">
       <defs>
        <path id="TimesNewRomanPSMT-30" d="M 231 2094 
Q 231 2819 450 3342 
Q 669 3866 1031 4122 
Q 1313 4325 1613 4325 
Q 2100 4325 2488 3828 
Q 2972 3213 2972 2159 
Q 2972 1422 2759 906 
Q 2547 391 2217 158 
Q 1888 -75 1581 -75 
Q 975 -75 572 641 
Q 231 1244 231 2094 
z
M 844 2016 
Q 844 1141 1059 588 
Q 1238 122 1591 122 
Q 1759 122 1940 273 
Q 2122 425 2216 781 
Q 2359 1319 2359 2297 
Q 2359 3022 2209 3506 
Q 2097 3866 1919 4016 
Q 1791 4119 1609 4119 
Q 1397 4119 1231 3928 
Q 1006 3669 925 3112 
Q 844 2556 844 2016 
z
" transform="scale(0.015625)"/>
       </defs>
       <use xlink:href="#TimesNewRomanPSMT-30"/>
      </g>
     </g>
    </g>
    <g id="ytick_5">
     <g id="line2d_5">
      <g>
       <use xlink:href="#m92030c9492" x="349.452" y="107.04" style="stroke: #000000; stroke-width: 0.8"/>
      </g>
     </g>
     <g id="text_5">
      <!-- 1 -->
      <g transform="translate(356.452 110.511875)scale(0.1 -0.1)">
       <use xlink:href="#TimesNewRomanPSMT-31"/>
      </g>
     </g>
    </g>
    <g id="ytick_6">
     <g id="line2d_6">
      <g>
       <use xlink:href="#m92030c9492" x="349.452" y="70.8" style="stroke: #000000; stroke-width: 0.8"/>
      </g>
     </g>
     <g id="text_6">
      <!-- 2 -->
      <g transform="translate(356.452 74.271875)scale(0.1 -0.1)">
       <use xlink:href="#TimesNewRomanPSMT-32"/>
      </g>
     </g>
    </g>
    <g id="ytick_7">
     <g id="line2d_7">
      <g>
       <use xlink:href="#m92030c9492" x="349.452" y="34.56" style="stroke: #000000; stroke-width: 0.8"/>
      </g>
     </g>
     <g id="text_7">
      <!-- 3 -->
      <g transform="translate(356.452 38.031875)scale(0.1 -0.1)">
       <use xlink:href="#TimesNewRomanPSMT-33"/>
      </g>
     </g>
    </g>
   </g>
   <g id="LineCollection_1"/>
   <g id="patch_5">
    <path d="M 338.58 252 
L 344.016 252 
L 349.452 252 
L 349.452 34.56 
L 344.016 34.56 
L 338.58 34.56 
L 338.58 252 
z
" style="fill: none"/>
   </g>
  </g>
 </g>
 <defs>
  <clipPath id="p3d285d780c">
   <rect x="54" y="34.56" width="267.84" height="217.44"/>
  </clipPath>
  <clipPath id="p8a6630e828">
   <rect x="338.58" y="34.56" width="10.872" height="217.44"/>
  </clipPath>
 </defs>
</svg>
