<?xml version="1.0" encoding="utf-8" standalone="no"?>
<!DOCTYPE svg PUBLIC "-//W3C//DTD SVG 1.1//EN"
  "http://www.w3.org/Graphics/SVG/1.1/DTD/svg11.dtd">
<svg xmlns:xlink="http://www.w3.org/1999/xlink" width="360pt" height="216pt" viewBox="0 0 360 216" xmlns="http://www.w3.org/2000/svg" version="1.1">
 <metadata>
  <rdf:RDF xmlns:dc="http://purl.org/dc/elements/1.1/" xmlns:cc="http://creativecommons.org/ns#" xmlns:rdf="http://www.w3.org/1999/02/22-rdf-syntax-ns#">
   <cc:Work>
    <dc:type rdf:resource="http://purl.org/dc/dcmitype/StillImage"/>
    <dc:date>2024-07-19T22:30:29.341825</dc:date>
    <dc:format>image/svg+xml</dc:format>
    <dc:creator>
     <cc:Agent>
      <dc:title>Matplotlib v3.5.2, https://matplotlib.org/</dc:title>
     </cc:Agent>
    </dc:creator>
   </cc:Work>
  </rdf:RDF>
 </metadata>
 <defs>
  <style type="text/css">*{stroke-linejoin: round; stroke-linecap: butt}</style>
 </defs>
 <g id="figure_1">
  <g id="patch_1">
   <path d="M 0 216 
L 360 216 
L 360 0 
L 0 0 
z
" style="fill: #ffffff"/>
  </g>
  <g id="axes_1">
   <g id="patch_2">
    <path d="M 45 189 
L 324 189 
L 324 25.92 
L 45 25.92 
z
" style="fill: #ffffff"/>
   </g>
   <g id="matplotlib.axis_1">
    <g id="xtick_1">
     <g id="line2d_1">
      <path d="M 45 189 
L 45 25.92 
" clip-path="url(#p881a2a0004)" style="fill: none; stroke: #000000; stroke-width: 0.5; stroke-linecap: square"/>
     </g>
     <g id="line2d_2">
      <defs>
       <path id="m30133073f1" d="M 0 0 
L 0 3.5 
" style="stroke: #000000; stroke-width: 0.8"/>
      </defs>
      <g>
       <use xlink:href="#m30133073f1" x="45" y="189" style="stroke: #000000; stroke-width: 0.8"/>
      </g>
     </g>
     <g id="text_1">
      <!-- −0.1 -->
      <g transform="translate(35.930469 202.94375)scale(0.1 -0.1)">
       <defs>
        <path id="TimesNewRomanPSMT-2212" d="M 3484 2000 
L 116 2000 
L 116 2256 
L 3484 2256 
L 3484 2000 
z
" transform="scale(0.015625)"/>
        <path id="TimesNewRomanPSMT-30" d="M 231 2094 
Q 231 2819 450 3342 
Q 669 3866 1031 4122 
Q 1313 4325 1613 4325 
Q 2100 4325 2488 3828 
Q 2972 3213 2972 2159 
Q 2972 1422 2759 906 
Q 2547 391 2217 158 
Q 1888 -75 1581 -75 
Q 975 -75 572 641 
Q 231 1244 231 2094 
z
M 844 2016 
Q 844 1141 1059 588 
Q 1238 122 1591 122 
Q 1759 122 1940 273 
Q 2122 425 2216 781 
Q 2359 1319 2359 2297 
Q 2359 3022 2209 3506 
Q 2097 3866 1919 4016 
Q 1791 4119 1609 4119 
Q 1397 4119 1231 3928 
Q 1006 3669 925 3112 
Q 844 2556 844 2016 
z
" transform="scale(0.015625)"/>
        <path id="TimesNewRomanPSMT-2e" d="M 800 606 
Q 947 606 1047 504 
Q 1147 403 1147 259 
Q 1147 116 1045 14 
Q 944 -88 800 -88 
Q 656 -88 554 14 
Q 453 116 453 259 
Q 453 406 554 506 
Q 656 606 800 606 
z
" transform="scale(0.015625)"/>
        <path id="TimesNewRomanPSMT-31" d="M 750 3822 
L 1781 4325 
L 1884 4325 
L 1884 747 
Q 1884 391 1914 303 
Q 1944 216 2037 169 
Q 2131 122 2419 116 
L 2419 0 
L 825 0 
L 825 116 
Q 1125 122 1212 167 
Q 1300 213 1334 289 
Q 1369 366 1369 747 
L 1369 3034 
Q 1369 3497 1338 3628 
Q 1316 3728 1258 3775 
Q 1200 3822 1119 3822 
Q 1003 3822 797 3725 
L 750 3822 
z
" transform="scale(0.015625)"/>
       </defs>
       <use xlink:href="#TimesNewRomanPSMT-2212"/>
       <use xlink:href="#TimesNewRomanPSMT-30" x="56.396484"/>
       <use xlink:href="#TimesNewRomanPSMT-2e" x="106.396484"/>
       <use xlink:href="#TimesNewRomanPSMT-31" x="131.396484"/>
      </g>
     </g>
    </g>
    <g id="xtick_2">
     <g id="line2d_3">
      <path d="M 184.5 189 
L 184.5 25.92 
" clip-path="url(#p881a2a0004)" style="fill: none; stroke: #000000; stroke-width: 0.5; stroke-linecap: square"/>
     </g>
     <g id="line2d_4">
      <g>
       <use xlink:href="#m30133073f1" x="184.5" y="189" style="stroke: #000000; stroke-width: 0.8"/>
      </g>
     </g>
     <g id="text_2">
      <!-- 0.0 -->
      <g transform="translate(178.25 202.94375)scale(0.1 -0.1)">
       <use xlink:href="#TimesNewRomanPSMT-30"/>
       <use xlink:href="#TimesNewRomanPSMT-2e" x="50"/>
       <use xlink:href="#TimesNewRomanPSMT-30" x="75"/>
      </g>
     </g>
    </g>
    <g id="xtick_3">
     <g id="line2d_5">
      <path d="M 324 189 
L 324 25.92 
" clip-path="url(#p881a2a0004)" style="fill: none; stroke: #000000; stroke-width: 0.5; stroke-linecap: square"/>
     </g>
     <g id="line2d_6">
      <g>
       <use xlink:href="#m30133073f1" x="324" y="189" style="stroke: #000000; stroke-width: 0.8"/>
      </g>
     </g>
     <g id="text_3">
      <!-- 0.1 -->
      <g transform="translate(317.75 202.94375)scale(0.1 -0.1)">
       <use xlink:href="#TimesNewRomanPSMT-30"/>
       <use xlink:href="#TimesNewRomanPSMT-2e" x="50"/>
       <use xlink:href="#TimesNewRomanPSMT-31" x="75"/>
      </g>
     </g>
    </g>
    <g id="text_4">
     <!-- x -->
     <g transform="translate(182 216.026563)scale(0.1 -0.1)">
      <defs>
       <path id="TimesNewRomanPSMT-78" d="M 84 2863 
L 1431 2863 
L 1431 2747 
Q 1303 2747 1251 2703 
Q 1200 2659 1200 2588 
Q 1200 2513 1309 2356 
Q 1344 2306 1413 2200 
L 1616 1875 
L 1850 2200 
Q 2075 2509 2075 2591 
Q 2075 2656 2022 2701 
Q 1969 2747 1850 2747 
L 1850 2863 
L 2819 2863 
L 2819 2747 
Q 2666 2738 2553 2663 
Q 2400 2556 2134 2200 
L 1744 1678 
L 2456 653 
Q 2719 275 2831 198 
Q 2944 122 3122 113 
L 3122 0 
L 1772 0 
L 1772 113 
Q 1913 113 1991 175 
Q 2050 219 2050 291 
Q 2050 363 1850 653 
L 1431 1266 
L 972 653 
Q 759 369 759 316 
Q 759 241 829 180 
Q 900 119 1041 113 
L 1041 0 
L 106 0 
L 106 113 
Q 219 128 303 191 
Q 422 281 703 653 
L 1303 1450 
L 759 2238 
Q 528 2575 401 2661 
Q 275 2747 84 2747 
L 84 2863 
z
" transform="scale(0.015625)"/>
      </defs>
      <use xlink:href="#TimesNewRomanPSMT-78"/>
     </g>
    </g>
   </g>
   <g id="matplotlib.axis_2">
    <g id="ytick_1">
     <g id="line2d_7">
      <path d="M 45 175.41 
L 324 175.41 
" clip-path="url(#p881a2a0004)" style="fill: none; stroke: #000000; stroke-width: 0.5; stroke-linecap: square"/>
     </g>
     <g id="line2d_8">
      <defs>
       <path id="mb39abfe3e2" d="M 0 0 
L -3.5 0 
" style="stroke: #000000; stroke-width: 0.8"/>
      </defs>
      <g>
       <use xlink:href="#mb39abfe3e2" x="45" y="175.41" style="stroke: #000000; stroke-width: 0.8"/>
      </g>
     </g>
     <g id="text_5">
      <!-- −1.0 -->
      <g transform="translate(19.860937 178.881875)scale(0.1 -0.1)">
       <use xlink:href="#TimesNewRomanPSMT-2212"/>
       <use xlink:href="#TimesNewRomanPSMT-31" x="56.396484"/>
       <use xlink:href="#TimesNewRomanPSMT-2e" x="106.396484"/>
       <use xlink:href="#TimesNewRomanPSMT-30" x="131.396484"/>
      </g>
     </g>
    </g>
    <g id="ytick_2">
     <g id="line2d_9">
      <path d="M 45 141.435 
L 324 141.435 
" clip-path="url(#p881a2a0004)" style="fill: none; stroke: #000000; stroke-width: 0.5; stroke-linecap: square"/>
     </g>
     <g id="line2d_10">
      <g>
       <use xlink:href="#mb39abfe3e2" x="45" y="141.435" style="stroke: #000000; stroke-width: 0.8"/>
      </g>
     </g>
     <g id="text_6">
      <!-- −0.5 -->
      <g transform="translate(19.860937 144.906875)scale(0.1 -0.1)">
       <defs>
        <path id="TimesNewRomanPSMT-35" d="M 2778 4238 
L 2534 3706 
L 1259 3706 
L 981 3138 
Q 1809 3016 2294 2522 
Q 2709 2097 2709 1522 
Q 2709 1188 2573 903 
Q 2438 619 2231 419 
Q 2025 219 1772 97 
Q 1413 -75 1034 -75 
Q 653 -75 479 54 
Q 306 184 306 341 
Q 306 428 378 495 
Q 450 563 559 563 
Q 641 563 702 538 
Q 763 513 909 409 
Q 1144 247 1384 247 
Q 1750 247 2026 523 
Q 2303 800 2303 1197 
Q 2303 1581 2056 1914 
Q 1809 2247 1375 2428 
Q 1034 2569 447 2591 
L 1259 4238 
L 2778 4238 
z
" transform="scale(0.015625)"/>
       </defs>
       <use xlink:href="#TimesNewRomanPSMT-2212"/>
       <use xlink:href="#TimesNewRomanPSMT-30" x="56.396484"/>
       <use xlink:href="#TimesNewRomanPSMT-2e" x="106.396484"/>
       <use xlink:href="#TimesNewRomanPSMT-35" x="131.396484"/>
      </g>
     </g>
    </g>
    <g id="ytick_3">
     <g id="line2d_11">
      <path d="M 45 107.46 
L 324 107.46 
" clip-path="url(#p881a2a0004)" style="fill: none; stroke: #000000; stroke-width: 0.5; stroke-linecap: square"/>
     </g>
     <g id="line2d_12">
      <g>
       <use xlink:href="#mb39abfe3e2" x="45" y="107.46" style="stroke: #000000; stroke-width: 0.8"/>
      </g>
     </g>
     <g id="text_7">
      <!-- 0.0 -->
      <g transform="translate(25.5 110.931875)scale(0.1 -0.1)">
       <use xlink:href="#TimesNewRomanPSMT-30"/>
       <use xlink:href="#TimesNewRomanPSMT-2e" x="50"/>
       <use xlink:href="#TimesNewRomanPSMT-30" x="75"/>
      </g>
     </g>
    </g>
    <g id="ytick_4">
     <g id="line2d_13">
      <path d="M 45 73.485 
L 324 73.485 
" clip-path="url(#p881a2a0004)" style="fill: none; stroke: #000000; stroke-width: 0.5; stroke-linecap: square"/>
     </g>
     <g id="line2d_14">
      <g>
       <use xlink:href="#mb39abfe3e2" x="45" y="73.485" style="stroke: #000000; stroke-width: 0.8"/>
      </g>
     </g>
     <g id="text_8">
      <!-- 0.5 -->
      <g transform="translate(25.5 76.956875)scale(0.1 -0.1)">
       <use xlink:href="#TimesNewRomanPSMT-30"/>
       <use xlink:href="#TimesNewRomanPSMT-2e" x="50"/>
       <use xlink:href="#TimesNewRomanPSMT-35" x="75"/>
      </g>
     </g>
    </g>
    <g id="ytick_5">
     <g id="line2d_15">
      <path d="M 45 39.51 
L 324 39.51 
" clip-path="url(#p881a2a0004)" style="fill: none; stroke: #000000; stroke-width: 0.5; stroke-linecap: square"/>
     </g>
     <g id="line2d_16">
      <g>
       <use xlink:href="#mb39abfe3e2" x="45" y="39.51" style="stroke: #000000; stroke-width: 0.8"/>
      </g>
     </g>
     <g id="text_9">
      <!-- 1.0 -->
      <g transform="translate(25.5 42.981875)scale(0.1 -0.1)">
       <use xlink:href="#TimesNewRomanPSMT-31"/>
       <use xlink:href="#TimesNewRomanPSMT-2e" x="50"/>
       <use xlink:href="#TimesNewRomanPSMT-30" x="75"/>
      </g>
     </g>
    </g>
    <g id="text_10">
     <!-- f(x) -->
     <g transform="translate(13.721875 114.954531)rotate(-90)scale(0.1 -0.1)">
      <defs>
       <path id="TimesNewRomanPSMT-66" d="M 1319 2638 
L 1319 756 
Q 1319 356 1406 250 
Q 1522 113 1716 113 
L 1975 113 
L 1975 0 
L 266 0 
L 266 113 
L 394 113 
Q 519 113 622 175 
Q 725 238 764 344 
Q 803 450 803 756 
L 803 2638 
L 247 2638 
L 247 2863 
L 803 2863 
L 803 3050 
Q 803 3478 940 3775 
Q 1078 4072 1361 4255 
Q 1644 4438 1997 4438 
Q 2325 4438 2600 4225 
Q 2781 4084 2781 3909 
Q 2781 3816 2700 3733 
Q 2619 3650 2525 3650 
Q 2453 3650 2373 3701 
Q 2294 3753 2178 3923 
Q 2063 4094 1966 4153 
Q 1869 4213 1750 4213 
Q 1606 4213 1506 4136 
Q 1406 4059 1362 3898 
Q 1319 3738 1319 3069 
L 1319 2863 
L 2056 2863 
L 2056 2638 
L 1319 2638 
z
" transform="scale(0.015625)"/>
       <path id="TimesNewRomanPSMT-28" d="M 1988 -1253 
L 1988 -1369 
Q 1516 -1131 1200 -813 
Q 750 -359 506 256 
Q 263 872 263 1534 
Q 263 2503 741 3301 
Q 1219 4100 1988 4444 
L 1988 4313 
Q 1603 4100 1356 3731 
Q 1109 3363 987 2797 
Q 866 2231 866 1616 
Q 866 947 969 400 
Q 1050 -31 1165 -292 
Q 1281 -553 1476 -793 
Q 1672 -1034 1988 -1253 
z
" transform="scale(0.015625)"/>
       <path id="TimesNewRomanPSMT-29" d="M 144 4313 
L 144 4444 
Q 619 4209 934 3891 
Q 1381 3434 1625 2820 
Q 1869 2206 1869 1541 
Q 1869 572 1392 -226 
Q 916 -1025 144 -1369 
L 144 -1253 
Q 528 -1038 776 -670 
Q 1025 -303 1145 264 
Q 1266 831 1266 1447 
Q 1266 2113 1163 2663 
Q 1084 3094 967 3353 
Q 850 3613 656 3853 
Q 463 4094 144 4313 
z
" transform="scale(0.015625)"/>
      </defs>
      <use xlink:href="#TimesNewRomanPSMT-66"/>
      <use xlink:href="#TimesNewRomanPSMT-28" x="33.300781"/>
      <use xlink:href="#TimesNewRomanPSMT-78" x="66.601562"/>
      <use xlink:href="#TimesNewRomanPSMT-29" x="116.601562"/>
     </g>
    </g>
   </g>
   <g id="line2d_17">
    <path d="M 45 70.493766 
L 47.45799 60.915306 
L 49.40541 54.177219 
L 51.04035 49.28295 
L 52.44372 45.749608 
L 53.66016 43.257979 
L 54.72036 41.56537 
L 55.64664 40.481646 
L 56.46132 39.852385 
L 57.18672 39.559965 
L 57.85911 39.523353 
L 58.51476 39.71213 
L 59.18994 40.144937 
L 59.91534 40.886581 
L 60.70491 42.027299 
L 61.5726 43.690122 
L 62.52678 46.021614 
L 63.57582 49.198968 
L 64.72809 53.430488 
L 65.99475 58.96533 
L 67.39533 66.124195 
L 68.9661 75.361578 
L 70.78239 87.435153 
L 73.0674 104.227314 
L 79.32537 151.093294 
L 80.84313 160.325812 
L 82.06236 166.457808 
L 83.07234 170.473596 
L 83.91492 172.978754 
L 84.61242 174.413552 
L 85.18437 175.128603 
L 85.6503 175.38905 
L 86.05485 175.372644 
L 86.4594 175.12493 
L 86.91417 174.564239 
L 87.44148 173.532761 
L 88.05528 171.807654 
L 88.76394 169.106278 
L 89.57304 165.090746 
L 90.49374 159.331509 
L 91.54557 151.266269 
L 92.76759 140.077991 
L 94.25466 124.277775 
L 96.48666 97.849766 
L 99.06462 67.969435 
L 100.36197 55.439151 
L 101.35242 47.872693 
L 102.14199 43.411532 
L 102.77253 41.000467 
L 103.26357 39.896151 
L 103.62906 39.538675 
L 103.90806 39.541943 
L 104.18706 39.789889 
L 104.52744 40.42979 
L 104.95152 41.754079 
L 105.46767 44.163674 
L 106.08426 48.191414 
L 106.81245 54.529448 
L 107.67177 64.0938 
L 108.70965 78.301268 
L 110.0907 100.547914 
L 113.33547 153.921647 
L 114.26175 165.053386 
L 114.96483 171.088546 
L 115.50609 174.039597 
L 115.90506 175.172829 
L 116.17569 175.40969 
L 116.36541 175.311576 
L 116.59698 174.891182 
L 116.90946 173.792475 
L 117.31122 171.473753 
L 117.81342 167.143804 
L 118.42722 159.747917 
L 119.17773 147.793292 
L 120.13749 128.643813 
L 121.84776 89.033526 
L 123.16464 61.010306 
L 123.95142 48.579456 
L 124.52895 42.559388 
L 124.95024 40.138888 
L 125.23203 39.530861 
L 125.38827 39.557599 
L 125.55846 39.888328 
L 125.80677 40.942541 
L 126.14436 43.47265 
L 126.58239 48.626997 
L 127.13481 58.017671 
L 127.83789 74.10382 
L 128.84508 102.87199 
L 130.68927 155.798109 
L 131.34771 168.401085 
L 131.81643 173.701893 
L 132.13449 175.271469 
L 132.28515 175.404258 
L 132.30747 175.389732 
L 132.43581 175.133088 
L 132.63669 174.134142 
L 132.92685 171.396395 
L 133.31466 165.37626 
L 133.81965 153.721283 
L 134.49762 132.390061 
L 137.05605 46.040524 
L 137.46339 40.699427 
L 137.72007 39.530642 
L 137.79261 39.525945 
L 137.82609 39.573067 
L 137.95722 40.05979 
L 138.16926 41.872519 
L 138.47337 46.676476 
L 138.88629 57.179472 
L 139.44987 77.878268 
L 140.48496 126.093701 
L 141.32754 160.532081 
L 141.80184 172.055536 
L 142.10595 175.186321 
L 142.21476 175.409581 
L 142.2594 175.35997 
L 142.371 174.872522 
L 142.56072 172.844771 
L 142.84251 167.070469 
L 143.2359 153.821738 
L 143.80506 126.112501 
L 145.3284 48.349729 
L 145.69389 40.612304 
L 145.88919 39.510073 
L 145.90035 39.514818 
L 145.9701 39.71308 
L 146.10681 40.950193 
L 146.33001 45.380206 
L 146.65365 56.88206 
L 147.12795 82.777348 
L 148.62339 170.394126 
L 148.90797 175.215193 
L 148.97772 175.409949 
L 149.03073 175.288086 
L 149.14233 174.262374 
L 149.33484 170.045092 
L 149.62779 157.94515 
L 150.0714 128.968005 
L 151.28505 45.205213 
L 151.55568 39.66395 
L 151.60869 39.510029 
L 151.6617 39.673489 
L 151.7733 41.06353 
L 151.96581 46.769635 
L 152.26434 63.310242 
L 152.76375 105.6763 
L 153.51705 166.14503 
L 153.80721 175.052111 
L 153.87696 175.409976 
L 153.92997 175.19357 
L 154.04157 173.347158 
L 154.23687 165.650234 
L 154.54377 143.320481 
L 155.80764 39.70343 
L 155.85228 39.510003 
L 155.90529 39.78845 
L 156.01689 42.188437 
L 156.21219 52.150719 
L 156.53304 81.928468 
L 157.45374 173.161301 
L 157.58766 175.409941 
L 157.62672 175.223936 
L 157.72158 173.162608 
L 157.89735 163.460624 
L 158.19588 132.257013 
L 159.01893 41.320308 
L 159.12495 39.510231 
L 159.17238 39.851775 
L 159.27561 43.083324 
L 159.46533 57.503973 
L 159.81129 104.395948 
L 160.35255 171.3046 
L 160.49763 175.409999 
L 160.53111 175.187332 
L 160.62039 172.403655 
L 160.79058 158.638757 
L 161.11143 110.567068 
L 161.61363 42.702396 
L 161.72802 39.510083 
L 161.77266 39.988631 
L 161.8731 44.644107 
L 162.06282 65.891939 
L 162.83844 175.409723 
L 162.89703 174.409626 
L 163.01421 166.293351 
L 163.23741 131.731069 
L 163.81494 39.879005 
L 163.84563 39.510559 
L 163.89585 40.384033 
L 164.00187 48.181786 
L 164.21112 83.639848 
L 164.74401 175.22233 
L 164.76354 175.409322 
L 164.81097 174.478155 
L 164.9142 165.767961 
L 165.12345 125.085553 
L 165.5838 39.733419 
L 165.60333 39.510815 
L 165.65076 40.618327 
L 165.75399 50.93748 
L 165.9744 100.877905 
L 166.35384 175.114774 
L 166.37616 175.409931 
L 166.4208 174.168202 
L 166.52403 162.181514 
L 166.7556 102.264464 
L 167.07366 39.62976 
L 167.08761 39.510768 
L 167.12388 40.512432 
L 167.21874 51.868968 
L 167.43636 112.305516 
L 167.74047 175.401323 
L 167.74326 175.409847 
L 167.76 175.186508 
L 167.82417 169.998318 
L 167.97204 135.202737 
L 168.35427 39.51155 
L 168.37938 40.187544 
L 168.46029 50.542405 
L 168.65559 112.827573 
L 168.92064 175.408712 
L 168.9318 175.241951 
L 168.9876 170.23845 
L 169.12431 132.572604 
L 169.44795 39.510069 
L 169.47864 40.742752 
L 169.56513 56.761272 
L 169.94178 175.409565 
L 170.03943 161.527137 
L 170.271 66.346054 
L 170.40213 39.512783 
L 170.44398 42.261773 
L 170.54721 71.887754 
L 170.83737 175.409917 
L 170.89038 170.065559 
L 171.01593 122.099444 
L 171.24471 39.510188 
L 171.28098 42.277907 
L 171.37863 74.940761 
L 171.62973 175.409346 
L 171.67995 169.253037 
L 171.8055 111.91656 
L 171.99243 39.511189 
L 172.03149 43.75433 
L 172.1403 91.934633 
L 172.3356 175.406061 
L 172.37745 169.868296 
L 172.49463 110.240199 
L 172.65924 39.510455 
L 172.70109 45.458234 
L 172.81827 109.954768 
L 172.96614 175.409677 
L 173.01078 168.138793 
L 173.13912 89.488209 
L 173.25909 39.511842 
L 173.30652 48.942891 
L 173.47392 158.711349 
L 173.5353 175.407804 
L 173.5911 161.851203 
L 173.80035 39.510136 
L 173.88405 72.475121 
L 174.05145 175.408635 
L 174.11004 157.338024 
L 174.29139 39.513345 
L 174.36393 68.937261 
L 174.52017 175.397822 
L 174.58155 152.504453 
L 174.74058 39.510451 
L 174.80475 67.517164 
L 174.94983 175.403936 
L 175.01121 147.999691 
L 175.15071 39.519204 
L 175.21209 69.025636 
L 175.34322 175.394855 
L 175.40181 146.433102 
L 175.53015 39.515023 
L 175.58874 72.751228 
L 175.70592 175.395036 
L 175.76451 141.684077 
L 175.8789 39.523967 
L 175.9347 75.099803 
L 176.04072 175.3871 
L 176.09931 136.809088 
L 176.19975 39.512164 
L 176.25555 78.439633 
L 176.3532 175.401219 
L 176.40621 135.986053 
L 176.49828 39.524804 
L 176.55408 83.053609 
L 176.64057 175.408695 
L 176.69637 128.047676 
L 176.77728 39.511119 
L 176.83029 85.566521 
L 176.90841 175.384869 
L 176.96421 123.436474 
L 177.03675 39.512676 
L 177.08976 91.14004 
L 177.15951 175.38953 
L 177.21531 116.917821 
L 177.27948 39.512493 
L 177.33249 97.273128 
L 177.39666 175.363625 
L 177.44967 111.348584 
L 177.50826 39.540607 
L 177.56127 106.339313 
L 177.61428 175.356908 
L 177.67008 104.413903 
L 177.7203 39.515743 
L 177.77331 110.022029 
L 177.82353 175.38553 
L 177.87654 98.766722 
L 177.92118 39.516099 
L 177.97419 116.825299 
L 178.01883 175.35614 
L 178.07184 91.044504 
L 178.1109 39.51 
L 178.16391 124.655395 
L 178.20018 175.333732 
L 178.25598 83.47948 
L 178.28946 39.511114 
L 178.34247 131.21947 
L 178.37595 175.388825 
L 178.42896 78.324021 
L 178.45965 39.563871 
L 178.50987 134.248333 
L 178.54056 175.371317 
L 178.59357 71.145712 
L 178.61868 39.510067 
L 178.6689 138.439913 
L 178.6968 175.315386 
L 178.74702 70.199504 
L 178.76934 39.581791 
L 178.82235 148.907245 
L 178.84467 175.307504 
L 178.89489 63.98652 
L 178.91442 39.511377 
L 178.96464 150.645415 
L 178.98417 175.406439 
L 179.03439 60.487649 
L 179.05113 39.528628 
L 179.09856 148.791193 
L 179.11809 175.396048 
L 179.16831 54.618285 
L 179.18226 39.511435 
L 179.2269 148.932168 
L 179.24643 175.247636 
L 179.29665 48.145641 
L 179.30781 39.660573 
L 179.34408 133.029764 
L 179.3664 175.407467 
L 179.42499 39.515787 
L 179.44173 65.042621 
L 179.48358 175.304191 
L 179.53938 39.570798 
L 179.54496 43.841644 
L 179.59239 175.280622 
L 179.64819 39.657209 
L 179.71515 147.103057 
L 179.75142 39.547264 
L 179.80164 175.376059 
L 179.85465 42.122623 
L 179.99136 175.353075 
L 179.94672 39.663666 
L 180.01089 125.299541 
L 180.12528 39.511181 
L 180.08064 175.226561 
L 180.13365 52.045195 
L 180.25083 175.409699 
L 180.20898 39.62156 
L 180.26478 139.226858 
L 180.28989 39.802146 
L 180.33174 175.120112 
L 180.38475 86.798852 
L 180.40707 175.376986 
L 180.44613 39.929889 
L 180.49914 110.296067 
L 180.58842 39.643159 
L 180.55215 175.232563 
L 180.60516 109.133209 
L 180.6219 175.409999 
L 180.65538 39.512906 
L 180.70839 84.08058 
L 180.78372 39.578625 
L 180.75303 175.393423 
L 180.80604 148.711373 
L 180.81441 175.284531 
L 180.8451 39.529762 
L 180.89532 70.164521 
L 180.96228 39.601454 
L 180.93438 175.013944 
L 180.98739 172.932205 
L 180.99018 175.341794 
L 181.00413 103.383311 
L 181.07109 39.510069 
L 181.0962 174.728234 
L 181.12131 41.417702 
L 181.1241 39.875075 
L 181.13247 78.51599 
L 181.24686 175.405941 
L 181.17432 39.634188 
L 181.25244 158.281432 
L 181.31661 39.564572 
L 181.29429 175.323624 
L 181.36962 76.483102 
L 181.38357 175.327175 
L 181.40589 39.559265 
L 181.48122 87.82852 
L 181.48959 39.511719 
L 181.50912 175.009704 
L 181.58166 139.402387 
L 181.66257 175.399989 
L 181.60677 39.697953 
L 181.67931 41.473789 
L 181.6821 41.599967 
L 181.69884 175.264146 
L 181.71558 39.738455 
L 181.80765 122.82354 
L 181.91088 39.513373 
L 181.83276 175.276799 
L 181.91646 81.178569 
L 181.95552 175.361728 
L 181.96947 39.736069 
L 182.02248 62.758194 
L 182.10618 39.517497 
L 182.06712 175.311553 
L 182.11734 169.310719 
L 182.14524 173.669155 
L 182.13129 40.002498 
L 182.15082 103.167299 
L 182.22894 39.672866 
L 182.2401 175.358315 
L 182.25684 97.655312 
L 182.30706 175.355111 
L 182.36007 39.513402 
L 182.37123 172.651281 
L 182.47725 39.70401 
L 182.42982 175.399976 
L 182.48283 134.70423 
L 182.52189 175.248623 
L 182.51352 39.857882 
L 182.59164 164.525204 
L 182.66139 39.542051 
L 182.62233 175.342393 
L 182.70603 39.635534 
L 182.79531 175.309921 
L 182.81484 39.510818 
L 182.82321 144.430554 
L 182.83995 39.564082 
L 182.87064 175.190578 
L 182.93481 52.318497 
L 182.98224 174.031173 
L 182.97666 39.528512 
L 183.04362 129.565693 
L 183.08826 174.988785 
L 183.15243 39.569661 
L 183.21102 175.384145 
L 183.22218 39.510005 
L 183.26124 174.793206 
L 183.34215 39.521621 
L 183.31425 175.304012 
L 183.37284 96.383307 
L 183.47328 175.346691 
L 183.45654 40.28035 
L 183.48165 116.175432 
L 183.55419 39.60008 
L 183.56814 175.363271 
L 183.59325 53.44576 
L 183.72438 175.409986 
L 183.67695 39.532997 
L 183.72996 168.163511 
L 183.7467 39.974692 
L 183.77739 175.40845 
L 183.83877 40.041648 
L 183.87504 175.352123 
L 183.91689 39.525986 
L 183.95037 85.068925 
L 183.99222 175.243456 
L 184.01175 40.134317 
L 184.05639 112.900918 
L 184.15404 39.529396 
L 184.15962 174.615824 
L 184.16799 40.85776 
L 184.18473 174.600709 
L 184.26843 39.800317 
L 184.28238 174.504906 
L 184.31028 175.345512 
L 184.39677 39.585952 
L 184.50558 175.138698 
L 184.4721 39.520859 
L 184.50837 168.225464 
L 184.55301 41.435212 
L 184.5279 175.399141 
L 184.61718 172.305328 
L 184.68972 39.574488 
L 184.66461 174.835854 
L 184.72878 89.311696 
L 184.73157 175.119683 
L 184.81527 40.319291 
L 184.83759 165.959175 
L 184.84596 175.390604 
L 184.94919 40.04632 
L 184.96314 61.684201 
L 184.98825 174.785683 
L 185.00778 39.676544 
L 185.07195 45.479644 
L 185.07474 42.628598 
L 185.08032 141.680391 
L 185.08311 175.394014 
L 185.12496 39.567877 
L 185.18634 101.344519 
L 185.27562 39.510014 
L 185.2533 174.945308 
L 185.29794 39.57746 
L 185.30631 53.657379 
L 185.32305 175.387003 
L 185.38722 39.564568 
L 185.41791 154.957403 
L 185.43186 39.556729 
L 185.44581 175.31992 
L 185.52672 39.573309 
L 185.54346 174.63965 
L 185.63832 89.397089 
L 185.65785 175.398379 
L 185.68575 39.615988 
L 185.74992 156.489234 
L 185.78898 39.535855 
L 185.77782 175.409995 
L 185.86152 79.074419 
L 185.87268 175.341026 
L 185.91174 39.931215 
L 185.97312 173.764986 
L 186.01776 40.888827 
L 186.02334 175.391488 
L 186.08472 67.112727 
L 186.18516 175.409182 
L 186.12936 39.729422 
L 186.19632 152.715744 
L 186.22422 175.061105 
L 186.20469 39.610079 
L 186.2856 50.042047 
L 186.33861 175.377949 
L 186.37767 39.577607 
L 186.39162 58.190992 
L 186.47811 39.671377 
L 186.46974 173.862232 
L 186.48369 138.950785 
L 186.52275 175.21599 
L 186.57018 39.520024 
L 186.58692 63.16597 
L 186.58971 39.544131 
L 186.63993 175.406598 
L 186.69573 62.537474 
L 186.77106 175.247134 
L 186.7599 39.561685 
L 186.80454 50.26349 
L 186.80733 40.396017 
L 186.81849 175.244899 
L 186.88824 122.5594 
L 186.89382 175.402503 
L 186.93288 39.608447 
L 187.00263 173.785623 
L 187.04448 39.558272 
L 187.08912 175.406627 
L 187.11423 137.188428 
L 187.11981 175.398257 
L 187.16724 39.643201 
L 187.22304 121.988783 
L 187.28442 175.181545 
L 187.33743 39.520011 
L 187.39323 175.222047 
L 187.44903 41.256291 
L 187.45182 41.14632 
L 187.51041 175.408281 
L 187.49088 39.910296 
L 187.56621 70.684456 
L 187.61643 39.592825 
L 187.59411 175.360735 
L 187.66944 86.222406 
L 187.68339 175.355428 
L 187.75314 39.514059 
L 187.78383 150.912984 
L 187.85079 39.627061 
L 187.82568 175.285812 
L 187.90659 47.108309 
L 187.92891 175.409931 
L 188.00982 39.578206 
L 188.04051 173.146319 
L 188.12421 39.659605 
L 188.09631 175.140471 
L 188.14932 165.049402 
L 188.1549 175.390238 
L 188.18559 39.635469 
L 188.23302 96.805553 
L 188.24697 39.526577 
L 188.28045 174.805869 
L 188.33346 141.442657 
L 188.34462 175.407094 
L 188.3781 39.510001 
L 188.43111 98.08801 
L 188.44785 39.687437 
L 188.48133 175.085008 
L 188.53713 109.680901 
L 188.55387 174.990111 
L 188.59293 39.543014 
L 188.64873 114.045161 
L 188.74917 39.510301 
L 188.71011 175.117854 
L 188.76312 74.913158 
L 188.87472 175.408819 
L 188.83287 39.615552 
L 188.88588 154.53258 
L 189.00864 39.566925 
L 188.964 175.144259 
L 189.0198 60.358246 
L 189.05328 175.256334 
L 189.10071 39.596209 
L 189.15651 168.894066 
L 189.19836 39.543941 
L 189.24858 175.372736 
L 189.31275 57.384186 
L 189.40761 39.639378 
L 189.46062 175.349202 
L 189.47178 163.962891 
L 189.51642 39.615809 
L 189.57501 175.404213 
L 189.5778 174.49734 
L 189.6336 39.512533 
L 189.6894 173.902541 
L 189.69219 175.259427 
L 189.71451 139.280871 
L 189.75357 39.672364 
L 189.81216 172.724981 
L 189.81774 175.408565 
L 189.84564 121.501467 
L 189.88191 39.523952 
L 189.9405 170.800453 
L 189.94887 175.391372 
L 189.98235 106.367497 
L 190.01583 39.513561 
L 190.07163 162.804569 
L 190.08558 175.408623 
L 190.13022 80.016599 
L 190.15533 39.612496 
L 190.21113 155.45677 
L 190.23066 175.338209 
L 190.27809 76.482203 
L 190.3032 39.604614 
L 190.359 149.432123 
L 190.38132 175.409933 
L 190.43154 78.76319 
L 190.45944 39.548683 
L 190.51245 137.583334 
L 190.54035 175.356129 
L 190.59336 81.090755 
L 190.62405 39.531175 
L 190.67706 131.338477 
L 190.71054 175.408886 
L 190.76355 85.060516 
L 190.79982 39.586268 
L 190.85283 129.112573 
L 190.8891 175.41 
L 190.94211 92.238019 
L 190.98117 39.56386 
L 191.03697 122.731241 
L 191.07882 175.403901 
L 191.13183 98.144393 
L 191.17647 39.53447 
L 191.23227 116.549819 
L 191.2797 175.404257 
L 191.33271 104.840688 
L 191.38572 39.563092 
L 191.43873 108.580687 
L 191.49174 175.379393 
L 191.54754 108.891748 
L 191.60334 39.556375 
L 191.65914 102.228806 
L 191.72052 175.407507 
L 191.77353 117.895017 
L 191.84049 39.53047 
L 191.8935 95.048602 
L 191.96325 175.407324 
L 192.01626 123.853208 
L 192.09159 39.535131 
L 192.1446 89.376342 
L 192.22272 175.408881 
L 192.27852 125.535112 
L 192.35943 39.511305 
L 192.41523 86.516469 
L 192.50172 175.395196 
L 192.55473 134.081538 
L 192.6468 39.518781 
L 192.7026 79.627161 
L 192.80025 175.407836 
L 192.85605 136.433171 
L 192.95928 39.5329 
L 193.01229 73.822268 
L 193.1211 175.396033 
L 193.17969 139.965407 
L 193.29408 39.524964 
L 193.34988 71.965227 
L 193.46985 175.404977 
L 193.52844 144.339576 
L 193.65678 39.525145 
L 193.71258 67.59623 
L 193.84929 175.400796 
L 193.90788 147.222751 
L 194.05017 39.516064 
L 194.10876 65.436726 
L 194.25942 175.409549 
L 194.3208 149.857294 
L 194.47983 39.522178 
L 194.54121 63.820519 
L 194.70861 175.406655 
L 194.76999 153.486714 
L 194.94855 39.511365 
L 195.01551 62.94714 
L 195.19965 175.409864 
L 195.26382 155.992276 
L 195.4647 39.512196 
L 195.53445 60.719541 
L 195.74091 175.408158 
L 195.81066 156.809308 
L 196.03386 39.510323 
L 196.10919 59.532207 
L 196.34076 175.409545 
L 196.4133 158.826199 
L 196.6644 39.513939 
L 196.7481 58.816085 
L 197.00757 175.408811 
L 197.0829 161.065137 
L 197.37027 39.510654 
L 197.46513 59.568489 
L 197.75529 175.409812 
L 197.83062 163.654175 
L 198.04545 64.420117 
L 198.16263 39.510083 
L 198.20727 43.19735 
L 198.32166 81.150705 
L 198.59787 175.407217 
L 198.63135 173.405718 
L 198.72621 149.606478 
L 199.05822 39.510435 
L 199.1196 44.840314 
L 199.25631 88.156587 
L 199.55205 175.409931 
L 199.57437 174.784385 
L 199.6497 163.696408 
L 199.85895 88.703472 
L 200.07936 39.511288 
L 200.0961 39.784721 
L 200.15748 45.99932 
L 200.31372 90.652624 
L 200.64573 175.40845 
L 200.6541 175.360915 
L 200.69874 172.838515 
L 200.81592 149.991461 
L 201.25674 39.510153 
L 201.31254 42.126789 
L 201.4353 64.159422 
L 201.91239 175.409232 
L 201.97098 173.057247 
L 202.09374 153.764881 
L 202.62384 39.510069 
L 202.69638 42.654673 
L 202.83588 64.621748 
L 203.39667 175.409185 
L 203.4441 174.190716 
L 203.55291 163.144755 
L 203.79843 109.433123 
L 204.17787 40.946455 
L 204.23646 39.510678 
L 204.28947 40.782063 
L 204.40386 51.337307 
L 204.65217 100.117011 
L 205.07625 173.257604 
L 205.15437 175.409441 
L 205.20459 174.454732 
L 205.31619 166.118748 
L 205.54497 128.394257 
L 206.08065 41.434904 
L 206.16156 39.510277 
L 206.21178 40.291537 
L 206.32338 47.200588 
L 206.54379 77.826065 
L 207.20223 174.229788 
L 207.27198 175.409917 
L 207.32499 174.70833 
L 207.43938 168.68663 
L 207.65979 142.596191 
L 208.44657 40.130318 
L 208.50237 39.510001 
L 208.55538 40.068307 
L 208.66698 44.770517 
L 208.87902 65.122247 
L 209.86947 175.406946 
L 209.87784 175.407455 
L 209.90016 175.299809 
L 209.97828 173.691907 
L 210.13731 164.850288 
L 210.42747 133.724535 
L 211.2282 43.765553 
L 211.41234 39.510059 
L 211.42908 39.548224 
L 211.49604 40.400056 
L 211.63833 45.780134 
L 211.88943 65.446711 
L 213.10308 175.21238 
L 213.14772 175.409997 
L 213.20073 175.137118 
L 213.31233 172.802736 
L 213.51321 163.032586 
L 213.85917 133.3615 
L 214.8273 46.129553 
L 215.08398 39.628317 
L 215.12583 39.510372 
L 215.17605 39.715951 
L 215.28765 41.501719 
L 215.48853 49.054601 
L 215.81775 71.300711 
L 217.16253 172.415361 
L 217.38852 175.409307 
L 217.43037 175.327141 
L 217.43316 175.314665 
L 217.53081 174.333918 
L 217.71216 169.810476 
L 218.00511 155.954448 
L 218.50731 119.617561 
L 219.4308 54.039109 
L 219.80187 41.562508 
L 220.02228 39.510051 
L 220.07529 39.621509 
L 220.18689 40.606885 
L 220.38498 44.760836 
L 220.69188 56.615268 
L 221.18571 85.660383 
L 222.43842 161.889368 
L 222.83181 173.048079 
L 223.08012 175.379009 
L 223.12197 175.407262 
L 223.1694 175.313578 
L 223.28658 174.517375 
L 223.49025 171.287108 
L 223.79994 162.282159 
L 224.26866 141.24386 
L 226.19097 46.994081 
L 226.55646 40.644287 
L 226.78245 39.5111 
L 226.85778 39.605361 
L 226.98612 40.298293 
L 227.20095 42.909623 
L 227.5218 49.936034 
L 227.98773 65.68676 
L 228.77172 101.080031 
L 229.94352 152.187516 
L 230.50989 167.904894 
L 230.91444 173.91477 
L 231.18228 175.361643 
L 231.26319 175.403365 
L 231.30504 175.353873 
L 231.43338 174.903715 
L 231.64542 173.198477 
L 231.9579 168.625968 
L 232.39872 158.492353 
L 233.03484 138.106679 
L 235.51236 53.070458 
L 236.04525 43.867293 
L 236.43864 40.325442 
L 236.69811 39.525804 
L 236.81808 39.563581 
L 236.82366 39.571527 
L 236.97432 39.991403 
L 237.21147 41.436793 
L 237.54906 45.06401 
L 238.00941 52.689214 
L 238.63995 67.218508 
L 239.63598 96.075135 
L 241.37415 146.101913 
L 242.14977 162.128459 
L 242.74683 170.362806 
L 243.20718 174.054783 
L 243.54198 175.265128 
L 243.74565 175.401398 
L 243.89631 175.215721 
L 244.11672 174.51516 
L 244.43199 172.658279 
L 244.85607 168.671719 
L 245.41407 161.105295 
L 246.159 147.672579 
L 247.28058 122.891424 
L 249.58791 71.446716 
L 250.5114 56.034036 
L 251.24238 47.21728 
L 251.83386 42.491054 
L 252.29979 40.323911 
L 252.64296 39.599444 
L 252.87174 39.520034 
L 253.06983 39.706806 
L 253.33488 40.319001 
L 253.692 41.777443 
L 254.15793 44.714111 
L 254.7522 50.009268 
L 255.51108 58.940326 
L 256.51827 73.66581 
L 258.18111 101.800647 
L 260.30988 136.90943 
L 261.48726 152.757322 
L 262.43586 162.740348 
L 263.23101 168.943697 
L 263.89782 172.553358 
L 264.44466 174.421138 
L 264.87711 175.209039 
L 265.20075 175.408177 
L 265.46859 175.325567 
L 265.76991 174.970984 
L 266.15214 174.13417 
L 266.63481 172.484831 
L 267.23466 169.569944 
L 267.97122 164.798349 
L 268.88076 157.337533 
L 270.03582 145.88316 
L 271.67355 127.18958 
L 275.82786 78.928403 
L 277.25913 65.316624 
L 278.45604 55.938263 
L 279.49392 49.459455 
L 280.39788 45.129651 
L 281.18466 42.370339 
L 281.85984 40.747264 
L 282.429 39.904782 
L 282.9033 39.562166 
L 283.31343 39.523122 
L 283.72077 39.714543 
L 284.17833 40.195357 
L 284.71959 41.114317 
L 285.36408 42.680337 
L 286.13133 45.171055 
L 287.04087 48.929891 
L 288.12339 54.409068 
L 289.4319 62.249293 
L 291.08916 73.622475 
L 293.55273 92.259769 
L 298.01673 126.070678 
L 300.04785 139.645692 
L 301.75254 149.601318 
L 303.25635 157.124219 
L 304.6095 162.809292 
L 305.83431 167.039996 
L 306.94473 170.116756 
L 307.95192 172.286713 
L 308.86146 173.746519 
L 309.67893 174.662415 
L 310.42107 175.177239 
L 311.10741 175.392435 
L 311.76864 175.369547 
L 312.44661 175.118949 
L 313.1748 174.602807 
L 313.98111 173.745403 
L 314.88786 172.440521 
L 315.91737 170.549164 
L 317.08917 167.907535 
L 318.42837 164.314068 
L 319.97682 159.49183 
L 321.79869 153.054218 
L 324 144.426234 
L 324 144.426234 
" clip-path="url(#p881a2a0004)" style="fill: none; stroke: #0088ff; stroke-width: 1.5; stroke-linecap: square"/>
   </g>
   <g id="patch_3">
    <path d="M 45 189 
L 45 25.92 
" style="fill: none; stroke: #000000; stroke-width: 0.8; stroke-linejoin: miter; stroke-linecap: square"/>
   </g>
   <g id="patch_4">
    <path d="M 324 189 
L 324 25.92 
" style="fill: none; stroke: #000000; stroke-width: 0.8; stroke-linejoin: miter; stroke-linecap: square"/>
   </g>
   <g id="patch_5">
    <path d="M 45 189 
L 324 189 
" style="fill: none; stroke: #000000; stroke-width: 0.8; stroke-linejoin: miter; stroke-linecap: square"/>
   </g>
   <g id="patch_6">
    <path d="M 45 25.92 
L 324 25.92 
" style="fill: none; stroke: #000000; stroke-width: 0.8; stroke-linejoin: miter; stroke-linecap: square"/>
   </g>
  </g>
 </g>
 <defs>
  <clipPath id="p881a2a0004">
   <rect x="45" y="25.92" width="279" height="163.08"/>
  </clipPath>
 </defs>
</svg>
