<?xml version="1.0" encoding="utf-8" standalone="no"?>
<!DOCTYPE svg PUBLIC "-//W3C//DTD SVG 1.1//EN"
  "http://www.w3.org/Graphics/SVG/1.1/DTD/svg11.dtd">
<svg xmlns:xlink="http://www.w3.org/1999/xlink" width="360pt" height="360pt" viewBox="0 0 360 360" xmlns="http://www.w3.org/2000/svg" version="1.1">
 <metadata>
  <rdf:RDF xmlns:dc="http://purl.org/dc/elements/1.1/" xmlns:cc="http://creativecommons.org/ns#" xmlns:rdf="http://www.w3.org/1999/02/22-rdf-syntax-ns#">
   <cc:Work>
    <dc:type rdf:resource="http://purl.org/dc/dcmitype/StillImage"/>
    <dc:date>2024-07-30T19:42:00.790435</dc:date>
    <dc:format>image/svg+xml</dc:format>
    <dc:creator>
     <cc:Agent>
      <dc:title>Matplotlib v3.9.1, https://matplotlib.org/</dc:title>
     </cc:Agent>
    </dc:creator>
   </cc:Work>
  </rdf:RDF>
 </metadata>
 <defs>
  <style type="text/css">*{stroke-linejoin: round; stroke-linecap: butt}</style>
 </defs>
 <g id="figure_1">
  <g id="patch_1">
   <path d="M 0 360 
L 360 360 
L 360 0 
L 0 0 
z
" style="fill: #ffffff"/>
  </g>
  <g id="axes_1">
   <g id="patch_2">
    <path d="M 320.4 179.1 
C 320.4 161.253776 316.884683 143.581083 310.055228 127.093322 
C 303.225774 110.60556 293.214998 95.623375 280.595812 83.004188 
C 267.976625 70.385002 252.99444 60.374226 236.506678 53.544772 
C 220.018917 46.715317 202.346224 43.2 184.5 43.2 
C 166.653776 43.2 148.981083 46.715317 132.493322 53.544772 
C 116.00556 60.374226 101.023375 70.385002 88.404188 83.004188 
C 75.785002 95.623375 65.774226 110.60556 58.944772 127.093322 
C 52.115317 143.581083 48.6 161.253776 48.6 179.1 
C 48.6 196.946224 52.115317 214.618917 58.944772 231.106678 
C 65.774226 247.59444 75.785002 262.576625 88.404188 275.195812 
C 101.023375 287.814998 116.00556 297.825774 132.493322 304.655228 
C 148.981083 311.484683 166.653776 315 184.5 315 
C 202.346224 315 220.018917 311.484683 236.506678 304.655228 
C 252.99444 297.825774 267.976625 287.814998 280.595812 275.195812 
C 293.214998 262.576625 303.225774 247.59444 310.055228 231.106678 
C 316.884683 214.618917 320.4 196.946224 320.4 179.1 
M 184.5 179.1 
C 184.5 179.1 184.5 179.1 184.5 179.1 
C 184.5 179.1 184.5 179.1 184.5 179.1 
C 184.5 179.1 184.5 179.1 184.5 179.1 
C 184.5 179.1 184.5 179.1 184.5 179.1 
C 184.5 179.1 184.5 179.1 184.5 179.1 
C 184.5 179.1 184.5 179.1 184.5 179.1 
C 184.5 179.1 184.5 179.1 184.5 179.1 
C 184.5 179.1 184.5 179.1 184.5 179.1 
C 184.5 179.1 184.5 179.1 184.5 179.1 
C 184.5 179.1 184.5 179.1 184.5 179.1 
C 184.5 179.1 184.5 179.1 184.5 179.1 
C 184.5 179.1 184.5 179.1 184.5 179.1 
C 184.5 179.1 184.5 179.1 184.5 179.1 
C 184.5 179.1 184.5 179.1 184.5 179.1 
C 184.5 179.1 184.5 179.1 184.5 179.1 
C 184.5 179.1 184.5 179.1 184.5 179.1 
z
" style="fill: #ffffff"/>
   </g>
   <g id="matplotlib.axis_1">
    <g id="xtick_1">
     <g id="line2d_1">
      <path d="M 184.5 179.1 
L 320.4 179.1 
" clip-path="url(#pfb51ebe268)" style="fill: none; stroke: #b0b0b0; stroke-width: 0.8; stroke-linecap: square"/>
     </g>
     <g id="text_1">
      <!-- 0° -->
      <g transform="translate(328.71875 181.859375) scale(0.1 -0.1)">
       <defs>
        <path id="DejaVuSans-30" d="M 2034 4250 
Q 1547 4250 1301 3770 
Q 1056 3291 1056 2328 
Q 1056 1369 1301 889 
Q 1547 409 2034 409 
Q 2525 409 2770 889 
Q 3016 1369 3016 2328 
Q 3016 3291 2770 3770 
Q 2525 4250 2034 4250 
z
M 2034 4750 
Q 2819 4750 3233 4129 
Q 3647 3509 3647 2328 
Q 3647 1150 3233 529 
Q 2819 -91 2034 -91 
Q 1250 -91 836 529 
Q 422 1150 422 2328 
Q 422 3509 836 4129 
Q 1250 4750 2034 4750 
z
" transform="scale(0.015625)"/>
        <path id="DejaVuSans-b0" d="M 1600 4347 
Q 1350 4347 1178 4173 
Q 1006 4000 1006 3750 
Q 1006 3503 1178 3333 
Q 1350 3163 1600 3163 
Q 1850 3163 2022 3333 
Q 2194 3503 2194 3750 
Q 2194 3997 2020 4172 
Q 1847 4347 1600 4347 
z
M 1600 4750 
Q 1800 4750 1984 4673 
Q 2169 4597 2303 4453 
Q 2447 4313 2519 4134 
Q 2591 3956 2591 3750 
Q 2591 3338 2302 3052 
Q 2013 2766 1594 2766 
Q 1172 2766 890 3047 
Q 609 3328 609 3750 
Q 609 4169 896 4459 
Q 1184 4750 1600 4750 
z
" transform="scale(0.015625)"/>
       </defs>
       <use xlink:href="#DejaVuSans-30"/>
       <use xlink:href="#DejaVuSans-b0" x="63.623047"/>
      </g>
     </g>
    </g>
    <g id="xtick_2">
     <g id="line2d_2">
      <path d="M 184.5 179.1 
L 280.595812 83.004188 
" clip-path="url(#pfb51ebe268)" style="fill: none; stroke: #b0b0b0; stroke-width: 0.8; stroke-linecap: square"/>
     </g>
     <g id="text_2">
      <!-- 45° -->
      <g transform="translate(281.632806 75.864069) scale(0.1 -0.1)">
       <defs>
        <path id="DejaVuSans-34" d="M 2419 4116 
L 825 1625 
L 2419 1625 
L 2419 4116 
z
M 2253 4666 
L 3047 4666 
L 3047 1625 
L 3713 1625 
L 3713 1100 
L 3047 1100 
L 3047 0 
L 2419 0 
L 2419 1100 
L 313 1100 
L 313 1709 
L 2253 4666 
z
" transform="scale(0.015625)"/>
        <path id="DejaVuSans-35" d="M 691 4666 
L 3169 4666 
L 3169 4134 
L 1269 4134 
L 1269 2991 
Q 1406 3038 1543 3061 
Q 1681 3084 1819 3084 
Q 2600 3084 3056 2656 
Q 3513 2228 3513 1497 
Q 3513 744 3044 326 
Q 2575 -91 1722 -91 
Q 1428 -91 1123 -41 
Q 819 9 494 109 
L 494 744 
Q 775 591 1075 516 
Q 1375 441 1709 441 
Q 2250 441 2565 725 
Q 2881 1009 2881 1497 
Q 2881 1984 2565 2268 
Q 2250 2553 1709 2553 
Q 1456 2553 1204 2497 
Q 953 2441 691 2322 
L 691 4666 
z
" transform="scale(0.015625)"/>
       </defs>
       <use xlink:href="#DejaVuSans-34"/>
       <use xlink:href="#DejaVuSans-35" x="63.623047"/>
       <use xlink:href="#DejaVuSans-b0" x="127.246094"/>
      </g>
     </g>
    </g>
    <g id="xtick_3">
     <g id="line2d_3">
      <path d="M 184.5 179.1 
L 184.5 43.2 
" clip-path="url(#pfb51ebe268)" style="fill: none; stroke: #b0b0b0; stroke-width: 0.8; stroke-linecap: square"/>
     </g>
     <g id="text_3">
      <!-- 90° -->
      <g transform="translate(175.6375 31.959375) scale(0.1 -0.1)">
       <defs>
        <path id="DejaVuSans-39" d="M 703 97 
L 703 672 
Q 941 559 1184 500 
Q 1428 441 1663 441 
Q 2288 441 2617 861 
Q 2947 1281 2994 2138 
Q 2813 1869 2534 1725 
Q 2256 1581 1919 1581 
Q 1219 1581 811 2004 
Q 403 2428 403 3163 
Q 403 3881 828 4315 
Q 1253 4750 1959 4750 
Q 2769 4750 3195 4129 
Q 3622 3509 3622 2328 
Q 3622 1225 3098 567 
Q 2575 -91 1691 -91 
Q 1453 -91 1209 -44 
Q 966 3 703 97 
z
M 1959 2075 
Q 2384 2075 2632 2365 
Q 2881 2656 2881 3163 
Q 2881 3666 2632 3958 
Q 2384 4250 1959 4250 
Q 1534 4250 1286 3958 
Q 1038 3666 1038 3163 
Q 1038 2656 1286 2365 
Q 1534 2075 1959 2075 
z
" transform="scale(0.015625)"/>
       </defs>
       <use xlink:href="#DejaVuSans-39"/>
       <use xlink:href="#DejaVuSans-30" x="63.623047"/>
       <use xlink:href="#DejaVuSans-b0" x="127.246094"/>
      </g>
     </g>
    </g>
    <g id="xtick_4">
     <g id="line2d_4">
      <path d="M 184.5 179.1 
L 88.404188 83.004188 
" clip-path="url(#pfb51ebe268)" style="fill: none; stroke: #b0b0b0; stroke-width: 0.8; stroke-linecap: square"/>
     </g>
     <g id="text_4">
      <!-- 135° -->
      <g transform="translate(66.460944 75.864069) scale(0.1 -0.1)">
       <defs>
        <path id="DejaVuSans-31" d="M 794 531 
L 1825 531 
L 1825 4091 
L 703 3866 
L 703 4441 
L 1819 4666 
L 2450 4666 
L 2450 531 
L 3481 531 
L 3481 0 
L 794 0 
L 794 531 
z
" transform="scale(0.015625)"/>
        <path id="DejaVuSans-33" d="M 2597 2516 
Q 3050 2419 3304 2112 
Q 3559 1806 3559 1356 
Q 3559 666 3084 287 
Q 2609 -91 1734 -91 
Q 1441 -91 1130 -33 
Q 819 25 488 141 
L 488 750 
Q 750 597 1062 519 
Q 1375 441 1716 441 
Q 2309 441 2620 675 
Q 2931 909 2931 1356 
Q 2931 1769 2642 2001 
Q 2353 2234 1838 2234 
L 1294 2234 
L 1294 2753 
L 1863 2753 
Q 2328 2753 2575 2939 
Q 2822 3125 2822 3475 
Q 2822 3834 2567 4026 
Q 2313 4219 1838 4219 
Q 1578 4219 1281 4162 
Q 984 4106 628 3988 
L 628 4550 
Q 988 4650 1302 4700 
Q 1616 4750 1894 4750 
Q 2613 4750 3031 4423 
Q 3450 4097 3450 3541 
Q 3450 3153 3228 2886 
Q 3006 2619 2597 2516 
z
" transform="scale(0.015625)"/>
       </defs>
       <use xlink:href="#DejaVuSans-31"/>
       <use xlink:href="#DejaVuSans-33" x="63.623047"/>
       <use xlink:href="#DejaVuSans-35" x="127.246094"/>
       <use xlink:href="#DejaVuSans-b0" x="190.869141"/>
      </g>
     </g>
    </g>
    <g id="xtick_5">
     <g id="line2d_5">
      <path d="M 184.5 179.1 
L 48.6 179.1 
" clip-path="url(#pfb51ebe268)" style="fill: none; stroke: #b0b0b0; stroke-width: 0.8; stroke-linecap: square"/>
     </g>
     <g id="text_5">
      <!-- 180° -->
      <g transform="translate(22.55625 181.859375) scale(0.1 -0.1)">
       <defs>
        <path id="DejaVuSans-38" d="M 2034 2216 
Q 1584 2216 1326 1975 
Q 1069 1734 1069 1313 
Q 1069 891 1326 650 
Q 1584 409 2034 409 
Q 2484 409 2743 651 
Q 3003 894 3003 1313 
Q 3003 1734 2745 1975 
Q 2488 2216 2034 2216 
z
M 1403 2484 
Q 997 2584 770 2862 
Q 544 3141 544 3541 
Q 544 4100 942 4425 
Q 1341 4750 2034 4750 
Q 2731 4750 3128 4425 
Q 3525 4100 3525 3541 
Q 3525 3141 3298 2862 
Q 3072 2584 2669 2484 
Q 3125 2378 3379 2068 
Q 3634 1759 3634 1313 
Q 3634 634 3220 271 
Q 2806 -91 2034 -91 
Q 1263 -91 848 271 
Q 434 634 434 1313 
Q 434 1759 690 2068 
Q 947 2378 1403 2484 
z
M 1172 3481 
Q 1172 3119 1398 2916 
Q 1625 2713 2034 2713 
Q 2441 2713 2670 2916 
Q 2900 3119 2900 3481 
Q 2900 3844 2670 4047 
Q 2441 4250 2034 4250 
Q 1625 4250 1398 4047 
Q 1172 3844 1172 3481 
z
" transform="scale(0.015625)"/>
       </defs>
       <use xlink:href="#DejaVuSans-31"/>
       <use xlink:href="#DejaVuSans-38" x="63.623047"/>
       <use xlink:href="#DejaVuSans-30" x="127.246094"/>
       <use xlink:href="#DejaVuSans-b0" x="190.869141"/>
      </g>
     </g>
    </g>
    <g id="xtick_6">
     <g id="line2d_6">
      <path d="M 184.5 179.1 
L 88.404188 275.195812 
" clip-path="url(#pfb51ebe268)" style="fill: none; stroke: #b0b0b0; stroke-width: 0.8; stroke-linecap: square"/>
     </g>
     <g id="text_6">
      <!-- 225° -->
      <g transform="translate(66.460944 287.854681) scale(0.1 -0.1)">
       <defs>
        <path id="DejaVuSans-32" d="M 1228 531 
L 3431 531 
L 3431 0 
L 469 0 
L 469 531 
Q 828 903 1448 1529 
Q 2069 2156 2228 2338 
Q 2531 2678 2651 2914 
Q 2772 3150 2772 3378 
Q 2772 3750 2511 3984 
Q 2250 4219 1831 4219 
Q 1534 4219 1204 4116 
Q 875 4013 500 3803 
L 500 4441 
Q 881 4594 1212 4672 
Q 1544 4750 1819 4750 
Q 2544 4750 2975 4387 
Q 3406 4025 3406 3419 
Q 3406 3131 3298 2873 
Q 3191 2616 2906 2266 
Q 2828 2175 2409 1742 
Q 1991 1309 1228 531 
z
" transform="scale(0.015625)"/>
       </defs>
       <use xlink:href="#DejaVuSans-32"/>
       <use xlink:href="#DejaVuSans-32" x="63.623047"/>
       <use xlink:href="#DejaVuSans-35" x="127.246094"/>
       <use xlink:href="#DejaVuSans-b0" x="190.869141"/>
      </g>
     </g>
    </g>
    <g id="xtick_7">
     <g id="line2d_7">
      <path d="M 184.5 179.1 
L 184.5 315 
" clip-path="url(#pfb51ebe268)" style="fill: none; stroke: #b0b0b0; stroke-width: 0.8; stroke-linecap: square"/>
     </g>
     <g id="text_7">
      <!-- 270° -->
      <g transform="translate(172.45625 331.759375) scale(0.1 -0.1)">
       <defs>
        <path id="DejaVuSans-37" d="M 525 4666 
L 3525 4666 
L 3525 4397 
L 1831 0 
L 1172 0 
L 2766 4134 
L 525 4134 
L 525 4666 
z
" transform="scale(0.015625)"/>
       </defs>
       <use xlink:href="#DejaVuSans-32"/>
       <use xlink:href="#DejaVuSans-37" x="63.623047"/>
       <use xlink:href="#DejaVuSans-30" x="127.246094"/>
       <use xlink:href="#DejaVuSans-b0" x="190.869141"/>
      </g>
     </g>
    </g>
    <g id="xtick_8">
     <g id="line2d_8">
      <path d="M 184.5 179.1 
L 280.595812 275.195812 
" clip-path="url(#pfb51ebe268)" style="fill: none; stroke: #b0b0b0; stroke-width: 0.8; stroke-linecap: square"/>
     </g>
     <g id="text_8">
      <!-- 315° -->
      <g transform="translate(278.451556 287.854681) scale(0.1 -0.1)">
       <use xlink:href="#DejaVuSans-33"/>
       <use xlink:href="#DejaVuSans-31" x="63.623047"/>
       <use xlink:href="#DejaVuSans-35" x="127.246094"/>
       <use xlink:href="#DejaVuSans-b0" x="190.869141"/>
      </g>
     </g>
    </g>
   </g>
   <g id="matplotlib.axis_2">
    <g id="ytick_1">
     <g id="line2d_9">
      <path d="M 200.678554 179.1 
C 200.678554 176.975452 200.260065 174.871562 199.447035 172.908735 
C 198.634006 170.945909 197.442248 169.162317 195.939965 167.660035 
C 194.437683 166.157752 192.654091 164.965994 190.691265 164.152965 
C 188.728438 163.339935 186.624548 162.921446 184.5 162.921446 
C 182.375452 162.921446 180.271562 163.339935 178.308735 164.152965 
C 176.345909 164.965994 174.562317 166.157752 173.060035 167.660035 
C 171.557752 169.162317 170.365994 170.945909 169.552965 172.908735 
C 168.739935 174.871562 168.321446 176.975452 168.321446 179.1 
C 168.321446 181.224548 168.739935 183.328438 169.552965 185.291265 
C 170.365994 187.254091 171.557752 189.037683 173.060035 190.539965 
C 174.562317 192.042248 176.345909 193.234006 178.308735 194.047035 
C 180.271562 194.860065 182.375452 195.278554 184.5 195.278554 
C 186.624548 195.278554 188.728438 194.860065 190.691265 194.047035 
C 192.654091 193.234006 194.437683 192.042248 195.939965 190.539965 
C 197.442248 189.037683 198.634006 187.254091 199.447035 185.291265 
C 200.260065 183.328438 200.678554 181.224548 200.678554 179.1 
" clip-path="url(#pfb51ebe268)" style="fill: none; stroke: #b0b0b0; stroke-width: 0.8; stroke-linecap: square"/>
     </g>
    </g>
    <g id="ytick_2">
     <g id="line2d_10">
      <path d="M 216.857128 179.1 
C 216.857128 174.850901 216.020149 170.643119 214.394089 166.717463 
C 212.768029 162.791807 210.384512 159.224622 207.379945 156.220055 
C 204.375378 153.215488 200.808193 150.831971 196.882537 149.205911 
C 192.956881 147.579851 188.749099 146.742872 184.5 146.742872 
C 180.250901 146.742872 176.043119 147.579851 172.117463 149.205911 
C 168.191807 150.831971 164.624622 153.215488 161.620055 156.220055 
C 158.615488 159.224622 156.231971 162.791807 154.605911 166.717463 
C 152.979851 170.643119 152.142872 174.850901 152.142872 179.1 
C 152.142872 183.349099 152.979851 187.556881 154.605911 191.482537 
C 156.231971 195.408193 158.615488 198.975378 161.620055 201.979945 
C 164.624622 204.984512 168.191807 207.368029 172.117463 208.994089 
C 176.043119 210.620149 180.250901 211.457128 184.5 211.457128 
C 188.749099 211.457128 192.956881 210.620149 196.882537 208.994089 
C 200.808193 207.368029 204.375378 204.984512 207.379945 201.979945 
C 210.384512 198.975378 212.768029 195.408193 214.394089 191.482537 
C 216.020149 187.556881 216.857128 183.349099 216.857128 179.1 
" clip-path="url(#pfb51ebe268)" style="fill: none; stroke: #b0b0b0; stroke-width: 0.8; stroke-linecap: square"/>
     </g>
    </g>
    <g id="ytick_3">
     <g id="line2d_11">
      <path d="M 233.035703 179.1 
C 233.035703 172.72635 231.780233 166.414676 229.341142 160.526191 
C 226.902052 154.637706 223.326776 149.286927 218.819924 144.780076 
C 214.313073 140.273224 208.962294 136.697948 203.073809 134.258858 
C 197.185324 131.819767 190.87365 130.564297 184.5 130.564297 
C 178.12635 130.564297 171.814676 131.819767 165.926191 134.258858 
C 160.037706 136.697948 154.686927 140.273224 150.180076 144.780076 
C 145.673224 149.286927 142.097948 154.637706 139.658858 160.526191 
C 137.219767 166.414676 135.964297 172.72635 135.964297 179.1 
C 135.964297 185.47365 137.219767 191.785324 139.658858 197.673809 
C 142.097948 203.562294 145.673224 208.913073 150.180076 213.419924 
C 154.686927 217.926776 160.037706 221.502052 165.926191 223.941142 
C 171.814676 226.380233 178.12635 227.635703 184.5 227.635703 
C 190.87365 227.635703 197.185324 226.380233 203.073809 223.941142 
C 208.962294 221.502052 214.313073 217.926776 218.819924 213.419924 
C 223.326776 208.913073 226.902052 203.562294 229.341142 197.673809 
C 231.780233 191.785324 233.035703 185.47365 233.035703 179.1 
" clip-path="url(#pfb51ebe268)" style="fill: none; stroke: #b0b0b0; stroke-width: 0.8; stroke-linecap: square"/>
     </g>
    </g>
    <g id="ytick_4">
     <g id="line2d_12">
      <path d="M 249.214277 179.1 
C 249.214277 170.601799 247.540317 162.186232 244.288196 154.334918 
C 241.036075 146.483604 236.26904 139.349232 230.259904 133.340096 
C 224.250768 127.33096 217.116396 122.563925 209.265082 119.311804 
C 201.413768 116.059683 192.998201 114.385723 184.5 114.385723 
C 176.001799 114.385723 167.586232 116.059683 159.734918 119.311804 
C 151.883604 122.563925 144.749232 127.33096 138.740096 133.340096 
C 132.73096 139.349232 127.963925 146.483604 124.711804 154.334918 
C 121.459683 162.186232 119.785723 170.601799 119.785723 179.1 
C 119.785723 187.598201 121.459683 196.013768 124.711804 203.865082 
C 127.963925 211.716396 132.73096 218.850768 138.740096 224.859904 
C 144.749232 230.86904 151.883604 235.636075 159.734918 238.888196 
C 167.586232 242.140317 176.001799 243.814277 184.5 243.814277 
C 192.998201 243.814277 201.413768 242.140317 209.265082 238.888196 
C 217.116396 235.636075 224.250768 230.86904 230.259904 224.859904 
C 236.26904 218.850768 241.036075 211.716396 244.288196 203.865082 
C 247.540317 196.013768 249.214277 187.598201 249.214277 179.1 
" clip-path="url(#pfb51ebe268)" style="fill: none; stroke: #b0b0b0; stroke-width: 0.8; stroke-linecap: square"/>
     </g>
    </g>
    <g id="ytick_5">
     <g id="line2d_13">
      <path d="M 265.392851 179.1 
C 265.392851 168.477248 263.300401 157.957789 259.235249 148.143646 
C 255.170098 138.329503 249.211303 129.411536 241.699884 121.900116 
C 234.188464 114.388697 225.270497 108.429902 215.456354 104.364751 
C 205.642211 100.299599 195.122752 98.207149 184.5 98.207149 
C 173.877248 98.207149 163.357789 100.299599 153.543646 104.364751 
C 143.729503 108.429902 134.811536 114.388697 127.300116 121.900116 
C 119.788697 129.411536 113.829902 138.329503 109.764751 148.143646 
C 105.699599 157.957789 103.607149 168.477248 103.607149 179.1 
C 103.607149 189.722752 105.699599 200.242211 109.764751 210.056354 
C 113.829902 219.870497 119.788697 228.788464 127.300116 236.299884 
C 134.811536 243.811303 143.729503 249.770098 153.543646 253.835249 
C 163.357789 257.900401 173.877248 259.992851 184.5 259.992851 
C 195.122752 259.992851 205.642211 257.900401 215.456354 253.835249 
C 225.270497 249.770098 234.188464 243.811303 241.699884 236.299884 
C 249.211303 228.788464 255.170098 219.870497 259.235249 210.056354 
C 263.300401 200.242211 265.392851 189.722752 265.392851 179.1 
" clip-path="url(#pfb51ebe268)" style="fill: none; stroke: #b0b0b0; stroke-width: 0.8; stroke-linecap: square"/>
     </g>
    </g>
    <g id="ytick_6">
     <g id="line2d_14">
      <path d="M 281.571425 179.1 
C 281.571425 166.352697 279.060485 153.729346 274.182303 141.952374 
C 269.304121 130.175402 262.153567 119.473841 253.139863 110.460137 
C 244.126159 101.446433 233.424598 94.295879 221.647626 89.417697 
C 209.870654 84.539515 197.247303 82.028575 184.5 82.028575 
C 171.752697 82.028575 159.129346 84.539515 147.352374 89.417697 
C 135.575402 94.295879 124.873841 101.446433 115.860137 110.460137 
C 106.846433 119.473841 99.695879 130.175402 94.817697 141.952374 
C 89.939515 153.729346 87.428575 166.352697 87.428575 179.1 
C 87.428575 191.847303 89.939515 204.470654 94.817697 216.247626 
C 99.695879 228.024598 106.846433 238.726159 115.860137 247.739863 
C 124.873841 256.753567 135.575402 263.904121 147.352374 268.782303 
C 159.129346 273.660485 171.752697 276.171425 184.5 276.171425 
C 197.247303 276.171425 209.870654 273.660485 221.647626 268.782303 
C 233.424598 263.904121 244.126159 256.753567 253.139863 247.739863 
C 262.153567 238.726159 269.304121 228.024598 274.182303 216.247626 
C 279.060485 204.470654 281.571425 191.847303 281.571425 179.1 
" clip-path="url(#pfb51ebe268)" style="fill: none; stroke: #b0b0b0; stroke-width: 0.8; stroke-linecap: square"/>
     </g>
    </g>
    <g id="ytick_7">
     <g id="line2d_15">
      <path d="M 297.749999 179.1 
C 297.749999 164.228146 294.820569 149.500903 289.129357 135.761101 
C 283.438145 122.0213 275.095831 109.536146 264.579843 99.020157 
C 254.063854 88.504169 241.5787 80.161855 227.838899 74.470643 
C 214.099097 68.779431 199.371854 65.850001 184.5 65.850001 
C 169.628146 65.850001 154.900903 68.779431 141.161101 74.470643 
C 127.4213 80.161855 114.936146 88.504169 104.420157 99.020157 
C 93.904169 109.536146 85.561855 122.0213 79.870643 135.761101 
C 74.179431 149.500903 71.250001 164.228146 71.250001 179.1 
C 71.250001 193.971854 74.179431 208.699097 79.870643 222.438899 
C 85.561855 236.1787 93.904169 248.663854 104.420157 259.179843 
C 114.936146 269.695831 127.4213 278.038145 141.161101 283.729357 
C 154.900903 289.420569 169.628146 292.349999 184.5 292.349999 
C 199.371854 292.349999 214.099097 289.420569 227.838899 283.729357 
C 241.5787 278.038145 254.063854 269.695831 264.579843 259.179843 
C 275.095831 248.663854 283.438145 236.1787 289.129357 222.438899 
C 294.820569 208.699097 297.749999 193.971854 297.749999 179.1 
" clip-path="url(#pfb51ebe268)" style="fill: none; stroke: #b0b0b0; stroke-width: 0.8; stroke-linecap: square"/>
     </g>
    </g>
    <g id="ytick_8">
     <g id="line2d_16">
      <path d="M 313.928574 179.1 
C 313.928574 162.103595 310.580653 145.272459 304.07641 129.569829 
C 297.572168 113.867199 288.038095 99.598451 276.019822 87.580178 
C 264.001549 75.561905 249.732801 66.027832 234.030171 59.52359 
C 218.327541 53.019347 201.496405 49.671426 184.5 49.671426 
C 167.503595 49.671426 150.672459 53.019347 134.969829 59.52359 
C 119.267199 66.027832 104.998451 75.561905 92.980178 87.580178 
C 80.961905 99.598451 71.427832 113.867199 64.92359 129.569829 
C 58.419347 145.272459 55.071426 162.103595 55.071426 179.1 
C 55.071426 196.096405 58.419347 212.927541 64.92359 228.630171 
C 71.427832 244.332801 80.961905 258.601549 92.980178 270.619822 
C 104.998451 282.638095 119.267199 292.172168 134.969829 298.67641 
C 150.672459 305.180653 167.503595 308.528574 184.5 308.528574 
C 201.496405 308.528574 218.327541 305.180653 234.030171 298.67641 
C 249.732801 292.172168 264.001549 282.638095 276.019822 270.619822 
C 288.038095 258.601549 297.572168 244.332801 304.07641 228.630171 
C 310.580653 212.927541 313.928574 196.096405 313.928574 179.1 
" clip-path="url(#pfb51ebe268)" style="fill: none; stroke: #b0b0b0; stroke-width: 0.8; stroke-linecap: square"/>
     </g>
    </g>
   </g>
   <g id="line2d_17">
    <path d="M 249.214277 179.1 
L 254.412487 177.561527 
L 259.537914 175.795876 
L 264.54951 173.808529 
L 269.407015 171.6081 
L 274.071343 169.206245 
L 278.504944 166.617538 
L 282.672157 163.859313 
L 286.539543 160.951471 
L 290.076195 157.916261 
L 293.254022 154.778034 
L 296.048006 151.562969 
L 298.436428 148.298782 
L 300.401061 145.014412 
L 301.927324 141.739694 
L 303.00441 138.505023 
L 303.625361 135.341004 
L 303.763679 133.795025 
L 303.787121 132.278104 
L 303.695916 130.793969 
L 303.490534 129.346298 
L 303.171685 127.938704 
L 302.740319 126.574726 
L 302.197616 125.257821 
L 301.544992 123.991349 
L 300.784088 122.778569 
L 299.916765 121.622622 
L 298.945104 120.526529 
L 297.871393 119.493178 
L 296.698128 118.525313 
L 295.428 117.625532 
L 292.608864 116.039808 
L 289.439177 114.753484 
L 285.946769 113.781173 
L 282.161818 113.134425 
L 278.11653 112.82157 
L 273.8448 112.847582 
L 269.381866 113.213995 
L 264.763944 113.91884 
L 260.027858 114.956628 
L 255.210665 116.318367 
L 250.349286 117.99162 
L 245.480134 119.960593 
L 240.638752 122.206268 
L 235.859465 124.706564 
L 231.175048 127.436537 
L 226.616408 130.368605 
L 222.212291 133.472806 
L 217.989014 136.717088 
L 213.970227 140.06761 
L 210.176699 143.489074 
L 206.626142 146.945071 
L 203.333068 150.39844 
L 200.308677 153.811638 
L 197.560788 157.147117 
L 193.966086 161.92348 
L 191.003098 166.319578 
L 188.65542 170.220067 
L 186.890538 173.51885 
L 185.359927 176.820097 
L 184.500447 179.098466 
L 184.717355 178.210526 
L 185.177928 175.679538 
L 185.546878 172.720821 
L 185.830936 168.892419 
L 185.939751 164.250223 
L 185.789495 158.867918 
L 185.305151 152.835484 
L 184.764472 148.503709 
L 184.030599 143.963197 
L 183.090296 139.250106 
L 181.933205 134.402361 
L 180.551977 129.459286 
L 178.942382 124.461241 
L 177.103369 119.449235 
L 175.037103 114.46454 
L 172.748952 109.5483 
L 170.247454 104.74114 
L 167.54423 100.08279 
L 164.653877 95.611704 
L 161.593817 91.364703 
L 158.384119 87.376632 
L 155.047288 83.680039 
L 151.608024 80.30487 
L 148.092961 77.278205 
L 144.530375 74.624006 
L 140.949881 72.362912 
L 137.382102 70.512061 
L 133.85834 69.084943 
L 130.41022 68.091301 
L 127.069345 67.53706 
L 123.866936 67.4243 
L 122.327222 67.533076 
L 120.83348 67.751266 
L 119.389351 68.07806 
L 117.998384 68.512416 
L 116.664032 69.053062 
L 115.389637 69.698505 
L 114.178422 70.447031 
L 113.033482 71.296713 
L 111.957776 72.245415 
L 110.954113 73.290799 
L 110.025151 74.430333 
L 109.173381 75.661295 
L 108.401128 76.980785 
L 107.710536 78.38573 
L 106.581979 81.438879 
L 105.80106 84.793049 
L 105.377897 88.418372 
L 105.319225 92.283137 
L 105.628294 96.354123 
L 106.304784 100.596954 
L 107.344777 104.976457 
L 108.740751 109.457037 
L 110.481617 114.003038 
L 112.552799 118.579112 
L 114.936344 123.150582 
L 117.611069 127.683792 
L 120.552744 132.14644 
L 123.734311 136.507905 
L 127.126126 140.739544 
L 130.696233 144.814965 
L 134.410669 148.710283 
L 138.233779 152.404341 
L 142.128563 155.878894 
L 146.057029 159.118774 
L 149.980565 162.112011 
L 153.860315 164.849916 
L 157.657559 167.327138 
L 163.115403 170.550713 
L 168.177132 173.191221 
L 172.725343 175.272136 
L 176.652614 176.832289 
L 180.76093 178.195645 
L 183.833557 178.977141 
L 184.491293 179.098788 
L 183.483765 179.003889 
L 180.81734 178.91464 
L 177.768055 178.983611 
L 173.874697 179.266999 
L 169.206803 179.84566 
L 163.850465 180.791294 
L 157.906497 182.164409 
L 153.672932 183.341376 
L 149.26457 184.740362 
L 144.719264 186.368967 
L 140.076154 188.23168 
L 135.375301 190.329799 
L 130.657297 192.661391 
L 125.96288 195.22128 
L 121.332545 198.001079 
L 116.806161 200.989254 
L 112.422589 204.171224 
L 108.21932 207.5295 
L 104.23212 211.043849 
L 100.4947 214.691502 
L 97.038402 218.447377 
L 93.891915 222.284342 
L 91.081014 226.173493 
L 88.628333 230.08446 
L 86.553168 233.985725 
L 84.871317 237.844964 
L 83.594956 241.629388 
L 82.732547 245.306101 
L 82.288791 248.842461 
L 82.264616 252.206433 
L 82.657201 255.366949 
L 83.007888 256.861551 
L 83.460044 258.294252 
L 84.012298 259.661592 
L 84.663062 260.960234 
L 85.41054 262.186975 
L 86.252729 263.338752 
L 87.187429 264.412656 
L 88.212246 265.405934 
L 89.324605 266.316004 
L 90.521749 267.140456 
L 91.800755 267.877067 
L 93.158539 268.523799 
L 94.591862 269.078814 
L 97.671479 269.907349 
L 101.011025 270.352089 
L 104.580107 270.405912 
L 108.346851 270.065272 
L 112.278252 269.330271 
L 116.34053 268.2047 
L 120.49949 266.69604 
L 124.720892 264.815421 
L 128.970807 262.577551 
L 133.215972 260.000598 
L 137.424142 257.106046 
L 141.564416 253.918509 
L 145.607555 250.465513 
L 149.526277 246.777251 
L 153.295528 242.886305 
L 156.892726 238.827344 
L 160.297983 234.636802 
L 163.494284 230.352532 
L 166.467644 226.013445 
L 169.207226 221.659143 
L 171.705423 217.329531 
L 173.957906 213.06444 
L 175.963633 208.903236 
L 177.724822 204.884439 
L 179.920794 199.20442 
L 181.610675 194.047187 
L 182.840252 189.520933 
L 183.668456 185.720836 
L 184.271293 181.919583 
L 184.499974 179.106695 
L 184.557771 180.230082 
L 184.869599 182.975489 
L 185.394974 186.049153 
L 186.25854 189.922109 
L 187.529611 194.512779 
L 189.265938 199.724648 
L 191.511976 205.448405 
L 193.307841 209.489862 
L 195.348758 213.668289 
L 197.636484 217.945023 
L 200.169507 222.280606 
L 202.943027 226.635175 
L 205.948974 230.968843 
L 209.176054 235.242086 
L 212.609841 239.416118 
L 216.232901 243.45327 
L 220.024948 247.317339 
L 223.963032 250.973934 
L 228.021766 254.390796 
L 232.173572 257.538098 
L 236.388954 260.388715 
L 240.636799 262.918467 
L 244.884696 265.106335 
L 249.099267 266.934634 
L 253.246515 268.389165 
L 257.292183 269.459312 
L 261.202116 270.138121 
L 264.942621 270.42233 
L 268.480832 270.312361 
L 271.785068 269.812275 
L 274.825172 268.929697 
L 276.237252 268.348301 
L 277.572852 267.675692 
L 278.828777 266.913768 
L 280.001987 266.064618 
L 281.089607 265.130521 
L 282.088932 264.113936 
L 282.997436 263.017495 
L 283.812781 261.843996 
L 284.532822 260.596393 
L 285.155614 259.27779 
L 285.679422 257.89143 
L 286.102717 256.440684 
L 286.424192 254.929047 
L 286.757553 251.73761 
L 286.673523 248.347082 
L 286.169815 244.788693 
L 285.247894 241.094584 
L 283.913 237.297457 
L 282.174131 233.430214 
L 280.043985 229.525599 
L 277.538868 225.615842 
L 274.678564 221.732318 
L 271.48617 217.905205 
L 267.987891 214.163174 
L 264.212811 210.53308 
L 260.192628 207.03969 
L 255.961368 203.705424 
L 251.555063 200.550135 
L 247.011422 197.590905 
L 242.369473 194.841887 
L 237.669198 192.314173 
L 232.951149 190.015693 
L 228.256067 187.951161 
L 223.624494 186.122047 
L 219.096381 184.526593 
L 214.710708 183.15986 
L 210.505111 182.013814 
L 204.612404 180.683676 
L 199.317504 179.775789 
L 194.719914 179.228498 
L 190.904222 178.96914 
L 187.147644 178.929163 
L 184.500774 179.09989 
L 185.276039 178.954413 
L 187.654062 178.363324 
L 191.51458 177.132539 
L 195.279493 175.689077 
L 199.689178 173.736225 
L 204.638959 171.231675 
L 208.182305 169.241377 
L 211.878397 166.989321 
L 215.689783 164.474659 
L 219.578166 161.699872 
L 223.504784 158.670791 
L 227.430792 155.396577 
L 231.317643 151.889664 
L 235.127466 148.165669 
L 238.82343 144.24326 
L 242.370103 140.143999 
L 245.733788 135.892143 
L 248.882843 131.51442 
L 251.787976 127.039774 
L 254.422518 122.499086 
L 256.762663 117.92487 
L 258.787679 113.350949 
L 260.480087 108.812119 
L 261.825802 104.343793 
L 262.814243 99.981641 
L 263.438401 95.761221 
L 263.69487 91.717613 
L 263.583848 87.885052 
L 263.109083 84.296562 
L 262.277806 80.983615 
L 261.100603 77.975783 
L 260.38647 76.594931 
L 259.591271 75.300428 
L 258.717203 74.0953 
L 257.766636 72.982396 
L 256.742111 71.964385 
L 255.64633 71.043745 
L 254.482147 70.222756 
L 253.252558 69.503495 
L 251.960698 68.887828 
L 250.609825 68.377408 
L 249.203312 67.973665 
L 247.744641 67.677804 
L 246.23739 67.490803 
L 244.68522 67.413405 
L 241.461142 67.589215 
L 238.103023 68.206444 
L 234.642158 69.262464 
L 231.110175 70.7508 
L 227.538675 72.66117 
L 223.958884 74.979553 
L 220.401302 77.688305 
L 216.895371 80.766299 
L 213.469152 84.189113 
L 210.149019 87.929244 
L 206.959375 91.956354 
L 203.92239 96.23755 
L 201.057767 100.737685 
L 198.382535 105.419681 
L 195.910874 110.244881 
L 193.653972 115.173404 
L 191.619916 120.164527 
L 189.81362 125.177063 
L 188.236787 130.169755 
L 186.887912 135.101662 
L 185.762311 139.932551 
L 184.852202 144.623271 
L 184.146804 149.136133 
L 183.632483 153.435255 
L 183.182906 159.410059 
L 183.06071 164.72551 
L 183.189947 169.293107 
L 183.486065 173.040799 
L 183.98287 176.671474 
L 184.499824 179.099404 
L 184.211741 178.260669 
L 183.243404 175.90598 
L 181.965294 173.233283 
L 180.146728 169.872927 
L 177.741605 165.920502 
L 174.718899 161.483095 
L 171.063789 156.676794 
L 168.27605 153.327923 
L 165.212718 149.906683 
L 161.882096 146.450645 
L 158.295865 142.99732 
L 154.469 139.583784 
L 150.419659 136.246308 
L 146.169036 133.020004 
L 141.741173 129.938476 
L 137.162751 127.033498 
L 132.462842 124.334706 
L 127.672639 121.869321 
L 122.825156 119.661893 
L 117.954913 117.734074 
L 113.097602 116.104434 
L 108.289728 114.788291 
L 103.568255 113.797597 
L 98.97023 113.140846 
L 94.532412 112.823023 
L 90.290901 112.845595 
L 86.280764 113.206534 
L 82.535677 113.900377 
L 79.087576 114.918328 
L 75.966322 116.248387 
L 73.199387 117.87552 
L 71.956648 118.795009 
L 70.811561 119.781856 
L 69.766762 120.83342 
L 68.824687 121.946914 
L 67.987566 123.119413 
L 67.257419 124.34786 
L 66.636043 125.629078 
L 66.125017 126.95978 
L 65.725688 128.336576 
L 65.439172 129.755986 
L 65.26635 131.214447 
L 65.207864 132.708327 
L 65.264115 134.233933 
L 65.435261 135.787523 
L 66.121653 138.963507 
L 67.263423 142.205772 
L 68.853062 145.48372 
L 70.879215 148.767016 
L 73.326774 152.025932 
L 76.177001 155.231685 
L 79.407695 158.356759 
L 82.993383 161.375218 
L 86.905556 164.262996 
L 91.112927 166.998165 
L 95.58172 169.561177 
L 100.275984 171.935083 
L 105.157926 174.105716 
L 110.188271 176.061847 
L 115.326623 177.795306 
L 120.531851 179.301063 
L 125.762472 180.577285 
L 130.977047 181.625343 
L 136.134565 182.449792 
L 141.194831 183.058311 
L 146.118846 183.461609 
L 150.869169 183.673292 
L 155.410265 183.709705 
L 161.757461 183.477649 
L 167.45823 182.967539 
L 172.426153 182.262411 
L 176.591477 181.452867 
L 180.81006 180.377002 
L 183.849897 179.365847 
L 184.494356 179.102604 
L 183.61925 179.55427 
L 181.349184 180.904847 
L 178.83516 182.598109 
L 175.724886 184.927257 
L 172.120349 187.923064 
L 168.132574 191.599673 
L 163.878977 195.953863 
L 160.955274 199.223499 
L 158.003384 202.774812 
L 155.059269 206.59384 
L 152.158311 210.663303 
L 149.334947 214.962738 
L 146.62233 219.468665 
L 144.051989 224.154794 
L 141.653524 228.992255 
L 139.454316 233.949862 
L 137.479259 238.994398 
L 135.750528 244.090932 
L 134.287373 249.203146 
L 133.105944 254.293687 
L 132.219156 259.324526 
L 131.636583 264.257332 
L 131.364394 269.053844 
L 131.405323 273.676256 
L 131.758673 278.087589 
L 132.420367 282.252062 
L 133.383027 286.135454 
L 134.636087 289.705448 
L 136.165949 292.931963 
L 137.956166 295.787463 
L 139.987648 298.247238 
L 141.087236 299.321846 
L 142.238911 300.289669 
L 143.439657 301.148523 
L 144.686342 301.896446 
L 145.975728 302.5317 
L 147.304481 303.052776 
L 148.669183 303.4584 
L 150.066336 303.747535 
L 151.49238 303.919385 
L 152.9437 303.973399 
L 154.416634 303.909269 
L 155.907489 303.726933 
L 157.412548 303.42658 
L 160.450366 302.473797 
L 163.500317 301.057343 
L 166.532967 299.187534 
L 169.519557 296.878495 
L 172.432337 294.14804 
L 175.244892 291.01751 
L 177.932442 287.511579 
L 180.472132 283.658028 
L 182.843294 279.487483 
L 185.027689 275.033134 
L 187.009715 270.330421 
L 188.776588 265.416699 
L 190.318497 260.330888 
L 191.62871 255.113106 
L 192.703662 249.804287 
L 193.542998 244.445797 
L 194.149577 239.079045 
L 194.529448 233.745091 
L 194.691785 228.484261 
L 194.648783 223.33577 
L 194.415529 218.337356 
L 194.009827 213.524932 
L 193.452007 208.932253 
L 192.764689 204.590611 
L 191.545334 198.610462 
L 190.180831 193.342096 
L 188.768077 188.852157 
L 187.408047 185.189251 
L 185.853607 181.640517 
L 184.505023 179.107897 
L 185.140661 179.994443 
L 186.868359 182.116785 
L 188.956856 184.406768 
L 191.761487 187.188526 
L 195.296837 190.356122 
L 199.559701 193.79725 
L 204.528769 197.395964 
L 208.215138 199.824926 
L 212.182285 202.23773 
L 216.410891 204.600872 
L 220.878452 206.881934 
L 225.559473 209.049924 
L 230.425684 211.075589 
L 235.446295 212.931714 
L 240.58827 214.59339 
L 245.816632 216.038266 
L 251.094789 217.246763 
L 256.384879 218.202255 
L 261.648128 218.891228 
L 266.845219 219.303394 
L 271.936674 219.431771 
L 276.883233 219.27273 
L 281.646239 218.826002 
L 286.188015 218.094649 
L 290.472233 217.084999 
L 294.464275 215.806544 
L 298.131575 214.271804 
L 301.443943 212.49616 
L 304.373867 210.497651 
L 306.89679 208.29675 
L 308.991359 205.916107 
L 309.872266 204.665988 
L 310.639638 203.380272 
L 311.291795 202.062276 
L 311.827297 200.715396 
L 312.24494 199.343101 
L 312.543761 197.948917 
L 312.723043 196.536422 
L 312.782316 195.109232 
L 312.721357 193.670989 
L 312.540192 192.225356 
L 312.239096 190.775999 
L 311.818592 189.326581 
L 311.279452 187.88075 
L 309.849575 185.014297 
L 307.960508 182.205108 
L 305.627087 179.480724 
L 302.867809 176.867439 
L 299.70465 174.389986 
L 296.162865 172.071244 
L 292.270745 169.931968 
L 288.05935 167.990538 
L 283.562208 166.262736 
L 278.815001 164.761561 
L 273.855222 163.497058 
L 268.721817 162.4762 
L 263.454813 161.702786 
L 258.094938 161.177391 
L 252.683234 160.897336 
L 247.26067 160.856713 
L 241.86775 161.046429 
L 236.544139 161.454297 
L 231.328285 162.065158 
L 226.257068 162.86104 
L 221.365454 163.821344 
L 216.68618 164.923064 
L 212.249455 166.141039 
L 208.082692 167.448217 
L 202.391168 169.513234 
L 197.42955 171.612526 
L 193.2486 173.640488 
L 189.880603 175.490253 
L 186.674951 177.497766 
L 184.501398 179.098793 
L 185.055474 178.576335 
L 186.72 176.814498 
L 189.289449 173.714195 
L 191.669316 170.481327 
L 194.318575 166.471092 
L 197.12634 161.704092 
L 199.031033 158.124189 
L 200.92376 154.240923 
L 202.772525 150.073719 
L 204.546412 145.645268 
L 206.215914 140.981333 
L 207.753243 136.110536 
L 209.132625 131.064095 
L 210.330565 125.875552 
L 211.326087 120.580466 
L 212.100948 115.216081 
L 212.639817 109.820985 
L 212.930425 104.434744 
L 212.963673 99.09753 
L 212.733716 93.84974 
L 212.237998 88.731607 
L 211.477257 83.78282 
L 210.455495 79.042137 
L 209.179908 74.54701 
L 207.660781 70.33323 
L 205.911348 66.43457 
L 203.947624 62.882464 
L 201.788201 59.705695 
L 199.454019 56.930119 
L 196.968108 54.578409 
L 194.355311 52.669834 
L 193.009515 51.886766 
L 191.641982 51.220071 
L 190.256191 50.671122 
L 188.855675 50.241051 
L 187.444011 49.930744 
L 186.02481 49.740841 
L 184.601704 49.671735 
L 183.178337 49.723567 
L 181.758355 49.896232 
L 180.345393 50.189371 
L 178.943064 50.602382 
L 177.554952 51.134412 
L 176.184597 51.784364 
L 174.835485 52.550901 
L 172.214617 54.42718 
L 169.718799 56.747835 
L 167.372992 59.493848 
L 165.200366 62.642781 
L 163.222017 66.168999 
L 161.456715 70.043918 
L 159.920664 74.236283 
L 158.627305 78.712478 
L 157.587137 83.436847 
L 156.807581 88.372041 
L 156.292869 93.479385 
L 156.043974 98.719244 
L 156.058578 104.05141 
L 156.331066 109.435487 
L 156.852572 114.831272 
L 157.61105 120.199143 
L 158.591382 125.500433 
L 159.775527 130.697786 
L 161.1427 135.755516 
L 162.669577 140.639924 
L 164.330536 145.319616 
L 166.097927 149.765777 
L 167.942354 153.952431 
L 169.832991 157.856663 
L 172.685527 163.14138 
L 175.459419 167.695343 
L 178.042919 171.484764 
L 180.325879 174.49434 
L 182.720398 177.302125 
L 184.499933 179.099942 
L 183.825883 178.566483 
L 181.761489 177.122167 
L 179.259195 175.572085 
L 175.930394 173.733457 
L 171.787574 171.711559 
L 166.862122 169.613249 
L 161.20394 167.544252 
L 157.05743 166.231781 
L 152.639114 165.006517 
L 147.976194 163.895634 
L 143.098691 162.924439 
L 138.039167 162.1161 
L 132.832442 161.491395 
L 127.515269 161.068491 
L 122.125997 160.862752 
L 116.704215 160.886584 
L 111.29038 161.149302 
L 105.925441 161.657046 
L 100.650446 162.412725 
L 95.50616 163.415996 
L 90.532673 164.66329 
L 85.76902 166.147858 
L 81.25281 167.859868 
L 77.019864 169.786531 
L 73.103878 171.912255 
L 69.536097 174.218839 
L 66.345018 176.685691 
L 63.556122 179.290073 
L 61.191628 182.007377 
L 59.270284 184.81141 
L 57.807196 187.674707 
L 57.251185 189.119729 
L 56.813681 190.568858 
L 56.495488 192.018447 
L 56.297168 193.464837 
L 56.219029 194.90436 
L 56.261134 196.333353 
L 56.423295 197.748169 
L 56.705078 199.145189 
L 57.105799 200.520828 
L 57.624532 201.871552 
L 58.260107 203.193885 
L 59.011116 204.484417 
L 59.875916 205.739821 
L 60.852631 206.956857 
L 63.13318 209.26337 
L 65.833339 211.380184 
L 68.930353 213.28555 
L 72.398366 214.960009 
L 76.208684 216.386633 
L 80.330059 217.551246 
L 84.729006 218.442606 
L 89.37013 219.052563 
L 94.216481 219.376178 
L 99.229916 219.411812 
L 104.371472 219.161171 
L 109.601749 218.629324 
L 114.881293 217.824678 
L 120.170972 216.758916 
L 125.432359 215.446902 
L 130.628092 213.906548 
L 135.72223 212.158645 
L 140.680591 210.22667 
L 145.471065 208.136551 
L 150.063908 205.916411 
L 154.432011 203.596286 
L 158.551137 201.20782 
L 162.400125 198.783937 
L 167.628851 195.155957 
L 172.164241 191.641017 
L 175.978097 188.355718 
L 179.060331 185.414078 
L 182.048024 182.213209 
L 184.081978 179.695392 
L 184.497802 179.103443 
L 184.01873 179.932577 
L 182.848598 182.27113 
L 181.653657 185.03604 
L 180.298691 188.658669 
L 178.886137 193.110182 
L 177.517097 198.342852 
L 176.28872 204.290871 
L 175.593073 208.613457 
L 175.025228 213.189211 
L 174.607958 217.987031 
L 174.361764 222.973327 
L 174.304639 228.11233 
L 174.45187 233.366421 
L 174.815862 238.696478 
L 175.40601 244.062242 
L 176.228587 249.422693 
L 177.286683 254.736435 
L 178.580173 259.962085 
L 180.105717 265.058664 
L 181.856812 269.985986 
L 183.823859 274.70503 
L 185.994283 279.178319 
L 188.35268 283.370265 
L 190.88099 287.247507 
L 193.558712 290.779224 
L 196.363139 293.937425 
L 199.269619 296.697205 
L 202.251842 299.036978 
L 205.282146 300.938674 
L 208.331832 302.387899 
L 211.371501 303.37406 
L 212.878286 303.691244 
L 214.371397 303.890456 
L 215.847118 303.971475 
L 217.301751 303.934326 
L 218.731628 303.779281 
L 220.133129 303.506858 
L 221.502682 303.117818 
L 222.836782 302.613162 
L 224.131998 301.994133 
L 225.384983 301.262204 
L 226.592486 300.419082 
L 227.751359 299.466698 
L 228.858568 298.407203 
L 230.906488 295.976559 
L 232.714601 293.148541 
L 234.263638 289.947645 
L 235.536956 286.401216 
L 236.520745 282.539163 
L 237.20422 278.393653 
L 237.57977 273.998783 
L 237.643077 269.390233 
L 237.393204 264.604911 
L 236.832638 259.680575 
L 235.967302 254.655466 
L 234.80653 249.567923 
L 233.363 244.456007 
L 231.652636 239.357135 
L 229.694472 234.307708 
L 227.51048 229.342768 
L 225.125368 224.495665 
L 222.566347 219.79774 
L 219.862867 215.278037 
L 217.046332 210.96304 
L 214.149787 206.876435 
L 211.207591 203.038907 
L 208.255069 199.467969 
L 205.328153 196.177823 
L 201.064899 191.791747 
L 197.061764 188.08266 
L 193.436399 185.054619 
L 190.300194 182.694296 
L 187.055027 180.531741 
L 184.511312 179.10524 
L 185.493525 179.495389 
L 188.068389 180.341219 
L 191.044253 181.136885 
L 194.889204 181.961215 
L 199.558647 182.717139 
L 204.989556 183.311793 
L 211.101676 183.658989 
L 215.508109 183.714405 
L 220.143088 183.605046 
L 224.972321 183.313088 
L 229.959413 182.823339 
L 235.066212 182.123415 
L 240.253161 181.203894 
L 245.479668 180.058424 
L 250.704493 178.683811 
L 255.886127 177.080056 
L 260.983193 175.250366 
L 265.954826 173.201124 
L 270.761066 170.941825 
L 275.363228 168.484973 
L 279.724266 165.845948 
L 283.809121 163.042837 
L 287.585047 160.096237 
L 291.021914 157.029024 
L 294.092484 153.866098 
L 296.77266 150.634111 
L 299.041703 147.361159 
L 300.882412 144.076471 
L 302.281275 140.810079 
L 303.228576 137.59247 
L 303.718471 134.454249 
L 303.791131 132.924415 
L 303.749017 131.425775 
L 303.592496 129.96203 
L 303.322173 128.536822 
L 302.938897 127.153724 
L 302.44375 125.816227 
L 301.838048 124.527736 
L 301.123334 123.291553 
L 300.301377 122.110872 
L 299.374164 120.988766 
L 298.343895 119.92818 
L 297.212978 118.931923 
L 295.984021 118.002656 
L 293.243376 116.354954 
L 290.146549 115.003142 
L 286.720831 113.962464 
L 282.995921 113.245139 
L 279.003618 112.860201 
L 274.777485 112.813351 
L 270.352502 113.106867 
L 265.764707 113.739533 
L 261.050824 114.706614 
L 256.247893 115.999866 
L 251.392895 117.607583 
L 246.522381 119.51468 
L 241.672111 121.702819 
L 236.876702 124.15056 
L 232.169286 126.833552 
L 227.581196 129.724759 
L 223.141664 132.794706 
L 218.877551 136.011764 
L 214.813095 139.342447 
L 210.969699 142.751741 
L 207.365745 146.203447 
L 204.016439 149.660532 
L 200.933699 153.085505 
L 198.126072 156.440786 
L 194.440764 161.261639 
L 191.388148 165.719306 
L 188.954195 169.697335 
L 187.108629 173.088152 
L 185.482647 176.531473 
L 184.500955 179.096782 
L 184.773499 177.949449 
L 185.250396 175.185011 
L 185.610365 172.057198 
L 185.867842 168.068917 
L 185.933535 163.279545 
L 185.725121 157.765999 
L 185.397357 153.73325 
L 184.896092 149.450714 
L 184.204827 144.951953 
L 183.309732 140.272706 
L 182.199818 135.450547 
L 180.867083 130.524532 
L 179.306621 125.53483 
L 177.516697 120.522344 
L 175.498785 115.528323 
L 173.257569 110.59397 
L 170.800913 105.760055 
L 168.139787 101.066532 
L 165.28816 96.552157 
L 162.262863 92.254131 
L 159.083416 88.207753 
L 155.771819 84.446086 
L 152.352325 80.999659 
L 148.851175 77.896187 
L 145.296321 75.160321 
L 141.717115 72.813426 
L 138.143995 70.873404 
L 134.608143 69.354537 
L 131.141148 68.267377 
L 127.774646 67.618673 
L 124.539968 67.411328 
L 122.981685 67.473021 
L 121.46779 67.644405 
L 120.001959 67.924769 
L 118.587779 68.313169 
L 117.228748 68.808432 
L 115.928255 69.409159 
L 114.689576 70.11373 
L 113.515862 70.920309 
L 112.410131 71.826849 
L 111.375258 72.831096 
L 110.413967 73.930603 
L 109.52882 75.122727 
L 108.722216 76.404643 
L 107.996375 77.773351 
L 106.794954 80.758313 
L 105.938577 84.050423 
L 105.438067 87.620254 
L 105.300897 91.436461 
L 105.531068 95.466117 
L 106.129032 99.675063 
L 107.091643 104.028267 
L 108.412148 108.490193 
L 110.080218 113.025166 
L 112.082017 117.597744 
L 114.400302 122.173074 
L 117.01457 126.717252 
L 119.901227 131.197661 
L 123.0338 135.583291 
L 126.383178 139.845052 
L 129.917875 143.956048 
L 133.604332 147.891837 
L 137.407229 151.63066 
L 141.289824 155.153633 
L 145.214308 158.444919 
L 149.142169 161.491853 
L 153.034572 164.285036 
L 156.852735 166.818401 
L 160.558316 169.089226 
L 165.823828 172.005438 
L 170.630641 174.3489 
L 174.866262 176.151267 
L 178.429487 177.458916 
L 181.985286 178.537604 
L 184.5 179.1 
L 183.671701 179.017721 
L 181.18081 178.917242 
L 177.089653 179.018475 
L 175.829948 179.1 
L 175.829948 179.1 
" clip-path="url(#pfb51ebe268)" style="fill: none; stroke: #1f77b4; stroke-width: 1.5; stroke-linecap: square"/>
   </g>
   <g id="patch_3">
    <path d="M 320.4 179.1 
C 320.4 161.253776 316.884683 143.581083 310.055228 127.093322 
C 303.225774 110.60556 293.214998 95.623375 280.595812 83.004188 
C 267.976625 70.385002 252.99444 60.374226 236.506678 53.544772 
C 220.018917 46.715317 202.346224 43.2 184.5 43.2 
C 166.653776 43.2 148.981083 46.715317 132.493322 53.544772 
C 116.00556 60.374226 101.023375 70.385002 88.404188 83.004188 
C 75.785002 95.623375 65.774226 110.60556 58.944772 127.093322 
C 52.115317 143.581083 48.6 161.253776 48.6 179.1 
C 48.6 196.946224 52.115317 214.618917 58.944772 231.106678 
C 65.774226 247.59444 75.785002 262.576625 88.404188 275.195812 
C 101.023375 287.814998 116.00556 297.825774 132.493322 304.655228 
C 148.981083 311.484683 166.653776 315 184.5 315 
C 202.346224 315 220.018917 311.484683 236.506678 304.655228 
C 252.99444 297.825774 267.976625 287.814998 280.595812 275.195812 
C 293.214998 262.576625 303.225774 247.59444 310.055228 231.106678 
C 316.884683 214.618917 320.4 196.946224 320.4 179.1 
" style="fill: none; stroke: #000000; stroke-width: 0.8; stroke-linejoin: miter; stroke-linecap: square"/>
   </g>
  </g>
 </g>
 <defs>
  <clipPath id="pfb51ebe268">
   <path d="M 320.4 179.1 
C 320.4 161.253776 316.884683 143.581083 310.055228 127.093322 
C 303.225774 110.60556 293.214998 95.623375 280.595812 83.004188 
C 267.976625 70.385002 252.99444 60.374226 236.506678 53.544772 
C 220.018917 46.715317 202.346224 43.2 184.5 43.2 
C 166.653776 43.2 148.981083 46.715317 132.493322 53.544772 
C 116.00556 60.374226 101.023375 70.385002 88.404188 83.004188 
C 75.785002 95.623375 65.774226 110.60556 58.944772 127.093322 
C 52.115317 143.581083 48.6 161.253776 48.6 179.1 
C 48.6 196.946224 52.115317 214.618917 58.944772 231.106678 
C 65.774226 247.59444 75.785002 262.576625 88.404188 275.195812 
C 101.023375 287.814998 116.00556 297.825774 132.493322 304.655228 
C 148.981083 311.484683 166.653776 315 184.5 315 
C 202.346224 315 220.018917 311.484683 236.506678 304.655228 
C 252.99444 297.825774 267.976625 287.814998 280.595812 275.195812 
C 293.214998 262.576625 303.225774 247.59444 310.055228 231.106678 
C 316.884683 214.618917 320.4 196.946224 320.4 179.1 
M 184.5 179.1 
C 184.5 179.1 184.5 179.1 184.5 179.1 
C 184.5 179.1 184.5 179.1 184.5 179.1 
C 184.5 179.1 184.5 179.1 184.5 179.1 
C 184.5 179.1 184.5 179.1 184.5 179.1 
C 184.5 179.1 184.5 179.1 184.5 179.1 
C 184.5 179.1 184.5 179.1 184.5 179.1 
C 184.5 179.1 184.5 179.1 184.5 179.1 
C 184.5 179.1 184.5 179.1 184.5 179.1 
C 184.5 179.1 184.5 179.1 184.5 179.1 
C 184.5 179.1 184.5 179.1 184.5 179.1 
C 184.5 179.1 184.5 179.1 184.5 179.1 
C 184.5 179.1 184.5 179.1 184.5 179.1 
C 184.5 179.1 184.5 179.1 184.5 179.1 
C 184.5 179.1 184.5 179.1 184.5 179.1 
C 184.5 179.1 184.5 179.1 184.5 179.1 
C 184.5 179.1 184.5 179.1 184.5 179.1 
z
"/>
  </clipPath>
 </defs>
</svg>
