<?xml version="1.0" encoding="utf-8" standalone="no"?>
<!DOCTYPE svg PUBLIC "-//W3C//DTD SVG 1.1//EN"
  "http://www.w3.org/Graphics/SVG/1.1/DTD/svg11.dtd">
<svg xmlns:xlink="http://www.w3.org/1999/xlink" width="360pt" height="360pt" viewBox="0 0 360 360" xmlns="http://www.w3.org/2000/svg" version="1.1">
 <metadata>
  <rdf:RDF xmlns:dc="http://purl.org/dc/elements/1.1/" xmlns:cc="http://creativecommons.org/ns#" xmlns:rdf="http://www.w3.org/1999/02/22-rdf-syntax-ns#">
   <cc:Work>
    <dc:type rdf:resource="http://purl.org/dc/dcmitype/StillImage"/>
    <dc:date>2024-07-19T22:07:21.645657</dc:date>
    <dc:format>image/svg+xml</dc:format>
    <dc:creator>
     <cc:Agent>
      <dc:title>Matplotlib v3.5.2, https://matplotlib.org/</dc:title>
     </cc:Agent>
    </dc:creator>
   </cc:Work>
  </rdf:RDF>
 </metadata>
 <defs>
  <style type="text/css">*{stroke-linejoin: round; stroke-linecap: butt}</style>
 </defs>
 <g id="figure_1">
  <g id="patch_1">
   <path d="M 0 360 
L 360 360 
L 360 0 
L 0 0 
z
" style="fill: #ffffff"/>
  </g>
  <g id="axes_1">
   <g id="patch_2">
    <path d="M 320.4 179.1 
C 320.4 161.253776 316.884683 143.581083 310.055228 127.093322 
C 303.225774 110.60556 293.214998 95.623375 280.595812 83.004188 
C 267.976625 70.385002 252.99444 60.374226 236.506678 53.544772 
C 220.018917 46.715317 202.346224 43.2 184.5 43.2 
C 166.653776 43.2 148.981083 46.715317 132.493322 53.544772 
C 116.00556 60.374226 101.023375 70.385002 88.404188 83.004188 
C 75.785002 95.623375 65.774226 110.60556 58.944772 127.093322 
C 52.115317 143.581083 48.6 161.253776 48.6 179.1 
C 48.6 196.946224 52.115317 214.618917 58.944772 231.106678 
C 65.774226 247.59444 75.785002 262.576625 88.404188 275.195812 
C 101.023375 287.814998 116.00556 297.825774 132.493322 304.655228 
C 148.981083 311.484683 166.653776 315 184.5 315 
C 202.346224 315 220.018917 311.484683 236.506678 304.655228 
C 252.99444 297.825774 267.976625 287.814998 280.595812 275.195812 
C 293.214998 262.576625 303.225774 247.59444 310.055228 231.106678 
C 316.884683 214.618917 320.4 196.946224 320.4 179.1 
M 184.5 179.1 
C 184.5 179.1 184.5 179.1 184.5 179.1 
C 184.5 179.1 184.5 179.1 184.5 179.1 
C 184.5 179.1 184.5 179.1 184.5 179.1 
C 184.5 179.1 184.5 179.1 184.5 179.1 
C 184.5 179.1 184.5 179.1 184.5 179.1 
C 184.5 179.1 184.5 179.1 184.5 179.1 
C 184.5 179.1 184.5 179.1 184.5 179.1 
C 184.5 179.1 184.5 179.1 184.5 179.1 
C 184.5 179.1 184.5 179.1 184.5 179.1 
C 184.5 179.1 184.5 179.1 184.5 179.1 
C 184.5 179.1 184.5 179.1 184.5 179.1 
C 184.5 179.1 184.5 179.1 184.5 179.1 
C 184.5 179.1 184.5 179.1 184.5 179.1 
C 184.5 179.1 184.5 179.1 184.5 179.1 
C 184.5 179.1 184.5 179.1 184.5 179.1 
C 184.5 179.1 184.5 179.1 184.5 179.1 
M 320.4 179.1 
z
" style="fill: #ffffff"/>
   </g>
   <g id="matplotlib.axis_1">
    <g id="xtick_1">
     <g id="line2d_1">
      <path d="M 184.5 179.1 
L 320.4 179.1 
" clip-path="url(#pf4f130c455)" style="fill: none; stroke: #b0b0b0; stroke-width: 0.8; stroke-linecap: square"/>
     </g>
     <g id="text_1">
      <!-- 0° -->
      <g transform="translate(328.71875 181.859375)scale(0.1 -0.1)">
       <defs>
        <path id="DejaVuSans-30" d="M 2034 4250 
Q 1547 4250 1301 3770 
Q 1056 3291 1056 2328 
Q 1056 1369 1301 889 
Q 1547 409 2034 409 
Q 2525 409 2770 889 
Q 3016 1369 3016 2328 
Q 3016 3291 2770 3770 
Q 2525 4250 2034 4250 
z
M 2034 4750 
Q 2819 4750 3233 4129 
Q 3647 3509 3647 2328 
Q 3647 1150 3233 529 
Q 2819 -91 2034 -91 
Q 1250 -91 836 529 
Q 422 1150 422 2328 
Q 422 3509 836 4129 
Q 1250 4750 2034 4750 
z
" transform="scale(0.015625)"/>
        <path id="DejaVuSans-b0" d="M 1600 4347 
Q 1350 4347 1178 4173 
Q 1006 4000 1006 3750 
Q 1006 3503 1178 3333 
Q 1350 3163 1600 3163 
Q 1850 3163 2022 3333 
Q 2194 3503 2194 3750 
Q 2194 3997 2020 4172 
Q 1847 4347 1600 4347 
z
M 1600 4750 
Q 1800 4750 1984 4673 
Q 2169 4597 2303 4453 
Q 2447 4313 2519 4134 
Q 2591 3956 2591 3750 
Q 2591 3338 2302 3052 
Q 2013 2766 1594 2766 
Q 1172 2766 890 3047 
Q 609 3328 609 3750 
Q 609 4169 896 4459 
Q 1184 4750 1600 4750 
z
" transform="scale(0.015625)"/>
       </defs>
       <use xlink:href="#DejaVuSans-30"/>
       <use xlink:href="#DejaVuSans-b0" x="63.623047"/>
      </g>
     </g>
    </g>
    <g id="xtick_2">
     <g id="line2d_2">
      <path d="M 184.5 179.1 
L 280.595812 83.004188 
" clip-path="url(#pf4f130c455)" style="fill: none; stroke: #b0b0b0; stroke-width: 0.8; stroke-linecap: square"/>
     </g>
     <g id="text_2">
      <!-- 45° -->
      <g transform="translate(281.632806 75.864069)scale(0.1 -0.1)">
       <defs>
        <path id="DejaVuSans-34" d="M 2419 4116 
L 825 1625 
L 2419 1625 
L 2419 4116 
z
M 2253 4666 
L 3047 4666 
L 3047 1625 
L 3713 1625 
L 3713 1100 
L 3047 1100 
L 3047 0 
L 2419 0 
L 2419 1100 
L 313 1100 
L 313 1709 
L 2253 4666 
z
" transform="scale(0.015625)"/>
        <path id="DejaVuSans-35" d="M 691 4666 
L 3169 4666 
L 3169 4134 
L 1269 4134 
L 1269 2991 
Q 1406 3038 1543 3061 
Q 1681 3084 1819 3084 
Q 2600 3084 3056 2656 
Q 3513 2228 3513 1497 
Q 3513 744 3044 326 
Q 2575 -91 1722 -91 
Q 1428 -91 1123 -41 
Q 819 9 494 109 
L 494 744 
Q 775 591 1075 516 
Q 1375 441 1709 441 
Q 2250 441 2565 725 
Q 2881 1009 2881 1497 
Q 2881 1984 2565 2268 
Q 2250 2553 1709 2553 
Q 1456 2553 1204 2497 
Q 953 2441 691 2322 
L 691 4666 
z
" transform="scale(0.015625)"/>
       </defs>
       <use xlink:href="#DejaVuSans-34"/>
       <use xlink:href="#DejaVuSans-35" x="63.623047"/>
       <use xlink:href="#DejaVuSans-b0" x="127.246094"/>
      </g>
     </g>
    </g>
    <g id="xtick_3">
     <g id="line2d_3">
      <path d="M 184.5 179.1 
L 184.5 43.2 
" clip-path="url(#pf4f130c455)" style="fill: none; stroke: #b0b0b0; stroke-width: 0.8; stroke-linecap: square"/>
     </g>
     <g id="text_3">
      <!-- 90° -->
      <g transform="translate(175.6375 31.959375)scale(0.1 -0.1)">
       <defs>
        <path id="DejaVuSans-39" d="M 703 97 
L 703 672 
Q 941 559 1184 500 
Q 1428 441 1663 441 
Q 2288 441 2617 861 
Q 2947 1281 2994 2138 
Q 2813 1869 2534 1725 
Q 2256 1581 1919 1581 
Q 1219 1581 811 2004 
Q 403 2428 403 3163 
Q 403 3881 828 4315 
Q 1253 4750 1959 4750 
Q 2769 4750 3195 4129 
Q 3622 3509 3622 2328 
Q 3622 1225 3098 567 
Q 2575 -91 1691 -91 
Q 1453 -91 1209 -44 
Q 966 3 703 97 
z
M 1959 2075 
Q 2384 2075 2632 2365 
Q 2881 2656 2881 3163 
Q 2881 3666 2632 3958 
Q 2384 4250 1959 4250 
Q 1534 4250 1286 3958 
Q 1038 3666 1038 3163 
Q 1038 2656 1286 2365 
Q 1534 2075 1959 2075 
z
" transform="scale(0.015625)"/>
       </defs>
       <use xlink:href="#DejaVuSans-39"/>
       <use xlink:href="#DejaVuSans-30" x="63.623047"/>
       <use xlink:href="#DejaVuSans-b0" x="127.246094"/>
      </g>
     </g>
    </g>
    <g id="xtick_4">
     <g id="line2d_4">
      <path d="M 184.5 179.1 
L 88.404188 83.004188 
" clip-path="url(#pf4f130c455)" style="fill: none; stroke: #b0b0b0; stroke-width: 0.8; stroke-linecap: square"/>
     </g>
     <g id="text_4">
      <!-- 135° -->
      <g transform="translate(66.460944 75.864069)scale(0.1 -0.1)">
       <defs>
        <path id="DejaVuSans-31" d="M 794 531 
L 1825 531 
L 1825 4091 
L 703 3866 
L 703 4441 
L 1819 4666 
L 2450 4666 
L 2450 531 
L 3481 531 
L 3481 0 
L 794 0 
L 794 531 
z
" transform="scale(0.015625)"/>
        <path id="DejaVuSans-33" d="M 2597 2516 
Q 3050 2419 3304 2112 
Q 3559 1806 3559 1356 
Q 3559 666 3084 287 
Q 2609 -91 1734 -91 
Q 1441 -91 1130 -33 
Q 819 25 488 141 
L 488 750 
Q 750 597 1062 519 
Q 1375 441 1716 441 
Q 2309 441 2620 675 
Q 2931 909 2931 1356 
Q 2931 1769 2642 2001 
Q 2353 2234 1838 2234 
L 1294 2234 
L 1294 2753 
L 1863 2753 
Q 2328 2753 2575 2939 
Q 2822 3125 2822 3475 
Q 2822 3834 2567 4026 
Q 2313 4219 1838 4219 
Q 1578 4219 1281 4162 
Q 984 4106 628 3988 
L 628 4550 
Q 988 4650 1302 4700 
Q 1616 4750 1894 4750 
Q 2613 4750 3031 4423 
Q 3450 4097 3450 3541 
Q 3450 3153 3228 2886 
Q 3006 2619 2597 2516 
z
" transform="scale(0.015625)"/>
       </defs>
       <use xlink:href="#DejaVuSans-31"/>
       <use xlink:href="#DejaVuSans-33" x="63.623047"/>
       <use xlink:href="#DejaVuSans-35" x="127.246094"/>
       <use xlink:href="#DejaVuSans-b0" x="190.869141"/>
      </g>
     </g>
    </g>
    <g id="xtick_5">
     <g id="line2d_5">
      <path d="M 184.5 179.1 
L 48.6 179.1 
" clip-path="url(#pf4f130c455)" style="fill: none; stroke: #b0b0b0; stroke-width: 0.8; stroke-linecap: square"/>
     </g>
     <g id="text_5">
      <!-- 180° -->
      <g transform="translate(22.55625 181.859375)scale(0.1 -0.1)">
       <defs>
        <path id="DejaVuSans-38" d="M 2034 2216 
Q 1584 2216 1326 1975 
Q 1069 1734 1069 1313 
Q 1069 891 1326 650 
Q 1584 409 2034 409 
Q 2484 409 2743 651 
Q 3003 894 3003 1313 
Q 3003 1734 2745 1975 
Q 2488 2216 2034 2216 
z
M 1403 2484 
Q 997 2584 770 2862 
Q 544 3141 544 3541 
Q 544 4100 942 4425 
Q 1341 4750 2034 4750 
Q 2731 4750 3128 4425 
Q 3525 4100 3525 3541 
Q 3525 3141 3298 2862 
Q 3072 2584 2669 2484 
Q 3125 2378 3379 2068 
Q 3634 1759 3634 1313 
Q 3634 634 3220 271 
Q 2806 -91 2034 -91 
Q 1263 -91 848 271 
Q 434 634 434 1313 
Q 434 1759 690 2068 
Q 947 2378 1403 2484 
z
M 1172 3481 
Q 1172 3119 1398 2916 
Q 1625 2713 2034 2713 
Q 2441 2713 2670 2916 
Q 2900 3119 2900 3481 
Q 2900 3844 2670 4047 
Q 2441 4250 2034 4250 
Q 1625 4250 1398 4047 
Q 1172 3844 1172 3481 
z
" transform="scale(0.015625)"/>
       </defs>
       <use xlink:href="#DejaVuSans-31"/>
       <use xlink:href="#DejaVuSans-38" x="63.623047"/>
       <use xlink:href="#DejaVuSans-30" x="127.246094"/>
       <use xlink:href="#DejaVuSans-b0" x="190.869141"/>
      </g>
     </g>
    </g>
    <g id="xtick_6">
     <g id="line2d_6">
      <path d="M 184.5 179.1 
L 88.404188 275.195812 
" clip-path="url(#pf4f130c455)" style="fill: none; stroke: #b0b0b0; stroke-width: 0.8; stroke-linecap: square"/>
     </g>
     <g id="text_6">
      <!-- 225° -->
      <g transform="translate(66.460944 287.854681)scale(0.1 -0.1)">
       <defs>
        <path id="DejaVuSans-32" d="M 1228 531 
L 3431 531 
L 3431 0 
L 469 0 
L 469 531 
Q 828 903 1448 1529 
Q 2069 2156 2228 2338 
Q 2531 2678 2651 2914 
Q 2772 3150 2772 3378 
Q 2772 3750 2511 3984 
Q 2250 4219 1831 4219 
Q 1534 4219 1204 4116 
Q 875 4013 500 3803 
L 500 4441 
Q 881 4594 1212 4672 
Q 1544 4750 1819 4750 
Q 2544 4750 2975 4387 
Q 3406 4025 3406 3419 
Q 3406 3131 3298 2873 
Q 3191 2616 2906 2266 
Q 2828 2175 2409 1742 
Q 1991 1309 1228 531 
z
" transform="scale(0.015625)"/>
       </defs>
       <use xlink:href="#DejaVuSans-32"/>
       <use xlink:href="#DejaVuSans-32" x="63.623047"/>
       <use xlink:href="#DejaVuSans-35" x="127.246094"/>
       <use xlink:href="#DejaVuSans-b0" x="190.869141"/>
      </g>
     </g>
    </g>
    <g id="xtick_7">
     <g id="line2d_7">
      <path d="M 184.5 179.1 
L 184.5 315 
" clip-path="url(#pf4f130c455)" style="fill: none; stroke: #b0b0b0; stroke-width: 0.8; stroke-linecap: square"/>
     </g>
     <g id="text_7">
      <!-- 270° -->
      <g transform="translate(172.45625 331.759375)scale(0.1 -0.1)">
       <defs>
        <path id="DejaVuSans-37" d="M 525 4666 
L 3525 4666 
L 3525 4397 
L 1831 0 
L 1172 0 
L 2766 4134 
L 525 4134 
L 525 4666 
z
" transform="scale(0.015625)"/>
       </defs>
       <use xlink:href="#DejaVuSans-32"/>
       <use xlink:href="#DejaVuSans-37" x="63.623047"/>
       <use xlink:href="#DejaVuSans-30" x="127.246094"/>
       <use xlink:href="#DejaVuSans-b0" x="190.869141"/>
      </g>
     </g>
    </g>
    <g id="xtick_8">
     <g id="line2d_8">
      <path d="M 184.5 179.1 
L 280.595812 275.195812 
" clip-path="url(#pf4f130c455)" style="fill: none; stroke: #b0b0b0; stroke-width: 0.8; stroke-linecap: square"/>
     </g>
     <g id="text_8">
      <!-- 315° -->
      <g transform="translate(278.451556 287.854681)scale(0.1 -0.1)">
       <use xlink:href="#DejaVuSans-33"/>
       <use xlink:href="#DejaVuSans-31" x="63.623047"/>
       <use xlink:href="#DejaVuSans-35" x="127.246094"/>
       <use xlink:href="#DejaVuSans-b0" x="190.869141"/>
      </g>
     </g>
    </g>
   </g>
   <g id="matplotlib.axis_2">
    <g id="ytick_1">
     <g id="line2d_9">
      <path d="M 200.678556 179.1 
C 200.678556 176.975451 200.260067 174.871561 199.447037 172.908734 
C 198.634008 170.945908 197.44225 169.162316 195.939967 167.660033 
C 194.437684 166.15775 192.654092 164.965992 190.691266 164.152963 
C 188.728439 163.339933 186.624549 162.921444 184.5 162.921444 
C 182.375451 162.921444 180.271561 163.339933 178.308734 164.152963 
C 176.345908 164.965992 174.562316 166.15775 173.060033 167.660033 
C 171.55775 169.162316 170.365992 170.945908 169.552963 172.908734 
C 168.739933 174.871561 168.321444 176.975451 168.321444 179.1 
C 168.321444 181.224549 168.739933 183.328439 169.552963 185.291266 
C 170.365992 187.254092 171.55775 189.037684 173.060033 190.539967 
C 174.562316 192.04225 176.345908 193.234008 178.308734 194.047037 
C 180.271561 194.860067 182.375451 195.278556 184.5 195.278556 
C 186.624549 195.278556 188.728439 194.860067 190.691266 194.047037 
C 192.654092 193.234008 194.437684 192.04225 195.939967 190.539967 
C 197.44225 189.037684 198.634008 187.254092 199.447037 185.291266 
C 200.260067 183.328439 200.678556 181.224549 200.678556 179.1 
" clip-path="url(#pf4f130c455)" style="fill: none; stroke: #b0b0b0; stroke-width: 0.8; stroke-linecap: square"/>
     </g>
    </g>
    <g id="ytick_2">
     <g id="line2d_10">
      <path d="M 216.857133 179.1 
C 216.857133 174.8509 216.020153 170.643118 214.394093 166.717461 
C 212.768033 162.791805 210.384515 159.224619 207.379948 156.220052 
C 204.375381 153.215485 200.808195 150.831967 196.882539 149.205907 
C 192.956882 147.579847 188.7491 146.742867 184.5 146.742867 
C 180.2509 146.742867 176.043118 147.579847 172.117461 149.205907 
C 168.191805 150.831967 164.624619 153.215485 161.620052 156.220052 
C 158.615485 159.224619 156.231967 162.791805 154.605907 166.717461 
C 152.979847 170.643118 152.142867 174.8509 152.142867 179.1 
C 152.142867 183.3491 152.979847 187.556882 154.605907 191.482539 
C 156.231967 195.408195 158.615485 198.975381 161.620052 201.979948 
C 164.624619 204.984515 168.191805 207.368033 172.117461 208.994093 
C 176.043118 210.620153 180.2509 211.457133 184.5 211.457133 
C 188.7491 211.457133 192.956882 210.620153 196.882539 208.994093 
C 200.808195 207.368033 204.375381 204.984515 207.379948 201.979948 
C 210.384515 198.975381 212.768033 195.408195 214.394093 191.482539 
C 216.020153 187.556882 216.857133 183.3491 216.857133 179.1 
" clip-path="url(#pf4f130c455)" style="fill: none; stroke: #b0b0b0; stroke-width: 0.8; stroke-linecap: square"/>
     </g>
    </g>
    <g id="ytick_3">
     <g id="line2d_11">
      <path d="M 233.035709 179.1 
C 233.035709 172.726349 231.780239 166.414674 229.341148 160.526188 
C 226.902058 154.637703 223.326781 149.286923 218.819929 144.780071 
C 214.313077 140.273219 208.962297 136.697942 203.073812 134.258852 
C 197.185326 131.819761 190.873651 130.564291 184.5 130.564291 
C 178.126349 130.564291 171.814674 131.819761 165.926188 134.258852 
C 160.037703 136.697942 154.686923 140.273219 150.180071 144.780071 
C 145.673219 149.286923 142.097942 154.637703 139.658852 160.526188 
C 137.219761 166.414674 135.964291 172.726349 135.964291 179.1 
C 135.964291 185.473651 137.219761 191.785326 139.658852 197.673812 
C 142.097942 203.562297 145.673219 208.913077 150.180071 213.419929 
C 154.686923 217.926781 160.037703 221.502058 165.926188 223.941148 
C 171.814674 226.380239 178.126349 227.635709 184.5 227.635709 
C 190.873651 227.635709 197.185326 226.380239 203.073812 223.941148 
C 208.962297 221.502058 214.313077 217.926781 218.819929 213.419929 
C 223.326781 208.913077 226.902058 203.562297 229.341148 197.673812 
C 231.780239 191.785326 233.035709 185.473651 233.035709 179.1 
" clip-path="url(#pf4f130c455)" style="fill: none; stroke: #b0b0b0; stroke-width: 0.8; stroke-linecap: square"/>
     </g>
    </g>
    <g id="ytick_4">
     <g id="line2d_12">
      <path d="M 249.214286 179.1 
C 249.214286 170.601798 247.540325 162.18623 244.288204 154.334915 
C 241.036083 146.4836 236.269047 139.349226 230.25991 133.34009 
C 224.250774 127.330953 217.1164 122.563917 209.265085 119.311796 
C 201.41377 116.059675 192.998202 114.385714 184.5 114.385714 
C 176.001798 114.385714 167.58623 116.059675 159.734915 119.311796 
C 151.8836 122.563917 144.749226 127.330953 138.74009 133.34009 
C 132.730953 139.349226 127.963917 146.4836 124.711796 154.334915 
C 121.459675 162.18623 119.785714 170.601798 119.785714 179.1 
C 119.785714 187.598202 121.459675 196.01377 124.711796 203.865085 
C 127.963917 211.7164 132.730953 218.850774 138.74009 224.85991 
C 144.749226 230.869047 151.8836 235.636083 159.734915 238.888204 
C 167.58623 242.140325 176.001798 243.814286 184.5 243.814286 
C 192.998202 243.814286 201.41377 242.140325 209.265085 238.888204 
C 217.1164 235.636083 224.250774 230.869047 230.25991 224.85991 
C 236.269047 218.850774 241.036083 211.7164 244.288204 203.865085 
C 247.540325 196.01377 249.214286 187.598202 249.214286 179.1 
" clip-path="url(#pf4f130c455)" style="fill: none; stroke: #b0b0b0; stroke-width: 0.8; stroke-linecap: square"/>
     </g>
    </g>
    <g id="ytick_5">
     <g id="line2d_13">
      <path d="M 265.392862 179.1 
C 265.392862 168.477247 263.300411 157.957786 259.23526 148.143642 
C 255.170108 138.329497 249.211312 129.41153 241.699891 121.900109 
C 234.18847 114.388688 225.270503 108.429892 215.456358 104.36474 
C 205.642214 100.299589 195.122753 98.207138 184.5 98.207138 
C 173.877247 98.207138 163.357786 100.299589 153.543642 104.36474 
C 143.729497 108.429892 134.81153 114.388688 127.300109 121.900109 
C 119.788688 129.41153 113.829892 138.329497 109.76474 148.143642 
C 105.699589 157.957786 103.607138 168.477247 103.607138 179.1 
C 103.607138 189.722753 105.699589 200.242214 109.76474 210.056358 
C 113.829892 219.870503 119.788688 228.78847 127.300109 236.299891 
C 134.81153 243.811312 143.729497 249.770108 153.543642 253.83526 
C 163.357786 257.900411 173.877247 259.992862 184.5 259.992862 
C 195.122753 259.992862 205.642214 257.900411 215.456358 253.83526 
C 225.270503 249.770108 234.18847 243.811312 241.699891 236.299891 
C 249.211312 228.78847 255.170108 219.870503 259.23526 210.056358 
C 263.300411 200.242214 265.392862 189.722753 265.392862 179.1 
" clip-path="url(#pf4f130c455)" style="fill: none; stroke: #b0b0b0; stroke-width: 0.8; stroke-linecap: square"/>
     </g>
    </g>
    <g id="ytick_6">
     <g id="line2d_14">
      <path d="M 281.571439 179.1 
C 281.571439 166.352695 279.060498 153.729342 274.182315 141.952369 
C 269.304133 130.175395 262.153578 119.473833 253.139872 110.460128 
C 244.126167 101.446422 233.424605 94.295867 221.647631 89.417685 
C 209.870658 84.539502 197.247305 82.028561 184.5 82.028561 
C 171.752695 82.028561 159.129342 84.539502 147.352369 89.417685 
C 135.575395 94.295867 124.873833 101.446422 115.860128 110.460128 
C 106.846422 119.473833 99.695867 130.175395 94.817685 141.952369 
C 89.939502 153.729342 87.428561 166.352695 87.428561 179.1 
C 87.428561 191.847305 89.939502 204.470658 94.817685 216.247631 
C 99.695867 228.024605 106.846422 238.726167 115.860128 247.739872 
C 124.873833 256.753578 135.575395 263.904133 147.352369 268.782315 
C 159.129342 273.660498 171.752695 276.171439 184.5 276.171439 
C 197.247305 276.171439 209.870658 273.660498 221.647631 268.782315 
C 233.424605 263.904133 244.126167 256.753578 253.139872 247.739872 
C 262.153578 238.726167 269.304133 228.024605 274.182315 216.247631 
C 279.060498 204.470658 281.571439 191.847305 281.571439 179.1 
" clip-path="url(#pf4f130c455)" style="fill: none; stroke: #b0b0b0; stroke-width: 0.8; stroke-linecap: square"/>
     </g>
    </g>
    <g id="ytick_7">
     <g id="line2d_15">
      <path d="M 297.750015 179.1 
C 297.750015 164.228144 294.820584 149.500899 289.129371 135.761096 
C 283.438158 122.021292 275.095844 109.536136 264.579854 99.020146 
C 254.063864 88.504156 241.578708 80.161842 227.838904 74.470629 
C 214.099101 68.779416 199.371856 65.849985 184.5 65.849985 
C 169.628144 65.849985 154.900899 68.779416 141.161096 74.470629 
C 127.421292 80.161842 114.936136 88.504156 104.420146 99.020146 
C 93.904156 109.536136 85.561842 122.021292 79.870629 135.761096 
C 74.179416 149.500899 71.249985 164.228144 71.249985 179.1 
C 71.249985 193.971856 74.179416 208.699101 79.870629 222.438904 
C 85.561842 236.178708 93.904156 248.663864 104.420146 259.179854 
C 114.936136 269.695844 127.421292 278.038158 141.161096 283.729371 
C 154.900899 289.420584 169.628144 292.350015 184.5 292.350015 
C 199.371856 292.350015 214.099101 289.420584 227.838904 283.729371 
C 241.578708 278.038158 254.063864 269.695844 264.579854 259.179854 
C 275.095844 248.663864 283.438158 236.178708 289.129371 222.438904 
C 294.820584 208.699101 297.750015 193.971856 297.750015 179.1 
" clip-path="url(#pf4f130c455)" style="fill: none; stroke: #b0b0b0; stroke-width: 0.8; stroke-linecap: square"/>
     </g>
    </g>
    <g id="ytick_8">
     <g id="line2d_16">
      <path d="M 313.928591 179.1 
C 313.928591 162.103593 310.58067 145.272455 304.076427 129.569822 
C 297.572183 113.86719 288.038109 99.59844 276.019835 87.580165 
C 264.00156 75.561891 249.73281 66.027817 234.030178 59.523573 
C 218.327545 53.01933 201.496407 49.671409 184.5 49.671409 
C 167.503593 49.671409 150.672455 53.01933 134.969822 59.523573 
C 119.26719 66.027817 104.99844 75.561891 92.980165 87.580165 
C 80.961891 99.59844 71.427817 113.86719 64.923573 129.569822 
C 58.41933 145.272455 55.071409 162.103593 55.071409 179.1 
C 55.071409 196.096407 58.41933 212.927545 64.923573 228.630178 
C 71.427817 244.33281 80.961891 258.60156 92.980165 270.619835 
C 104.99844 282.638109 119.26719 292.172183 134.969822 298.676427 
C 150.672455 305.18067 167.503593 308.528591 184.5 308.528591 
C 201.496407 308.528591 218.327545 305.18067 234.030178 298.676427 
C 249.73281 292.172183 264.00156 282.638109 276.019835 270.619835 
C 288.038109 258.60156 297.572183 244.33281 304.076427 228.630178 
C 310.58067 212.927545 313.928591 196.096407 313.928591 179.1 
" clip-path="url(#pf4f130c455)" style="fill: none; stroke: #b0b0b0; stroke-width: 0.8; stroke-linecap: square"/>
     </g>
    </g>
   </g>
   <g id="line2d_17">
    <path d="M 249.214286 179.1 
L 255.298733 177.987248 
L 261.308574 176.684985 
L 267.185806 175.198683 
L 272.873652 173.537212 
L 278.317165 171.71272 
L 283.463794 169.74046 
L 288.263938 167.638577 
L 292.671457 165.427858 
L 295.886283 163.596393 
L 298.803132 161.722822 
L 301.404317 159.820644 
L 303.674186 157.903941 
L 305.599223 155.987253 
L 307.168128 154.085441 
L 308.371894 152.213552 
L 309.030994 150.838351 
L 309.478967 149.494807 
L 309.714633 148.18919 
L 309.737574 146.927672 
L 309.548131 145.716294 
L 309.147398 144.56093 
L 308.53722 143.467258 
L 307.720179 142.440727 
L 306.699586 141.486527 
L 305.47946 140.609558 
L 304.064513 139.814404 
L 301.884265 138.888741 
L 299.381861 138.125036 
L 296.573783 137.531038 
L 293.478327 137.113138 
L 290.115464 136.876295 
L 286.506698 136.823963 
L 282.674905 136.958042 
L 277.608322 137.388084 
L 272.280225 138.106744 
L 266.741846 139.107012 
L 261.045822 140.377871 
L 255.245617 141.904361 
L 249.394936 143.667693 
L 243.547146 145.645416 
L 237.754707 147.811632 
L 230.948505 150.618745 
L 224.379545 153.599597 
L 218.126647 156.693449 
L 212.26208 159.835463 
L 205.99674 163.471378 
L 200.43572 166.96962 
L 195.032681 170.655886 
L 190.257166 174.210624 
L 186.370409 177.396795 
L 184.500113 179.099887 
L 185.467748 178.062091 
L 188.143677 174.910719 
L 191.374792 170.728912 
L 194.851811 165.828326 
L 198.230323 160.674893 
L 201.806379 154.776984 
L 204.944182 149.188498 
L 208.07595 143.170298 
L 211.134827 136.790032 
L 214.057392 130.122553 
L 216.346054 124.405191 
L 218.467754 118.594067 
L 220.394177 112.740591 
L 222.100264 106.897503 
L 223.56446 101.118308 
L 224.768921 95.456705 
L 225.699664 89.966007 
L 226.34667 84.698553 
L 226.703932 79.705135 
L 226.77965 75.940504 
L 226.669381 72.406187 
L 226.375514 69.124647 
L 225.901982 66.116927 
L 225.254198 63.40249 
L 224.438988 60.999078 
L 223.464505 58.92258 
L 222.634726 57.588192 
L 221.725001 56.450671 
L 220.740051 55.514444 
L 219.684898 54.783235 
L 218.564845 54.260054 
L 217.38544 53.947177 
L 216.152446 53.846137 
L 214.871811 53.957716 
L 213.549634 54.281938 
L 212.192133 54.818067 
L 210.805609 55.564609 
L 208.922747 56.883308 
L 207.014677 58.564581 
L 205.0964 60.598697 
L 203.182693 62.973657 
L 201.287967 65.675266 
L 199.426135 68.687225 
L 197.610486 71.991235 
L 195.424894 76.501028 
L 193.353567 81.392262 
L 191.416657 86.617886 
L 189.631608 92.127513 
L 188.012916 97.867939 
L 186.571923 103.783703 
L 185.316659 109.817668 
L 184.251734 115.911618 
L 183.22641 123.220918 
L 182.471917 130.431101 
L 181.976425 137.443006 
L 181.721218 144.160809 
L 181.681084 150.493464 
L 181.864187 157.281916 
L 182.238807 163.308997 
L 182.815531 169.130019 
L 183.522333 174.167215 
L 184.325951 178.377909 
L 184.5 179.1 
L 184.098005 177.782954 
L 182.723246 173.926582 
L 180.732632 169.063939 
L 178.241678 163.62256 
L 175.480957 158.134489 
L 172.174159 152.099965 
L 168.913991 146.595421 
L 165.278079 140.878722 
L 161.291357 135.041551 
L 156.986721 129.176263 
L 152.404631 123.374437 
L 148.408326 118.65265 
L 144.283045 114.086976 
L 140.062361 109.72508 
L 135.782199 105.611893 
L 131.480439 101.789157 
L 127.196481 98.29501 
L 122.970786 95.163611 
L 118.844402 92.424821 
L 115.642455 90.533624 
L 112.551304 88.92073 
L 109.591515 87.594876 
L 106.783161 86.562749 
L 104.145654 85.828959 
L 101.697587 85.396032 
L 99.456584 85.264419 
L 97.92169 85.362562 
L 96.519079 85.627914 
L 95.254821 86.058431 
L 94.134523 86.651456 
L 93.163303 87.403738 
L 92.345759 88.311455 
L 91.685949 89.37023 
L 91.187363 90.575159 
L 90.852908 91.920834 
L 90.684886 93.401376 
L 90.684979 95.010459 
L 90.94834 97.344152 
L 91.513073 99.877329 
L 92.377819 102.591922 
L 93.539142 105.468959 
L 94.99152 108.488722 
L 96.727367 111.6309 
L 98.737057 114.874762 
L 101.616375 119.04059 
L 104.878359 123.291327 
L 108.49161 127.586074 
L 112.420534 131.884688 
L 116.62569 136.14825 
L 121.064169 140.339517 
L 125.69003 144.423344 
L 130.454766 148.367069 
L 136.28446 152.872838 
L 142.151069 157.088602 
L 147.96264 160.976055 
L 153.626865 164.504588 
L 159.052529 167.651647 
L 164.962859 170.822472 
L 170.294134 173.446555 
L 175.520059 175.785321 
L 180.516272 177.770214 
L 184.385947 179.068203 
L 184.499537 179.099876 
L 182.671907 178.688144 
L 178.719561 177.987339 
L 173.360415 177.280886 
L 167.279684 176.730724 
L 161.051679 176.398015 
L 154.091349 176.2723 
L 147.637291 176.372197 
L 140.824064 176.695163 
L 133.744253 177.264564 
L 126.494807 178.097141 
L 120.396007 178.999255 
L 114.307319 180.092888 
L 108.287392 181.37639 
L 102.39432 182.844632 
L 96.685027 184.489079 
L 91.214672 186.297906 
L 86.03607 188.25616 
L 81.199141 190.345974 
L 76.750391 192.546814 
L 73.499659 194.372102 
L 70.544555 196.241134 
L 67.903013 198.140496 
L 65.590945 200.05617 
L 63.622141 201.973667 
L 62.008179 203.878159 
L 60.758358 205.754614 
L 60.064237 207.134477 
L 59.580974 208.483735 
L 59.309874 209.796105 
L 59.251482 211.065396 
L 59.405584 212.285544 
L 59.77121 213.450643 
L 60.34664 214.554982 
L 61.129414 215.593071 
L 62.116342 216.559675 
L 63.303521 217.449843 
L 64.686353 218.258936 
L 66.825269 219.204235 
L 69.288266 219.988635 
L 72.059099 220.604225 
L 75.119692 221.044439 
L 78.450275 221.304134 
L 82.029528 221.379666 
L 85.834737 221.268938 
L 90.872422 220.867989 
L 96.176645 220.177942 
L 101.696345 219.205404 
L 107.379001 217.960996 
L 113.171205 216.459286 
L 119.019251 214.718686 
L 124.86971 212.761291 
L 130.670007 210.612667 
L 137.492244 207.822621 
L 144.084067 204.853991 
L 150.366161 201.767129 
L 156.26567 198.626571 
L 161.717232 195.499963 
L 167.435746 191.962809 
L 172.392797 188.651107 
L 177.054117 185.283855 
L 181.300847 181.931442 
L 184.406376 179.191658 
L 184.498868 179.101129 
L 183.261315 180.441111 
L 180.699193 183.483833 
L 177.422771 187.745252 
L 173.915796 192.713679 
L 170.519471 197.922532 
L 166.933584 203.870802 
L 163.793666 209.497488 
L 160.66546 215.54855 
L 157.615574 221.955701 
L 154.707098 228.643535 
L 152.433771 234.372538 
L 150.330376 240.190236 
L 148.424915 246.045064 
L 146.742107 251.884178 
L 145.303144 257.654029 
L 144.12549 263.300928 
L 143.222736 268.771636 
L 142.604501 274.013942 
L 142.276389 278.97724 
L 142.223996 282.714355 
L 142.357378 286.218275 
L 142.673949 289.466707 
L 143.169588 292.438797 
L 143.838702 295.11529 
L 144.674294 297.478667 
L 145.66805 299.513281 
L 146.511467 300.815194 
L 147.434065 301.919455 
L 148.431073 302.821752 
L 149.497417 303.518479 
L 150.627754 304.006747 
L 151.816496 304.284404 
L 153.057848 304.350042 
L 154.345834 304.203004 
L 155.674332 303.843392 
L 157.03711 303.27207 
L 158.427854 302.490657 
L 160.314692 301.126184 
L 162.224856 299.400226 
L 164.143363 297.322803 
L 166.055477 294.906191 
L 167.94684 292.164855 
L 169.803612 289.115349 
L 171.612589 285.776214 
L 173.787733 281.226265 
L 175.846482 276.299416 
L 177.768945 271.043073 
L 179.53796 265.507931 
L 181.139339 259.747444 
L 182.562064 253.817265 
L 183.798444 247.774669 
L 184.844216 241.677946 
L 185.846692 234.373064 
L 186.579053 227.175653 
L 187.053713 220.184653 
L 187.289949 213.495544 
L 187.31349 207.198911 
L 187.114658 200.460978 
L 186.728826 194.492532 
L 186.145474 188.746858 
L 185.364857 183.358234 
L 184.558118 179.329982 
L 184.500624 179.102315 
L 185.027052 180.798051 
L 186.365861 184.505206 
L 188.402691 189.447102 
L 190.937385 194.948564 
L 193.737191 200.479988 
L 197.082708 206.548438 
L 200.374941 212.074122 
L 204.04115 217.804381 
L 208.05573 223.647421 
L 212.385133 229.510898 
L 216.204046 234.346702 
L 220.185708 239.081389 
L 224.29956 243.66486 
L 228.512285 248.049204 
L 232.788174 252.189197 
L 237.089526 256.042756 
L 241.377072 259.571368 
L 245.610434 262.740459 
L 249.748603 265.519725 
L 252.962935 267.444994 
L 256.069069 269.093196 
L 259.046387 270.455338 
L 261.874747 271.524476 
L 264.534645 272.295739 
L 267.007377 272.766341 
L 269.27519 272.935572 
L 270.83151 272.865453 
L 272.256602 272.627844 
L 273.544321 272.224686 
L 274.688981 271.658536 
L 275.685381 270.932546 
L 276.528835 270.050446 
L 277.215192 269.016521 
L 277.740867 267.835589 
L 278.102853 266.512975 
L 278.298748 265.054483 
L 278.326763 263.466367 
L 278.101066 261.158828 
L 277.573974 258.649619 
L 276.746584 255.956683 
L 275.622074 253.098886 
L 274.205705 250.095865 
L 272.504807 246.967861 
L 270.528752 243.735565 
L 267.689257 239.580492 
L 264.464198 235.336398 
L 260.884539 231.044229 
L 256.985468 226.744227 
L 252.806058 222.475452 
L 248.388891 218.275336 
L 243.779624 214.179252 
L 239.026529 210.220125 
L 233.204017 205.692147 
L 227.336988 201.450651 
L 221.5173 197.534561 
L 215.837288 193.975143 
L 210.388312 190.795634 
L 204.441637 187.585895 
L 199.064766 184.922806 
L 193.776472 182.540709 
L 188.689197 180.505693 
L 184.745241 179.169618 
L 184.500927 179.100247 
L 186.188 179.483083 
L 190.031625 180.173786 
L 195.299314 180.880976 
L 201.306491 181.439258 
L 207.47778 181.784362 
L 214.389794 181.926839 
L 220.809913 181.84428 
L 227.596675 181.540884 
L 234.657923 180.992753 
L 241.897017 180.182578 
L 247.993598 179.299571 
L 249.214286 179.1 
L 249.214286 179.1 
" clip-path="url(#pf4f130c455)" style="fill: none; stroke: #1f77b4; stroke-width: 1.5; stroke-linecap: square"/>
   </g>
   <g id="patch_3">
    <path d="M 320.4 179.1 
C 320.4 161.253776 316.884683 143.581083 310.055228 127.093322 
C 303.225774 110.60556 293.214998 95.623375 280.595812 83.004188 
C 267.976625 70.385002 252.99444 60.374226 236.506678 53.544772 
C 220.018917 46.715317 202.346224 43.2 184.5 43.2 
C 166.653776 43.2 148.981083 46.715317 132.493322 53.544772 
C 116.00556 60.374226 101.023375 70.385002 88.404188 83.004188 
C 75.785002 95.623375 65.774226 110.60556 58.944772 127.093322 
C 52.115317 143.581083 48.6 161.253776 48.6 179.1 
C 48.6 196.946224 52.115317 214.618917 58.944772 231.106678 
C 65.774226 247.59444 75.785002 262.576625 88.404188 275.195812 
C 101.023375 287.814998 116.00556 297.825774 132.493322 304.655228 
C 148.981083 311.484683 166.653776 315 184.5 315 
C 202.346224 315 220.018917 311.484683 236.506678 304.655228 
C 252.99444 297.825774 267.976625 287.814998 280.595812 275.195812 
C 293.214998 262.576625 303.225774 247.59444 310.055228 231.106678 
C 316.884683 214.618917 320.4 196.946224 320.4 179.1 
" style="fill: none; stroke: #000000; stroke-width: 0.8; stroke-linejoin: miter; stroke-linecap: square"/>
   </g>
  </g>
 </g>
 <defs>
  <clipPath id="pf4f130c455">
   <path d="M 320.4 179.1 
C 320.4 161.253776 316.884683 143.581083 310.055228 127.093322 
C 303.225774 110.60556 293.214998 95.623375 280.595812 83.004188 
C 267.976625 70.385002 252.99444 60.374226 236.506678 53.544772 
C 220.018917 46.715317 202.346224 43.2 184.5 43.2 
C 166.653776 43.2 148.981083 46.715317 132.493322 53.544772 
C 116.00556 60.374226 101.023375 70.385002 88.404188 83.004188 
C 75.785002 95.623375 65.774226 110.60556 58.944772 127.093322 
C 52.115317 143.581083 48.6 161.253776 48.6 179.1 
C 48.6 196.946224 52.115317 214.618917 58.944772 231.106678 
C 65.774226 247.59444 75.785002 262.576625 88.404188 275.195812 
C 101.023375 287.814998 116.00556 297.825774 132.493322 304.655228 
C 148.981083 311.484683 166.653776 315 184.5 315 
C 202.346224 315 220.018917 311.484683 236.506678 304.655228 
C 252.99444 297.825774 267.976625 287.814998 280.595812 275.195812 
C 293.214998 262.576625 303.225774 247.59444 310.055228 231.106678 
C 316.884683 214.618917 320.4 196.946224 320.4 179.1 
M 184.5 179.1 
C 184.5 179.1 184.5 179.1 184.5 179.1 
C 184.5 179.1 184.5 179.1 184.5 179.1 
C 184.5 179.1 184.5 179.1 184.5 179.1 
C 184.5 179.1 184.5 179.1 184.5 179.1 
C 184.5 179.1 184.5 179.1 184.5 179.1 
C 184.5 179.1 184.5 179.1 184.5 179.1 
C 184.5 179.1 184.5 179.1 184.5 179.1 
C 184.5 179.1 184.5 179.1 184.5 179.1 
C 184.5 179.1 184.5 179.1 184.5 179.1 
C 184.5 179.1 184.5 179.1 184.5 179.1 
C 184.5 179.1 184.5 179.1 184.5 179.1 
C 184.5 179.1 184.5 179.1 184.5 179.1 
C 184.5 179.1 184.5 179.1 184.5 179.1 
C 184.5 179.1 184.5 179.1 184.5 179.1 
C 184.5 179.1 184.5 179.1 184.5 179.1 
C 184.5 179.1 184.5 179.1 184.5 179.1 
M 320.4 179.1 
z
"/>
  </clipPath>
 </defs>
</svg>
