<?xml version="1.0" encoding="utf-8" standalone="no"?>
<!DOCTYPE svg PUBLIC "-//W3C//DTD SVG 1.1//EN"
  "http://www.w3.org/Graphics/SVG/1.1/DTD/svg11.dtd">
<svg xmlns:xlink="http://www.w3.org/1999/xlink" width="360pt" height="360pt" viewBox="0 0 360 360" xmlns="http://www.w3.org/2000/svg" version="1.1">
 <metadata>
  <rdf:RDF xmlns:dc="http://purl.org/dc/elements/1.1/" xmlns:cc="http://creativecommons.org/ns#" xmlns:rdf="http://www.w3.org/1999/02/22-rdf-syntax-ns#">
   <cc:Work>
    <dc:type rdf:resource="http://purl.org/dc/dcmitype/StillImage"/>
    <dc:date>2024-07-30T19:42:00.923767</dc:date>
    <dc:format>image/svg+xml</dc:format>
    <dc:creator>
     <cc:Agent>
      <dc:title>Matplotlib v3.9.1, https://matplotlib.org/</dc:title>
     </cc:Agent>
    </dc:creator>
   </cc:Work>
  </rdf:RDF>
 </metadata>
 <defs>
  <style type="text/css">*{stroke-linejoin: round; stroke-linecap: butt}</style>
 </defs>
 <g id="figure_1">
  <g id="patch_1">
   <path d="M 0 360 
L 360 360 
L 360 0 
L 0 0 
z
" style="fill: #ffffff"/>
  </g>
  <g id="axes_1">
   <g id="patch_2">
    <path d="M 320.4 179.1 
C 320.4 161.253776 316.884683 143.581083 310.055228 127.093322 
C 303.225774 110.60556 293.214998 95.623375 280.595812 83.004188 
C 267.976625 70.385002 252.99444 60.374226 236.506678 53.544772 
C 220.018917 46.715317 202.346224 43.2 184.5 43.2 
C 166.653776 43.2 148.981083 46.715317 132.493322 53.544772 
C 116.00556 60.374226 101.023375 70.385002 88.404188 83.004188 
C 75.785002 95.623375 65.774226 110.60556 58.944772 127.093322 
C 52.115317 143.581083 48.6 161.253776 48.6 179.1 
C 48.6 196.946224 52.115317 214.618917 58.944772 231.106678 
C 65.774226 247.59444 75.785002 262.576625 88.404188 275.195812 
C 101.023375 287.814998 116.00556 297.825774 132.493322 304.655228 
C 148.981083 311.484683 166.653776 315 184.5 315 
C 202.346224 315 220.018917 311.484683 236.506678 304.655228 
C 252.99444 297.825774 267.976625 287.814998 280.595812 275.195812 
C 293.214998 262.576625 303.225774 247.59444 310.055228 231.106678 
C 316.884683 214.618917 320.4 196.946224 320.4 179.1 
M 184.5 179.1 
C 184.5 179.1 184.5 179.1 184.5 179.1 
C 184.5 179.1 184.5 179.1 184.5 179.1 
C 184.5 179.1 184.5 179.1 184.5 179.1 
C 184.5 179.1 184.5 179.1 184.5 179.1 
C 184.5 179.1 184.5 179.1 184.5 179.1 
C 184.5 179.1 184.5 179.1 184.5 179.1 
C 184.5 179.1 184.5 179.1 184.5 179.1 
C 184.5 179.1 184.5 179.1 184.5 179.1 
C 184.5 179.1 184.5 179.1 184.5 179.1 
C 184.5 179.1 184.5 179.1 184.5 179.1 
C 184.5 179.1 184.5 179.1 184.5 179.1 
C 184.5 179.1 184.5 179.1 184.5 179.1 
C 184.5 179.1 184.5 179.1 184.5 179.1 
C 184.5 179.1 184.5 179.1 184.5 179.1 
C 184.5 179.1 184.5 179.1 184.5 179.1 
C 184.5 179.1 184.5 179.1 184.5 179.1 
z
" style="fill: #ffffff"/>
   </g>
   <g id="matplotlib.axis_1">
    <g id="xtick_1">
     <g id="line2d_1">
      <path d="M 184.5 179.1 
L 320.4 179.1 
" clip-path="url(#p851281e493)" style="fill: none; stroke: #b0b0b0; stroke-width: 0.8; stroke-linecap: square"/>
     </g>
     <g id="text_1">
      <!-- 0° -->
      <g transform="translate(328.71875 181.859375) scale(0.1 -0.1)">
       <defs>
        <path id="DejaVuSans-30" d="M 2034 4250 
Q 1547 4250 1301 3770 
Q 1056 3291 1056 2328 
Q 1056 1369 1301 889 
Q 1547 409 2034 409 
Q 2525 409 2770 889 
Q 3016 1369 3016 2328 
Q 3016 3291 2770 3770 
Q 2525 4250 2034 4250 
z
M 2034 4750 
Q 2819 4750 3233 4129 
Q 3647 3509 3647 2328 
Q 3647 1150 3233 529 
Q 2819 -91 2034 -91 
Q 1250 -91 836 529 
Q 422 1150 422 2328 
Q 422 3509 836 4129 
Q 1250 4750 2034 4750 
z
" transform="scale(0.015625)"/>
        <path id="DejaVuSans-b0" d="M 1600 4347 
Q 1350 4347 1178 4173 
Q 1006 4000 1006 3750 
Q 1006 3503 1178 3333 
Q 1350 3163 1600 3163 
Q 1850 3163 2022 3333 
Q 2194 3503 2194 3750 
Q 2194 3997 2020 4172 
Q 1847 4347 1600 4347 
z
M 1600 4750 
Q 1800 4750 1984 4673 
Q 2169 4597 2303 4453 
Q 2447 4313 2519 4134 
Q 2591 3956 2591 3750 
Q 2591 3338 2302 3052 
Q 2013 2766 1594 2766 
Q 1172 2766 890 3047 
Q 609 3328 609 3750 
Q 609 4169 896 4459 
Q 1184 4750 1600 4750 
z
" transform="scale(0.015625)"/>
       </defs>
       <use xlink:href="#DejaVuSans-30"/>
       <use xlink:href="#DejaVuSans-b0" x="63.623047"/>
      </g>
     </g>
    </g>
    <g id="xtick_2">
     <g id="line2d_2">
      <path d="M 184.5 179.1 
L 280.595812 83.004188 
" clip-path="url(#p851281e493)" style="fill: none; stroke: #b0b0b0; stroke-width: 0.8; stroke-linecap: square"/>
     </g>
     <g id="text_2">
      <!-- 45° -->
      <g transform="translate(281.632806 75.864069) scale(0.1 -0.1)">
       <defs>
        <path id="DejaVuSans-34" d="M 2419 4116 
L 825 1625 
L 2419 1625 
L 2419 4116 
z
M 2253 4666 
L 3047 4666 
L 3047 1625 
L 3713 1625 
L 3713 1100 
L 3047 1100 
L 3047 0 
L 2419 0 
L 2419 1100 
L 313 1100 
L 313 1709 
L 2253 4666 
z
" transform="scale(0.015625)"/>
        <path id="DejaVuSans-35" d="M 691 4666 
L 3169 4666 
L 3169 4134 
L 1269 4134 
L 1269 2991 
Q 1406 3038 1543 3061 
Q 1681 3084 1819 3084 
Q 2600 3084 3056 2656 
Q 3513 2228 3513 1497 
Q 3513 744 3044 326 
Q 2575 -91 1722 -91 
Q 1428 -91 1123 -41 
Q 819 9 494 109 
L 494 744 
Q 775 591 1075 516 
Q 1375 441 1709 441 
Q 2250 441 2565 725 
Q 2881 1009 2881 1497 
Q 2881 1984 2565 2268 
Q 2250 2553 1709 2553 
Q 1456 2553 1204 2497 
Q 953 2441 691 2322 
L 691 4666 
z
" transform="scale(0.015625)"/>
       </defs>
       <use xlink:href="#DejaVuSans-34"/>
       <use xlink:href="#DejaVuSans-35" x="63.623047"/>
       <use xlink:href="#DejaVuSans-b0" x="127.246094"/>
      </g>
     </g>
    </g>
    <g id="xtick_3">
     <g id="line2d_3">
      <path d="M 184.5 179.1 
L 184.5 43.2 
" clip-path="url(#p851281e493)" style="fill: none; stroke: #b0b0b0; stroke-width: 0.8; stroke-linecap: square"/>
     </g>
     <g id="text_3">
      <!-- 90° -->
      <g transform="translate(175.6375 31.959375) scale(0.1 -0.1)">
       <defs>
        <path id="DejaVuSans-39" d="M 703 97 
L 703 672 
Q 941 559 1184 500 
Q 1428 441 1663 441 
Q 2288 441 2617 861 
Q 2947 1281 2994 2138 
Q 2813 1869 2534 1725 
Q 2256 1581 1919 1581 
Q 1219 1581 811 2004 
Q 403 2428 403 3163 
Q 403 3881 828 4315 
Q 1253 4750 1959 4750 
Q 2769 4750 3195 4129 
Q 3622 3509 3622 2328 
Q 3622 1225 3098 567 
Q 2575 -91 1691 -91 
Q 1453 -91 1209 -44 
Q 966 3 703 97 
z
M 1959 2075 
Q 2384 2075 2632 2365 
Q 2881 2656 2881 3163 
Q 2881 3666 2632 3958 
Q 2384 4250 1959 4250 
Q 1534 4250 1286 3958 
Q 1038 3666 1038 3163 
Q 1038 2656 1286 2365 
Q 1534 2075 1959 2075 
z
" transform="scale(0.015625)"/>
       </defs>
       <use xlink:href="#DejaVuSans-39"/>
       <use xlink:href="#DejaVuSans-30" x="63.623047"/>
       <use xlink:href="#DejaVuSans-b0" x="127.246094"/>
      </g>
     </g>
    </g>
    <g id="xtick_4">
     <g id="line2d_4">
      <path d="M 184.5 179.1 
L 88.404188 83.004188 
" clip-path="url(#p851281e493)" style="fill: none; stroke: #b0b0b0; stroke-width: 0.8; stroke-linecap: square"/>
     </g>
     <g id="text_4">
      <!-- 135° -->
      <g transform="translate(66.460944 75.864069) scale(0.1 -0.1)">
       <defs>
        <path id="DejaVuSans-31" d="M 794 531 
L 1825 531 
L 1825 4091 
L 703 3866 
L 703 4441 
L 1819 4666 
L 2450 4666 
L 2450 531 
L 3481 531 
L 3481 0 
L 794 0 
L 794 531 
z
" transform="scale(0.015625)"/>
        <path id="DejaVuSans-33" d="M 2597 2516 
Q 3050 2419 3304 2112 
Q 3559 1806 3559 1356 
Q 3559 666 3084 287 
Q 2609 -91 1734 -91 
Q 1441 -91 1130 -33 
Q 819 25 488 141 
L 488 750 
Q 750 597 1062 519 
Q 1375 441 1716 441 
Q 2309 441 2620 675 
Q 2931 909 2931 1356 
Q 2931 1769 2642 2001 
Q 2353 2234 1838 2234 
L 1294 2234 
L 1294 2753 
L 1863 2753 
Q 2328 2753 2575 2939 
Q 2822 3125 2822 3475 
Q 2822 3834 2567 4026 
Q 2313 4219 1838 4219 
Q 1578 4219 1281 4162 
Q 984 4106 628 3988 
L 628 4550 
Q 988 4650 1302 4700 
Q 1616 4750 1894 4750 
Q 2613 4750 3031 4423 
Q 3450 4097 3450 3541 
Q 3450 3153 3228 2886 
Q 3006 2619 2597 2516 
z
" transform="scale(0.015625)"/>
       </defs>
       <use xlink:href="#DejaVuSans-31"/>
       <use xlink:href="#DejaVuSans-33" x="63.623047"/>
       <use xlink:href="#DejaVuSans-35" x="127.246094"/>
       <use xlink:href="#DejaVuSans-b0" x="190.869141"/>
      </g>
     </g>
    </g>
    <g id="xtick_5">
     <g id="line2d_5">
      <path d="M 184.5 179.1 
L 48.6 179.1 
" clip-path="url(#p851281e493)" style="fill: none; stroke: #b0b0b0; stroke-width: 0.8; stroke-linecap: square"/>
     </g>
     <g id="text_5">
      <!-- 180° -->
      <g transform="translate(22.55625 181.859375) scale(0.1 -0.1)">
       <defs>
        <path id="DejaVuSans-38" d="M 2034 2216 
Q 1584 2216 1326 1975 
Q 1069 1734 1069 1313 
Q 1069 891 1326 650 
Q 1584 409 2034 409 
Q 2484 409 2743 651 
Q 3003 894 3003 1313 
Q 3003 1734 2745 1975 
Q 2488 2216 2034 2216 
z
M 1403 2484 
Q 997 2584 770 2862 
Q 544 3141 544 3541 
Q 544 4100 942 4425 
Q 1341 4750 2034 4750 
Q 2731 4750 3128 4425 
Q 3525 4100 3525 3541 
Q 3525 3141 3298 2862 
Q 3072 2584 2669 2484 
Q 3125 2378 3379 2068 
Q 3634 1759 3634 1313 
Q 3634 634 3220 271 
Q 2806 -91 2034 -91 
Q 1263 -91 848 271 
Q 434 634 434 1313 
Q 434 1759 690 2068 
Q 947 2378 1403 2484 
z
M 1172 3481 
Q 1172 3119 1398 2916 
Q 1625 2713 2034 2713 
Q 2441 2713 2670 2916 
Q 2900 3119 2900 3481 
Q 2900 3844 2670 4047 
Q 2441 4250 2034 4250 
Q 1625 4250 1398 4047 
Q 1172 3844 1172 3481 
z
" transform="scale(0.015625)"/>
       </defs>
       <use xlink:href="#DejaVuSans-31"/>
       <use xlink:href="#DejaVuSans-38" x="63.623047"/>
       <use xlink:href="#DejaVuSans-30" x="127.246094"/>
       <use xlink:href="#DejaVuSans-b0" x="190.869141"/>
      </g>
     </g>
    </g>
    <g id="xtick_6">
     <g id="line2d_6">
      <path d="M 184.5 179.1 
L 88.404188 275.195812 
" clip-path="url(#p851281e493)" style="fill: none; stroke: #b0b0b0; stroke-width: 0.8; stroke-linecap: square"/>
     </g>
     <g id="text_6">
      <!-- 225° -->
      <g transform="translate(66.460944 287.854681) scale(0.1 -0.1)">
       <defs>
        <path id="DejaVuSans-32" d="M 1228 531 
L 3431 531 
L 3431 0 
L 469 0 
L 469 531 
Q 828 903 1448 1529 
Q 2069 2156 2228 2338 
Q 2531 2678 2651 2914 
Q 2772 3150 2772 3378 
Q 2772 3750 2511 3984 
Q 2250 4219 1831 4219 
Q 1534 4219 1204 4116 
Q 875 4013 500 3803 
L 500 4441 
Q 881 4594 1212 4672 
Q 1544 4750 1819 4750 
Q 2544 4750 2975 4387 
Q 3406 4025 3406 3419 
Q 3406 3131 3298 2873 
Q 3191 2616 2906 2266 
Q 2828 2175 2409 1742 
Q 1991 1309 1228 531 
z
" transform="scale(0.015625)"/>
       </defs>
       <use xlink:href="#DejaVuSans-32"/>
       <use xlink:href="#DejaVuSans-32" x="63.623047"/>
       <use xlink:href="#DejaVuSans-35" x="127.246094"/>
       <use xlink:href="#DejaVuSans-b0" x="190.869141"/>
      </g>
     </g>
    </g>
    <g id="xtick_7">
     <g id="line2d_7">
      <path d="M 184.5 179.1 
L 184.5 315 
" clip-path="url(#p851281e493)" style="fill: none; stroke: #b0b0b0; stroke-width: 0.8; stroke-linecap: square"/>
     </g>
     <g id="text_7">
      <!-- 270° -->
      <g transform="translate(172.45625 331.759375) scale(0.1 -0.1)">
       <defs>
        <path id="DejaVuSans-37" d="M 525 4666 
L 3525 4666 
L 3525 4397 
L 1831 0 
L 1172 0 
L 2766 4134 
L 525 4134 
L 525 4666 
z
" transform="scale(0.015625)"/>
       </defs>
       <use xlink:href="#DejaVuSans-32"/>
       <use xlink:href="#DejaVuSans-37" x="63.623047"/>
       <use xlink:href="#DejaVuSans-30" x="127.246094"/>
       <use xlink:href="#DejaVuSans-b0" x="190.869141"/>
      </g>
     </g>
    </g>
    <g id="xtick_8">
     <g id="line2d_8">
      <path d="M 184.5 179.1 
L 280.595812 275.195812 
" clip-path="url(#p851281e493)" style="fill: none; stroke: #b0b0b0; stroke-width: 0.8; stroke-linecap: square"/>
     </g>
     <g id="text_8">
      <!-- 315° -->
      <g transform="translate(278.451556 287.854681) scale(0.1 -0.1)">
       <use xlink:href="#DejaVuSans-33"/>
       <use xlink:href="#DejaVuSans-31" x="63.623047"/>
       <use xlink:href="#DejaVuSans-35" x="127.246094"/>
       <use xlink:href="#DejaVuSans-b0" x="190.869141"/>
      </g>
     </g>
    </g>
   </g>
   <g id="matplotlib.axis_2">
    <g id="ytick_1">
     <g id="line2d_9">
      <path d="M 194.065434 179.1 
C 194.065434 177.843879 193.818006 176.599972 193.337309 175.439467 
C 192.856612 174.278962 192.151995 173.224429 191.263783 172.336217 
C 190.375571 171.448005 189.321038 170.743388 188.160533 170.262691 
C 187.000028 169.781994 185.756121 169.534566 184.5 169.534566 
C 183.243879 169.534566 181.999972 169.781994 180.839467 170.262691 
C 179.678962 170.743388 178.624429 171.448005 177.736217 172.336217 
C 176.848005 173.224429 176.143388 174.278962 175.662691 175.439467 
C 175.181994 176.599972 174.934566 177.843879 174.934566 179.1 
C 174.934566 180.356121 175.181994 181.600028 175.662691 182.760533 
C 176.143388 183.921038 176.848005 184.975571 177.736217 185.863783 
C 178.624429 186.751995 179.678962 187.456612 180.839467 187.937309 
C 181.999972 188.418006 183.243879 188.665434 184.5 188.665434 
C 185.756121 188.665434 187.000028 188.418006 188.160533 187.937309 
C 189.321038 187.456612 190.375571 186.751995 191.263783 185.863783 
C 192.151995 184.975571 192.856612 183.921038 193.337309 182.760533 
C 193.818006 181.600028 194.065434 180.356121 194.065434 179.1 
" clip-path="url(#p851281e493)" style="fill: none; stroke: #b0b0b0; stroke-width: 0.8; stroke-linecap: square"/>
     </g>
    </g>
    <g id="ytick_2">
     <g id="line2d_10">
      <path d="M 212.448385 179.1 
C 212.448385 175.429852 211.725445 171.795391 210.320941 168.404616 
C 208.916436 165.013841 206.857679 161.932694 204.262492 159.337508 
C 201.667306 156.742321 198.586159 154.683564 195.195384 153.279059 
C 191.804609 151.874555 188.170148 151.151615 184.5 151.151615 
C 180.829852 151.151615 177.195391 151.874555 173.804616 153.279059 
C 170.413841 154.683564 167.332694 156.742321 164.737508 159.337508 
C 162.142321 161.932694 160.083564 165.013841 158.679059 168.404616 
C 157.274555 171.795391 156.551615 175.429852 156.551615 179.1 
C 156.551615 182.770148 157.274555 186.404609 158.679059 189.795384 
C 160.083564 193.186159 162.142321 196.267306 164.737508 198.862492 
C 167.332694 201.457679 170.413841 203.516436 173.804616 204.920941 
C 177.195391 206.325445 180.829852 207.048385 184.5 207.048385 
C 188.170148 207.048385 191.804609 206.325445 195.195384 204.920941 
C 198.586159 203.516436 201.667306 201.457679 204.262492 198.862492 
C 206.857679 196.267306 208.916436 193.186159 210.320941 189.795384 
C 211.725445 186.404609 212.448385 182.770148 212.448385 179.1 
" clip-path="url(#p851281e493)" style="fill: none; stroke: #b0b0b0; stroke-width: 0.8; stroke-linecap: square"/>
     </g>
    </g>
    <g id="ytick_3">
     <g id="line2d_11">
      <path d="M 230.831335 179.1 
C 230.831335 173.015825 229.632885 166.990811 227.304572 161.369766 
C 224.976259 155.748721 221.563363 150.64096 217.261201 146.338799 
C 212.95904 142.036637 207.851279 138.623741 202.230234 136.295428 
C 196.609189 133.967115 190.584175 132.768665 184.5 132.768665 
C 178.415825 132.768665 172.390811 133.967115 166.769766 136.295428 
C 161.148721 138.623741 156.04096 142.036637 151.738799 146.338799 
C 147.436637 150.64096 144.023741 155.748721 141.695428 161.369766 
C 139.367115 166.990811 138.168665 173.015825 138.168665 179.1 
C 138.168665 185.184175 139.367115 191.209189 141.695428 196.830234 
C 144.023741 202.451279 147.436637 207.55904 151.738799 211.861201 
C 156.04096 216.163363 161.148721 219.576259 166.769766 221.904572 
C 172.390811 224.232885 178.415825 225.431335 184.5 225.431335 
C 190.584175 225.431335 196.609189 224.232885 202.230234 221.904572 
C 207.851279 219.576259 212.95904 216.163363 217.261201 211.861201 
C 221.563363 207.55904 224.976259 202.451279 227.304572 196.830234 
C 229.632885 191.209189 230.831335 185.184175 230.831335 179.1 
" clip-path="url(#p851281e493)" style="fill: none; stroke: #b0b0b0; stroke-width: 0.8; stroke-linecap: square"/>
     </g>
    </g>
    <g id="ytick_4">
     <g id="line2d_12">
      <path d="M 249.214286 179.1 
C 249.214286 170.601798 247.540325 162.18623 244.288204 154.334915 
C 241.036083 146.4836 236.269047 139.349226 230.25991 133.34009 
C 224.250774 127.330953 217.1164 122.563917 209.265085 119.311796 
C 201.41377 116.059675 192.998202 114.385714 184.5 114.385714 
C 176.001798 114.385714 167.58623 116.059675 159.734915 119.311796 
C 151.8836 122.563917 144.749226 127.330953 138.74009 133.34009 
C 132.730953 139.349226 127.963917 146.4836 124.711796 154.334915 
C 121.459675 162.18623 119.785714 170.601798 119.785714 179.1 
C 119.785714 187.598202 121.459675 196.01377 124.711796 203.865085 
C 127.963917 211.7164 132.730953 218.850774 138.74009 224.85991 
C 144.749226 230.869047 151.8836 235.636083 159.734915 238.888204 
C 167.58623 242.140325 176.001798 243.814286 184.5 243.814286 
C 192.998202 243.814286 201.41377 242.140325 209.265085 238.888204 
C 217.1164 235.636083 224.250774 230.869047 230.25991 224.85991 
C 236.269047 218.850774 241.036083 211.7164 244.288204 203.865085 
C 247.540325 196.01377 249.214286 187.598202 249.214286 179.1 
" clip-path="url(#p851281e493)" style="fill: none; stroke: #b0b0b0; stroke-width: 0.8; stroke-linecap: square"/>
     </g>
    </g>
    <g id="ytick_5">
     <g id="line2d_13">
      <path d="M 267.597236 179.1 
C 267.597236 168.187771 265.447765 157.38165 261.271836 147.300064 
C 257.095907 137.218479 250.97473 128.057492 243.258619 120.341381 
C 235.542508 112.62527 226.381521 106.504093 216.299936 102.328164 
C 206.21835 98.152235 195.412229 96.002764 184.5 96.002764 
C 173.587771 96.002764 162.78165 98.152235 152.700064 102.328164 
C 142.618479 106.504093 133.457492 112.62527 125.741381 120.341381 
C 118.02527 128.057492 111.904093 137.218479 107.728164 147.300064 
C 103.552235 157.38165 101.402764 168.187771 101.402764 179.1 
C 101.402764 190.012229 103.552235 200.81835 107.728164 210.899936 
C 111.904093 220.981521 118.02527 230.142508 125.741381 237.858619 
C 133.457492 245.57473 142.618479 251.695907 152.700064 255.871836 
C 162.78165 260.047765 173.587771 262.197236 184.5 262.197236 
C 195.412229 262.197236 206.21835 260.047765 216.299936 255.871836 
C 226.381521 251.695907 235.542508 245.57473 243.258619 237.858619 
C 250.97473 230.142508 257.095907 220.981521 261.271836 210.899936 
C 265.447765 200.81835 267.597236 190.012229 267.597236 179.1 
" clip-path="url(#p851281e493)" style="fill: none; stroke: #b0b0b0; stroke-width: 0.8; stroke-linecap: square"/>
     </g>
    </g>
    <g id="ytick_6">
     <g id="line2d_14">
      <path d="M 285.980187 179.1 
C 285.980187 165.773744 283.355205 152.577069 278.255468 140.265214 
C 273.15573 127.953359 265.680414 116.765758 256.257328 107.342672 
C 246.834242 97.919586 235.646641 90.44427 223.334786 85.344532 
C 211.022931 80.244795 197.826256 77.619813 184.5 77.619813 
C 171.173744 77.619813 157.977069 80.244795 145.665214 85.344532 
C 133.353359 90.44427 122.165758 97.919586 112.742672 107.342672 
C 103.319586 116.765758 95.84427 127.953359 90.744532 140.265214 
C 85.644795 152.577069 83.019813 165.773744 83.019813 179.1 
C 83.019813 192.426256 85.644795 205.622931 90.744532 217.934786 
C 95.84427 230.246641 103.319586 241.434242 112.742672 250.857328 
C 122.165758 260.280414 133.353359 267.75573 145.665214 272.855468 
C 157.977069 277.955205 171.173744 280.580187 184.5 280.580187 
C 197.826256 280.580187 211.022931 277.955205 223.334786 272.855468 
C 235.646641 267.75573 246.834242 260.280414 256.257328 250.857328 
C 265.680414 241.434242 273.15573 230.246641 278.255468 217.934786 
C 283.355205 205.622931 285.980187 192.426256 285.980187 179.1 
" clip-path="url(#p851281e493)" style="fill: none; stroke: #b0b0b0; stroke-width: 0.8; stroke-linecap: square"/>
     </g>
    </g>
    <g id="ytick_7">
     <g id="line2d_15">
      <path d="M 304.363137 179.1 
C 304.363137 163.359717 301.262645 147.772488 295.239099 133.230363 
C 289.215554 118.688238 280.386098 105.474024 269.256037 94.343963 
C 258.125976 83.213902 244.911762 74.384446 230.369637 68.360901 
C 215.827512 62.337355 200.240283 59.236863 184.5 59.236863 
C 168.759717 59.236863 153.172488 62.337355 138.630363 68.360901 
C 124.088238 74.384446 110.874024 83.213902 99.743963 94.343963 
C 88.613902 105.474024 79.784446 118.688238 73.760901 133.230363 
C 67.737355 147.772488 64.636863 163.359717 64.636863 179.1 
C 64.636863 194.840283 67.737355 210.427512 73.760901 224.969637 
C 79.784446 239.511762 88.613902 252.725976 99.743963 263.856037 
C 110.874024 274.986098 124.088238 283.815554 138.630363 289.839099 
C 153.172488 295.862645 168.759717 298.963137 184.5 298.963137 
C 200.240283 298.963137 215.827512 295.862645 230.369637 289.839099 
C 244.911762 283.815554 258.125976 274.986098 269.256037 263.856037 
C 280.386098 252.725976 289.215554 239.511762 295.239099 224.969637 
C 301.262645 210.427512 304.363137 194.840283 304.363137 179.1 
" clip-path="url(#p851281e493)" style="fill: none; stroke: #b0b0b0; stroke-width: 0.8; stroke-linecap: square"/>
     </g>
    </g>
   </g>
   <g id="line2d_16">
    <path d="M 249.214286 179.1 
L 244.35092 177.782939 
L 239.491394 176.678579 
L 233.987017 175.672527 
L 228.584044 174.930734 
L 223.331612 174.439761 
L 218.276467 174.182093 
L 212.879626 174.144435 
L 207.84477 174.339521 
L 203.222396 174.727116 
L 198.62256 175.329744 
L 194.269206 176.126586 
L 190.415553 177.052765 
L 186.958235 178.117229 
L 184.5 179.1 
L 185.436826 178.557486 
L 187.648839 177.058519 
L 190.208641 175.058409 
L 193.025548 172.567868 
L 195.870193 169.74721 
L 198.580618 166.755707 
L 201.326572 163.386155 
L 203.764034 160.061701 
L 206.11355 156.496031 
L 208.325049 152.728639 
L 210.352955 148.803574 
L 211.968653 145.220791 
L 213.382802 141.586516 
L 214.574776 137.937338 
L 215.528037 134.310465 
L 216.230258 130.743147 
L 216.673385 127.272105 
L 216.853619 123.932964 
L 216.795867 121.146172 
L 216.539854 118.507826 
L 216.090624 116.037813 
L 215.455338 113.754258 
L 214.643118 111.673313 
L 213.664865 109.808961 
L 212.533055 108.17286 
L 211.26152 106.774201 
L 210.071734 105.769424 
L 208.800207 104.946627 
L 207.457236 104.306984 
L 205.814203 103.791761 
L 204.105186 103.522437 
L 202.347061 103.493413 
L 200.556409 103.696511 
L 198.749268 104.121074 
L 196.940902 104.754106 
L 194.890944 105.713271 
L 192.877323 106.898998 
L 190.676412 108.467772 
L 188.562808 110.241946 
L 186.335008 112.395761 
L 184.046013 114.907224 
L 181.38548 118.175394 
L 174.092022 127.438881 
L 172.683399 128.686405 
L 171.533471 129.435582 
L 170.338498 129.949526 
L 169.237693 130.199596 
L 168.069052 130.260345 
L 166.630785 130.097939 
L 165.061961 129.692319 
L 163.115405 128.956148 
L 160.438266 127.681235 
L 156.192532 125.362126 
L 144.603062 118.917677 
L 139.366841 116.297159 
L 134.180545 113.956273 
L 129.184224 111.960178 
L 124.496249 110.329864 
L 120.209589 109.052987 
L 115.842745 107.971025 
L 111.429984 107.112858 
L 107.560153 106.565998 
L 103.709617 106.225628 
L 99.905613 106.104827 
L 96.176153 106.214343 
L 92.549737 106.562453 
L 89.545144 107.05513 
L 86.655344 107.72938 
L 83.898141 108.5858 
L 81.290983 109.623528 
L 78.850826 110.84025 
L 76.59399 112.232215 
L 74.536023 113.794273 
L 72.691567 115.519909 
L 71.327473 117.077292 
L 70.128396 118.73768 
L 69.101006 120.49532 
L 68.251331 122.34393 
L 67.584719 124.27673 
L 67.105798 126.28649 
L 66.81845 128.365567 
L 66.725777 130.505954 
L 66.830084 132.699328 
L 67.132851 134.937101 
L 67.634728 137.210468 
L 68.335515 139.510466 
L 69.43748 142.292838 
L 70.820877 145.084729 
L 72.480507 147.870401 
L 74.409433 150.634284 
L 76.599013 153.361105 
L 79.038958 156.036027 
L 81.717389 158.644772 
L 84.620912 161.173746 
L 87.734712 163.610157 
L 91.042645 165.942126 
L 94.527354 168.158787 
L 98.791599 170.586201 
L 103.240349 172.829997 
L 107.841159 174.879094 
L 112.560398 176.724899 
L 117.363578 178.361397 
L 122.215683 179.785222 
L 127.081512 180.995684 
L 131.926019 181.994772 
L 137.392206 182.883828 
L 142.735237 183.513988 
L 147.906946 183.900504 
L 152.861816 184.062587 
L 158.124317 184.005239 
L 163.004382 183.730272 
L 167.920289 183.220566 
L 172.250633 182.556497 
L 176.28763 181.727042 
L 180.028807 180.734458 
L 183.068527 179.706489 
L 184.4996 179.100202 
L 183.612823 179.611902 
L 181.437206 181.078866 
L 178.900284 183.051278 
L 176.098678 185.516023 
L 173.262962 188.313689 
L 170.556407 191.285463 
L 167.810356 194.63694 
L 165.369555 197.946938 
L 163.013801 201.500198 
L 160.793394 205.2575 
L 158.754178 209.175028 
L 157.126658 212.753402 
L 155.699267 216.385521 
L 154.492879 220.034854 
L 153.524294 223.664215 
L 152.806102 227.23634 
L 152.346627 230.714456 
L 152.14993 234.062857 
L 152.193387 236.859449 
L 152.43538 239.509077 
L 152.871022 241.991737 
L 153.493298 244.28917 
L 154.293221 246.385079 
L 155.260011 248.265316 
L 156.381297 249.918056 
L 157.643336 251.333926 
L 158.825855 252.353768 
L 160.09096 253.191795 
L 161.428377 253.846711 
L 162.827587 254.318676 
L 164.523889 254.640311 
L 166.272901 254.720225 
L 168.057956 254.566054 
L 169.862878 254.18793 
L 171.67222 253.598364 
L 173.726904 252.684652 
L 175.748706 251.539295 
L 177.962351 250.009208 
L 180.091693 248.266012 
L 182.339492 246.137021 
L 184.652147 243.640769 
L 187.159876 240.606519 
L 190.727101 235.884803 
L 193.563686 232.23732 
L 195.118739 230.553065 
L 196.387586 229.460099 
L 197.539655 228.725296 
L 198.738212 228.226378 
L 199.843348 227.989769 
L 201.017425 227.942579 
L 202.46322 228.120354 
L 204.040904 228.540935 
L 205.998893 229.293108 
L 208.691836 230.585858 
L 212.961606 232.92517 
L 224.18893 239.173342 
L 229.405887 241.794268 
L 234.576312 244.139982 
L 239.560276 246.144127 
L 244.239226 247.784564 
L 249.06133 249.220659 
L 253.432078 250.289452 
L 257.846507 251.132738 
L 261.715843 251.665329 
L 265.563969 251.990424 
L 269.363585 252.095101 
L 273.086634 251.968787 
L 276.704591 251.603386 
L 279.700305 251.095636 
L 282.57973 250.406207 
L 285.325091 249.534625 
L 287.918971 248.481872 
L 290.344465 247.250385 
L 292.585311 245.844029 
L 294.626032 244.268073 
L 296.452065 242.52914 
L 297.799975 240.961214 
L 298.982174 239.290833 
L 299.992052 237.523805 
L 300.82365 235.666463 
L 301.471689 233.725634 
L 301.931615 231.708592 
L 302.199622 229.623018 
L 302.272687 227.476953 
L 302.148588 225.278749 
L 301.825924 223.037018 
L 301.304133 220.760582 
L 300.5835 218.458419 
L 299.457926 215.67465 
L 298.051287 212.882678 
L 296.368926 210.09823 
L 294.417927 207.336858 
L 292.207067 204.613801 
L 289.746773 201.943857 
L 287.049053 199.341251 
L 284.127422 196.819514 
L 280.99681 194.391366 
L 277.673467 192.068606 
L 274.174845 189.862011 
L 269.896375 187.447293 
L 265.435672 185.217066 
L 260.825276 183.182235 
L 256.098889 181.351212 
L 251.291049 179.729824 
L 249.214286 179.1 
L 249.214286 179.1 
" clip-path="url(#p851281e493)" style="fill: none; stroke: #1f77b4; stroke-width: 1.5; stroke-linecap: square"/>
   </g>
   <g id="patch_3">
    <path d="M 320.4 179.1 
C 320.4 161.253776 316.884683 143.581083 310.055228 127.093322 
C 303.225774 110.60556 293.214998 95.623375 280.595812 83.004188 
C 267.976625 70.385002 252.99444 60.374226 236.506678 53.544772 
C 220.018917 46.715317 202.346224 43.2 184.5 43.2 
C 166.653776 43.2 148.981083 46.715317 132.493322 53.544772 
C 116.00556 60.374226 101.023375 70.385002 88.404188 83.004188 
C 75.785002 95.623375 65.774226 110.60556 58.944772 127.093322 
C 52.115317 143.581083 48.6 161.253776 48.6 179.1 
C 48.6 196.946224 52.115317 214.618917 58.944772 231.106678 
C 65.774226 247.59444 75.785002 262.576625 88.404188 275.195812 
C 101.023375 287.814998 116.00556 297.825774 132.493322 304.655228 
C 148.981083 311.484683 166.653776 315 184.5 315 
C 202.346224 315 220.018917 311.484683 236.506678 304.655228 
C 252.99444 297.825774 267.976625 287.814998 280.595812 275.195812 
C 293.214998 262.576625 303.225774 247.59444 310.055228 231.106678 
C 316.884683 214.618917 320.4 196.946224 320.4 179.1 
" style="fill: none; stroke: #000000; stroke-width: 0.8; stroke-linejoin: miter; stroke-linecap: square"/>
   </g>
  </g>
 </g>
 <defs>
  <clipPath id="p851281e493">
   <path d="M 320.4 179.1 
C 320.4 161.253776 316.884683 143.581083 310.055228 127.093322 
C 303.225774 110.60556 293.214998 95.623375 280.595812 83.004188 
C 267.976625 70.385002 252.99444 60.374226 236.506678 53.544772 
C 220.018917 46.715317 202.346224 43.2 184.5 43.2 
C 166.653776 43.2 148.981083 46.715317 132.493322 53.544772 
C 116.00556 60.374226 101.023375 70.385002 88.404188 83.004188 
C 75.785002 95.623375 65.774226 110.60556 58.944772 127.093322 
C 52.115317 143.581083 48.6 161.253776 48.6 179.1 
C 48.6 196.946224 52.115317 214.618917 58.944772 231.106678 
C 65.774226 247.59444 75.785002 262.576625 88.404188 275.195812 
C 101.023375 287.814998 116.00556 297.825774 132.493322 304.655228 
C 148.981083 311.484683 166.653776 315 184.5 315 
C 202.346224 315 220.018917 311.484683 236.506678 304.655228 
C 252.99444 297.825774 267.976625 287.814998 280.595812 275.195812 
C 293.214998 262.576625 303.225774 247.59444 310.055228 231.106678 
C 316.884683 214.618917 320.4 196.946224 320.4 179.1 
M 184.5 179.1 
C 184.5 179.1 184.5 179.1 184.5 179.1 
C 184.5 179.1 184.5 179.1 184.5 179.1 
C 184.5 179.1 184.5 179.1 184.5 179.1 
C 184.5 179.1 184.5 179.1 184.5 179.1 
C 184.5 179.1 184.5 179.1 184.5 179.1 
C 184.5 179.1 184.5 179.1 184.5 179.1 
C 184.5 179.1 184.5 179.1 184.5 179.1 
C 184.5 179.1 184.5 179.1 184.5 179.1 
C 184.5 179.1 184.5 179.1 184.5 179.1 
C 184.5 179.1 184.5 179.1 184.5 179.1 
C 184.5 179.1 184.5 179.1 184.5 179.1 
C 184.5 179.1 184.5 179.1 184.5 179.1 
C 184.5 179.1 184.5 179.1 184.5 179.1 
C 184.5 179.1 184.5 179.1 184.5 179.1 
C 184.5 179.1 184.5 179.1 184.5 179.1 
C 184.5 179.1 184.5 179.1 184.5 179.1 
z
"/>
  </clipPath>
 </defs>
</svg>
