<?xml version="1.0" encoding="utf-8" standalone="no"?>
<!DOCTYPE svg PUBLIC "-//W3C//DTD SVG 1.1//EN"
  "http://www.w3.org/Graphics/SVG/1.1/DTD/svg11.dtd">
<svg xmlns:xlink="http://www.w3.org/1999/xlink" width="360pt" height="360pt" viewBox="0 0 360 360" xmlns="http://www.w3.org/2000/svg" version="1.1">
 <metadata>
  <rdf:RDF xmlns:dc="http://purl.org/dc/elements/1.1/" xmlns:cc="http://creativecommons.org/ns#" xmlns:rdf="http://www.w3.org/1999/02/22-rdf-syntax-ns#">
   <cc:Work>
    <dc:type rdf:resource="http://purl.org/dc/dcmitype/StillImage"/>
    <dc:date>2024-07-19T22:07:21.443164</dc:date>
    <dc:format>image/svg+xml</dc:format>
    <dc:creator>
     <cc:Agent>
      <dc:title>Matplotlib v3.5.2, https://matplotlib.org/</dc:title>
     </cc:Agent>
    </dc:creator>
   </cc:Work>
  </rdf:RDF>
 </metadata>
 <defs>
  <style type="text/css">*{stroke-linejoin: round; stroke-linecap: butt}</style>
 </defs>
 <g id="figure_1">
  <g id="patch_1">
   <path d="M 0 360 
L 360 360 
L 360 0 
L 0 0 
z
" style="fill: #ffffff"/>
  </g>
  <g id="axes_1">
   <g id="patch_2">
    <path d="M 320.4 179.1 
C 320.4 161.253776 316.884683 143.581083 310.055228 127.093322 
C 303.225774 110.60556 293.214998 95.623375 280.595812 83.004188 
C 267.976625 70.385002 252.99444 60.374226 236.506678 53.544772 
C 220.018917 46.715317 202.346224 43.2 184.5 43.2 
C 166.653776 43.2 148.981083 46.715317 132.493322 53.544772 
C 116.00556 60.374226 101.023375 70.385002 88.404188 83.004188 
C 75.785002 95.623375 65.774226 110.60556 58.944772 127.093322 
C 52.115317 143.581083 48.6 161.253776 48.6 179.1 
C 48.6 196.946224 52.115317 214.618917 58.944772 231.106678 
C 65.774226 247.59444 75.785002 262.576625 88.404188 275.195812 
C 101.023375 287.814998 116.00556 297.825774 132.493322 304.655228 
C 148.981083 311.484683 166.653776 315 184.5 315 
C 202.346224 315 220.018917 311.484683 236.506678 304.655228 
C 252.99444 297.825774 267.976625 287.814998 280.595812 275.195812 
C 293.214998 262.576625 303.225774 247.59444 310.055228 231.106678 
C 316.884683 214.618917 320.4 196.946224 320.4 179.1 
M 184.5 179.1 
C 184.5 179.1 184.5 179.1 184.5 179.1 
C 184.5 179.1 184.5 179.1 184.5 179.1 
C 184.5 179.1 184.5 179.1 184.5 179.1 
C 184.5 179.1 184.5 179.1 184.5 179.1 
C 184.5 179.1 184.5 179.1 184.5 179.1 
C 184.5 179.1 184.5 179.1 184.5 179.1 
C 184.5 179.1 184.5 179.1 184.5 179.1 
C 184.5 179.1 184.5 179.1 184.5 179.1 
C 184.5 179.1 184.5 179.1 184.5 179.1 
C 184.5 179.1 184.5 179.1 184.5 179.1 
C 184.5 179.1 184.5 179.1 184.5 179.1 
C 184.5 179.1 184.5 179.1 184.5 179.1 
C 184.5 179.1 184.5 179.1 184.5 179.1 
C 184.5 179.1 184.5 179.1 184.5 179.1 
C 184.5 179.1 184.5 179.1 184.5 179.1 
C 184.5 179.1 184.5 179.1 184.5 179.1 
M 320.4 179.1 
z
" style="fill: #ffffff"/>
   </g>
   <g id="matplotlib.axis_1">
    <g id="xtick_1">
     <g id="line2d_1">
      <path d="M 184.5 179.1 
L 320.4 179.1 
" clip-path="url(#p13e7a118d7)" style="fill: none; stroke: #b0b0b0; stroke-width: 0.8; stroke-linecap: square"/>
     </g>
     <g id="text_1">
      <!-- 0° -->
      <g transform="translate(328.71875 181.859375)scale(0.1 -0.1)">
       <defs>
        <path id="DejaVuSans-30" d="M 2034 4250 
Q 1547 4250 1301 3770 
Q 1056 3291 1056 2328 
Q 1056 1369 1301 889 
Q 1547 409 2034 409 
Q 2525 409 2770 889 
Q 3016 1369 3016 2328 
Q 3016 3291 2770 3770 
Q 2525 4250 2034 4250 
z
M 2034 4750 
Q 2819 4750 3233 4129 
Q 3647 3509 3647 2328 
Q 3647 1150 3233 529 
Q 2819 -91 2034 -91 
Q 1250 -91 836 529 
Q 422 1150 422 2328 
Q 422 3509 836 4129 
Q 1250 4750 2034 4750 
z
" transform="scale(0.015625)"/>
        <path id="DejaVuSans-b0" d="M 1600 4347 
Q 1350 4347 1178 4173 
Q 1006 4000 1006 3750 
Q 1006 3503 1178 3333 
Q 1350 3163 1600 3163 
Q 1850 3163 2022 3333 
Q 2194 3503 2194 3750 
Q 2194 3997 2020 4172 
Q 1847 4347 1600 4347 
z
M 1600 4750 
Q 1800 4750 1984 4673 
Q 2169 4597 2303 4453 
Q 2447 4313 2519 4134 
Q 2591 3956 2591 3750 
Q 2591 3338 2302 3052 
Q 2013 2766 1594 2766 
Q 1172 2766 890 3047 
Q 609 3328 609 3750 
Q 609 4169 896 4459 
Q 1184 4750 1600 4750 
z
" transform="scale(0.015625)"/>
       </defs>
       <use xlink:href="#DejaVuSans-30"/>
       <use xlink:href="#DejaVuSans-b0" x="63.623047"/>
      </g>
     </g>
    </g>
    <g id="xtick_2">
     <g id="line2d_2">
      <path d="M 184.5 179.1 
L 280.595812 83.004188 
" clip-path="url(#p13e7a118d7)" style="fill: none; stroke: #b0b0b0; stroke-width: 0.8; stroke-linecap: square"/>
     </g>
     <g id="text_2">
      <!-- 45° -->
      <g transform="translate(281.632806 75.864069)scale(0.1 -0.1)">
       <defs>
        <path id="DejaVuSans-34" d="M 2419 4116 
L 825 1625 
L 2419 1625 
L 2419 4116 
z
M 2253 4666 
L 3047 4666 
L 3047 1625 
L 3713 1625 
L 3713 1100 
L 3047 1100 
L 3047 0 
L 2419 0 
L 2419 1100 
L 313 1100 
L 313 1709 
L 2253 4666 
z
" transform="scale(0.015625)"/>
        <path id="DejaVuSans-35" d="M 691 4666 
L 3169 4666 
L 3169 4134 
L 1269 4134 
L 1269 2991 
Q 1406 3038 1543 3061 
Q 1681 3084 1819 3084 
Q 2600 3084 3056 2656 
Q 3513 2228 3513 1497 
Q 3513 744 3044 326 
Q 2575 -91 1722 -91 
Q 1428 -91 1123 -41 
Q 819 9 494 109 
L 494 744 
Q 775 591 1075 516 
Q 1375 441 1709 441 
Q 2250 441 2565 725 
Q 2881 1009 2881 1497 
Q 2881 1984 2565 2268 
Q 2250 2553 1709 2553 
Q 1456 2553 1204 2497 
Q 953 2441 691 2322 
L 691 4666 
z
" transform="scale(0.015625)"/>
       </defs>
       <use xlink:href="#DejaVuSans-34"/>
       <use xlink:href="#DejaVuSans-35" x="63.623047"/>
       <use xlink:href="#DejaVuSans-b0" x="127.246094"/>
      </g>
     </g>
    </g>
    <g id="xtick_3">
     <g id="line2d_3">
      <path d="M 184.5 179.1 
L 184.5 43.2 
" clip-path="url(#p13e7a118d7)" style="fill: none; stroke: #b0b0b0; stroke-width: 0.8; stroke-linecap: square"/>
     </g>
     <g id="text_3">
      <!-- 90° -->
      <g transform="translate(175.6375 31.959375)scale(0.1 -0.1)">
       <defs>
        <path id="DejaVuSans-39" d="M 703 97 
L 703 672 
Q 941 559 1184 500 
Q 1428 441 1663 441 
Q 2288 441 2617 861 
Q 2947 1281 2994 2138 
Q 2813 1869 2534 1725 
Q 2256 1581 1919 1581 
Q 1219 1581 811 2004 
Q 403 2428 403 3163 
Q 403 3881 828 4315 
Q 1253 4750 1959 4750 
Q 2769 4750 3195 4129 
Q 3622 3509 3622 2328 
Q 3622 1225 3098 567 
Q 2575 -91 1691 -91 
Q 1453 -91 1209 -44 
Q 966 3 703 97 
z
M 1959 2075 
Q 2384 2075 2632 2365 
Q 2881 2656 2881 3163 
Q 2881 3666 2632 3958 
Q 2384 4250 1959 4250 
Q 1534 4250 1286 3958 
Q 1038 3666 1038 3163 
Q 1038 2656 1286 2365 
Q 1534 2075 1959 2075 
z
" transform="scale(0.015625)"/>
       </defs>
       <use xlink:href="#DejaVuSans-39"/>
       <use xlink:href="#DejaVuSans-30" x="63.623047"/>
       <use xlink:href="#DejaVuSans-b0" x="127.246094"/>
      </g>
     </g>
    </g>
    <g id="xtick_4">
     <g id="line2d_4">
      <path d="M 184.5 179.1 
L 88.404188 83.004188 
" clip-path="url(#p13e7a118d7)" style="fill: none; stroke: #b0b0b0; stroke-width: 0.8; stroke-linecap: square"/>
     </g>
     <g id="text_4">
      <!-- 135° -->
      <g transform="translate(66.460944 75.864069)scale(0.1 -0.1)">
       <defs>
        <path id="DejaVuSans-31" d="M 794 531 
L 1825 531 
L 1825 4091 
L 703 3866 
L 703 4441 
L 1819 4666 
L 2450 4666 
L 2450 531 
L 3481 531 
L 3481 0 
L 794 0 
L 794 531 
z
" transform="scale(0.015625)"/>
        <path id="DejaVuSans-33" d="M 2597 2516 
Q 3050 2419 3304 2112 
Q 3559 1806 3559 1356 
Q 3559 666 3084 287 
Q 2609 -91 1734 -91 
Q 1441 -91 1130 -33 
Q 819 25 488 141 
L 488 750 
Q 750 597 1062 519 
Q 1375 441 1716 441 
Q 2309 441 2620 675 
Q 2931 909 2931 1356 
Q 2931 1769 2642 2001 
Q 2353 2234 1838 2234 
L 1294 2234 
L 1294 2753 
L 1863 2753 
Q 2328 2753 2575 2939 
Q 2822 3125 2822 3475 
Q 2822 3834 2567 4026 
Q 2313 4219 1838 4219 
Q 1578 4219 1281 4162 
Q 984 4106 628 3988 
L 628 4550 
Q 988 4650 1302 4700 
Q 1616 4750 1894 4750 
Q 2613 4750 3031 4423 
Q 3450 4097 3450 3541 
Q 3450 3153 3228 2886 
Q 3006 2619 2597 2516 
z
" transform="scale(0.015625)"/>
       </defs>
       <use xlink:href="#DejaVuSans-31"/>
       <use xlink:href="#DejaVuSans-33" x="63.623047"/>
       <use xlink:href="#DejaVuSans-35" x="127.246094"/>
       <use xlink:href="#DejaVuSans-b0" x="190.869141"/>
      </g>
     </g>
    </g>
    <g id="xtick_5">
     <g id="line2d_5">
      <path d="M 184.5 179.1 
L 48.6 179.1 
" clip-path="url(#p13e7a118d7)" style="fill: none; stroke: #b0b0b0; stroke-width: 0.8; stroke-linecap: square"/>
     </g>
     <g id="text_5">
      <!-- 180° -->
      <g transform="translate(22.55625 181.859375)scale(0.1 -0.1)">
       <defs>
        <path id="DejaVuSans-38" d="M 2034 2216 
Q 1584 2216 1326 1975 
Q 1069 1734 1069 1313 
Q 1069 891 1326 650 
Q 1584 409 2034 409 
Q 2484 409 2743 651 
Q 3003 894 3003 1313 
Q 3003 1734 2745 1975 
Q 2488 2216 2034 2216 
z
M 1403 2484 
Q 997 2584 770 2862 
Q 544 3141 544 3541 
Q 544 4100 942 4425 
Q 1341 4750 2034 4750 
Q 2731 4750 3128 4425 
Q 3525 4100 3525 3541 
Q 3525 3141 3298 2862 
Q 3072 2584 2669 2484 
Q 3125 2378 3379 2068 
Q 3634 1759 3634 1313 
Q 3634 634 3220 271 
Q 2806 -91 2034 -91 
Q 1263 -91 848 271 
Q 434 634 434 1313 
Q 434 1759 690 2068 
Q 947 2378 1403 2484 
z
M 1172 3481 
Q 1172 3119 1398 2916 
Q 1625 2713 2034 2713 
Q 2441 2713 2670 2916 
Q 2900 3119 2900 3481 
Q 2900 3844 2670 4047 
Q 2441 4250 2034 4250 
Q 1625 4250 1398 4047 
Q 1172 3844 1172 3481 
z
" transform="scale(0.015625)"/>
       </defs>
       <use xlink:href="#DejaVuSans-31"/>
       <use xlink:href="#DejaVuSans-38" x="63.623047"/>
       <use xlink:href="#DejaVuSans-30" x="127.246094"/>
       <use xlink:href="#DejaVuSans-b0" x="190.869141"/>
      </g>
     </g>
    </g>
    <g id="xtick_6">
     <g id="line2d_6">
      <path d="M 184.5 179.1 
L 88.404188 275.195812 
" clip-path="url(#p13e7a118d7)" style="fill: none; stroke: #b0b0b0; stroke-width: 0.8; stroke-linecap: square"/>
     </g>
     <g id="text_6">
      <!-- 225° -->
      <g transform="translate(66.460944 287.854681)scale(0.1 -0.1)">
       <defs>
        <path id="DejaVuSans-32" d="M 1228 531 
L 3431 531 
L 3431 0 
L 469 0 
L 469 531 
Q 828 903 1448 1529 
Q 2069 2156 2228 2338 
Q 2531 2678 2651 2914 
Q 2772 3150 2772 3378 
Q 2772 3750 2511 3984 
Q 2250 4219 1831 4219 
Q 1534 4219 1204 4116 
Q 875 4013 500 3803 
L 500 4441 
Q 881 4594 1212 4672 
Q 1544 4750 1819 4750 
Q 2544 4750 2975 4387 
Q 3406 4025 3406 3419 
Q 3406 3131 3298 2873 
Q 3191 2616 2906 2266 
Q 2828 2175 2409 1742 
Q 1991 1309 1228 531 
z
" transform="scale(0.015625)"/>
       </defs>
       <use xlink:href="#DejaVuSans-32"/>
       <use xlink:href="#DejaVuSans-32" x="63.623047"/>
       <use xlink:href="#DejaVuSans-35" x="127.246094"/>
       <use xlink:href="#DejaVuSans-b0" x="190.869141"/>
      </g>
     </g>
    </g>
    <g id="xtick_7">
     <g id="line2d_7">
      <path d="M 184.5 179.1 
L 184.5 315 
" clip-path="url(#p13e7a118d7)" style="fill: none; stroke: #b0b0b0; stroke-width: 0.8; stroke-linecap: square"/>
     </g>
     <g id="text_7">
      <!-- 270° -->
      <g transform="translate(172.45625 331.759375)scale(0.1 -0.1)">
       <defs>
        <path id="DejaVuSans-37" d="M 525 4666 
L 3525 4666 
L 3525 4397 
L 1831 0 
L 1172 0 
L 2766 4134 
L 525 4134 
L 525 4666 
z
" transform="scale(0.015625)"/>
       </defs>
       <use xlink:href="#DejaVuSans-32"/>
       <use xlink:href="#DejaVuSans-37" x="63.623047"/>
       <use xlink:href="#DejaVuSans-30" x="127.246094"/>
       <use xlink:href="#DejaVuSans-b0" x="190.869141"/>
      </g>
     </g>
    </g>
    <g id="xtick_8">
     <g id="line2d_8">
      <path d="M 184.5 179.1 
L 280.595812 275.195812 
" clip-path="url(#p13e7a118d7)" style="fill: none; stroke: #b0b0b0; stroke-width: 0.8; stroke-linecap: square"/>
     </g>
     <g id="text_8">
      <!-- 315° -->
      <g transform="translate(278.451556 287.854681)scale(0.1 -0.1)">
       <use xlink:href="#DejaVuSans-33"/>
       <use xlink:href="#DejaVuSans-31" x="63.623047"/>
       <use xlink:href="#DejaVuSans-35" x="127.246094"/>
       <use xlink:href="#DejaVuSans-b0" x="190.869141"/>
      </g>
     </g>
    </g>
   </g>
   <g id="matplotlib.axis_2">
    <g id="ytick_1">
     <g id="line2d_9">
      <path d="M 200.719119 179.1 
C 200.719119 176.970125 200.29958 174.86096 199.484512 172.893212 
C 198.669444 170.925464 197.474698 169.1374 195.968649 167.631351 
C 194.4626 166.125302 192.674536 164.930556 190.706788 164.115488 
C 188.73904 163.30042 186.629875 162.880881 184.5 162.880881 
C 182.370125 162.880881 180.26096 163.30042 178.293212 164.115488 
C 176.325464 164.930556 174.5374 166.125302 173.031351 167.631351 
C 171.525302 169.1374 170.330556 170.925464 169.515488 172.893212 
C 168.70042 174.86096 168.280881 176.970125 168.280881 179.1 
C 168.280881 181.229875 168.70042 183.33904 169.515488 185.306788 
C 170.330556 187.274536 171.525302 189.0626 173.031351 190.568649 
C 174.5374 192.074698 176.325464 193.269444 178.293212 194.084512 
C 180.26096 194.89958 182.370125 195.319119 184.5 195.319119 
C 186.629875 195.319119 188.73904 194.89958 190.706788 194.084512 
C 192.674536 193.269444 194.4626 192.074698 195.968649 190.568649 
C 197.474698 189.0626 198.669444 187.274536 199.484512 185.306788 
C 200.29958 183.33904 200.719119 181.229875 200.719119 179.1 
" clip-path="url(#p13e7a118d7)" style="fill: none; stroke: #b0b0b0; stroke-width: 0.8; stroke-linecap: square"/>
     </g>
    </g>
    <g id="ytick_2">
     <g id="line2d_10">
      <path d="M 216.938238 179.1 
C 216.938238 174.84025 216.09916 170.62192 214.469025 166.686424 
C 212.838889 162.750927 210.449397 159.1748 207.437298 156.162702 
C 204.4252 153.150603 200.849073 150.761111 196.913576 149.130975 
C 192.97808 147.50084 188.75975 146.661762 184.5 146.661762 
C 180.24025 146.661762 176.02192 147.50084 172.086424 149.130975 
C 168.150927 150.761111 164.5748 153.150603 161.562702 156.162702 
C 158.550603 159.1748 156.161111 162.750927 154.530975 166.686424 
C 152.90084 170.62192 152.061762 174.84025 152.061762 179.1 
C 152.061762 183.35975 152.90084 187.57808 154.530975 191.513576 
C 156.161111 195.449073 158.550603 199.0252 161.562702 202.037298 
C 164.5748 205.049397 168.150927 207.438889 172.086424 209.069025 
C 176.02192 210.69916 180.24025 211.538238 184.5 211.538238 
C 188.75975 211.538238 192.97808 210.69916 196.913576 209.069025 
C 200.849073 207.438889 204.4252 205.049397 207.437298 202.037298 
C 210.449397 199.0252 212.838889 195.449073 214.469025 191.513576 
C 216.09916 187.57808 216.938238 183.35975 216.938238 179.1 
" clip-path="url(#p13e7a118d7)" style="fill: none; stroke: #b0b0b0; stroke-width: 0.8; stroke-linecap: square"/>
     </g>
    </g>
    <g id="ytick_3">
     <g id="line2d_11">
      <path d="M 233.157358 179.1 
C 233.157358 172.710374 231.898741 166.38288 229.453537 160.479635 
C 227.008333 154.576391 223.424095 149.2122 218.905948 144.694052 
C 214.3878 140.175905 209.023609 136.591667 203.120365 134.146463 
C 197.21712 131.701259 190.889626 130.442642 184.5 130.442642 
C 178.110374 130.442642 171.78288 131.701259 165.879635 134.146463 
C 159.976391 136.591667 154.6122 140.175905 150.094052 144.694052 
C 145.575905 149.2122 141.991667 154.576391 139.546463 160.479635 
C 137.101259 166.38288 135.842642 172.710374 135.842642 179.1 
C 135.842642 185.489626 137.101259 191.81712 139.546463 197.720365 
C 141.991667 203.623609 145.575905 208.9878 150.094052 213.505948 
C 154.6122 218.024095 159.976391 221.608333 165.879635 224.053537 
C 171.78288 226.498741 178.110374 227.757358 184.5 227.757358 
C 190.889626 227.757358 197.21712 226.498741 203.120365 224.053537 
C 209.023609 221.608333 214.3878 218.024095 218.905948 213.505948 
C 223.424095 208.9878 227.008333 203.623609 229.453537 197.720365 
C 231.898741 191.81712 233.157358 185.489626 233.157358 179.1 
" clip-path="url(#p13e7a118d7)" style="fill: none; stroke: #b0b0b0; stroke-width: 0.8; stroke-linecap: square"/>
     </g>
    </g>
    <g id="ytick_4">
     <g id="line2d_12">
      <path d="M 249.376477 179.1 
C 249.376477 170.580499 247.698321 162.14384 244.438049 154.272847 
C 241.177777 146.401855 236.398794 139.2496 230.374597 133.225403 
C 224.3504 127.201206 217.198145 122.422223 209.327153 119.161951 
C 201.45616 115.901679 193.019501 114.223523 184.5 114.223523 
C 175.980499 114.223523 167.54384 115.901679 159.672847 119.161951 
C 151.801855 122.422223 144.6496 127.201206 138.625403 133.225403 
C 132.601206 139.2496 127.822223 146.401855 124.561951 154.272847 
C 121.301679 162.14384 119.623523 170.580499 119.623523 179.1 
C 119.623523 187.619501 121.301679 196.05616 124.561951 203.927153 
C 127.822223 211.798145 132.601206 218.9504 138.625403 224.974597 
C 144.6496 230.998794 151.801855 235.777777 159.672847 239.038049 
C 167.54384 242.298321 175.980499 243.976477 184.5 243.976477 
C 193.019501 243.976477 201.45616 242.298321 209.327153 239.038049 
C 217.198145 235.777777 224.3504 230.998794 230.374597 224.974597 
C 236.398794 218.9504 241.177777 211.798145 244.438049 203.927153 
C 247.698321 196.05616 249.376477 187.619501 249.376477 179.1 
" clip-path="url(#p13e7a118d7)" style="fill: none; stroke: #b0b0b0; stroke-width: 0.8; stroke-linecap: square"/>
     </g>
    </g>
    <g id="ytick_5">
     <g id="line2d_13">
      <path d="M 265.595596 179.1 
C 265.595596 168.450624 263.497901 157.9048 259.422561 148.066059 
C 255.347222 138.227318 249.373492 129.287 241.843246 121.756754 
C 234.313 114.226508 225.372682 108.252778 215.533941 104.177439 
C 205.6952 100.102099 195.149376 98.004404 184.5 98.004404 
C 173.850624 98.004404 163.3048 100.102099 153.466059 104.177439 
C 143.627318 108.252778 134.687 114.226508 127.156754 121.756754 
C 119.626508 129.287 113.652778 138.227318 109.577439 148.066059 
C 105.502099 157.9048 103.404404 168.450624 103.404404 179.1 
C 103.404404 189.749376 105.502099 200.2952 109.577439 210.133941 
C 113.652778 219.972682 119.626508 228.913 127.156754 236.443246 
C 134.687 243.973492 143.627318 249.947222 153.466059 254.022561 
C 163.3048 258.097901 173.850624 260.195596 184.5 260.195596 
C 195.149376 260.195596 205.6952 258.097901 215.533941 254.022561 
C 225.372682 249.947222 234.313 243.973492 241.843246 236.443246 
C 249.373492 228.913 255.347222 219.972682 259.422561 210.133941 
C 263.497901 200.2952 265.595596 189.749376 265.595596 179.1 
" clip-path="url(#p13e7a118d7)" style="fill: none; stroke: #b0b0b0; stroke-width: 0.8; stroke-linecap: square"/>
     </g>
    </g>
    <g id="ytick_6">
     <g id="line2d_14">
      <path d="M 281.814715 179.1 
C 281.814715 166.320749 279.297481 153.665759 274.407074 141.859271 
C 269.516666 130.052782 262.34819 119.3244 253.311895 110.288105 
C 244.2756 101.25181 233.547218 94.083334 221.740729 89.192926 
C 209.934241 84.302519 197.279251 81.785285 184.5 81.785285 
C 171.720749 81.785285 159.065759 84.302519 147.259271 89.192926 
C 135.452782 94.083334 124.7244 101.25181 115.688105 110.288105 
C 106.65181 119.3244 99.483334 130.052782 94.592926 141.859271 
C 89.702519 153.665759 87.185285 166.320749 87.185285 179.1 
C 87.185285 191.879251 89.702519 204.534241 94.592926 216.340729 
C 99.483334 228.147218 106.65181 238.8756 115.688105 247.911895 
C 124.7244 256.94819 135.452782 264.116666 147.259271 269.007074 
C 159.065759 273.897481 171.720749 276.414715 184.5 276.414715 
C 197.279251 276.414715 209.934241 273.897481 221.740729 269.007074 
C 233.547218 264.116666 244.2756 256.94819 253.311895 247.911895 
C 262.34819 238.8756 269.516666 228.147218 274.407074 216.340729 
C 279.297481 204.534241 281.814715 191.879251 281.814715 179.1 
" clip-path="url(#p13e7a118d7)" style="fill: none; stroke: #b0b0b0; stroke-width: 0.8; stroke-linecap: square"/>
     </g>
    </g>
    <g id="ytick_7">
     <g id="line2d_15">
      <path d="M 298.033835 179.1 
C 298.033835 164.190873 295.097062 149.426719 289.391586 135.652482 
C 283.68611 121.878246 275.322889 109.3618 264.780544 98.819456 
C 254.2382 88.277111 241.721754 79.91389 227.947518 74.208414 
C 214.173281 68.502938 199.409127 65.566165 184.5 65.566165 
C 169.590873 65.566165 154.826719 68.502938 141.052482 74.208414 
C 127.278246 79.91389 114.7618 88.277111 104.219456 98.819456 
C 93.677111 109.3618 85.31389 121.878246 79.608414 135.652482 
C 73.902938 149.426719 70.966165 164.190873 70.966165 179.1 
C 70.966165 194.009127 73.902938 208.773281 79.608414 222.547518 
C 85.31389 236.321754 93.677111 248.8382 104.219456 259.380544 
C 114.7618 269.922889 127.278246 278.28611 141.052482 283.991586 
C 154.826719 289.697062 169.590873 292.633835 184.5 292.633835 
C 199.409127 292.633835 214.173281 289.697062 227.947518 283.991586 
C 241.721754 278.28611 254.2382 269.922889 264.780544 259.380544 
C 275.322889 248.8382 283.68611 236.321754 289.391586 222.547518 
C 295.097062 208.773281 298.033835 194.009127 298.033835 179.1 
" clip-path="url(#p13e7a118d7)" style="fill: none; stroke: #b0b0b0; stroke-width: 0.8; stroke-linecap: square"/>
     </g>
    </g>
    <g id="ytick_8">
     <g id="line2d_16">
      <path d="M 314.252954 179.1 
C 314.252954 162.060998 310.896642 145.187679 304.376098 129.445694 
C 297.855555 113.703709 288.297587 99.3992 276.249194 87.350806 
C 264.2008 75.302413 249.896291 65.744445 234.154306 59.223902 
C 218.412321 52.703358 201.539002 49.347046 184.5 49.347046 
C 167.460998 49.347046 150.587679 52.703358 134.845694 59.223902 
C 119.103709 65.744445 104.7992 75.302413 92.750806 87.350806 
C 80.702413 99.3992 71.144445 113.703709 64.623902 129.445694 
C 58.103358 145.187679 54.747046 162.060998 54.747046 179.1 
C 54.747046 196.139002 58.103358 213.012321 64.623902 228.754306 
C 71.144445 244.496291 80.702413 258.8008 92.750806 270.849194 
C 104.7992 282.897587 119.103709 292.455555 134.845694 298.976098 
C 150.587679 305.496642 167.460998 308.852954 184.5 308.852954 
C 201.539002 308.852954 218.412321 305.496642 234.154306 298.976098 
C 249.896291 292.455555 264.2008 282.897587 276.249194 270.849194 
C 288.297587 258.8008 297.855555 244.496291 304.376098 228.754306 
C 310.896642 213.012321 314.252954 196.139002 314.252954 179.1 
" clip-path="url(#p13e7a118d7)" style="fill: none; stroke: #b0b0b0; stroke-width: 0.8; stroke-linecap: square"/>
     </g>
    </g>
   </g>
   <g id="line2d_17">
    <path d="M 184.5 179.1 
L 185.143649 179.018688 
L 185.756765 178.777318 
L 186.309619 178.383521 
L 186.774068 177.849821 
L 187.124309 177.193328 
L 187.337575 176.43534 
L 187.394768 175.600827 
L 187.281004 174.717838 
L 186.986075 173.816821 
L 186.504793 172.92988 
L 185.83723 172.089993 
L 184.988835 171.330185 
L 183.970428 170.6827 
L 182.79807 170.178173 
L 181.49281 169.844821 
L 180.08031 169.707681 
L 178.590366 169.787906 
L 177.056312 170.102127 
L 175.514346 170.661909 
L 174.002766 171.473313 
L 172.561145 172.536559 
L 171.229463 173.845823 
L 170.047199 175.389152 
L 169.052422 177.148517 
L 168.280881 179.1 
L 167.765124 181.214106 
L 167.533669 183.456213 
L 167.610226 185.787135 
L 168.01301 188.1638 
L 168.754148 190.540031 
L 169.839196 192.867411 
L 171.266777 195.096219 
L 173.028357 197.176417 
L 175.108159 199.058677 
L 177.483223 200.695419 
L 180.12361 202.041841 
L 182.992758 203.056929 
L 186.047979 203.704414 
L 189.241089 203.953661 
L 192.519174 203.780478 
L 195.825455 203.167816 
L 197.47061 202.693451 
L 199.100273 202.106349 
L 200.70671 201.406623 
L 202.282144 200.594919 
L 203.818787 199.672419 
L 205.308883 198.640842 
L 206.744742 197.502451 
L 208.118778 196.260046 
L 209.423545 194.916962 
L 210.651777 193.477061 
L 211.796426 191.944723 
L 212.850693 190.324833 
L 213.808068 188.622769 
L 214.662366 186.844379 
L 215.407758 184.99597 
L 216.038804 183.084278 
L 216.550487 181.116446 
L 216.938238 179.1 
L 217.197971 177.042818 
L 217.326102 174.953099 
L 217.319578 172.839331 
L 217.175897 170.710256 
L 216.893128 168.574835 
L 216.46993 166.442209 
L 215.905565 164.321663 
L 215.199913 162.22258 
L 214.353477 160.154408 
L 213.367395 158.12661 
L 212.243442 156.148628 
L 210.984033 154.229837 
L 209.592218 152.379502 
L 208.071679 150.606735 
L 206.426726 148.920451 
L 204.662282 147.329328 
L 202.783871 145.841761 
L 200.797606 144.465825 
L 198.710161 143.209229 
L 196.52876 142.079282 
L 194.261145 141.082851 
L 191.91555 140.226325 
L 189.500675 139.515582 
L 187.025649 138.955956 
L 184.5 138.552202 
L 181.933615 138.308471 
L 179.336702 138.228284 
L 176.719751 138.314505 
L 174.09349 138.56932 
L 171.468843 138.994223 
L 168.856881 139.589992 
L 166.26878 140.356686 
L 163.71577 141.293626 
L 161.209088 142.399396 
L 158.75993 143.671834 
L 156.379401 145.108034 
L 154.078462 146.704352 
L 151.867888 148.456407 
L 149.758212 150.359093 
L 147.759679 152.406595 
L 145.8822 154.592399 
L 144.1353 156.909318 
L 142.528076 159.349512 
L 141.069152 161.904511 
L 139.766633 164.565248 
L 138.628068 167.32209 
L 137.660408 170.16487 
L 136.869969 173.082928 
L 136.262399 176.065147 
L 135.842642 179.1 
L 135.614914 182.175589 
L 135.582671 185.279696 
L 135.748588 188.399829 
L 136.114537 191.523275 
L 136.681573 194.637149 
L 137.449914 197.728447 
L 138.418937 200.784102 
L 139.587165 203.79104 
L 140.952268 206.736231 
L 142.511062 209.606749 
L 144.259511 212.389827 
L 146.192738 215.072914 
L 148.305031 217.643727 
L 150.589865 220.090311 
L 153.039915 222.401092 
L 155.64708 224.564928 
L 158.402508 226.571161 
L 161.296629 228.409673 
L 164.319183 230.070926 
L 167.459256 231.546017 
L 170.705324 232.826715 
L 174.04529 233.905509 
L 177.46653 234.775644 
L 180.955944 235.431158 
L 184.5 235.866917 
L 188.084792 236.078643 
L 191.696093 236.062942 
L 195.319409 235.817329 
L 198.940041 235.340245 
L 202.543141 234.631077 
L 206.113775 233.690164 
L 209.636985 232.518812 
L 213.09785 231.119296 
L 216.48155 229.494859 
L 219.773429 227.649709 
L 222.959055 225.589012 
L 226.024289 223.318877 
L 228.955341 220.846344 
L 231.738834 218.179362 
L 234.361864 215.326765 
L 236.812055 212.29824 
L 239.077622 209.104302 
L 241.147422 205.756253 
L 243.011004 202.266145 
L 244.658666 198.646736 
L 246.081498 194.911441 
L 247.271426 191.07429 
L 248.221257 187.149867 
L 248.924716 183.15326 
L 249.376477 179.1 
L 249.5722 175.006004 
L 249.508556 170.88751 
L 249.183246 166.761011 
L 248.595028 162.643194 
L 247.743726 158.550868 
L 246.630241 154.500897 
L 245.256561 150.510133 
L 243.625758 146.59534 
L 241.741987 142.77313 
L 239.610481 139.059892 
L 237.237535 135.471717 
L 234.630491 132.024335 
L 231.79772 128.733044 
L 228.74859 125.612642 
L 225.493444 122.677365 
L 222.043559 119.940817 
L 218.411112 117.415916 
L 214.609136 115.114829 
L 210.651473 113.048918 
L 206.552727 111.228684 
L 202.328207 109.663719 
L 197.99387 108.362657 
L 193.566264 107.333129 
L 189.062463 106.581727 
L 184.5 106.113963 
L 179.896801 105.934242 
L 175.271112 106.045831 
L 170.641431 106.450837 
L 166.026428 107.150189 
L 161.444876 108.143624 
L 156.915569 109.429681 
L 152.45725 111.00569 
L 148.08853 112.867781 
L 143.827811 115.010885 
L 139.693212 117.428747 
L 135.702489 120.113942 
L 131.87296 123.057894 
L 128.22143 126.250905 
L 124.764119 129.682182 
L 121.516593 133.339876 
L 118.49369 137.211122 
L 115.709455 141.282078 
L 113.17708 145.537982 
L 110.90884 149.963199 
L 108.916035 154.541281 
L 107.208936 159.255028 
L 105.79674 164.08655 
L 104.687516 169.017338 
L 103.88817 174.028334 
L 103.404404 179.1 
L 103.240685 184.212403 
L 103.400218 189.345285 
L 103.88492 194.478149 
L 104.695406 199.590337 
L 105.830975 204.661116 
L 107.289603 209.669759 
L 109.067941 214.595633 
L 111.16132 219.418281 
L 113.563758 224.117508 
L 116.267976 228.673467 
L 119.265419 233.066739 
L 122.54628 237.278416 
L 126.099529 241.290185 
L 129.912954 245.084404 
L 133.973197 248.644178 
L 138.265802 251.953438 
L 142.775268 254.997006 
L 147.485099 257.760668 
L 152.377871 260.231238 
L 157.435289 262.396615 
L 162.638262 264.245846 
L 167.96697 265.769177 
L 173.400941 266.958097 
L 178.91913 267.805387 
L 184.5 268.305156 
L 190.121606 268.452872 
L 195.761682 268.245396 
L 201.397729 267.680997 
L 207.007103 266.759377 
L 212.567107 265.481675 
L 218.055087 263.850475 
L 223.448515 261.869808 
L 228.725091 259.545141 
L 233.862828 256.88337 
L 238.840147 253.892796 
L 243.635967 250.583104 
L 248.229791 246.965335 
L 252.6018 243.051846 
L 256.732927 238.856274 
L 260.60495 234.393483 
L 264.200566 229.679517 
L 267.503468 224.731542 
L 270.498417 219.567783 
L 273.171315 214.207457 
L 275.509264 208.670703 
L 277.500629 202.978503 
L 279.135094 197.15261 
L 280.403711 191.215456 
L 281.298945 185.190073 
L 281.814715 179.1 
L 281.946429 172.96919 
L 281.691009 166.82192 
L 281.046914 160.682691 
L 280.01416 154.576132 
L 278.594324 148.526901 
L 276.790553 142.559585 
L 274.607557 136.698602 
L 272.051603 130.968099 
L 269.130498 125.391853 
L 265.853567 119.993174 
L 262.231627 114.794806 
L 258.276949 109.818833 
L 254.003222 105.086586 
L 249.425502 100.61855 
L 244.560162 96.434279 
L 239.424836 92.552307 
L 234.038353 88.990071 
L 228.420666 85.763834 
L 222.592785 82.888607 
L 216.576694 80.378086 
L 210.395269 78.244588 
L 204.07219 76.498989 
L 197.631853 75.150676 
L 191.099277 74.207498 
L 184.5 73.675725 
L 177.859987 73.560013 
L 171.205523 73.863378 
L 164.563111 74.587169 
L 157.959366 75.731057 
L 151.420909 77.293026 
L 144.974257 79.269369 
L 138.64572 81.654694 
L 132.461289 84.441936 
L 126.446534 87.622375 
L 120.626494 91.185661 
L 115.025578 95.11985 
L 109.667457 99.411436 
L 104.574971 104.045402 
L 99.770027 109.00527 
L 95.273507 114.273158 
L 91.105179 119.829844 
L 87.28361 125.654837 
L 83.826085 131.726451 
L 80.748529 138.021887 
L 78.065437 144.517314 
L 75.789805 151.187966 
L 73.933072 158.00823 
L 72.505063 164.951749 
L 71.513941 171.99152 
L 70.966165 179.1 
L 70.866456 186.249217 
L 71.217765 193.410874 
L 72.021252 200.556469 
L 73.276274 207.657399 
L 74.980377 214.685083 
L 77.129292 221.611071 
L 79.716945 228.407163 
L 82.735475 235.045521 
L 86.175247 241.498786 
L 90.02489 247.740185 
L 94.271327 253.74365 
L 98.899821 259.483918 
L 103.894027 264.936643 
L 109.236043 270.078496 
L 114.906479 274.887265 
L 120.884525 279.341949 
L 127.148027 283.422851 
L 133.673569 287.111664 
L 140.436559 290.391549 
L 147.411322 293.247213 
L 154.5712 295.664978 
L 161.88865 297.632845 
L 169.335352 299.140551 
L 176.882316 300.179616 
L 184.5 300.743394 
L 192.15842 300.827101 
L 199.827272 300.427849 
L 207.476049 299.544665 
L 215.074164 298.178509 
L 222.591074 296.332273 
L 229.996399 294.010786 
L 237.260045 291.220804 
L 244.352331 287.970987 
L 251.244105 284.271881 
L 257.906865 280.135882 
L 264.312878 275.577196 
L 270.435294 270.611793 
L 276.248258 265.257349 
L 281.727019 259.533185 
L 286.848036 253.460201 
L 291.589076 247.060794 
L 295.929313 240.358783 
L 299.849413 233.379314 
L 303.331627 226.148769 
L 306.359862 218.694669 
L 308.919761 211.045565 
L 310.998762 203.230929 
L 312.586164 195.281045 
L 313.673174 187.226887 
L 313.673174 187.226887 
" clip-path="url(#p13e7a118d7)" style="fill: none; stroke: #1f77b4; stroke-width: 1.5; stroke-linecap: square"/>
   </g>
   <g id="patch_3">
    <path d="M 320.4 179.1 
C 320.4 161.253776 316.884683 143.581083 310.055228 127.093322 
C 303.225774 110.60556 293.214998 95.623375 280.595812 83.004188 
C 267.976625 70.385002 252.99444 60.374226 236.506678 53.544772 
C 220.018917 46.715317 202.346224 43.2 184.5 43.2 
C 166.653776 43.2 148.981083 46.715317 132.493322 53.544772 
C 116.00556 60.374226 101.023375 70.385002 88.404188 83.004188 
C 75.785002 95.623375 65.774226 110.60556 58.944772 127.093322 
C 52.115317 143.581083 48.6 161.253776 48.6 179.1 
C 48.6 196.946224 52.115317 214.618917 58.944772 231.106678 
C 65.774226 247.59444 75.785002 262.576625 88.404188 275.195812 
C 101.023375 287.814998 116.00556 297.825774 132.493322 304.655228 
C 148.981083 311.484683 166.653776 315 184.5 315 
C 202.346224 315 220.018917 311.484683 236.506678 304.655228 
C 252.99444 297.825774 267.976625 287.814998 280.595812 275.195812 
C 293.214998 262.576625 303.225774 247.59444 310.055228 231.106678 
C 316.884683 214.618917 320.4 196.946224 320.4 179.1 
" style="fill: none; stroke: #000000; stroke-width: 0.8; stroke-linejoin: miter; stroke-linecap: square"/>
   </g>
  </g>
 </g>
 <defs>
  <clipPath id="p13e7a118d7">
   <path d="M 320.4 179.1 
C 320.4 161.253776 316.884683 143.581083 310.055228 127.093322 
C 303.225774 110.60556 293.214998 95.623375 280.595812 83.004188 
C 267.976625 70.385002 252.99444 60.374226 236.506678 53.544772 
C 220.018917 46.715317 202.346224 43.2 184.5 43.2 
C 166.653776 43.2 148.981083 46.715317 132.493322 53.544772 
C 116.00556 60.374226 101.023375 70.385002 88.404188 83.004188 
C 75.785002 95.623375 65.774226 110.60556 58.944772 127.093322 
C 52.115317 143.581083 48.6 161.253776 48.6 179.1 
C 48.6 196.946224 52.115317 214.618917 58.944772 231.106678 
C 65.774226 247.59444 75.785002 262.576625 88.404188 275.195812 
C 101.023375 287.814998 116.00556 297.825774 132.493322 304.655228 
C 148.981083 311.484683 166.653776 315 184.5 315 
C 202.346224 315 220.018917 311.484683 236.506678 304.655228 
C 252.99444 297.825774 267.976625 287.814998 280.595812 275.195812 
C 293.214998 262.576625 303.225774 247.59444 310.055228 231.106678 
C 316.884683 214.618917 320.4 196.946224 320.4 179.1 
M 184.5 179.1 
C 184.5 179.1 184.5 179.1 184.5 179.1 
C 184.5 179.1 184.5 179.1 184.5 179.1 
C 184.5 179.1 184.5 179.1 184.5 179.1 
C 184.5 179.1 184.5 179.1 184.5 179.1 
C 184.5 179.1 184.5 179.1 184.5 179.1 
C 184.5 179.1 184.5 179.1 184.5 179.1 
C 184.5 179.1 184.5 179.1 184.5 179.1 
C 184.5 179.1 184.5 179.1 184.5 179.1 
C 184.5 179.1 184.5 179.1 184.5 179.1 
C 184.5 179.1 184.5 179.1 184.5 179.1 
C 184.5 179.1 184.5 179.1 184.5 179.1 
C 184.5 179.1 184.5 179.1 184.5 179.1 
C 184.5 179.1 184.5 179.1 184.5 179.1 
C 184.5 179.1 184.5 179.1 184.5 179.1 
C 184.5 179.1 184.5 179.1 184.5 179.1 
C 184.5 179.1 184.5 179.1 184.5 179.1 
M 320.4 179.1 
z
"/>
  </clipPath>
 </defs>
</svg>
