<?xml version="1.0" encoding="utf-8" standalone="no"?>
<!DOCTYPE svg PUBLIC "-//W3C//DTD SVG 1.1//EN"
  "http://www.w3.org/Graphics/SVG/1.1/DTD/svg11.dtd">
<svg xmlns:xlink="http://www.w3.org/1999/xlink" width="432pt" height="288pt" viewBox="0 0 432 288" xmlns="http://www.w3.org/2000/svg" version="1.1">
 <metadata>
  <rdf:RDF xmlns:dc="http://purl.org/dc/elements/1.1/" xmlns:cc="http://creativecommons.org/ns#" xmlns:rdf="http://www.w3.org/1999/02/22-rdf-syntax-ns#">
   <cc:Work>
    <dc:type rdf:resource="http://purl.org/dc/dcmitype/StillImage"/>
    <dc:date>2024-07-19T22:09:50.901754</dc:date>
    <dc:format>image/svg+xml</dc:format>
    <dc:creator>
     <cc:Agent>
      <dc:title>Matplotlib v3.5.2, https://matplotlib.org/</dc:title>
     </cc:Agent>
    </dc:creator>
   </cc:Work>
  </rdf:RDF>
 </metadata>
 <defs>
  <style type="text/css">*{stroke-linejoin: round; stroke-linecap: butt}</style>
 </defs>
 <g id="figure_1">
  <g id="patch_1">
   <path d="M 0 288 
L 432 288 
L 432 0 
L 0 0 
z
" style="fill: #ffffff"/>
  </g>
  <g id="axes_1">
   <g id="patch_2">
    <path d="M 330.12 143.28 
C 330.12 129.00302 327.307746 114.864866 321.844183 101.674657 
C 316.380619 88.484448 308.371998 76.4987 298.276649 66.403351 
C 288.1813 56.308002 276.195552 48.299381 263.005343 42.835817 
C 249.815134 37.372254 235.67698 34.56 221.4 34.56 
C 207.12302 34.56 192.984866 37.372254 179.794657 42.835817 
C 166.604448 48.299381 154.6187 56.308002 144.523351 66.403351 
C 134.428002 76.4987 126.419381 88.484448 120.955817 101.674657 
C 115.492254 114.864866 112.68 129.00302 112.68 143.28 
C 112.68 157.55698 115.492254 171.695134 120.955817 184.885343 
C 126.419381 198.075552 134.428002 210.0613 144.523351 220.156649 
C 154.6187 230.251998 166.604448 238.260619 179.794657 243.724183 
C 192.984866 249.187746 207.12302 252 221.4 252 
C 235.67698 252 249.815134 249.187746 263.005343 243.724183 
C 276.195552 238.260619 288.1813 230.251998 298.276649 220.156649 
C 308.371998 210.0613 316.380619 198.075552 321.844183 184.885343 
C 327.307746 171.695134 330.12 157.55698 330.12 143.28 
M 221.4 143.28 
C 221.4 143.28 221.4 143.28 221.4 143.28 
C 221.4 143.28 221.4 143.28 221.4 143.28 
C 221.4 143.28 221.4 143.28 221.4 143.28 
C 221.4 143.28 221.4 143.28 221.4 143.28 
C 221.4 143.28 221.4 143.28 221.4 143.28 
C 221.4 143.28 221.4 143.28 221.4 143.28 
C 221.4 143.28 221.4 143.28 221.4 143.28 
C 221.4 143.28 221.4 143.28 221.4 143.28 
C 221.4 143.28 221.4 143.28 221.4 143.28 
C 221.4 143.28 221.4 143.28 221.4 143.28 
C 221.4 143.28 221.4 143.28 221.4 143.28 
C 221.4 143.28 221.4 143.28 221.4 143.28 
C 221.4 143.28 221.4 143.28 221.4 143.28 
C 221.4 143.28 221.4 143.28 221.4 143.28 
C 221.4 143.28 221.4 143.28 221.4 143.28 
C 221.4 143.28 221.4 143.28 221.4 143.28 
M 330.12 143.28 
z
" style="fill: #ffffff"/>
   </g>
   <g id="patch_3">
    <path d="M 305.842718 143.28 
L 247.494235 62.970202 
L 136.005507 81.237269 
L 153.084406 192.914185 
L 240.970676 203.512348 
L 305.842718 143.28 
z
" clip-path="url(#p90b8e32b76)" style="fill: #0000ff; opacity: 0.1; stroke: #0000ff; stroke-linejoin: miter"/>
   </g>
   <g id="patch_4">
    <path d="M 326.953398 143.28 
L 254.017794 42.892753 
L 153.084406 93.645815 
L 136.005507 205.322731 
L 234.447118 183.434899 
L 326.953398 143.28 
z
" clip-path="url(#p90b8e32b76)" style="fill: #ff0000; opacity: 0.1; stroke: #ff0000; stroke-linejoin: miter"/>
   </g>
   <g id="patch_5">
    <path d="M 284.732039 143.28 
L 247.494235 62.970202 
L 136.005507 81.237269 
L 170.163304 180.505638 
L 254.017794 243.667247 
L 284.732039 143.28 
z
" clip-path="url(#p90b8e32b76)" style="fill: #008000; opacity: 0.1; stroke: #008000; stroke-linejoin: miter"/>
   </g>
   <g id="matplotlib.axis_1">
    <g id="xtick_1">
     <g id="line2d_1">
      <path d="M 221.4 143.28 
L 330.12 143.28 
" clip-path="url(#p90b8e32b76)" style="fill: none; stroke: #808080; stroke-width: 0.5; stroke-linecap: square"/>
     </g>
     <g id="text_1">
      <!-- A -->
      <g transform="translate(341.134063 146.014375)scale(0.1 -0.1)">
       <defs>
        <path id="Roboto-Thin-41" d="M 103 0 
L 1806 4550 
L 2013 4550 
L 3716 0 
L 3531 0 
L 3025 1359 
L 794 1359 
L 288 0 
L 103 0 
z
M 856 1528 
L 2963 1528 
L 1909 4347 
L 856 1528 
z
" transform="scale(0.015625)"/>
       </defs>
       <use xlink:href="#Roboto-Thin-41"/>
      </g>
     </g>
    </g>
    <g id="xtick_2">
     <g id="line2d_2">
      <path d="M 221.4 143.28 
L 254.996328 39.881136 
" clip-path="url(#p90b8e32b76)" style="fill: none; stroke: #808080; stroke-width: 0.5; stroke-linecap: square"/>
     </g>
     <g id="text_2">
      <!-- B -->
      <g transform="translate(256.307722 29.300719)scale(0.1 -0.1)">
       <defs>
        <path id="Roboto-Thin-42" d="M 3516 1253 
Q 3516 647 3123 323 
Q 2731 0 2109 0 
L 625 0 
L 625 4550 
L 1822 4550 
Q 2513 4550 2911 4269 
Q 3309 3988 3309 3384 
Q 3309 2988 3103 2708 
Q 2897 2428 2509 2356 
Q 2938 2300 3227 1984 
Q 3516 1669 3516 1253 
z
M 794 4381 
L 794 2416 
L 1884 2416 
Q 3138 2416 3138 3397 
Q 3138 4359 1878 4381 
L 794 4381 
z
M 3347 1247 
Q 3347 1638 3045 1942 
Q 2744 2247 2141 2247 
L 794 2247 
L 794 169 
L 2109 169 
Q 2684 169 3015 453 
Q 3347 738 3347 1247 
z
" transform="scale(0.015625)"/>
       </defs>
       <use xlink:href="#Roboto-Thin-42"/>
      </g>
     </g>
    </g>
    <g id="xtick_3">
     <g id="line2d_3">
      <path d="M 221.4 143.28 
L 133.443672 79.375987 
" clip-path="url(#p90b8e32b76)" style="fill: none; stroke: #808080; stroke-width: 0.5; stroke-linecap: square"/>
     </g>
     <g id="text_3">
      <!-- C -->
      <g transform="translate(118.877591 73.881369)scale(0.1 -0.1)">
       <defs>
        <path id="Roboto-Thin-43" d="M 3550 1394 
L 3719 1394 
Q 3650 656 3215 296 
Q 2781 -63 2097 -63 
Q 1347 -63 898 490 
Q 450 1044 450 1934 
L 450 2616 
Q 450 3506 898 4059 
Q 1347 4613 2097 4613 
Q 2781 4613 3215 4252 
Q 3650 3891 3719 3163 
L 3550 3163 
Q 3406 4444 2097 4444 
Q 1434 4444 1026 3944 
Q 619 3444 619 2622 
L 619 1934 
Q 619 1106 1026 606 
Q 1434 106 2097 106 
Q 2731 106 3106 415 
Q 3481 725 3550 1394 
z
" transform="scale(0.015625)"/>
       </defs>
       <use xlink:href="#Roboto-Thin-43"/>
      </g>
     </g>
    </g>
    <g id="xtick_4">
     <g id="line2d_4">
      <path d="M 221.4 143.28 
L 133.443672 207.184013 
" clip-path="url(#p90b8e32b76)" style="fill: none; stroke: #808080; stroke-width: 0.5; stroke-linecap: square"/>
     </g>
     <g id="text_4">
      <!-- D -->
      <g transform="translate(118.845559 218.147381)scale(0.1 -0.1)">
       <defs>
        <path id="Roboto-Thin-44" d="M 625 0 
L 625 4550 
L 1884 4550 
Q 2691 4550 3227 3995 
Q 3763 3441 3763 2553 
L 3763 1997 
Q 3763 1109 3227 554 
Q 2691 0 1884 0 
L 625 0 
z
M 794 4381 
L 794 169 
L 1884 169 
Q 2619 169 3106 681 
Q 3594 1194 3594 1997 
L 3594 2563 
Q 3594 3356 3106 3868 
Q 2619 4381 1884 4381 
L 794 4381 
z
" transform="scale(0.015625)"/>
       </defs>
       <use xlink:href="#Roboto-Thin-44"/>
      </g>
     </g>
    </g>
    <g id="xtick_5">
     <g id="line2d_5">
      <path d="M 221.4 143.28 
L 254.996328 246.678864 
" clip-path="url(#p90b8e32b76)" style="fill: none; stroke: #808080; stroke-width: 0.5; stroke-linecap: square"/>
     </g>
     <g id="text_5">
      <!-- E -->
      <g transform="translate(256.475691 262.728031)scale(0.1 -0.1)">
       <defs>
        <path id="Roboto-Thin-45" d="M 625 0 
L 625 4550 
L 3394 4550 
L 3394 4381 
L 794 4381 
L 794 2425 
L 3075 2425 
L 3075 2256 
L 794 2256 
L 794 169 
L 3394 169 
L 3394 0 
L 625 0 
z
" transform="scale(0.015625)"/>
       </defs>
       <use xlink:href="#Roboto-Thin-45"/>
      </g>
     </g>
    </g>
    <g id="xtick_6">
     <g id="line2d_6">
      <path d="M 221.4 143.28 
L 330.12 143.28 
" clip-path="url(#p90b8e32b76)" style="fill: none; stroke: #808080; stroke-width: 0.5; stroke-linecap: square"/>
     </g>
     <g id="text_6">
      <!-- A -->
      <g transform="translate(341.134063 146.014375)scale(0.1 -0.1)">
       <use xlink:href="#Roboto-Thin-41"/>
      </g>
     </g>
    </g>
    <g id="xtick_7"/>
    <g id="xtick_8"/>
    <g id="xtick_9"/>
    <g id="xtick_10"/>
    <g id="xtick_11"/>
    <g id="xtick_12"/>
    <g id="xtick_13"/>
    <g id="xtick_14"/>
    <g id="xtick_15"/>
    <g id="xtick_16"/>
    <g id="xtick_17"/>
    <g id="xtick_18"/>
    <g id="xtick_19"/>
    <g id="xtick_20"/>
    <g id="xtick_21"/>
   </g>
   <g id="matplotlib.axis_2">
    <g id="ytick_1">
     <g id="line2d_7">
      <path d="M 242.51068 143.28 
C 242.51068 140.507771 241.964611 137.762498 240.903725 135.201293 
C 239.842839 132.640087 238.287767 130.312757 236.327505 128.352495 
C 234.367243 126.392233 232.039913 124.837161 229.478707 123.776275 
C 226.917502 122.715389 224.172229 122.16932 221.4 122.16932 
C 218.627771 122.16932 215.882498 122.715389 213.321293 123.776275 
C 210.760087 124.837161 208.432757 126.392233 206.472495 128.352495 
C 204.512233 130.312757 202.957161 132.640087 201.896275 135.201293 
C 200.835389 137.762498 200.28932 140.507771 200.28932 143.28 
C 200.28932 146.052229 200.835389 148.797502 201.896275 151.358707 
C 202.957161 153.919913 204.512233 156.247243 206.472495 158.207505 
C 208.432757 160.167767 210.760087 161.722839 213.321293 162.783725 
C 215.882498 163.844611 218.627771 164.39068 221.4 164.39068 
C 224.172229 164.39068 226.917502 163.844611 229.478707 162.783725 
C 232.039913 161.722839 234.367243 160.167767 236.327505 158.207505 
C 238.287767 156.247243 239.842839 153.919913 240.903725 151.358707 
C 241.964611 148.797502 242.51068 146.052229 242.51068 143.28 
" clip-path="url(#p90b8e32b76)" style="fill: none; stroke: #808080; stroke-width: 0.5; stroke-linecap: square"/>
     </g>
     <g id="text_7">
      <!-- 1 -->
      <g transform="translate(240.903725 133.170043)scale(0.1 -0.1)">
       <defs>
        <path id="Roboto-Thin-31" d="M 2059 4563 
L 2059 0 
L 1891 0 
L 1891 4338 
L 584 3847 
L 584 4031 
L 2025 4563 
L 2059 4563 
z
" transform="scale(0.015625)"/>
       </defs>
       <use xlink:href="#Roboto-Thin-31"/>
      </g>
     </g>
    </g>
    <g id="ytick_2">
     <g id="line2d_8">
      <path d="M 263.621359 143.28 
C 263.621359 137.735542 262.529222 132.244997 260.40745 127.122585 
C 258.285677 122.000174 255.175533 117.345514 251.255009 113.424991 
C 247.334486 109.504467 242.679826 106.394323 237.557415 104.27255 
C 232.435003 102.150778 226.944458 101.058641 221.4 101.058641 
C 215.855542 101.058641 210.364997 102.150778 205.242585 104.27255 
C 200.120174 106.394323 195.465514 109.504467 191.544991 113.424991 
C 187.624467 117.345514 184.514323 122.000174 182.39255 127.122585 
C 180.270778 132.244997 179.178641 137.735542 179.178641 143.28 
C 179.178641 148.824458 180.270778 154.315003 182.39255 159.437415 
C 184.514323 164.559826 187.624467 169.214486 191.544991 173.135009 
C 195.465514 177.055533 200.120174 180.165677 205.242585 182.28745 
C 210.364997 184.409222 215.855542 185.501359 221.4 185.501359 
C 226.944458 185.501359 232.435003 184.409222 237.557415 182.28745 
C 242.679826 180.165677 247.334486 177.055533 251.255009 173.135009 
C 255.175533 169.214486 258.285677 164.559826 260.40745 159.437415 
C 262.529222 154.315003 263.621359 148.824458 263.621359 143.28 
" clip-path="url(#p90b8e32b76)" style="fill: none; stroke: #808080; stroke-width: 0.5; stroke-linecap: square"/>
     </g>
     <g id="text_8">
      <!-- 2 -->
      <g transform="translate(260.40745 125.091335)scale(0.1 -0.1)">
       <defs>
        <path id="Roboto-Thin-32" d="M 3200 169 
L 3200 0 
L 478 0 
L 478 169 
L 2047 1978 
Q 2784 2856 2784 3391 
Q 2784 3875 2503 4159 
Q 2222 4444 1675 4444 
Q 1184 4444 859 4108 
Q 534 3772 534 3266 
L 366 3266 
Q 366 3819 730 4216 
Q 1094 4613 1675 4613 
Q 2263 4613 2609 4300 
Q 2956 3988 2956 3391 
Q 2956 2969 2657 2536 
Q 2359 2103 1997 1681 
L 700 169 
L 3200 169 
z
" transform="scale(0.015625)"/>
       </defs>
       <use xlink:href="#Roboto-Thin-32"/>
      </g>
     </g>
    </g>
    <g id="ytick_3">
     <g id="line2d_9">
      <path d="M 284.732039 143.28 
C 284.732039 134.963313 283.093833 126.727495 279.911174 119.043878 
C 276.728516 111.360261 272.0633 104.378272 266.182514 98.497486 
C 260.301728 92.6167 253.319739 87.951484 245.636122 84.768826 
C 237.952505 81.586167 229.716687 79.947961 221.4 79.947961 
C 213.083313 79.947961 204.847495 81.586167 197.163878 84.768826 
C 189.480261 87.951484 182.498272 92.6167 176.617486 98.497486 
C 170.7367 104.378272 166.071484 111.360261 162.888826 119.043878 
C 159.706167 126.727495 158.067961 134.963313 158.067961 143.28 
C 158.067961 151.596687 159.706167 159.832505 162.888826 167.516122 
C 166.071484 175.199739 170.7367 182.181728 176.617486 188.062514 
C 182.498272 193.9433 189.480261 198.608516 197.163878 201.791174 
C 204.847495 204.973833 213.083313 206.612039 221.4 206.612039 
C 229.716687 206.612039 237.952505 204.973833 245.636122 201.791174 
C 253.319739 198.608516 260.301728 193.9433 266.182514 188.062514 
C 272.0633 182.181728 276.728516 175.199739 279.911174 167.516122 
C 283.093833 159.832505 284.732039 151.596687 284.732039 143.28 
" clip-path="url(#p90b8e32b76)" style="fill: none; stroke: #808080; stroke-width: 0.5; stroke-linecap: square"/>
     </g>
     <g id="text_9">
      <!-- 3 -->
      <g transform="translate(279.911174 117.012628)scale(0.1 -0.1)">
       <defs>
        <path id="Roboto-Thin-33" d="M 1303 2231 
L 1303 2406 
L 1663 2406 
Q 2253 2409 2565 2704 
Q 2878 3000 2878 3391 
Q 2878 3819 2611 4131 
Q 2344 4444 1763 4444 
Q 1269 4444 928 4153 
Q 588 3863 588 3356 
L 419 3356 
Q 419 3941 816 4277 
Q 1213 4613 1763 4613 
Q 2350 4613 2698 4283 
Q 3047 3953 3047 3378 
Q 3047 3019 2820 2734 
Q 2594 2450 2197 2328 
Q 2644 2225 2895 1939 
Q 3147 1653 3147 1206 
Q 3147 600 2762 268 
Q 2378 -63 1791 -63 
Q 1450 -63 1111 78 
Q 772 219 547 512 
Q 322 806 322 1266 
L 491 1266 
Q 491 759 862 432 
Q 1234 106 1791 106 
Q 2356 106 2667 395 
Q 2978 684 2978 1194 
Q 2978 1750 2604 1990 
Q 2231 2231 1650 2231 
L 1303 2231 
z
" transform="scale(0.015625)"/>
       </defs>
       <use xlink:href="#Roboto-Thin-33"/>
      </g>
     </g>
    </g>
    <g id="ytick_4">
     <g id="line2d_10">
      <path d="M 305.842718 143.28 
C 305.842718 132.191084 303.658444 121.209993 299.414899 110.965171 
C 295.171355 100.720348 288.951067 91.411029 281.110019 83.569981 
C 273.268971 75.728933 263.959652 69.508645 253.714829 65.265101 
C 243.470007 61.021556 232.488916 58.837282 221.4 58.837282 
C 210.311084 58.837282 199.329993 61.021556 189.085171 65.265101 
C 178.840348 69.508645 169.531029 75.728933 161.689981 83.569981 
C 153.848933 91.411029 147.628645 100.720348 143.385101 110.965171 
C 139.141556 121.209993 136.957282 132.191084 136.957282 143.28 
C 136.957282 154.368916 139.141556 165.350007 143.385101 175.594829 
C 147.628645 185.839652 153.848933 195.148971 161.689981 202.990019 
C 169.531029 210.831067 178.840348 217.051355 189.085171 221.294899 
C 199.329993 225.538444 210.311084 227.722718 221.4 227.722718 
C 232.488916 227.722718 243.470007 225.538444 253.714829 221.294899 
C 263.959652 217.051355 273.268971 210.831067 281.110019 202.990019 
C 288.951067 195.148971 295.171355 185.839652 299.414899 175.594829 
C 303.658444 165.350007 305.842718 154.368916 305.842718 143.28 
" clip-path="url(#p90b8e32b76)" style="fill: none; stroke: #808080; stroke-width: 0.5; stroke-linecap: square"/>
     </g>
     <g id="text_10">
      <!-- 4 -->
      <g transform="translate(299.414899 108.933921)scale(0.1 -0.1)">
       <defs>
        <path id="Roboto-Thin-34" d="M 256 1334 
L 2428 4550 
L 2631 4550 
L 2631 1409 
L 3419 1409 
L 3419 1241 
L 2631 1241 
L 2631 0 
L 2463 0 
L 2463 1241 
L 256 1241 
L 256 1334 
z
M 519 1409 
L 2463 1409 
L 2463 4350 
L 2200 3916 
L 519 1409 
z
" transform="scale(0.015625)"/>
       </defs>
       <use xlink:href="#Roboto-Thin-34"/>
      </g>
     </g>
    </g>
    <g id="ytick_5">
     <g id="line2d_11">
      <path d="M 326.953398 143.28 
C 326.953398 129.418855 324.223055 115.692492 318.918624 102.886463 
C 313.614193 90.080435 305.838833 78.443786 296.037524 68.642476 
C 286.236214 58.841167 274.599565 51.065807 261.793537 45.761376 
C 248.987508 40.456945 235.261145 37.726602 221.4 37.726602 
C 207.538855 37.726602 193.812492 40.456945 181.006463 45.761376 
C 168.200435 51.065807 156.563786 58.841167 146.762476 68.642476 
C 136.961167 78.443786 129.185807 90.080435 123.881376 102.886463 
C 118.576945 115.692492 115.846602 129.418855 115.846602 143.28 
C 115.846602 157.141145 118.576945 170.867508 123.881376 183.673537 
C 129.185807 196.479565 136.961167 208.116214 146.762476 217.917524 
C 156.563786 227.718833 168.200435 235.494193 181.006463 240.798624 
C 193.812492 246.103055 207.538855 248.833398 221.4 248.833398 
C 235.261145 248.833398 248.987508 246.103055 261.793537 240.798624 
C 274.599565 235.494193 286.236214 227.718833 296.037524 217.917524 
C 305.838833 208.116214 313.614193 196.479565 318.918624 183.673537 
C 324.223055 170.867508 326.953398 157.141145 326.953398 143.28 
" clip-path="url(#p90b8e32b76)" style="fill: none; stroke: #808080; stroke-width: 0.5; stroke-linecap: square"/>
     </g>
     <g id="text_11">
      <!-- 5 -->
      <g transform="translate(318.918624 100.855213)scale(0.1 -0.1)">
       <defs>
        <path id="Roboto-Thin-35" d="M 850 2331 
L 722 2381 
L 934 4550 
L 3153 4550 
L 3153 4384 
L 1088 4384 
L 903 2559 
Q 1016 2656 1277 2759 
Q 1538 2863 1856 2863 
Q 2444 2863 2822 2489 
Q 3200 2116 3200 1450 
Q 3200 797 2903 367 
Q 2606 -63 1919 -63 
Q 1384 -63 1001 246 
Q 619 556 569 1197 
L 741 1197 
Q 841 106 1919 106 
Q 3028 106 3028 1444 
Q 3028 1978 2726 2336 
Q 2425 2694 1859 2694 
Q 1500 2694 1264 2595 
Q 1028 2497 850 2331 
z
" transform="scale(0.015625)"/>
       </defs>
       <use xlink:href="#Roboto-Thin-35"/>
      </g>
     </g>
    </g>
    <g id="ytick_6"/>
    <g id="ytick_7"/>
    <g id="ytick_8"/>
    <g id="ytick_9"/>
    <g id="ytick_10"/>
    <g id="ytick_11"/>
    <g id="ytick_12"/>
    <g id="ytick_13"/>
    <g id="ytick_14"/>
    <g id="ytick_15"/>
    <g id="ytick_16"/>
    <g id="ytick_17"/>
    <g id="ytick_18"/>
    <g id="ytick_19"/>
    <g id="ytick_20"/>
    <g id="ytick_21"/>
    <g id="ytick_22"/>
    <g id="ytick_23"/>
    <g id="ytick_24"/>
    <g id="ytick_25"/>
   </g>
   <g id="line2d_12">
    <path d="M 305.842718 143.28 
L 247.494235 62.970202 
L 136.005507 81.237269 
L 153.084406 192.914185 
L 240.970676 203.512348 
L 305.842718 143.28 
" clip-path="url(#p90b8e32b76)" style="fill: none; stroke: #0000ff; stroke-width: 1.5; stroke-linecap: square"/>
   </g>
   <g id="line2d_13">
    <path d="M 326.953398 143.28 
L 254.017794 42.892753 
L 153.084406 93.645815 
L 136.005507 205.322731 
L 234.447118 183.434899 
L 326.953398 143.28 
" clip-path="url(#p90b8e32b76)" style="fill: none; stroke: #ff0000; stroke-width: 1.5; stroke-linecap: square"/>
   </g>
   <g id="line2d_14">
    <path d="M 284.732039 143.28 
L 247.494235 62.970202 
L 136.005507 81.237269 
L 170.163304 180.505638 
L 254.017794 243.667247 
L 284.732039 143.28 
" clip-path="url(#p90b8e32b76)" style="fill: none; stroke: #008000; stroke-width: 1.5; stroke-linecap: square"/>
   </g>
   <g id="patch_6">
    <path d="M 330.12 143.28 
C 330.12 129.00302 327.307746 114.864866 321.844183 101.674657 
C 316.380619 88.484448 308.371998 76.4987 298.276649 66.403351 
C 288.1813 56.308002 276.195552 48.299381 263.005343 42.835817 
C 249.815134 37.372254 235.67698 34.56 221.4 34.56 
C 207.12302 34.56 192.984866 37.372254 179.794657 42.835817 
C 166.604448 48.299381 154.6187 56.308002 144.523351 66.403351 
C 134.428002 76.4987 126.419381 88.484448 120.955817 101.674657 
C 115.492254 114.864866 112.68 129.00302 112.68 143.28 
C 112.68 157.55698 115.492254 171.695134 120.955817 184.885343 
C 126.419381 198.075552 134.428002 210.0613 144.523351 220.156649 
C 154.6187 230.251998 166.604448 238.260619 179.794657 243.724183 
C 192.984866 249.187746 207.12302 252 221.4 252 
C 235.67698 252 249.815134 249.187746 263.005343 243.724183 
C 276.195552 238.260619 288.1813 230.251998 298.276649 220.156649 
C 308.371998 210.0613 316.380619 198.075552 321.844183 184.885343 
C 327.307746 171.695134 330.12 157.55698 330.12 143.28 
" style="fill: none; stroke: #000000; stroke-width: 0.8; stroke-linejoin: miter; stroke-linecap: square"/>
   </g>
   <g id="legend_1">
    <g id="patch_7">
     <path d="M 188.136719 166.576875 
L 254.663281 166.576875 
Q 256.663281 166.576875 256.663281 164.576875 
L 256.663281 121.983125 
Q 256.663281 119.983125 254.663281 119.983125 
L 188.136719 119.983125 
Q 186.136719 119.983125 186.136719 121.983125 
L 186.136719 164.576875 
Q 186.136719 166.576875 188.136719 166.576875 
z
" style="fill: #ffffff; opacity: 0.8; stroke: #cccccc; stroke-linejoin: miter"/>
    </g>
    <g id="line2d_15">
     <path d="M 190.136719 127.983125 
L 200.136719 127.983125 
L 210.136719 127.983125 
" style="fill: none; stroke: #0000ff; stroke-width: 1.5; stroke-linecap: square"/>
    </g>
    <g id="text_12">
     <!-- Group 1 -->
     <g transform="translate(218.136719 131.483125)scale(0.1 -0.1)">
      <defs>
       <path id="Roboto-Thin-47" d="M 3831 2063 
L 3831 488 
Q 3722 331 3333 134 
Q 2944 -63 2278 -63 
Q 1500 -63 1012 492 
Q 525 1047 525 1938 
L 525 2681 
Q 525 3541 998 4077 
Q 1472 4613 2225 4613 
Q 2963 4613 3363 4239 
Q 3763 3866 3825 3319 
L 3656 3319 
Q 3588 3763 3261 4103 
Q 2934 4444 2225 4444 
Q 1528 4444 1111 3950 
Q 694 3456 694 2688 
L 694 1938 
Q 694 1134 1125 620 
Q 1556 106 2278 106 
Q 2838 106 3197 267 
Q 3556 428 3663 566 
L 3663 1891 
L 2272 1891 
L 2272 2063 
L 3831 2063 
z
" transform="scale(0.015625)"/>
       <path id="Roboto-Thin-72" d="M 1809 3278 
Q 1338 3278 1063 2973 
Q 788 2669 706 2213 
L 706 0 
L 538 0 
L 538 3381 
L 706 3381 
L 706 2678 
Q 847 3031 1120 3237 
Q 1394 3444 1809 3444 
Q 1950 3444 2047 3409 
L 2028 3259 
L 1809 3278 
z
" transform="scale(0.015625)"/>
       <path id="Roboto-Thin-6f" d="M 281 1756 
Q 281 2500 692 2972 
Q 1103 3444 1759 3444 
Q 2422 3444 2831 2972 
Q 3241 2500 3241 1756 
L 3241 1625 
Q 3241 881 2833 409 
Q 2425 -63 1765 -63 
Q 1106 -63 693 409 
Q 281 881 281 1625 
L 281 1756 
z
M 450 1625 
Q 450 1019 797 562 
Q 1144 106 1766 106 
Q 2381 106 2726 562 
Q 3072 1019 3072 1625 
L 3072 1756 
Q 3072 2350 2726 2812 
Q 2381 3275 1759 3275 
Q 1141 3275 795 2812 
Q 450 2350 450 1756 
L 450 1625 
z
" transform="scale(0.015625)"/>
       <path id="Roboto-Thin-75" d="M 2803 0 
L 2803 547 
Q 2653 266 2365 101 
Q 2078 -63 1638 -63 
Q 1144 -63 836 228 
Q 528 519 525 1219 
L 525 3381 
L 694 3381 
L 694 1213 
Q 697 600 962 353 
Q 1228 106 1631 106 
Q 2197 106 2465 372 
Q 2734 638 2803 1003 
L 2803 3381 
L 2975 3381 
L 2975 0 
L 2803 0 
z
" transform="scale(0.015625)"/>
       <path id="Roboto-Thin-70" d="M 1853 -63 
Q 1441 -63 1150 104 
Q 859 272 700 528 
L 700 -1300 
L 531 -1300 
L 531 3381 
L 700 3381 
L 700 2778 
Q 866 3078 1152 3261 
Q 1438 3444 1847 3444 
Q 2450 3444 2786 2984 
Q 3122 2525 3122 1722 
L 3122 1659 
Q 3122 888 2787 412 
Q 2453 -63 1853 -63 
z
M 1850 3275 
Q 1313 3275 1055 2997 
Q 797 2719 700 2422 
L 700 841 
Q 819 525 1105 315 
Q 1391 106 1856 106 
Q 2409 106 2679 545 
Q 2950 984 2950 1659 
L 2950 1725 
Q 2950 2397 2678 2836 
Q 2406 3275 1850 3275 
z
" transform="scale(0.015625)"/>
       <path id="Roboto-Thin-20" transform="scale(0.015625)"/>
      </defs>
      <use xlink:href="#Roboto-Thin-47"/>
      <use xlink:href="#Roboto-Thin-72" x="68.652344"/>
      <use xlink:href="#Roboto-Thin-6f" x="102.099609"/>
      <use xlink:href="#Roboto-Thin-75" x="157.128906"/>
      <use xlink:href="#Roboto-Thin-70" x="211.865234"/>
      <use xlink:href="#Roboto-Thin-20" x="266.601562"/>
      <use xlink:href="#Roboto-Thin-31" x="290.527344"/>
     </g>
    </g>
    <g id="line2d_16">
     <path d="M 190.136719 142.514375 
L 200.136719 142.514375 
L 210.136719 142.514375 
" style="fill: none; stroke: #ff0000; stroke-width: 1.5; stroke-linecap: square"/>
    </g>
    <g id="text_13">
     <!-- Group 2 -->
     <g transform="translate(218.136719 146.014375)scale(0.1 -0.1)">
      <use xlink:href="#Roboto-Thin-47"/>
      <use xlink:href="#Roboto-Thin-72" x="68.652344"/>
      <use xlink:href="#Roboto-Thin-6f" x="102.099609"/>
      <use xlink:href="#Roboto-Thin-75" x="157.128906"/>
      <use xlink:href="#Roboto-Thin-70" x="211.865234"/>
      <use xlink:href="#Roboto-Thin-20" x="266.601562"/>
      <use xlink:href="#Roboto-Thin-32" x="290.527344"/>
     </g>
    </g>
    <g id="line2d_17">
     <path d="M 190.136719 157.045625 
L 200.136719 157.045625 
L 210.136719 157.045625 
" style="fill: none; stroke: #008000; stroke-width: 1.5; stroke-linecap: square"/>
    </g>
    <g id="text_14">
     <!-- Group 3 -->
     <g transform="translate(218.136719 160.545625)scale(0.1 -0.1)">
      <use xlink:href="#Roboto-Thin-47"/>
      <use xlink:href="#Roboto-Thin-72" x="68.652344"/>
      <use xlink:href="#Roboto-Thin-6f" x="102.099609"/>
      <use xlink:href="#Roboto-Thin-75" x="157.128906"/>
      <use xlink:href="#Roboto-Thin-70" x="211.865234"/>
      <use xlink:href="#Roboto-Thin-20" x="266.601562"/>
      <use xlink:href="#Roboto-Thin-33" x="290.527344"/>
     </g>
    </g>
   </g>
  </g>
 </g>
 <defs>
  <clipPath id="p90b8e32b76">
   <path d="M 330.12 143.28 
C 330.12 129.00302 327.307746 114.864866 321.844183 101.674657 
C 316.380619 88.484448 308.371998 76.4987 298.276649 66.403351 
C 288.1813 56.308002 276.195552 48.299381 263.005343 42.835817 
C 249.815134 37.372254 235.67698 34.56 221.4 34.56 
C 207.12302 34.56 192.984866 37.372254 179.794657 42.835817 
C 166.604448 48.299381 154.6187 56.308002 144.523351 66.403351 
C 134.428002 76.4987 126.419381 88.484448 120.955817 101.674657 
C 115.492254 114.864866 112.68 129.00302 112.68 143.28 
C 112.68 157.55698 115.492254 171.695134 120.955817 184.885343 
C 126.419381 198.075552 134.428002 210.0613 144.523351 220.156649 
C 154.6187 230.251998 166.604448 238.260619 179.794657 243.724183 
C 192.984866 249.187746 207.12302 252 221.4 252 
C 235.67698 252 249.815134 249.187746 263.005343 243.724183 
C 276.195552 238.260619 288.1813 230.251998 298.276649 220.156649 
C 308.371998 210.0613 316.380619 198.075552 321.844183 184.885343 
C 327.307746 171.695134 330.12 157.55698 330.12 143.28 
M 221.4 143.28 
C 221.4 143.28 221.4 143.28 221.4 143.28 
C 221.4 143.28 221.4 143.28 221.4 143.28 
C 221.4 143.28 221.4 143.28 221.4 143.28 
C 221.4 143.28 221.4 143.28 221.4 143.28 
C 221.4 143.28 221.4 143.28 221.4 143.28 
C 221.4 143.28 221.4 143.28 221.4 143.28 
C 221.4 143.28 221.4 143.28 221.4 143.28 
C 221.4 143.28 221.4 143.28 221.4 143.28 
C 221.4 143.28 221.4 143.28 221.4 143.28 
C 221.4 143.28 221.4 143.28 221.4 143.28 
C 221.4 143.28 221.4 143.28 221.4 143.28 
C 221.4 143.28 221.4 143.28 221.4 143.28 
C 221.4 143.28 221.4 143.28 221.4 143.28 
C 221.4 143.28 221.4 143.28 221.4 143.28 
C 221.4 143.28 221.4 143.28 221.4 143.28 
C 221.4 143.28 221.4 143.28 221.4 143.28 
M 330.12 143.28 
z
"/>
  </clipPath>
 </defs>
</svg>
