<?xml version="1.0" encoding="utf-8" standalone="no"?>
<!DOCTYPE svg PUBLIC "-//W3C//DTD SVG 1.1//EN"
  "http://www.w3.org/Graphics/SVG/1.1/DTD/svg11.dtd">
<svg xmlns:xlink="http://www.w3.org/1999/xlink" width="584.666394pt" height="728.39952pt" viewBox="0 0 584.666394 728.39952" xmlns="http://www.w3.org/2000/svg" version="1.1">
 <metadata>
  <rdf:RDF xmlns:dc="http://purl.org/dc/elements/1.1/" xmlns:cc="http://creativecommons.org/ns#" xmlns:rdf="http://www.w3.org/1999/02/22-rdf-syntax-ns#">
   <cc:Work>
    <dc:type rdf:resource="http://purl.org/dc/dcmitype/StillImage"/>
    <dc:date>2023-12-20T18:17:14.318398</dc:date>
    <dc:format>image/svg+xml</dc:format>
    <dc:creator>
     <cc:Agent>
      <dc:title>Matplotlib v3.5.2, https://matplotlib.org/</dc:title>
     </cc:Agent>
    </dc:creator>
   </cc:Work>
  </rdf:RDF>
 </metadata>
 <defs>
  <style type="text/css">*{stroke-linejoin: round; stroke-linecap: butt}</style>
 </defs>
 <g id="figure_1">
  <g id="patch_1">
   <path d="M 0 728.39952 
L 584.666394 728.39952 
L 584.666394 0 
L 0 0 
z
" style="fill: #ffffff"/>
  </g>
  <g id="axes_1">
   <g id="patch_2">
    <path d="M 93.559375 314.71976 
L 576.641784 314.71976 
L 576.641784 7.2 
L 93.559375 7.2 
z
" style="fill: #ffffff"/>
   </g>
   <g id="matplotlib.axis_1">
    <g id="xtick_1">
     <g id="line2d_1">
      <path d="M 144.410155 314.71976 
L 144.410155 7.2 
" clip-path="url(#p1512a138a1)" style="fill: none; stroke-dasharray: 2.5,5; stroke-dashoffset: 0; stroke: #b0b0b0; stroke-width: 0.5"/>
     </g>
     <g id="line2d_2">
      <defs>
       <path id="m2b6a647d3a" d="M 0 0 
L 0 -3.5 
" style="stroke: #000000; stroke-width: 3"/>
      </defs>
      <g>
       <use xlink:href="#m2b6a647d3a" x="144.410155" y="314.71976" style="stroke: #000000; stroke-width: 3"/>
      </g>
     </g>
     <g id="line2d_3">
      <defs>
       <path id="me68aaafe99" d="M 0 0 
L 0 3.5 
" style="stroke: #000000; stroke-width: 3"/>
      </defs>
      <g>
       <use xlink:href="#me68aaafe99" x="144.410155" y="7.2" style="stroke: #000000; stroke-width: 3"/>
      </g>
     </g>
     <g id="text_1">
      <!-- −0.08 -->
      <g transform="translate(109.701561 339.05101)scale(0.3 -0.3)">
       <defs>
        <path id="TimesNewRomanPSMT-2212" d="M 3484 2000 
L 116 2000 
L 116 2256 
L 3484 2256 
L 3484 2000 
z
" transform="scale(0.015625)"/>
        <path id="TimesNewRomanPSMT-30" d="M 231 2094 
Q 231 2819 450 3342 
Q 669 3866 1031 4122 
Q 1313 4325 1613 4325 
Q 2100 4325 2488 3828 
Q 2972 3213 2972 2159 
Q 2972 1422 2759 906 
Q 2547 391 2217 158 
Q 1888 -75 1581 -75 
Q 975 -75 572 641 
Q 231 1244 231 2094 
z
M 844 2016 
Q 844 1141 1059 588 
Q 1238 122 1591 122 
Q 1759 122 1940 273 
Q 2122 425 2216 781 
Q 2359 1319 2359 2297 
Q 2359 3022 2209 3506 
Q 2097 3866 1919 4016 
Q 1791 4119 1609 4119 
Q 1397 4119 1231 3928 
Q 1006 3669 925 3112 
Q 844 2556 844 2016 
z
" transform="scale(0.015625)"/>
        <path id="TimesNewRomanPSMT-2e" d="M 800 606 
Q 947 606 1047 504 
Q 1147 403 1147 259 
Q 1147 116 1045 14 
Q 944 -88 800 -88 
Q 656 -88 554 14 
Q 453 116 453 259 
Q 453 406 554 506 
Q 656 606 800 606 
z
" transform="scale(0.015625)"/>
        <path id="TimesNewRomanPSMT-38" d="M 1228 2134 
Q 725 2547 579 2797 
Q 434 3047 434 3316 
Q 434 3728 753 4026 
Q 1072 4325 1600 4325 
Q 2113 4325 2425 4047 
Q 2738 3769 2738 3413 
Q 2738 3175 2569 2928 
Q 2400 2681 1866 2347 
Q 2416 1922 2594 1678 
Q 2831 1359 2831 1006 
Q 2831 559 2490 242 
Q 2150 -75 1597 -75 
Q 994 -75 656 303 
Q 388 606 388 966 
Q 388 1247 577 1523 
Q 766 1800 1228 2134 
z
M 1719 2469 
Q 2094 2806 2194 3001 
Q 2294 3197 2294 3444 
Q 2294 3772 2109 3958 
Q 1925 4144 1606 4144 
Q 1288 4144 1088 3959 
Q 888 3775 888 3528 
Q 888 3366 970 3203 
Q 1053 3041 1206 2894 
L 1719 2469 
z
M 1375 2016 
Q 1116 1797 991 1539 
Q 866 1281 866 981 
Q 866 578 1086 336 
Q 1306 94 1647 94 
Q 1984 94 2187 284 
Q 2391 475 2391 747 
Q 2391 972 2272 1150 
Q 2050 1481 1375 2016 
z
" transform="scale(0.015625)"/>
       </defs>
       <use xlink:href="#TimesNewRomanPSMT-2212"/>
       <use xlink:href="#TimesNewRomanPSMT-30" x="56.396484"/>
       <use xlink:href="#TimesNewRomanPSMT-2e" x="106.396484"/>
       <use xlink:href="#TimesNewRomanPSMT-30" x="131.396484"/>
       <use xlink:href="#TimesNewRomanPSMT-38" x="181.396484"/>
      </g>
     </g>
    </g>
    <g id="xtick_2">
     <g id="line2d_4">
      <path d="M 246.111715 314.71976 
L 246.111715 7.2 
" clip-path="url(#p1512a138a1)" style="fill: none; stroke-dasharray: 2.5,5; stroke-dashoffset: 0; stroke: #b0b0b0; stroke-width: 0.5"/>
     </g>
     <g id="line2d_5">
      <g>
       <use xlink:href="#m2b6a647d3a" x="246.111715" y="314.71976" style="stroke: #000000; stroke-width: 3"/>
      </g>
     </g>
     <g id="line2d_6">
      <g>
       <use xlink:href="#me68aaafe99" x="246.111715" y="7.2" style="stroke: #000000; stroke-width: 3"/>
      </g>
     </g>
     <g id="text_2">
      <!-- −0.04 -->
      <g transform="translate(211.403121 339.05101)scale(0.3 -0.3)">
       <defs>
        <path id="TimesNewRomanPSMT-34" d="M 2978 1563 
L 2978 1119 
L 2409 1119 
L 2409 0 
L 1894 0 
L 1894 1119 
L 100 1119 
L 100 1519 
L 2066 4325 
L 2409 4325 
L 2409 1563 
L 2978 1563 
z
M 1894 1563 
L 1894 3666 
L 406 1563 
L 1894 1563 
z
" transform="scale(0.015625)"/>
       </defs>
       <use xlink:href="#TimesNewRomanPSMT-2212"/>
       <use xlink:href="#TimesNewRomanPSMT-30" x="56.396484"/>
       <use xlink:href="#TimesNewRomanPSMT-2e" x="106.396484"/>
       <use xlink:href="#TimesNewRomanPSMT-30" x="131.396484"/>
       <use xlink:href="#TimesNewRomanPSMT-34" x="181.396484"/>
      </g>
     </g>
    </g>
    <g id="xtick_3">
     <g id="line2d_7">
      <path d="M 347.813274 314.71976 
L 347.813274 7.2 
" clip-path="url(#p1512a138a1)" style="fill: none; stroke-dasharray: 2.5,5; stroke-dashoffset: 0; stroke: #b0b0b0; stroke-width: 0.5"/>
     </g>
     <g id="line2d_8">
      <g>
       <use xlink:href="#m2b6a647d3a" x="347.813274" y="314.71976" style="stroke: #000000; stroke-width: 3"/>
      </g>
     </g>
     <g id="line2d_9">
      <g>
       <use xlink:href="#me68aaafe99" x="347.813274" y="7.2" style="stroke: #000000; stroke-width: 3"/>
      </g>
     </g>
     <g id="text_3">
      <!-- 0.00 -->
      <g transform="translate(321.563274 339.05101)scale(0.3 -0.3)">
       <use xlink:href="#TimesNewRomanPSMT-30"/>
       <use xlink:href="#TimesNewRomanPSMT-2e" x="50"/>
       <use xlink:href="#TimesNewRomanPSMT-30" x="75"/>
       <use xlink:href="#TimesNewRomanPSMT-30" x="125"/>
      </g>
     </g>
    </g>
    <g id="xtick_4">
     <g id="line2d_10">
      <path d="M 449.514834 314.71976 
L 449.514834 7.2 
" clip-path="url(#p1512a138a1)" style="fill: none; stroke-dasharray: 2.5,5; stroke-dashoffset: 0; stroke: #b0b0b0; stroke-width: 0.5"/>
     </g>
     <g id="line2d_11">
      <g>
       <use xlink:href="#m2b6a647d3a" x="449.514834" y="314.71976" style="stroke: #000000; stroke-width: 3"/>
      </g>
     </g>
     <g id="line2d_12">
      <g>
       <use xlink:href="#me68aaafe99" x="449.514834" y="7.2" style="stroke: #000000; stroke-width: 3"/>
      </g>
     </g>
     <g id="text_4">
      <!-- 0.04 -->
      <g transform="translate(423.264834 339.05101)scale(0.3 -0.3)">
       <use xlink:href="#TimesNewRomanPSMT-30"/>
       <use xlink:href="#TimesNewRomanPSMT-2e" x="50"/>
       <use xlink:href="#TimesNewRomanPSMT-30" x="75"/>
       <use xlink:href="#TimesNewRomanPSMT-34" x="125"/>
      </g>
     </g>
    </g>
    <g id="xtick_5">
     <g id="line2d_13">
      <path d="M 551.216394 314.71976 
L 551.216394 7.2 
" clip-path="url(#p1512a138a1)" style="fill: none; stroke-dasharray: 2.5,5; stroke-dashoffset: 0; stroke: #b0b0b0; stroke-width: 0.5"/>
     </g>
     <g id="line2d_14">
      <g>
       <use xlink:href="#m2b6a647d3a" x="551.216394" y="314.71976" style="stroke: #000000; stroke-width: 3"/>
      </g>
     </g>
     <g id="line2d_15">
      <g>
       <use xlink:href="#me68aaafe99" x="551.216394" y="7.2" style="stroke: #000000; stroke-width: 3"/>
      </g>
     </g>
     <g id="text_5">
      <!-- 0.08 -->
      <g transform="translate(524.966394 339.05101)scale(0.3 -0.3)">
       <use xlink:href="#TimesNewRomanPSMT-30"/>
       <use xlink:href="#TimesNewRomanPSMT-2e" x="50"/>
       <use xlink:href="#TimesNewRomanPSMT-30" x="75"/>
       <use xlink:href="#TimesNewRomanPSMT-38" x="125"/>
      </g>
     </g>
    </g>
   </g>
   <g id="matplotlib.axis_2">
    <g id="ytick_1">
     <g id="line2d_16">
      <path d="M 93.559375 314.71976 
L 576.641784 314.71976 
" clip-path="url(#p1512a138a1)" style="fill: none; stroke-dasharray: 2.5,5; stroke-dashoffset: 0; stroke: #b0b0b0; stroke-width: 0.5"/>
     </g>
     <g id="line2d_17">
      <defs>
       <path id="m3f3ebcd18f" d="M 0 0 
L 3.5 0 
" style="stroke: #000000; stroke-width: 3"/>
      </defs>
      <g>
       <use xlink:href="#m3f3ebcd18f" x="93.559375" y="314.71976" style="stroke: #000000; stroke-width: 3"/>
      </g>
     </g>
     <g id="line2d_18">
      <defs>
       <path id="m2e6bebad47" d="M 0 0 
L -3.5 0 
" style="stroke: #000000; stroke-width: 3"/>
      </defs>
      <g>
       <use xlink:href="#m2e6bebad47" x="576.641784" y="314.71976" style="stroke: #000000; stroke-width: 3"/>
      </g>
     </g>
     <g id="text_6">
      <!-- 0 -->
      <g transform="translate(75.059375 325.135385)scale(0.3 -0.3)">
       <use xlink:href="#TimesNewRomanPSMT-30"/>
      </g>
     </g>
    </g>
    <g id="ytick_2">
     <g id="line2d_19">
      <path d="M 93.559375 249.998248 
L 576.641784 249.998248 
" clip-path="url(#p1512a138a1)" style="fill: none; stroke-dasharray: 2.5,5; stroke-dashoffset: 0; stroke: #b0b0b0; stroke-width: 0.5"/>
     </g>
     <g id="line2d_20">
      <g>
       <use xlink:href="#m3f3ebcd18f" x="93.559375" y="249.998248" style="stroke: #000000; stroke-width: 3"/>
      </g>
     </g>
     <g id="line2d_21">
      <g>
       <use xlink:href="#m2e6bebad47" x="576.641784" y="249.998248" style="stroke: #000000; stroke-width: 3"/>
      </g>
     </g>
     <g id="text_7">
      <!-- 200 -->
      <g transform="translate(45.059375 260.413873)scale(0.3 -0.3)">
       <defs>
        <path id="TimesNewRomanPSMT-32" d="M 2934 816 
L 2638 0 
L 138 0 
L 138 116 
Q 1241 1122 1691 1759 
Q 2141 2397 2141 2925 
Q 2141 3328 1894 3587 
Q 1647 3847 1303 3847 
Q 991 3847 742 3664 
Q 494 3481 375 3128 
L 259 3128 
Q 338 3706 661 4015 
Q 984 4325 1469 4325 
Q 1984 4325 2329 3994 
Q 2675 3663 2675 3213 
Q 2675 2891 2525 2569 
Q 2294 2063 1775 1497 
Q 997 647 803 472 
L 1909 472 
Q 2247 472 2383 497 
Q 2519 522 2628 598 
Q 2738 675 2819 816 
L 2934 816 
z
" transform="scale(0.015625)"/>
       </defs>
       <use xlink:href="#TimesNewRomanPSMT-32"/>
       <use xlink:href="#TimesNewRomanPSMT-30" x="50"/>
       <use xlink:href="#TimesNewRomanPSMT-30" x="100"/>
      </g>
     </g>
    </g>
    <g id="ytick_3">
     <g id="line2d_22">
      <path d="M 93.559375 185.276735 
L 576.641784 185.276735 
" clip-path="url(#p1512a138a1)" style="fill: none; stroke-dasharray: 2.5,5; stroke-dashoffset: 0; stroke: #b0b0b0; stroke-width: 0.5"/>
     </g>
     <g id="line2d_23">
      <g>
       <use xlink:href="#m3f3ebcd18f" x="93.559375" y="185.276735" style="stroke: #000000; stroke-width: 3"/>
      </g>
     </g>
     <g id="line2d_24">
      <g>
       <use xlink:href="#m2e6bebad47" x="576.641784" y="185.276735" style="stroke: #000000; stroke-width: 3"/>
      </g>
     </g>
     <g id="text_8">
      <!-- 400 -->
      <g transform="translate(45.059375 195.69236)scale(0.3 -0.3)">
       <use xlink:href="#TimesNewRomanPSMT-34"/>
       <use xlink:href="#TimesNewRomanPSMT-30" x="50"/>
       <use xlink:href="#TimesNewRomanPSMT-30" x="100"/>
      </g>
     </g>
    </g>
    <g id="ytick_4">
     <g id="line2d_25">
      <path d="M 93.559375 120.555223 
L 576.641784 120.555223 
" clip-path="url(#p1512a138a1)" style="fill: none; stroke-dasharray: 2.5,5; stroke-dashoffset: 0; stroke: #b0b0b0; stroke-width: 0.5"/>
     </g>
     <g id="line2d_26">
      <g>
       <use xlink:href="#m3f3ebcd18f" x="93.559375" y="120.555223" style="stroke: #000000; stroke-width: 3"/>
      </g>
     </g>
     <g id="line2d_27">
      <g>
       <use xlink:href="#m2e6bebad47" x="576.641784" y="120.555223" style="stroke: #000000; stroke-width: 3"/>
      </g>
     </g>
     <g id="text_9">
      <!-- 600 -->
      <g transform="translate(45.059375 130.970848)scale(0.3 -0.3)">
       <defs>
        <path id="TimesNewRomanPSMT-36" d="M 2869 4325 
L 2869 4209 
Q 2456 4169 2195 4045 
Q 1934 3922 1679 3669 
Q 1425 3416 1258 3105 
Q 1091 2794 978 2366 
Q 1428 2675 1881 2675 
Q 2316 2675 2634 2325 
Q 2953 1975 2953 1425 
Q 2953 894 2631 456 
Q 2244 -75 1606 -75 
Q 1172 -75 869 213 
Q 275 772 275 1663 
Q 275 2231 503 2743 
Q 731 3256 1154 3653 
Q 1578 4050 1965 4187 
Q 2353 4325 2688 4325 
L 2869 4325 
z
M 925 2138 
Q 869 1716 869 1456 
Q 869 1156 980 804 
Q 1091 453 1309 247 
Q 1469 100 1697 100 
Q 1969 100 2183 356 
Q 2397 613 2397 1088 
Q 2397 1622 2184 2012 
Q 1972 2403 1581 2403 
Q 1463 2403 1327 2353 
Q 1191 2303 925 2138 
z
" transform="scale(0.015625)"/>
       </defs>
       <use xlink:href="#TimesNewRomanPSMT-36"/>
       <use xlink:href="#TimesNewRomanPSMT-30" x="50"/>
       <use xlink:href="#TimesNewRomanPSMT-30" x="100"/>
      </g>
     </g>
    </g>
    <g id="ytick_5">
     <g id="line2d_28">
      <path d="M 93.559375 55.833711 
L 576.641784 55.833711 
" clip-path="url(#p1512a138a1)" style="fill: none; stroke-dasharray: 2.5,5; stroke-dashoffset: 0; stroke: #b0b0b0; stroke-width: 0.5"/>
     </g>
     <g id="line2d_29">
      <g>
       <use xlink:href="#m3f3ebcd18f" x="93.559375" y="55.833711" style="stroke: #000000; stroke-width: 3"/>
      </g>
     </g>
     <g id="line2d_30">
      <g>
       <use xlink:href="#m2e6bebad47" x="576.641784" y="55.833711" style="stroke: #000000; stroke-width: 3"/>
      </g>
     </g>
     <g id="text_10">
      <!-- 800 -->
      <g transform="translate(45.059375 66.249336)scale(0.3 -0.3)">
       <use xlink:href="#TimesNewRomanPSMT-38"/>
       <use xlink:href="#TimesNewRomanPSMT-30" x="50"/>
       <use xlink:href="#TimesNewRomanPSMT-30" x="100"/>
      </g>
     </g>
    </g>
    <g id="text_11">
     <!-- 概率密度 -->
     <g transform="translate(36.246875 216.95988)rotate(-90)scale(0.28 -0.28)">
      <defs>
       <path id="UNAVAILABLE-6982" d="M 31 797 
Q 578 1769 731 2130 
Q 884 2491 979 2764 
Q 1075 3038 1094 3138 
L 1119 3272 
L 913 3272 
Q 684 3272 438 3175 
L 197 3450 
L 728 3425 
L 1119 3425 
L 1119 4166 
L 1088 4891 
L 1559 4650 
Q 1647 4603 1645 4581 
Q 1644 4559 1559 4503 
L 1441 4425 
L 1441 3425 
L 1697 3425 
L 1966 3725 
L 2294 3391 
L 2294 4028 
L 2259 4713 
L 2672 4463 
L 3259 4463 
L 3484 4713 
L 3841 4425 
L 4453 4406 
L 5413 4406 
L 5650 4731 
L 6016 4356 
Q 6059 4309 6048 4286 
Q 6038 4263 5981 4263 
L 5275 4263 
Q 5250 4041 5231 3900 
Q 5213 3759 5145 3326 
Q 5078 2894 5056 2781 
L 4997 2488 
L 5350 2488 
L 5597 2819 
L 5966 2413 
Q 5997 2375 5989 2353 
Q 5981 2331 5913 2331 
L 4972 2331 
Q 4878 1934 4808 1695 
Q 4738 1456 4600 1100 
Q 4463 744 4284 417 
Q 4106 91 3840 -281 
Q 3575 -653 3444 -781 
L 3216 -1013 
L 3131 -944 
Q 3666 -269 3902 217 
Q 4138 703 4306 1164 
Q 4475 1625 4538 1903 
L 4638 2331 
L 4294 2334 
L 4138 2088 
L 3794 2438 
L 4003 2600 
Q 4103 3331 4116 3597 
L 4131 3916 
L 4566 3647 
Q 4634 3600 4634 3581 
L 4556 3528 
L 4409 3428 
L 4278 2488 
L 4678 2488 
Q 4709 2666 4731 2784 
Q 4753 2903 4820 3351 
Q 4888 3800 4894 3897 
L 4916 4263 
L 4600 4263 
Q 4319 4263 4022 4131 
L 3794 4303 
L 3641 4194 
L 3641 2488 
L 3675 1800 
Q 3591 1744 3322 1634 
L 3322 1903 
L 2613 1903 
L 2613 -22 
L 3294 459 
Q 3228 653 3147 842 
Q 3066 1031 3044 1075 
L 2941 1256 
L 3028 1297 
Q 3222 1069 3348 906 
Q 3475 744 3589 539 
Q 3703 334 3698 209 
Q 3694 84 3595 -17 
Q 3497 -119 3439 -69 
Q 3381 -19 3356 131 
L 3331 303 
Q 3153 144 3070 62 
Q 2988 -19 2797 -233 
Q 2606 -447 2450 -669 
L 2109 -281 
Q 2209 -194 2231 -153 
Q 2253 -113 2275 -20 
Q 2297 72 2297 184 
L 2294 3272 
L 1441 3272 
L 1441 2791 
Q 1678 2578 1845 2429 
Q 2013 2281 2070 2175 
Q 2128 2069 2133 1991 
Q 2138 1913 2100 1803 
Q 2022 1584 1909 1669 
Q 1875 1694 1844 1756 
L 1709 2100 
Q 1644 2256 1600 2322 
L 1444 2553 
L 1441 -291 
L 1475 -950 
L 1213 -1031 
L 1059 -1056 
L 1119 -222 
L 1119 2284 
Q 978 2034 859 1828 
Q 741 1622 516 1292 
Q 291 963 106 753 
L 31 797 
z
M 2613 2050 
L 3322 2050 
L 3322 3175 
L 2613 3175 
L 2613 2050 
z
M 2613 3328 
L 3322 3328 
L 3322 4303 
L 2613 4303 
L 2613 3328 
z
M 4922 2103 
L 5375 1916 
Q 5441 1888 5444 1875 
Q 5447 1863 5394 1822 
L 5256 1719 
L 5259 -206 
Q 5259 -378 5312 -442 
Q 5366 -506 5525 -491 
Q 5653 -478 5711 -428 
Q 5769 -378 5795 -262 
Q 5822 -147 5844 175 
L 5897 969 
L 5997 969 
L 6009 278 
Q 6013 91 6038 -40 
Q 6063 -172 6103 -231 
Q 6144 -291 6241 -384 
Q 6200 -472 6125 -595 
Q 6050 -719 5912 -759 
Q 5775 -800 5609 -806 
Q 5303 -819 5189 -775 
Q 5075 -731 5015 -637 
Q 4956 -544 4956 -363 
L 4950 1278 
L 4922 2103 
z
" transform="scale(0.015625)"/>
       <path id="UNAVAILABLE-7387" d="M 138 556 
L 453 541 
L 3025 541 
L 3025 944 
L 2991 1459 
Q 2591 1350 2284 1213 
L 2078 1681 
Q 2284 1722 2432 1822 
Q 2581 1922 2803 2159 
L 3203 2591 
L 3325 2719 
Q 2541 2603 2369 2516 
L 2203 2438 
L 1975 2859 
Q 2088 2859 2156 2889 
Q 2225 2919 2414 3158 
Q 2603 3397 2698 3537 
Q 2794 3678 2897 3881 
L 1219 3881 
Q 1134 3881 1062 3870 
Q 991 3859 797 3775 
L 553 4047 
L 919 4034 
L 3203 4034 
Q 3119 4278 3081 4364 
Q 3044 4450 2976 4556 
Q 2909 4663 2713 4822 
L 2734 4916 
Q 3016 4822 3211 4742 
Q 3406 4663 3489 4563 
Q 3572 4463 3562 4350 
Q 3553 4238 3391 4034 
L 5113 4034 
L 5447 4428 
L 5875 4034 
Q 5969 3944 5950 3912 
Q 5931 3881 5850 3881 
L 3131 3881 
L 3378 3747 
Q 3444 3709 3434 3684 
Q 3425 3659 3391 3653 
L 3228 3613 
Q 3138 3550 3094 3519 
L 2503 2988 
L 2284 2797 
L 3450 2859 
Q 3775 3231 3844 3353 
L 3934 3509 
L 4303 3125 
Q 4353 3069 4345 3055 
Q 4338 3041 4284 3034 
L 4100 3006 
Q 3909 2866 3864 2828 
Q 3819 2791 3553 2563 
L 3103 2184 
L 2647 1778 
L 2509 1666 
Q 3413 1728 4084 1809 
Q 3934 2059 3684 2325 
L 3734 2369 
Q 4309 2009 4432 1895 
Q 4556 1781 4592 1678 
Q 4628 1575 4591 1453 
Q 4556 1344 4475 1276 
Q 4394 1209 4353 1219 
Q 4306 1225 4281 1272 
Q 4256 1319 4240 1387 
Q 4225 1456 4141 1697 
Q 3638 1606 3066 1459 
L 3525 1244 
Q 3594 1209 3595 1192 
Q 3597 1175 3525 1128 
L 3391 1038 
L 3391 541 
L 5394 541 
L 5747 925 
L 6181 528 
Q 6241 469 6228 430 
Q 6216 391 6163 391 
L 3391 391 
L 3391 -316 
L 3422 -869 
Q 3278 -969 2975 -1047 
L 3025 -266 
L 3025 391 
L 859 391 
Q 547 391 388 303 
L 138 556 
z
M 456 1581 
Q 844 1709 1053 1800 
Q 1263 1891 2000 2269 
L 2050 2203 
Q 1834 2038 1607 1867 
Q 1381 1697 1190 1548 
Q 1000 1400 784 1144 
L 456 1581 
z
M 941 3506 
Q 1625 3106 1692 2964 
Q 1759 2822 1678 2628 
Q 1634 2525 1556 2469 
Q 1478 2413 1441 2431 
Q 1409 2444 1367 2575 
Q 1325 2706 1284 2823 
Q 1244 2941 1200 3019 
Q 1156 3097 894 3453 
L 941 3506 
z
M 5344 3256 
Q 4713 2697 4484 2469 
L 4422 2531 
Q 4666 2847 4814 3095 
Q 4963 3344 5131 3694 
L 5503 3375 
Q 5581 3306 5570 3281 
Q 5559 3256 5488 3256 
L 5344 3256 
z
M 4553 2197 
L 4588 2269 
Q 4863 2194 5013 2142 
Q 5163 2091 5398 1980 
Q 5634 1869 5679 1778 
Q 5725 1688 5722 1538 
Q 5719 1456 5706 1395 
Q 5694 1334 5650 1279 
Q 5606 1225 5556 1231 
Q 5519 1231 5472 1284 
L 5275 1619 
Q 5216 1709 5028 1884 
Q 4841 2059 4553 2197 
z
" transform="scale(0.015625)"/>
       <path id="UNAVAILABLE-5bc6" d="M 1972 3269 
L 2469 3081 
Q 2609 3025 2506 2972 
L 2344 2888 
L 2344 1969 
Q 2931 2334 3440 2718 
Q 3950 3103 4119 3300 
L 4400 3616 
L 4788 3213 
Q 4825 3172 4822 3151 
Q 4819 3131 4772 3131 
L 4538 3131 
L 3203 2178 
L 2469 1747 
Q 2522 1728 2570 1718 
Q 2619 1709 2781 1715 
Q 2944 1722 3536 1709 
Q 4128 1697 4268 1800 
Q 4409 1903 4438 2200 
L 4494 2666 
L 4594 2666 
Q 4588 2484 4592 2370 
Q 4597 2256 4636 2148 
Q 4675 2041 4753 1984 
L 4906 1856 
Q 4869 1763 4797 1650 
Q 4725 1538 4431 1472 
Q 4138 1406 3520 1409 
Q 2903 1413 2606 1406 
Q 2309 1400 2206 1488 
L 2100 1566 
Q 1678 1378 1329 1240 
Q 981 1103 259 919 
L 234 1019 
Q 1197 1338 1531 1528 
L 1997 1784 
L 1997 2756 
L 1972 3269 
z
M 1163 4113 
L 3100 4113 
Q 2991 4394 2911 4534 
Q 2831 4675 2653 4847 
L 2697 4950 
Q 2938 4844 3180 4739 
Q 3422 4634 3442 4467 
Q 3463 4300 3394 4247 
L 3256 4113 
L 5334 4113 
L 5572 4394 
L 6103 3941 
Q 6147 3900 6137 3872 
Q 6128 3844 6081 3838 
Q 6059 3831 5971 3832 
Q 5884 3834 5665 3756 
Q 5447 3678 5269 3516 
L 5056 3331 
L 4994 3378 
L 5372 3959 
L 1178 3959 
Q 1163 3797 1144 3625 
Q 1125 3453 1047 3312 
Q 969 3172 858 3117 
Q 747 3063 639 3058 
Q 531 3053 473 3111 
Q 416 3169 414 3248 
Q 413 3328 516 3434 
L 713 3603 
Q 897 3766 961 3950 
Q 1025 4134 1034 4206 
L 1056 4381 
L 1144 4381 
Q 1153 4256 1156 4228 
L 1163 4113 
L 1163 4113 
z
M 1350 3081 
Q 1353 2853 1354 2662 
Q 1356 2472 1322 2303 
Q 1266 2031 1130 1907 
Q 994 1784 847 1789 
Q 700 1794 650 1856 
Q 600 1919 613 1994 
Q 616 2041 641 2072 
Q 666 2103 742 2164 
Q 819 2225 942 2362 
Q 1066 2500 1133 2648 
Q 1200 2797 1222 2906 
L 1256 3081 
L 1350 3081 
z
M 1150 -622 
L 1350 -406 
L 1350 375 
L 1319 997 
L 1884 738 
Q 1959 700 1900 659 
L 1703 516 
L 1703 -484 
L 3025 -484 
L 3025 659 
L 2988 1356 
L 3544 1119 
Q 3588 1097 3586 1076 
Q 3584 1056 3559 1041 
L 3403 934 
L 3403 -484 
L 4828 -484 
L 4828 275 
L 4797 1056 
L 5397 825 
Q 5444 803 5441 790 
Q 5438 778 5397 750 
L 5203 622 
L 5203 -316 
L 5244 -884 
Q 5100 -1009 4828 -1094 
L 4828 -638 
L 1775 -638 
L 1584 -938 
L 1150 -622 
z
M 2581 3734 
L 2622 3788 
Q 2919 3659 3061 3581 
Q 3203 3503 3323 3398 
Q 3444 3294 3453 3211 
Q 3463 3128 3416 3025 
Q 3375 2941 3312 2866 
Q 3250 2791 3197 2794 
Q 3159 2794 3137 2816 
Q 3116 2838 3080 2958 
Q 3044 3078 2992 3209 
Q 2941 3341 2869 3431 
Q 2797 3522 2581 3734 
z
M 4803 2872 
L 4828 2941 
Q 5419 2684 5644 2539 
Q 5869 2394 5898 2309 
Q 5928 2225 5925 2159 
Q 5919 2063 5866 1948 
Q 5813 1834 5756 1789 
Q 5700 1744 5666 1753 
Q 5625 1759 5584 1847 
L 5522 2000 
Q 5453 2159 5301 2353 
Q 5150 2547 4803 2872 
z
" transform="scale(0.015625)"/>
       <path id="UNAVAILABLE-5ea6" d="M 931 4438 
L 1413 4153 
L 3297 4153 
Q 3269 4306 3208 4509 
Q 3147 4713 2903 4913 
L 2953 4984 
Q 3100 4925 3339 4797 
Q 3578 4669 3648 4558 
Q 3719 4447 3669 4369 
L 3566 4153 
L 5241 4153 
L 5569 4559 
L 6059 4113 
Q 6106 4069 6093 4036 
Q 6081 4003 5994 4003 
L 1378 4003 
Q 1366 3753 1353 3440 
Q 1341 3128 1325 2522 
Q 1309 1916 1295 1609 
Q 1281 1303 1237 945 
Q 1194 588 1097 284 
Q 1000 -19 820 -267 
Q 641 -516 263 -928 
L 188 -866 
Q 403 -559 515 -359 
Q 628 -159 693 16 
Q 759 191 815 420 
Q 872 650 895 862 
Q 919 1075 939 1448 
Q 959 1822 970 2203 
Q 981 2584 979 3128 
Q 978 3672 969 3822 
L 931 4438 
L 931 4438 
z
M 3297 109 
Q 3022 444 2867 689 
Q 2713 934 2578 1275 
L 2438 1275 
Q 2200 1275 2016 1169 
L 1806 1438 
L 2100 1422 
L 4325 1422 
L 4575 1691 
L 4975 1353 
Q 5069 1272 5067 1264 
Q 5066 1256 4984 1225 
L 4759 1131 
Q 4216 466 4094 353 
L 3838 109 
Q 4191 -84 4580 -218 
Q 4969 -353 5348 -383 
Q 5728 -413 6094 -419 
L 6100 -519 
Q 5863 -566 5739 -633 
Q 5616 -700 5581 -763 
L 5488 -913 
Q 5281 -844 5181 -809 
L 4813 -694 
Q 4050 -444 3588 -119 
Q 3325 -278 3051 -420 
Q 2778 -563 2087 -758 
Q 1397 -953 931 -1006 
L 903 -913 
Q 1231 -853 1957 -603 
Q 2684 -353 3297 109 
z
M 2744 1275 
Q 2928 925 3081 726 
Q 3234 528 3541 303 
Q 3747 497 3919 676 
Q 4091 856 4200 1038 
L 4347 1275 
L 2744 1275 
z
M 2663 3072 
L 2663 3331 
L 2631 3878 
L 3109 3650 
Q 3231 3588 3232 3591 
Q 3234 3594 3147 3531 
L 3016 3438 
L 3016 3072 
L 4216 3072 
L 4216 3269 
L 4188 3844 
L 4688 3616 
Q 4778 3572 4779 3567 
Q 4781 3563 4688 3494 
L 4575 3409 
L 4575 3072 
L 5203 3072 
L 5584 3478 
L 6022 3072 
Q 6109 2988 6084 2955 
Q 6059 2922 5994 2922 
L 4575 2922 
L 4575 2428 
L 4603 1997 
Q 4431 1847 4216 1778 
L 4216 2013 
L 3016 2013 
L 3016 1878 
Q 2850 1734 2625 1700 
L 2663 2316 
L 2663 2922 
L 2150 2922 
Q 1900 2922 1822 2878 
L 1722 2828 
L 1541 3081 
L 1878 3072 
L 2663 3072 
z
M 3016 2163 
L 4216 2163 
L 4216 2922 
L 3016 2922 
L 3016 2163 
z
" transform="scale(0.015625)"/>
      </defs>
      <use xlink:href="#UNAVAILABLE-6982"/>
      <use xlink:href="#UNAVAILABLE-7387" x="100"/>
      <use xlink:href="#UNAVAILABLE-5bc6" x="200"/>
      <use xlink:href="#UNAVAILABLE-5ea6" x="300"/>
     </g>
    </g>
   </g>
   <g id="patch_3">
    <path d="M -1 314.71976 
L 260.131437 314.626835 
L 260.131437 314.601023 
L 273.773786 314.508098 
L 273.773786 314.487448 
L 277.184368 314.523585 
L 277.184368 314.363548 
L 278.037015 314.363548 
L 278.037015 314.229324 
L 278.889662 314.229324 
L 278.889662 314.466798 
L 282.300249 314.461636 
L 282.300249 314.353223 
L 289.121418 314.275786 
L 289.121418 314.234486 
L 295.942593 314.131236 
L 295.942593 314.058962 
L 297.647886 314.053799 
L 297.647886 313.940224 
L 300.205822 313.940224 
L 300.205822 313.78535 
L 302.763762 313.769862 
L 302.763762 313.904087 
L 304.469056 313.795675 
L 304.469056 313.589175 
L 305.321703 313.589175 
L 305.321703 313.4756 
L 307.026996 313.429138 
L 307.026996 313.294913 
L 308.732288 313.284584 
L 308.732288 313.155526 
L 311.290228 313.165851 
L 311.290228 312.980002 
L 313.848168 313.026464 
L 313.848168 312.675409 
L 314.700813 312.675409 
L 314.700813 312.453428 
L 315.55346 312.453428 
L 315.55346 312.061079 
L 316.406106 312.061079 
L 316.406106 312.246928 
L 317.258753 312.246928 
L 317.258753 312.035266 
L 318.1114 312.035266 
L 318.1114 311.849417 
L 319.816694 311.813279 
L 319.816694 311.673884 
L 320.669338 311.673884 
L 320.669338 311.271218 
L 322.374632 311.173131 
L 322.374632 310.760132 
L 323.227278 310.760132 
L 323.227278 310.615582 
L 324.079925 310.615582 
L 324.079925 310.393595 
L 324.932572 310.393595 
L 324.932572 309.939296 
L 325.785219 309.939296 
L 325.785219 309.350758 
L 328.343157 309.340448 
L 328.343157 308.829362 
L 329.195804 308.829362 
L 329.195804 308.5764 
L 330.04845 308.5764 
L 330.04845 308.127254 
L 330.901096 308.127254 
L 330.901096 307.466465 
L 331.753743 307.466465 
L 331.753743 307.275453 
L 332.60639 307.275453 
L 332.60639 306.89858 
L 333.459035 306.89858 
L 333.459035 306.52173 
L 334.311682 306.52173 
L 334.311682 305.303383 
L 335.164329 305.303383 
L 335.164329 305.096883 
L 336.016976 305.096883 
L 336.016976 304.203758 
L 336.869621 304.203758 
L 336.869621 303.615249 
L 337.722268 303.615249 
L 337.722268 303.367442 
L 338.574914 303.367442 
L 338.574914 302.10264 
L 339.427561 302.10264 
L 339.427561 300.961721 
L 340.280207 300.961721 
L 340.280207 300.781043 
L 341.132854 300.781043 
L 341.132854 299.020624 
L 341.9855 299.020624 
L 341.9855 298.251424 
L 342.838147 298.251424 
L 342.838147 296.733641 
L 343.690793 296.733641 
L 343.690793 295.071325 
L 344.54344 295.071325 
L 344.54344 292.490077 
L 345.396086 292.490077 
L 345.396086 289.263525 
L 346.248733 289.263525 
L 346.248733 282.387086 
L 347.101379 282.387086 
L 347.101379 159.395941 
L 347.954025 159.395941 
L 347.954025 274.14259 
L 348.806672 274.14259 
L 348.806672 287.084954 
L 349.659318 287.084954 
L 349.659318 291.45242 
L 350.511965 291.45242 
L 350.511965 294.219515 
L 351.364611 294.219515 
L 351.364611 296.573603 
L 352.217258 296.573603 
L 352.217258 298.256587 
L 353.069904 298.256587 
L 353.069904 298.974162 
L 353.922551 298.974162 
L 353.922551 300.27511 
L 354.775197 300.27511 
L 354.775197 301.281805 
L 355.627844 301.281805 
L 355.627844 301.76707 
L 356.48049 301.76707 
L 356.48049 302.716976 
L 357.333137 302.716976 
L 357.333137 303.382929 
L 358.185783 303.382929 
L 358.185783 304.23991 
L 359.03843 304.23991 
L 359.03843 304.652909 
L 359.891076 304.652909 
L 359.891076 305.293045 
L 360.743722 305.293045 
L 360.743722 305.871256 
L 361.596369 305.871256 
L 361.596369 306.43913 
L 362.449016 306.43913 
L 362.449016 306.666268 
L 363.301661 306.666268 
L 363.301661 307.626502 
L 364.154308 307.626502 
L 364.154308 307.740077 
L 365.006955 307.740077 
L 365.006955 308.168554 
L 365.8596 308.168554 
L 365.8596 308.953261 
L 367.564894 308.963586 
L 367.564894 309.304303 
L 368.41754 309.304303 
L 368.41754 309.423048 
L 369.270186 309.423048 
L 369.270186 309.825722 
L 370.122833 309.825722 
L 370.122833 309.965109 
L 370.97548 309.965109 
L 370.97548 310.491683 
L 372.680774 310.481358 
L 372.680774 311.038896 
L 374.386065 310.966631 
L 374.386065 311.328006 
L 375.238712 311.328006 
L 375.238712 311.50353 
L 376.091358 311.50353 
L 376.091358 311.797792 
L 376.944005 311.797792 
L 376.944005 312.014616 
L 377.796652 312.014616 
L 377.796652 311.901042 
L 378.649299 311.901042 
L 378.649299 312.169484 
L 379.501943 312.169484 
L 379.501943 312.417291 
L 380.35459 312.417291 
L 380.35459 312.567003 
L 383.765177 312.628953 
L 383.765177 312.72704 
L 384.617824 312.72704 
L 384.617824 312.938697 
L 386.323115 312.959352 
L 386.323115 313.212314 
L 388.028409 313.284588 
L 388.028409 313.331051 
L 388.881056 313.331051 
L 388.881056 313.4756 
L 390.586349 313.542713 
L 390.586349 313.62015 
L 393.996932 313.728557 
L 393.996932 313.738887 
L 394.849578 313.738887 
L 394.849578 313.929899 
L 399.112812 314.033149 
L 399.112812 314.089937 
L 402.5234 314.141561 
L 402.5234 314.203511 
L 406.786629 314.255136 
L 406.786629 314.327411 
L 412.755156 314.353223 
L 412.755156 314.492611 
L 434.071317 314.564885 
L 434.071317 314.606186 
L 498.872445 314.693947 
L 498.872445 314.71976 
L 585.666394 314.71976 
L 585.666394 314.71976 
" clip-path="url(#p1512a138a1)" style="fill: none; opacity: 0.8; stroke: #ff0000; stroke-width: 3; stroke-linejoin: miter"/>
   </g>
   <g id="patch_4">
    <path d="M 189.172617 314.71976 
L 189.172617 314.69809 
L 287.89437 314.589743 
L 287.89437 314.578907 
L 299.675975 314.513897 
L 299.675975 314.438053 
L 303.738599 314.405552 
L 303.738599 314.28637 
L 306.988698 314.340544 
L 306.988698 314.145518 
L 309.426272 314.210524 
L 309.426272 313.961323 
L 309.832534 313.961323 
L 309.832534 314.167184 
L 311.051321 314.069671 
L 311.051321 314.037166 
L 311.457583 314.037166 
L 311.457583 313.777131 
L 311.863846 313.777131 
L 311.863846 313.982992 
L 313.082633 313.961323 
L 313.082633 313.722957 
L 313.488895 313.722957 
L 313.488895 313.972158 
L 313.895157 313.972158 
L 313.895157 313.787966 
L 314.30142 313.787966 
L 314.30142 313.592939 
L 314.707682 313.592939 
L 314.707682 313.787966 
L 315.113944 313.787966 
L 315.113944 313.603774 
L 316.332732 313.582104 
L 316.332732 313.430417 
L 317.145256 313.343738 
L 317.145256 313.722957 
L 317.551519 313.722957 
L 317.551519 313.571269 
L 318.364043 313.5496 
L 318.364043 313.246225 
L 318.770306 313.246225 
L 318.770306 313.105372 
L 319.989093 313.192051 
L 319.989093 312.932015 
L 320.801617 312.888676 
L 320.801617 312.574466 
L 321.20788 312.574466 
L 321.20788 312.758658 
L 321.614142 312.758658 
L 321.614142 312.606971 
L 322.020404 312.606971 
L 322.020404 312.379439 
L 322.426667 312.379439 
L 322.426667 312.227752 
L 324.457978 312.141073 
L 324.457978 311.848533 
L 324.864241 311.848533 
L 324.864241 311.274288 
L 325.270503 311.274288 
L 325.270503 311.512654 
L 325.676765 311.512654 
L 325.676765 311.382636 
L 326.48929 311.306792 
L 326.48929 310.8734 
L 326.895553 310.8734 
L 326.895553 311.155105 
L 327.301815 311.155105 
L 327.301815 310.320824 
L 327.708077 310.320824 
L 327.708077 310.515851 
L 328.11434 310.515851 
L 328.11434 310.309989 
L 328.926864 310.320824 
L 328.926864 309.789918 
L 329.739389 309.811588 
L 329.739389 309.562387 
L 330.145651 309.562387 
L 330.145651 309.150664 
L 330.551914 309.150664 
L 330.551914 308.619758 
L 331.770701 308.522244 
L 331.770701 308.078017 
L 332.176963 308.078017 
L 332.176963 307.763807 
L 332.583225 307.763807 
L 332.583225 307.016204 
L 332.989488 307.016204 
L 332.989488 306.636986 
L 333.39575 306.636986 
L 333.39575 306.073575 
L 334.208275 306.041071 
L 334.208275 304.730058 
L 334.614537 304.730058 
L 334.614537 304.946754 
L 335.020799 304.946754 
L 335.020799 304.296665 
L 335.427062 304.296665 
L 335.427062 303.668246 
L 335.833324 303.668246 
L 335.833324 303.083166 
L 336.239586 303.083166 
L 336.239586 302.55226 
L 336.645849 302.55226 
L 336.645849 302.043023 
L 337.458374 301.988849 
L 337.458374 301.252081 
L 337.864636 301.252081 
L 337.864636 301.078724 
L 338.270898 301.078724 
L 338.270898 299.637694 
L 338.677161 299.637694 
L 338.677161 298.630055 
L 339.083423 298.630055 
L 339.083423 297.622417 
L 339.489685 297.622417 
L 339.489685 296.54977 
L 339.895948 296.54977 
L 339.895948 296.993998 
L 340.30221 296.993998 
L 340.30221 295.878012 
L 340.708472 295.878012 
L 340.708472 294.111936 
L 341.114735 294.111936 
L 341.114735 293.440178 
L 341.927259 293.375169 
L 341.927259 292.68174 
L 342.333522 292.68174 
L 342.333522 291.370727 
L 343.146046 291.294884 
L 343.146046 290.254741 
L 343.552309 290.254741 
L 343.552309 288.878719 
L 343.958571 288.878719 
L 343.958571 287.816907 
L 344.364833 287.816907 
L 344.364833 287.502698 
L 344.771096 287.502698 
L 344.771096 286.928452 
L 345.58362 286.960957 
L 345.58362 286.267528 
L 345.989883 286.267528 
L 345.989883 285.097368 
L 346.396145 285.097368 
L 346.396145 284.501453 
L 346.802407 284.501453 
L 346.802407 285.075698 
L 347.20867 285.075698 
L 347.20867 283.082092 
L 347.614932 283.082092 
L 347.614932 21.843798 
L 348.021195 21.843798 
L 348.021195 283.981382 
L 348.427457 283.981382 
L 348.427457 284.447279 
L 348.833719 284.447279 
L 348.833719 285.119038 
L 349.239982 285.119038 
L 349.239982 285.335734 
L 350.052506 285.400743 
L 350.052506 285.877475 
L 350.458769 285.877475 
L 350.458769 287.166818 
L 350.865031 287.166818 
L 350.865031 288.011934 
L 351.271293 288.011934 
L 351.271293 288.943728 
L 351.677556 288.943728 
L 351.677556 288.358648 
L 352.083818 288.358648 
L 352.083818 289.12792 
L 352.49008 289.12792 
L 352.49008 290.287246 
L 352.896343 290.287246 
L 352.896343 290.763978 
L 353.302605 290.763978 
L 353.302605 291.879964 
L 353.708867 291.879964 
L 353.708867 292.335026 
L 354.11513 292.335026 
L 354.11513 293.732718 
L 354.521392 293.732718 
L 354.521392 294.014423 
L 354.927654 294.014423 
L 354.927654 294.989557 
L 355.740179 295.076235 
L 355.740179 296.658119 
L 356.146441 296.658119 
L 356.146441 297.113181 
L 356.552704 297.113181 
L 356.552704 298.543377 
L 356.958966 298.543377 
L 356.958966 298.857587 
L 357.365228 298.857587 
L 357.365228 299.258475 
L 357.771491 299.258475 
L 357.771491 300.71034 
L 358.177753 300.71034 
L 358.177753 301.165403 
L 358.584016 301.165403 
L 358.584016 301.837162 
L 358.990278 301.837162 
L 358.990278 303.169844 
L 359.39654 303.169844 
L 359.39654 303.668246 
L 359.802803 303.668246 
L 359.802803 303.809098 
L 360.615327 303.906612 
L 360.615327 304.860076 
L 361.02159 304.860076 
L 361.02159 305.336808 
L 361.427852 305.336808 
L 361.427852 305.629348 
L 361.834114 305.629348 
L 361.834114 306.171089 
L 362.240377 306.171089 
L 362.240377 306.571977 
L 362.646639 306.571977 
L 362.646639 306.767004 
L 363.052901 306.767004 
L 363.052901 307.29791 
L 363.865426 307.211231 
L 363.865426 308.045512 
L 364.677951 308.056347 
L 364.677951 308.673932 
L 365.084213 308.673932 
L 365.084213 308.793115 
L 365.490475 308.793115 
L 365.490475 308.998976 
L 365.896738 308.998976 
L 365.896738 309.703239 
L 366.709262 309.724909 
L 366.709262 309.919936 
L 367.115525 309.919936 
L 367.115525 310.353328 
L 367.521787 310.353328 
L 367.521787 310.635034 
L 368.334312 310.700043 
L 368.334312 310.754217 
L 368.740574 310.754217 
L 368.740574 310.960078 
L 369.553099 310.916739 
L 369.553099 311.252618 
L 369.959361 311.252618 
L 369.959361 311.415141 
L 370.771886 311.512654 
L 370.771886 311.686011 
L 371.178148 311.686011 
L 371.178148 311.935212 
L 372.396935 311.989386 
L 372.396935 312.35777 
L 372.803198 312.35777 
L 372.803198 312.498622 
L 373.20946 312.498622 
L 373.20946 312.368605 
L 374.021985 312.379439 
L 374.021985 312.92118 
L 374.428247 312.92118 
L 374.428247 312.693649 
L 375.240772 312.769493 
L 375.240772 312.888676 
L 375.647034 312.888676 
L 375.647034 313.072868 
L 376.053296 313.072868 
L 376.053296 312.932015 
L 376.459559 312.932015 
L 376.459559 313.083703 
L 376.865821 313.083703 
L 376.865821 313.21372 
L 377.272083 313.21372 
L 377.272083 313.083703 
L 377.678346 313.083703 
L 377.678346 313.365408 
L 378.084608 313.365408 
L 378.084608 313.517095 
L 378.897133 313.452086 
L 378.897133 313.657948 
L 379.303395 313.657948 
L 379.303395 313.473756 
L 379.709658 313.473756 
L 379.709658 313.647113 
L 380.11592 313.647113 
L 380.11592 313.972158 
L 380.522182 313.972158 
L 380.522182 313.744626 
L 382.147232 313.82047 
L 382.147232 313.874644 
L 382.959756 313.831305 
L 382.959756 313.993827 
L 385.39733 314.037166 
L 385.39733 314.178019 
L 387.02238 314.221358 
L 387.02238 314.318872 
L 387.428642 314.318872 
L 387.428642 314.178016 
L 388.241167 314.188857 
L 388.241167 314.318874 
L 390.678741 314.2972 
L 390.678741 314.134676 
L 391.085001 314.134676 
L 391.085001 314.383883 
L 395.960149 314.492227 
L 395.960149 314.557239 
L 396.366414 314.557239 
L 396.366414 314.416387 
L 397.991463 314.5139 
L 397.991463 314.535569 
L 412.616908 314.622247 
L 412.616908 314.665586 
L 585.666394 314.71976 
L 585.666394 314.71976 
" clip-path="url(#p1512a138a1)" style="fill: none; opacity: 0.75; stroke: #0000ff; stroke-width: 1.5; stroke-linejoin: miter"/>
   </g>
   <g id="patch_5">
    <path d="M 93.559375 314.71976 
L 93.559375 7.2 
" style="fill: none; stroke: #000000; stroke-width: 2.5; stroke-linejoin: miter; stroke-linecap: square"/>
   </g>
   <g id="patch_6">
    <path d="M 576.641784 314.71976 
L 576.641784 7.2 
" style="fill: none; stroke: #000000; stroke-width: 2.5; stroke-linejoin: miter; stroke-linecap: square"/>
   </g>
   <g id="patch_7">
    <path d="M 93.559375 314.71976 
L 576.641784 314.71976 
" style="fill: none; stroke: #000000; stroke-width: 2.5; stroke-linejoin: miter; stroke-linecap: square"/>
   </g>
   <g id="patch_8">
    <path d="M 93.559375 7.2 
L 576.641784 7.2 
" style="fill: none; stroke: #000000; stroke-width: 2.5; stroke-linejoin: miter; stroke-linecap: square"/>
   </g>
   <g id="legend_1">
    <g id="patch_9">
     <path d="M 365.58194 91.650937 
L 571.241784 91.650937 
Q 576.641784 91.650937 576.641784 86.250937 
L 576.641784 12.6 
Q 576.641784 7.2 571.241784 7.2 
L 365.58194 7.2 
Q 360.18194 7.2 360.18194 12.6 
L 360.18194 86.250937 
Q 360.18194 91.650937 365.58194 91.650937 
z
" style="fill: #ffffff; opacity: 0.8; stroke: #000000; stroke-linejoin: miter"/>
    </g>
    <g id="patch_10">
     <path d="M 370.98194 36.9 
L 424.98194 36.9 
L 424.98194 18 
L 370.98194 18 
L 370.98194 36.9 
z
" style="fill: none; opacity: 0.8; stroke: #ff0000; stroke-width: 3; stroke-linejoin: miter"/>
    </g>
    <g id="text_12">
     <!-- Round 1 -->
     <g transform="translate(446.58194 36.9)scale(0.27 -0.27)">
      <defs>
       <path id="TimesNewRomanPSMT-52" d="M 4325 0 
L 3194 0 
L 1759 1981 
Q 1600 1975 1500 1975 
Q 1459 1975 1412 1976 
Q 1366 1978 1316 1981 
L 1316 750 
Q 1316 350 1403 253 
Q 1522 116 1759 116 
L 1925 116 
L 1925 0 
L 109 0 
L 109 116 
L 269 116 
Q 538 116 653 291 
Q 719 388 719 750 
L 719 3488 
Q 719 3888 631 3984 
Q 509 4122 269 4122 
L 109 4122 
L 109 4238 
L 1653 4238 
Q 2328 4238 2648 4139 
Q 2969 4041 3192 3777 
Q 3416 3513 3416 3147 
Q 3416 2756 3161 2468 
Q 2906 2181 2372 2063 
L 3247 847 
Q 3547 428 3762 290 
Q 3978 153 4325 116 
L 4325 0 
z
M 1316 2178 
Q 1375 2178 1419 2176 
Q 1463 2175 1491 2175 
Q 2097 2175 2405 2437 
Q 2713 2700 2713 3106 
Q 2713 3503 2464 3751 
Q 2216 4000 1806 4000 
Q 1625 4000 1316 3941 
L 1316 2178 
z
" transform="scale(0.015625)"/>
       <path id="TimesNewRomanPSMT-6f" d="M 1600 2947 
Q 2250 2947 2644 2453 
Q 2978 2031 2978 1484 
Q 2978 1100 2793 706 
Q 2609 313 2286 112 
Q 1963 -88 1566 -88 
Q 919 -88 538 428 
Q 216 863 216 1403 
Q 216 1797 411 2186 
Q 606 2575 925 2761 
Q 1244 2947 1600 2947 
z
M 1503 2744 
Q 1338 2744 1170 2645 
Q 1003 2547 900 2300 
Q 797 2053 797 1666 
Q 797 1041 1045 587 
Q 1294 134 1700 134 
Q 2003 134 2200 384 
Q 2397 634 2397 1244 
Q 2397 2006 2069 2444 
Q 1847 2744 1503 2744 
z
" transform="scale(0.015625)"/>
       <path id="TimesNewRomanPSMT-75" d="M 2709 2863 
L 2709 1128 
Q 2709 631 2732 520 
Q 2756 409 2807 365 
Q 2859 322 2928 322 
Q 3025 322 3147 375 
L 3191 266 
L 2334 -88 
L 2194 -88 
L 2194 519 
Q 1825 119 1631 15 
Q 1438 -88 1222 -88 
Q 981 -88 804 51 
Q 628 191 559 409 
Q 491 628 491 1028 
L 491 2306 
Q 491 2509 447 2587 
Q 403 2666 317 2708 
Q 231 2750 6 2747 
L 6 2863 
L 1009 2863 
L 1009 947 
Q 1009 547 1148 422 
Q 1288 297 1484 297 
Q 1619 297 1789 381 
Q 1959 466 2194 703 
L 2194 2325 
Q 2194 2569 2105 2655 
Q 2016 2741 1734 2747 
L 1734 2863 
L 2709 2863 
z
" transform="scale(0.015625)"/>
       <path id="TimesNewRomanPSMT-6e" d="M 1034 2341 
Q 1538 2947 1994 2947 
Q 2228 2947 2397 2830 
Q 2566 2713 2666 2444 
Q 2734 2256 2734 1869 
L 2734 647 
Q 2734 375 2778 278 
Q 2813 200 2889 156 
Q 2966 113 3172 113 
L 3172 0 
L 1756 0 
L 1756 113 
L 1816 113 
Q 2016 113 2095 173 
Q 2175 234 2206 353 
Q 2219 400 2219 647 
L 2219 1819 
Q 2219 2209 2117 2386 
Q 2016 2563 1775 2563 
Q 1403 2563 1034 2156 
L 1034 647 
Q 1034 356 1069 288 
Q 1113 197 1189 155 
Q 1266 113 1500 113 
L 1500 0 
L 84 0 
L 84 113 
L 147 113 
Q 366 113 442 223 
Q 519 334 519 647 
L 519 1709 
Q 519 2225 495 2337 
Q 472 2450 423 2490 
Q 375 2531 294 2531 
Q 206 2531 84 2484 
L 38 2597 
L 900 2947 
L 1034 2947 
L 1034 2341 
z
" transform="scale(0.015625)"/>
       <path id="TimesNewRomanPSMT-64" d="M 2222 322 
Q 2013 103 1813 7 
Q 1613 -88 1381 -88 
Q 913 -88 563 304 
Q 213 697 213 1313 
Q 213 1928 600 2439 
Q 988 2950 1597 2950 
Q 1975 2950 2222 2709 
L 2222 3238 
Q 2222 3728 2198 3840 
Q 2175 3953 2125 3993 
Q 2075 4034 2000 4034 
Q 1919 4034 1784 3984 
L 1744 4094 
L 2597 4444 
L 2738 4444 
L 2738 1134 
Q 2738 631 2761 520 
Q 2784 409 2836 365 
Q 2888 322 2956 322 
Q 3041 322 3181 375 
L 3216 266 
L 2366 -88 
L 2222 -88 
L 2222 322 
z
M 2222 541 
L 2222 2016 
Q 2203 2228 2109 2403 
Q 2016 2578 1861 2667 
Q 1706 2756 1559 2756 
Q 1284 2756 1069 2509 
Q 784 2184 784 1559 
Q 784 928 1059 592 
Q 1334 256 1672 256 
Q 1956 256 2222 541 
z
" transform="scale(0.015625)"/>
       <path id="TimesNewRomanPSMT-20" transform="scale(0.015625)"/>
       <path id="TimesNewRomanPSMT-31" d="M 750 3822 
L 1781 4325 
L 1884 4325 
L 1884 747 
Q 1884 391 1914 303 
Q 1944 216 2037 169 
Q 2131 122 2419 116 
L 2419 0 
L 825 0 
L 825 116 
Q 1125 122 1212 167 
Q 1300 213 1334 289 
Q 1369 366 1369 747 
L 1369 3034 
Q 1369 3497 1338 3628 
Q 1316 3728 1258 3775 
Q 1200 3822 1119 3822 
Q 1003 3822 797 3725 
L 750 3822 
z
" transform="scale(0.015625)"/>
      </defs>
      <use xlink:href="#TimesNewRomanPSMT-52"/>
      <use xlink:href="#TimesNewRomanPSMT-6f" x="66.699219"/>
      <use xlink:href="#TimesNewRomanPSMT-75" x="116.699219"/>
      <use xlink:href="#TimesNewRomanPSMT-6e" x="166.699219"/>
      <use xlink:href="#TimesNewRomanPSMT-64" x="216.699219"/>
      <use xlink:href="#TimesNewRomanPSMT-20" x="266.699219"/>
      <use xlink:href="#TimesNewRomanPSMT-31" x="291.699219"/>
     </g>
    </g>
    <g id="patch_11">
     <path d="M 370.98194 75.075469 
L 424.98194 75.075469 
L 424.98194 56.175469 
L 370.98194 56.175469 
L 370.98194 75.075469 
z
" style="fill: none; opacity: 0.75; stroke: #0000ff; stroke-width: 1.5; stroke-linejoin: miter"/>
    </g>
    <g id="text_13">
     <!-- Round 100 -->
     <g transform="translate(446.58194 75.075469)scale(0.27 -0.27)">
      <use xlink:href="#TimesNewRomanPSMT-52"/>
      <use xlink:href="#TimesNewRomanPSMT-6f" x="66.699219"/>
      <use xlink:href="#TimesNewRomanPSMT-75" x="116.699219"/>
      <use xlink:href="#TimesNewRomanPSMT-6e" x="166.699219"/>
      <use xlink:href="#TimesNewRomanPSMT-64" x="216.699219"/>
      <use xlink:href="#TimesNewRomanPSMT-20" x="266.699219"/>
      <use xlink:href="#TimesNewRomanPSMT-31" x="291.699219"/>
      <use xlink:href="#TimesNewRomanPSMT-30" x="341.699219"/>
      <use xlink:href="#TimesNewRomanPSMT-30" x="391.699219"/>
     </g>
    </g>
   </g>
  </g>
  <g id="axes_2">
   <g id="patch_12">
    <path d="M 93.559375 660.187957 
L 576.641784 660.187957 
L 576.641784 352.668198 
L 93.559375 352.668198 
z
" style="fill: #ffffff"/>
   </g>
   <g id="matplotlib.axis_3">
    <g id="xtick_6">
     <g id="line2d_31">
      <path d="M 144.410155 660.187957 
L 144.410155 352.668198 
" clip-path="url(#p6361e43336)" style="fill: none; stroke-dasharray: 2.5,5; stroke-dashoffset: 0; stroke: #b0b0b0; stroke-width: 0.5"/>
     </g>
     <g id="line2d_32">
      <g>
       <use xlink:href="#m2b6a647d3a" x="144.410155" y="660.187957" style="stroke: #000000; stroke-width: 3"/>
      </g>
     </g>
     <g id="line2d_33">
      <g>
       <use xlink:href="#me68aaafe99" x="144.410155" y="352.668198" style="stroke: #000000; stroke-width: 3"/>
      </g>
     </g>
     <g id="text_14">
      <!-- −0.08 -->
      <g transform="translate(109.701561 684.519207)scale(0.3 -0.3)">
       <use xlink:href="#TimesNewRomanPSMT-2212"/>
       <use xlink:href="#TimesNewRomanPSMT-30" x="56.396484"/>
       <use xlink:href="#TimesNewRomanPSMT-2e" x="106.396484"/>
       <use xlink:href="#TimesNewRomanPSMT-30" x="131.396484"/>
       <use xlink:href="#TimesNewRomanPSMT-38" x="181.396484"/>
      </g>
     </g>
    </g>
    <g id="xtick_7">
     <g id="line2d_34">
      <path d="M 246.111715 660.187957 
L 246.111715 352.668198 
" clip-path="url(#p6361e43336)" style="fill: none; stroke-dasharray: 2.5,5; stroke-dashoffset: 0; stroke: #b0b0b0; stroke-width: 0.5"/>
     </g>
     <g id="line2d_35">
      <g>
       <use xlink:href="#m2b6a647d3a" x="246.111715" y="660.187957" style="stroke: #000000; stroke-width: 3"/>
      </g>
     </g>
     <g id="line2d_36">
      <g>
       <use xlink:href="#me68aaafe99" x="246.111715" y="352.668198" style="stroke: #000000; stroke-width: 3"/>
      </g>
     </g>
     <g id="text_15">
      <!-- −0.04 -->
      <g transform="translate(211.403121 684.519207)scale(0.3 -0.3)">
       <use xlink:href="#TimesNewRomanPSMT-2212"/>
       <use xlink:href="#TimesNewRomanPSMT-30" x="56.396484"/>
       <use xlink:href="#TimesNewRomanPSMT-2e" x="106.396484"/>
       <use xlink:href="#TimesNewRomanPSMT-30" x="131.396484"/>
       <use xlink:href="#TimesNewRomanPSMT-34" x="181.396484"/>
      </g>
     </g>
    </g>
    <g id="xtick_8">
     <g id="line2d_37">
      <path d="M 347.813274 660.187957 
L 347.813274 352.668198 
" clip-path="url(#p6361e43336)" style="fill: none; stroke-dasharray: 2.5,5; stroke-dashoffset: 0; stroke: #b0b0b0; stroke-width: 0.5"/>
     </g>
     <g id="line2d_38">
      <g>
       <use xlink:href="#m2b6a647d3a" x="347.813274" y="660.187957" style="stroke: #000000; stroke-width: 3"/>
      </g>
     </g>
     <g id="line2d_39">
      <g>
       <use xlink:href="#me68aaafe99" x="347.813274" y="352.668198" style="stroke: #000000; stroke-width: 3"/>
      </g>
     </g>
     <g id="text_16">
      <!-- 0.00 -->
      <g transform="translate(321.563274 684.519207)scale(0.3 -0.3)">
       <use xlink:href="#TimesNewRomanPSMT-30"/>
       <use xlink:href="#TimesNewRomanPSMT-2e" x="50"/>
       <use xlink:href="#TimesNewRomanPSMT-30" x="75"/>
       <use xlink:href="#TimesNewRomanPSMT-30" x="125"/>
      </g>
     </g>
    </g>
    <g id="xtick_9">
     <g id="line2d_40">
      <path d="M 449.514834 660.187957 
L 449.514834 352.668198 
" clip-path="url(#p6361e43336)" style="fill: none; stroke-dasharray: 2.5,5; stroke-dashoffset: 0; stroke: #b0b0b0; stroke-width: 0.5"/>
     </g>
     <g id="line2d_41">
      <g>
       <use xlink:href="#m2b6a647d3a" x="449.514834" y="660.187957" style="stroke: #000000; stroke-width: 3"/>
      </g>
     </g>
     <g id="line2d_42">
      <g>
       <use xlink:href="#me68aaafe99" x="449.514834" y="352.668198" style="stroke: #000000; stroke-width: 3"/>
      </g>
     </g>
     <g id="text_17">
      <!-- 0.04 -->
      <g transform="translate(423.264834 684.519207)scale(0.3 -0.3)">
       <use xlink:href="#TimesNewRomanPSMT-30"/>
       <use xlink:href="#TimesNewRomanPSMT-2e" x="50"/>
       <use xlink:href="#TimesNewRomanPSMT-30" x="75"/>
       <use xlink:href="#TimesNewRomanPSMT-34" x="125"/>
      </g>
     </g>
    </g>
    <g id="xtick_10">
     <g id="line2d_43">
      <path d="M 551.216394 660.187957 
L 551.216394 352.668198 
" clip-path="url(#p6361e43336)" style="fill: none; stroke-dasharray: 2.5,5; stroke-dashoffset: 0; stroke: #b0b0b0; stroke-width: 0.5"/>
     </g>
     <g id="line2d_44">
      <g>
       <use xlink:href="#m2b6a647d3a" x="551.216394" y="660.187957" style="stroke: #000000; stroke-width: 3"/>
      </g>
     </g>
     <g id="line2d_45">
      <g>
       <use xlink:href="#me68aaafe99" x="551.216394" y="352.668198" style="stroke: #000000; stroke-width: 3"/>
      </g>
     </g>
     <g id="text_18">
      <!-- 0.08 -->
      <g transform="translate(524.966394 684.519207)scale(0.3 -0.3)">
       <use xlink:href="#TimesNewRomanPSMT-30"/>
       <use xlink:href="#TimesNewRomanPSMT-2e" x="50"/>
       <use xlink:href="#TimesNewRomanPSMT-30" x="75"/>
       <use xlink:href="#TimesNewRomanPSMT-38" x="125"/>
      </g>
     </g>
    </g>
    <g id="text_19">
     <!-- 值 -->
     <g transform="translate(321.100579 716.38702)scale(0.28 -0.28)">
      <defs>
       <path id="UNAVAILABLE-503c" d="M 2003 4422 
Q 1788 3978 1375 3275 
L 1572 3150 
Q 1609 3122 1612 3111 
Q 1616 3100 1544 3041 
L 1391 2913 
L 1391 -166 
L 1431 -850 
Q 1313 -975 988 -1078 
L 1038 -138 
L 1038 2738 
Q 788 2406 622 2197 
Q 456 1988 138 1631 
L 75 1681 
Q 238 1906 389 2132 
Q 541 2359 794 2826 
Q 1047 3294 1158 3539 
Q 1269 3784 1431 4200 
Q 1594 4616 1634 4772 
L 1675 4925 
L 2175 4634 
Q 2275 4575 2270 4556 
Q 2266 4538 2194 4506 
L 2003 4422 
z
M 1438 -531 
L 1806 -544 
L 2500 -544 
L 2500 2494 
L 2463 3353 
L 3003 3097 
L 3494 3097 
L 3525 3863 
L 2613 3863 
Q 2353 3863 2300 3841 
L 2103 3772 
L 1834 4022 
L 2169 4006 
L 3531 4006 
L 3563 4497 
Q 3563 4678 3563 4719 
L 3553 4925 
L 4078 4697 
Q 4188 4647 4186 4637 
Q 4184 4628 4091 4566 
L 3944 4469 
L 3909 4006 
L 5128 4006 
L 5472 4409 
L 5847 4053 
Q 5984 3919 5967 3891 
Q 5950 3863 5847 3863 
L 3909 3863 
L 3872 3097 
L 4706 3097 
L 4925 3406 
L 5394 3059 
L 5431 3034 
Q 5434 3025 5378 2984 
L 5188 2841 
L 5188 -544 
L 5369 -544 
L 5694 -144 
L 6156 -559 
Q 6228 -628 6215 -659 
Q 6203 -691 6134 -691 
L 2222 -691 
Q 1972 -691 1744 -781 
L 1438 -531 
z
M 2894 -544 
L 4794 -544 
L 4794 300 
L 2894 300 
L 2894 -544 
z
M 2894 444 
L 4794 444 
L 4794 1175 
L 2894 1175 
L 2894 444 
z
M 2894 1322 
L 4794 1322 
L 4794 2066 
L 2894 2066 
L 2894 1322 
z
M 4794 2209 
L 4794 2950 
L 2894 2950 
L 2894 2209 
L 4794 2209 
z
" transform="scale(0.015625)"/>
      </defs>
      <use xlink:href="#UNAVAILABLE-503c"/>
     </g>
    </g>
   </g>
   <g id="matplotlib.axis_4">
    <g id="ytick_6">
     <g id="line2d_46">
      <path d="M 93.559375 660.187957 
L 576.641784 660.187957 
" clip-path="url(#p6361e43336)" style="fill: none; stroke-dasharray: 2.5,5; stroke-dashoffset: 0; stroke: #b0b0b0; stroke-width: 0.5"/>
     </g>
     <g id="line2d_47">
      <g>
       <use xlink:href="#m3f3ebcd18f" x="93.559375" y="660.187957" style="stroke: #000000; stroke-width: 3"/>
      </g>
     </g>
     <g id="line2d_48">
      <g>
       <use xlink:href="#m2e6bebad47" x="576.641784" y="660.187957" style="stroke: #000000; stroke-width: 3"/>
      </g>
     </g>
     <g id="text_20">
      <!-- 0.00 -->
      <g transform="translate(37.559375 670.603582)scale(0.3 -0.3)">
       <use xlink:href="#TimesNewRomanPSMT-30"/>
       <use xlink:href="#TimesNewRomanPSMT-2e" x="50"/>
       <use xlink:href="#TimesNewRomanPSMT-30" x="75"/>
       <use xlink:href="#TimesNewRomanPSMT-30" x="125"/>
      </g>
     </g>
    </g>
    <g id="ytick_7">
     <g id="line2d_49">
      <path d="M 93.559375 586.968967 
L 576.641784 586.968967 
" clip-path="url(#p6361e43336)" style="fill: none; stroke-dasharray: 2.5,5; stroke-dashoffset: 0; stroke: #b0b0b0; stroke-width: 0.5"/>
     </g>
     <g id="line2d_50">
      <g>
       <use xlink:href="#m3f3ebcd18f" x="93.559375" y="586.968967" style="stroke: #000000; stroke-width: 3"/>
      </g>
     </g>
     <g id="line2d_51">
      <g>
       <use xlink:href="#m2e6bebad47" x="576.641784" y="586.968967" style="stroke: #000000; stroke-width: 3"/>
      </g>
     </g>
     <g id="text_21">
      <!-- 0.25 -->
      <g transform="translate(37.559375 597.384592)scale(0.3 -0.3)">
       <defs>
        <path id="TimesNewRomanPSMT-35" d="M 2778 4238 
L 2534 3706 
L 1259 3706 
L 981 3138 
Q 1809 3016 2294 2522 
Q 2709 2097 2709 1522 
Q 2709 1188 2573 903 
Q 2438 619 2231 419 
Q 2025 219 1772 97 
Q 1413 -75 1034 -75 
Q 653 -75 479 54 
Q 306 184 306 341 
Q 306 428 378 495 
Q 450 563 559 563 
Q 641 563 702 538 
Q 763 513 909 409 
Q 1144 247 1384 247 
Q 1750 247 2026 523 
Q 2303 800 2303 1197 
Q 2303 1581 2056 1914 
Q 1809 2247 1375 2428 
Q 1034 2569 447 2591 
L 1259 4238 
L 2778 4238 
z
" transform="scale(0.015625)"/>
       </defs>
       <use xlink:href="#TimesNewRomanPSMT-30"/>
       <use xlink:href="#TimesNewRomanPSMT-2e" x="50"/>
       <use xlink:href="#TimesNewRomanPSMT-32" x="75"/>
       <use xlink:href="#TimesNewRomanPSMT-35" x="125"/>
      </g>
     </g>
    </g>
    <g id="ytick_8">
     <g id="line2d_52">
      <path d="M 93.559375 513.749977 
L 576.641784 513.749977 
" clip-path="url(#p6361e43336)" style="fill: none; stroke-dasharray: 2.5,5; stroke-dashoffset: 0; stroke: #b0b0b0; stroke-width: 0.5"/>
     </g>
     <g id="line2d_53">
      <g>
       <use xlink:href="#m3f3ebcd18f" x="93.559375" y="513.749977" style="stroke: #000000; stroke-width: 3"/>
      </g>
     </g>
     <g id="line2d_54">
      <g>
       <use xlink:href="#m2e6bebad47" x="576.641784" y="513.749977" style="stroke: #000000; stroke-width: 3"/>
      </g>
     </g>
     <g id="text_22">
      <!-- 0.50 -->
      <g transform="translate(37.559375 524.165602)scale(0.3 -0.3)">
       <use xlink:href="#TimesNewRomanPSMT-30"/>
       <use xlink:href="#TimesNewRomanPSMT-2e" x="50"/>
       <use xlink:href="#TimesNewRomanPSMT-35" x="75"/>
       <use xlink:href="#TimesNewRomanPSMT-30" x="125"/>
      </g>
     </g>
    </g>
    <g id="ytick_9">
     <g id="line2d_55">
      <path d="M 93.559375 440.530986 
L 576.641784 440.530986 
" clip-path="url(#p6361e43336)" style="fill: none; stroke-dasharray: 2.5,5; stroke-dashoffset: 0; stroke: #b0b0b0; stroke-width: 0.5"/>
     </g>
     <g id="line2d_56">
      <g>
       <use xlink:href="#m3f3ebcd18f" x="93.559375" y="440.530986" style="stroke: #000000; stroke-width: 3"/>
      </g>
     </g>
     <g id="line2d_57">
      <g>
       <use xlink:href="#m2e6bebad47" x="576.641784" y="440.530986" style="stroke: #000000; stroke-width: 3"/>
      </g>
     </g>
     <g id="text_23">
      <!-- 0.75 -->
      <g transform="translate(37.559375 450.946611)scale(0.3 -0.3)">
       <defs>
        <path id="TimesNewRomanPSMT-37" d="M 644 4238 
L 2916 4238 
L 2916 4119 
L 1503 -88 
L 1153 -88 
L 2419 3728 
L 1253 3728 
Q 900 3728 750 3644 
Q 488 3500 328 3200 
L 238 3234 
L 644 4238 
z
" transform="scale(0.015625)"/>
       </defs>
       <use xlink:href="#TimesNewRomanPSMT-30"/>
       <use xlink:href="#TimesNewRomanPSMT-2e" x="50"/>
       <use xlink:href="#TimesNewRomanPSMT-37" x="75"/>
       <use xlink:href="#TimesNewRomanPSMT-35" x="125"/>
      </g>
     </g>
    </g>
    <g id="ytick_10">
     <g id="line2d_58">
      <path d="M 93.559375 367.311996 
L 576.641784 367.311996 
" clip-path="url(#p6361e43336)" style="fill: none; stroke-dasharray: 2.5,5; stroke-dashoffset: 0; stroke: #b0b0b0; stroke-width: 0.5"/>
     </g>
     <g id="line2d_59">
      <g>
       <use xlink:href="#m3f3ebcd18f" x="93.559375" y="367.311996" style="stroke: #000000; stroke-width: 3"/>
      </g>
     </g>
     <g id="line2d_60">
      <g>
       <use xlink:href="#m2e6bebad47" x="576.641784" y="367.311996" style="stroke: #000000; stroke-width: 3"/>
      </g>
     </g>
     <g id="text_24">
      <!-- 1.00 -->
      <g transform="translate(37.559375 377.727621)scale(0.3 -0.3)">
       <use xlink:href="#TimesNewRomanPSMT-31"/>
       <use xlink:href="#TimesNewRomanPSMT-2e" x="50"/>
       <use xlink:href="#TimesNewRomanPSMT-30" x="75"/>
       <use xlink:href="#TimesNewRomanPSMT-30" x="125"/>
      </g>
     </g>
    </g>
    <g id="text_25">
     <!-- 概率分布 -->
     <g transform="translate(28.746875 562.428077)rotate(-90)scale(0.28 -0.28)">
      <defs>
       <path id="UNAVAILABLE-5206" d="M 2191 4775 
L 2772 4400 
Q 2791 4384 2789 4362 
Q 2788 4341 2756 4334 
L 2541 4278 
Q 2194 3653 1967 3300 
Q 1741 2947 1461 2620 
Q 1181 2294 1043 2161 
Q 906 2028 667 1833 
Q 428 1638 231 1503 
L 184 1575 
Q 528 1897 750 2130 
Q 972 2363 1295 2869 
Q 1619 3375 1792 3753 
Q 1966 4131 2019 4275 
Q 2072 4419 2191 4775 
z
M 2428 2147 
L 2050 2150 
Q 1763 2150 1522 2044 
L 1338 2309 
L 1697 2297 
L 4119 2297 
L 4344 2553 
L 4747 2247 
Q 4838 2175 4836 2161 
Q 4834 2147 4781 2116 
L 4581 1997 
Q 4525 1272 4490 812 
Q 4456 353 4429 67 
Q 4403 -219 4339 -366 
Q 4275 -513 4131 -648 
Q 3988 -784 3869 -828 
L 3613 -934 
Q 3588 -816 3539 -689 
Q 3491 -563 3384 -498 
Q 3278 -434 3000 -316 
L 2825 -244 
L 2850 -147 
Q 3672 -372 3808 -286 
Q 3944 -200 3983 -100 
Q 4022 0 4069 358 
Q 4116 716 4128 900 
L 4222 2150 
L 2850 2150 
Q 2819 1928 2776 1656 
Q 2734 1384 2651 1078 
Q 2569 772 2444 456 
Q 2319 141 2042 -140 
Q 1766 -422 1491 -580 
Q 1216 -738 1000 -838 
L 731 -959 
L 584 -1028 
L 534 -934 
Q 1178 -594 1511 -273 
Q 1844 47 1967 283 
Q 2091 519 2227 895 
Q 2363 1272 2403 1828 
L 2428 2147 
L 2428 2147 
z
M 3506 4847 
L 4050 4641 
L 4159 4600 
Q 4159 4588 4081 4531 
L 3909 4403 
Q 3969 4194 4017 4066 
Q 4066 3938 4242 3597 
Q 4419 3256 4801 2928 
Q 5184 2600 5511 2472 
Q 5838 2344 6256 2275 
L 6241 2194 
Q 6009 2178 5865 2100 
Q 5722 2022 5556 1828 
Q 4984 2216 4643 2580 
Q 4303 2944 4162 3209 
Q 4022 3475 3947 3653 
Q 3872 3831 3822 3975 
L 3634 4516 
L 3506 4847 
L 3506 4847 
z
" transform="scale(0.015625)"/>
       <path id="UNAVAILABLE-5e03" d="M 203 1425 
Q 1066 2206 1408 2568 
Q 1750 2931 1956 3234 
L 2197 3581 
L 1088 3581 
Q 816 3581 716 3528 
L 584 3466 
L 278 3750 
L 872 3734 
L 2297 3734 
Q 2606 4238 2688 4428 
L 2925 4966 
L 3434 4534 
Q 3475 4497 3469 4473 
Q 3463 4450 3366 4431 
L 3175 4391 
Q 2972 4069 2747 3734 
L 5309 3734 
L 5672 4122 
L 6094 3691 
Q 6128 3650 6129 3615 
Q 6131 3581 6094 3581 
L 2647 3581 
Q 2297 3119 2225 3044 
L 1706 2475 
L 1828 2350 
L 3178 2350 
L 3178 2775 
L 3144 3500 
L 3728 3275 
Q 3816 3241 3828 3222 
Q 3841 3203 3700 3109 
L 3566 3019 
L 3566 2350 
L 4909 2350 
L 5156 2700 
L 5522 2397 
Q 5609 2322 5607 2301 
Q 5606 2281 5541 2228 
L 5388 2103 
L 5388 222 
Q 5388 38 5352 -71 
Q 5316 -181 5223 -253 
Q 5131 -325 4713 -416 
Q 4700 -313 4679 -238 
Q 4659 -163 4579 -70 
Q 4500 22 4044 188 
L 4075 291 
Q 4259 238 4518 183 
Q 4778 128 4859 144 
Q 4944 156 4975 197 
Q 5006 238 5006 372 
L 5006 2197 
L 3566 2197 
L 3566 -109 
L 3609 -878 
Q 3500 -944 3439 -969 
Q 3378 -994 3122 -1059 
L 3178 -150 
L 3178 2197 
L 1788 2197 
L 1788 431 
L 1834 -200 
Q 1794 -241 1753 -270 
Q 1713 -300 1366 -397 
L 1413 341 
L 1413 1447 
L 1366 2163 
Q 853 1738 716 1644 
L 278 1341 
L 203 1425 
z
" transform="scale(0.015625)"/>
      </defs>
      <use xlink:href="#UNAVAILABLE-6982"/>
      <use xlink:href="#UNAVAILABLE-7387" x="100"/>
      <use xlink:href="#UNAVAILABLE-5206" x="200"/>
      <use xlink:href="#UNAVAILABLE-5e03" x="300"/>
     </g>
    </g>
   </g>
   <g id="patch_13">
    <path d="M -1 660.184824 
L 185.951199 660.076712 
L 185.951199 660.073578 
L 209.8253 659.970166 
L 209.8253 659.962332 
L 223.467639 659.85422 
L 223.467639 659.844819 
L 232.846758 659.736707 
L 232.846758 659.727305 
L 241.373217 659.625461 
L 241.373217 659.601958 
L 246.489098 659.509514 
L 246.489098 659.486012 
L 252.45762 659.377899 
L 252.45762 659.360664 
L 256.720859 659.271354 
L 256.720859 659.249418 
L 260.131437 659.169509 
L 260.131437 659.133472 
L 263.542024 659.050429 
L 263.542024 659.009691 
L 266.952611 658.900012 
L 266.952611 658.862408 
L 269.510552 658.773098 
L 269.510552 658.733927 
L 272.068492 658.639916 
L 272.068492 658.597611 
L 273.773786 658.533371 
L 273.773786 658.462863 
L 275.479079 658.408023 
L 275.479079 658.348483 
L 277.184368 658.288943 
L 277.184368 658.180831 
L 278.037015 658.180831 
L 278.037015 658.031981 
L 279.742308 657.955205 
L 279.742308 657.87373 
L 281.447602 657.795387 
L 281.447602 657.717045 
L 282.300249 657.717045 
L 282.300249 657.605799 
L 284.005542 657.514922 
L 284.005542 657.433447 
L 284.858189 657.433447 
L 284.858189 657.3175 
L 286.563483 657.207821 
L 286.563483 657.098142 
L 287.416125 657.098142 
L 287.416125 656.968094 
L 288.268772 656.968094 
L 288.268772 656.833345 
L 289.121418 656.833345 
L 289.121418 656.686062 
L 289.974065 656.686062 
L 289.974065 656.524677 
L 290.826712 656.524677 
L 290.826712 656.382095 
L 291.679359 656.382095 
L 291.679359 656.25048 
L 292.532006 656.25048 
L 292.532006 656.089095 
L 293.384652 656.089095 
L 293.384652 655.912041 
L 294.237299 655.912041 
L 294.237299 655.745956 
L 295.089946 655.745956 
L 295.089946 655.567336 
L 295.942593 655.567336 
L 295.942593 655.36678 
L 296.79524 655.36678 
L 296.79524 655.164657 
L 297.647886 655.164657 
L 297.647886 654.928064 
L 298.500533 654.928064 
L 298.500533 654.705572 
L 299.353175 654.705572 
L 299.353175 654.468979 
L 300.205822 654.468979 
L 300.205822 654.18538 
L 301.058469 654.18538 
L 301.058469 653.879845 
L 301.911116 653.879845 
L 301.911116 653.591546 
L 302.763762 653.591546 
L 302.763762 653.343985 
L 303.616409 653.343985 
L 303.616409 653.06352 
L 304.469056 653.06352 
L 304.469056 652.720381 
L 305.321703 652.720381 
L 305.321703 652.342772 
L 306.17435 652.342772 
L 306.17435 651.951061 
L 307.026996 651.951061 
L 307.026996 651.518612 
L 307.879643 651.518612 
L 307.879643 651.08303 
L 308.732288 651.08303 
L 308.732288 650.608276 
L 309.584934 650.608276 
L 309.584934 650.11472 
L 310.437581 650.11472 
L 310.437581 649.6431 
L 311.290228 649.6431 
L 311.290228 649.115074 
L 312.142875 649.115074 
L 312.142875 648.569813 
L 312.995522 648.569813 
L 312.995522 648.055888 
L 313.848168 648.055888 
L 313.848168 647.435418 
L 314.700813 647.435418 
L 314.700813 646.747574 
L 315.55346 646.747574 
L 315.55346 645.940649 
L 316.406106 645.940649 
L 316.406106 645.190131 
L 317.258753 645.190131 
L 317.258753 644.375372 
L 318.1114 644.375372 
L 318.1114 643.504207 
L 318.964047 643.504207 
L 318.964047 642.622075 
L 319.816694 642.622075 
L 319.816694 641.697637 
L 320.669338 641.697637 
L 320.669338 640.650985 
L 321.521985 640.650985 
L 321.521985 639.574564 
L 322.374632 639.574564 
L 322.374632 638.372795 
L 323.227278 638.372795 
L 323.227278 637.127154 
L 324.079925 637.127154 
L 324.079925 635.814139 
L 324.932572 635.814139 
L 324.932572 634.363242 
L 325.785219 634.363242 
L 325.785219 632.733725 
L 326.637863 632.733725 
L 326.637863 631.101074 
L 327.49051 631.101074 
L 327.49051 629.468423 
L 328.343157 629.468423 
L 328.343157 627.680655 
L 329.195804 627.680655 
L 329.195804 625.816111 
L 330.04845 625.816111 
L 330.04845 623.815251 
L 330.901096 623.815251 
L 330.901096 621.613836 
L 331.753743 621.613836 
L 331.753743 619.354448 
L 332.60639 619.354448 
L 332.60639 616.98068 
L 333.459035 616.98068 
L 333.459035 614.492532 
L 334.311682 614.492532 
L 334.311682 611.63461 
L 335.164329 611.63461 
L 335.164329 608.714013 
L 336.016976 608.714013 
L 336.016976 605.522353 
L 336.869621 605.522353 
L 336.869621 602.152073 
L 337.722268 602.152073 
L 337.722268 598.706584 
L 338.574914 598.706584 
L 338.574914 594.877218 
L 339.427561 594.877218 
L 339.427561 590.70158 
L 340.280207 590.70158 
L 340.280207 586.471102 
L 341.132854 586.471102 
L 341.132854 581.706331 
L 341.9855 581.706331 
L 341.9855 576.7081 
L 342.838147 576.7081 
L 342.838147 571.249217 
L 343.690793 571.249217 
L 343.690793 565.285811 
L 344.54344 565.285811 
L 344.54344 558.538983 
L 345.396086 558.538983 
L 345.396086 550.812877 
L 346.248733 550.812877 
L 346.248733 540.999736 
L 347.101379 540.999736 
L 347.101379 493.858114 
L 347.954025 493.858114 
L 347.954025 481.542724 
L 348.806672 481.542724 
L 348.806672 473.155411 
L 349.659318 473.155411 
L 349.659318 466.093647 
L 350.511965 466.093647 
L 350.511965 459.871711 
L 351.364611 459.871711 
L 351.364611 454.364256 
L 352.217258 454.364256 
L 352.217258 449.367592 
L 353.069904 449.367592 
L 353.069904 444.588719 
L 353.922551 444.588719 
L 353.922551 440.204691 
L 354.775197 440.204691 
L 354.775197 436.126197 
L 355.627844 436.126197 
L 355.627844 432.194987 
L 356.48049 432.194987 
L 356.48049 428.552075 
L 357.333137 428.552075 
L 357.333137 425.111287 
L 358.185783 425.111287 
L 358.185783 421.930595 
L 359.03843 421.930595 
L 359.03843 418.87525 
L 359.891076 418.87525 
L 359.891076 416.014193 
L 360.743722 416.014193 
L 360.743722 413.328624 
L 361.596369 413.328624 
L 361.596369 410.815407 
L 362.449016 410.815407 
L 362.449016 408.371131 
L 363.301661 408.371131 
L 363.301661 406.218288 
L 364.154308 406.218288 
L 364.154308 404.099915 
L 365.006955 404.099915 
L 365.006955 402.111591 
L 365.8596 402.111591 
L 365.8596 400.361426 
L 366.712247 400.361426 
L 366.712247 398.614396 
L 367.564894 398.614396 
L 367.564894 396.970777 
L 368.41754 396.970777 
L 368.41754 395.363196 
L 369.270186 395.363196 
L 369.270186 393.877828 
L 370.122833 393.877828 
L 370.122833 392.434765 
L 370.97548 392.434765 
L 370.97548 391.15152 
L 371.828127 391.15152 
L 371.828127 389.865142 
L 372.680774 389.865142 
L 372.680774 388.747982 
L 373.533418 388.747982 
L 373.533418 387.608887 
L 374.386065 387.608887 
L 374.386065 386.579471 
L 375.238712 386.579471 
L 375.238712 385.603327 
L 376.091358 385.603327 
L 376.091358 384.716494 
L 376.944005 384.716494 
L 376.944005 383.895468 
L 377.796652 383.895468 
L 377.796652 383.039971 
L 378.649299 383.039971 
L 378.649299 382.26595 
L 379.501943 382.26595 
L 379.501943 381.567138 
L 380.35459 381.567138 
L 380.35459 380.913764 
L 381.207237 380.913764 
L 381.207237 380.254123 
L 382.059884 380.254123 
L 382.059884 379.616418 
L 382.91253 379.616418 
L 382.91253 378.981846 
L 383.765177 378.981846 
L 383.765177 378.377045 
L 384.617824 378.377045 
L 384.617824 377.836484 
L 385.470468 377.836484 
L 385.470468 377.30219 
L 386.323115 377.30219 
L 386.323115 376.844672 
L 387.175762 376.844672 
L 387.175762 376.409089 
L 388.028409 376.409089 
L 388.028409 375.987608 
L 388.881056 375.987608 
L 388.881056 375.609999 
L 389.733702 375.609999 
L 389.733702 375.252759 
L 390.586349 375.252759 
L 390.586349 374.919021 
L 391.438996 374.919021 
L 391.438996 374.577449 
L 392.291643 374.577449 
L 392.291643 374.270348 
L 393.14429 374.270348 
L 393.14429 373.969514 
L 393.996932 373.969514 
L 393.996932 373.671814 
L 394.849578 373.671814 
L 394.849578 373.432086 
L 395.702225 373.432086 
L 395.702225 373.187659 
L 396.554872 373.187659 
L 396.554872 372.938531 
L 397.407519 372.938531 
L 397.407519 372.692536 
L 398.260166 372.692536 
L 398.260166 372.484146 
L 399.112812 372.484146 
L 399.112812 372.292991 
L 399.965459 372.292991 
L 399.965459 372.097136 
L 400.818106 372.097136 
L 400.818106 371.904414 
L 401.670753 371.904414 
L 401.670753 371.728928 
L 402.5234 371.728928 
L 402.5234 371.572243 
L 403.376046 371.572243 
L 403.376046 371.39519 
L 404.228693 371.39519 
L 404.228693 371.218137 
L 405.08134 371.218137 
L 405.08134 371.06772 
L 405.933982 371.06772 
L 405.933982 370.926704 
L 406.786629 370.926704 
L 406.786629 370.807624 
L 407.639276 370.807624 
L 407.639276 370.672875 
L 408.491922 370.672875 
L 408.491922 370.560062 
L 410.197216 370.455084 
L 410.197216 370.357939 
L 411.90251 370.268629 
L 411.90251 370.157383 
L 413.607803 370.088442 
L 413.607803 370.0054 
L 415.313097 369.909822 
L 415.313097 369.828346 
L 417.01839 369.756272 
L 417.01839 369.670095 
L 418.723679 369.594887 
L 418.723679 369.525946 
L 420.428973 369.452304 
L 420.428973 369.38493 
L 422.134266 369.322256 
L 422.134266 369.265849 
L 423.83956 369.184374 
L 423.83956 369.129534 
L 426.3975 369.019855 
L 426.3975 368.961882 
L 428.955436 368.863171 
L 428.955436 368.819299 
L 431.513381 368.723722 
L 431.513381 368.684551 
L 434.071317 368.592107 
L 434.071317 368.557636 
L 437.481904 368.473027 
L 437.481904 368.436989 
L 440.892491 368.35238 
L 440.892491 368.319476 
L 445.15572 368.219198 
L 445.15572 368.205096 
L 449.41895 368.107952 
L 449.41895 368.08915 
L 455.387482 367.981038 
L 455.387482 367.973204 
L 462.208647 367.869792 
L 462.208647 367.85569 
L 470.735115 367.752279 
L 470.735115 367.738177 
L 480.966876 367.633199 
L 480.966876 367.626931 
L 500.577738 367.520386 
L 500.577738 367.515685 
L 528.715068 367.410707 
L 528.715068 367.404439 
L 585.666394 367.337065 
L 585.666394 367.337065 
" clip-path="url(#p6361e43336)" style="fill: none; opacity: 0.75; stroke: #ff0000; stroke-width: 3; stroke-linejoin: miter"/>
   </g>
   <g id="patch_14">
    <path d="M 189.172617 660.187957 
L 189.172617 660.184824 
L 261.48731 660.075145 
L 261.48731 660.070444 
L 272.862661 659.960765 
L 272.862661 659.956065 
L 280.581643 659.85422 
L 280.581643 659.844819 
L 285.863056 659.744541 
L 285.863056 659.730439 
L 289.519419 659.62076 
L 289.519419 659.603525 
L 291.956988 659.498546 
L 291.956988 659.484445 
L 294.394567 659.377899 
L 294.394567 659.354397 
L 296.425877 659.272921 
L 296.425877 659.236883 
L 298.457186 659.127204 
L 298.457186 659.097434 
L 300.082235 658.992456 
L 300.082235 658.945451 
L 301.301025 658.874943 
L 301.301025 658.82637 
L 302.519814 658.73706 
L 302.519814 658.688488 
L 303.738599 658.599178 
L 303.738599 658.536504 
L 304.551124 658.483232 
L 304.551124 658.40959 
L 305.363648 658.359451 
L 305.363648 658.295211 
L 306.176173 658.234104 
L 306.176173 658.165162 
L 306.988698 658.110323 
L 306.988698 658.02728 
L 307.801222 657.939537 
L 307.801222 657.867462 
L 308.613747 657.768751 
L 308.613747 657.698243 
L 309.426272 657.624601 
L 309.426272 657.514922 
L 310.238796 657.435013 
L 310.238796 657.348837 
L 311.051321 657.254826 
L 311.051321 657.156115 
L 311.457583 657.156115 
L 311.457583 657.0198 
L 312.270108 656.913254 
L 312.270108 656.791041 
L 313.082633 656.681362 
L 313.082633 656.537212 
L 313.895157 656.4291 
L 313.895157 656.294351 
L 314.30142 656.294351 
L 314.30142 656.1314 
L 314.707682 656.1314 
L 314.707682 655.996651 
L 315.113944 655.996651 
L 315.113944 655.835266 
L 315.520207 655.835266 
L 315.520207 655.675448 
L 315.926469 655.675448 
L 315.926469 655.51093 
L 316.332732 655.51093 
L 316.332732 655.324475 
L 316.738994 655.324475 
L 316.738994 655.125486 
L 317.145256 655.125486 
L 317.145256 654.981336 
L 317.551519 654.981336 
L 317.551519 654.815251 
L 317.957781 654.815251 
L 317.957781 654.646032 
L 318.364043 654.646032 
L 318.364043 654.432941 
L 318.770306 654.432941 
L 318.770306 654.199481 
L 319.176568 654.199481 
L 319.176568 653.950353 
L 319.58283 653.950353 
L 319.58283 653.729428 
L 319.989093 653.729428 
L 319.989093 653.470899 
L 320.395355 653.470899 
L 320.395355 653.206103 
L 320.801617 653.206103 
L 320.801617 652.895868 
L 321.20788 652.895868 
L 321.20788 652.612269 
L 321.614142 652.612269 
L 321.614142 652.306734 
L 322.020404 652.306734 
L 322.020404 651.968296 
L 322.426667 651.968296 
L 322.426667 651.607922 
L 322.832929 651.607922 
L 322.832929 651.23658 
L 323.239191 651.23658 
L 323.239191 650.87934 
L 323.645454 650.87934 
L 323.645454 650.5221 
L 324.051716 650.5221 
L 324.051716 650.149191 
L 324.457978 650.149191 
L 324.457978 649.733977 
L 324.864241 649.733977 
L 324.864241 649.235721 
L 325.270503 649.235721 
L 325.270503 648.771935 
L 325.676765 648.771935 
L 325.676765 648.289348 
L 326.083028 648.289348 
L 326.083028 647.795792 
L 326.48929 647.795792 
L 326.48929 647.239562 
L 326.895553 647.239562 
L 326.895553 646.724071 
L 327.301815 646.724071 
L 327.301815 646.087932 
L 327.708077 646.087932 
L 327.708077 645.479997 
L 328.11434 645.479997 
L 328.11434 644.842292 
L 328.520602 644.842292 
L 328.520602 644.206153 
L 328.926864 644.206153 
L 328.926864 643.49324 
L 329.333127 643.49324 
L 329.333127 642.783459 
L 329.739389 642.783459 
L 329.739389 642.037642 
L 330.145651 642.037642 
L 330.145651 641.232284 
L 330.551914 641.232284 
L 330.551914 640.350151 
L 330.958176 640.350151 
L 330.958176 639.468018 
L 331.364438 639.468018 
L 331.364438 638.571784 
L 331.770701 638.571784 
L 331.770701 637.611309 
L 332.176963 637.611309 
L 332.176963 636.605395 
L 332.583225 636.605395 
L 332.583225 635.49137 
L 332.989488 635.49137 
L 332.989488 634.322504 
L 333.39575 634.322504 
L 333.39575 633.072163 
L 333.802012 633.072163 
L 333.802012 631.817121 
L 334.208275 631.817121 
L 334.208275 630.372492 
L 334.614537 630.372492 
L 334.614537 628.959199 
L 335.020799 628.959199 
L 335.020799 627.451895 
L 335.427062 627.451895 
L 335.427062 625.853715 
L 335.833324 625.853715 
L 335.833324 624.170925 
L 336.239586 624.170925 
L 336.239586 622.41136 
L 336.645849 622.41136 
L 336.645849 620.578153 
L 337.052111 620.578153 
L 337.052111 618.737112 
L 337.458374 618.737112 
L 337.458374 616.789525 
L 337.864636 616.789525 
L 337.864636 614.816869 
L 338.270898 614.816869 
L 338.270898 612.635823 
L 338.677161 612.635823 
L 338.677161 610.30906 
L 339.083423 610.30906 
L 339.083423 607.836581 
L 339.489685 607.836581 
L 339.489685 605.208984 
L 339.895948 605.208984 
L 339.895948 602.645628 
L 340.30221 602.645628 
L 340.30221 599.920887 
L 340.708472 599.920887 
L 340.708472 596.940751 
L 341.114735 596.940751 
L 341.114735 593.86347 
L 341.520997 593.86347 
L 341.520997 590.776789 
L 341.927259 590.776789 
L 341.927259 587.589829 
L 342.333522 587.589829 
L 342.333522 584.213281 
L 342.739784 584.213281 
L 342.739784 580.825765 
L 343.146046 580.825765 
L 343.146046 577.287832 
L 343.552309 577.287832 
L 343.552309 573.550911 
L 343.958571 573.550911 
L 343.958571 569.660438 
L 344.364833 569.660438 
L 344.364833 565.724527 
L 344.771096 565.724527 
L 344.771096 561.705573 
L 345.177358 561.705573 
L 345.177358 557.69132 
L 345.58362 557.69132 
L 345.58362 553.576789 
L 345.989883 553.576789 
L 345.989883 549.293039 
L 346.396145 549.293039 
L 346.396145 544.923112 
L 346.802407 544.923112 
L 346.802407 540.636228 
L 347.20867 540.636228 
L 347.20867 536.061045 
L 347.614932 536.061045 
L 347.614932 493.707697 
L 348.021195 493.707697 
L 348.021195 489.262562 
L 348.427457 489.262562 
L 348.427457 484.884801 
L 348.833719 484.884801 
L 348.833719 480.604185 
L 349.239982 480.604185 
L 349.239982 476.354905 
L 349.646244 476.354905 
L 349.646244 472.115027 
L 350.052506 472.115027 
L 350.052506 467.944089 
L 350.458769 467.944089 
L 350.458769 463.959606 
L 350.865031 463.959606 
L 350.865031 460.097337 
L 351.271293 460.097337 
L 351.271293 456.369816 
L 351.677556 456.369816 
L 351.677556 452.557685 
L 352.083818 452.557685 
L 352.083818 448.856801 
L 352.49008 448.856801 
L 352.49008 445.323569 
L 352.896343 445.323569 
L 352.896343 441.859278 
L 353.302605 441.859278 
L 353.302605 438.556371 
L 353.708867 438.556371 
L 353.708867 435.319273 
L 354.11513 435.319273 
L 354.11513 432.284297 
L 354.521392 432.284297 
L 354.521392 429.290059 
L 354.927654 429.290059 
L 354.927654 426.436837 
L 355.333917 426.436837 
L 355.333917 423.596149 
L 355.740179 423.596149 
L 355.740179 420.984221 
L 356.146441 420.984221 
L 356.146441 418.4381 
L 356.552704 418.4381 
L 356.552704 416.098803 
L 356.958966 416.098803 
L 356.958966 413.804944 
L 357.365228 413.804944 
L 357.365228 411.569058 
L 357.771491 411.569058 
L 357.771491 409.54313 
L 358.177753 409.54313 
L 358.177753 407.583008 
L 358.584016 407.583008 
L 358.584016 405.720031 
L 358.990278 405.720031 
L 358.990278 404.049776 
L 359.39654 404.049776 
L 359.39654 402.451596 
L 359.802803 402.451596 
L 359.802803 400.873784 
L 360.209065 400.873784 
L 360.209065 399.310074 
L 360.615327 399.310074 
L 360.615327 397.884247 
L 361.02159 397.884247 
L 361.02159 396.52736 
L 361.427852 396.52736 
L 361.427852 395.212779 
L 361.834114 395.212779 
L 361.834114 393.976539 
L 362.240377 393.976539 
L 362.240377 392.798273 
L 362.646639 392.798273 
L 362.646639 391.64821 
L 363.052901 391.64821 
L 363.052901 390.574922 
L 363.459164 390.574922 
L 363.459164 389.489099 
L 363.865426 389.489099 
L 363.865426 388.523923 
L 364.271688 388.523923 
L 364.271688 387.560315 
L 364.677951 387.560315 
L 364.677951 386.686016 
L 365.084213 386.686016 
L 365.084213 385.828953 
L 365.490475 385.828953 
L 365.490475 385.001659 
L 365.896738 385.001659 
L 365.896738 384.276211 
L 366.303 384.276211 
L 366.303 383.553896 
L 366.709262 383.553896 
L 366.709262 382.859784 
L 367.115525 382.859784 
L 367.115525 382.228346 
L 367.521787 382.228346 
L 367.521787 381.637646 
L 367.928049 381.637646 
L 367.928049 381.056347 
L 368.334312 381.056347 
L 368.334312 380.482882 
L 368.740574 380.482882 
L 368.740574 379.939188 
L 369.146837 379.939188 
L 369.146837 379.389226 
L 369.553099 379.389226 
L 369.553099 378.887836 
L 369.959361 378.887836 
L 369.959361 378.409948 
L 370.365624 378.409948 
L 370.365624 377.946163 
L 370.771886 377.946163 
L 370.771886 377.507447 
L 371.178148 377.507447 
L 371.178148 377.104768 
L 371.584411 377.104768 
L 371.584411 376.71149 
L 371.990673 376.71149 
L 371.990673 376.316645 
L 372.396935 376.316645 
L 372.396935 375.975074 
L 372.803198 375.975074 
L 372.803198 375.653871 
L 373.20946 375.653871 
L 373.20946 375.313866 
L 373.615722 375.313866 
L 373.615722 374.975427 
L 374.021985 374.975427 
L 374.021985 374.715331 
L 374.428247 374.715331 
L 374.428247 374.422332 
L 374.834509 374.422332 
L 374.834509 374.1403 
L 375.240772 374.1403 
L 375.240772 373.875503 
L 375.647034 373.875503 
L 375.647034 373.637343 
L 376.053296 373.637343 
L 376.053296 373.378814 
L 376.459559 373.378814 
L 376.459559 373.14222 
L 376.865821 373.14222 
L 376.865821 372.924429 
L 377.272083 372.924429 
L 377.272083 372.687836 
L 377.678346 372.687836 
L 377.678346 372.49198 
L 378.084608 372.49198 
L 378.084608 372.318061 
L 378.49087 372.318061 
L 378.49087 372.13474 
L 378.897133 372.13474 
L 378.897133 371.981189 
L 379.303395 371.981189 
L 379.303395 371.801002 
L 379.709658 371.801002 
L 379.709658 371.645885 
L 380.522182 371.537773 
L 380.522182 371.396757 
L 380.928445 371.396757 
L 380.928445 371.243206 
L 381.334707 371.243206 
L 381.334707 371.108457 
L 381.740969 371.108457 
L 381.740969 370.978409 
L 382.147232 370.978409 
L 382.147232 370.856196 
L 382.553494 370.856196 
L 382.553494 370.727715 
L 383.366019 370.622736 
L 383.366019 370.531859 
L 384.178543 370.440982 
L 384.178543 370.343838 
L 384.584806 370.343838 
L 384.584806 370.227891 
L 385.39733 370.12918 
L 385.39733 370.050838 
L 386.209855 369.969362 
L 386.209855 369.88632 
L 387.02238 369.814245 
L 387.02238 369.756272 
L 387.834902 369.677929 
L 387.834902 369.601154 
L 388.647431 369.543181 
L 388.647431 369.480507 
L 389.459951 369.4194 
L 389.459951 369.35516 
L 390.272481 369.284652 
L 390.272481 369.223545 
L 391.085001 369.138935 
L 391.085001 369.090363 
L 391.89753 369.033957 
L 391.89753 368.969716 
L 392.71005 368.91801 
L 392.71005 368.85847 
L 393.92884 368.786395 
L 393.92884 368.747224 
L 395.147629 368.65008 
L 395.147629 368.612476 
L 396.772678 368.512198 
L 396.772678 368.47616 
L 398.397728 368.38215 
L 398.397728 368.350813 
L 400.022777 368.261503 
L 400.022777 368.234866 
L 402.054087 368.14399 
L 402.054087 368.120487 
L 404.491661 368.023343 
L 404.491661 368.001407 
L 407.741759 367.897995 
L 407.741759 367.88076 
L 410.991858 367.778915 
L 410.991858 367.76638 
L 416.273271 367.658268 
L 416.273271 367.650434 
L 425.617303 367.542322 
L 425.617303 367.539188 
L 437.398913 367.431076 
L 437.398913 367.426375 
L 552.777419 367.316696 
L 552.777419 367.315129 
L 585.666394 367.313562 
L 585.666394 367.313562 
" clip-path="url(#p6361e43336)" style="fill: none; opacity: 0.75; stroke: #0000ff; stroke-width: 3; stroke-linejoin: miter"/>
   </g>
   <g id="patch_15">
    <path d="M 93.559375 660.187957 
L 93.559375 352.668198 
" style="fill: none; stroke: #000000; stroke-width: 2.5; stroke-linejoin: miter; stroke-linecap: square"/>
   </g>
   <g id="patch_16">
    <path d="M 576.641784 660.187957 
L 576.641784 352.668198 
" style="fill: none; stroke: #000000; stroke-width: 2.5; stroke-linejoin: miter; stroke-linecap: square"/>
   </g>
   <g id="patch_17">
    <path d="M 93.559375 660.187957 
L 576.641784 660.187957 
" style="fill: none; stroke: #000000; stroke-width: 2.5; stroke-linejoin: miter; stroke-linecap: square"/>
   </g>
   <g id="patch_18">
    <path d="M 93.559375 352.668198 
L 576.641784 352.668198 
" style="fill: none; stroke: #000000; stroke-width: 2.5; stroke-linejoin: miter; stroke-linecap: square"/>
   </g>
   <g id="legend_2">
    <g id="patch_19">
     <path d="M 374.601627 660.187957 
L 571.241784 660.187957 
Q 576.641784 660.187957 576.641784 654.787957 
L 576.641784 581.13702 
Q 576.641784 575.73702 571.241784 575.73702 
L 374.601627 575.73702 
Q 369.201627 575.73702 369.201627 581.13702 
L 369.201627 654.787957 
Q 369.201627 660.187957 374.601627 660.187957 
z
" style="fill: #ffffff; opacity: 0.8; stroke: #000000; stroke-linejoin: miter"/>
    </g>
    <g id="patch_20">
     <path d="M 380.001627 605.43702 
L 434.001627 605.43702 
L 434.001627 586.53702 
L 380.001627 586.53702 
L 380.001627 605.43702 
z
" style="fill: none; opacity: 0.75; stroke: #ff0000; stroke-width: 3; stroke-linejoin: miter"/>
    </g>
    <g id="text_26">
     <!-- round 1 -->
     <g transform="translate(455.601627 605.43702)scale(0.27 -0.27)">
      <defs>
       <path id="TimesNewRomanPSMT-72" d="M 1038 2947 
L 1038 2303 
Q 1397 2947 1775 2947 
Q 1947 2947 2059 2842 
Q 2172 2738 2172 2600 
Q 2172 2478 2090 2393 
Q 2009 2309 1897 2309 
Q 1788 2309 1652 2417 
Q 1516 2525 1450 2525 
Q 1394 2525 1328 2463 
Q 1188 2334 1038 2041 
L 1038 669 
Q 1038 431 1097 309 
Q 1138 225 1241 169 
Q 1344 113 1538 113 
L 1538 0 
L 72 0 
L 72 113 
Q 291 113 397 181 
Q 475 231 506 341 
Q 522 394 522 644 
L 522 1753 
Q 522 2253 501 2348 
Q 481 2444 426 2487 
Q 372 2531 291 2531 
Q 194 2531 72 2484 
L 41 2597 
L 906 2947 
L 1038 2947 
z
" transform="scale(0.015625)"/>
      </defs>
      <use xlink:href="#TimesNewRomanPSMT-72"/>
      <use xlink:href="#TimesNewRomanPSMT-6f" x="33.300781"/>
      <use xlink:href="#TimesNewRomanPSMT-75" x="83.300781"/>
      <use xlink:href="#TimesNewRomanPSMT-6e" x="133.300781"/>
      <use xlink:href="#TimesNewRomanPSMT-64" x="183.300781"/>
      <use xlink:href="#TimesNewRomanPSMT-20" x="233.300781"/>
      <use xlink:href="#TimesNewRomanPSMT-31" x="258.300781"/>
     </g>
    </g>
    <g id="patch_21">
     <path d="M 380.001627 643.612489 
L 434.001627 643.612489 
L 434.001627 624.712489 
L 380.001627 624.712489 
L 380.001627 643.612489 
z
" style="fill: none; opacity: 0.75; stroke: #0000ff; stroke-width: 3; stroke-linejoin: miter"/>
    </g>
    <g id="text_27">
     <!-- round 100 -->
     <g transform="translate(455.601627 643.612489)scale(0.27 -0.27)">
      <use xlink:href="#TimesNewRomanPSMT-72"/>
      <use xlink:href="#TimesNewRomanPSMT-6f" x="33.300781"/>
      <use xlink:href="#TimesNewRomanPSMT-75" x="83.300781"/>
      <use xlink:href="#TimesNewRomanPSMT-6e" x="133.300781"/>
      <use xlink:href="#TimesNewRomanPSMT-64" x="183.300781"/>
      <use xlink:href="#TimesNewRomanPSMT-20" x="233.300781"/>
      <use xlink:href="#TimesNewRomanPSMT-31" x="258.300781"/>
      <use xlink:href="#TimesNewRomanPSMT-30" x="308.300781"/>
      <use xlink:href="#TimesNewRomanPSMT-30" x="358.300781"/>
     </g>
    </g>
   </g>
  </g>
 </g>
 <defs>
  <clipPath id="p1512a138a1">
   <rect x="93.559375" y="7.2" width="483.082409" height="307.51976"/>
  </clipPath>
  <clipPath id="p6361e43336">
   <rect x="93.559375" y="352.668198" width="483.082409" height="307.51976"/>
  </clipPath>
 </defs>
</svg>
