<?xml version="1.0" encoding="utf-8" standalone="no"?>
<!DOCTYPE svg PUBLIC "-//W3C//DTD SVG 1.1//EN"
  "http://www.w3.org/Graphics/SVG/1.1/DTD/svg11.dtd">
<svg xmlns:xlink="http://www.w3.org/1999/xlink" width="576pt" height="720pt" viewBox="0 0 576 720" xmlns="http://www.w3.org/2000/svg" version="1.1">
 <metadata>
  <rdf:RDF xmlns:dc="http://purl.org/dc/elements/1.1/" xmlns:cc="http://creativecommons.org/ns#" xmlns:rdf="http://www.w3.org/1999/02/22-rdf-syntax-ns#">
   <cc:Work>
    <dc:type rdf:resource="http://purl.org/dc/dcmitype/StillImage"/>
    <dc:date>2023-12-04T16:19:01.392636</dc:date>
    <dc:format>image/svg+xml</dc:format>
    <dc:creator>
     <cc:Agent>
      <dc:title>Matplotlib v3.5.2, https://matplotlib.org/</dc:title>
     </cc:Agent>
    </dc:creator>
   </cc:Work>
  </rdf:RDF>
 </metadata>
 <defs>
  <style type="text/css">*{stroke-linejoin: round; stroke-linecap: butt}</style>
 </defs>
 <g id="figure_1">
  <g id="patch_1">
   <path d="M 0 720 
L 576 720 
L 576 0 
L 0 0 
z
" style="fill: #ffffff"/>
  </g>
  <g id="axes_1">
   <g id="patch_2">
    <path d="M 89.359615 310.52 
L 572.442024 310.52 
L 572.442024 3.00024 
L 89.359615 3.00024 
z
" style="fill: #ffffff"/>
   </g>
   <g id="matplotlib.axis_1">
    <g id="xtick_1">
     <g id="line2d_1">
      <path d="M 140.210395 310.52 
L 140.210395 3.00024 
" clip-path="url(#pe0da0c7701)" style="fill: none; stroke-dasharray: 2.5,5; stroke-dashoffset: 0; stroke: #b0b0b0; stroke-width: 0.5"/>
     </g>
     <g id="line2d_2">
      <defs>
       <path id="m44bb0df331" d="M 0 0 
L 0 -3.5 
" style="stroke: #000000; stroke-width: 3"/>
      </defs>
      <g>
       <use xlink:href="#m44bb0df331" x="140.210395" y="310.52" style="stroke: #000000; stroke-width: 3"/>
      </g>
     </g>
     <g id="line2d_3">
      <defs>
       <path id="m42cfe22efb" d="M 0 0 
L 0 3.5 
" style="stroke: #000000; stroke-width: 3"/>
      </defs>
      <g>
       <use xlink:href="#m42cfe22efb" x="140.210395" y="3.00024" style="stroke: #000000; stroke-width: 3"/>
      </g>
     </g>
     <g id="text_1">
      <!-- −0.08 -->
      <g transform="translate(105.501801 334.85125)scale(0.3 -0.3)">
       <defs>
        <path id="TimesNewRomanPSMT-2212" d="M 3484 2000 
L 116 2000 
L 116 2256 
L 3484 2256 
L 3484 2000 
z
" transform="scale(0.015625)"/>
        <path id="TimesNewRomanPSMT-30" d="M 231 2094 
Q 231 2819 450 3342 
Q 669 3866 1031 4122 
Q 1313 4325 1613 4325 
Q 2100 4325 2488 3828 
Q 2972 3213 2972 2159 
Q 2972 1422 2759 906 
Q 2547 391 2217 158 
Q 1888 -75 1581 -75 
Q 975 -75 572 641 
Q 231 1244 231 2094 
z
M 844 2016 
Q 844 1141 1059 588 
Q 1238 122 1591 122 
Q 1759 122 1940 273 
Q 2122 425 2216 781 
Q 2359 1319 2359 2297 
Q 2359 3022 2209 3506 
Q 2097 3866 1919 4016 
Q 1791 4119 1609 4119 
Q 1397 4119 1231 3928 
Q 1006 3669 925 3112 
Q 844 2556 844 2016 
z
" transform="scale(0.015625)"/>
        <path id="TimesNewRomanPSMT-2e" d="M 800 606 
Q 947 606 1047 504 
Q 1147 403 1147 259 
Q 1147 116 1045 14 
Q 944 -88 800 -88 
Q 656 -88 554 14 
Q 453 116 453 259 
Q 453 406 554 506 
Q 656 606 800 606 
z
" transform="scale(0.015625)"/>
        <path id="TimesNewRomanPSMT-38" d="M 1228 2134 
Q 725 2547 579 2797 
Q 434 3047 434 3316 
Q 434 3728 753 4026 
Q 1072 4325 1600 4325 
Q 2113 4325 2425 4047 
Q 2738 3769 2738 3413 
Q 2738 3175 2569 2928 
Q 2400 2681 1866 2347 
Q 2416 1922 2594 1678 
Q 2831 1359 2831 1006 
Q 2831 559 2490 242 
Q 2150 -75 1597 -75 
Q 994 -75 656 303 
Q 388 606 388 966 
Q 388 1247 577 1523 
Q 766 1800 1228 2134 
z
M 1719 2469 
Q 2094 2806 2194 3001 
Q 2294 3197 2294 3444 
Q 2294 3772 2109 3958 
Q 1925 4144 1606 4144 
Q 1288 4144 1088 3959 
Q 888 3775 888 3528 
Q 888 3366 970 3203 
Q 1053 3041 1206 2894 
L 1719 2469 
z
M 1375 2016 
Q 1116 1797 991 1539 
Q 866 1281 866 981 
Q 866 578 1086 336 
Q 1306 94 1647 94 
Q 1984 94 2187 284 
Q 2391 475 2391 747 
Q 2391 972 2272 1150 
Q 2050 1481 1375 2016 
z
" transform="scale(0.015625)"/>
       </defs>
       <use xlink:href="#TimesNewRomanPSMT-2212"/>
       <use xlink:href="#TimesNewRomanPSMT-30" x="56.396484"/>
       <use xlink:href="#TimesNewRomanPSMT-2e" x="106.396484"/>
       <use xlink:href="#TimesNewRomanPSMT-30" x="131.396484"/>
       <use xlink:href="#TimesNewRomanPSMT-38" x="181.396484"/>
      </g>
     </g>
    </g>
    <g id="xtick_2">
     <g id="line2d_4">
      <path d="M 241.911955 310.52 
L 241.911955 3.00024 
" clip-path="url(#pe0da0c7701)" style="fill: none; stroke-dasharray: 2.5,5; stroke-dashoffset: 0; stroke: #b0b0b0; stroke-width: 0.5"/>
     </g>
     <g id="line2d_5">
      <g>
       <use xlink:href="#m44bb0df331" x="241.911955" y="310.52" style="stroke: #000000; stroke-width: 3"/>
      </g>
     </g>
     <g id="line2d_6">
      <g>
       <use xlink:href="#m42cfe22efb" x="241.911955" y="3.00024" style="stroke: #000000; stroke-width: 3"/>
      </g>
     </g>
     <g id="text_2">
      <!-- −0.04 -->
      <g transform="translate(207.203361 334.85125)scale(0.3 -0.3)">
       <defs>
        <path id="TimesNewRomanPSMT-34" d="M 2978 1563 
L 2978 1119 
L 2409 1119 
L 2409 0 
L 1894 0 
L 1894 1119 
L 100 1119 
L 100 1519 
L 2066 4325 
L 2409 4325 
L 2409 1563 
L 2978 1563 
z
M 1894 1563 
L 1894 3666 
L 406 1563 
L 1894 1563 
z
" transform="scale(0.015625)"/>
       </defs>
       <use xlink:href="#TimesNewRomanPSMT-2212"/>
       <use xlink:href="#TimesNewRomanPSMT-30" x="56.396484"/>
       <use xlink:href="#TimesNewRomanPSMT-2e" x="106.396484"/>
       <use xlink:href="#TimesNewRomanPSMT-30" x="131.396484"/>
       <use xlink:href="#TimesNewRomanPSMT-34" x="181.396484"/>
      </g>
     </g>
    </g>
    <g id="xtick_3">
     <g id="line2d_7">
      <path d="M 343.613514 310.52 
L 343.613514 3.00024 
" clip-path="url(#pe0da0c7701)" style="fill: none; stroke-dasharray: 2.5,5; stroke-dashoffset: 0; stroke: #b0b0b0; stroke-width: 0.5"/>
     </g>
     <g id="line2d_8">
      <g>
       <use xlink:href="#m44bb0df331" x="343.613514" y="310.52" style="stroke: #000000; stroke-width: 3"/>
      </g>
     </g>
     <g id="line2d_9">
      <g>
       <use xlink:href="#m42cfe22efb" x="343.613514" y="3.00024" style="stroke: #000000; stroke-width: 3"/>
      </g>
     </g>
     <g id="text_3">
      <!-- 0.00 -->
      <g transform="translate(317.363514 334.85125)scale(0.3 -0.3)">
       <use xlink:href="#TimesNewRomanPSMT-30"/>
       <use xlink:href="#TimesNewRomanPSMT-2e" x="50"/>
       <use xlink:href="#TimesNewRomanPSMT-30" x="75"/>
       <use xlink:href="#TimesNewRomanPSMT-30" x="125"/>
      </g>
     </g>
    </g>
    <g id="xtick_4">
     <g id="line2d_10">
      <path d="M 445.315074 310.52 
L 445.315074 3.00024 
" clip-path="url(#pe0da0c7701)" style="fill: none; stroke-dasharray: 2.5,5; stroke-dashoffset: 0; stroke: #b0b0b0; stroke-width: 0.5"/>
     </g>
     <g id="line2d_11">
      <g>
       <use xlink:href="#m44bb0df331" x="445.315074" y="310.52" style="stroke: #000000; stroke-width: 3"/>
      </g>
     </g>
     <g id="line2d_12">
      <g>
       <use xlink:href="#m42cfe22efb" x="445.315074" y="3.00024" style="stroke: #000000; stroke-width: 3"/>
      </g>
     </g>
     <g id="text_4">
      <!-- 0.04 -->
      <g transform="translate(419.065074 334.85125)scale(0.3 -0.3)">
       <use xlink:href="#TimesNewRomanPSMT-30"/>
       <use xlink:href="#TimesNewRomanPSMT-2e" x="50"/>
       <use xlink:href="#TimesNewRomanPSMT-30" x="75"/>
       <use xlink:href="#TimesNewRomanPSMT-34" x="125"/>
      </g>
     </g>
    </g>
    <g id="xtick_5">
     <g id="line2d_13">
      <path d="M 547.016634 310.52 
L 547.016634 3.00024 
" clip-path="url(#pe0da0c7701)" style="fill: none; stroke-dasharray: 2.5,5; stroke-dashoffset: 0; stroke: #b0b0b0; stroke-width: 0.5"/>
     </g>
     <g id="line2d_14">
      <g>
       <use xlink:href="#m44bb0df331" x="547.016634" y="310.52" style="stroke: #000000; stroke-width: 3"/>
      </g>
     </g>
     <g id="line2d_15">
      <g>
       <use xlink:href="#m42cfe22efb" x="547.016634" y="3.00024" style="stroke: #000000; stroke-width: 3"/>
      </g>
     </g>
     <g id="text_5">
      <!-- 0.08 -->
      <g transform="translate(520.766634 334.85125)scale(0.3 -0.3)">
       <use xlink:href="#TimesNewRomanPSMT-30"/>
       <use xlink:href="#TimesNewRomanPSMT-2e" x="50"/>
       <use xlink:href="#TimesNewRomanPSMT-30" x="75"/>
       <use xlink:href="#TimesNewRomanPSMT-38" x="125"/>
      </g>
     </g>
    </g>
   </g>
   <g id="matplotlib.axis_2">
    <g id="ytick_1">
     <g id="line2d_16">
      <path d="M 89.359615 310.52 
L 572.442024 310.52 
" clip-path="url(#pe0da0c7701)" style="fill: none; stroke-dasharray: 2.5,5; stroke-dashoffset: 0; stroke: #b0b0b0; stroke-width: 0.5"/>
     </g>
     <g id="line2d_17">
      <defs>
       <path id="m8dcd4058e4" d="M 0 0 
L 3.5 0 
" style="stroke: #000000; stroke-width: 3"/>
      </defs>
      <g>
       <use xlink:href="#m8dcd4058e4" x="89.359615" y="310.52" style="stroke: #000000; stroke-width: 3"/>
      </g>
     </g>
     <g id="line2d_18">
      <defs>
       <path id="m546f86d42f" d="M 0 0 
L -3.5 0 
" style="stroke: #000000; stroke-width: 3"/>
      </defs>
      <g>
       <use xlink:href="#m546f86d42f" x="572.442024" y="310.52" style="stroke: #000000; stroke-width: 3"/>
      </g>
     </g>
     <g id="text_6">
      <!-- 0 -->
      <g transform="translate(70.859615 320.935625)scale(0.3 -0.3)">
       <use xlink:href="#TimesNewRomanPSMT-30"/>
      </g>
     </g>
    </g>
    <g id="ytick_2">
     <g id="line2d_19">
      <path d="M 89.359615 245.798488 
L 572.442024 245.798488 
" clip-path="url(#pe0da0c7701)" style="fill: none; stroke-dasharray: 2.5,5; stroke-dashoffset: 0; stroke: #b0b0b0; stroke-width: 0.5"/>
     </g>
     <g id="line2d_20">
      <g>
       <use xlink:href="#m8dcd4058e4" x="89.359615" y="245.798488" style="stroke: #000000; stroke-width: 3"/>
      </g>
     </g>
     <g id="line2d_21">
      <g>
       <use xlink:href="#m546f86d42f" x="572.442024" y="245.798488" style="stroke: #000000; stroke-width: 3"/>
      </g>
     </g>
     <g id="text_7">
      <!-- 200 -->
      <g transform="translate(40.859615 256.214113)scale(0.3 -0.3)">
       <defs>
        <path id="TimesNewRomanPSMT-32" d="M 2934 816 
L 2638 0 
L 138 0 
L 138 116 
Q 1241 1122 1691 1759 
Q 2141 2397 2141 2925 
Q 2141 3328 1894 3587 
Q 1647 3847 1303 3847 
Q 991 3847 742 3664 
Q 494 3481 375 3128 
L 259 3128 
Q 338 3706 661 4015 
Q 984 4325 1469 4325 
Q 1984 4325 2329 3994 
Q 2675 3663 2675 3213 
Q 2675 2891 2525 2569 
Q 2294 2063 1775 1497 
Q 997 647 803 472 
L 1909 472 
Q 2247 472 2383 497 
Q 2519 522 2628 598 
Q 2738 675 2819 816 
L 2934 816 
z
" transform="scale(0.015625)"/>
       </defs>
       <use xlink:href="#TimesNewRomanPSMT-32"/>
       <use xlink:href="#TimesNewRomanPSMT-30" x="50"/>
       <use xlink:href="#TimesNewRomanPSMT-30" x="100"/>
      </g>
     </g>
    </g>
    <g id="ytick_3">
     <g id="line2d_22">
      <path d="M 89.359615 181.076975 
L 572.442024 181.076975 
" clip-path="url(#pe0da0c7701)" style="fill: none; stroke-dasharray: 2.5,5; stroke-dashoffset: 0; stroke: #b0b0b0; stroke-width: 0.5"/>
     </g>
     <g id="line2d_23">
      <g>
       <use xlink:href="#m8dcd4058e4" x="89.359615" y="181.076975" style="stroke: #000000; stroke-width: 3"/>
      </g>
     </g>
     <g id="line2d_24">
      <g>
       <use xlink:href="#m546f86d42f" x="572.442024" y="181.076975" style="stroke: #000000; stroke-width: 3"/>
      </g>
     </g>
     <g id="text_8">
      <!-- 400 -->
      <g transform="translate(40.859615 191.4926)scale(0.3 -0.3)">
       <use xlink:href="#TimesNewRomanPSMT-34"/>
       <use xlink:href="#TimesNewRomanPSMT-30" x="50"/>
       <use xlink:href="#TimesNewRomanPSMT-30" x="100"/>
      </g>
     </g>
    </g>
    <g id="ytick_4">
     <g id="line2d_25">
      <path d="M 89.359615 116.355463 
L 572.442024 116.355463 
" clip-path="url(#pe0da0c7701)" style="fill: none; stroke-dasharray: 2.5,5; stroke-dashoffset: 0; stroke: #b0b0b0; stroke-width: 0.5"/>
     </g>
     <g id="line2d_26">
      <g>
       <use xlink:href="#m8dcd4058e4" x="89.359615" y="116.355463" style="stroke: #000000; stroke-width: 3"/>
      </g>
     </g>
     <g id="line2d_27">
      <g>
       <use xlink:href="#m546f86d42f" x="572.442024" y="116.355463" style="stroke: #000000; stroke-width: 3"/>
      </g>
     </g>
     <g id="text_9">
      <!-- 600 -->
      <g transform="translate(40.859615 126.771088)scale(0.3 -0.3)">
       <defs>
        <path id="TimesNewRomanPSMT-36" d="M 2869 4325 
L 2869 4209 
Q 2456 4169 2195 4045 
Q 1934 3922 1679 3669 
Q 1425 3416 1258 3105 
Q 1091 2794 978 2366 
Q 1428 2675 1881 2675 
Q 2316 2675 2634 2325 
Q 2953 1975 2953 1425 
Q 2953 894 2631 456 
Q 2244 -75 1606 -75 
Q 1172 -75 869 213 
Q 275 772 275 1663 
Q 275 2231 503 2743 
Q 731 3256 1154 3653 
Q 1578 4050 1965 4187 
Q 2353 4325 2688 4325 
L 2869 4325 
z
M 925 2138 
Q 869 1716 869 1456 
Q 869 1156 980 804 
Q 1091 453 1309 247 
Q 1469 100 1697 100 
Q 1969 100 2183 356 
Q 2397 613 2397 1088 
Q 2397 1622 2184 2012 
Q 1972 2403 1581 2403 
Q 1463 2403 1327 2353 
Q 1191 2303 925 2138 
z
" transform="scale(0.015625)"/>
       </defs>
       <use xlink:href="#TimesNewRomanPSMT-36"/>
       <use xlink:href="#TimesNewRomanPSMT-30" x="50"/>
       <use xlink:href="#TimesNewRomanPSMT-30" x="100"/>
      </g>
     </g>
    </g>
    <g id="ytick_5">
     <g id="line2d_28">
      <path d="M 89.359615 51.633951 
L 572.442024 51.633951 
" clip-path="url(#pe0da0c7701)" style="fill: none; stroke-dasharray: 2.5,5; stroke-dashoffset: 0; stroke: #b0b0b0; stroke-width: 0.5"/>
     </g>
     <g id="line2d_29">
      <g>
       <use xlink:href="#m8dcd4058e4" x="89.359615" y="51.633951" style="stroke: #000000; stroke-width: 3"/>
      </g>
     </g>
     <g id="line2d_30">
      <g>
       <use xlink:href="#m546f86d42f" x="572.442024" y="51.633951" style="stroke: #000000; stroke-width: 3"/>
      </g>
     </g>
     <g id="text_10">
      <!-- 800 -->
      <g transform="translate(40.859615 62.049576)scale(0.3 -0.3)">
       <use xlink:href="#TimesNewRomanPSMT-38"/>
       <use xlink:href="#TimesNewRomanPSMT-30" x="50"/>
       <use xlink:href="#TimesNewRomanPSMT-30" x="100"/>
      </g>
     </g>
    </g>
    <g id="text_11">
     <!-- 概率密度 -->
     <g transform="translate(32.047115 212.76012)rotate(-90)scale(0.28 -0.28)">
      <defs>
       <path id="UNAVAILABLE-6982" d="M 31 797 
Q 578 1769 731 2130 
Q 884 2491 979 2764 
Q 1075 3038 1094 3138 
L 1119 3272 
L 913 3272 
Q 684 3272 438 3175 
L 197 3450 
L 728 3425 
L 1119 3425 
L 1119 4166 
L 1088 4891 
L 1559 4650 
Q 1647 4603 1645 4581 
Q 1644 4559 1559 4503 
L 1441 4425 
L 1441 3425 
L 1697 3425 
L 1966 3725 
L 2294 3391 
L 2294 4028 
L 2259 4713 
L 2672 4463 
L 3259 4463 
L 3484 4713 
L 3841 4425 
L 4453 4406 
L 5413 4406 
L 5650 4731 
L 6016 4356 
Q 6059 4309 6048 4286 
Q 6038 4263 5981 4263 
L 5275 4263 
Q 5250 4041 5231 3900 
Q 5213 3759 5145 3326 
Q 5078 2894 5056 2781 
L 4997 2488 
L 5350 2488 
L 5597 2819 
L 5966 2413 
Q 5997 2375 5989 2353 
Q 5981 2331 5913 2331 
L 4972 2331 
Q 4878 1934 4808 1695 
Q 4738 1456 4600 1100 
Q 4463 744 4284 417 
Q 4106 91 3840 -281 
Q 3575 -653 3444 -781 
L 3216 -1013 
L 3131 -944 
Q 3666 -269 3902 217 
Q 4138 703 4306 1164 
Q 4475 1625 4538 1903 
L 4638 2331 
L 4294 2334 
L 4138 2088 
L 3794 2438 
L 4003 2600 
Q 4103 3331 4116 3597 
L 4131 3916 
L 4566 3647 
Q 4634 3600 4634 3581 
L 4556 3528 
L 4409 3428 
L 4278 2488 
L 4678 2488 
Q 4709 2666 4731 2784 
Q 4753 2903 4820 3351 
Q 4888 3800 4894 3897 
L 4916 4263 
L 4600 4263 
Q 4319 4263 4022 4131 
L 3794 4303 
L 3641 4194 
L 3641 2488 
L 3675 1800 
Q 3591 1744 3322 1634 
L 3322 1903 
L 2613 1903 
L 2613 -22 
L 3294 459 
Q 3228 653 3147 842 
Q 3066 1031 3044 1075 
L 2941 1256 
L 3028 1297 
Q 3222 1069 3348 906 
Q 3475 744 3589 539 
Q 3703 334 3698 209 
Q 3694 84 3595 -17 
Q 3497 -119 3439 -69 
Q 3381 -19 3356 131 
L 3331 303 
Q 3153 144 3070 62 
Q 2988 -19 2797 -233 
Q 2606 -447 2450 -669 
L 2109 -281 
Q 2209 -194 2231 -153 
Q 2253 -113 2275 -20 
Q 2297 72 2297 184 
L 2294 3272 
L 1441 3272 
L 1441 2791 
Q 1678 2578 1845 2429 
Q 2013 2281 2070 2175 
Q 2128 2069 2133 1991 
Q 2138 1913 2100 1803 
Q 2022 1584 1909 1669 
Q 1875 1694 1844 1756 
L 1709 2100 
Q 1644 2256 1600 2322 
L 1444 2553 
L 1441 -291 
L 1475 -950 
L 1213 -1031 
L 1059 -1056 
L 1119 -222 
L 1119 2284 
Q 978 2034 859 1828 
Q 741 1622 516 1292 
Q 291 963 106 753 
L 31 797 
z
M 2613 2050 
L 3322 2050 
L 3322 3175 
L 2613 3175 
L 2613 2050 
z
M 2613 3328 
L 3322 3328 
L 3322 4303 
L 2613 4303 
L 2613 3328 
z
M 4922 2103 
L 5375 1916 
Q 5441 1888 5444 1875 
Q 5447 1863 5394 1822 
L 5256 1719 
L 5259 -206 
Q 5259 -378 5312 -442 
Q 5366 -506 5525 -491 
Q 5653 -478 5711 -428 
Q 5769 -378 5795 -262 
Q 5822 -147 5844 175 
L 5897 969 
L 5997 969 
L 6009 278 
Q 6013 91 6038 -40 
Q 6063 -172 6103 -231 
Q 6144 -291 6241 -384 
Q 6200 -472 6125 -595 
Q 6050 -719 5912 -759 
Q 5775 -800 5609 -806 
Q 5303 -819 5189 -775 
Q 5075 -731 5015 -637 
Q 4956 -544 4956 -363 
L 4950 1278 
L 4922 2103 
z
" transform="scale(0.015625)"/>
       <path id="UNAVAILABLE-7387" d="M 138 556 
L 453 541 
L 3025 541 
L 3025 944 
L 2991 1459 
Q 2591 1350 2284 1213 
L 2078 1681 
Q 2284 1722 2432 1822 
Q 2581 1922 2803 2159 
L 3203 2591 
L 3325 2719 
Q 2541 2603 2369 2516 
L 2203 2438 
L 1975 2859 
Q 2088 2859 2156 2889 
Q 2225 2919 2414 3158 
Q 2603 3397 2698 3537 
Q 2794 3678 2897 3881 
L 1219 3881 
Q 1134 3881 1062 3870 
Q 991 3859 797 3775 
L 553 4047 
L 919 4034 
L 3203 4034 
Q 3119 4278 3081 4364 
Q 3044 4450 2976 4556 
Q 2909 4663 2713 4822 
L 2734 4916 
Q 3016 4822 3211 4742 
Q 3406 4663 3489 4563 
Q 3572 4463 3562 4350 
Q 3553 4238 3391 4034 
L 5113 4034 
L 5447 4428 
L 5875 4034 
Q 5969 3944 5950 3912 
Q 5931 3881 5850 3881 
L 3131 3881 
L 3378 3747 
Q 3444 3709 3434 3684 
Q 3425 3659 3391 3653 
L 3228 3613 
Q 3138 3550 3094 3519 
L 2503 2988 
L 2284 2797 
L 3450 2859 
Q 3775 3231 3844 3353 
L 3934 3509 
L 4303 3125 
Q 4353 3069 4345 3055 
Q 4338 3041 4284 3034 
L 4100 3006 
Q 3909 2866 3864 2828 
Q 3819 2791 3553 2563 
L 3103 2184 
L 2647 1778 
L 2509 1666 
Q 3413 1728 4084 1809 
Q 3934 2059 3684 2325 
L 3734 2369 
Q 4309 2009 4432 1895 
Q 4556 1781 4592 1678 
Q 4628 1575 4591 1453 
Q 4556 1344 4475 1276 
Q 4394 1209 4353 1219 
Q 4306 1225 4281 1272 
Q 4256 1319 4240 1387 
Q 4225 1456 4141 1697 
Q 3638 1606 3066 1459 
L 3525 1244 
Q 3594 1209 3595 1192 
Q 3597 1175 3525 1128 
L 3391 1038 
L 3391 541 
L 5394 541 
L 5747 925 
L 6181 528 
Q 6241 469 6228 430 
Q 6216 391 6163 391 
L 3391 391 
L 3391 -316 
L 3422 -869 
Q 3278 -969 2975 -1047 
L 3025 -266 
L 3025 391 
L 859 391 
Q 547 391 388 303 
L 138 556 
z
M 456 1581 
Q 844 1709 1053 1800 
Q 1263 1891 2000 2269 
L 2050 2203 
Q 1834 2038 1607 1867 
Q 1381 1697 1190 1548 
Q 1000 1400 784 1144 
L 456 1581 
z
M 941 3506 
Q 1625 3106 1692 2964 
Q 1759 2822 1678 2628 
Q 1634 2525 1556 2469 
Q 1478 2413 1441 2431 
Q 1409 2444 1367 2575 
Q 1325 2706 1284 2823 
Q 1244 2941 1200 3019 
Q 1156 3097 894 3453 
L 941 3506 
z
M 5344 3256 
Q 4713 2697 4484 2469 
L 4422 2531 
Q 4666 2847 4814 3095 
Q 4963 3344 5131 3694 
L 5503 3375 
Q 5581 3306 5570 3281 
Q 5559 3256 5488 3256 
L 5344 3256 
z
M 4553 2197 
L 4588 2269 
Q 4863 2194 5013 2142 
Q 5163 2091 5398 1980 
Q 5634 1869 5679 1778 
Q 5725 1688 5722 1538 
Q 5719 1456 5706 1395 
Q 5694 1334 5650 1279 
Q 5606 1225 5556 1231 
Q 5519 1231 5472 1284 
L 5275 1619 
Q 5216 1709 5028 1884 
Q 4841 2059 4553 2197 
z
" transform="scale(0.015625)"/>
       <path id="UNAVAILABLE-5bc6" d="M 1972 3269 
L 2469 3081 
Q 2609 3025 2506 2972 
L 2344 2888 
L 2344 1969 
Q 2931 2334 3440 2718 
Q 3950 3103 4119 3300 
L 4400 3616 
L 4788 3213 
Q 4825 3172 4822 3151 
Q 4819 3131 4772 3131 
L 4538 3131 
L 3203 2178 
L 2469 1747 
Q 2522 1728 2570 1718 
Q 2619 1709 2781 1715 
Q 2944 1722 3536 1709 
Q 4128 1697 4268 1800 
Q 4409 1903 4438 2200 
L 4494 2666 
L 4594 2666 
Q 4588 2484 4592 2370 
Q 4597 2256 4636 2148 
Q 4675 2041 4753 1984 
L 4906 1856 
Q 4869 1763 4797 1650 
Q 4725 1538 4431 1472 
Q 4138 1406 3520 1409 
Q 2903 1413 2606 1406 
Q 2309 1400 2206 1488 
L 2100 1566 
Q 1678 1378 1329 1240 
Q 981 1103 259 919 
L 234 1019 
Q 1197 1338 1531 1528 
L 1997 1784 
L 1997 2756 
L 1972 3269 
z
M 1163 4113 
L 3100 4113 
Q 2991 4394 2911 4534 
Q 2831 4675 2653 4847 
L 2697 4950 
Q 2938 4844 3180 4739 
Q 3422 4634 3442 4467 
Q 3463 4300 3394 4247 
L 3256 4113 
L 5334 4113 
L 5572 4394 
L 6103 3941 
Q 6147 3900 6137 3872 
Q 6128 3844 6081 3838 
Q 6059 3831 5971 3832 
Q 5884 3834 5665 3756 
Q 5447 3678 5269 3516 
L 5056 3331 
L 4994 3378 
L 5372 3959 
L 1178 3959 
Q 1163 3797 1144 3625 
Q 1125 3453 1047 3312 
Q 969 3172 858 3117 
Q 747 3063 639 3058 
Q 531 3053 473 3111 
Q 416 3169 414 3248 
Q 413 3328 516 3434 
L 713 3603 
Q 897 3766 961 3950 
Q 1025 4134 1034 4206 
L 1056 4381 
L 1144 4381 
Q 1153 4256 1156 4228 
L 1163 4113 
L 1163 4113 
z
M 1350 3081 
Q 1353 2853 1354 2662 
Q 1356 2472 1322 2303 
Q 1266 2031 1130 1907 
Q 994 1784 847 1789 
Q 700 1794 650 1856 
Q 600 1919 613 1994 
Q 616 2041 641 2072 
Q 666 2103 742 2164 
Q 819 2225 942 2362 
Q 1066 2500 1133 2648 
Q 1200 2797 1222 2906 
L 1256 3081 
L 1350 3081 
z
M 1150 -622 
L 1350 -406 
L 1350 375 
L 1319 997 
L 1884 738 
Q 1959 700 1900 659 
L 1703 516 
L 1703 -484 
L 3025 -484 
L 3025 659 
L 2988 1356 
L 3544 1119 
Q 3588 1097 3586 1076 
Q 3584 1056 3559 1041 
L 3403 934 
L 3403 -484 
L 4828 -484 
L 4828 275 
L 4797 1056 
L 5397 825 
Q 5444 803 5441 790 
Q 5438 778 5397 750 
L 5203 622 
L 5203 -316 
L 5244 -884 
Q 5100 -1009 4828 -1094 
L 4828 -638 
L 1775 -638 
L 1584 -938 
L 1150 -622 
z
M 2581 3734 
L 2622 3788 
Q 2919 3659 3061 3581 
Q 3203 3503 3323 3398 
Q 3444 3294 3453 3211 
Q 3463 3128 3416 3025 
Q 3375 2941 3312 2866 
Q 3250 2791 3197 2794 
Q 3159 2794 3137 2816 
Q 3116 2838 3080 2958 
Q 3044 3078 2992 3209 
Q 2941 3341 2869 3431 
Q 2797 3522 2581 3734 
z
M 4803 2872 
L 4828 2941 
Q 5419 2684 5644 2539 
Q 5869 2394 5898 2309 
Q 5928 2225 5925 2159 
Q 5919 2063 5866 1948 
Q 5813 1834 5756 1789 
Q 5700 1744 5666 1753 
Q 5625 1759 5584 1847 
L 5522 2000 
Q 5453 2159 5301 2353 
Q 5150 2547 4803 2872 
z
" transform="scale(0.015625)"/>
       <path id="UNAVAILABLE-5ea6" d="M 931 4438 
L 1413 4153 
L 3297 4153 
Q 3269 4306 3208 4509 
Q 3147 4713 2903 4913 
L 2953 4984 
Q 3100 4925 3339 4797 
Q 3578 4669 3648 4558 
Q 3719 4447 3669 4369 
L 3566 4153 
L 5241 4153 
L 5569 4559 
L 6059 4113 
Q 6106 4069 6093 4036 
Q 6081 4003 5994 4003 
L 1378 4003 
Q 1366 3753 1353 3440 
Q 1341 3128 1325 2522 
Q 1309 1916 1295 1609 
Q 1281 1303 1237 945 
Q 1194 588 1097 284 
Q 1000 -19 820 -267 
Q 641 -516 263 -928 
L 188 -866 
Q 403 -559 515 -359 
Q 628 -159 693 16 
Q 759 191 815 420 
Q 872 650 895 862 
Q 919 1075 939 1448 
Q 959 1822 970 2203 
Q 981 2584 979 3128 
Q 978 3672 969 3822 
L 931 4438 
L 931 4438 
z
M 3297 109 
Q 3022 444 2867 689 
Q 2713 934 2578 1275 
L 2438 1275 
Q 2200 1275 2016 1169 
L 1806 1438 
L 2100 1422 
L 4325 1422 
L 4575 1691 
L 4975 1353 
Q 5069 1272 5067 1264 
Q 5066 1256 4984 1225 
L 4759 1131 
Q 4216 466 4094 353 
L 3838 109 
Q 4191 -84 4580 -218 
Q 4969 -353 5348 -383 
Q 5728 -413 6094 -419 
L 6100 -519 
Q 5863 -566 5739 -633 
Q 5616 -700 5581 -763 
L 5488 -913 
Q 5281 -844 5181 -809 
L 4813 -694 
Q 4050 -444 3588 -119 
Q 3325 -278 3051 -420 
Q 2778 -563 2087 -758 
Q 1397 -953 931 -1006 
L 903 -913 
Q 1231 -853 1957 -603 
Q 2684 -353 3297 109 
z
M 2744 1275 
Q 2928 925 3081 726 
Q 3234 528 3541 303 
Q 3747 497 3919 676 
Q 4091 856 4200 1038 
L 4347 1275 
L 2744 1275 
z
M 2663 3072 
L 2663 3331 
L 2631 3878 
L 3109 3650 
Q 3231 3588 3232 3591 
Q 3234 3594 3147 3531 
L 3016 3438 
L 3016 3072 
L 4216 3072 
L 4216 3269 
L 4188 3844 
L 4688 3616 
Q 4778 3572 4779 3567 
Q 4781 3563 4688 3494 
L 4575 3409 
L 4575 3072 
L 5203 3072 
L 5584 3478 
L 6022 3072 
Q 6109 2988 6084 2955 
Q 6059 2922 5994 2922 
L 4575 2922 
L 4575 2428 
L 4603 1997 
Q 4431 1847 4216 1778 
L 4216 2013 
L 3016 2013 
L 3016 1878 
Q 2850 1734 2625 1700 
L 2663 2316 
L 2663 2922 
L 2150 2922 
Q 1900 2922 1822 2878 
L 1722 2828 
L 1541 3081 
L 1878 3072 
L 2663 3072 
z
M 3016 2163 
L 4216 2163 
L 4216 2922 
L 3016 2922 
L 3016 2163 
z
" transform="scale(0.015625)"/>
      </defs>
      <use xlink:href="#UNAVAILABLE-6982"/>
      <use xlink:href="#UNAVAILABLE-7387" x="100"/>
      <use xlink:href="#UNAVAILABLE-5bc6" x="200"/>
      <use xlink:href="#UNAVAILABLE-5ea6" x="300"/>
     </g>
    </g>
   </g>
   <g id="patch_3">
    <path d="M -1 310.52 
L 255.931677 310.427075 
L 255.931677 310.401263 
L 269.574026 310.308338 
L 269.574026 310.287688 
L 272.984608 310.323825 
L 272.984608 310.163788 
L 273.837255 310.163788 
L 273.837255 310.029564 
L 274.689902 310.029564 
L 274.689902 310.267038 
L 278.100489 310.261876 
L 278.100489 310.153463 
L 284.921658 310.076026 
L 284.921658 310.034726 
L 291.742833 309.931476 
L 291.742833 309.859202 
L 293.448126 309.854039 
L 293.448126 309.740464 
L 296.006062 309.740464 
L 296.006062 309.58559 
L 298.564002 309.570102 
L 298.564002 309.704327 
L 300.269296 309.595915 
L 300.269296 309.389415 
L 301.121943 309.389415 
L 301.121943 309.27584 
L 302.827236 309.229378 
L 302.827236 309.095153 
L 304.532528 309.084824 
L 304.532528 308.955766 
L 307.090468 308.966091 
L 307.090468 308.780242 
L 309.648408 308.826704 
L 309.648408 308.475649 
L 310.501053 308.475649 
L 310.501053 308.253668 
L 311.3537 308.253668 
L 311.3537 307.861319 
L 312.206346 307.861319 
L 312.206346 308.047168 
L 313.058993 308.047168 
L 313.058993 307.835506 
L 313.91164 307.835506 
L 313.91164 307.649657 
L 315.616934 307.613519 
L 315.616934 307.474124 
L 316.469578 307.474124 
L 316.469578 307.071458 
L 318.174872 306.973371 
L 318.174872 306.560372 
L 319.027518 306.560372 
L 319.027518 306.415822 
L 319.880165 306.415822 
L 319.880165 306.193835 
L 320.732812 306.193835 
L 320.732812 305.739536 
L 321.585459 305.739536 
L 321.585459 305.150998 
L 324.143397 305.140688 
L 324.143397 304.629602 
L 324.996044 304.629602 
L 324.996044 304.37664 
L 325.84869 304.37664 
L 325.84869 303.927494 
L 326.701336 303.927494 
L 326.701336 303.266705 
L 327.553983 303.266705 
L 327.553983 303.075693 
L 328.40663 303.075693 
L 328.40663 302.69882 
L 329.259275 302.69882 
L 329.259275 302.32197 
L 330.111922 302.32197 
L 330.111922 301.103623 
L 330.964569 301.103623 
L 330.964569 300.897123 
L 331.817216 300.897123 
L 331.817216 300.003998 
L 332.669861 300.003998 
L 332.669861 299.415489 
L 333.522508 299.415489 
L 333.522508 299.167682 
L 334.375154 299.167682 
L 334.375154 297.90288 
L 335.227801 297.90288 
L 335.227801 296.761961 
L 336.080447 296.761961 
L 336.080447 296.581283 
L 336.933094 296.581283 
L 336.933094 294.820864 
L 337.78574 294.820864 
L 337.78574 294.051664 
L 338.638387 294.051664 
L 338.638387 292.533881 
L 339.491033 292.533881 
L 339.491033 290.871565 
L 340.34368 290.871565 
L 340.34368 288.290317 
L 341.196326 288.290317 
L 341.196326 285.063765 
L 342.048973 285.063765 
L 342.048973 278.187326 
L 342.901619 278.187326 
L 342.901619 155.196181 
L 343.754265 155.196181 
L 343.754265 269.94283 
L 344.606912 269.94283 
L 344.606912 282.885194 
L 345.459558 282.885194 
L 345.459558 287.25266 
L 346.312205 287.25266 
L 346.312205 290.019755 
L 347.164851 290.019755 
L 347.164851 292.373843 
L 348.017498 292.373843 
L 348.017498 294.056827 
L 348.870144 294.056827 
L 348.870144 294.774402 
L 349.722791 294.774402 
L 349.722791 296.07535 
L 350.575437 296.07535 
L 350.575437 297.082045 
L 351.428084 297.082045 
L 351.428084 297.56731 
L 352.28073 297.56731 
L 352.28073 298.517216 
L 353.133377 298.517216 
L 353.133377 299.183169 
L 353.986023 299.183169 
L 353.986023 300.04015 
L 354.83867 300.04015 
L 354.83867 300.453149 
L 355.691316 300.453149 
L 355.691316 301.093285 
L 356.543962 301.093285 
L 356.543962 301.671496 
L 357.396609 301.671496 
L 357.396609 302.23937 
L 358.249256 302.23937 
L 358.249256 302.466508 
L 359.101901 302.466508 
L 359.101901 303.426742 
L 359.954548 303.426742 
L 359.954548 303.540317 
L 360.807195 303.540317 
L 360.807195 303.968794 
L 361.65984 303.968794 
L 361.65984 304.753501 
L 363.365134 304.763826 
L 363.365134 305.104543 
L 364.21778 305.104543 
L 364.21778 305.223288 
L 365.070426 305.223288 
L 365.070426 305.625962 
L 365.923073 305.625962 
L 365.923073 305.765349 
L 366.77572 305.765349 
L 366.77572 306.291923 
L 368.481014 306.281598 
L 368.481014 306.839136 
L 370.186305 306.766871 
L 370.186305 307.128246 
L 371.038952 307.128246 
L 371.038952 307.30377 
L 371.891598 307.30377 
L 371.891598 307.598032 
L 372.744245 307.598032 
L 372.744245 307.814856 
L 373.596892 307.814856 
L 373.596892 307.701282 
L 374.449539 307.701282 
L 374.449539 307.969724 
L 375.302183 307.969724 
L 375.302183 308.217531 
L 376.15483 308.217531 
L 376.15483 308.367243 
L 379.565417 308.429193 
L 379.565417 308.52728 
L 380.418064 308.52728 
L 380.418064 308.738937 
L 382.123355 308.759592 
L 382.123355 309.012554 
L 383.828649 309.084828 
L 383.828649 309.131291 
L 384.681296 309.131291 
L 384.681296 309.27584 
L 386.386589 309.342953 
L 386.386589 309.42039 
L 389.797172 309.528797 
L 389.797172 309.539127 
L 390.649818 309.539127 
L 390.649818 309.730139 
L 394.913052 309.833389 
L 394.913052 309.890177 
L 398.32364 309.941801 
L 398.32364 310.003751 
L 402.586869 310.055376 
L 402.586869 310.127651 
L 408.555396 310.153463 
L 408.555396 310.292851 
L 429.871557 310.365125 
L 429.871557 310.406426 
L 494.672685 310.494187 
L 494.672685 310.52 
L 577 310.514838 
L 577 310.514838 
" clip-path="url(#pe0da0c7701)" style="fill: none; opacity: 0.8; stroke: #ff0000; stroke-width: 3; stroke-linejoin: miter"/>
   </g>
   <g id="patch_4">
    <path d="M 184.972857 310.52 
L 184.972857 310.49833 
L 283.69461 310.389983 
L 283.69461 310.379147 
L 295.476215 310.314137 
L 295.476215 310.238293 
L 299.538839 310.205792 
L 299.538839 310.08661 
L 302.788938 310.140784 
L 302.788938 309.945758 
L 305.226512 310.010764 
L 305.226512 309.761563 
L 305.632774 309.761563 
L 305.632774 309.967424 
L 306.851561 309.869911 
L 306.851561 309.837406 
L 307.257823 309.837406 
L 307.257823 309.577371 
L 307.664086 309.577371 
L 307.664086 309.783232 
L 308.882873 309.761563 
L 308.882873 309.523197 
L 309.289135 309.523197 
L 309.289135 309.772398 
L 309.695397 309.772398 
L 309.695397 309.588206 
L 310.10166 309.588206 
L 310.10166 309.393179 
L 310.507922 309.393179 
L 310.507922 309.588206 
L 310.914184 309.588206 
L 310.914184 309.404014 
L 312.132972 309.382344 
L 312.132972 309.230657 
L 312.945496 309.143978 
L 312.945496 309.523197 
L 313.351759 309.523197 
L 313.351759 309.371509 
L 314.164283 309.34984 
L 314.164283 309.046465 
L 314.570546 309.046465 
L 314.570546 308.905612 
L 315.789333 308.992291 
L 315.789333 308.732255 
L 316.601857 308.688916 
L 316.601857 308.374706 
L 317.00812 308.374706 
L 317.00812 308.558898 
L 317.414382 308.558898 
L 317.414382 308.407211 
L 317.820644 308.407211 
L 317.820644 308.179679 
L 318.226907 308.179679 
L 318.226907 308.027992 
L 320.258218 307.941313 
L 320.258218 307.648773 
L 320.664481 307.648773 
L 320.664481 307.074528 
L 321.070743 307.074528 
L 321.070743 307.312894 
L 321.477005 307.312894 
L 321.477005 307.182876 
L 322.28953 307.107032 
L 322.28953 306.67364 
L 322.695793 306.67364 
L 322.695793 306.955345 
L 323.102055 306.955345 
L 323.102055 306.121064 
L 323.508317 306.121064 
L 323.508317 306.316091 
L 323.91458 306.316091 
L 323.91458 306.110229 
L 324.727104 306.121064 
L 324.727104 305.590158 
L 325.539629 305.611828 
L 325.539629 305.362627 
L 325.945891 305.362627 
L 325.945891 304.950904 
L 326.352154 304.950904 
L 326.352154 304.419998 
L 327.570941 304.322484 
L 327.570941 303.878257 
L 327.977203 303.878257 
L 327.977203 303.564047 
L 328.383465 303.564047 
L 328.383465 302.816444 
L 328.789728 302.816444 
L 328.789728 302.437226 
L 329.19599 302.437226 
L 329.19599 301.873815 
L 330.008515 301.841311 
L 330.008515 300.530298 
L 330.414777 300.530298 
L 330.414777 300.746994 
L 330.821039 300.746994 
L 330.821039 300.096905 
L 331.227302 300.096905 
L 331.227302 299.468486 
L 331.633564 299.468486 
L 331.633564 298.883406 
L 332.039826 298.883406 
L 332.039826 298.3525 
L 332.446089 298.3525 
L 332.446089 297.843263 
L 333.258614 297.789089 
L 333.258614 297.052321 
L 333.664876 297.052321 
L 333.664876 296.878964 
L 334.071138 296.878964 
L 334.071138 295.437934 
L 334.477401 295.437934 
L 334.477401 294.430295 
L 334.883663 294.430295 
L 334.883663 293.422657 
L 335.289925 293.422657 
L 335.289925 292.35001 
L 335.696188 292.35001 
L 335.696188 292.794238 
L 336.10245 292.794238 
L 336.10245 291.678252 
L 336.508712 291.678252 
L 336.508712 289.912176 
L 336.914975 289.912176 
L 336.914975 289.240418 
L 337.727499 289.175409 
L 337.727499 288.48198 
L 338.133762 288.48198 
L 338.133762 287.170967 
L 338.946286 287.095124 
L 338.946286 286.054981 
L 339.352549 286.054981 
L 339.352549 284.678959 
L 339.758811 284.678959 
L 339.758811 283.617147 
L 340.165073 283.617147 
L 340.165073 283.302938 
L 340.571336 283.302938 
L 340.571336 282.728692 
L 341.38386 282.761197 
L 341.38386 282.067768 
L 341.790123 282.067768 
L 341.790123 280.897608 
L 342.196385 280.897608 
L 342.196385 280.301693 
L 342.602647 280.301693 
L 342.602647 280.875938 
L 343.00891 280.875938 
L 343.00891 278.882332 
L 343.415172 278.882332 
L 343.415172 17.644038 
L 343.821435 17.644038 
L 343.821435 279.781622 
L 344.227697 279.781622 
L 344.227697 280.247519 
L 344.633959 280.247519 
L 344.633959 280.919278 
L 345.040222 280.919278 
L 345.040222 281.135974 
L 345.852746 281.200983 
L 345.852746 281.677715 
L 346.259009 281.677715 
L 346.259009 282.967058 
L 346.665271 282.967058 
L 346.665271 283.812174 
L 347.071533 283.812174 
L 347.071533 284.743968 
L 347.477796 284.743968 
L 347.477796 284.158888 
L 347.884058 284.158888 
L 347.884058 284.92816 
L 348.29032 284.92816 
L 348.29032 286.087486 
L 348.696583 286.087486 
L 348.696583 286.564218 
L 349.102845 286.564218 
L 349.102845 287.680204 
L 349.509107 287.680204 
L 349.509107 288.135266 
L 349.91537 288.135266 
L 349.91537 289.532958 
L 350.321632 289.532958 
L 350.321632 289.814663 
L 350.727894 289.814663 
L 350.727894 290.789797 
L 351.540419 290.876475 
L 351.540419 292.458359 
L 351.946681 292.458359 
L 351.946681 292.913421 
L 352.352944 292.913421 
L 352.352944 294.343617 
L 352.759206 294.343617 
L 352.759206 294.657827 
L 353.165468 294.657827 
L 353.165468 295.058715 
L 353.571731 295.058715 
L 353.571731 296.51058 
L 353.977993 296.51058 
L 353.977993 296.965643 
L 354.384256 296.965643 
L 354.384256 297.637402 
L 354.790518 297.637402 
L 354.790518 298.970084 
L 355.19678 298.970084 
L 355.19678 299.468486 
L 355.603043 299.468486 
L 355.603043 299.609338 
L 356.415567 299.706852 
L 356.415567 300.660316 
L 356.82183 300.660316 
L 356.82183 301.137048 
L 357.228092 301.137048 
L 357.228092 301.429588 
L 357.634354 301.429588 
L 357.634354 301.971329 
L 358.040617 301.971329 
L 358.040617 302.372217 
L 358.446879 302.372217 
L 358.446879 302.567244 
L 358.853141 302.567244 
L 358.853141 303.09815 
L 359.665666 303.011471 
L 359.665666 303.845752 
L 360.478191 303.856587 
L 360.478191 304.474172 
L 360.884453 304.474172 
L 360.884453 304.593355 
L 361.290715 304.593355 
L 361.290715 304.799216 
L 361.696978 304.799216 
L 361.696978 305.503479 
L 362.509502 305.525149 
L 362.509502 305.720176 
L 362.915765 305.720176 
L 362.915765 306.153568 
L 363.322027 306.153568 
L 363.322027 306.435274 
L 364.134552 306.500283 
L 364.134552 306.554457 
L 364.540814 306.554457 
L 364.540814 306.760318 
L 365.353339 306.716979 
L 365.353339 307.052858 
L 365.759601 307.052858 
L 365.759601 307.215381 
L 366.572126 307.312894 
L 366.572126 307.486251 
L 366.978388 307.486251 
L 366.978388 307.735452 
L 368.197175 307.789626 
L 368.197175 308.15801 
L 368.603438 308.15801 
L 368.603438 308.298862 
L 369.0097 308.298862 
L 369.0097 308.168845 
L 369.822225 308.179679 
L 369.822225 308.72142 
L 370.228487 308.72142 
L 370.228487 308.493889 
L 371.041012 308.569733 
L 371.041012 308.688916 
L 371.447274 308.688916 
L 371.447274 308.873108 
L 371.853536 308.873108 
L 371.853536 308.732255 
L 372.259799 308.732255 
L 372.259799 308.883943 
L 372.666061 308.883943 
L 372.666061 309.01396 
L 373.072323 309.01396 
L 373.072323 308.883943 
L 373.478586 308.883943 
L 373.478586 309.165648 
L 373.884848 309.165648 
L 373.884848 309.317335 
L 374.697373 309.252326 
L 374.697373 309.458188 
L 375.103635 309.458188 
L 375.103635 309.273996 
L 375.509898 309.273996 
L 375.509898 309.447353 
L 375.91616 309.447353 
L 375.91616 309.772398 
L 376.322422 309.772398 
L 376.322422 309.544866 
L 377.947472 309.62071 
L 377.947472 309.674884 
L 378.759996 309.631545 
L 378.759996 309.794067 
L 381.19757 309.837406 
L 381.19757 309.978259 
L 382.82262 310.021598 
L 382.82262 310.119112 
L 383.228882 310.119112 
L 383.228882 309.978256 
L 384.041407 309.989097 
L 384.041407 310.119114 
L 386.478981 310.09744 
L 386.478981 309.934916 
L 386.885241 309.934916 
L 386.885241 310.184123 
L 391.760389 310.292467 
L 391.760389 310.357479 
L 392.166654 310.357479 
L 392.166654 310.216627 
L 393.791703 310.31414 
L 393.791703 310.335809 
L 408.417148 310.422487 
L 408.417148 310.465826 
L 577 310.52 
L 577 310.52 
" clip-path="url(#pe0da0c7701)" style="fill: none; opacity: 0.75; stroke: #0000ff; stroke-width: 1.5; stroke-linejoin: miter"/>
   </g>
   <g id="patch_5">
    <path d="M 89.359615 310.52 
L 89.359615 3.00024 
" style="fill: none; stroke: #000000; stroke-width: 2.5; stroke-linejoin: miter; stroke-linecap: square"/>
   </g>
   <g id="patch_6">
    <path d="M 572.442024 310.52 
L 572.442024 3.00024 
" style="fill: none; stroke: #000000; stroke-width: 2.5; stroke-linejoin: miter; stroke-linecap: square"/>
   </g>
   <g id="patch_7">
    <path d="M 89.359615 310.52 
L 572.442024 310.52 
" style="fill: none; stroke: #000000; stroke-width: 2.5; stroke-linejoin: miter; stroke-linecap: square"/>
   </g>
   <g id="patch_8">
    <path d="M 89.359615 3.00024 
L 572.442024 3.00024 
" style="fill: none; stroke: #000000; stroke-width: 2.5; stroke-linejoin: miter; stroke-linecap: square"/>
   </g>
   <g id="legend_1">
    <g id="patch_9">
     <path d="M 361.38218 87.451178 
L 567.042024 87.451178 
Q 572.442024 87.451178 572.442024 82.051178 
L 572.442024 8.40024 
Q 572.442024 3.00024 567.042024 3.00024 
L 361.38218 3.00024 
Q 355.98218 3.00024 355.98218 8.40024 
L 355.98218 82.051178 
Q 355.98218 87.451178 361.38218 87.451178 
z
" style="fill: #ffffff; opacity: 0.8; stroke: #000000; stroke-linejoin: miter"/>
    </g>
    <g id="patch_10">
     <path d="M 366.78218 32.70024 
L 420.78218 32.70024 
L 420.78218 13.80024 
L 366.78218 13.80024 
L 366.78218 32.70024 
z
" style="fill: none; opacity: 0.8; stroke: #ff0000; stroke-width: 3; stroke-linejoin: miter"/>
    </g>
    <g id="text_12">
     <!-- Round 1 -->
     <g transform="translate(442.38218 32.70024)scale(0.27 -0.27)">
      <defs>
       <path id="TimesNewRomanPSMT-52" d="M 4325 0 
L 3194 0 
L 1759 1981 
Q 1600 1975 1500 1975 
Q 1459 1975 1412 1976 
Q 1366 1978 1316 1981 
L 1316 750 
Q 1316 350 1403 253 
Q 1522 116 1759 116 
L 1925 116 
L 1925 0 
L 109 0 
L 109 116 
L 269 116 
Q 538 116 653 291 
Q 719 388 719 750 
L 719 3488 
Q 719 3888 631 3984 
Q 509 4122 269 4122 
L 109 4122 
L 109 4238 
L 1653 4238 
Q 2328 4238 2648 4139 
Q 2969 4041 3192 3777 
Q 3416 3513 3416 3147 
Q 3416 2756 3161 2468 
Q 2906 2181 2372 2063 
L 3247 847 
Q 3547 428 3762 290 
Q 3978 153 4325 116 
L 4325 0 
z
M 1316 2178 
Q 1375 2178 1419 2176 
Q 1463 2175 1491 2175 
Q 2097 2175 2405 2437 
Q 2713 2700 2713 3106 
Q 2713 3503 2464 3751 
Q 2216 4000 1806 4000 
Q 1625 4000 1316 3941 
L 1316 2178 
z
" transform="scale(0.015625)"/>
       <path id="TimesNewRomanPSMT-6f" d="M 1600 2947 
Q 2250 2947 2644 2453 
Q 2978 2031 2978 1484 
Q 2978 1100 2793 706 
Q 2609 313 2286 112 
Q 1963 -88 1566 -88 
Q 919 -88 538 428 
Q 216 863 216 1403 
Q 216 1797 411 2186 
Q 606 2575 925 2761 
Q 1244 2947 1600 2947 
z
M 1503 2744 
Q 1338 2744 1170 2645 
Q 1003 2547 900 2300 
Q 797 2053 797 1666 
Q 797 1041 1045 587 
Q 1294 134 1700 134 
Q 2003 134 2200 384 
Q 2397 634 2397 1244 
Q 2397 2006 2069 2444 
Q 1847 2744 1503 2744 
z
" transform="scale(0.015625)"/>
       <path id="TimesNewRomanPSMT-75" d="M 2709 2863 
L 2709 1128 
Q 2709 631 2732 520 
Q 2756 409 2807 365 
Q 2859 322 2928 322 
Q 3025 322 3147 375 
L 3191 266 
L 2334 -88 
L 2194 -88 
L 2194 519 
Q 1825 119 1631 15 
Q 1438 -88 1222 -88 
Q 981 -88 804 51 
Q 628 191 559 409 
Q 491 628 491 1028 
L 491 2306 
Q 491 2509 447 2587 
Q 403 2666 317 2708 
Q 231 2750 6 2747 
L 6 2863 
L 1009 2863 
L 1009 947 
Q 1009 547 1148 422 
Q 1288 297 1484 297 
Q 1619 297 1789 381 
Q 1959 466 2194 703 
L 2194 2325 
Q 2194 2569 2105 2655 
Q 2016 2741 1734 2747 
L 1734 2863 
L 2709 2863 
z
" transform="scale(0.015625)"/>
       <path id="TimesNewRomanPSMT-6e" d="M 1034 2341 
Q 1538 2947 1994 2947 
Q 2228 2947 2397 2830 
Q 2566 2713 2666 2444 
Q 2734 2256 2734 1869 
L 2734 647 
Q 2734 375 2778 278 
Q 2813 200 2889 156 
Q 2966 113 3172 113 
L 3172 0 
L 1756 0 
L 1756 113 
L 1816 113 
Q 2016 113 2095 173 
Q 2175 234 2206 353 
Q 2219 400 2219 647 
L 2219 1819 
Q 2219 2209 2117 2386 
Q 2016 2563 1775 2563 
Q 1403 2563 1034 2156 
L 1034 647 
Q 1034 356 1069 288 
Q 1113 197 1189 155 
Q 1266 113 1500 113 
L 1500 0 
L 84 0 
L 84 113 
L 147 113 
Q 366 113 442 223 
Q 519 334 519 647 
L 519 1709 
Q 519 2225 495 2337 
Q 472 2450 423 2490 
Q 375 2531 294 2531 
Q 206 2531 84 2484 
L 38 2597 
L 900 2947 
L 1034 2947 
L 1034 2341 
z
" transform="scale(0.015625)"/>
       <path id="TimesNewRomanPSMT-64" d="M 2222 322 
Q 2013 103 1813 7 
Q 1613 -88 1381 -88 
Q 913 -88 563 304 
Q 213 697 213 1313 
Q 213 1928 600 2439 
Q 988 2950 1597 2950 
Q 1975 2950 2222 2709 
L 2222 3238 
Q 2222 3728 2198 3840 
Q 2175 3953 2125 3993 
Q 2075 4034 2000 4034 
Q 1919 4034 1784 3984 
L 1744 4094 
L 2597 4444 
L 2738 4444 
L 2738 1134 
Q 2738 631 2761 520 
Q 2784 409 2836 365 
Q 2888 322 2956 322 
Q 3041 322 3181 375 
L 3216 266 
L 2366 -88 
L 2222 -88 
L 2222 322 
z
M 2222 541 
L 2222 2016 
Q 2203 2228 2109 2403 
Q 2016 2578 1861 2667 
Q 1706 2756 1559 2756 
Q 1284 2756 1069 2509 
Q 784 2184 784 1559 
Q 784 928 1059 592 
Q 1334 256 1672 256 
Q 1956 256 2222 541 
z
" transform="scale(0.015625)"/>
       <path id="TimesNewRomanPSMT-20" transform="scale(0.015625)"/>
       <path id="TimesNewRomanPSMT-31" d="M 750 3822 
L 1781 4325 
L 1884 4325 
L 1884 747 
Q 1884 391 1914 303 
Q 1944 216 2037 169 
Q 2131 122 2419 116 
L 2419 0 
L 825 0 
L 825 116 
Q 1125 122 1212 167 
Q 1300 213 1334 289 
Q 1369 366 1369 747 
L 1369 3034 
Q 1369 3497 1338 3628 
Q 1316 3728 1258 3775 
Q 1200 3822 1119 3822 
Q 1003 3822 797 3725 
L 750 3822 
z
" transform="scale(0.015625)"/>
      </defs>
      <use xlink:href="#TimesNewRomanPSMT-52"/>
      <use xlink:href="#TimesNewRomanPSMT-6f" x="66.699219"/>
      <use xlink:href="#TimesNewRomanPSMT-75" x="116.699219"/>
      <use xlink:href="#TimesNewRomanPSMT-6e" x="166.699219"/>
      <use xlink:href="#TimesNewRomanPSMT-64" x="216.699219"/>
      <use xlink:href="#TimesNewRomanPSMT-20" x="266.699219"/>
      <use xlink:href="#TimesNewRomanPSMT-31" x="291.699219"/>
     </g>
    </g>
    <g id="patch_11">
     <path d="M 366.78218 70.875709 
L 420.78218 70.875709 
L 420.78218 51.975709 
L 366.78218 51.975709 
L 366.78218 70.875709 
z
" style="fill: none; opacity: 0.75; stroke: #0000ff; stroke-width: 1.5; stroke-linejoin: miter"/>
    </g>
    <g id="text_13">
     <!-- Round 100 -->
     <g transform="translate(442.38218 70.875709)scale(0.27 -0.27)">
      <use xlink:href="#TimesNewRomanPSMT-52"/>
      <use xlink:href="#TimesNewRomanPSMT-6f" x="66.699219"/>
      <use xlink:href="#TimesNewRomanPSMT-75" x="116.699219"/>
      <use xlink:href="#TimesNewRomanPSMT-6e" x="166.699219"/>
      <use xlink:href="#TimesNewRomanPSMT-64" x="216.699219"/>
      <use xlink:href="#TimesNewRomanPSMT-20" x="266.699219"/>
      <use xlink:href="#TimesNewRomanPSMT-31" x="291.699219"/>
      <use xlink:href="#TimesNewRomanPSMT-30" x="341.699219"/>
      <use xlink:href="#TimesNewRomanPSMT-30" x="391.699219"/>
     </g>
    </g>
   </g>
  </g>
  <g id="axes_2">
   <g id="patch_12">
    <path d="M 89.359615 655.988197 
L 572.442024 655.988197 
L 572.442024 348.468438 
L 89.359615 348.468438 
z
" style="fill: #ffffff"/>
   </g>
   <g id="matplotlib.axis_3">
    <g id="xtick_6">
     <g id="line2d_31">
      <path d="M 140.210395 655.988197 
L 140.210395 348.468438 
" clip-path="url(#pf30f01ada8)" style="fill: none; stroke-dasharray: 2.5,5; stroke-dashoffset: 0; stroke: #b0b0b0; stroke-width: 0.5"/>
     </g>
     <g id="line2d_32">
      <g>
       <use xlink:href="#m44bb0df331" x="140.210395" y="655.988197" style="stroke: #000000; stroke-width: 3"/>
      </g>
     </g>
     <g id="line2d_33">
      <g>
       <use xlink:href="#m42cfe22efb" x="140.210395" y="348.468438" style="stroke: #000000; stroke-width: 3"/>
      </g>
     </g>
     <g id="text_14">
      <!-- −0.08 -->
      <g transform="translate(105.501801 680.319448)scale(0.3 -0.3)">
       <use xlink:href="#TimesNewRomanPSMT-2212"/>
       <use xlink:href="#TimesNewRomanPSMT-30" x="56.396484"/>
       <use xlink:href="#TimesNewRomanPSMT-2e" x="106.396484"/>
       <use xlink:href="#TimesNewRomanPSMT-30" x="131.396484"/>
       <use xlink:href="#TimesNewRomanPSMT-38" x="181.396484"/>
      </g>
     </g>
    </g>
    <g id="xtick_7">
     <g id="line2d_34">
      <path d="M 241.911955 655.988197 
L 241.911955 348.468438 
" clip-path="url(#pf30f01ada8)" style="fill: none; stroke-dasharray: 2.5,5; stroke-dashoffset: 0; stroke: #b0b0b0; stroke-width: 0.5"/>
     </g>
     <g id="line2d_35">
      <g>
       <use xlink:href="#m44bb0df331" x="241.911955" y="655.988197" style="stroke: #000000; stroke-width: 3"/>
      </g>
     </g>
     <g id="line2d_36">
      <g>
       <use xlink:href="#m42cfe22efb" x="241.911955" y="348.468438" style="stroke: #000000; stroke-width: 3"/>
      </g>
     </g>
     <g id="text_15">
      <!-- −0.04 -->
      <g transform="translate(207.203361 680.319448)scale(0.3 -0.3)">
       <use xlink:href="#TimesNewRomanPSMT-2212"/>
       <use xlink:href="#TimesNewRomanPSMT-30" x="56.396484"/>
       <use xlink:href="#TimesNewRomanPSMT-2e" x="106.396484"/>
       <use xlink:href="#TimesNewRomanPSMT-30" x="131.396484"/>
       <use xlink:href="#TimesNewRomanPSMT-34" x="181.396484"/>
      </g>
     </g>
    </g>
    <g id="xtick_8">
     <g id="line2d_37">
      <path d="M 343.613514 655.988197 
L 343.613514 348.468438 
" clip-path="url(#pf30f01ada8)" style="fill: none; stroke-dasharray: 2.5,5; stroke-dashoffset: 0; stroke: #b0b0b0; stroke-width: 0.5"/>
     </g>
     <g id="line2d_38">
      <g>
       <use xlink:href="#m44bb0df331" x="343.613514" y="655.988197" style="stroke: #000000; stroke-width: 3"/>
      </g>
     </g>
     <g id="line2d_39">
      <g>
       <use xlink:href="#m42cfe22efb" x="343.613514" y="348.468438" style="stroke: #000000; stroke-width: 3"/>
      </g>
     </g>
     <g id="text_16">
      <!-- 0.00 -->
      <g transform="translate(317.363514 680.319448)scale(0.3 -0.3)">
       <use xlink:href="#TimesNewRomanPSMT-30"/>
       <use xlink:href="#TimesNewRomanPSMT-2e" x="50"/>
       <use xlink:href="#TimesNewRomanPSMT-30" x="75"/>
       <use xlink:href="#TimesNewRomanPSMT-30" x="125"/>
      </g>
     </g>
    </g>
    <g id="xtick_9">
     <g id="line2d_40">
      <path d="M 445.315074 655.988197 
L 445.315074 348.468438 
" clip-path="url(#pf30f01ada8)" style="fill: none; stroke-dasharray: 2.5,5; stroke-dashoffset: 0; stroke: #b0b0b0; stroke-width: 0.5"/>
     </g>
     <g id="line2d_41">
      <g>
       <use xlink:href="#m44bb0df331" x="445.315074" y="655.988197" style="stroke: #000000; stroke-width: 3"/>
      </g>
     </g>
     <g id="line2d_42">
      <g>
       <use xlink:href="#m42cfe22efb" x="445.315074" y="348.468438" style="stroke: #000000; stroke-width: 3"/>
      </g>
     </g>
     <g id="text_17">
      <!-- 0.04 -->
      <g transform="translate(419.065074 680.319448)scale(0.3 -0.3)">
       <use xlink:href="#TimesNewRomanPSMT-30"/>
       <use xlink:href="#TimesNewRomanPSMT-2e" x="50"/>
       <use xlink:href="#TimesNewRomanPSMT-30" x="75"/>
       <use xlink:href="#TimesNewRomanPSMT-34" x="125"/>
      </g>
     </g>
    </g>
    <g id="xtick_10">
     <g id="line2d_43">
      <path d="M 547.016634 655.988197 
L 547.016634 348.468438 
" clip-path="url(#pf30f01ada8)" style="fill: none; stroke-dasharray: 2.5,5; stroke-dashoffset: 0; stroke: #b0b0b0; stroke-width: 0.5"/>
     </g>
     <g id="line2d_44">
      <g>
       <use xlink:href="#m44bb0df331" x="547.016634" y="655.988197" style="stroke: #000000; stroke-width: 3"/>
      </g>
     </g>
     <g id="line2d_45">
      <g>
       <use xlink:href="#m42cfe22efb" x="547.016634" y="348.468438" style="stroke: #000000; stroke-width: 3"/>
      </g>
     </g>
     <g id="text_18">
      <!-- 0.08 -->
      <g transform="translate(520.766634 680.319448)scale(0.3 -0.3)">
       <use xlink:href="#TimesNewRomanPSMT-30"/>
       <use xlink:href="#TimesNewRomanPSMT-2e" x="50"/>
       <use xlink:href="#TimesNewRomanPSMT-30" x="75"/>
       <use xlink:href="#TimesNewRomanPSMT-38" x="125"/>
      </g>
     </g>
    </g>
    <g id="text_19">
     <!-- 值 -->
     <g transform="translate(316.900819 712.18726)scale(0.28 -0.28)">
      <defs>
       <path id="UNAVAILABLE-503c" d="M 2003 4422 
Q 1788 3978 1375 3275 
L 1572 3150 
Q 1609 3122 1612 3111 
Q 1616 3100 1544 3041 
L 1391 2913 
L 1391 -166 
L 1431 -850 
Q 1313 -975 988 -1078 
L 1038 -138 
L 1038 2738 
Q 788 2406 622 2197 
Q 456 1988 138 1631 
L 75 1681 
Q 238 1906 389 2132 
Q 541 2359 794 2826 
Q 1047 3294 1158 3539 
Q 1269 3784 1431 4200 
Q 1594 4616 1634 4772 
L 1675 4925 
L 2175 4634 
Q 2275 4575 2270 4556 
Q 2266 4538 2194 4506 
L 2003 4422 
z
M 1438 -531 
L 1806 -544 
L 2500 -544 
L 2500 2494 
L 2463 3353 
L 3003 3097 
L 3494 3097 
L 3525 3863 
L 2613 3863 
Q 2353 3863 2300 3841 
L 2103 3772 
L 1834 4022 
L 2169 4006 
L 3531 4006 
L 3563 4497 
Q 3563 4678 3563 4719 
L 3553 4925 
L 4078 4697 
Q 4188 4647 4186 4637 
Q 4184 4628 4091 4566 
L 3944 4469 
L 3909 4006 
L 5128 4006 
L 5472 4409 
L 5847 4053 
Q 5984 3919 5967 3891 
Q 5950 3863 5847 3863 
L 3909 3863 
L 3872 3097 
L 4706 3097 
L 4925 3406 
L 5394 3059 
L 5431 3034 
Q 5434 3025 5378 2984 
L 5188 2841 
L 5188 -544 
L 5369 -544 
L 5694 -144 
L 6156 -559 
Q 6228 -628 6215 -659 
Q 6203 -691 6134 -691 
L 2222 -691 
Q 1972 -691 1744 -781 
L 1438 -531 
z
M 2894 -544 
L 4794 -544 
L 4794 300 
L 2894 300 
L 2894 -544 
z
M 2894 444 
L 4794 444 
L 4794 1175 
L 2894 1175 
L 2894 444 
z
M 2894 1322 
L 4794 1322 
L 4794 2066 
L 2894 2066 
L 2894 1322 
z
M 4794 2209 
L 4794 2950 
L 2894 2950 
L 2894 2209 
L 4794 2209 
z
" transform="scale(0.015625)"/>
      </defs>
      <use xlink:href="#UNAVAILABLE-503c"/>
     </g>
    </g>
   </g>
   <g id="matplotlib.axis_4">
    <g id="ytick_6">
     <g id="line2d_46">
      <path d="M 89.359615 655.988197 
L 572.442024 655.988197 
" clip-path="url(#pf30f01ada8)" style="fill: none; stroke-dasharray: 2.5,5; stroke-dashoffset: 0; stroke: #b0b0b0; stroke-width: 0.5"/>
     </g>
     <g id="line2d_47">
      <g>
       <use xlink:href="#m8dcd4058e4" x="89.359615" y="655.988197" style="stroke: #000000; stroke-width: 3"/>
      </g>
     </g>
     <g id="line2d_48">
      <g>
       <use xlink:href="#m546f86d42f" x="572.442024" y="655.988197" style="stroke: #000000; stroke-width: 3"/>
      </g>
     </g>
     <g id="text_20">
      <!-- 0.00 -->
      <g transform="translate(33.359615 666.403823)scale(0.3 -0.3)">
       <use xlink:href="#TimesNewRomanPSMT-30"/>
       <use xlink:href="#TimesNewRomanPSMT-2e" x="50"/>
       <use xlink:href="#TimesNewRomanPSMT-30" x="75"/>
       <use xlink:href="#TimesNewRomanPSMT-30" x="125"/>
      </g>
     </g>
    </g>
    <g id="ytick_7">
     <g id="line2d_49">
      <path d="M 89.359615 582.769207 
L 572.442024 582.769207 
" clip-path="url(#pf30f01ada8)" style="fill: none; stroke-dasharray: 2.5,5; stroke-dashoffset: 0; stroke: #b0b0b0; stroke-width: 0.5"/>
     </g>
     <g id="line2d_50">
      <g>
       <use xlink:href="#m8dcd4058e4" x="89.359615" y="582.769207" style="stroke: #000000; stroke-width: 3"/>
      </g>
     </g>
     <g id="line2d_51">
      <g>
       <use xlink:href="#m546f86d42f" x="572.442024" y="582.769207" style="stroke: #000000; stroke-width: 3"/>
      </g>
     </g>
     <g id="text_21">
      <!-- 0.25 -->
      <g transform="translate(33.359615 593.184832)scale(0.3 -0.3)">
       <defs>
        <path id="TimesNewRomanPSMT-35" d="M 2778 4238 
L 2534 3706 
L 1259 3706 
L 981 3138 
Q 1809 3016 2294 2522 
Q 2709 2097 2709 1522 
Q 2709 1188 2573 903 
Q 2438 619 2231 419 
Q 2025 219 1772 97 
Q 1413 -75 1034 -75 
Q 653 -75 479 54 
Q 306 184 306 341 
Q 306 428 378 495 
Q 450 563 559 563 
Q 641 563 702 538 
Q 763 513 909 409 
Q 1144 247 1384 247 
Q 1750 247 2026 523 
Q 2303 800 2303 1197 
Q 2303 1581 2056 1914 
Q 1809 2247 1375 2428 
Q 1034 2569 447 2591 
L 1259 4238 
L 2778 4238 
z
" transform="scale(0.015625)"/>
       </defs>
       <use xlink:href="#TimesNewRomanPSMT-30"/>
       <use xlink:href="#TimesNewRomanPSMT-2e" x="50"/>
       <use xlink:href="#TimesNewRomanPSMT-32" x="75"/>
       <use xlink:href="#TimesNewRomanPSMT-35" x="125"/>
      </g>
     </g>
    </g>
    <g id="ytick_8">
     <g id="line2d_52">
      <path d="M 89.359615 509.550217 
L 572.442024 509.550217 
" clip-path="url(#pf30f01ada8)" style="fill: none; stroke-dasharray: 2.5,5; stroke-dashoffset: 0; stroke: #b0b0b0; stroke-width: 0.5"/>
     </g>
     <g id="line2d_53">
      <g>
       <use xlink:href="#m8dcd4058e4" x="89.359615" y="509.550217" style="stroke: #000000; stroke-width: 3"/>
      </g>
     </g>
     <g id="line2d_54">
      <g>
       <use xlink:href="#m546f86d42f" x="572.442024" y="509.550217" style="stroke: #000000; stroke-width: 3"/>
      </g>
     </g>
     <g id="text_22">
      <!-- 0.50 -->
      <g transform="translate(33.359615 519.965842)scale(0.3 -0.3)">
       <use xlink:href="#TimesNewRomanPSMT-30"/>
       <use xlink:href="#TimesNewRomanPSMT-2e" x="50"/>
       <use xlink:href="#TimesNewRomanPSMT-35" x="75"/>
       <use xlink:href="#TimesNewRomanPSMT-30" x="125"/>
      </g>
     </g>
    </g>
    <g id="ytick_9">
     <g id="line2d_55">
      <path d="M 89.359615 436.331226 
L 572.442024 436.331226 
" clip-path="url(#pf30f01ada8)" style="fill: none; stroke-dasharray: 2.5,5; stroke-dashoffset: 0; stroke: #b0b0b0; stroke-width: 0.5"/>
     </g>
     <g id="line2d_56">
      <g>
       <use xlink:href="#m8dcd4058e4" x="89.359615" y="436.331226" style="stroke: #000000; stroke-width: 3"/>
      </g>
     </g>
     <g id="line2d_57">
      <g>
       <use xlink:href="#m546f86d42f" x="572.442024" y="436.331226" style="stroke: #000000; stroke-width: 3"/>
      </g>
     </g>
     <g id="text_23">
      <!-- 0.75 -->
      <g transform="translate(33.359615 446.746851)scale(0.3 -0.3)">
       <defs>
        <path id="TimesNewRomanPSMT-37" d="M 644 4238 
L 2916 4238 
L 2916 4119 
L 1503 -88 
L 1153 -88 
L 2419 3728 
L 1253 3728 
Q 900 3728 750 3644 
Q 488 3500 328 3200 
L 238 3234 
L 644 4238 
z
" transform="scale(0.015625)"/>
       </defs>
       <use xlink:href="#TimesNewRomanPSMT-30"/>
       <use xlink:href="#TimesNewRomanPSMT-2e" x="50"/>
       <use xlink:href="#TimesNewRomanPSMT-37" x="75"/>
       <use xlink:href="#TimesNewRomanPSMT-35" x="125"/>
      </g>
     </g>
    </g>
    <g id="ytick_10">
     <g id="line2d_58">
      <path d="M 89.359615 363.112236 
L 572.442024 363.112236 
" clip-path="url(#pf30f01ada8)" style="fill: none; stroke-dasharray: 2.5,5; stroke-dashoffset: 0; stroke: #b0b0b0; stroke-width: 0.5"/>
     </g>
     <g id="line2d_59">
      <g>
       <use xlink:href="#m8dcd4058e4" x="89.359615" y="363.112236" style="stroke: #000000; stroke-width: 3"/>
      </g>
     </g>
     <g id="line2d_60">
      <g>
       <use xlink:href="#m546f86d42f" x="572.442024" y="363.112236" style="stroke: #000000; stroke-width: 3"/>
      </g>
     </g>
     <g id="text_24">
      <!-- 1.00 -->
      <g transform="translate(33.359615 373.527861)scale(0.3 -0.3)">
       <use xlink:href="#TimesNewRomanPSMT-31"/>
       <use xlink:href="#TimesNewRomanPSMT-2e" x="50"/>
       <use xlink:href="#TimesNewRomanPSMT-30" x="75"/>
       <use xlink:href="#TimesNewRomanPSMT-30" x="125"/>
      </g>
     </g>
    </g>
    <g id="text_25">
     <!-- 概率分布 -->
     <g transform="translate(24.547115 558.228318)rotate(-90)scale(0.28 -0.28)">
      <defs>
       <path id="UNAVAILABLE-5206" d="M 2191 4775 
L 2772 4400 
Q 2791 4384 2789 4362 
Q 2788 4341 2756 4334 
L 2541 4278 
Q 2194 3653 1967 3300 
Q 1741 2947 1461 2620 
Q 1181 2294 1043 2161 
Q 906 2028 667 1833 
Q 428 1638 231 1503 
L 184 1575 
Q 528 1897 750 2130 
Q 972 2363 1295 2869 
Q 1619 3375 1792 3753 
Q 1966 4131 2019 4275 
Q 2072 4419 2191 4775 
z
M 2428 2147 
L 2050 2150 
Q 1763 2150 1522 2044 
L 1338 2309 
L 1697 2297 
L 4119 2297 
L 4344 2553 
L 4747 2247 
Q 4838 2175 4836 2161 
Q 4834 2147 4781 2116 
L 4581 1997 
Q 4525 1272 4490 812 
Q 4456 353 4429 67 
Q 4403 -219 4339 -366 
Q 4275 -513 4131 -648 
Q 3988 -784 3869 -828 
L 3613 -934 
Q 3588 -816 3539 -689 
Q 3491 -563 3384 -498 
Q 3278 -434 3000 -316 
L 2825 -244 
L 2850 -147 
Q 3672 -372 3808 -286 
Q 3944 -200 3983 -100 
Q 4022 0 4069 358 
Q 4116 716 4128 900 
L 4222 2150 
L 2850 2150 
Q 2819 1928 2776 1656 
Q 2734 1384 2651 1078 
Q 2569 772 2444 456 
Q 2319 141 2042 -140 
Q 1766 -422 1491 -580 
Q 1216 -738 1000 -838 
L 731 -959 
L 584 -1028 
L 534 -934 
Q 1178 -594 1511 -273 
Q 1844 47 1967 283 
Q 2091 519 2227 895 
Q 2363 1272 2403 1828 
L 2428 2147 
L 2428 2147 
z
M 3506 4847 
L 4050 4641 
L 4159 4600 
Q 4159 4588 4081 4531 
L 3909 4403 
Q 3969 4194 4017 4066 
Q 4066 3938 4242 3597 
Q 4419 3256 4801 2928 
Q 5184 2600 5511 2472 
Q 5838 2344 6256 2275 
L 6241 2194 
Q 6009 2178 5865 2100 
Q 5722 2022 5556 1828 
Q 4984 2216 4643 2580 
Q 4303 2944 4162 3209 
Q 4022 3475 3947 3653 
Q 3872 3831 3822 3975 
L 3634 4516 
L 3506 4847 
L 3506 4847 
z
" transform="scale(0.015625)"/>
       <path id="UNAVAILABLE-5e03" d="M 203 1425 
Q 1066 2206 1408 2568 
Q 1750 2931 1956 3234 
L 2197 3581 
L 1088 3581 
Q 816 3581 716 3528 
L 584 3466 
L 278 3750 
L 872 3734 
L 2297 3734 
Q 2606 4238 2688 4428 
L 2925 4966 
L 3434 4534 
Q 3475 4497 3469 4473 
Q 3463 4450 3366 4431 
L 3175 4391 
Q 2972 4069 2747 3734 
L 5309 3734 
L 5672 4122 
L 6094 3691 
Q 6128 3650 6129 3615 
Q 6131 3581 6094 3581 
L 2647 3581 
Q 2297 3119 2225 3044 
L 1706 2475 
L 1828 2350 
L 3178 2350 
L 3178 2775 
L 3144 3500 
L 3728 3275 
Q 3816 3241 3828 3222 
Q 3841 3203 3700 3109 
L 3566 3019 
L 3566 2350 
L 4909 2350 
L 5156 2700 
L 5522 2397 
Q 5609 2322 5607 2301 
Q 5606 2281 5541 2228 
L 5388 2103 
L 5388 222 
Q 5388 38 5352 -71 
Q 5316 -181 5223 -253 
Q 5131 -325 4713 -416 
Q 4700 -313 4679 -238 
Q 4659 -163 4579 -70 
Q 4500 22 4044 188 
L 4075 291 
Q 4259 238 4518 183 
Q 4778 128 4859 144 
Q 4944 156 4975 197 
Q 5006 238 5006 372 
L 5006 2197 
L 3566 2197 
L 3566 -109 
L 3609 -878 
Q 3500 -944 3439 -969 
Q 3378 -994 3122 -1059 
L 3178 -150 
L 3178 2197 
L 1788 2197 
L 1788 431 
L 1834 -200 
Q 1794 -241 1753 -270 
Q 1713 -300 1366 -397 
L 1413 341 
L 1413 1447 
L 1366 2163 
Q 853 1738 716 1644 
L 278 1341 
L 203 1425 
z
" transform="scale(0.015625)"/>
      </defs>
      <use xlink:href="#UNAVAILABLE-6982"/>
      <use xlink:href="#UNAVAILABLE-7387" x="100"/>
      <use xlink:href="#UNAVAILABLE-5206" x="200"/>
      <use xlink:href="#UNAVAILABLE-5e03" x="300"/>
     </g>
    </g>
   </g>
   <g id="patch_13">
    <path d="M -1 655.985064 
L 181.751439 655.876952 
L 181.751439 655.873818 
L 205.62554 655.770406 
L 205.62554 655.762572 
L 219.267879 655.65446 
L 219.267879 655.645059 
L 228.646998 655.536947 
L 228.646998 655.527545 
L 237.173457 655.425701 
L 237.173457 655.402198 
L 242.289338 655.309754 
L 242.289338 655.286252 
L 248.25786 655.178139 
L 248.25786 655.160904 
L 252.521099 655.071594 
L 252.521099 655.049658 
L 255.931677 654.969749 
L 255.931677 654.933712 
L 259.342264 654.850669 
L 259.342264 654.809931 
L 262.752851 654.700252 
L 262.752851 654.662648 
L 265.310792 654.573338 
L 265.310792 654.534167 
L 267.868732 654.440156 
L 267.868732 654.397851 
L 269.574026 654.333611 
L 269.574026 654.263103 
L 271.279319 654.208263 
L 271.279319 654.148723 
L 272.984608 654.089183 
L 272.984608 653.981071 
L 273.837255 653.981071 
L 273.837255 653.832221 
L 275.542548 653.755445 
L 275.542548 653.67397 
L 277.247842 653.595627 
L 277.247842 653.517285 
L 278.100489 653.517285 
L 278.100489 653.406039 
L 279.805782 653.315162 
L 279.805782 653.233687 
L 280.658429 653.233687 
L 280.658429 653.11774 
L 282.363723 653.008061 
L 282.363723 652.898382 
L 283.216365 652.898382 
L 283.216365 652.768334 
L 284.069012 652.768334 
L 284.069012 652.633585 
L 284.921658 652.633585 
L 284.921658 652.486302 
L 285.774305 652.486302 
L 285.774305 652.324917 
L 286.626952 652.324917 
L 286.626952 652.182335 
L 287.479599 652.182335 
L 287.479599 652.05072 
L 288.332246 652.05072 
L 288.332246 651.889335 
L 289.184892 651.889335 
L 289.184892 651.712281 
L 290.037539 651.712281 
L 290.037539 651.546196 
L 290.890186 651.546196 
L 290.890186 651.367576 
L 291.742833 651.367576 
L 291.742833 651.16702 
L 292.59548 651.16702 
L 292.59548 650.964897 
L 293.448126 650.964897 
L 293.448126 650.728304 
L 294.300773 650.728304 
L 294.300773 650.505812 
L 295.153415 650.505812 
L 295.153415 650.269219 
L 296.006062 650.269219 
L 296.006062 649.98562 
L 296.858709 649.98562 
L 296.858709 649.680085 
L 297.711356 649.680085 
L 297.711356 649.391786 
L 298.564002 649.391786 
L 298.564002 649.144225 
L 299.416649 649.144225 
L 299.416649 648.86376 
L 300.269296 648.86376 
L 300.269296 648.520621 
L 301.121943 648.520621 
L 301.121943 648.143012 
L 301.97459 648.143012 
L 301.97459 647.751301 
L 302.827236 647.751301 
L 302.827236 647.318852 
L 303.679883 647.318852 
L 303.679883 646.88327 
L 304.532528 646.88327 
L 304.532528 646.408516 
L 305.385174 646.408516 
L 305.385174 645.91496 
L 306.237821 645.91496 
L 306.237821 645.44334 
L 307.090468 645.44334 
L 307.090468 644.915314 
L 307.943115 644.915314 
L 307.943115 644.370053 
L 308.795762 644.370053 
L 308.795762 643.856128 
L 309.648408 643.856128 
L 309.648408 643.235658 
L 310.501053 643.235658 
L 310.501053 642.547814 
L 311.3537 642.547814 
L 311.3537 641.740889 
L 312.206346 641.740889 
L 312.206346 640.990371 
L 313.058993 640.990371 
L 313.058993 640.175612 
L 313.91164 640.175612 
L 313.91164 639.304447 
L 314.764287 639.304447 
L 314.764287 638.422315 
L 315.616934 638.422315 
L 315.616934 637.497877 
L 316.469578 637.497877 
L 316.469578 636.451225 
L 317.322225 636.451225 
L 317.322225 635.374804 
L 318.174872 635.374804 
L 318.174872 634.173035 
L 319.027518 634.173035 
L 319.027518 632.927394 
L 319.880165 632.927394 
L 319.880165 631.614379 
L 320.732812 631.614379 
L 320.732812 630.163482 
L 321.585459 630.163482 
L 321.585459 628.533965 
L 322.438103 628.533965 
L 322.438103 626.901314 
L 323.29075 626.901314 
L 323.29075 625.268663 
L 324.143397 625.268663 
L 324.143397 623.480895 
L 324.996044 623.480895 
L 324.996044 621.616351 
L 325.84869 621.616351 
L 325.84869 619.615491 
L 326.701336 619.615491 
L 326.701336 617.414076 
L 327.553983 617.414076 
L 327.553983 615.154688 
L 328.40663 615.154688 
L 328.40663 612.78092 
L 329.259275 612.78092 
L 329.259275 610.292772 
L 330.111922 610.292772 
L 330.111922 607.43485 
L 330.964569 607.43485 
L 330.964569 604.514253 
L 331.817216 604.514253 
L 331.817216 601.322593 
L 332.669861 601.322593 
L 332.669861 597.952313 
L 333.522508 597.952313 
L 333.522508 594.506824 
L 334.375154 594.506824 
L 334.375154 590.677458 
L 335.227801 590.677458 
L 335.227801 586.50182 
L 336.080447 586.50182 
L 336.080447 582.271342 
L 336.933094 582.271342 
L 336.933094 577.506571 
L 337.78574 577.506571 
L 337.78574 572.50834 
L 338.638387 572.50834 
L 338.638387 567.049457 
L 339.491033 567.049457 
L 339.491033 561.086051 
L 340.34368 561.086051 
L 340.34368 554.339223 
L 341.196326 554.339223 
L 341.196326 546.613117 
L 342.048973 546.613117 
L 342.048973 536.799976 
L 342.901619 536.799976 
L 342.901619 489.658354 
L 343.754265 489.658354 
L 343.754265 477.342964 
L 344.606912 477.342964 
L 344.606912 468.955651 
L 345.459558 468.955651 
L 345.459558 461.893887 
L 346.312205 461.893887 
L 346.312205 455.671951 
L 347.164851 455.671951 
L 347.164851 450.164496 
L 348.017498 450.164496 
L 348.017498 445.167832 
L 348.870144 445.167832 
L 348.870144 440.388959 
L 349.722791 440.388959 
L 349.722791 436.004931 
L 350.575437 436.004931 
L 350.575437 431.926437 
L 351.428084 431.926437 
L 351.428084 427.995227 
L 352.28073 427.995227 
L 352.28073 424.352315 
L 353.133377 424.352315 
L 353.133377 420.911527 
L 353.986023 420.911527 
L 353.986023 417.730835 
L 354.83867 417.730835 
L 354.83867 414.67549 
L 355.691316 414.67549 
L 355.691316 411.814433 
L 356.543962 411.814433 
L 356.543962 409.128864 
L 357.396609 409.128864 
L 357.396609 406.615647 
L 358.249256 406.615647 
L 358.249256 404.171371 
L 359.101901 404.171371 
L 359.101901 402.018528 
L 359.954548 402.018528 
L 359.954548 399.900155 
L 360.807195 399.900155 
L 360.807195 397.911831 
L 361.65984 397.911831 
L 361.65984 396.161666 
L 362.512487 396.161666 
L 362.512487 394.414636 
L 363.365134 394.414636 
L 363.365134 392.771017 
L 364.21778 392.771017 
L 364.21778 391.163436 
L 365.070426 391.163436 
L 365.070426 389.678068 
L 365.923073 389.678068 
L 365.923073 388.235005 
L 366.77572 388.235005 
L 366.77572 386.95176 
L 367.628367 386.95176 
L 367.628367 385.665382 
L 368.481014 385.665382 
L 368.481014 384.548222 
L 369.333658 384.548222 
L 369.333658 383.409127 
L 370.186305 383.409127 
L 370.186305 382.379711 
L 371.038952 382.379711 
L 371.038952 381.403567 
L 371.891598 381.403567 
L 371.891598 380.516734 
L 372.744245 380.516734 
L 372.744245 379.695708 
L 373.596892 379.695708 
L 373.596892 378.840211 
L 374.449539 378.840211 
L 374.449539 378.06619 
L 375.302183 378.06619 
L 375.302183 377.367378 
L 376.15483 377.367378 
L 376.15483 376.714004 
L 377.007477 376.714004 
L 377.007477 376.054363 
L 377.860124 376.054363 
L 377.860124 375.416658 
L 378.71277 375.416658 
L 378.71277 374.782086 
L 379.565417 374.782086 
L 379.565417 374.177285 
L 380.418064 374.177285 
L 380.418064 373.636724 
L 381.270708 373.636724 
L 381.270708 373.10243 
L 382.123355 373.10243 
L 382.123355 372.644912 
L 382.976002 372.644912 
L 382.976002 372.209329 
L 383.828649 372.209329 
L 383.828649 371.787848 
L 384.681296 371.787848 
L 384.681296 371.410239 
L 385.533942 371.410239 
L 385.533942 371.052999 
L 386.386589 371.052999 
L 386.386589 370.719261 
L 387.239236 370.719261 
L 387.239236 370.377689 
L 388.091883 370.377689 
L 388.091883 370.070588 
L 388.94453 370.070588 
L 388.94453 369.769754 
L 389.797172 369.769754 
L 389.797172 369.472054 
L 390.649818 369.472054 
L 390.649818 369.232326 
L 391.502465 369.232326 
L 391.502465 368.987899 
L 392.355112 368.987899 
L 392.355112 368.738771 
L 393.207759 368.738771 
L 393.207759 368.492776 
L 394.060406 368.492776 
L 394.060406 368.284386 
L 394.913052 368.284386 
L 394.913052 368.093231 
L 395.765699 368.093231 
L 395.765699 367.897376 
L 396.618346 367.897376 
L 396.618346 367.704654 
L 397.470993 367.704654 
L 397.470993 367.529168 
L 398.32364 367.529168 
L 398.32364 367.372483 
L 399.176286 367.372483 
L 399.176286 367.19543 
L 400.028933 367.19543 
L 400.028933 367.018377 
L 400.88158 367.018377 
L 400.88158 366.86796 
L 401.734222 366.86796 
L 401.734222 366.726944 
L 402.586869 366.726944 
L 402.586869 366.607864 
L 403.439516 366.607864 
L 403.439516 366.473115 
L 404.292162 366.473115 
L 404.292162 366.360302 
L 405.997456 366.255324 
L 405.997456 366.158179 
L 407.70275 366.068869 
L 407.70275 365.957623 
L 409.408043 365.888682 
L 409.408043 365.80564 
L 411.113337 365.710062 
L 411.113337 365.628586 
L 412.81863 365.556512 
L 412.81863 365.470335 
L 414.523919 365.395127 
L 414.523919 365.326186 
L 416.229213 365.252544 
L 416.229213 365.18517 
L 417.934506 365.122496 
L 417.934506 365.066089 
L 419.6398 364.984614 
L 419.6398 364.929774 
L 422.19774 364.820095 
L 422.19774 364.762122 
L 424.755676 364.663411 
L 424.755676 364.619539 
L 427.313621 364.523962 
L 427.313621 364.484791 
L 429.871557 364.392347 
L 429.871557 364.357876 
L 433.282144 364.273267 
L 433.282144 364.237229 
L 436.692731 364.15262 
L 436.692731 364.119716 
L 440.95596 364.019438 
L 440.95596 364.005336 
L 445.21919 363.908192 
L 445.21919 363.88939 
L 451.187722 363.781278 
L 451.187722 363.773444 
L 458.008887 363.670032 
L 458.008887 363.65593 
L 466.535355 363.552519 
L 466.535355 363.538417 
L 476.767116 363.433439 
L 476.767116 363.427171 
L 496.377978 363.320626 
L 496.377978 363.315925 
L 524.515308 363.210947 
L 524.515308 363.204679 
L 577 363.137305 
L 577 363.137305 
" clip-path="url(#pf30f01ada8)" style="fill: none; opacity: 0.75; stroke: #ff0000; stroke-width: 3; stroke-linejoin: miter"/>
   </g>
   <g id="patch_14">
    <path d="M 184.972857 655.988197 
L 184.972857 655.985064 
L 257.28755 655.875385 
L 257.28755 655.870684 
L 268.662901 655.761005 
L 268.662901 655.756305 
L 276.381883 655.65446 
L 276.381883 655.645059 
L 281.663296 655.544781 
L 281.663296 655.530679 
L 285.319659 655.421 
L 285.319659 655.403765 
L 287.757228 655.298786 
L 287.757228 655.284685 
L 290.194807 655.178139 
L 290.194807 655.154637 
L 292.226117 655.073161 
L 292.226117 655.037123 
L 294.257426 654.927444 
L 294.257426 654.897674 
L 295.882475 654.792696 
L 295.882475 654.745691 
L 297.101265 654.675183 
L 297.101265 654.62661 
L 298.320054 654.5373 
L 298.320054 654.488728 
L 299.538839 654.399418 
L 299.538839 654.336744 
L 300.351364 654.283472 
L 300.351364 654.20983 
L 301.163888 654.159691 
L 301.163888 654.095451 
L 301.976413 654.034344 
L 301.976413 653.965402 
L 302.788938 653.910563 
L 302.788938 653.82752 
L 303.601462 653.739777 
L 303.601462 653.667702 
L 304.413987 653.568991 
L 304.413987 653.498483 
L 305.226512 653.424841 
L 305.226512 653.315162 
L 306.039036 653.235253 
L 306.039036 653.149077 
L 306.851561 653.055066 
L 306.851561 652.956355 
L 307.257823 652.956355 
L 307.257823 652.82004 
L 308.070348 652.713494 
L 308.070348 652.591281 
L 308.882873 652.481602 
L 308.882873 652.337452 
L 309.695397 652.22934 
L 309.695397 652.094591 
L 310.10166 652.094591 
L 310.10166 651.93164 
L 310.507922 651.93164 
L 310.507922 651.796891 
L 310.914184 651.796891 
L 310.914184 651.635506 
L 311.320447 651.635506 
L 311.320447 651.475688 
L 311.726709 651.475688 
L 311.726709 651.31117 
L 312.132972 651.31117 
L 312.132972 651.124715 
L 312.539234 651.124715 
L 312.539234 650.925726 
L 312.945496 650.925726 
L 312.945496 650.781576 
L 313.351759 650.781576 
L 313.351759 650.615491 
L 313.758021 650.615491 
L 313.758021 650.446272 
L 314.164283 650.446272 
L 314.164283 650.233181 
L 314.570546 650.233181 
L 314.570546 649.999721 
L 314.976808 649.999721 
L 314.976808 649.750593 
L 315.38307 649.750593 
L 315.38307 649.529668 
L 315.789333 649.529668 
L 315.789333 649.271139 
L 316.195595 649.271139 
L 316.195595 649.006343 
L 316.601857 649.006343 
L 316.601857 648.696108 
L 317.00812 648.696108 
L 317.00812 648.412509 
L 317.414382 648.412509 
L 317.414382 648.106974 
L 317.820644 648.106974 
L 317.820644 647.768536 
L 318.226907 647.768536 
L 318.226907 647.408162 
L 318.633169 647.408162 
L 318.633169 647.03682 
L 319.039431 647.03682 
L 319.039431 646.67958 
L 319.445694 646.67958 
L 319.445694 646.32234 
L 319.851956 646.32234 
L 319.851956 645.949431 
L 320.258218 645.949431 
L 320.258218 645.534217 
L 320.664481 645.534217 
L 320.664481 645.035961 
L 321.070743 645.035961 
L 321.070743 644.572175 
L 321.477005 644.572175 
L 321.477005 644.089588 
L 321.883268 644.089588 
L 321.883268 643.596032 
L 322.28953 643.596032 
L 322.28953 643.039802 
L 322.695793 643.039802 
L 322.695793 642.524311 
L 323.102055 642.524311 
L 323.102055 641.888172 
L 323.508317 641.888172 
L 323.508317 641.280237 
L 323.91458 641.280237 
L 323.91458 640.642532 
L 324.320842 640.642532 
L 324.320842 640.006393 
L 324.727104 640.006393 
L 324.727104 639.29348 
L 325.133367 639.29348 
L 325.133367 638.583699 
L 325.539629 638.583699 
L 325.539629 637.837882 
L 325.945891 637.837882 
L 325.945891 637.032524 
L 326.352154 637.032524 
L 326.352154 636.150391 
L 326.758416 636.150391 
L 326.758416 635.268258 
L 327.164678 635.268258 
L 327.164678 634.372024 
L 327.570941 634.372024 
L 327.570941 633.411549 
L 327.977203 633.411549 
L 327.977203 632.405635 
L 328.383465 632.405635 
L 328.383465 631.29161 
L 328.789728 631.29161 
L 328.789728 630.122744 
L 329.19599 630.122744 
L 329.19599 628.872403 
L 329.602252 628.872403 
L 329.602252 627.617361 
L 330.008515 627.617361 
L 330.008515 626.172732 
L 330.414777 626.172732 
L 330.414777 624.759439 
L 330.821039 624.759439 
L 330.821039 623.252135 
L 331.227302 623.252135 
L 331.227302 621.653955 
L 331.633564 621.653955 
L 331.633564 619.971165 
L 332.039826 619.971165 
L 332.039826 618.2116 
L 332.446089 618.2116 
L 332.446089 616.378393 
L 332.852351 616.378393 
L 332.852351 614.537352 
L 333.258614 614.537352 
L 333.258614 612.589765 
L 333.664876 612.589765 
L 333.664876 610.617109 
L 334.071138 610.617109 
L 334.071138 608.436063 
L 334.477401 608.436063 
L 334.477401 606.1093 
L 334.883663 606.1093 
L 334.883663 603.636821 
L 335.289925 603.636821 
L 335.289925 601.009224 
L 335.696188 601.009224 
L 335.696188 598.445868 
L 336.10245 598.445868 
L 336.10245 595.721127 
L 336.508712 595.721127 
L 336.508712 592.740991 
L 336.914975 592.740991 
L 336.914975 589.66371 
L 337.321237 589.66371 
L 337.321237 586.577029 
L 337.727499 586.577029 
L 337.727499 583.390069 
L 338.133762 583.390069 
L 338.133762 580.013521 
L 338.540024 580.013521 
L 338.540024 576.626005 
L 338.946286 576.626005 
L 338.946286 573.088072 
L 339.352549 573.088072 
L 339.352549 569.351151 
L 339.758811 569.351151 
L 339.758811 565.460678 
L 340.165073 565.460678 
L 340.165073 561.524767 
L 340.571336 561.524767 
L 340.571336 557.505813 
L 340.977598 557.505813 
L 340.977598 553.49156 
L 341.38386 553.49156 
L 341.38386 549.377029 
L 341.790123 549.377029 
L 341.790123 545.093279 
L 342.196385 545.093279 
L 342.196385 540.723352 
L 342.602647 540.723352 
L 342.602647 536.436468 
L 343.00891 536.436468 
L 343.00891 531.861285 
L 343.415172 531.861285 
L 343.415172 489.507937 
L 343.821435 489.507937 
L 343.821435 485.062802 
L 344.227697 485.062802 
L 344.227697 480.685041 
L 344.633959 480.685041 
L 344.633959 476.404425 
L 345.040222 476.404425 
L 345.040222 472.155145 
L 345.446484 472.155145 
L 345.446484 467.915267 
L 345.852746 467.915267 
L 345.852746 463.744329 
L 346.259009 463.744329 
L 346.259009 459.759846 
L 346.665271 459.759846 
L 346.665271 455.897577 
L 347.071533 455.897577 
L 347.071533 452.170056 
L 347.477796 452.170056 
L 347.477796 448.357925 
L 347.884058 448.357925 
L 347.884058 444.657041 
L 348.29032 444.657041 
L 348.29032 441.123809 
L 348.696583 441.123809 
L 348.696583 437.659518 
L 349.102845 437.659518 
L 349.102845 434.356611 
L 349.509107 434.356611 
L 349.509107 431.119513 
L 349.91537 431.119513 
L 349.91537 428.084537 
L 350.321632 428.084537 
L 350.321632 425.090299 
L 350.727894 425.090299 
L 350.727894 422.237077 
L 351.134157 422.237077 
L 351.134157 419.396389 
L 351.540419 419.396389 
L 351.540419 416.784461 
L 351.946681 416.784461 
L 351.946681 414.23834 
L 352.352944 414.23834 
L 352.352944 411.899043 
L 352.759206 411.899043 
L 352.759206 409.605184 
L 353.165468 409.605184 
L 353.165468 407.369298 
L 353.571731 407.369298 
L 353.571731 405.34337 
L 353.977993 405.34337 
L 353.977993 403.383248 
L 354.384256 403.383248 
L 354.384256 401.520271 
L 354.790518 401.520271 
L 354.790518 399.850016 
L 355.19678 399.850016 
L 355.19678 398.251836 
L 355.603043 398.251836 
L 355.603043 396.674024 
L 356.009305 396.674024 
L 356.009305 395.110314 
L 356.415567 395.110314 
L 356.415567 393.684487 
L 356.82183 393.684487 
L 356.82183 392.3276 
L 357.228092 392.3276 
L 357.228092 391.013019 
L 357.634354 391.013019 
L 357.634354 389.776779 
L 358.040617 389.776779 
L 358.040617 388.598513 
L 358.446879 388.598513 
L 358.446879 387.44845 
L 358.853141 387.44845 
L 358.853141 386.375162 
L 359.259404 386.375162 
L 359.259404 385.289339 
L 359.665666 385.289339 
L 359.665666 384.324163 
L 360.071928 384.324163 
L 360.071928 383.360555 
L 360.478191 383.360555 
L 360.478191 382.486256 
L 360.884453 382.486256 
L 360.884453 381.629193 
L 361.290715 381.629193 
L 361.290715 380.801899 
L 361.696978 380.801899 
L 361.696978 380.076451 
L 362.10324 380.076451 
L 362.10324 379.354136 
L 362.509502 379.354136 
L 362.509502 378.660024 
L 362.915765 378.660024 
L 362.915765 378.028586 
L 363.322027 378.028586 
L 363.322027 377.437886 
L 363.728289 377.437886 
L 363.728289 376.856587 
L 364.134552 376.856587 
L 364.134552 376.283122 
L 364.540814 376.283122 
L 364.540814 375.739428 
L 364.947077 375.739428 
L 364.947077 375.189466 
L 365.353339 375.189466 
L 365.353339 374.688076 
L 365.759601 374.688076 
L 365.759601 374.210188 
L 366.165864 374.210188 
L 366.165864 373.746403 
L 366.572126 373.746403 
L 366.572126 373.307687 
L 366.978388 373.307687 
L 366.978388 372.905008 
L 367.384651 372.905008 
L 367.384651 372.51173 
L 367.790913 372.51173 
L 367.790913 372.116885 
L 368.197175 372.116885 
L 368.197175 371.775314 
L 368.603438 371.775314 
L 368.603438 371.454111 
L 369.0097 371.454111 
L 369.0097 371.114106 
L 369.415962 371.114106 
L 369.415962 370.775667 
L 369.822225 370.775667 
L 369.822225 370.515571 
L 370.228487 370.515571 
L 370.228487 370.222572 
L 370.634749 370.222572 
L 370.634749 369.94054 
L 371.041012 369.94054 
L 371.041012 369.675743 
L 371.447274 369.675743 
L 371.447274 369.437583 
L 371.853536 369.437583 
L 371.853536 369.179054 
L 372.259799 369.179054 
L 372.259799 368.94246 
L 372.666061 368.94246 
L 372.666061 368.724669 
L 373.072323 368.724669 
L 373.072323 368.488076 
L 373.478586 368.488076 
L 373.478586 368.29222 
L 373.884848 368.29222 
L 373.884848 368.118301 
L 374.29111 368.118301 
L 374.29111 367.93498 
L 374.697373 367.93498 
L 374.697373 367.781429 
L 375.103635 367.781429 
L 375.103635 367.601242 
L 375.509898 367.601242 
L 375.509898 367.446125 
L 376.322422 367.338013 
L 376.322422 367.196997 
L 376.728685 367.196997 
L 376.728685 367.043446 
L 377.134947 367.043446 
L 377.134947 366.908697 
L 377.541209 366.908697 
L 377.541209 366.778649 
L 377.947472 366.778649 
L 377.947472 366.656436 
L 378.353734 366.656436 
L 378.353734 366.527955 
L 379.166259 366.422976 
L 379.166259 366.332099 
L 379.978783 366.241222 
L 379.978783 366.144078 
L 380.385046 366.144078 
L 380.385046 366.028131 
L 381.19757 365.92942 
L 381.19757 365.851078 
L 382.010095 365.769602 
L 382.010095 365.68656 
L 382.82262 365.614485 
L 382.82262 365.556512 
L 383.635142 365.478169 
L 383.635142 365.401394 
L 384.447671 365.343421 
L 384.447671 365.280747 
L 385.260191 365.21964 
L 385.260191 365.1554 
L 386.072721 365.084892 
L 386.072721 365.023785 
L 386.885241 364.939175 
L 386.885241 364.890603 
L 387.69777 364.834197 
L 387.69777 364.769956 
L 388.51029 364.71825 
L 388.51029 364.65871 
L 389.72908 364.586635 
L 389.72908 364.547464 
L 390.947869 364.45032 
L 390.947869 364.412716 
L 392.572918 364.312438 
L 392.572918 364.2764 
L 394.197968 364.18239 
L 394.197968 364.151053 
L 395.823017 364.061743 
L 395.823017 364.035106 
L 397.854327 363.94423 
L 397.854327 363.920727 
L 400.291901 363.823583 
L 400.291901 363.801647 
L 403.541999 363.698235 
L 403.541999 363.681 
L 406.792098 363.579155 
L 406.792098 363.56662 
L 412.073511 363.458508 
L 412.073511 363.450674 
L 421.417543 363.342562 
L 421.417543 363.339428 
L 433.199153 363.231316 
L 433.199153 363.226615 
L 548.577659 363.116936 
L 548.577659 363.115369 
L 577 363.113802 
L 577 363.113802 
" clip-path="url(#pf30f01ada8)" style="fill: none; opacity: 0.75; stroke: #0000ff; stroke-width: 3; stroke-linejoin: miter"/>
   </g>
   <g id="patch_15">
    <path d="M 89.359615 655.988197 
L 89.359615 348.468438 
" style="fill: none; stroke: #000000; stroke-width: 2.5; stroke-linejoin: miter; stroke-linecap: square"/>
   </g>
   <g id="patch_16">
    <path d="M 572.442024 655.988197 
L 572.442024 348.468438 
" style="fill: none; stroke: #000000; stroke-width: 2.5; stroke-linejoin: miter; stroke-linecap: square"/>
   </g>
   <g id="patch_17">
    <path d="M 89.359615 655.988197 
L 572.442024 655.988197 
" style="fill: none; stroke: #000000; stroke-width: 2.5; stroke-linejoin: miter; stroke-linecap: square"/>
   </g>
   <g id="patch_18">
    <path d="M 89.359615 348.468438 
L 572.442024 348.468438 
" style="fill: none; stroke: #000000; stroke-width: 2.5; stroke-linejoin: miter; stroke-linecap: square"/>
   </g>
   <g id="legend_2">
    <g id="patch_19">
     <path d="M 370.401867 655.988197 
L 567.042024 655.988197 
Q 572.442024 655.988197 572.442024 650.588197 
L 572.442024 576.93726 
Q 572.442024 571.53726 567.042024 571.53726 
L 370.401867 571.53726 
Q 365.001867 571.53726 365.001867 576.93726 
L 365.001867 650.588197 
Q 365.001867 655.988197 370.401867 655.988197 
z
" style="fill: #ffffff; opacity: 0.8; stroke: #000000; stroke-linejoin: miter"/>
    </g>
    <g id="patch_20">
     <path d="M 375.801867 601.23726 
L 429.801867 601.23726 
L 429.801867 582.33726 
L 375.801867 582.33726 
L 375.801867 601.23726 
z
" style="fill: none; opacity: 0.75; stroke: #ff0000; stroke-width: 3; stroke-linejoin: miter"/>
    </g>
    <g id="text_26">
     <!-- round 1 -->
     <g transform="translate(451.401867 601.23726)scale(0.27 -0.27)">
      <defs>
       <path id="TimesNewRomanPSMT-72" d="M 1038 2947 
L 1038 2303 
Q 1397 2947 1775 2947 
Q 1947 2947 2059 2842 
Q 2172 2738 2172 2600 
Q 2172 2478 2090 2393 
Q 2009 2309 1897 2309 
Q 1788 2309 1652 2417 
Q 1516 2525 1450 2525 
Q 1394 2525 1328 2463 
Q 1188 2334 1038 2041 
L 1038 669 
Q 1038 431 1097 309 
Q 1138 225 1241 169 
Q 1344 113 1538 113 
L 1538 0 
L 72 0 
L 72 113 
Q 291 113 397 181 
Q 475 231 506 341 
Q 522 394 522 644 
L 522 1753 
Q 522 2253 501 2348 
Q 481 2444 426 2487 
Q 372 2531 291 2531 
Q 194 2531 72 2484 
L 41 2597 
L 906 2947 
L 1038 2947 
z
" transform="scale(0.015625)"/>
      </defs>
      <use xlink:href="#TimesNewRomanPSMT-72"/>
      <use xlink:href="#TimesNewRomanPSMT-6f" x="33.300781"/>
      <use xlink:href="#TimesNewRomanPSMT-75" x="83.300781"/>
      <use xlink:href="#TimesNewRomanPSMT-6e" x="133.300781"/>
      <use xlink:href="#TimesNewRomanPSMT-64" x="183.300781"/>
      <use xlink:href="#TimesNewRomanPSMT-20" x="233.300781"/>
      <use xlink:href="#TimesNewRomanPSMT-31" x="258.300781"/>
     </g>
    </g>
    <g id="patch_21">
     <path d="M 375.801867 639.412729 
L 429.801867 639.412729 
L 429.801867 620.512729 
L 375.801867 620.512729 
L 375.801867 639.412729 
z
" style="fill: none; opacity: 0.75; stroke: #0000ff; stroke-width: 3; stroke-linejoin: miter"/>
    </g>
    <g id="text_27">
     <!-- round 100 -->
     <g transform="translate(451.401867 639.412729)scale(0.27 -0.27)">
      <use xlink:href="#TimesNewRomanPSMT-72"/>
      <use xlink:href="#TimesNewRomanPSMT-6f" x="33.300781"/>
      <use xlink:href="#TimesNewRomanPSMT-75" x="83.300781"/>
      <use xlink:href="#TimesNewRomanPSMT-6e" x="133.300781"/>
      <use xlink:href="#TimesNewRomanPSMT-64" x="183.300781"/>
      <use xlink:href="#TimesNewRomanPSMT-20" x="233.300781"/>
      <use xlink:href="#TimesNewRomanPSMT-31" x="258.300781"/>
      <use xlink:href="#TimesNewRomanPSMT-30" x="308.300781"/>
      <use xlink:href="#TimesNewRomanPSMT-30" x="358.300781"/>
     </g>
    </g>
   </g>
  </g>
 </g>
 <defs>
  <clipPath id="pe0da0c7701">
   <rect x="89.359615" y="3.00024" width="483.082409" height="307.51976"/>
  </clipPath>
  <clipPath id="pf30f01ada8">
   <rect x="89.359615" y="348.468438" width="483.082409" height="307.51976"/>
  </clipPath>
 </defs>
</svg>
